<?xml version="1.0" encoding="utf-8"?>
<svg xmlns="http://www.w3.org/2000/svg" xmlns:xlink="http://www.w3.org/1999/xlink" width="800" height="550" viewBox="0 0 3200 2200">
<defs>
  <clipPath id="clip320">
    <rect x="0" y="0" width="3200" height="2200"/>
  </clipPath>
</defs>
<path clip-path="url(#clip320)" d="M0 2200 L3200 2200 L3200 0 L0 0  Z" fill="#ffffff" fill-rule="evenodd" fill-opacity="1"/>
<defs>
  <clipPath id="clip321">
    <rect x="640" y="0" width="2241" height="2200"/>
  </clipPath>
</defs>
<path clip-path="url(#clip320)" d="M258.68 2014.61 L3152.76 2014.61 L3152.76 125.362 L258.68 125.362  Z" fill="#ffffff" fill-rule="evenodd" fill-opacity="1"/>
<defs>
  <clipPath id="clip322">
    <rect x="258" y="125" width="2895" height="1890"/>
  </clipPath>
</defs>
<polyline clip-path="url(#clip322)" style="stroke:#222255; stroke-linecap:round; stroke-linejoin:round; stroke-width:2; stroke-opacity:0.1; fill:none" points="771.681,2014.61 771.681,125.362 "/>
<polyline clip-path="url(#clip322)" style="stroke:#222255; stroke-linecap:round; stroke-linejoin:round; stroke-width:2; stroke-opacity:0.1; fill:none" points="1346.47,2014.61 1346.47,125.362 "/>
<polyline clip-path="url(#clip322)" style="stroke:#222255; stroke-linecap:round; stroke-linejoin:round; stroke-width:2; stroke-opacity:0.1; fill:none" points="1921.26,2014.61 1921.26,125.362 "/>
<polyline clip-path="url(#clip322)" style="stroke:#222255; stroke-linecap:round; stroke-linejoin:round; stroke-width:2; stroke-opacity:0.1; fill:none" points="2496.06,2014.61 2496.06,125.362 "/>
<polyline clip-path="url(#clip322)" style="stroke:#222255; stroke-linecap:round; stroke-linejoin:round; stroke-width:2; stroke-opacity:0.1; fill:none" points="3070.85,2014.61 3070.85,125.362 "/>
<polyline clip-path="url(#clip322)" style="stroke:#222255; stroke-linecap:round; stroke-linejoin:round; stroke-width:2; stroke-opacity:0.05; fill:none" points="311.848,2014.61 311.848,125.362 "/>
<polyline clip-path="url(#clip322)" style="stroke:#222255; stroke-linecap:round; stroke-linejoin:round; stroke-width:2; stroke-opacity:0.05; fill:none" points="426.806,2014.61 426.806,125.362 "/>
<polyline clip-path="url(#clip322)" style="stroke:#222255; stroke-linecap:round; stroke-linejoin:round; stroke-width:2; stroke-opacity:0.05; fill:none" points="541.765,2014.61 541.765,125.362 "/>
<polyline clip-path="url(#clip322)" style="stroke:#222255; stroke-linecap:round; stroke-linejoin:round; stroke-width:2; stroke-opacity:0.05; fill:none" points="656.723,2014.61 656.723,125.362 "/>
<polyline clip-path="url(#clip322)" style="stroke:#222255; stroke-linecap:round; stroke-linejoin:round; stroke-width:2; stroke-opacity:0.05; fill:none" points="886.64,2014.61 886.64,125.362 "/>
<polyline clip-path="url(#clip322)" style="stroke:#222255; stroke-linecap:round; stroke-linejoin:round; stroke-width:2; stroke-opacity:0.05; fill:none" points="1001.6,2014.61 1001.6,125.362 "/>
<polyline clip-path="url(#clip322)" style="stroke:#222255; stroke-linecap:round; stroke-linejoin:round; stroke-width:2; stroke-opacity:0.05; fill:none" points="1116.56,2014.61 1116.56,125.362 "/>
<polyline clip-path="url(#clip322)" style="stroke:#222255; stroke-linecap:round; stroke-linejoin:round; stroke-width:2; stroke-opacity:0.05; fill:none" points="1231.51,2014.61 1231.51,125.362 "/>
<polyline clip-path="url(#clip322)" style="stroke:#222255; stroke-linecap:round; stroke-linejoin:round; stroke-width:2; stroke-opacity:0.05; fill:none" points="1461.43,2014.61 1461.43,125.362 "/>
<polyline clip-path="url(#clip322)" style="stroke:#222255; stroke-linecap:round; stroke-linejoin:round; stroke-width:2; stroke-opacity:0.05; fill:none" points="1576.39,2014.61 1576.39,125.362 "/>
<polyline clip-path="url(#clip322)" style="stroke:#222255; stroke-linecap:round; stroke-linejoin:round; stroke-width:2; stroke-opacity:0.05; fill:none" points="1691.35,2014.61 1691.35,125.362 "/>
<polyline clip-path="url(#clip322)" style="stroke:#222255; stroke-linecap:round; stroke-linejoin:round; stroke-width:2; stroke-opacity:0.05; fill:none" points="1806.31,2014.61 1806.31,125.362 "/>
<polyline clip-path="url(#clip322)" style="stroke:#222255; stroke-linecap:round; stroke-linejoin:round; stroke-width:2; stroke-opacity:0.05; fill:none" points="2036.22,2014.61 2036.22,125.362 "/>
<polyline clip-path="url(#clip322)" style="stroke:#222255; stroke-linecap:round; stroke-linejoin:round; stroke-width:2; stroke-opacity:0.05; fill:none" points="2151.18,2014.61 2151.18,125.362 "/>
<polyline clip-path="url(#clip322)" style="stroke:#222255; stroke-linecap:round; stroke-linejoin:round; stroke-width:2; stroke-opacity:0.05; fill:none" points="2266.14,2014.61 2266.14,125.362 "/>
<polyline clip-path="url(#clip322)" style="stroke:#222255; stroke-linecap:round; stroke-linejoin:round; stroke-width:2; stroke-opacity:0.05; fill:none" points="2381.1,2014.61 2381.1,125.362 "/>
<polyline clip-path="url(#clip322)" style="stroke:#222255; stroke-linecap:round; stroke-linejoin:round; stroke-width:2; stroke-opacity:0.05; fill:none" points="2611.01,2014.61 2611.01,125.362 "/>
<polyline clip-path="url(#clip322)" style="stroke:#222255; stroke-linecap:round; stroke-linejoin:round; stroke-width:2; stroke-opacity:0.05; fill:none" points="2725.97,2014.61 2725.97,125.362 "/>
<polyline clip-path="url(#clip322)" style="stroke:#222255; stroke-linecap:round; stroke-linejoin:round; stroke-width:2; stroke-opacity:0.05; fill:none" points="2840.93,2014.61 2840.93,125.362 "/>
<polyline clip-path="url(#clip322)" style="stroke:#222255; stroke-linecap:round; stroke-linejoin:round; stroke-width:2; stroke-opacity:0.05; fill:none" points="2955.89,2014.61 2955.89,125.362 "/>
<polyline clip-path="url(#clip320)" style="stroke:#222255; stroke-linecap:round; stroke-linejoin:round; stroke-width:4; stroke-opacity:0; fill:none" points="771.681,2014.61 771.681,1995.72 "/>
<polyline clip-path="url(#clip320)" style="stroke:#222255; stroke-linecap:round; stroke-linejoin:round; stroke-width:4; stroke-opacity:0; fill:none" points="1346.47,2014.61 1346.47,1995.72 "/>
<polyline clip-path="url(#clip320)" style="stroke:#222255; stroke-linecap:round; stroke-linejoin:round; stroke-width:4; stroke-opacity:0; fill:none" points="1921.26,2014.61 1921.26,1995.72 "/>
<polyline clip-path="url(#clip320)" style="stroke:#222255; stroke-linecap:round; stroke-linejoin:round; stroke-width:4; stroke-opacity:0; fill:none" points="2496.06,2014.61 2496.06,1995.72 "/>
<polyline clip-path="url(#clip320)" style="stroke:#222255; stroke-linecap:round; stroke-linejoin:round; stroke-width:4; stroke-opacity:0; fill:none" points="3070.85,2014.61 3070.85,1995.72 "/>
<polyline clip-path="url(#clip320)" style="stroke:#222255; stroke-linecap:round; stroke-linejoin:round; stroke-width:4; stroke-opacity:0; fill:none" points="311.848,2014.61 311.848,2005.17 "/>
<polyline clip-path="url(#clip320)" style="stroke:#222255; stroke-linecap:round; stroke-linejoin:round; stroke-width:4; stroke-opacity:0; fill:none" points="426.806,2014.61 426.806,2005.17 "/>
<polyline clip-path="url(#clip320)" style="stroke:#222255; stroke-linecap:round; stroke-linejoin:round; stroke-width:4; stroke-opacity:0; fill:none" points="541.765,2014.61 541.765,2005.17 "/>
<polyline clip-path="url(#clip320)" style="stroke:#222255; stroke-linecap:round; stroke-linejoin:round; stroke-width:4; stroke-opacity:0; fill:none" points="656.723,2014.61 656.723,2005.17 "/>
<polyline clip-path="url(#clip320)" style="stroke:#222255; stroke-linecap:round; stroke-linejoin:round; stroke-width:4; stroke-opacity:0; fill:none" points="886.64,2014.61 886.64,2005.17 "/>
<polyline clip-path="url(#clip320)" style="stroke:#222255; stroke-linecap:round; stroke-linejoin:round; stroke-width:4; stroke-opacity:0; fill:none" points="1001.6,2014.61 1001.6,2005.17 "/>
<polyline clip-path="url(#clip320)" style="stroke:#222255; stroke-linecap:round; stroke-linejoin:round; stroke-width:4; stroke-opacity:0; fill:none" points="1116.56,2014.61 1116.56,2005.17 "/>
<polyline clip-path="url(#clip320)" style="stroke:#222255; stroke-linecap:round; stroke-linejoin:round; stroke-width:4; stroke-opacity:0; fill:none" points="1231.51,2014.61 1231.51,2005.17 "/>
<polyline clip-path="url(#clip320)" style="stroke:#222255; stroke-linecap:round; stroke-linejoin:round; stroke-width:4; stroke-opacity:0; fill:none" points="1461.43,2014.61 1461.43,2005.17 "/>
<polyline clip-path="url(#clip320)" style="stroke:#222255; stroke-linecap:round; stroke-linejoin:round; stroke-width:4; stroke-opacity:0; fill:none" points="1576.39,2014.61 1576.39,2005.17 "/>
<polyline clip-path="url(#clip320)" style="stroke:#222255; stroke-linecap:round; stroke-linejoin:round; stroke-width:4; stroke-opacity:0; fill:none" points="1691.35,2014.61 1691.35,2005.17 "/>
<polyline clip-path="url(#clip320)" style="stroke:#222255; stroke-linecap:round; stroke-linejoin:round; stroke-width:4; stroke-opacity:0; fill:none" points="1806.31,2014.61 1806.31,2005.17 "/>
<polyline clip-path="url(#clip320)" style="stroke:#222255; stroke-linecap:round; stroke-linejoin:round; stroke-width:4; stroke-opacity:0; fill:none" points="2036.22,2014.61 2036.22,2005.17 "/>
<polyline clip-path="url(#clip320)" style="stroke:#222255; stroke-linecap:round; stroke-linejoin:round; stroke-width:4; stroke-opacity:0; fill:none" points="2151.18,2014.61 2151.18,2005.17 "/>
<polyline clip-path="url(#clip320)" style="stroke:#222255; stroke-linecap:round; stroke-linejoin:round; stroke-width:4; stroke-opacity:0; fill:none" points="2266.14,2014.61 2266.14,2005.17 "/>
<polyline clip-path="url(#clip320)" style="stroke:#222255; stroke-linecap:round; stroke-linejoin:round; stroke-width:4; stroke-opacity:0; fill:none" points="2381.1,2014.61 2381.1,2005.17 "/>
<polyline clip-path="url(#clip320)" style="stroke:#222255; stroke-linecap:round; stroke-linejoin:round; stroke-width:4; stroke-opacity:0; fill:none" points="2611.01,2014.61 2611.01,2005.17 "/>
<polyline clip-path="url(#clip320)" style="stroke:#222255; stroke-linecap:round; stroke-linejoin:round; stroke-width:4; stroke-opacity:0; fill:none" points="2725.97,2014.61 2725.97,2005.17 "/>
<polyline clip-path="url(#clip320)" style="stroke:#222255; stroke-linecap:round; stroke-linejoin:round; stroke-width:4; stroke-opacity:0; fill:none" points="2840.93,2014.61 2840.93,2005.17 "/>
<polyline clip-path="url(#clip320)" style="stroke:#222255; stroke-linecap:round; stroke-linejoin:round; stroke-width:4; stroke-opacity:0; fill:none" points="2955.89,2014.61 2955.89,2005.17 "/>
<path clip-path="url(#clip320)" d="M750.455 2079.48 L766.774 2079.48 L766.774 2083.41 L744.83 2083.41 L744.83 2079.48 Q747.492 2076.73 752.075 2072.1 Q756.681 2067.44 757.862 2066.1 Q760.107 2063.58 760.987 2061.84 Q761.89 2060.08 761.89 2058.39 Q761.89 2055.64 759.945 2053.9 Q758.024 2052.17 754.922 2052.17 Q752.723 2052.17 750.269 2052.93 Q747.839 2053.69 745.061 2055.24 L745.061 2050.52 Q747.885 2049.39 750.339 2048.81 Q752.793 2048.23 754.83 2048.23 Q760.2 2048.23 763.394 2050.92 Q766.589 2053.6 766.589 2058.09 Q766.589 2060.22 765.779 2062.14 Q764.992 2064.04 762.885 2066.63 Q762.306 2067.3 759.205 2070.52 Q756.103 2073.72 750.455 2079.48 Z" fill="#000000" fill-rule="nonzero" fill-opacity="1" /><path clip-path="url(#clip320)" d="M786.589 2051.93 Q782.978 2051.93 781.149 2055.5 Q779.343 2059.04 779.343 2066.17 Q779.343 2073.28 781.149 2076.84 Q782.978 2080.38 786.589 2080.38 Q790.223 2080.38 792.028 2076.84 Q793.857 2073.28 793.857 2066.17 Q793.857 2059.04 792.028 2055.5 Q790.223 2051.93 786.589 2051.93 M786.589 2048.23 Q792.399 2048.23 795.454 2052.84 Q798.533 2057.42 798.533 2066.17 Q798.533 2074.9 795.454 2079.5 Q792.399 2084.09 786.589 2084.09 Q780.779 2084.09 777.7 2079.5 Q774.644 2074.9 774.644 2066.17 Q774.644 2057.42 777.7 2052.84 Q780.779 2048.23 786.589 2048.23 Z" fill="#000000" fill-rule="nonzero" fill-opacity="1" /><path clip-path="url(#clip320)" d="M1334.64 2052.93 L1322.84 2071.38 L1334.64 2071.38 L1334.64 2052.93 M1333.42 2048.85 L1339.3 2048.85 L1339.3 2071.38 L1344.23 2071.38 L1344.23 2075.27 L1339.3 2075.27 L1339.3 2083.41 L1334.64 2083.41 L1334.64 2075.27 L1319.04 2075.27 L1319.04 2070.75 L1333.42 2048.85 Z" fill="#000000" fill-rule="nonzero" fill-opacity="1" /><path clip-path="url(#clip320)" d="M1361.96 2051.93 Q1358.35 2051.93 1356.52 2055.5 Q1354.71 2059.04 1354.71 2066.17 Q1354.71 2073.28 1356.52 2076.84 Q1358.35 2080.38 1361.96 2080.38 Q1365.59 2080.38 1367.4 2076.84 Q1369.23 2073.28 1369.23 2066.17 Q1369.23 2059.04 1367.4 2055.5 Q1365.59 2051.93 1361.96 2051.93 M1361.96 2048.23 Q1367.77 2048.23 1370.82 2052.84 Q1373.9 2057.42 1373.9 2066.17 Q1373.9 2074.9 1370.82 2079.5 Q1367.77 2084.09 1361.96 2084.09 Q1356.15 2084.09 1353.07 2079.5 Q1350.01 2074.9 1350.01 2066.17 Q1350.01 2057.42 1353.07 2052.84 Q1356.15 2048.23 1361.96 2048.23 Z" fill="#000000" fill-rule="nonzero" fill-opacity="1" /><path clip-path="url(#clip320)" d="M1906.67 2064.27 Q1903.52 2064.27 1901.67 2066.42 Q1899.84 2068.58 1899.84 2072.33 Q1899.84 2076.05 1901.67 2078.23 Q1903.52 2080.38 1906.67 2080.38 Q1909.82 2080.38 1911.65 2078.23 Q1913.5 2076.05 1913.5 2072.33 Q1913.5 2068.58 1911.65 2066.42 Q1909.82 2064.27 1906.67 2064.27 M1915.95 2049.62 L1915.95 2053.88 Q1914.19 2053.04 1912.39 2052.6 Q1910.61 2052.17 1908.85 2052.17 Q1904.22 2052.17 1901.76 2055.29 Q1899.33 2058.41 1898.98 2064.73 Q1900.35 2062.72 1902.41 2061.66 Q1904.47 2060.57 1906.95 2060.57 Q1912.16 2060.57 1915.17 2063.74 Q1918.2 2066.89 1918.2 2072.33 Q1918.2 2077.65 1915.05 2080.87 Q1911.9 2084.09 1906.67 2084.09 Q1900.67 2084.09 1897.5 2079.5 Q1894.33 2074.9 1894.33 2066.17 Q1894.33 2057.98 1898.22 2053.11 Q1902.11 2048.23 1908.66 2048.23 Q1910.42 2048.23 1912.2 2048.58 Q1914.01 2048.92 1915.95 2049.62 Z" fill="#000000" fill-rule="nonzero" fill-opacity="1" /><path clip-path="url(#clip320)" d="M1936.25 2051.93 Q1932.64 2051.93 1930.81 2055.5 Q1929.01 2059.04 1929.01 2066.17 Q1929.01 2073.28 1930.81 2076.84 Q1932.64 2080.38 1936.25 2080.38 Q1939.89 2080.38 1941.69 2076.84 Q1943.52 2073.28 1943.52 2066.17 Q1943.52 2059.04 1941.69 2055.5 Q1939.89 2051.93 1936.25 2051.93 M1936.25 2048.23 Q1942.06 2048.23 1945.12 2052.84 Q1948.2 2057.42 1948.2 2066.17 Q1948.2 2074.9 1945.12 2079.5 Q1942.06 2084.09 1936.25 2084.09 Q1930.44 2084.09 1927.36 2079.5 Q1924.31 2074.9 1924.31 2066.17 Q1924.31 2057.42 1927.36 2052.84 Q1930.44 2048.23 1936.25 2048.23 Z" fill="#000000" fill-rule="nonzero" fill-opacity="1" /><path clip-path="url(#clip320)" d="M2480.93 2067 Q2477.6 2067 2475.67 2068.79 Q2473.78 2070.57 2473.78 2073.69 Q2473.78 2076.82 2475.67 2078.6 Q2477.6 2080.38 2480.93 2080.38 Q2484.26 2080.38 2486.18 2078.6 Q2488.11 2076.79 2488.11 2073.69 Q2488.11 2070.57 2486.18 2068.79 Q2484.29 2067 2480.93 2067 M2476.25 2065.01 Q2473.24 2064.27 2471.55 2062.21 Q2469.89 2060.15 2469.89 2057.19 Q2469.89 2053.04 2472.83 2050.64 Q2475.79 2048.23 2480.93 2048.23 Q2486.09 2048.23 2489.03 2050.64 Q2491.97 2053.04 2491.97 2057.19 Q2491.97 2060.15 2490.28 2062.21 Q2488.61 2064.27 2485.63 2065.01 Q2489.01 2065.8 2490.88 2068.09 Q2492.78 2070.38 2492.78 2073.69 Q2492.78 2078.72 2489.7 2081.4 Q2486.65 2084.09 2480.93 2084.09 Q2475.21 2084.09 2472.13 2081.4 Q2469.08 2078.72 2469.08 2073.69 Q2469.08 2070.38 2470.98 2068.09 Q2472.87 2065.8 2476.25 2065.01 M2474.54 2057.63 Q2474.54 2060.31 2476.21 2061.82 Q2477.9 2063.32 2480.93 2063.32 Q2483.94 2063.32 2485.63 2061.82 Q2487.34 2060.31 2487.34 2057.63 Q2487.34 2054.94 2485.63 2053.44 Q2483.94 2051.93 2480.93 2051.93 Q2477.9 2051.93 2476.21 2053.44 Q2474.54 2054.94 2474.54 2057.63 Z" fill="#000000" fill-rule="nonzero" fill-opacity="1" /><path clip-path="url(#clip320)" d="M2511.09 2051.93 Q2507.48 2051.93 2505.65 2055.5 Q2503.85 2059.04 2503.85 2066.17 Q2503.85 2073.28 2505.65 2076.84 Q2507.48 2080.38 2511.09 2080.38 Q2514.73 2080.38 2516.53 2076.84 Q2518.36 2073.28 2518.36 2066.17 Q2518.36 2059.04 2516.53 2055.5 Q2514.73 2051.93 2511.09 2051.93 M2511.09 2048.23 Q2516.9 2048.23 2519.96 2052.84 Q2523.04 2057.42 2523.04 2066.17 Q2523.04 2074.9 2519.96 2079.5 Q2516.9 2084.09 2511.09 2084.09 Q2505.28 2084.09 2502.2 2079.5 Q2499.15 2074.9 2499.15 2066.17 Q2499.15 2057.42 2502.2 2052.84 Q2505.28 2048.23 2511.09 2048.23 Z" fill="#000000" fill-rule="nonzero" fill-opacity="1" /><path clip-path="url(#clip320)" d="M3030.45 2079.48 L3038.09 2079.48 L3038.09 2053.11 L3029.78 2054.78 L3029.78 2050.52 L3038.05 2048.85 L3042.72 2048.85 L3042.72 2079.48 L3050.36 2079.48 L3050.36 2083.41 L3030.45 2083.41 L3030.45 2079.48 Z" fill="#000000" fill-rule="nonzero" fill-opacity="1" /><path clip-path="url(#clip320)" d="M3069.81 2051.93 Q3066.2 2051.93 3064.37 2055.5 Q3062.56 2059.04 3062.56 2066.17 Q3062.56 2073.28 3064.37 2076.84 Q3066.2 2080.38 3069.81 2080.38 Q3073.44 2080.38 3075.25 2076.84 Q3077.07 2073.28 3077.07 2066.17 Q3077.07 2059.04 3075.25 2055.5 Q3073.44 2051.93 3069.81 2051.93 M3069.81 2048.23 Q3075.62 2048.23 3078.67 2052.84 Q3081.75 2057.42 3081.75 2066.17 Q3081.75 2074.9 3078.67 2079.5 Q3075.62 2084.09 3069.81 2084.09 Q3064 2084.09 3060.92 2079.5 Q3057.86 2074.9 3057.86 2066.17 Q3057.86 2057.42 3060.92 2052.84 Q3064 2048.23 3069.81 2048.23 Z" fill="#000000" fill-rule="nonzero" fill-opacity="1" /><path clip-path="url(#clip320)" d="M3099.97 2051.93 Q3096.36 2051.93 3094.53 2055.5 Q3092.72 2059.04 3092.72 2066.17 Q3092.72 2073.28 3094.53 2076.84 Q3096.36 2080.38 3099.97 2080.38 Q3103.6 2080.38 3105.41 2076.84 Q3107.24 2073.28 3107.24 2066.17 Q3107.24 2059.04 3105.41 2055.5 Q3103.6 2051.93 3099.97 2051.93 M3099.97 2048.23 Q3105.78 2048.23 3108.83 2052.84 Q3111.91 2057.42 3111.91 2066.17 Q3111.91 2074.9 3108.83 2079.5 Q3105.78 2084.09 3099.97 2084.09 Q3094.16 2084.09 3091.08 2079.5 Q3088.02 2074.9 3088.02 2066.17 Q3088.02 2057.42 3091.08 2052.84 Q3094.16 2048.23 3099.97 2048.23 Z" fill="#000000" fill-rule="nonzero" fill-opacity="1" /><path clip-path="url(#clip320)" d="M1368.8 2123.96 L1375.23 2123.96 L1375.23 2147.45 L1398.21 2123.96 L1406.45 2123.96 L1388.09 2142.74 L1407.4 2171.48 L1400.4 2171.48 L1383.92 2147 L1375.23 2155.88 L1375.23 2171.48 L1368.8 2171.48 L1368.8 2123.96 Z" fill="#000000" fill-rule="nonzero" fill-opacity="1" /><path clip-path="url(#clip320)" d="M1428.63 2139.94 Q1423.92 2139.94 1421.19 2143.63 Q1418.45 2147.29 1418.45 2153.69 Q1418.45 2160.08 1421.15 2163.78 Q1423.89 2167.44 1428.63 2167.44 Q1433.31 2167.44 1436.05 2163.74 Q1438.79 2160.05 1438.79 2153.69 Q1438.79 2147.35 1436.05 2143.66 Q1433.31 2139.94 1428.63 2139.94 M1428.63 2134.97 Q1436.27 2134.97 1440.63 2139.94 Q1444.99 2144.9 1444.99 2153.69 Q1444.99 2162.44 1440.63 2167.44 Q1436.27 2172.4 1428.63 2172.4 Q1420.96 2172.4 1416.6 2167.44 Q1412.27 2162.44 1412.27 2153.69 Q1412.27 2144.9 1416.6 2139.94 Q1420.96 2134.97 1428.63 2134.97 Z" fill="#000000" fill-rule="nonzero" fill-opacity="1" /><path clip-path="url(#clip320)" d="M1450.98 2171.48 L1450.98 2166.61 Q1456.77 2165.72 1458.55 2161.71 Q1460.72 2156.07 1460.72 2141.66 L1460.72 2135.83 L1484.81 2135.83 L1484.81 2171.48 L1478.96 2171.48 L1478.96 2140.51 L1466.57 2140.51 L1466.57 2144.04 Q1466.57 2157.79 1463.77 2163.97 Q1460.78 2170.56 1450.98 2171.48 Z" fill="#000000" fill-rule="nonzero" fill-opacity="1" /><path clip-path="url(#clip320)" d="M1526.67 2135.83 L1526.67 2171.48 L1520.84 2171.48 L1520.84 2142.86 L1503.65 2171.48 L1496.14 2171.48 L1496.14 2135.83 L1501.97 2135.83 L1501.97 2164.38 L1519.12 2135.83 L1526.67 2135.83 Z" fill="#000000" fill-rule="nonzero" fill-opacity="1" /><path clip-path="url(#clip320)" d="M1559.32 2171.48 L1559.32 2156.49 L1548.41 2156.49 Q1543.54 2156.49 1540.29 2153.46 Q1537.36 2150.73 1537.36 2144.87 L1537.36 2135.83 L1543.22 2135.83 L1543.22 2144.33 Q1543.22 2148.05 1544.87 2149.93 Q1546.56 2151.81 1549.87 2151.81 L1559.32 2151.81 L1559.32 2135.83 L1565.18 2135.83 L1565.18 2171.48 L1559.32 2171.48 Z" fill="#000000" fill-rule="nonzero" fill-opacity="1" /><path clip-path="url(#clip320)" d="M1607.73 2152.19 L1607.73 2155.06 L1580.81 2155.06 Q1581.19 2161.1 1584.44 2164.29 Q1587.71 2167.44 1593.54 2167.44 Q1596.91 2167.44 1600.06 2166.61 Q1603.25 2165.78 1606.37 2164.13 L1606.37 2169.66 Q1603.21 2171 1599.9 2171.7 Q1596.59 2172.4 1593.19 2172.4 Q1584.66 2172.4 1579.66 2167.44 Q1574.7 2162.47 1574.7 2154 Q1574.7 2145.25 1579.41 2140.13 Q1584.15 2134.97 1592.17 2134.97 Q1599.36 2134.97 1603.53 2139.62 Q1607.73 2144.23 1607.73 2152.19 M1601.88 2150.47 Q1601.81 2145.67 1599.17 2142.8 Q1596.56 2139.94 1592.23 2139.94 Q1587.33 2139.94 1584.37 2142.71 Q1581.44 2145.47 1581 2150.5 L1601.88 2150.47 Z" fill="#000000" fill-rule="nonzero" fill-opacity="1" /><path clip-path="url(#clip320)" d="M1643 2137.2 L1643 2142.67 Q1640.52 2141.31 1638 2140.64 Q1635.52 2139.94 1632.97 2139.94 Q1627.28 2139.94 1624.13 2143.57 Q1620.97 2147.16 1620.97 2153.69 Q1620.97 2160.21 1624.13 2163.84 Q1627.28 2167.44 1632.97 2167.44 Q1635.52 2167.44 1638 2166.77 Q1640.52 2166.07 1643 2164.7 L1643 2170.11 Q1640.55 2171.26 1637.91 2171.83 Q1635.3 2172.4 1632.34 2172.4 Q1624.28 2172.4 1619.54 2167.34 Q1614.8 2162.28 1614.8 2153.69 Q1614.8 2144.97 1619.57 2139.97 Q1624.38 2134.97 1632.72 2134.97 Q1635.42 2134.97 1638 2135.54 Q1640.58 2136.09 1643 2137.2 Z" fill="#000000" fill-rule="nonzero" fill-opacity="1" /><path clip-path="url(#clip320)" d="M1648.95 2135.83 L1683.1 2135.83 L1683.1 2140.51 L1668.91 2140.51 L1668.91 2171.48 L1663.15 2171.48 L1663.15 2140.51 L1648.95 2140.51 L1648.95 2135.83 Z" fill="#000000" fill-rule="nonzero" fill-opacity="1" /><path clip-path="url(#clip320)" d="M1696.79 2155.06 L1696.79 2166.8 L1705.13 2166.8 Q1709.14 2166.8 1711.24 2165.3 Q1713.34 2163.78 1713.34 2160.91 Q1713.34 2158.05 1711.24 2156.55 Q1709.14 2155.06 1705.13 2155.06 L1696.79 2155.06 M1696.79 2140.51 L1696.79 2150.38 L1704.49 2150.38 Q1707.8 2150.38 1709.9 2149.07 Q1712 2147.73 1712 2145.38 Q1712 2143.02 1709.9 2141.78 Q1707.8 2140.51 1704.49 2140.51 L1696.79 2140.51 M1690.93 2135.83 L1704.87 2135.83 Q1711.14 2135.83 1714.52 2138.12 Q1717.89 2140.41 1717.89 2144.65 Q1717.89 2147.93 1716.17 2149.87 Q1714.45 2151.78 1711.08 2152.25 Q1715.12 2153.02 1717.35 2155.44 Q1719.58 2157.86 1719.58 2161.48 Q1719.58 2166.26 1715.89 2168.87 Q1712.23 2171.48 1705.42 2171.48 L1690.93 2171.48 L1690.93 2135.83 Z" fill="#000000" fill-rule="nonzero" fill-opacity="1" /><path clip-path="url(#clip320)" d="M1743.39 2139.94 Q1738.68 2139.94 1735.94 2143.63 Q1733.2 2147.29 1733.2 2153.69 Q1733.2 2160.08 1735.91 2163.78 Q1738.64 2167.44 1743.39 2167.44 Q1748.07 2167.44 1750.8 2163.74 Q1753.54 2160.05 1753.54 2153.69 Q1753.54 2147.35 1750.8 2143.66 Q1748.07 2139.94 1743.39 2139.94 M1743.39 2134.97 Q1751.03 2134.97 1755.39 2139.94 Q1759.75 2144.9 1759.75 2153.69 Q1759.75 2162.44 1755.39 2167.44 Q1751.03 2172.4 1743.39 2172.4 Q1735.72 2172.4 1731.36 2167.44 Q1727.03 2162.44 1727.03 2153.69 Q1727.03 2144.9 1731.36 2139.94 Q1735.72 2134.97 1743.39 2134.97 Z" fill="#000000" fill-rule="nonzero" fill-opacity="1" /><path clip-path="url(#clip320)" d="M1795.81 2155.06 L1795.81 2166.8 L1804.15 2166.8 Q1808.16 2166.8 1810.26 2165.3 Q1812.36 2163.78 1812.36 2160.91 Q1812.36 2158.05 1810.26 2156.55 Q1808.16 2155.06 1804.15 2155.06 L1795.81 2155.06 M1795.81 2140.51 L1795.81 2150.38 L1803.51 2150.38 Q1806.82 2150.38 1808.92 2149.07 Q1811.02 2147.73 1811.02 2145.38 Q1811.02 2143.02 1808.92 2141.78 Q1806.82 2140.51 1803.51 2140.51 L1795.81 2140.51 M1789.95 2135.83 L1803.89 2135.83 Q1810.16 2135.83 1813.54 2138.12 Q1816.91 2140.41 1816.91 2144.65 Q1816.91 2147.93 1815.19 2149.87 Q1813.47 2151.78 1810.1 2152.25 Q1814.14 2153.02 1816.37 2155.44 Q1818.6 2157.86 1818.6 2161.48 Q1818.6 2166.26 1814.91 2168.87 Q1811.25 2171.48 1804.43 2171.48 L1789.95 2171.48 L1789.95 2135.83 Z" fill="#000000" fill-rule="nonzero" fill-opacity="1" /><path clip-path="url(#clip320)" d="M1859.08 2152.19 L1859.08 2155.06 L1832.16 2155.06 Q1832.54 2161.1 1835.79 2164.29 Q1839.06 2167.44 1844.89 2167.44 Q1848.26 2167.44 1851.41 2166.61 Q1854.6 2165.78 1857.72 2164.13 L1857.72 2169.66 Q1854.56 2171 1851.25 2171.7 Q1847.94 2172.4 1844.54 2172.4 Q1836.01 2172.4 1831.01 2167.44 Q1826.05 2162.47 1826.05 2154 Q1826.05 2145.25 1830.76 2140.13 Q1835.5 2134.97 1843.52 2134.97 Q1850.71 2134.97 1854.88 2139.62 Q1859.08 2144.23 1859.08 2152.19 M1853.23 2150.47 Q1853.16 2145.67 1850.52 2142.8 Q1847.91 2139.94 1843.58 2139.94 Q1838.68 2139.94 1835.72 2142.71 Q1832.79 2145.47 1832.35 2150.5 L1853.23 2150.47 Z" fill="#000000" fill-rule="nonzero" fill-opacity="1" /><path clip-path="url(#clip320)" d="M1874.36 2166.13 L1874.36 2185.04 L1868.47 2185.04 L1868.47 2135.83 L1874.36 2135.83 L1874.36 2141.24 Q1876.21 2138.06 1879.01 2136.53 Q1881.84 2134.97 1885.76 2134.97 Q1892.25 2134.97 1896.29 2140.13 Q1900.37 2145.28 1900.37 2153.69 Q1900.37 2162.09 1896.29 2167.25 Q1892.25 2172.4 1885.76 2172.4 Q1881.84 2172.4 1879.01 2170.87 Q1876.21 2169.31 1874.36 2166.13 M1894.29 2153.69 Q1894.29 2147.23 1891.61 2143.57 Q1888.97 2139.87 1884.32 2139.87 Q1879.68 2139.87 1877 2143.57 Q1874.36 2147.23 1874.36 2153.69 Q1874.36 2160.15 1877 2163.84 Q1879.68 2167.5 1884.32 2167.5 Q1888.97 2167.5 1891.61 2163.84 Q1894.29 2160.15 1894.29 2153.69 Z" fill="#000000" fill-rule="nonzero" fill-opacity="1" /><path clip-path="url(#clip320)" d="M1936.68 2166.8 L1951.77 2166.8 L1951.77 2135.83 L1957.66 2135.83 L1957.66 2171.48 L1909.85 2171.48 L1909.85 2135.83 L1915.74 2135.83 L1915.74 2166.8 L1930.79 2166.8 L1930.79 2135.83 L1936.68 2135.83 L1936.68 2166.8 Z" fill="#000000" fill-rule="nonzero" fill-opacity="1" /><path clip-path="url(#clip320)" d="M2000.02 2135.83 L2000.02 2171.48 L1994.2 2171.48 L1994.2 2142.86 L1977.01 2171.48 L1969.5 2171.48 L1969.5 2135.83 L1975.32 2135.83 L1975.32 2164.38 L1992.48 2135.83 L2000.02 2135.83 Z" fill="#000000" fill-rule="nonzero" fill-opacity="1" /><path clip-path="url(#clip320)" d="M2011.86 2135.83 L2017.75 2135.83 L2017.75 2150.38 L2036.75 2150.38 L2036.75 2135.83 L2042.64 2135.83 L2042.64 2171.48 L2036.75 2171.48 L2036.75 2155.06 L2017.75 2155.06 L2017.75 2171.48 L2011.86 2171.48 L2011.86 2135.83 Z" fill="#000000" fill-rule="nonzero" fill-opacity="1" /><polyline clip-path="url(#clip322)" style="stroke:#222255; stroke-linecap:round; stroke-linejoin:round; stroke-width:2; stroke-opacity:0.1; fill:none" points="258.68,1947.31 3152.76,1947.31 "/>
<polyline clip-path="url(#clip322)" style="stroke:#222255; stroke-linecap:round; stroke-linejoin:round; stroke-width:2; stroke-opacity:0.1; fill:none" points="258.68,1601.3 3152.76,1601.3 "/>
<polyline clip-path="url(#clip322)" style="stroke:#222255; stroke-linecap:round; stroke-linejoin:round; stroke-width:2; stroke-opacity:0.1; fill:none" points="258.68,1255.29 3152.76,1255.29 "/>
<polyline clip-path="url(#clip322)" style="stroke:#222255; stroke-linecap:round; stroke-linejoin:round; stroke-width:2; stroke-opacity:0.1; fill:none" points="258.68,909.276 3152.76,909.276 "/>
<polyline clip-path="url(#clip322)" style="stroke:#222255; stroke-linecap:round; stroke-linejoin:round; stroke-width:2; stroke-opacity:0.1; fill:none" points="258.68,563.267 3152.76,563.267 "/>
<polyline clip-path="url(#clip322)" style="stroke:#222255; stroke-linecap:round; stroke-linejoin:round; stroke-width:2; stroke-opacity:0.1; fill:none" points="258.68,217.257 3152.76,217.257 "/>
<polyline clip-path="url(#clip322)" style="stroke:#222255; stroke-linecap:round; stroke-linejoin:round; stroke-width:2; stroke-opacity:0.05; fill:none" points="258.68,1878.1 3152.76,1878.1 "/>
<polyline clip-path="url(#clip322)" style="stroke:#222255; stroke-linecap:round; stroke-linejoin:round; stroke-width:2; stroke-opacity:0.05; fill:none" points="258.68,1808.9 3152.76,1808.9 "/>
<polyline clip-path="url(#clip322)" style="stroke:#222255; stroke-linecap:round; stroke-linejoin:round; stroke-width:2; stroke-opacity:0.05; fill:none" points="258.68,1739.7 3152.76,1739.7 "/>
<polyline clip-path="url(#clip322)" style="stroke:#222255; stroke-linecap:round; stroke-linejoin:round; stroke-width:2; stroke-opacity:0.05; fill:none" points="258.68,1670.5 3152.76,1670.5 "/>
<polyline clip-path="url(#clip322)" style="stroke:#222255; stroke-linecap:round; stroke-linejoin:round; stroke-width:2; stroke-opacity:0.05; fill:none" points="258.68,1532.09 3152.76,1532.09 "/>
<polyline clip-path="url(#clip322)" style="stroke:#222255; stroke-linecap:round; stroke-linejoin:round; stroke-width:2; stroke-opacity:0.05; fill:none" points="258.68,1462.89 3152.76,1462.89 "/>
<polyline clip-path="url(#clip322)" style="stroke:#222255; stroke-linecap:round; stroke-linejoin:round; stroke-width:2; stroke-opacity:0.05; fill:none" points="258.68,1393.69 3152.76,1393.69 "/>
<polyline clip-path="url(#clip322)" style="stroke:#222255; stroke-linecap:round; stroke-linejoin:round; stroke-width:2; stroke-opacity:0.05; fill:none" points="258.68,1324.49 3152.76,1324.49 "/>
<polyline clip-path="url(#clip322)" style="stroke:#222255; stroke-linecap:round; stroke-linejoin:round; stroke-width:2; stroke-opacity:0.05; fill:none" points="258.68,1186.08 3152.76,1186.08 "/>
<polyline clip-path="url(#clip322)" style="stroke:#222255; stroke-linecap:round; stroke-linejoin:round; stroke-width:2; stroke-opacity:0.05; fill:none" points="258.68,1116.88 3152.76,1116.88 "/>
<polyline clip-path="url(#clip322)" style="stroke:#222255; stroke-linecap:round; stroke-linejoin:round; stroke-width:2; stroke-opacity:0.05; fill:none" points="258.68,1047.68 3152.76,1047.68 "/>
<polyline clip-path="url(#clip322)" style="stroke:#222255; stroke-linecap:round; stroke-linejoin:round; stroke-width:2; stroke-opacity:0.05; fill:none" points="258.68,978.478 3152.76,978.478 "/>
<polyline clip-path="url(#clip322)" style="stroke:#222255; stroke-linecap:round; stroke-linejoin:round; stroke-width:2; stroke-opacity:0.05; fill:none" points="258.68,840.074 3152.76,840.074 "/>
<polyline clip-path="url(#clip322)" style="stroke:#222255; stroke-linecap:round; stroke-linejoin:round; stroke-width:2; stroke-opacity:0.05; fill:none" points="258.68,770.873 3152.76,770.873 "/>
<polyline clip-path="url(#clip322)" style="stroke:#222255; stroke-linecap:round; stroke-linejoin:round; stroke-width:2; stroke-opacity:0.05; fill:none" points="258.68,701.671 3152.76,701.671 "/>
<polyline clip-path="url(#clip322)" style="stroke:#222255; stroke-linecap:round; stroke-linejoin:round; stroke-width:2; stroke-opacity:0.05; fill:none" points="258.68,632.469 3152.76,632.469 "/>
<polyline clip-path="url(#clip322)" style="stroke:#222255; stroke-linecap:round; stroke-linejoin:round; stroke-width:2; stroke-opacity:0.05; fill:none" points="258.68,494.065 3152.76,494.065 "/>
<polyline clip-path="url(#clip322)" style="stroke:#222255; stroke-linecap:round; stroke-linejoin:round; stroke-width:2; stroke-opacity:0.05; fill:none" points="258.68,424.863 3152.76,424.863 "/>
<polyline clip-path="url(#clip322)" style="stroke:#222255; stroke-linecap:round; stroke-linejoin:round; stroke-width:2; stroke-opacity:0.05; fill:none" points="258.68,355.661 3152.76,355.661 "/>
<polyline clip-path="url(#clip322)" style="stroke:#222255; stroke-linecap:round; stroke-linejoin:round; stroke-width:2; stroke-opacity:0.05; fill:none" points="258.68,286.459 3152.76,286.459 "/>
<polyline clip-path="url(#clip322)" style="stroke:#222255; stroke-linecap:round; stroke-linejoin:round; stroke-width:2; stroke-opacity:0.05; fill:none" points="258.68,148.055 3152.76,148.055 "/>
<polyline clip-path="url(#clip320)" style="stroke:#222255; stroke-linecap:round; stroke-linejoin:round; stroke-width:4; stroke-opacity:0; fill:none" points="258.68,1947.31 277.577,1947.31 "/>
<polyline clip-path="url(#clip320)" style="stroke:#222255; stroke-linecap:round; stroke-linejoin:round; stroke-width:4; stroke-opacity:0; fill:none" points="258.68,1601.3 277.577,1601.3 "/>
<polyline clip-path="url(#clip320)" style="stroke:#222255; stroke-linecap:round; stroke-linejoin:round; stroke-width:4; stroke-opacity:0; fill:none" points="258.68,1255.29 277.577,1255.29 "/>
<polyline clip-path="url(#clip320)" style="stroke:#222255; stroke-linecap:round; stroke-linejoin:round; stroke-width:4; stroke-opacity:0; fill:none" points="258.68,909.276 277.577,909.276 "/>
<polyline clip-path="url(#clip320)" style="stroke:#222255; stroke-linecap:round; stroke-linejoin:round; stroke-width:4; stroke-opacity:0; fill:none" points="258.68,563.267 277.577,563.267 "/>
<polyline clip-path="url(#clip320)" style="stroke:#222255; stroke-linecap:round; stroke-linejoin:round; stroke-width:4; stroke-opacity:0; fill:none" points="258.68,217.257 277.577,217.257 "/>
<polyline clip-path="url(#clip320)" style="stroke:#222255; stroke-linecap:round; stroke-linejoin:round; stroke-width:4; stroke-opacity:0; fill:none" points="258.68,1878.1 268.129,1878.1 "/>
<polyline clip-path="url(#clip320)" style="stroke:#222255; stroke-linecap:round; stroke-linejoin:round; stroke-width:4; stroke-opacity:0; fill:none" points="258.68,1808.9 268.129,1808.9 "/>
<polyline clip-path="url(#clip320)" style="stroke:#222255; stroke-linecap:round; stroke-linejoin:round; stroke-width:4; stroke-opacity:0; fill:none" points="258.68,1739.7 268.129,1739.7 "/>
<polyline clip-path="url(#clip320)" style="stroke:#222255; stroke-linecap:round; stroke-linejoin:round; stroke-width:4; stroke-opacity:0; fill:none" points="258.68,1670.5 268.129,1670.5 "/>
<polyline clip-path="url(#clip320)" style="stroke:#222255; stroke-linecap:round; stroke-linejoin:round; stroke-width:4; stroke-opacity:0; fill:none" points="258.68,1532.09 268.129,1532.09 "/>
<polyline clip-path="url(#clip320)" style="stroke:#222255; stroke-linecap:round; stroke-linejoin:round; stroke-width:4; stroke-opacity:0; fill:none" points="258.68,1462.89 268.129,1462.89 "/>
<polyline clip-path="url(#clip320)" style="stroke:#222255; stroke-linecap:round; stroke-linejoin:round; stroke-width:4; stroke-opacity:0; fill:none" points="258.68,1393.69 268.129,1393.69 "/>
<polyline clip-path="url(#clip320)" style="stroke:#222255; stroke-linecap:round; stroke-linejoin:round; stroke-width:4; stroke-opacity:0; fill:none" points="258.68,1324.49 268.129,1324.49 "/>
<polyline clip-path="url(#clip320)" style="stroke:#222255; stroke-linecap:round; stroke-linejoin:round; stroke-width:4; stroke-opacity:0; fill:none" points="258.68,1186.08 268.129,1186.08 "/>
<polyline clip-path="url(#clip320)" style="stroke:#222255; stroke-linecap:round; stroke-linejoin:round; stroke-width:4; stroke-opacity:0; fill:none" points="258.68,1116.88 268.129,1116.88 "/>
<polyline clip-path="url(#clip320)" style="stroke:#222255; stroke-linecap:round; stroke-linejoin:round; stroke-width:4; stroke-opacity:0; fill:none" points="258.68,1047.68 268.129,1047.68 "/>
<polyline clip-path="url(#clip320)" style="stroke:#222255; stroke-linecap:round; stroke-linejoin:round; stroke-width:4; stroke-opacity:0; fill:none" points="258.68,978.478 268.129,978.478 "/>
<polyline clip-path="url(#clip320)" style="stroke:#222255; stroke-linecap:round; stroke-linejoin:round; stroke-width:4; stroke-opacity:0; fill:none" points="258.68,840.074 268.129,840.074 "/>
<polyline clip-path="url(#clip320)" style="stroke:#222255; stroke-linecap:round; stroke-linejoin:round; stroke-width:4; stroke-opacity:0; fill:none" points="258.68,770.873 268.129,770.873 "/>
<polyline clip-path="url(#clip320)" style="stroke:#222255; stroke-linecap:round; stroke-linejoin:round; stroke-width:4; stroke-opacity:0; fill:none" points="258.68,701.671 268.129,701.671 "/>
<polyline clip-path="url(#clip320)" style="stroke:#222255; stroke-linecap:round; stroke-linejoin:round; stroke-width:4; stroke-opacity:0; fill:none" points="258.68,632.469 268.129,632.469 "/>
<polyline clip-path="url(#clip320)" style="stroke:#222255; stroke-linecap:round; stroke-linejoin:round; stroke-width:4; stroke-opacity:0; fill:none" points="258.68,494.065 268.129,494.065 "/>
<polyline clip-path="url(#clip320)" style="stroke:#222255; stroke-linecap:round; stroke-linejoin:round; stroke-width:4; stroke-opacity:0; fill:none" points="258.68,424.863 268.129,424.863 "/>
<polyline clip-path="url(#clip320)" style="stroke:#222255; stroke-linecap:round; stroke-linejoin:round; stroke-width:4; stroke-opacity:0; fill:none" points="258.68,355.661 268.129,355.661 "/>
<polyline clip-path="url(#clip320)" style="stroke:#222255; stroke-linecap:round; stroke-linejoin:round; stroke-width:4; stroke-opacity:0; fill:none" points="258.68,286.459 268.129,286.459 "/>
<polyline clip-path="url(#clip320)" style="stroke:#222255; stroke-linecap:round; stroke-linejoin:round; stroke-width:4; stroke-opacity:0; fill:none" points="258.68,148.055 268.129,148.055 "/>
<path clip-path="url(#clip320)" d="M117.37 1960.65 L133.689 1960.65 L133.689 1964.59 L111.745 1964.59 L111.745 1960.65 Q114.407 1957.9 118.99 1953.27 Q123.597 1948.61 124.777 1947.27 Q127.023 1944.75 127.902 1943.01 Q128.805 1941.25 128.805 1939.56 Q128.805 1936.81 126.861 1935.07 Q124.94 1933.34 121.838 1933.34 Q119.639 1933.34 117.185 1934.1 Q114.754 1934.86 111.977 1936.41 L111.977 1931.69 Q114.801 1930.56 117.254 1929.98 Q119.708 1929.4 121.745 1929.4 Q127.115 1929.4 130.31 1932.09 Q133.504 1934.77 133.504 1939.26 Q133.504 1941.39 132.694 1943.31 Q131.907 1945.21 129.801 1947.8 Q129.222 1948.47 126.12 1951.69 Q123.018 1954.89 117.37 1960.65 Z" fill="#000000" fill-rule="nonzero" fill-opacity="1" /><path clip-path="url(#clip320)" d="M143.504 1958.71 L148.388 1958.71 L148.388 1964.59 L143.504 1964.59 L143.504 1958.71 Z" fill="#000000" fill-rule="nonzero" fill-opacity="1" /><path clip-path="url(#clip320)" d="M159.384 1960.65 L167.023 1960.65 L167.023 1934.28 L158.712 1935.95 L158.712 1931.69 L166.976 1930.03 L171.652 1930.03 L171.652 1960.65 L179.291 1960.65 L179.291 1964.59 L159.384 1964.59 L159.384 1960.65 Z" fill="#000000" fill-rule="nonzero" fill-opacity="1" /><path clip-path="url(#clip320)" d="M198.735 1933.1 Q195.124 1933.1 193.296 1936.67 Q191.49 1940.21 191.49 1947.34 Q191.49 1954.45 193.296 1958.01 Q195.124 1961.55 198.735 1961.55 Q202.37 1961.55 204.175 1958.01 Q206.004 1954.45 206.004 1947.34 Q206.004 1940.21 204.175 1936.67 Q202.37 1933.1 198.735 1933.1 M198.735 1929.4 Q204.546 1929.4 207.601 1934.01 Q210.68 1938.59 210.68 1947.34 Q210.68 1956.07 207.601 1960.67 Q204.546 1965.26 198.735 1965.26 Q192.925 1965.26 189.847 1960.67 Q186.791 1956.07 186.791 1947.34 Q186.791 1938.59 189.847 1934.01 Q192.925 1929.4 198.735 1929.4 Z" fill="#000000" fill-rule="nonzero" fill-opacity="1" /><path clip-path="url(#clip320)" d="M118.365 1614.64 L134.685 1614.64 L134.685 1618.58 L112.741 1618.58 L112.741 1614.64 Q115.403 1611.89 119.986 1607.26 Q124.592 1602.6 125.773 1601.26 Q128.018 1598.74 128.898 1597 Q129.801 1595.24 129.801 1593.55 Q129.801 1590.8 127.856 1589.06 Q125.935 1587.33 122.833 1587.33 Q120.634 1587.33 118.18 1588.09 Q115.75 1588.85 112.972 1590.4 L112.972 1585.68 Q115.796 1584.55 118.25 1583.97 Q120.703 1583.39 122.74 1583.39 Q128.111 1583.39 131.305 1586.08 Q134.5 1588.76 134.5 1593.25 Q134.5 1595.38 133.689 1597.3 Q132.902 1599.2 130.796 1601.79 Q130.217 1602.46 127.115 1605.68 Q124.014 1608.88 118.365 1614.64 Z" fill="#000000" fill-rule="nonzero" fill-opacity="1" /><path clip-path="url(#clip320)" d="M144.5 1612.7 L149.384 1612.7 L149.384 1618.58 L144.5 1618.58 L144.5 1612.7 Z" fill="#000000" fill-rule="nonzero" fill-opacity="1" /><path clip-path="url(#clip320)" d="M160.379 1614.64 L168.018 1614.64 L168.018 1588.27 L159.708 1589.94 L159.708 1585.68 L167.972 1584.02 L172.648 1584.02 L172.648 1614.64 L180.286 1614.64 L180.286 1618.58 L160.379 1618.58 L160.379 1614.64 Z" fill="#000000" fill-rule="nonzero" fill-opacity="1" /><path clip-path="url(#clip320)" d="M189.777 1584.02 L208.134 1584.02 L208.134 1587.95 L194.06 1587.95 L194.06 1596.42 Q195.078 1596.08 196.097 1595.91 Q197.115 1595.73 198.134 1595.73 Q203.921 1595.73 207.3 1598.9 Q210.68 1602.07 210.68 1607.49 Q210.68 1613.07 207.208 1616.17 Q203.735 1619.25 197.416 1619.25 Q195.24 1619.25 192.972 1618.88 Q190.726 1618.51 188.319 1617.77 L188.319 1613.07 Q190.402 1614.2 192.624 1614.76 Q194.847 1615.31 197.323 1615.31 Q201.328 1615.31 203.666 1613.21 Q206.004 1611.1 206.004 1607.49 Q206.004 1603.88 203.666 1601.77 Q201.328 1599.66 197.323 1599.66 Q195.448 1599.66 193.573 1600.08 Q191.722 1600.5 189.777 1601.38 L189.777 1584.02 Z" fill="#000000" fill-rule="nonzero" fill-opacity="1" /><path clip-path="url(#clip320)" d="M117.37 1268.63 L133.689 1268.63 L133.689 1272.57 L111.745 1272.57 L111.745 1268.63 Q114.407 1265.88 118.99 1261.25 Q123.597 1256.59 124.777 1255.25 Q127.023 1252.73 127.902 1250.99 Q128.805 1249.23 128.805 1247.54 Q128.805 1244.79 126.861 1243.05 Q124.94 1241.32 121.838 1241.32 Q119.639 1241.32 117.185 1242.08 Q114.754 1242.84 111.977 1244.39 L111.977 1239.67 Q114.801 1238.54 117.254 1237.96 Q119.708 1237.38 121.745 1237.38 Q127.115 1237.38 130.31 1240.07 Q133.504 1242.75 133.504 1247.24 Q133.504 1249.37 132.694 1251.29 Q131.907 1253.19 129.801 1255.78 Q129.222 1256.46 126.12 1259.67 Q123.018 1262.87 117.37 1268.63 Z" fill="#000000" fill-rule="nonzero" fill-opacity="1" /><path clip-path="url(#clip320)" d="M143.504 1266.69 L148.388 1266.69 L148.388 1272.57 L143.504 1272.57 L143.504 1266.69 Z" fill="#000000" fill-rule="nonzero" fill-opacity="1" /><path clip-path="url(#clip320)" d="M162.601 1268.63 L178.921 1268.63 L178.921 1272.57 L156.976 1272.57 L156.976 1268.63 Q159.638 1265.88 164.222 1261.25 Q168.828 1256.59 170.009 1255.25 Q172.254 1252.73 173.134 1250.99 Q174.036 1249.23 174.036 1247.54 Q174.036 1244.79 172.092 1243.05 Q170.171 1241.32 167.069 1241.32 Q164.87 1241.32 162.416 1242.08 Q159.986 1242.84 157.208 1244.39 L157.208 1239.67 Q160.032 1238.54 162.486 1237.96 Q164.939 1237.38 166.976 1237.38 Q172.347 1237.38 175.541 1240.07 Q178.736 1242.75 178.736 1247.24 Q178.736 1249.37 177.925 1251.29 Q177.138 1253.19 175.032 1255.78 Q174.453 1256.46 171.351 1259.67 Q168.249 1262.87 162.601 1268.63 Z" fill="#000000" fill-rule="nonzero" fill-opacity="1" /><path clip-path="url(#clip320)" d="M198.735 1241.08 Q195.124 1241.08 193.296 1244.65 Q191.49 1248.19 191.49 1255.32 Q191.49 1262.43 193.296 1265.99 Q195.124 1269.53 198.735 1269.53 Q202.37 1269.53 204.175 1265.99 Q206.004 1262.43 206.004 1255.32 Q206.004 1248.19 204.175 1244.65 Q202.37 1241.08 198.735 1241.08 M198.735 1237.38 Q204.546 1237.38 207.601 1241.99 Q210.68 1246.57 210.68 1255.32 Q210.68 1264.05 207.601 1268.65 Q204.546 1273.24 198.735 1273.24 Q192.925 1273.24 189.847 1268.65 Q186.791 1264.05 186.791 1255.32 Q186.791 1246.57 189.847 1241.99 Q192.925 1237.38 198.735 1237.38 Z" fill="#000000" fill-rule="nonzero" fill-opacity="1" /><path clip-path="url(#clip320)" d="M118.365 922.621 L134.685 922.621 L134.685 926.556 L112.741 926.556 L112.741 922.621 Q115.403 919.867 119.986 915.237 Q124.592 910.584 125.773 909.242 Q128.018 906.719 128.898 904.982 Q129.801 903.223 129.801 901.533 Q129.801 898.779 127.856 897.043 Q125.935 895.307 122.833 895.307 Q120.634 895.307 118.18 896.07 Q115.75 896.834 112.972 898.385 L112.972 893.663 Q115.796 892.529 118.25 891.95 Q120.703 891.371 122.74 891.371 Q128.111 891.371 131.305 894.057 Q134.5 896.742 134.5 901.232 Q134.5 903.362 133.689 905.283 Q132.902 907.182 130.796 909.774 Q130.217 910.445 127.115 913.663 Q124.014 916.857 118.365 922.621 Z" fill="#000000" fill-rule="nonzero" fill-opacity="1" /><path clip-path="url(#clip320)" d="M144.5 920.677 L149.384 920.677 L149.384 926.556 L144.5 926.556 L144.5 920.677 Z" fill="#000000" fill-rule="nonzero" fill-opacity="1" /><path clip-path="url(#clip320)" d="M163.597 922.621 L179.916 922.621 L179.916 926.556 L157.972 926.556 L157.972 922.621 Q160.634 919.867 165.217 915.237 Q169.824 910.584 171.004 909.242 Q173.249 906.719 174.129 904.982 Q175.032 903.223 175.032 901.533 Q175.032 898.779 173.087 897.043 Q171.166 895.307 168.064 895.307 Q165.865 895.307 163.412 896.07 Q160.981 896.834 158.203 898.385 L158.203 893.663 Q161.027 892.529 163.481 891.95 Q165.935 891.371 167.972 891.371 Q173.342 891.371 176.536 894.057 Q179.731 896.742 179.731 901.232 Q179.731 903.362 178.921 905.283 Q178.134 907.182 176.027 909.774 Q175.449 910.445 172.347 913.663 Q169.245 916.857 163.597 922.621 Z" fill="#000000" fill-rule="nonzero" fill-opacity="1" /><path clip-path="url(#clip320)" d="M189.777 891.996 L208.134 891.996 L208.134 895.932 L194.06 895.932 L194.06 904.404 Q195.078 904.057 196.097 903.895 Q197.115 903.709 198.134 903.709 Q203.921 903.709 207.3 906.881 Q210.68 910.052 210.68 915.469 Q210.68 921.047 207.208 924.149 Q203.735 927.228 197.416 927.228 Q195.24 927.228 192.972 926.857 Q190.726 926.487 188.319 925.746 L188.319 921.047 Q190.402 922.181 192.624 922.737 Q194.847 923.293 197.323 923.293 Q201.328 923.293 203.666 921.186 Q206.004 919.08 206.004 915.469 Q206.004 911.857 203.666 909.751 Q201.328 907.644 197.323 907.644 Q195.448 907.644 193.573 908.061 Q191.722 908.478 189.777 909.357 L189.777 891.996 Z" fill="#000000" fill-rule="nonzero" fill-opacity="1" /><path clip-path="url(#clip320)" d="M117.37 576.612 L133.689 576.612 L133.689 580.547 L111.745 580.547 L111.745 576.612 Q114.407 573.857 118.99 569.227 Q123.597 564.575 124.777 563.232 Q127.023 560.709 127.902 558.973 Q128.805 557.214 128.805 555.524 Q128.805 552.769 126.861 551.033 Q124.94 549.297 121.838 549.297 Q119.639 549.297 117.185 550.061 Q114.754 550.825 111.977 552.376 L111.977 547.653 Q114.801 546.519 117.254 545.94 Q119.708 545.362 121.745 545.362 Q127.115 545.362 130.31 548.047 Q133.504 550.732 133.504 555.223 Q133.504 557.352 132.694 559.274 Q131.907 561.172 129.801 563.764 Q129.222 564.436 126.12 567.653 Q123.018 570.848 117.37 576.612 Z" fill="#000000" fill-rule="nonzero" fill-opacity="1" /><path clip-path="url(#clip320)" d="M143.504 574.667 L148.388 574.667 L148.388 580.547 L143.504 580.547 L143.504 574.667 Z" fill="#000000" fill-rule="nonzero" fill-opacity="1" /><path clip-path="url(#clip320)" d="M172.74 561.913 Q176.097 562.63 177.972 564.899 Q179.87 567.167 179.87 570.501 Q179.87 575.616 176.351 578.417 Q172.833 581.218 166.351 581.218 Q164.175 581.218 161.861 580.778 Q159.569 580.362 157.115 579.505 L157.115 574.991 Q159.06 576.125 161.375 576.704 Q163.689 577.283 166.212 577.283 Q170.611 577.283 172.902 575.547 Q175.217 573.811 175.217 570.501 Q175.217 567.445 173.064 565.732 Q170.935 563.996 167.115 563.996 L163.087 563.996 L163.087 560.153 L167.3 560.153 Q170.749 560.153 172.578 558.788 Q174.407 557.399 174.407 554.806 Q174.407 552.144 172.509 550.732 Q170.634 549.297 167.115 549.297 Q165.194 549.297 162.995 549.714 Q160.796 550.13 158.157 551.01 L158.157 546.843 Q160.819 546.103 163.134 545.732 Q165.472 545.362 167.532 545.362 Q172.856 545.362 175.958 547.792 Q179.06 550.2 179.06 554.32 Q179.06 557.19 177.416 559.181 Q175.773 561.149 172.74 561.913 Z" fill="#000000" fill-rule="nonzero" fill-opacity="1" /><path clip-path="url(#clip320)" d="M198.735 549.065 Q195.124 549.065 193.296 552.63 Q191.49 556.172 191.49 563.301 Q191.49 570.408 193.296 573.973 Q195.124 577.514 198.735 577.514 Q202.37 577.514 204.175 573.973 Q206.004 570.408 206.004 563.301 Q206.004 556.172 204.175 552.63 Q202.37 549.065 198.735 549.065 M198.735 545.362 Q204.546 545.362 207.601 549.968 Q210.68 554.552 210.68 563.301 Q210.68 572.028 207.601 576.635 Q204.546 581.218 198.735 581.218 Q192.925 581.218 189.847 576.635 Q186.791 572.028 186.791 563.301 Q186.791 554.552 189.847 549.968 Q192.925 545.362 198.735 545.362 Z" fill="#000000" fill-rule="nonzero" fill-opacity="1" /><path clip-path="url(#clip320)" d="M118.365 230.602 L134.685 230.602 L134.685 234.537 L112.741 234.537 L112.741 230.602 Q115.403 227.847 119.986 223.218 Q124.592 218.565 125.773 217.222 Q128.018 214.699 128.898 212.963 Q129.801 211.204 129.801 209.514 Q129.801 206.759 127.856 205.023 Q125.935 203.287 122.833 203.287 Q120.634 203.287 118.18 204.051 Q115.75 204.815 112.972 206.366 L112.972 201.644 Q115.796 200.51 118.25 199.931 Q120.703 199.352 122.74 199.352 Q128.111 199.352 131.305 202.037 Q134.5 204.722 134.5 209.213 Q134.5 211.343 133.689 213.264 Q132.902 215.162 130.796 217.755 Q130.217 218.426 127.115 221.644 Q124.014 224.838 118.365 230.602 Z" fill="#000000" fill-rule="nonzero" fill-opacity="1" /><path clip-path="url(#clip320)" d="M144.5 228.658 L149.384 228.658 L149.384 234.537 L144.5 234.537 L144.5 228.658 Z" fill="#000000" fill-rule="nonzero" fill-opacity="1" /><path clip-path="url(#clip320)" d="M173.736 215.903 Q177.092 216.621 178.967 218.889 Q180.865 221.158 180.865 224.491 Q180.865 229.607 177.347 232.407 Q173.828 235.208 167.347 235.208 Q165.171 235.208 162.856 234.769 Q160.564 234.352 158.111 233.495 L158.111 228.982 Q160.055 230.116 162.37 230.695 Q164.685 231.273 167.208 231.273 Q171.606 231.273 173.898 229.537 Q176.212 227.801 176.212 224.491 Q176.212 221.435 174.06 219.722 Q171.93 217.986 168.111 217.986 L164.083 217.986 L164.083 214.144 L168.296 214.144 Q171.745 214.144 173.574 212.778 Q175.402 211.389 175.402 208.797 Q175.402 206.134 173.504 204.722 Q171.629 203.287 168.111 203.287 Q166.189 203.287 163.99 203.704 Q161.791 204.121 159.152 205 L159.152 200.834 Q161.814 200.093 164.129 199.722 Q166.467 199.352 168.527 199.352 Q173.851 199.352 176.953 201.783 Q180.055 204.19 180.055 208.31 Q180.055 211.181 178.411 213.171 Q176.768 215.139 173.736 215.903 Z" fill="#000000" fill-rule="nonzero" fill-opacity="1" /><path clip-path="url(#clip320)" d="M189.777 199.977 L208.134 199.977 L208.134 203.912 L194.06 203.912 L194.06 212.384 Q195.078 212.037 196.097 211.875 Q197.115 211.69 198.134 211.69 Q203.921 211.69 207.3 214.861 Q210.68 218.033 210.68 223.449 Q210.68 229.028 207.208 232.13 Q203.735 235.208 197.416 235.208 Q195.24 235.208 192.972 234.838 Q190.726 234.468 188.319 233.727 L188.319 229.028 Q190.402 230.162 192.624 230.718 Q194.847 231.273 197.323 231.273 Q201.328 231.273 203.666 229.167 Q206.004 227.06 206.004 223.449 Q206.004 219.838 203.666 217.732 Q201.328 215.625 197.323 215.625 Q195.448 215.625 193.573 216.042 Q191.722 216.459 189.777 217.338 L189.777 199.977 Z" fill="#000000" fill-rule="nonzero" fill-opacity="1" /><path clip-path="url(#clip320)" d="M19.2521 1149.86 L-0.0360401 1149.86 L-0.0360401 1144.01 L49.4892 1144.01 L49.4892 1149.86 L44.142 1149.86 Q47.3248 1151.71 48.8844 1154.54 Q50.4122 1157.34 50.4122 1161.29 Q50.4122 1167.75 45.256 1171.82 Q40.0997 1175.87 31.697 1175.87 Q23.2943 1175.87 18.1381 1171.82 Q12.9818 1167.75 12.9818 1161.29 Q12.9818 1157.34 14.5414 1154.54 Q16.0692 1151.71 19.2521 1149.86 M31.697 1169.82 Q38.1582 1169.82 41.8503 1167.18 Q45.5106 1164.5 45.5106 1159.86 Q45.5106 1155.21 41.8503 1152.54 Q38.1582 1149.86 31.697 1149.86 Q25.2358 1149.86 21.5755 1152.54 Q17.8834 1155.21 17.8834 1159.86 Q17.8834 1164.5 21.5755 1167.18 Q25.2358 1169.82 31.697 1169.82 Z" fill="#000000" fill-rule="nonzero" fill-opacity="1" /><path clip-path="url(#clip320)" d="M-0.0360401 1113.9 L4.83373 1113.9 L4.83373 1119.5 Q4.83373 1122.65 6.10687 1123.89 Q7.38001 1125.1 10.6902 1125.1 L13.8412 1125.1 L13.8412 1115.46 L18.3927 1115.46 L18.3927 1125.1 L49.4892 1125.1 L49.4892 1130.99 L18.3927 1130.99 L18.3927 1136.59 L13.8412 1136.59 L13.8412 1130.99 L11.3586 1130.99 Q5.40664 1130.99 2.70121 1128.22 Q-0.0360401 1125.45 -0.0360401 1119.43 L-0.0360401 1113.9 Z" fill="#000000" fill-rule="nonzero" fill-opacity="1" /><path clip-path="url(#clip320)" d="M14.8915 1086.27 L20.4297 1086.27 Q19.1566 1088.75 18.52 1091.43 Q17.8834 1094.1 17.8834 1096.96 Q17.8834 1101.32 19.2202 1103.52 Q20.557 1105.68 23.2306 1105.68 Q25.2676 1105.68 26.4453 1104.12 Q27.5911 1102.56 28.6415 1097.85 L29.0871 1095.85 Q30.4239 1089.61 32.8747 1087 Q35.2936 1084.36 39.6541 1084.36 Q44.6194 1084.36 47.5158 1088.31 Q50.4122 1092.22 50.4122 1099.1 Q50.4122 1101.96 49.8393 1105.08 Q49.2982 1108.17 48.1842 1111.6 L42.1368 1111.6 Q43.8237 1108.36 44.683 1105.21 Q45.5106 1102.06 45.5106 1098.97 Q45.5106 1094.83 44.1101 1092.6 Q42.6779 1090.37 40.0997 1090.37 Q37.7126 1090.37 36.4395 1092 Q35.1663 1093.59 33.9887 1099.03 L33.5112 1101.07 Q32.3654 1106.51 30.0101 1108.93 Q27.623 1111.35 23.4852 1111.35 Q18.4563 1111.35 15.7191 1107.78 Q12.9818 1104.22 12.9818 1097.66 Q12.9818 1094.42 13.4593 1091.55 Q13.9367 1088.69 14.8915 1086.27 Z" fill="#000000" fill-rule="nonzero" fill-opacity="1" /><path clip-path="url(#clip320)" d="M1.96916 1064.63 L1.96916 1059.21 L55.5366 1075.77 L55.5366 1081.18 L1.96916 1064.63 Z" fill="#000000" fill-rule="nonzero" fill-opacity="1" /><path clip-path="url(#clip320)" d="M31.697 1027.48 Q25.2358 1027.48 21.5755 1030.16 Q17.8834 1032.8 17.8834 1037.44 Q17.8834 1042.09 21.5755 1044.76 Q25.2358 1047.41 31.697 1047.41 Q38.1582 1047.41 41.8503 1044.76 Q45.5106 1042.09 45.5106 1037.44 Q45.5106 1032.8 41.8503 1030.16 Q38.1582 1027.48 31.697 1027.48 M19.2521 1047.41 Q16.0692 1045.56 14.5414 1042.76 Q12.9818 1039.93 12.9818 1036.01 Q12.9818 1029.52 18.1381 1025.48 Q23.2943 1021.4 31.697 1021.4 Q40.0997 1021.4 45.256 1025.48 Q50.4122 1029.52 50.4122 1036.01 Q50.4122 1039.93 48.8844 1042.76 Q47.3248 1045.56 44.142 1047.41 L49.4892 1047.41 L49.4892 1053.29 L-0.0360401 1053.29 L-0.0360401 1047.41 L19.2521 1047.41 Z" fill="#000000" fill-rule="nonzero" fill-opacity="1" /><path clip-path="url(#clip320)" d="M-0.0360401 993.648 L4.83373 993.648 L4.83373 999.25 Q4.83373 1002.4 6.10687 1003.64 Q7.38001 1004.85 10.6902 1004.85 L13.8412 1004.85 L13.8412 995.207 L18.3927 995.207 L18.3927 1004.85 L49.4892 1004.85 L49.4892 1010.74 L18.3927 1010.74 L18.3927 1016.34 L13.8412 1016.34 L13.8412 1010.74 L11.3586 1010.74 Q5.40664 1010.74 2.70121 1007.97 Q-0.0360401 1005.2 -0.0360401 999.186 L-0.0360401 993.648 Z" fill="#000000" fill-rule="nonzero" fill-opacity="1" /><path clip-path="url(#clip320)" d="M14.8915 966.021 L20.4297 966.021 Q19.1566 968.503 18.52 971.177 Q17.8834 973.85 17.8834 976.715 Q17.8834 981.075 19.2202 983.272 Q20.557 985.436 23.2306 985.436 Q25.2676 985.436 26.4453 983.876 Q27.5911 982.317 28.6415 977.606 L29.0871 975.601 Q30.4239 969.363 32.8747 966.753 Q35.2936 964.111 39.6541 964.111 Q44.6194 964.111 47.5158 968.058 Q50.4122 971.973 50.4122 978.847 Q50.4122 981.712 49.8393 984.831 Q49.2982 987.919 48.1842 991.356 L42.1368 991.356 Q43.8237 988.11 44.683 984.959 Q45.5106 981.808 45.5106 978.72 Q45.5106 974.582 44.1101 972.354 Q42.6779 970.126 40.0997 970.126 Q37.7126 970.126 36.4395 971.75 Q35.1663 973.341 33.9887 978.784 L33.5112 980.821 Q32.3654 986.264 30.0101 988.682 Q27.623 991.101 23.4852 991.101 Q18.4563 991.101 15.7191 987.537 Q12.9818 983.972 12.9818 977.415 Q12.9818 974.169 13.4593 971.304 Q13.9367 968.44 14.8915 966.021 Z" fill="#000000" fill-rule="nonzero" fill-opacity="1" /><path clip-path="url(#clip320)" d="M490.69 65.6895 L504.058 65.6895 L504.058 19.5497 L489.515 22.4663 L489.515 15.0127 L503.977 12.096 L512.159 12.096 L512.159 65.6895 L525.527 65.6895 L525.527 72.576 L490.69 72.576 L490.69 65.6895 Z" fill="#000000" fill-rule="nonzero" fill-opacity="1" /><path clip-path="url(#clip320)" d="M542.055 62.2867 L550.603 62.2867 L550.603 72.576 L542.055 72.576 L542.055 62.2867 Z" fill="#000000" fill-rule="nonzero" fill-opacity="1" /><path clip-path="url(#clip320)" d="M575.475 65.6895 L604.034 65.6895 L604.034 72.576 L565.631 72.576 L565.631 65.6895 Q570.29 60.8689 578.311 52.7671 Q586.372 44.6248 588.438 42.2752 Q592.367 37.8598 593.907 34.8216 Q595.487 31.7429 595.487 28.7857 Q595.487 23.9651 592.084 20.927 Q588.722 17.8888 583.293 17.8888 Q579.445 17.8888 575.151 19.2256 Q570.898 20.5624 566.036 23.2765 L566.036 15.0127 Q570.979 13.0277 575.273 12.015 Q579.566 11.0023 583.131 11.0023 Q592.529 11.0023 598.12 15.7013 Q603.71 20.4004 603.71 28.2591 Q603.71 31.9859 602.292 35.3482 Q600.915 38.6699 597.228 43.2069 Q596.216 44.3817 590.787 50.0125 Q585.359 55.6027 575.475 65.6895 Z" fill="#000000" fill-rule="nonzero" fill-opacity="1" /><path clip-path="url(#clip320)" d="M662.407 11.0023 Q672.373 11.0023 678.692 15.2557 Q685.012 19.4686 685.012 26.6793 Q685.012 31.7024 682.135 35.1862 Q679.259 38.6294 673.953 39.9662 Q679.826 41.222 683.108 45.1919 Q686.429 49.1618 686.429 54.9951 Q686.429 64.3122 679.219 69.0517 Q672.049 73.7508 662.407 73.7508 Q657.465 73.7508 651.713 72.414 Q645.961 71.0772 644.178 69.9429 L644.178 61.517 Q650.376 65.1223 653.779 66.0135 Q657.222 66.8642 662.245 66.8642 Q669.861 66.8642 674.074 63.9476 Q678.287 61.0309 678.287 54.9951 Q678.287 49.6479 674.52 46.6502 Q670.793 43.612 662.894 43.612 L654.63 43.612 L654.63 36.8875 L663.218 36.8875 Q670.469 36.8875 673.669 34.4975 Q676.869 32.067 676.869 27.5299 Q676.869 22.8714 673.547 20.4004 Q670.266 17.8888 662.245 17.8888 Q656.817 17.8888 654.954 18.3749 Q653.09 18.861 644.786 21.9802 L644.786 13.9999 Q649.364 12.3796 654.144 11.6909 Q658.924 11.0023 662.407 11.0023 Z" fill="#000000" fill-rule="nonzero" fill-opacity="1" /><path clip-path="url(#clip320)" d="M720.335 49.7694 Q711.302 49.7694 707.818 51.8354 Q704.334 53.9013 704.334 58.8839 Q704.334 62.8538 706.927 65.2034 Q709.56 67.5124 714.057 67.5124 Q720.254 67.5124 723.981 63.1374 Q727.749 58.7219 727.749 51.4303 L727.749 49.7694 L720.335 49.7694 M735.202 46.6907 L735.202 72.576 L727.749 72.576 L727.749 65.6895 Q725.196 69.8214 721.389 71.8063 Q717.581 73.7508 712.072 73.7508 Q705.104 73.7508 700.972 69.8619 Q696.881 65.9325 696.881 59.3701 Q696.881 51.7138 701.985 47.825 Q707.129 43.9361 717.297 43.9361 L727.749 43.9361 L727.749 43.2069 Q727.749 38.0623 724.346 35.2672 Q720.984 32.4315 714.867 32.4315 Q710.978 32.4315 707.291 33.3632 Q703.605 34.295 700.202 36.1584 L700.202 29.2718 Q704.294 27.692 708.142 26.9223 Q711.991 26.1121 715.636 26.1121 Q725.48 26.1121 730.341 31.2163 Q735.202 36.3204 735.202 46.6907 Z" fill="#000000" fill-rule="nonzero" fill-opacity="1" /><path clip-path="url(#clip320)" d="M757.725 51.6733 L757.725 66.6212 L768.339 66.6212 Q773.443 66.6212 776.116 64.7172 Q778.79 62.7728 778.79 59.127 Q778.79 55.4812 776.116 53.5773 Q773.443 51.6733 768.339 51.6733 L757.725 51.6733 M757.725 33.1607 L757.725 45.7185 L767.528 45.7185 Q771.741 45.7185 774.415 44.0576 Q777.089 42.3563 777.089 39.3586 Q777.089 36.3609 774.415 34.7811 Q771.741 33.1607 767.528 33.1607 L757.725 33.1607 M750.272 27.2059 L768.015 27.2059 Q775.995 27.2059 780.289 30.1225 Q784.583 33.0392 784.583 38.4269 Q784.583 42.5993 782.395 45.0704 Q780.208 47.5009 775.914 48.1085 Q781.058 49.0808 783.894 52.1594 Q786.73 55.2381 786.73 59.8562 Q786.73 65.9325 782.031 69.2543 Q777.372 72.576 768.703 72.576 L750.272 72.576 L750.272 27.2059 Z" fill="#000000" fill-rule="nonzero" fill-opacity="1" /><path clip-path="url(#clip320)" d="M838.014 27.2059 L838.014 72.576 L830.601 72.576 L830.601 36.1584 L808.726 72.576 L799.166 72.576 L799.166 27.2059 L806.579 27.2059 L806.579 63.5425 L828.414 27.2059 L838.014 27.2059 Z" fill="#000000" fill-rule="nonzero" fill-opacity="1" /><path clip-path="url(#clip320)" d="M886.017 28.9478 L886.017 35.9153 Q882.858 34.1734 879.657 33.3227 Q876.498 32.4315 873.257 32.4315 Q866.006 32.4315 861.996 37.0496 Q857.985 41.6271 857.985 49.9314 Q857.985 58.2358 861.996 62.8538 Q866.006 67.4314 873.257 67.4314 Q876.498 67.4314 879.657 66.5807 Q882.858 65.6895 886.017 63.9476 L886.017 70.8341 Q882.898 72.2924 879.536 73.0216 Q876.214 73.7508 872.447 73.7508 Q862.198 73.7508 856.162 67.3098 Q850.126 60.8689 850.126 49.9314 Q850.126 38.832 856.203 32.472 Q862.32 26.1121 872.933 26.1121 Q876.376 26.1121 879.657 26.8413 Q882.939 27.5299 886.017 28.9478 Z" fill="#000000" fill-rule="nonzero" fill-opacity="1" /><path clip-path="url(#clip320)" d="M937.545 27.2059 L937.545 72.576 L930.132 72.576 L930.132 36.1584 L908.257 72.576 L898.697 72.576 L898.697 27.2059 L906.11 27.2059 L906.11 63.5425 L927.944 27.2059 L937.545 27.2059 Z" fill="#000000" fill-rule="nonzero" fill-opacity="1" /><path clip-path="url(#clip320)" d="M952.614 27.2059 L963.511 27.2059 L976.393 57.5877 L989.315 27.2059 L1000.13 27.2059 L1000.13 72.576 L992.637 72.576 L992.637 34.3355 L980.12 63.8666 L972.666 63.8666 L960.108 34.3355 L960.108 72.576 L952.614 72.576 L952.614 27.2059 Z" fill="#000000" fill-rule="nonzero" fill-opacity="1" /><path clip-path="url(#clip320)" d="M1033.07 32.4315 Q1027.07 32.4315 1023.59 37.1306 Q1020.1 41.7891 1020.1 49.9314 Q1020.1 58.0738 1023.55 62.7728 Q1027.03 67.4314 1033.07 67.4314 Q1039.02 67.4314 1042.5 62.7323 Q1045.99 58.0333 1045.99 49.9314 Q1045.99 41.8701 1042.5 37.1711 Q1039.02 32.4315 1033.07 32.4315 M1033.07 26.1121 Q1042.79 26.1121 1048.34 32.4315 Q1053.89 38.7509 1053.89 49.9314 Q1053.89 61.0714 1048.34 67.4314 Q1042.79 73.7508 1033.07 73.7508 Q1023.3 73.7508 1017.75 67.4314 Q1012.24 61.0714 1012.24 49.9314 Q1012.24 38.7509 1017.75 32.4315 Q1023.3 26.1121 1033.07 26.1121 Z" fill="#000000" fill-rule="nonzero" fill-opacity="1" /><path clip-path="url(#clip320)" d="M1098.89 28.9478 L1098.89 35.9153 Q1095.73 34.1734 1092.53 33.3227 Q1089.37 32.4315 1086.13 32.4315 Q1078.88 32.4315 1074.87 37.0496 Q1070.86 41.6271 1070.86 49.9314 Q1070.86 58.2358 1074.87 62.8538 Q1078.88 67.4314 1086.13 67.4314 Q1089.37 67.4314 1092.53 66.5807 Q1095.73 65.6895 1098.89 63.9476 L1098.89 70.8341 Q1095.77 72.2924 1092.41 73.0216 Q1089.09 73.7508 1085.32 73.7508 Q1075.07 73.7508 1069.04 67.3098 Q1063 60.8689 1063 49.9314 Q1063 38.832 1069.08 32.472 Q1075.19 26.1121 1085.81 26.1121 Q1089.25 26.1121 1092.53 26.8413 Q1095.81 27.5299 1098.89 28.9478 Z" fill="#000000" fill-rule="nonzero" fill-opacity="1" /><path clip-path="url(#clip320)" d="M1106.47 27.2059 L1149.93 27.2059 L1149.93 33.1607 L1131.87 33.1607 L1131.87 72.576 L1124.53 72.576 L1124.53 33.1607 L1106.47 33.1607 L1106.47 27.2059 Z" fill="#000000" fill-rule="nonzero" fill-opacity="1" /><path clip-path="url(#clip320)" d="M1188.42 59.127 Q1188.42 55.4812 1185.74 53.5773 Q1183.11 51.6733 1178.01 51.6733 L1167.39 51.6733 L1167.39 66.6212 L1178.01 66.6212 Q1183.11 66.6212 1185.74 64.7172 Q1188.42 62.7728 1188.42 59.127 M1159.9 27.2059 L1167.39 27.2059 L1167.39 45.7185 L1178.33 45.7185 Q1187 45.7185 1191.66 49.0402 Q1196.36 52.3215 1196.36 59.127 Q1196.36 65.9325 1191.66 69.2543 Q1187 72.576 1178.33 72.576 L1159.9 72.576 L1159.9 27.2059 Z" fill="#000000" fill-rule="nonzero" fill-opacity="1" /><path clip-path="url(#clip320)" d="M1256.23 48.1085 Q1261.25 49.0808 1264.05 52.0379 Q1266.84 54.9951 1266.84 59.3701 Q1266.84 66.3781 1261.62 70.0644 Q1256.39 73.7508 1246.75 73.7508 Q1243.51 73.7508 1240.07 73.1836 Q1236.66 72.6165 1233.02 71.4823 L1233.02 64.5552 Q1235.89 66.054 1239.34 66.8237 Q1242.78 67.5529 1246.55 67.5529 Q1252.66 67.5529 1256.07 65.2844 Q1259.51 63.0159 1259.51 59.3701 Q1259.51 55.8053 1256.47 53.6583 Q1253.43 51.4708 1247.88 51.4708 L1241.89 51.4708 L1241.89 45.3134 L1248.17 45.3134 Q1252.87 45.3134 1255.58 43.531 Q1258.34 41.7081 1258.34 38.8725 Q1258.34 36.2799 1255.5 34.4165 Q1252.71 32.5531 1247.88 32.5531 Q1245.01 32.5531 1241.73 33.0797 Q1238.49 33.6063 1234.56 34.7811 L1234.56 28.0161 Q1238.53 27.0438 1241.97 26.5577 Q1245.41 26.0716 1248.49 26.0716 Q1256.43 26.0716 1261.01 29.2718 Q1265.63 32.4315 1265.63 38.1433 Q1265.63 41.9107 1263.2 44.5437 Q1260.77 47.1363 1256.23 48.1085 Z" fill="#000000" fill-rule="nonzero" fill-opacity="1" /><path clip-path="url(#clip320)" d="M1279.28 27.2059 L1286.77 27.2059 L1286.77 45.7185 L1310.96 45.7185 L1310.96 27.2059 L1318.45 27.2059 L1318.45 72.576 L1310.96 72.576 L1310.96 51.6733 L1286.77 51.6733 L1286.77 72.576 L1279.28 72.576 L1279.28 27.2059 Z" fill="#000000" fill-rule="nonzero" fill-opacity="1" /><path clip-path="url(#clip320)" d="M1354.42 49.7694 Q1345.39 49.7694 1341.91 51.8354 Q1338.42 53.9013 1338.42 58.8839 Q1338.42 62.8538 1341.01 65.2034 Q1343.65 67.5124 1348.14 67.5124 Q1354.34 67.5124 1358.07 63.1374 Q1361.84 58.7219 1361.84 51.4303 L1361.84 49.7694 L1354.42 49.7694 M1369.29 46.6907 L1369.29 72.576 L1361.84 72.576 L1361.84 65.6895 Q1359.28 69.8214 1355.48 71.8063 Q1351.67 73.7508 1346.16 73.7508 Q1339.19 73.7508 1335.06 69.8619 Q1330.97 65.9325 1330.97 59.3701 Q1330.97 51.7138 1336.07 47.825 Q1341.22 43.9361 1351.39 43.9361 L1361.84 43.9361 L1361.84 43.2069 Q1361.84 38.0623 1358.43 35.2672 Q1355.07 32.4315 1348.95 32.4315 Q1345.07 32.4315 1341.38 33.3632 Q1337.69 34.295 1334.29 36.1584 L1334.29 29.2718 Q1338.38 27.692 1342.23 26.9223 Q1346.08 26.1121 1349.72 26.1121 Q1359.57 26.1121 1364.43 31.2163 Q1369.29 36.3204 1369.29 46.6907 Z" fill="#000000" fill-rule="nonzero" fill-opacity="1" /><path clip-path="url(#clip320)" d="M1410.85 72.576 L1410.85 53.4962 L1396.96 53.4962 Q1390.76 53.4962 1386.63 49.6479 Q1382.9 46.1641 1382.9 38.7104 L1382.9 27.2059 L1390.35 27.2059 L1390.35 38.0218 Q1390.35 42.7613 1392.46 45.1514 Q1394.61 47.5414 1398.82 47.5414 L1410.85 47.5414 L1410.85 27.2059 L1418.31 27.2059 L1418.31 72.576 L1410.85 72.576 Z" fill="#000000" fill-rule="nonzero" fill-opacity="1" /><path clip-path="url(#clip320)" d="M1472.47 48.0275 L1472.47 51.6733 L1438.2 51.6733 Q1438.68 59.3701 1442.81 63.421 Q1446.99 67.4314 1454.4 67.4314 Q1458.69 67.4314 1462.7 66.3781 Q1466.76 65.3249 1470.72 63.2184 L1470.72 70.267 Q1466.71 71.9684 1462.5 72.8596 Q1458.29 73.7508 1453.95 73.7508 Q1443.1 73.7508 1436.74 67.4314 Q1430.42 61.1119 1430.42 50.3365 Q1430.42 39.1965 1436.41 32.6746 Q1442.45 26.1121 1452.66 26.1121 Q1461.81 26.1121 1467.12 32.0264 Q1472.47 37.9003 1472.47 48.0275 M1465.01 45.84 Q1464.93 39.7232 1461.57 36.0774 Q1458.25 32.4315 1452.74 32.4315 Q1446.5 32.4315 1442.73 35.9558 Q1439.01 39.4801 1438.44 45.8805 L1465.01 45.84 Z" fill="#000000" fill-rule="nonzero" fill-opacity="1" /><path clip-path="url(#clip320)" d="M1484.42 27.2059 L1491.91 27.2059 L1491.91 45.7185 L1516.1 45.7185 L1516.1 27.2059 L1523.59 27.2059 L1523.59 72.576 L1516.1 72.576 L1516.1 51.6733 L1491.91 51.6733 L1491.91 72.576 L1484.42 72.576 L1484.42 27.2059 Z" fill="#000000" fill-rule="nonzero" fill-opacity="1" /><path clip-path="url(#clip320)" d="M1577.51 27.2059 L1577.51 72.576 L1570.09 72.576 L1570.09 36.1584 L1548.22 72.576 L1538.66 72.576 L1538.66 27.2059 L1546.07 27.2059 L1546.07 63.5425 L1567.91 27.2059 L1577.51 27.2059 Z" fill="#000000" fill-rule="nonzero" fill-opacity="1" /><path clip-path="url(#clip320)" d="M1600.35 40.2903 Q1600.35 43.6525 1602.95 45.5565 Q1605.54 47.4604 1610.36 47.4604 L1620.41 47.4604 L1620.41 33.1607 L1610.36 33.1607 Q1605.54 33.1607 1602.95 35.0241 Q1600.35 36.8875 1600.35 40.2903 M1589.74 72.576 L1603.59 52.6861 Q1598.9 51.6328 1595.78 48.8782 Q1592.66 46.0831 1592.66 40.2903 Q1592.66 33.7278 1596.99 30.4871 Q1601.37 27.2059 1610.16 27.2059 L1627.9 27.2059 L1627.9 72.576 L1620.41 72.576 L1620.41 53.4152 L1611.13 53.4152 L1597.76 72.576 L1589.74 72.576 Z" fill="#000000" fill-rule="nonzero" fill-opacity="1" /><path clip-path="url(#clip320)" d="M1686.72 32.4315 Q1680.72 32.4315 1677.24 37.1306 Q1673.76 41.7891 1673.76 49.9314 Q1673.76 58.0738 1677.2 62.7728 Q1680.68 67.4314 1686.72 67.4314 Q1692.67 67.4314 1696.16 62.7323 Q1699.64 58.0333 1699.64 49.9314 Q1699.64 41.8701 1696.16 37.1711 Q1692.67 32.4315 1686.72 32.4315 M1686.72 26.1121 Q1696.44 26.1121 1701.99 32.4315 Q1707.54 38.7509 1707.54 49.9314 Q1707.54 61.0714 1701.99 67.4314 Q1696.44 73.7508 1686.72 73.7508 Q1676.96 73.7508 1671.41 67.4314 Q1665.9 61.0714 1665.9 49.9314 Q1665.9 38.7509 1671.41 32.4315 Q1676.96 26.1121 1686.72 26.1121 Z" fill="#000000" fill-rule="nonzero" fill-opacity="1" /><path clip-path="url(#clip320)" d="M1714.51 27.2059 L1757.97 27.2059 L1757.97 33.1607 L1739.91 33.1607 L1739.91 72.576 L1732.58 72.576 L1732.58 33.1607 L1714.51 33.1607 L1714.51 27.2059 Z" fill="#000000" fill-rule="nonzero" fill-opacity="1" /><path clip-path="url(#clip320)" d="M1801.81 65.7705 L1801.81 89.8329 L1794.31 89.8329 L1794.31 27.2059 L1801.81 27.2059 L1801.81 34.0924 Q1804.15 30.0415 1807.72 28.0971 Q1811.32 26.1121 1816.31 26.1121 Q1824.57 26.1121 1829.72 32.6746 Q1834.9 39.2371 1834.9 49.9314 Q1834.9 60.6258 1829.72 67.1883 Q1824.57 73.7508 1816.31 73.7508 Q1811.32 73.7508 1807.72 71.8063 Q1804.15 69.8214 1801.81 65.7705 M1827.16 49.9314 Q1827.16 41.7081 1823.76 37.0496 Q1820.4 32.3505 1814.48 32.3505 Q1808.57 32.3505 1805.17 37.0496 Q1801.81 41.7081 1801.81 49.9314 Q1801.81 58.1548 1805.17 62.8538 Q1808.57 67.5124 1814.48 67.5124 Q1820.4 67.5124 1823.76 62.8538 Q1827.16 58.1548 1827.16 49.9314 Z" fill="#000000" fill-rule="nonzero" fill-opacity="1" /><path clip-path="url(#clip320)" d="M1867.88 49.7694 Q1858.84 49.7694 1855.36 51.8354 Q1851.87 53.9013 1851.87 58.8839 Q1851.87 62.8538 1854.47 65.2034 Q1857.1 67.5124 1861.6 67.5124 Q1867.79 67.5124 1871.52 63.1374 Q1875.29 58.7219 1875.29 51.4303 L1875.29 49.7694 L1867.88 49.7694 M1882.74 46.6907 L1882.74 72.576 L1875.29 72.576 L1875.29 65.6895 Q1872.74 69.8214 1868.93 71.8063 Q1865.12 73.7508 1859.61 73.7508 Q1852.64 73.7508 1848.51 69.8619 Q1844.42 65.9325 1844.42 59.3701 Q1844.42 51.7138 1849.52 47.825 Q1854.67 43.9361 1864.84 43.9361 L1875.29 43.9361 L1875.29 43.2069 Q1875.29 38.0623 1871.89 35.2672 Q1868.52 32.4315 1862.41 32.4315 Q1858.52 32.4315 1854.83 33.3632 Q1851.15 34.295 1847.74 36.1584 L1847.74 29.2718 Q1851.83 27.692 1855.68 26.9223 Q1859.53 26.1121 1863.18 26.1121 Q1873.02 26.1121 1877.88 31.2163 Q1882.74 36.3204 1882.74 46.6907 Z" fill="#000000" fill-rule="nonzero" fill-opacity="1" /><path clip-path="url(#clip320)" d="M1918.88 48.1085 Q1923.9 49.0808 1926.69 52.0379 Q1929.49 54.9951 1929.49 59.3701 Q1929.49 66.3781 1924.26 70.0644 Q1919.04 73.7508 1909.4 73.7508 Q1906.16 73.7508 1902.71 73.1836 Q1899.31 72.6165 1895.66 71.4823 L1895.66 64.5552 Q1898.54 66.054 1901.98 66.8237 Q1905.43 67.5529 1909.19 67.5529 Q1915.31 67.5529 1918.71 65.2844 Q1922.16 63.0159 1922.16 59.3701 Q1922.16 55.8053 1919.12 53.6583 Q1916.08 51.4708 1910.53 51.4708 L1904.54 51.4708 L1904.54 45.3134 L1910.82 45.3134 Q1915.51 45.3134 1918.23 43.531 Q1920.98 41.7081 1920.98 38.8725 Q1920.98 36.2799 1918.15 34.4165 Q1915.35 32.5531 1910.53 32.5531 Q1907.66 32.5531 1904.37 33.0797 Q1901.13 33.6063 1897.2 34.7811 L1897.2 28.0161 Q1901.17 27.0438 1904.62 26.5577 Q1908.06 26.0716 1911.14 26.0716 Q1919.08 26.0716 1923.66 29.2718 Q1928.27 32.4315 1928.27 38.1433 Q1928.27 41.9107 1925.84 44.5437 Q1923.41 47.1363 1918.88 48.1085 Z" fill="#000000" fill-rule="nonzero" fill-opacity="1" /><path clip-path="url(#clip320)" d="M1941.93 27.2059 L1952.82 27.2059 L1965.7 57.5877 L1978.63 27.2059 L1989.44 27.2059 L1989.44 72.576 L1981.95 72.576 L1981.95 34.3355 L1969.43 63.8666 L1961.98 63.8666 L1949.42 34.3355 L1949.42 72.576 L1941.93 72.576 L1941.93 27.2059 Z" fill="#000000" fill-rule="nonzero" fill-opacity="1" /><path clip-path="url(#clip320)" d="M2043.6 48.0275 L2043.6 51.6733 L2009.33 51.6733 Q2009.82 59.3701 2013.95 63.421 Q2018.12 67.4314 2025.54 67.4314 Q2029.83 67.4314 2033.84 66.3781 Q2037.89 65.3249 2041.86 63.2184 L2041.86 70.267 Q2037.85 71.9684 2033.64 72.8596 Q2029.43 73.7508 2025.09 73.7508 Q2014.23 73.7508 2007.87 67.4314 Q2001.56 61.1119 2001.56 50.3365 Q2001.56 39.1965 2007.55 32.6746 Q2013.59 26.1121 2023.79 26.1121 Q2032.95 26.1121 2038.26 32.0264 Q2043.6 37.9003 2043.6 48.0275 M2036.15 45.84 Q2036.07 39.7232 2032.71 36.0774 Q2029.39 32.4315 2023.88 32.4315 Q2017.64 32.4315 2013.87 35.9558 Q2010.14 39.4801 2009.58 45.8805 L2036.15 45.84 Z" fill="#000000" fill-rule="nonzero" fill-opacity="1" /><path clip-path="url(#clip320)" d="M2063.05 65.7705 L2063.05 89.8329 L2055.55 89.8329 L2055.55 27.2059 L2063.05 27.2059 L2063.05 34.0924 Q2065.4 30.0415 2068.96 28.0971 Q2072.57 26.1121 2077.55 26.1121 Q2085.81 26.1121 2090.96 32.6746 Q2096.14 39.2371 2096.14 49.9314 Q2096.14 60.6258 2090.96 67.1883 Q2085.81 73.7508 2077.55 73.7508 Q2072.57 73.7508 2068.96 71.8063 Q2065.4 69.8214 2063.05 65.7705 M2088.41 49.9314 Q2088.41 41.7081 2085 37.0496 Q2081.64 32.3505 2075.73 32.3505 Q2069.81 32.3505 2066.41 37.0496 Q2063.05 41.7081 2063.05 49.9314 Q2063.05 58.1548 2066.41 62.8538 Q2069.81 67.5124 2075.73 67.5124 Q2081.64 67.5124 2085 62.8538 Q2088.41 58.1548 2088.41 49.9314 Z" fill="#000000" fill-rule="nonzero" fill-opacity="1" /><path clip-path="url(#clip320)" d="M2129.12 49.7694 Q2120.08 49.7694 2116.6 51.8354 Q2113.12 53.9013 2113.12 58.8839 Q2113.12 62.8538 2115.71 65.2034 Q2118.34 67.5124 2122.84 67.5124 Q2129.04 67.5124 2132.76 63.1374 Q2136.53 58.7219 2136.53 51.4303 L2136.53 49.7694 L2129.12 49.7694 M2143.99 46.6907 L2143.99 72.576 L2136.53 72.576 L2136.53 65.6895 Q2133.98 69.8214 2130.17 71.8063 Q2126.36 73.7508 2120.85 73.7508 Q2113.89 73.7508 2109.76 69.8619 Q2105.66 65.9325 2105.66 59.3701 Q2105.66 51.7138 2110.77 47.825 Q2115.91 43.9361 2126.08 43.9361 L2136.53 43.9361 L2136.53 43.2069 Q2136.53 38.0623 2133.13 35.2672 Q2129.77 32.4315 2123.65 32.4315 Q2119.76 32.4315 2116.07 33.3632 Q2112.39 34.295 2108.99 36.1584 L2108.99 29.2718 Q2113.08 27.692 2116.93 26.9223 Q2120.77 26.1121 2124.42 26.1121 Q2134.26 26.1121 2139.12 31.2163 Q2143.99 36.3204 2143.99 46.6907 Z" fill="#000000" fill-rule="nonzero" fill-opacity="1" /><path clip-path="url(#clip320)" d="M2185.43 72.576 L2185.43 27.2059 L2217.43 27.2059 L2217.43 33.1607 L2192.92 33.1607 L2192.92 72.576 L2185.43 72.576 Z" fill="#000000" fill-rule="nonzero" fill-opacity="1" /><path clip-path="url(#clip320)" d="M2236.51 65.7705 L2236.51 89.8329 L2229.01 89.8329 L2229.01 27.2059 L2236.51 27.2059 L2236.51 34.0924 Q2238.86 30.0415 2242.42 28.0971 Q2246.03 26.1121 2251.01 26.1121 Q2259.27 26.1121 2264.42 32.6746 Q2269.6 39.2371 2269.6 49.9314 Q2269.6 60.6258 2264.42 67.1883 Q2259.27 73.7508 2251.01 73.7508 Q2246.03 73.7508 2242.42 71.8063 Q2238.86 69.8214 2236.51 65.7705 M2261.87 49.9314 Q2261.87 41.7081 2258.46 37.0496 Q2255.1 32.3505 2249.19 32.3505 Q2243.27 32.3505 2239.87 37.0496 Q2236.51 41.7081 2236.51 49.9314 Q2236.51 58.1548 2239.87 62.8538 Q2243.27 67.5124 2249.19 67.5124 Q2255.1 67.5124 2258.46 62.8538 Q2261.87 58.1548 2261.87 49.9314 Z" fill="#000000" fill-rule="nonzero" fill-opacity="1" /><path clip-path="url(#clip320)" d="M2302.58 49.7694 Q2293.54 49.7694 2290.06 51.8354 Q2286.58 53.9013 2286.58 58.8839 Q2286.58 62.8538 2289.17 65.2034 Q2291.8 67.5124 2296.3 67.5124 Q2302.5 67.5124 2306.22 63.1374 Q2309.99 58.7219 2309.99 51.4303 L2309.99 49.7694 L2302.58 49.7694 M2317.44 46.6907 L2317.44 72.576 L2309.99 72.576 L2309.99 65.6895 Q2307.44 69.8214 2303.63 71.8063 Q2299.82 73.7508 2294.31 73.7508 Q2287.35 73.7508 2283.21 69.8619 Q2279.12 65.9325 2279.12 59.3701 Q2279.12 51.7138 2284.23 47.825 Q2289.37 43.9361 2299.54 43.9361 L2309.99 43.9361 L2309.99 43.2069 Q2309.99 38.0623 2306.59 35.2672 Q2303.23 32.4315 2297.11 32.4315 Q2293.22 32.4315 2289.53 33.3632 Q2285.85 34.295 2282.45 36.1584 L2282.45 29.2718 Q2286.54 27.692 2290.38 26.9223 Q2294.23 26.1121 2297.88 26.1121 Q2307.72 26.1121 2312.58 31.2163 Q2317.44 36.3204 2317.44 46.6907 Z" fill="#000000" fill-rule="nonzero" fill-opacity="1" /><path clip-path="url(#clip320)" d="M2337.25 49.9314 Q2337.25 59.4511 2340.17 63.502 Q2343.13 67.5124 2348.11 67.5124 Q2352.08 67.5124 2356.7 60.7069 L2356.7 39.156 Q2352.08 32.3505 2348.11 32.3505 Q2343.13 32.3505 2340.17 36.4014 Q2337.25 40.4118 2337.25 49.9314 M2356.7 89.8329 L2356.7 66.7832 Q2354.39 70.5911 2351.72 72.1709 Q2349.08 73.7508 2345.72 73.7508 Q2338.96 73.7508 2334.22 67.5124 Q2329.52 61.2335 2329.52 50.0935 Q2329.52 38.9535 2334.22 32.5531 Q2338.96 26.1121 2345.72 26.1121 Q2349.08 26.1121 2351.72 27.6515 Q2354.39 29.1908 2356.7 32.9987 L2356.7 12.096 L2364.19 12.096 L2364.19 32.9987 Q2366.5 29.1908 2369.13 27.6515 Q2371.81 26.1121 2375.17 26.1121 Q2381.94 26.1121 2386.63 32.5531 Q2391.37 38.9535 2391.37 50.0935 Q2391.37 61.2335 2386.63 67.5124 Q2381.94 73.7508 2375.17 73.7508 Q2371.81 73.7508 2369.13 72.1709 Q2366.5 70.5911 2364.19 66.7832 L2364.19 89.8329 L2356.7 89.8329 M2383.64 49.9314 Q2383.64 40.4118 2380.68 36.4014 Q2377.76 32.3505 2372.78 32.3505 Q2368.81 32.3505 2364.19 39.156 L2364.19 60.7069 Q2368.81 67.5124 2372.78 67.5124 Q2377.76 67.5124 2380.68 63.502 Q2383.64 59.4511 2383.64 49.9314 Z" fill="#000000" fill-rule="nonzero" fill-opacity="1" /><path clip-path="url(#clip320)" d="M2424.35 49.7694 Q2415.31 49.7694 2411.83 51.8354 Q2408.35 53.9013 2408.35 58.8839 Q2408.35 62.8538 2410.94 65.2034 Q2413.57 67.5124 2418.07 67.5124 Q2424.27 67.5124 2427.99 63.1374 Q2431.76 58.7219 2431.76 51.4303 L2431.76 49.7694 L2424.35 49.7694 M2439.22 46.6907 L2439.22 72.576 L2431.76 72.576 L2431.76 65.6895 Q2429.21 69.8214 2425.4 71.8063 Q2421.59 73.7508 2416.08 73.7508 Q2409.12 73.7508 2404.98 69.8619 Q2400.89 65.9325 2400.89 59.3701 Q2400.89 51.7138 2406 47.825 Q2411.14 43.9361 2421.31 43.9361 L2431.76 43.9361 L2431.76 43.2069 Q2431.76 38.0623 2428.36 35.2672 Q2425 32.4315 2418.88 32.4315 Q2414.99 32.4315 2411.3 33.3632 Q2407.62 34.295 2404.22 36.1584 L2404.22 29.2718 Q2408.31 27.692 2412.16 26.9223 Q2416 26.1121 2419.65 26.1121 Q2429.49 26.1121 2434.35 31.2163 Q2439.22 36.3204 2439.22 46.6907 Z" fill="#000000" fill-rule="nonzero" fill-opacity="1" /><path clip-path="url(#clip320)" d="M2498.84 9.62495 Q2493.42 18.942 2490.78 28.0566 Q2488.15 37.1711 2488.15 46.5287 Q2488.15 55.8863 2490.78 65.0818 Q2493.46 74.2369 2498.84 83.5134 L2492.36 83.5134 Q2486.29 73.9938 2483.25 64.7983 Q2480.25 55.6027 2480.25 46.5287 Q2480.25 37.4952 2483.25 28.3401 Q2486.25 19.1851 2492.36 9.62495 L2498.84 9.62495 Z" fill="#000000" fill-rule="nonzero" fill-opacity="1" /><path clip-path="url(#clip320)" d="M2552.11 48.0275 L2552.11 51.6733 L2517.84 51.6733 Q2518.33 59.3701 2522.46 63.421 Q2526.63 67.4314 2534.05 67.4314 Q2538.34 67.4314 2542.35 66.3781 Q2546.4 65.3249 2550.37 63.2184 L2550.37 70.267 Q2546.36 71.9684 2542.15 72.8596 Q2537.94 73.7508 2533.6 73.7508 Q2522.74 73.7508 2516.38 67.4314 Q2510.07 61.1119 2510.07 50.3365 Q2510.07 39.1965 2516.06 32.6746 Q2522.1 26.1121 2532.3 26.1121 Q2541.46 26.1121 2546.77 32.0264 Q2552.11 37.9003 2552.11 48.0275 M2544.66 45.84 Q2544.58 39.7232 2541.22 36.0774 Q2537.9 32.4315 2532.39 32.4315 Q2526.15 32.4315 2522.38 35.9558 Q2518.65 39.4801 2518.09 45.8805 L2544.66 45.84 Z" fill="#000000" fill-rule="nonzero" fill-opacity="1" /><path clip-path="url(#clip320)" d="M2600.6 27.2059 L2584.2 49.2833 L2601.45 72.576 L2592.66 72.576 L2579.46 54.752 L2566.25 72.576 L2557.46 72.576 L2575.08 48.8377 L2558.96 27.2059 L2567.75 27.2059 L2579.78 43.369 L2591.81 27.2059 L2600.6 27.2059 Z" fill="#000000" fill-rule="nonzero" fill-opacity="1" /><path clip-path="url(#clip320)" d="M2619.36 14.324 L2619.36 27.2059 L2634.71 27.2059 L2634.71 32.9987 L2619.36 32.9987 L2619.36 57.6282 Q2619.36 63.1779 2620.86 64.7578 Q2622.4 66.3376 2627.06 66.3376 L2634.71 66.3376 L2634.71 72.576 L2627.06 72.576 Q2618.43 72.576 2615.15 69.3758 Q2611.86 66.1351 2611.86 57.6282 L2611.86 32.9987 L2606.4 32.9987 L2606.4 27.2059 L2611.86 27.2059 L2611.86 14.324 L2619.36 14.324 Z" fill="#000000" fill-rule="nonzero" fill-opacity="1" /><path clip-path="url(#clip320)" d="M2683.32 48.0275 L2683.32 51.6733 L2649.05 51.6733 Q2649.54 59.3701 2653.67 63.421 Q2657.84 67.4314 2665.26 67.4314 Q2669.55 67.4314 2673.56 66.3781 Q2677.61 65.3249 2681.58 63.2184 L2681.58 70.267 Q2677.57 71.9684 2673.36 72.8596 Q2669.14 73.7508 2664.81 73.7508 Q2653.95 73.7508 2647.59 67.4314 Q2641.27 61.1119 2641.27 50.3365 Q2641.27 39.1965 2647.27 32.6746 Q2653.31 26.1121 2663.51 26.1121 Q2672.67 26.1121 2677.98 32.0264 Q2683.32 37.9003 2683.32 48.0275 M2675.87 45.84 Q2675.79 39.7232 2672.43 36.0774 Q2669.1 32.4315 2663.59 32.4315 Q2657.36 32.4315 2653.59 35.9558 Q2649.86 39.4801 2649.29 45.8805 L2675.87 45.84 Z" fill="#000000" fill-rule="nonzero" fill-opacity="1" /><path clip-path="url(#clip320)" d="M2733.27 45.1919 L2733.27 72.576 L2725.82 72.576 L2725.82 45.4349 Q2725.82 38.994 2723.3 35.7938 Q2720.79 32.5936 2715.77 32.5936 Q2709.73 32.5936 2706.25 36.4419 Q2702.77 40.2903 2702.77 46.9338 L2702.77 72.576 L2695.27 72.576 L2695.27 27.2059 L2702.77 27.2059 L2702.77 34.2544 Q2705.44 30.163 2709.05 28.1376 Q2712.69 26.1121 2717.43 26.1121 Q2725.25 26.1121 2729.26 30.9732 Q2733.27 35.7938 2733.27 45.1919 Z" fill="#000000" fill-rule="nonzero" fill-opacity="1" /><path clip-path="url(#clip320)" d="M2777.99 34.0924 L2777.99 9.54393 L2785.45 9.54393 L2785.45 72.576 L2777.99 72.576 L2777.99 65.7705 Q2775.64 69.8214 2772.04 71.8063 Q2768.47 73.7508 2763.45 73.7508 Q2755.23 73.7508 2750.04 67.1883 Q2744.9 60.6258 2744.9 49.9314 Q2744.9 39.2371 2750.04 32.6746 Q2755.23 26.1121 2763.45 26.1121 Q2768.47 26.1121 2772.04 28.0971 Q2775.64 30.0415 2777.99 34.0924 M2752.59 49.9314 Q2752.59 58.1548 2755.96 62.8538 Q2759.36 67.5124 2765.27 67.5124 Q2771.19 67.5124 2774.59 62.8538 Q2777.99 58.1548 2777.99 49.9314 Q2777.99 41.7081 2774.59 37.0496 Q2771.19 32.3505 2765.27 32.3505 Q2759.36 32.3505 2755.96 37.0496 Q2752.59 41.7081 2752.59 49.9314 Z" fill="#000000" fill-rule="nonzero" fill-opacity="1" /><path clip-path="url(#clip320)" d="M2839.61 48.0275 L2839.61 51.6733 L2805.34 51.6733 Q2805.82 59.3701 2809.95 63.421 Q2814.13 67.4314 2821.54 67.4314 Q2825.83 67.4314 2829.84 66.3781 Q2833.89 65.3249 2837.86 63.2184 L2837.86 70.267 Q2833.85 71.9684 2829.64 72.8596 Q2825.43 73.7508 2821.09 73.7508 Q2810.24 73.7508 2803.88 67.4314 Q2797.56 61.1119 2797.56 50.3365 Q2797.56 39.1965 2803.55 32.6746 Q2809.59 26.1121 2819.8 26.1121 Q2828.95 26.1121 2834.26 32.0264 Q2839.61 37.9003 2839.61 48.0275 M2832.15 45.84 Q2832.07 39.7232 2828.71 36.0774 Q2825.39 32.4315 2819.88 32.4315 Q2813.64 32.4315 2809.87 35.9558 Q2806.15 39.4801 2805.58 45.8805 L2832.15 45.84 Z" fill="#000000" fill-rule="nonzero" fill-opacity="1" /><path clip-path="url(#clip320)" d="M2881.7 34.0924 L2881.7 9.54393 L2889.15 9.54393 L2889.15 72.576 L2881.7 72.576 L2881.7 65.7705 Q2879.35 69.8214 2875.74 71.8063 Q2872.18 73.7508 2867.15 73.7508 Q2858.93 73.7508 2853.74 67.1883 Q2848.6 60.6258 2848.6 49.9314 Q2848.6 39.2371 2853.74 32.6746 Q2858.93 26.1121 2867.15 26.1121 Q2872.18 26.1121 2875.74 28.0971 Q2879.35 30.0415 2881.7 34.0924 M2856.3 49.9314 Q2856.3 58.1548 2859.66 62.8538 Q2863.06 67.5124 2868.98 67.5124 Q2874.89 67.5124 2878.29 62.8538 Q2881.7 58.1548 2881.7 49.9314 Q2881.7 41.7081 2878.29 37.0496 Q2874.89 32.3505 2868.98 32.3505 Q2863.06 32.3505 2859.66 37.0496 Q2856.3 41.7081 2856.3 49.9314 Z" fill="#000000" fill-rule="nonzero" fill-opacity="1" /><path clip-path="url(#clip320)" d="M2903.33 9.62495 L2909.81 9.62495 Q2915.88 19.1851 2918.88 28.3401 Q2921.92 37.4952 2921.92 46.5287 Q2921.92 55.6027 2918.88 64.7983 Q2915.88 73.9938 2909.81 83.5134 L2903.33 83.5134 Q2908.71 74.2369 2911.35 65.0818 Q2914.02 55.8863 2914.02 46.5287 Q2914.02 37.1711 2911.35 28.0566 Q2908.71 18.942 2903.33 9.62495 Z" fill="#000000" fill-rule="nonzero" fill-opacity="1" /><polyline clip-path="url(#clip322)" style="stroke:#ee7733; stroke-linecap:round; stroke-linejoin:round; stroke-width:8; stroke-opacity:1; fill:none" points="340.588,1961.15 369.327,1682.8 398.067,1582.62 426.806,1055.09 455.546,1325.13 484.286,1004.37 513.025,503.291 541.765,725.263 570.504,459.553 599.244,831.05 627.983,845.853 656.723,811.106 685.463,424.642 714.202,753.715 742.942,467.464 771.681,755.296 800.421,924.479 829.161,178.832 857.9,923.136 886.64,818.019 915.379,775.878 944.119,437.795 972.858,531.813 1001.6,399.018 1030.34,854.678 1059.08,862.421 1087.82,550.134 1116.56,432.128 1145.3,509.3 1174.04,579.187 1202.78,1178.55 1231.51,455.624 1260.25,687.287 1288.99,834.825 1317.73,941.94 1346.47,513.255 1375.21,639.174 1403.95,828.642 1432.69,692.349 1461.43,912.507 1490.17,834.082 1518.91,830.446 1547.65,620.986 1576.39,929.456 1605.13,967.365 1633.87,680.347 1662.61,817.679 1691.35,873.056 1720.09,785.143 1748.83,897.245 1777.57,845.478 1806.31,1161.95 1835.05,942.656 1863.79,899.504 1892.53,1011.87 1921.26,817.867 1950,936.935 1978.74,1209.92 2007.48,1083.37 2036.22,919.725 2064.96,816.743 2093.7,904.569 2122.44,1070.56 2151.18,1027.32 2179.92,977.206 2208.66,870.774 2237.4,947.787 2266.14,1082.65 2294.88,909.121 2323.62,824.348 2352.36,959.539 2381.1,1104.88 2409.84,1231.8 2438.58,617.973 2467.32,913.22 2496.06,1004.23 2524.8,869.058 2553.54,1220.58 2582.28,948.379 2611.01,1312.38 2639.75,1061.2 2668.49,986.703 2697.23,899.521 2725.97,1158.57 2754.71,1012 2783.45,1182.61 2812.19,1047.7 2840.93,1026.14 2869.67,869.375 2898.41,1118.72 2927.15,1292.97 2955.89,965.015 2984.63,1180.34 3013.37,1158.04 3042.11,1173.29 3070.85,1183.37 "/>
<path clip-path="url(#clip320)" d="M2403.02 1951.64 L3056.29 1951.64 L3056.29 1847.96 L2403.02 1847.96  Z" fill="#ffffff" fill-rule="evenodd" fill-opacity="0.9"/>
<polyline clip-path="url(#clip320)" style="stroke:#222255; stroke-linecap:round; stroke-linejoin:round; stroke-width:4; stroke-opacity:0.1; fill:none" points="2403.02,1951.64 3056.29,1951.64 3056.29,1847.96 2403.02,1847.96 2403.02,1951.64 "/>
<polyline clip-path="url(#clip320)" style="stroke:#ee7733; stroke-linecap:round; stroke-linejoin:round; stroke-width:8; stroke-opacity:1; fill:none" points="2435.17,1899.8 2628.11,1899.8 "/>
<path clip-path="url(#clip320)" d="M2661.72 1882.52 L2680.08 1882.52 L2680.08 1886.45 L2666.01 1886.45 L2666.01 1894.93 Q2667.03 1894.58 2668.04 1894.42 Q2669.06 1894.23 2670.08 1894.23 Q2675.87 1894.23 2679.25 1897.4 Q2682.63 1900.58 2682.63 1905.99 Q2682.63 1911.57 2679.16 1914.67 Q2675.68 1917.75 2669.36 1917.75 Q2667.19 1917.75 2664.92 1917.38 Q2662.67 1917.01 2660.27 1916.27 L2660.27 1911.57 Q2662.35 1912.7 2664.57 1913.26 Q2666.79 1913.82 2669.27 1913.82 Q2673.28 1913.82 2675.61 1911.71 Q2677.95 1909.6 2677.95 1905.99 Q2677.95 1902.38 2675.61 1900.27 Q2673.28 1898.17 2669.27 1898.17 Q2667.4 1898.17 2665.52 1898.58 Q2663.67 1899 2661.72 1899.88 L2661.72 1882.52 Z" fill="#000000" fill-rule="nonzero" fill-opacity="1" /><path clip-path="url(#clip320)" d="M2701.84 1885.6 Q2698.23 1885.6 2696.4 1889.16 Q2694.6 1892.7 2694.6 1899.83 Q2694.6 1906.94 2696.4 1910.51 Q2698.23 1914.05 2701.84 1914.05 Q2705.47 1914.05 2707.28 1910.51 Q2709.11 1906.94 2709.11 1899.83 Q2709.11 1892.7 2707.28 1889.16 Q2705.47 1885.6 2701.84 1885.6 M2701.84 1881.89 Q2707.65 1881.89 2710.71 1886.5 Q2713.78 1891.08 2713.78 1899.83 Q2713.78 1908.56 2710.71 1913.17 Q2707.65 1917.75 2701.84 1917.75 Q2696.03 1917.75 2692.95 1913.17 Q2689.9 1908.56 2689.9 1899.83 Q2689.9 1891.08 2692.95 1886.5 Q2696.03 1881.89 2701.84 1881.89 Z" fill="#000000" fill-rule="nonzero" fill-opacity="1" /><path clip-path="url(#clip320)" d="M2758.69 1891.15 L2758.69 1917.08 L2754.41 1917.08 L2754.41 1894.56 L2740.59 1894.56 L2740.59 1917.08 L2736.31 1917.08 L2736.31 1891.15 L2758.69 1891.15 Z" fill="#000000" fill-rule="nonzero" fill-opacity="1" /><path clip-path="url(#clip320)" d="M2777.51 1894.14 Q2774.09 1894.14 2772.09 1896.83 Q2770.1 1899.49 2770.1 1904.14 Q2770.1 1908.79 2772.07 1911.48 Q2774.06 1914.14 2777.51 1914.14 Q2780.91 1914.14 2782.9 1911.45 Q2784.9 1908.77 2784.9 1904.14 Q2784.9 1899.53 2782.9 1896.85 Q2780.91 1894.14 2777.51 1894.14 M2777.51 1890.53 Q2783.07 1890.53 2786.24 1894.14 Q2789.41 1897.75 2789.41 1904.14 Q2789.41 1910.51 2786.24 1914.14 Q2783.07 1917.75 2777.51 1917.75 Q2771.93 1917.75 2768.76 1914.14 Q2765.61 1910.51 2765.61 1904.14 Q2765.61 1897.75 2768.76 1894.14 Q2771.93 1890.53 2777.51 1890.53 Z" fill="#000000" fill-rule="nonzero" fill-opacity="1" /><path clip-path="url(#clip320)" d="M2800.57 1905.14 L2800.57 1913.68 L2806.63 1913.68 Q2809.55 1913.68 2811.08 1912.59 Q2812.6 1911.48 2812.6 1909.39 Q2812.6 1907.31 2811.08 1906.22 Q2809.55 1905.14 2806.63 1905.14 L2800.57 1905.14 M2800.57 1894.56 L2800.57 1901.73 L2806.17 1901.73 Q2808.58 1901.73 2810.1 1900.78 Q2811.63 1899.81 2811.63 1898.1 Q2811.63 1896.39 2810.1 1895.48 Q2808.58 1894.56 2806.17 1894.56 L2800.57 1894.56 M2796.31 1891.15 L2806.45 1891.15 Q2811.01 1891.15 2813.46 1892.82 Q2815.91 1894.49 2815.91 1897.57 Q2815.91 1899.95 2814.66 1901.36 Q2813.41 1902.75 2810.96 1903.1 Q2813.9 1903.65 2815.52 1905.41 Q2817.14 1907.17 2817.14 1909.81 Q2817.14 1913.28 2814.46 1915.18 Q2811.79 1917.08 2806.84 1917.08 L2796.31 1917.08 L2796.31 1891.15 Z" fill="#000000" fill-rule="nonzero" fill-opacity="1" /><path clip-path="url(#clip320)" d="M2821.33 1891.15 L2846.17 1891.15 L2846.17 1894.56 L2835.84 1894.56 L2835.84 1917.08 L2831.65 1917.08 L2831.65 1894.56 L2821.33 1894.56 L2821.33 1891.15 Z" fill="#000000" fill-rule="nonzero" fill-opacity="1" /><path clip-path="url(#clip320)" d="M2862.07 1894.14 Q2858.65 1894.14 2856.65 1896.83 Q2854.66 1899.49 2854.66 1904.14 Q2854.66 1908.79 2856.63 1911.48 Q2858.62 1914.14 2862.07 1914.14 Q2865.47 1914.14 2867.46 1911.45 Q2869.46 1908.77 2869.46 1904.14 Q2869.46 1899.53 2867.46 1896.85 Q2865.47 1894.14 2862.07 1894.14 M2862.07 1890.53 Q2867.63 1890.53 2870.8 1894.14 Q2873.97 1897.75 2873.97 1904.14 Q2873.97 1910.51 2870.8 1914.14 Q2867.63 1917.75 2862.07 1917.75 Q2856.49 1917.75 2853.32 1914.14 Q2850.17 1910.51 2850.17 1904.14 Q2850.17 1897.75 2853.32 1894.14 Q2856.49 1890.53 2862.07 1890.53 Z" fill="#000000" fill-rule="nonzero" fill-opacity="1" /><path clip-path="url(#clip320)" d="M2885.15 1913.19 L2885.15 1926.94 L2880.87 1926.94 L2880.87 1891.15 L2885.15 1891.15 L2885.15 1895.09 Q2886.49 1892.77 2888.53 1891.66 Q2890.59 1890.53 2893.44 1890.53 Q2898.16 1890.53 2901.1 1894.28 Q2904.06 1898.03 2904.06 1904.14 Q2904.06 1910.25 2901.1 1914 Q2898.16 1917.75 2893.44 1917.75 Q2890.59 1917.75 2888.53 1916.64 Q2886.49 1915.51 2885.15 1913.19 M2899.64 1904.14 Q2899.64 1899.44 2897.7 1896.78 Q2895.77 1894.09 2892.39 1894.09 Q2889.02 1894.09 2887.07 1896.78 Q2885.15 1899.44 2885.15 1904.14 Q2885.15 1908.84 2887.07 1911.52 Q2889.02 1914.19 2892.39 1914.19 Q2895.77 1914.19 2897.7 1911.52 Q2899.64 1908.84 2899.64 1904.14 Z" fill="#000000" fill-rule="nonzero" fill-opacity="1" /><path clip-path="url(#clip320)" d="M2933.3 1903.05 L2933.3 1905.14 L2913.71 1905.14 Q2913.99 1909.53 2916.35 1911.85 Q2918.74 1914.14 2922.97 1914.14 Q2925.43 1914.14 2927.72 1913.54 Q2930.03 1912.94 2932.3 1911.73 L2932.3 1915.76 Q2930.01 1916.73 2927.6 1917.24 Q2925.2 1917.75 2922.72 1917.75 Q2916.52 1917.75 2912.88 1914.14 Q2909.27 1910.53 2909.27 1904.37 Q2909.27 1898.01 2912.7 1894.28 Q2916.14 1890.53 2921.98 1890.53 Q2927.21 1890.53 2930.24 1893.91 Q2933.3 1897.27 2933.3 1903.05 M2929.04 1901.8 Q2928.99 1898.31 2927.07 1896.22 Q2925.17 1894.14 2922.02 1894.14 Q2918.46 1894.14 2916.31 1896.15 Q2914.18 1898.17 2913.85 1901.83 L2929.04 1901.8 Z" fill="#000000" fill-rule="nonzero" fill-opacity="1" /><path clip-path="url(#clip320)" d="M2940.13 1891.15 L2944.41 1891.15 L2944.41 1901.73 L2958.23 1901.73 L2958.23 1891.15 L2962.51 1891.15 L2962.51 1917.08 L2958.23 1917.08 L2958.23 1905.14 L2944.41 1905.14 L2944.41 1917.08 L2940.13 1917.08 L2940.13 1891.15 Z" fill="#000000" fill-rule="nonzero" fill-opacity="1" /><path clip-path="url(#clip320)" d="M2993.32 1891.15 L2993.32 1917.08 L2989.08 1917.08 L2989.08 1896.27 L2976.58 1917.08 L2971.12 1917.08 L2971.12 1891.15 L2975.36 1891.15 L2975.36 1911.92 L2987.83 1891.15 L2993.32 1891.15 Z" fill="#000000" fill-rule="nonzero" fill-opacity="1" /><path clip-path="url(#clip320)" d="M3024.13 1891.15 L3024.13 1917.08 L3019.89 1917.08 L3019.89 1896.27 L3007.39 1917.08 L3001.93 1917.08 L3001.93 1891.15 L3006.17 1891.15 L3006.17 1911.92 L3018.64 1891.15 L3024.13 1891.15 M3005.8 1881.06 L3008.53 1881.06 Q3008.78 1882.8 3009.89 1883.68 Q3011.03 1884.53 3013.04 1884.53 Q3015.03 1884.53 3016.14 1883.68 Q3017.26 1882.82 3017.56 1881.06 L3020.29 1881.06 Q3020.06 1884.37 3018.23 1886.04 Q3016.4 1887.7 3013.04 1887.7 Q3009.69 1887.7 3007.86 1886.04 Q3006.03 1884.37 3005.8 1881.06 Z" fill="#000000" fill-rule="nonzero" fill-opacity="1" /></svg>
