<?xml version="1.0" encoding="utf-8"?>
<svg xmlns="http://www.w3.org/2000/svg" xmlns:xlink="http://www.w3.org/1999/xlink" width="900" height="650" viewBox="0 0 3600 2600">
<defs>
  <clipPath id="clip560">
    <rect x="0" y="0" width="3600" height="2600"/>
  </clipPath>
</defs>
<path clip-path="url(#clip560)" d="M0 2600 L3600 2600 L3600 0 L0 0  Z" fill="#ffffff" fill-rule="evenodd" fill-opacity="1"/>
<defs>
  <clipPath id="clip561">
    <rect x="720" y="0" width="2521" height="2521"/>
  </clipPath>
</defs>
<defs>
  <clipPath id="clip562">
    <rect x="263" y="119" width="3290" height="2275"/>
  </clipPath>
</defs>
<path clip-path="url(#clip560)" d="M263.581 2393.03 L3552.76 2393.03 L3552.76 119.152 L263.581 119.152  Z" fill="#ffffff" fill-rule="evenodd" fill-opacity="1"/>
<polyline clip-path="url(#clip562)" style="stroke:#222255; stroke-linecap:round; stroke-linejoin:round; stroke-width:2; stroke-opacity:0.5; fill:none" points="569.83,2393.03 569.83,119.152 "/>
<polyline clip-path="url(#clip562)" style="stroke:#222255; stroke-linecap:round; stroke-linejoin:round; stroke-width:2; stroke-opacity:0.5; fill:none" points="1945.93,2393.03 1945.93,119.152 "/>
<polyline clip-path="url(#clip562)" style="stroke:#222255; stroke-linecap:round; stroke-linejoin:round; stroke-width:2; stroke-opacity:0.5; fill:none" points="3322.02,2393.03 3322.02,119.152 "/>
<polyline clip-path="url(#clip562)" style="stroke:#222255; stroke-linecap:round; stroke-linejoin:round; stroke-width:2; stroke-opacity:0.3; fill:none" points="264.545,2393.03 264.545,119.152 "/>
<polyline clip-path="url(#clip562)" style="stroke:#222255; stroke-linecap:round; stroke-linejoin:round; stroke-width:2; stroke-opacity:0.3; fill:none" points="356.671,2393.03 356.671,119.152 "/>
<polyline clip-path="url(#clip562)" style="stroke:#222255; stroke-linecap:round; stroke-linejoin:round; stroke-width:2; stroke-opacity:0.3; fill:none" points="436.473,2393.03 436.473,119.152 "/>
<polyline clip-path="url(#clip562)" style="stroke:#222255; stroke-linecap:round; stroke-linejoin:round; stroke-width:2; stroke-opacity:0.3; fill:none" points="506.864,2393.03 506.864,119.152 "/>
<polyline clip-path="url(#clip562)" style="stroke:#222255; stroke-linecap:round; stroke-linejoin:round; stroke-width:2; stroke-opacity:0.3; fill:none" points="984.076,2393.03 984.076,119.152 "/>
<polyline clip-path="url(#clip562)" style="stroke:#222255; stroke-linecap:round; stroke-linejoin:round; stroke-width:2; stroke-opacity:0.3; fill:none" points="1226.39,2393.03 1226.39,119.152 "/>
<polyline clip-path="url(#clip562)" style="stroke:#222255; stroke-linecap:round; stroke-linejoin:round; stroke-width:2; stroke-opacity:0.3; fill:none" points="1398.32,2393.03 1398.32,119.152 "/>
<polyline clip-path="url(#clip562)" style="stroke:#222255; stroke-linecap:round; stroke-linejoin:round; stroke-width:2; stroke-opacity:0.3; fill:none" points="1531.68,2393.03 1531.68,119.152 "/>
<polyline clip-path="url(#clip562)" style="stroke:#222255; stroke-linecap:round; stroke-linejoin:round; stroke-width:2; stroke-opacity:0.3; fill:none" points="1640.64,2393.03 1640.64,119.152 "/>
<polyline clip-path="url(#clip562)" style="stroke:#222255; stroke-linecap:round; stroke-linejoin:round; stroke-width:2; stroke-opacity:0.3; fill:none" points="1732.77,2393.03 1732.77,119.152 "/>
<polyline clip-path="url(#clip562)" style="stroke:#222255; stroke-linecap:round; stroke-linejoin:round; stroke-width:2; stroke-opacity:0.3; fill:none" points="1812.57,2393.03 1812.57,119.152 "/>
<polyline clip-path="url(#clip562)" style="stroke:#222255; stroke-linecap:round; stroke-linejoin:round; stroke-width:2; stroke-opacity:0.3; fill:none" points="1882.96,2393.03 1882.96,119.152 "/>
<polyline clip-path="url(#clip562)" style="stroke:#222255; stroke-linecap:round; stroke-linejoin:round; stroke-width:2; stroke-opacity:0.3; fill:none" points="2360.17,2393.03 2360.17,119.152 "/>
<polyline clip-path="url(#clip562)" style="stroke:#222255; stroke-linecap:round; stroke-linejoin:round; stroke-width:2; stroke-opacity:0.3; fill:none" points="2602.49,2393.03 2602.49,119.152 "/>
<polyline clip-path="url(#clip562)" style="stroke:#222255; stroke-linecap:round; stroke-linejoin:round; stroke-width:2; stroke-opacity:0.3; fill:none" points="2774.42,2393.03 2774.42,119.152 "/>
<polyline clip-path="url(#clip562)" style="stroke:#222255; stroke-linecap:round; stroke-linejoin:round; stroke-width:2; stroke-opacity:0.3; fill:none" points="2907.78,2393.03 2907.78,119.152 "/>
<polyline clip-path="url(#clip562)" style="stroke:#222255; stroke-linecap:round; stroke-linejoin:round; stroke-width:2; stroke-opacity:0.3; fill:none" points="3016.74,2393.03 3016.74,119.152 "/>
<polyline clip-path="url(#clip562)" style="stroke:#222255; stroke-linecap:round; stroke-linejoin:round; stroke-width:2; stroke-opacity:0.3; fill:none" points="3108.86,2393.03 3108.86,119.152 "/>
<polyline clip-path="url(#clip562)" style="stroke:#222255; stroke-linecap:round; stroke-linejoin:round; stroke-width:2; stroke-opacity:0.3; fill:none" points="3188.66,2393.03 3188.66,119.152 "/>
<polyline clip-path="url(#clip562)" style="stroke:#222255; stroke-linecap:round; stroke-linejoin:round; stroke-width:2; stroke-opacity:0.3; fill:none" points="3259.05,2393.03 3259.05,119.152 "/>
<polyline clip-path="url(#clip560)" style="stroke:#222255; stroke-linecap:round; stroke-linejoin:round; stroke-width:4; stroke-opacity:0; fill:none" points="569.83,2393.03 569.83,2374.14 "/>
<polyline clip-path="url(#clip560)" style="stroke:#222255; stroke-linecap:round; stroke-linejoin:round; stroke-width:4; stroke-opacity:0; fill:none" points="1945.93,2393.03 1945.93,2374.14 "/>
<polyline clip-path="url(#clip560)" style="stroke:#222255; stroke-linecap:round; stroke-linejoin:round; stroke-width:4; stroke-opacity:0; fill:none" points="3322.02,2393.03 3322.02,2374.14 "/>
<polyline clip-path="url(#clip560)" style="stroke:#222255; stroke-linecap:round; stroke-linejoin:round; stroke-width:4; stroke-opacity:0; fill:none" points="264.545,2393.03 264.545,2383.58 "/>
<polyline clip-path="url(#clip560)" style="stroke:#222255; stroke-linecap:round; stroke-linejoin:round; stroke-width:4; stroke-opacity:0; fill:none" points="356.671,2393.03 356.671,2383.58 "/>
<polyline clip-path="url(#clip560)" style="stroke:#222255; stroke-linecap:round; stroke-linejoin:round; stroke-width:4; stroke-opacity:0; fill:none" points="436.473,2393.03 436.473,2383.58 "/>
<polyline clip-path="url(#clip560)" style="stroke:#222255; stroke-linecap:round; stroke-linejoin:round; stroke-width:4; stroke-opacity:0; fill:none" points="506.864,2393.03 506.864,2383.58 "/>
<polyline clip-path="url(#clip560)" style="stroke:#222255; stroke-linecap:round; stroke-linejoin:round; stroke-width:4; stroke-opacity:0; fill:none" points="984.076,2393.03 984.076,2383.58 "/>
<polyline clip-path="url(#clip560)" style="stroke:#222255; stroke-linecap:round; stroke-linejoin:round; stroke-width:4; stroke-opacity:0; fill:none" points="1226.39,2393.03 1226.39,2383.58 "/>
<polyline clip-path="url(#clip560)" style="stroke:#222255; stroke-linecap:round; stroke-linejoin:round; stroke-width:4; stroke-opacity:0; fill:none" points="1398.32,2393.03 1398.32,2383.58 "/>
<polyline clip-path="url(#clip560)" style="stroke:#222255; stroke-linecap:round; stroke-linejoin:round; stroke-width:4; stroke-opacity:0; fill:none" points="1531.68,2393.03 1531.68,2383.58 "/>
<polyline clip-path="url(#clip560)" style="stroke:#222255; stroke-linecap:round; stroke-linejoin:round; stroke-width:4; stroke-opacity:0; fill:none" points="1640.64,2393.03 1640.64,2383.58 "/>
<polyline clip-path="url(#clip560)" style="stroke:#222255; stroke-linecap:round; stroke-linejoin:round; stroke-width:4; stroke-opacity:0; fill:none" points="1732.77,2393.03 1732.77,2383.58 "/>
<polyline clip-path="url(#clip560)" style="stroke:#222255; stroke-linecap:round; stroke-linejoin:round; stroke-width:4; stroke-opacity:0; fill:none" points="1812.57,2393.03 1812.57,2383.58 "/>
<polyline clip-path="url(#clip560)" style="stroke:#222255; stroke-linecap:round; stroke-linejoin:round; stroke-width:4; stroke-opacity:0; fill:none" points="1882.96,2393.03 1882.96,2383.58 "/>
<polyline clip-path="url(#clip560)" style="stroke:#222255; stroke-linecap:round; stroke-linejoin:round; stroke-width:4; stroke-opacity:0; fill:none" points="2360.17,2393.03 2360.17,2383.58 "/>
<polyline clip-path="url(#clip560)" style="stroke:#222255; stroke-linecap:round; stroke-linejoin:round; stroke-width:4; stroke-opacity:0; fill:none" points="2602.49,2393.03 2602.49,2383.58 "/>
<polyline clip-path="url(#clip560)" style="stroke:#222255; stroke-linecap:round; stroke-linejoin:round; stroke-width:4; stroke-opacity:0; fill:none" points="2774.42,2393.03 2774.42,2383.58 "/>
<polyline clip-path="url(#clip560)" style="stroke:#222255; stroke-linecap:round; stroke-linejoin:round; stroke-width:4; stroke-opacity:0; fill:none" points="2907.78,2393.03 2907.78,2383.58 "/>
<polyline clip-path="url(#clip560)" style="stroke:#222255; stroke-linecap:round; stroke-linejoin:round; stroke-width:4; stroke-opacity:0; fill:none" points="3016.74,2393.03 3016.74,2383.58 "/>
<polyline clip-path="url(#clip560)" style="stroke:#222255; stroke-linecap:round; stroke-linejoin:round; stroke-width:4; stroke-opacity:0; fill:none" points="3108.86,2393.03 3108.86,2383.58 "/>
<polyline clip-path="url(#clip560)" style="stroke:#222255; stroke-linecap:round; stroke-linejoin:round; stroke-width:4; stroke-opacity:0; fill:none" points="3188.66,2393.03 3188.66,2383.58 "/>
<polyline clip-path="url(#clip560)" style="stroke:#222255; stroke-linecap:round; stroke-linejoin:round; stroke-width:4; stroke-opacity:0; fill:none" points="3259.05,2393.03 3259.05,2383.58 "/>
<path clip-path="url(#clip560)" d="M536.158 2476.76 L543.797 2476.76 L543.797 2450.39 L535.487 2452.06 L535.487 2447.8 L543.751 2446.13 L548.427 2446.13 L548.427 2476.76 L556.065 2476.76 L556.065 2480.69 L536.158 2480.69 L536.158 2476.76 Z" fill="#000000" fill-rule="nonzero" fill-opacity="1" /><path clip-path="url(#clip560)" d="M575.51 2449.21 Q571.899 2449.21 570.07 2452.78 Q568.264 2456.32 568.264 2463.45 Q568.264 2470.55 570.07 2474.12 Q571.899 2477.66 575.51 2477.66 Q579.144 2477.66 580.949 2474.12 Q582.778 2470.55 582.778 2463.45 Q582.778 2456.32 580.949 2452.78 Q579.144 2449.21 575.51 2449.21 M575.51 2445.51 Q581.32 2445.51 584.375 2450.11 Q587.454 2454.7 587.454 2463.45 Q587.454 2472.17 584.375 2476.78 Q581.32 2481.36 575.51 2481.36 Q569.7 2481.36 566.621 2476.78 Q563.565 2472.17 563.565 2463.45 Q563.565 2454.7 566.621 2450.11 Q569.7 2445.51 575.51 2445.51 Z" fill="#000000" fill-rule="nonzero" fill-opacity="1" /><path clip-path="url(#clip560)" d="M588 2450.09 L594.206 2450.09 L594.206 2428.66 L587.454 2430.02 L587.454 2426.56 L594.168 2425.2 L597.968 2425.2 L597.968 2450.09 L604.174 2450.09 L604.174 2453.28 L588 2453.28 L588 2450.09 Z" fill="#000000" fill-rule="nonzero" fill-opacity="1" /><path clip-path="url(#clip560)" d="M1911.7 2476.76 L1919.34 2476.76 L1919.34 2450.39 L1911.03 2452.06 L1911.03 2447.8 L1919.29 2446.13 L1923.97 2446.13 L1923.97 2476.76 L1931.61 2476.76 L1931.61 2480.69 L1911.7 2480.69 L1911.7 2476.76 Z" fill="#000000" fill-rule="nonzero" fill-opacity="1" /><path clip-path="url(#clip560)" d="M1951.05 2449.21 Q1947.44 2449.21 1945.61 2452.78 Q1943.8 2456.32 1943.8 2463.45 Q1943.8 2470.55 1945.61 2474.12 Q1947.44 2477.66 1951.05 2477.66 Q1954.68 2477.66 1956.49 2474.12 Q1958.32 2470.55 1958.32 2463.45 Q1958.32 2456.32 1956.49 2452.78 Q1954.68 2449.21 1951.05 2449.21 M1951.05 2445.51 Q1956.86 2445.51 1959.92 2450.11 Q1962.99 2454.7 1962.99 2463.45 Q1962.99 2472.17 1959.92 2476.78 Q1956.86 2481.36 1951.05 2481.36 Q1945.24 2481.36 1942.16 2476.78 Q1939.11 2472.17 1939.11 2463.45 Q1939.11 2454.7 1942.16 2450.11 Q1945.24 2445.51 1951.05 2445.51 Z" fill="#000000" fill-rule="nonzero" fill-opacity="1" /><path clip-path="url(#clip560)" d="M1967.56 2450.09 L1980.82 2450.09 L1980.82 2453.28 L1962.99 2453.28 L1962.99 2450.09 Q1965.16 2447.85 1968.88 2444.09 Q1972.62 2440.31 1973.58 2439.21 Q1975.41 2437.16 1976.12 2435.75 Q1976.86 2434.32 1976.86 2432.95 Q1976.86 2430.71 1975.28 2429.3 Q1973.71 2427.89 1971.19 2427.89 Q1969.41 2427.89 1967.41 2428.51 Q1965.44 2429.13 1963.18 2430.39 L1963.18 2426.56 Q1965.48 2425.64 1967.47 2425.17 Q1969.46 2424.69 1971.12 2424.69 Q1975.48 2424.69 1978.08 2426.88 Q1980.67 2429.06 1980.67 2432.71 Q1980.67 2434.44 1980.02 2436 Q1979.38 2437.54 1977.66 2439.65 Q1977.19 2440.19 1974.67 2442.81 Q1972.15 2445.4 1967.56 2450.09 Z" fill="#000000" fill-rule="nonzero" fill-opacity="1" /><path clip-path="url(#clip560)" d="M3287.46 2476.76 L3295.1 2476.76 L3295.1 2450.39 L3286.79 2452.06 L3286.79 2447.8 L3295.06 2446.13 L3299.73 2446.13 L3299.73 2476.76 L3307.37 2476.76 L3307.37 2480.69 L3287.46 2480.69 L3287.46 2476.76 Z" fill="#000000" fill-rule="nonzero" fill-opacity="1" /><path clip-path="url(#clip560)" d="M3326.82 2449.21 Q3323.21 2449.21 3321.38 2452.78 Q3319.57 2456.32 3319.57 2463.45 Q3319.57 2470.55 3321.38 2474.12 Q3323.21 2477.66 3326.82 2477.66 Q3330.45 2477.66 3332.26 2474.12 Q3334.08 2470.55 3334.08 2463.45 Q3334.08 2456.32 3332.26 2452.78 Q3330.45 2449.21 3326.82 2449.21 M3326.82 2445.51 Q3332.63 2445.51 3335.68 2450.11 Q3338.76 2454.7 3338.76 2463.45 Q3338.76 2472.17 3335.68 2476.78 Q3332.63 2481.36 3326.82 2481.36 Q3321.01 2481.36 3317.93 2476.78 Q3314.87 2472.17 3314.87 2463.45 Q3314.87 2454.7 3317.93 2450.11 Q3321.01 2445.51 3326.82 2445.51 Z" fill="#000000" fill-rule="nonzero" fill-opacity="1" /><path clip-path="url(#clip560)" d="M3351.46 2438.14 Q3354.18 2438.73 3355.71 2440.57 Q3357.25 2442.41 3357.25 2445.12 Q3357.25 2449.28 3354.39 2451.55 Q3351.53 2453.83 3346.27 2453.83 Q3344.5 2453.83 3342.62 2453.47 Q3340.75 2453.13 3338.76 2452.44 L3338.76 2448.77 Q3340.34 2449.69 3342.22 2450.16 Q3344.1 2450.63 3346.15 2450.63 Q3349.73 2450.63 3351.59 2449.22 Q3353.47 2447.81 3353.47 2445.12 Q3353.47 2442.64 3351.72 2441.25 Q3349.99 2439.84 3346.89 2439.84 L3343.61 2439.84 L3343.61 2436.71 L3347.04 2436.71 Q3349.84 2436.71 3351.32 2435.6 Q3352.81 2434.47 3352.81 2432.37 Q3352.81 2430.21 3351.27 2429.06 Q3349.74 2427.89 3346.89 2427.89 Q3345.32 2427.89 3343.54 2428.23 Q3341.75 2428.57 3339.61 2429.28 L3339.61 2425.9 Q3341.77 2425.3 3343.65 2425 Q3345.55 2424.69 3347.22 2424.69 Q3351.55 2424.69 3354.07 2426.67 Q3356.59 2428.63 3356.59 2431.97 Q3356.59 2434.31 3355.26 2435.92 Q3353.92 2437.52 3351.46 2438.14 Z" fill="#000000" fill-rule="nonzero" fill-opacity="1" /><path clip-path="url(#clip560)" d="M1890.19 2526.8 L1898.84 2526.8 L1919.91 2566.56 L1919.91 2526.8 L1926.15 2526.8 L1926.15 2574.32 L1917.49 2574.32 L1896.42 2534.57 L1896.42 2574.32 L1890.19 2574.32 L1890.19 2526.8 Z" fill="#000000" fill-rule="nonzero" fill-opacity="1" /><polyline clip-path="url(#clip562)" style="stroke:#222255; stroke-linecap:round; stroke-linejoin:round; stroke-width:2; stroke-opacity:0.5; fill:none" points="263.581,1992.34 3552.76,1992.34 "/>
<polyline clip-path="url(#clip562)" style="stroke:#222255; stroke-linecap:round; stroke-linejoin:round; stroke-width:2; stroke-opacity:0.5; fill:none" points="263.581,1578.72 3552.76,1578.72 "/>
<polyline clip-path="url(#clip562)" style="stroke:#222255; stroke-linecap:round; stroke-linejoin:round; stroke-width:2; stroke-opacity:0.5; fill:none" points="263.581,1165.09 3552.76,1165.09 "/>
<polyline clip-path="url(#clip562)" style="stroke:#222255; stroke-linecap:round; stroke-linejoin:round; stroke-width:2; stroke-opacity:0.5; fill:none" points="263.581,751.469 3552.76,751.469 "/>
<polyline clip-path="url(#clip562)" style="stroke:#222255; stroke-linecap:round; stroke-linejoin:round; stroke-width:2; stroke-opacity:0.5; fill:none" points="263.581,337.844 3552.76,337.844 "/>
<polyline clip-path="url(#clip562)" style="stroke:#222255; stroke-linecap:round; stroke-linejoin:round; stroke-width:2; stroke-opacity:0.3; fill:none" points="263.581,2323.24 3552.76,2323.24 "/>
<polyline clip-path="url(#clip562)" style="stroke:#222255; stroke-linecap:round; stroke-linejoin:round; stroke-width:2; stroke-opacity:0.3; fill:none" points="263.581,2240.52 3552.76,2240.52 "/>
<polyline clip-path="url(#clip562)" style="stroke:#222255; stroke-linecap:round; stroke-linejoin:round; stroke-width:2; stroke-opacity:0.3; fill:none" points="263.581,2157.79 3552.76,2157.79 "/>
<polyline clip-path="url(#clip562)" style="stroke:#222255; stroke-linecap:round; stroke-linejoin:round; stroke-width:2; stroke-opacity:0.3; fill:none" points="263.581,2075.07 3552.76,2075.07 "/>
<polyline clip-path="url(#clip562)" style="stroke:#222255; stroke-linecap:round; stroke-linejoin:round; stroke-width:2; stroke-opacity:0.3; fill:none" points="263.581,1909.62 3552.76,1909.62 "/>
<polyline clip-path="url(#clip562)" style="stroke:#222255; stroke-linecap:round; stroke-linejoin:round; stroke-width:2; stroke-opacity:0.3; fill:none" points="263.581,1826.89 3552.76,1826.89 "/>
<polyline clip-path="url(#clip562)" style="stroke:#222255; stroke-linecap:round; stroke-linejoin:round; stroke-width:2; stroke-opacity:0.3; fill:none" points="263.581,1744.17 3552.76,1744.17 "/>
<polyline clip-path="url(#clip562)" style="stroke:#222255; stroke-linecap:round; stroke-linejoin:round; stroke-width:2; stroke-opacity:0.3; fill:none" points="263.581,1661.44 3552.76,1661.44 "/>
<polyline clip-path="url(#clip562)" style="stroke:#222255; stroke-linecap:round; stroke-linejoin:round; stroke-width:2; stroke-opacity:0.3; fill:none" points="263.581,1495.99 3552.76,1495.99 "/>
<polyline clip-path="url(#clip562)" style="stroke:#222255; stroke-linecap:round; stroke-linejoin:round; stroke-width:2; stroke-opacity:0.3; fill:none" points="263.581,1413.27 3552.76,1413.27 "/>
<polyline clip-path="url(#clip562)" style="stroke:#222255; stroke-linecap:round; stroke-linejoin:round; stroke-width:2; stroke-opacity:0.3; fill:none" points="263.581,1330.54 3552.76,1330.54 "/>
<polyline clip-path="url(#clip562)" style="stroke:#222255; stroke-linecap:round; stroke-linejoin:round; stroke-width:2; stroke-opacity:0.3; fill:none" points="263.581,1247.82 3552.76,1247.82 "/>
<polyline clip-path="url(#clip562)" style="stroke:#222255; stroke-linecap:round; stroke-linejoin:round; stroke-width:2; stroke-opacity:0.3; fill:none" points="263.581,1082.37 3552.76,1082.37 "/>
<polyline clip-path="url(#clip562)" style="stroke:#222255; stroke-linecap:round; stroke-linejoin:round; stroke-width:2; stroke-opacity:0.3; fill:none" points="263.581,999.644 3552.76,999.644 "/>
<polyline clip-path="url(#clip562)" style="stroke:#222255; stroke-linecap:round; stroke-linejoin:round; stroke-width:2; stroke-opacity:0.3; fill:none" points="263.581,916.919 3552.76,916.919 "/>
<polyline clip-path="url(#clip562)" style="stroke:#222255; stroke-linecap:round; stroke-linejoin:round; stroke-width:2; stroke-opacity:0.3; fill:none" points="263.581,834.194 3552.76,834.194 "/>
<polyline clip-path="url(#clip562)" style="stroke:#222255; stroke-linecap:round; stroke-linejoin:round; stroke-width:2; stroke-opacity:0.3; fill:none" points="263.581,668.744 3552.76,668.744 "/>
<polyline clip-path="url(#clip562)" style="stroke:#222255; stroke-linecap:round; stroke-linejoin:round; stroke-width:2; stroke-opacity:0.3; fill:none" points="263.581,586.019 3552.76,586.019 "/>
<polyline clip-path="url(#clip562)" style="stroke:#222255; stroke-linecap:round; stroke-linejoin:round; stroke-width:2; stroke-opacity:0.3; fill:none" points="263.581,503.294 3552.76,503.294 "/>
<polyline clip-path="url(#clip562)" style="stroke:#222255; stroke-linecap:round; stroke-linejoin:round; stroke-width:2; stroke-opacity:0.3; fill:none" points="263.581,420.569 3552.76,420.569 "/>
<polyline clip-path="url(#clip562)" style="stroke:#222255; stroke-linecap:round; stroke-linejoin:round; stroke-width:2; stroke-opacity:0.3; fill:none" points="263.581,255.12 3552.76,255.12 "/>
<polyline clip-path="url(#clip562)" style="stroke:#222255; stroke-linecap:round; stroke-linejoin:round; stroke-width:2; stroke-opacity:0.3; fill:none" points="263.581,172.395 3552.76,172.395 "/>
<polyline clip-path="url(#clip560)" style="stroke:#222255; stroke-linecap:round; stroke-linejoin:round; stroke-width:4; stroke-opacity:0; fill:none" points="263.581,1992.34 282.478,1992.34 "/>
<polyline clip-path="url(#clip560)" style="stroke:#222255; stroke-linecap:round; stroke-linejoin:round; stroke-width:4; stroke-opacity:0; fill:none" points="263.581,1578.72 282.478,1578.72 "/>
<polyline clip-path="url(#clip560)" style="stroke:#222255; stroke-linecap:round; stroke-linejoin:round; stroke-width:4; stroke-opacity:0; fill:none" points="263.581,1165.09 282.478,1165.09 "/>
<polyline clip-path="url(#clip560)" style="stroke:#222255; stroke-linecap:round; stroke-linejoin:round; stroke-width:4; stroke-opacity:0; fill:none" points="263.581,751.469 282.478,751.469 "/>
<polyline clip-path="url(#clip560)" style="stroke:#222255; stroke-linecap:round; stroke-linejoin:round; stroke-width:4; stroke-opacity:0; fill:none" points="263.581,337.844 282.478,337.844 "/>
<polyline clip-path="url(#clip560)" style="stroke:#222255; stroke-linecap:round; stroke-linejoin:round; stroke-width:4; stroke-opacity:0; fill:none" points="263.581,2323.24 273.03,2323.24 "/>
<polyline clip-path="url(#clip560)" style="stroke:#222255; stroke-linecap:round; stroke-linejoin:round; stroke-width:4; stroke-opacity:0; fill:none" points="263.581,2240.52 273.03,2240.52 "/>
<polyline clip-path="url(#clip560)" style="stroke:#222255; stroke-linecap:round; stroke-linejoin:round; stroke-width:4; stroke-opacity:0; fill:none" points="263.581,2157.79 273.03,2157.79 "/>
<polyline clip-path="url(#clip560)" style="stroke:#222255; stroke-linecap:round; stroke-linejoin:round; stroke-width:4; stroke-opacity:0; fill:none" points="263.581,2075.07 273.03,2075.07 "/>
<polyline clip-path="url(#clip560)" style="stroke:#222255; stroke-linecap:round; stroke-linejoin:round; stroke-width:4; stroke-opacity:0; fill:none" points="263.581,1909.62 273.03,1909.62 "/>
<polyline clip-path="url(#clip560)" style="stroke:#222255; stroke-linecap:round; stroke-linejoin:round; stroke-width:4; stroke-opacity:0; fill:none" points="263.581,1826.89 273.03,1826.89 "/>
<polyline clip-path="url(#clip560)" style="stroke:#222255; stroke-linecap:round; stroke-linejoin:round; stroke-width:4; stroke-opacity:0; fill:none" points="263.581,1744.17 273.03,1744.17 "/>
<polyline clip-path="url(#clip560)" style="stroke:#222255; stroke-linecap:round; stroke-linejoin:round; stroke-width:4; stroke-opacity:0; fill:none" points="263.581,1661.44 273.03,1661.44 "/>
<polyline clip-path="url(#clip560)" style="stroke:#222255; stroke-linecap:round; stroke-linejoin:round; stroke-width:4; stroke-opacity:0; fill:none" points="263.581,1495.99 273.03,1495.99 "/>
<polyline clip-path="url(#clip560)" style="stroke:#222255; stroke-linecap:round; stroke-linejoin:round; stroke-width:4; stroke-opacity:0; fill:none" points="263.581,1413.27 273.03,1413.27 "/>
<polyline clip-path="url(#clip560)" style="stroke:#222255; stroke-linecap:round; stroke-linejoin:round; stroke-width:4; stroke-opacity:0; fill:none" points="263.581,1330.54 273.03,1330.54 "/>
<polyline clip-path="url(#clip560)" style="stroke:#222255; stroke-linecap:round; stroke-linejoin:round; stroke-width:4; stroke-opacity:0; fill:none" points="263.581,1247.82 273.03,1247.82 "/>
<polyline clip-path="url(#clip560)" style="stroke:#222255; stroke-linecap:round; stroke-linejoin:round; stroke-width:4; stroke-opacity:0; fill:none" points="263.581,1082.37 273.03,1082.37 "/>
<polyline clip-path="url(#clip560)" style="stroke:#222255; stroke-linecap:round; stroke-linejoin:round; stroke-width:4; stroke-opacity:0; fill:none" points="263.581,999.644 273.03,999.644 "/>
<polyline clip-path="url(#clip560)" style="stroke:#222255; stroke-linecap:round; stroke-linejoin:round; stroke-width:4; stroke-opacity:0; fill:none" points="263.581,916.919 273.03,916.919 "/>
<polyline clip-path="url(#clip560)" style="stroke:#222255; stroke-linecap:round; stroke-linejoin:round; stroke-width:4; stroke-opacity:0; fill:none" points="263.581,834.194 273.03,834.194 "/>
<polyline clip-path="url(#clip560)" style="stroke:#222255; stroke-linecap:round; stroke-linejoin:round; stroke-width:4; stroke-opacity:0; fill:none" points="263.581,668.744 273.03,668.744 "/>
<polyline clip-path="url(#clip560)" style="stroke:#222255; stroke-linecap:round; stroke-linejoin:round; stroke-width:4; stroke-opacity:0; fill:none" points="263.581,586.019 273.03,586.019 "/>
<polyline clip-path="url(#clip560)" style="stroke:#222255; stroke-linecap:round; stroke-linejoin:round; stroke-width:4; stroke-opacity:0; fill:none" points="263.581,503.294 273.03,503.294 "/>
<polyline clip-path="url(#clip560)" style="stroke:#222255; stroke-linecap:round; stroke-linejoin:round; stroke-width:4; stroke-opacity:0; fill:none" points="263.581,420.569 273.03,420.569 "/>
<polyline clip-path="url(#clip560)" style="stroke:#222255; stroke-linecap:round; stroke-linejoin:round; stroke-width:4; stroke-opacity:0; fill:none" points="263.581,255.12 273.03,255.12 "/>
<polyline clip-path="url(#clip560)" style="stroke:#222255; stroke-linecap:round; stroke-linejoin:round; stroke-width:4; stroke-opacity:0; fill:none" points="263.581,172.395 273.03,172.395 "/>
<path clip-path="url(#clip560)" d="M112.891 2005.69 L120.53 2005.69 L120.53 1979.32 L112.22 1980.99 L112.22 1976.73 L120.484 1975.06 L125.16 1975.06 L125.16 2005.69 L132.799 2005.69 L132.799 2009.62 L112.891 2009.62 L112.891 2005.69 Z" fill="#000000" fill-rule="nonzero" fill-opacity="1" /><path clip-path="url(#clip560)" d="M142.243 2003.74 L147.127 2003.74 L147.127 2009.62 L142.243 2009.62 L142.243 2003.74 Z" fill="#000000" fill-rule="nonzero" fill-opacity="1" /><path clip-path="url(#clip560)" d="M167.312 1993.21 Q163.979 1993.21 162.058 1994.99 Q160.16 1996.78 160.16 1999.9 Q160.16 2003.03 162.058 2004.81 Q163.979 2006.59 167.312 2006.59 Q170.646 2006.59 172.567 2004.81 Q174.488 2003 174.488 1999.9 Q174.488 1996.78 172.567 1994.99 Q170.669 1993.21 167.312 1993.21 M162.637 1991.22 Q159.627 1990.48 157.938 1988.42 Q156.271 1986.36 156.271 1983.4 Q156.271 1979.25 159.211 1976.84 Q162.174 1974.44 167.312 1974.44 Q172.474 1974.44 175.414 1976.84 Q178.354 1979.25 178.354 1983.4 Q178.354 1986.36 176.664 1988.42 Q174.998 1990.48 172.012 1991.22 Q175.391 1992.01 177.266 1994.3 Q179.164 1996.59 179.164 1999.9 Q179.164 2004.92 176.086 2007.61 Q173.03 2010.29 167.312 2010.29 Q161.595 2010.29 158.516 2007.61 Q155.461 2004.92 155.461 1999.9 Q155.461 1996.59 157.359 1994.3 Q159.257 1992.01 162.637 1991.22 M160.924 1983.84 Q160.924 1986.52 162.59 1988.03 Q164.28 1989.53 167.312 1989.53 Q170.322 1989.53 172.012 1988.03 Q173.724 1986.52 173.724 1983.84 Q173.724 1981.15 172.012 1979.65 Q170.322 1978.14 167.312 1978.14 Q164.28 1978.14 162.59 1979.65 Q160.924 1981.15 160.924 1983.84 Z" fill="#000000" fill-rule="nonzero" fill-opacity="1" /><path clip-path="url(#clip560)" d="M198.053 1990.48 Q194.905 1990.48 193.053 1992.63 Q191.224 1994.78 191.224 1998.53 Q191.224 2002.26 193.053 2004.44 Q194.905 2006.59 198.053 2006.59 Q201.201 2006.59 203.03 2004.44 Q204.882 2002.26 204.882 1998.53 Q204.882 1994.78 203.03 1992.63 Q201.201 1990.48 198.053 1990.48 M207.335 1975.83 L207.335 1980.09 Q205.576 1979.25 203.771 1978.81 Q201.988 1978.37 200.229 1978.37 Q195.599 1978.37 193.146 1981.5 Q190.715 1984.62 190.368 1990.94 Q191.734 1988.93 193.794 1987.86 Q195.854 1986.78 198.331 1986.78 Q203.539 1986.78 206.548 1989.95 Q209.581 1993.09 209.581 1998.53 Q209.581 2003.86 206.433 2007.08 Q203.284 2010.29 198.053 2010.29 Q192.058 2010.29 188.886 2005.71 Q185.715 2001.1 185.715 1992.38 Q185.715 1984.18 189.604 1979.32 Q193.493 1974.44 200.044 1974.44 Q201.803 1974.44 203.585 1974.78 Q205.391 1975.13 207.335 1975.83 Z" fill="#000000" fill-rule="nonzero" fill-opacity="1" /><path clip-path="url(#clip560)" d="M113.239 1592.06 L120.878 1592.06 L120.878 1565.7 L112.567 1567.36 L112.567 1563.1 L120.831 1561.44 L125.507 1561.44 L125.507 1592.06 L133.146 1592.06 L133.146 1596 L113.239 1596 L113.239 1592.06 Z" fill="#000000" fill-rule="nonzero" fill-opacity="1" /><path clip-path="url(#clip560)" d="M142.59 1590.12 L147.475 1590.12 L147.475 1596 L142.59 1596 L142.59 1590.12 Z" fill="#000000" fill-rule="nonzero" fill-opacity="1" /><path clip-path="url(#clip560)" d="M167.66 1579.59 Q164.326 1579.59 162.405 1581.37 Q160.507 1583.15 160.507 1586.28 Q160.507 1589.4 162.405 1591.18 Q164.326 1592.97 167.66 1592.97 Q170.993 1592.97 172.914 1591.18 Q174.836 1589.38 174.836 1586.28 Q174.836 1583.15 172.914 1581.37 Q171.016 1579.59 167.66 1579.59 M162.984 1577.6 Q159.975 1576.85 158.285 1574.79 Q156.618 1572.73 156.618 1569.77 Q156.618 1565.63 159.558 1563.22 Q162.521 1560.81 167.66 1560.81 Q172.822 1560.81 175.761 1563.22 Q178.701 1565.63 178.701 1569.77 Q178.701 1572.73 177.011 1574.79 Q175.345 1576.85 172.359 1577.6 Q175.738 1578.38 177.613 1580.67 Q179.511 1582.97 179.511 1586.28 Q179.511 1591.3 176.433 1593.98 Q173.377 1596.67 167.66 1596.67 Q161.942 1596.67 158.863 1593.98 Q155.808 1591.3 155.808 1586.28 Q155.808 1582.97 157.706 1580.67 Q159.604 1578.38 162.984 1577.6 M161.271 1570.21 Q161.271 1572.9 162.937 1574.4 Q164.627 1575.91 167.66 1575.91 Q170.669 1575.91 172.359 1574.4 Q174.072 1572.9 174.072 1570.21 Q174.072 1567.53 172.359 1566.02 Q170.669 1564.52 167.66 1564.52 Q164.627 1564.52 162.937 1566.02 Q161.271 1567.53 161.271 1570.21 Z" fill="#000000" fill-rule="nonzero" fill-opacity="1" /><path clip-path="url(#clip560)" d="M187.96 1595.28 L187.96 1591.02 Q189.72 1591.85 191.525 1592.29 Q193.331 1592.73 195.067 1592.73 Q199.697 1592.73 202.127 1589.63 Q204.581 1586.51 204.928 1580.16 Q203.585 1582.16 201.525 1583.22 Q199.465 1584.29 196.965 1584.29 Q191.78 1584.29 188.748 1581.16 Q185.738 1578.01 185.738 1572.57 Q185.738 1567.25 188.886 1564.03 Q192.035 1560.81 197.266 1560.81 Q203.261 1560.81 206.409 1565.42 Q209.581 1570 209.581 1578.75 Q209.581 1586.92 205.692 1591.81 Q201.826 1596.67 195.275 1596.67 Q193.516 1596.67 191.71 1596.32 Q189.905 1595.97 187.96 1595.28 M197.266 1580.63 Q200.414 1580.63 202.243 1578.47 Q204.095 1576.32 204.095 1572.57 Q204.095 1568.85 202.243 1566.69 Q200.414 1564.52 197.266 1564.52 Q194.118 1564.52 192.266 1566.69 Q190.437 1568.85 190.437 1572.57 Q190.437 1576.32 192.266 1578.47 Q194.118 1580.63 197.266 1580.63 Z" fill="#000000" fill-rule="nonzero" fill-opacity="1" /><path clip-path="url(#clip560)" d="M114.651 1178.44 L122.29 1178.44 L122.29 1152.07 L113.979 1153.74 L113.979 1149.48 L122.243 1147.81 L126.919 1147.81 L126.919 1178.44 L134.558 1178.44 L134.558 1182.37 L114.651 1182.37 L114.651 1178.44 Z" fill="#000000" fill-rule="nonzero" fill-opacity="1" /><path clip-path="url(#clip560)" d="M144.002 1176.49 L148.887 1176.49 L148.887 1182.37 L144.002 1182.37 L144.002 1176.49 Z" fill="#000000" fill-rule="nonzero" fill-opacity="1" /><path clip-path="url(#clip560)" d="M159.211 1181.66 L159.211 1177.4 Q160.97 1178.23 162.775 1178.67 Q164.581 1179.11 166.317 1179.11 Q170.947 1179.11 173.377 1176.01 Q175.831 1172.88 176.178 1166.54 Q174.836 1168.53 172.775 1169.6 Q170.715 1170.66 168.215 1170.66 Q163.03 1170.66 159.998 1167.54 Q156.988 1164.39 156.988 1158.95 Q156.988 1153.62 160.137 1150.41 Q163.285 1147.19 168.516 1147.19 Q174.511 1147.19 177.66 1151.79 Q180.831 1156.38 180.831 1165.13 Q180.831 1173.3 176.942 1178.18 Q173.076 1183.04 166.525 1183.04 Q164.766 1183.04 162.961 1182.7 Q161.155 1182.35 159.211 1181.66 M168.516 1167 Q171.664 1167 173.493 1164.85 Q175.345 1162.7 175.345 1158.95 Q175.345 1155.22 173.493 1153.07 Q171.664 1150.89 168.516 1150.89 Q165.368 1150.89 163.516 1153.07 Q161.687 1155.22 161.687 1158.95 Q161.687 1162.7 163.516 1164.85 Q165.368 1167 168.516 1167 Z" fill="#000000" fill-rule="nonzero" fill-opacity="1" /><path clip-path="url(#clip560)" d="M193.261 1178.44 L209.581 1178.44 L209.581 1182.37 L187.636 1182.37 L187.636 1178.44 Q190.298 1175.68 194.882 1171.05 Q199.488 1166.4 200.669 1165.06 Q202.914 1162.54 203.794 1160.8 Q204.697 1159.04 204.697 1157.35 Q204.697 1154.6 202.752 1152.86 Q200.831 1151.12 197.729 1151.12 Q195.53 1151.12 193.076 1151.89 Q190.646 1152.65 187.868 1154.2 L187.868 1149.48 Q190.692 1148.35 193.146 1147.77 Q195.599 1147.19 197.636 1147.19 Q203.007 1147.19 206.201 1149.87 Q209.396 1152.56 209.396 1157.05 Q209.396 1159.18 208.585 1161.1 Q207.798 1163 205.692 1165.59 Q205.113 1166.26 202.011 1169.48 Q198.91 1172.67 193.261 1178.44 Z" fill="#000000" fill-rule="nonzero" fill-opacity="1" /><path clip-path="url(#clip560)" d="M114.049 764.814 L121.688 764.814 L121.688 738.448 L113.378 740.115 L113.378 735.856 L121.641 734.189 L126.317 734.189 L126.317 764.814 L133.956 764.814 L133.956 768.749 L114.049 768.749 L114.049 764.814 Z" fill="#000000" fill-rule="nonzero" fill-opacity="1" /><path clip-path="url(#clip560)" d="M143.401 762.869 L148.285 762.869 L148.285 768.749 L143.401 768.749 L143.401 762.869 Z" fill="#000000" fill-rule="nonzero" fill-opacity="1" /><path clip-path="url(#clip560)" d="M158.609 768.031 L158.609 763.772 Q160.368 764.605 162.174 765.045 Q163.979 765.485 165.715 765.485 Q170.345 765.485 172.775 762.383 Q175.229 759.258 175.576 752.916 Q174.234 754.906 172.174 755.971 Q170.113 757.036 167.613 757.036 Q162.428 757.036 159.396 753.911 Q156.387 750.763 156.387 745.323 Q156.387 739.999 159.535 736.782 Q162.683 733.564 167.914 733.564 Q173.91 733.564 177.058 738.17 Q180.229 742.754 180.229 751.504 Q180.229 759.675 176.34 764.559 Q172.474 769.42 165.924 769.42 Q164.164 769.42 162.359 769.073 Q160.553 768.726 158.609 768.031 M167.914 753.379 Q171.062 753.379 172.891 751.226 Q174.743 749.073 174.743 745.323 Q174.743 741.596 172.891 739.444 Q171.062 737.268 167.914 737.268 Q164.766 737.268 162.914 739.444 Q161.086 741.596 161.086 745.323 Q161.086 749.073 162.914 751.226 Q164.766 753.379 167.914 753.379 Z" fill="#000000" fill-rule="nonzero" fill-opacity="1" /><path clip-path="url(#clip560)" d="M188.678 734.189 L207.034 734.189 L207.034 738.124 L192.96 738.124 L192.96 746.596 Q193.979 746.249 194.997 746.087 Q196.016 745.902 197.035 745.902 Q202.822 745.902 206.201 749.073 Q209.581 752.244 209.581 757.661 Q209.581 763.24 206.109 766.342 Q202.636 769.42 196.317 769.42 Q194.141 769.42 191.873 769.05 Q189.627 768.68 187.22 767.939 L187.22 763.24 Q189.303 764.374 191.525 764.93 Q193.747 765.485 196.224 765.485 Q200.229 765.485 202.567 763.379 Q204.905 761.272 204.905 757.661 Q204.905 754.05 202.567 751.944 Q200.229 749.837 196.224 749.837 Q194.349 749.837 192.474 750.254 Q190.623 750.67 188.678 751.55 L188.678 734.189 Z" fill="#000000" fill-rule="nonzero" fill-opacity="1" /><path clip-path="url(#clip560)" d="M113.146 351.189 L120.785 351.189 L120.785 324.824 L112.475 326.49 L112.475 322.231 L120.739 320.564 L125.415 320.564 L125.415 351.189 L133.053 351.189 L133.053 355.124 L113.146 355.124 L113.146 351.189 Z" fill="#000000" fill-rule="nonzero" fill-opacity="1" /><path clip-path="url(#clip560)" d="M142.498 349.245 L147.382 349.245 L147.382 355.124 L142.498 355.124 L142.498 349.245 Z" fill="#000000" fill-rule="nonzero" fill-opacity="1" /><path clip-path="url(#clip560)" d="M157.706 354.407 L157.706 350.148 Q159.465 350.981 161.271 351.421 Q163.076 351.861 164.812 351.861 Q169.442 351.861 171.873 348.759 Q174.326 345.634 174.674 339.291 Q173.331 341.282 171.271 342.347 Q169.211 343.412 166.711 343.412 Q161.525 343.412 158.493 340.287 Q155.484 337.138 155.484 331.699 Q155.484 326.375 158.632 323.157 Q161.78 319.939 167.012 319.939 Q173.007 319.939 176.155 324.546 Q179.326 329.129 179.326 337.879 Q179.326 346.05 175.437 350.935 Q171.572 355.796 165.021 355.796 Q163.262 355.796 161.456 355.449 Q159.65 355.101 157.706 354.407 M167.012 339.754 Q170.16 339.754 171.988 337.601 Q173.84 335.449 173.84 331.699 Q173.84 327.972 171.988 325.819 Q170.16 323.643 167.012 323.643 Q163.863 323.643 162.012 325.819 Q160.183 327.972 160.183 331.699 Q160.183 335.449 162.012 337.601 Q163.863 339.754 167.012 339.754 Z" fill="#000000" fill-rule="nonzero" fill-opacity="1" /><path clip-path="url(#clip560)" d="M197.729 338.713 Q194.396 338.713 192.474 340.495 Q190.576 342.277 190.576 345.402 Q190.576 348.527 192.474 350.31 Q194.396 352.092 197.729 352.092 Q201.062 352.092 202.984 350.31 Q204.905 348.504 204.905 345.402 Q204.905 342.277 202.984 340.495 Q201.085 338.713 197.729 338.713 M193.053 336.722 Q190.044 335.981 188.354 333.921 Q186.687 331.861 186.687 328.898 Q186.687 324.754 189.627 322.347 Q192.59 319.939 197.729 319.939 Q202.891 319.939 205.831 322.347 Q208.771 324.754 208.771 328.898 Q208.771 331.861 207.081 333.921 Q205.414 335.981 202.428 336.722 Q205.808 337.509 207.683 339.8 Q209.581 342.092 209.581 345.402 Q209.581 350.425 206.502 353.111 Q203.447 355.796 197.729 355.796 Q192.011 355.796 188.933 353.111 Q185.877 350.425 185.877 345.402 Q185.877 342.092 187.775 339.8 Q189.673 337.509 193.053 336.722 M191.34 329.338 Q191.34 332.023 193.007 333.527 Q194.697 335.032 197.729 335.032 Q200.738 335.032 202.428 333.527 Q204.141 332.023 204.141 329.338 Q204.141 326.652 202.428 325.148 Q200.738 323.643 197.729 323.643 Q194.697 323.643 193.007 325.148 Q191.34 326.652 191.34 329.338 Z" fill="#000000" fill-rule="nonzero" fill-opacity="1" /><path clip-path="url(#clip560)" d="M21.1282 1237.38 Q23.0606 1237.38 26.4422 1238.12 Q29.8238 1238.83 31.4341 1239.41 Q35.7175 1241.02 39.3245 1244.24 Q41.3213 1246.01 42.7706 1247.95 Q44.1876 1249.85 44.8962 1251.26 Q45.5725 1252.68 45.9267 1254.36 Q46.3132 1256.03 46.3454 1256.8 Q46.4098 1257.58 46.4098 1258.67 L56.2326 1261.18 Q58.7769 1261.7 58.9379 1261.96 Q59.0667 1262.02 59.1311 1262.18 Q59.1956 1262.31 59.1956 1262.44 L59.1956 1262.57 Q59.1956 1262.92 59.0345 1263.12 Q58.8735 1263.31 58.6803 1263.34 L58.5192 1263.34 Q58.0684 1263.34 52.2713 1261.83 Q49.3084 1261.05 46.2488 1260.38 Q45.9267 1265.53 43.6401 1268.72 Q41.3535 1271.88 36.9091 1271.88 Q34.1716 1271.88 25.7659 1268.69 Q21.7401 1267.17 20.0654 1267.17 Q19.3247 1267.17 18.8738 1267.33 Q18.3907 1267.5 18.2297 1267.82 Q18.0365 1268.14 18.0043 1268.33 Q17.9721 1268.49 17.9721 1268.82 Q17.9721 1270.72 19.8722 1272.49 Q21.7723 1274.26 26.1523 1275.48 Q26.9575 1275.74 27.1507 1275.9 Q27.344 1276.06 27.344 1276.55 Q27.3118 1277.35 26.6676 1277.35 Q26.41 1277.35 25.4116 1277.06 Q24.381 1276.77 22.8673 1276.09 Q21.3215 1275.39 19.9366 1274.42 Q18.5196 1273.45 17.5212 1271.94 Q16.5228 1270.39 16.5228 1268.62 Q16.5228 1266.21 18.1009 1264.73 Q19.6468 1263.21 21.9334 1263.21 Q22.3843 1263.21 22.8996 1263.31 Q23.4148 1263.41 23.7047 1263.5 Q23.9946 1263.57 24.542 1263.76 Q25.0573 1263.92 25.154 1263.95 Q29.4051 1265.6 32.1748 1266.43 Q34.9123 1267.27 35.7175 1267.4 Q36.4904 1267.5 37.4244 1267.5 Q43.93 1267.5 44.7995 1259.99 L1.22501 1249.04 Q0.323242 1248.85 0.130007 1248.69 Q-0.095434 1248.53 -0.095434 1248.04 Q-0.095434 1247.27 0.613095 1247.27 Q0.838536 1247.27 1.61148 1247.46 L44.9284 1258.35 Q44.9284 1257.32 44.8962 1256.67 Q44.8639 1256.03 44.5741 1254.68 Q44.252 1253.29 43.6723 1252.13 Q43.0926 1250.94 41.9332 1249.27 Q40.7416 1247.59 39.0669 1245.95 Q36.9735 1243.89 33.4631 1242.05 Q29.9526 1240.22 27.0541 1240.22 Q23.8013 1240.22 21.4503 1242.57 Q21.1282 1242.92 20.935 1243.12 Q20.7418 1243.28 20.4197 1243.44 Q20.0976 1243.57 19.679 1243.57 Q18.584 1243.57 17.5534 1242.54 Q16.5228 1241.51 16.5228 1240.28 Q16.5228 1239.19 17.5856 1238.28 Q18.6484 1237.38 21.1282 1237.38 Z" fill="#000000" fill-rule="nonzero" fill-opacity="1" /><path clip-path="url(#clip560)" d="M287.018 34.2568 Q292.053 35.3331 294.865 38.7359 Q297.713 42.1387 297.713 47.1386 Q297.713 54.8122 292.435 59.0136 Q287.157 63.2149 277.435 63.2149 Q274.171 63.2149 270.699 62.5552 Q267.261 61.9302 263.581 60.6455 L263.581 53.8747 Q266.497 55.5761 269.97 56.4441 Q273.442 57.3122 277.227 57.3122 Q283.824 57.3122 287.261 54.708 Q290.733 52.1039 290.733 47.1386 Q290.733 42.5553 287.504 39.9859 Q284.31 37.3817 278.581 37.3817 L272.539 37.3817 L272.539 31.6179 L278.858 31.6179 Q284.032 31.6179 286.775 29.5693 Q289.518 27.486 289.518 23.5971 Q289.518 19.6041 286.671 17.486 Q283.858 15.3333 278.581 15.3333 Q275.699 15.3333 272.4 15.9582 Q269.102 16.5832 265.143 17.9027 L265.143 11.6527 Q269.136 10.5416 272.608 9.98606 Q276.115 9.43051 279.206 9.43051 Q287.192 9.43051 291.844 13.0763 Q296.497 16.6874 296.497 22.8679 Q296.497 27.1735 294.032 30.1596 Q291.567 33.1109 287.018 34.2568 Z" fill="#000000" fill-rule="nonzero" fill-opacity="1" /><path clip-path="url(#clip560)" d="M311.011 53.3886 L318.337 53.3886 L318.337 62.208 L311.011 62.208 L311.011 53.3886 Z" fill="#000000" fill-rule="nonzero" fill-opacity="1" /><path clip-path="url(#clip560)" d="M334.83 56.3053 L346.289 56.3053 L346.289 16.7569 L333.823 19.2568 L333.823 12.868 L346.219 10.368 L353.233 10.368 L353.233 56.3053 L364.691 56.3053 L364.691 62.208 L334.83 62.208 L334.83 56.3053 Z" fill="#000000" fill-rule="nonzero" fill-opacity="1" /><path clip-path="url(#clip560)" d="M378.858 53.3886 L386.184 53.3886 L386.184 62.208 L378.858 62.208 L378.858 53.3886 Z" fill="#000000" fill-rule="nonzero" fill-opacity="1" /><path clip-path="url(#clip560)" d="M407.504 56.3053 L431.983 56.3053 L431.983 62.208 L399.066 62.208 L399.066 56.3053 Q403.059 52.1733 409.934 45.2289 Q416.844 38.2498 418.615 36.2359 Q421.983 32.4512 423.302 29.8471 Q424.656 27.2082 424.656 24.6735 Q424.656 20.5416 421.74 17.9374 Q418.858 15.3333 414.205 15.3333 Q410.906 15.3333 407.226 16.4791 Q403.58 17.6249 399.413 19.9513 L399.413 12.868 Q403.649 11.1666 407.33 10.2986 Q411.011 9.43051 414.066 9.43051 Q422.122 9.43051 426.913 13.4583 Q431.705 17.486 431.705 24.2221 Q431.705 27.4165 430.49 30.2984 Q429.309 33.1457 426.149 37.0345 Q425.281 38.0415 420.629 42.8678 Q415.976 47.6595 407.504 56.3053 Z" fill="#000000" fill-rule="nonzero" fill-opacity="1" /><path clip-path="url(#clip560)" d="M475.698 16.1319 L475.698 56.4441 L484.17 56.4441 Q494.899 56.4441 499.864 51.5831 Q504.864 46.722 504.864 36.2359 Q504.864 25.8193 499.864 20.9929 Q494.899 16.1319 484.17 16.1319 L475.698 16.1319 M468.684 10.368 L483.093 10.368 Q498.163 10.368 505.211 16.6527 Q512.26 22.9027 512.26 36.2359 Q512.26 49.6386 505.177 55.9233 Q498.093 62.208 483.093 62.208 L468.684 62.208 L468.684 10.368 Z" fill="#000000" fill-rule="nonzero" fill-opacity="1" /><path clip-path="url(#clip560)" d="M538.232 27.7985 Q533.093 27.7985 530.107 31.8262 Q527.121 35.8193 527.121 42.7984 Q527.121 49.7775 530.072 53.8053 Q533.058 57.7983 538.232 57.7983 Q543.336 57.7983 546.322 53.7705 Q549.308 49.7428 549.308 42.7984 Q549.308 35.8887 546.322 31.8609 Q543.336 27.7985 538.232 27.7985 M538.232 22.3818 Q546.565 22.3818 551.322 27.7985 Q556.079 33.2151 556.079 42.7984 Q556.079 52.3469 551.322 57.7983 Q546.565 63.2149 538.232 63.2149 Q529.864 63.2149 525.107 57.7983 Q520.385 52.3469 520.385 42.7984 Q520.385 33.2151 525.107 27.7985 Q529.864 22.3818 538.232 22.3818 Z" fill="#000000" fill-rule="nonzero" fill-opacity="1" /><path clip-path="url(#clip560)" d="M589.204 29.2915 Q588.128 28.6665 586.843 28.3887 Q585.593 28.0762 584.065 28.0762 Q578.649 28.0762 575.732 31.6179 Q572.85 35.1248 572.85 41.722 L572.85 62.208 L566.426 62.208 L566.426 23.3193 L572.85 23.3193 L572.85 29.361 Q574.864 25.8193 578.093 24.1179 Q581.322 22.3818 585.94 22.3818 Q586.6 22.3818 587.398 22.486 Q588.197 22.5554 589.169 22.729 L589.204 29.2915 Z" fill="#000000" fill-rule="nonzero" fill-opacity="1" /><path clip-path="url(#clip560)" d="M609.412 27.7985 Q604.273 27.7985 601.287 31.8262 Q598.301 35.8193 598.301 42.7984 Q598.301 49.7775 601.253 53.8053 Q604.239 57.7983 609.412 57.7983 Q614.516 57.7983 617.502 53.7705 Q620.489 49.7428 620.489 42.7984 Q620.489 35.8887 617.502 31.8609 Q614.516 27.7985 609.412 27.7985 M609.412 22.3818 Q617.746 22.3818 622.502 27.7985 Q627.259 33.2151 627.259 42.7984 Q627.259 52.3469 622.502 57.7983 Q617.746 63.2149 609.412 63.2149 Q601.044 63.2149 596.287 57.7983 Q591.565 52.3469 591.565 42.7984 Q591.565 33.2151 596.287 27.7985 Q601.044 22.3818 609.412 22.3818 Z" fill="#000000" fill-rule="nonzero" fill-opacity="1" /><path clip-path="url(#clip560)" d="M663.44 42.3123 Q663.44 35.3679 660.558 31.5484 Q657.711 27.729 652.537 27.729 Q647.398 27.729 644.516 31.5484 Q641.669 35.3679 641.669 42.3123 Q641.669 49.222 644.516 53.0414 Q647.398 56.8608 652.537 56.8608 Q657.711 56.8608 660.558 53.0414 Q663.44 49.222 663.44 42.3123 M669.829 57.3816 Q669.829 67.3121 665.419 72.1385 Q661.009 76.9996 651.912 76.9996 Q648.544 76.9996 645.558 76.4788 Q642.572 75.9926 639.759 74.951 L639.759 68.7357 Q642.572 70.2635 645.315 70.9927 Q648.058 71.7218 650.905 71.7218 Q657.19 71.7218 660.315 68.4232 Q663.44 65.1594 663.44 58.5275 L663.44 55.3678 Q661.461 58.8052 658.37 60.5066 Q655.28 62.208 650.975 62.208 Q643.822 62.208 639.447 56.7566 Q635.072 51.3053 635.072 42.3123 Q635.072 33.2845 639.447 27.8332 Q643.822 22.3818 650.975 22.3818 Q655.28 22.3818 658.37 24.0832 Q661.461 25.7846 663.44 29.2221 L663.44 23.3193 L669.829 23.3193 L669.829 57.3816 Z" fill="#000000" fill-rule="nonzero" fill-opacity="1" /><path clip-path="url(#clip560)" d="M698.058 27.7985 Q692.919 27.7985 689.933 31.8262 Q686.947 35.8193 686.947 42.7984 Q686.947 49.7775 689.898 53.8053 Q692.884 57.7983 698.058 57.7983 Q703.162 57.7983 706.148 53.7705 Q709.134 49.7428 709.134 42.7984 Q709.134 35.8887 706.148 31.8609 Q703.162 27.7985 698.058 27.7985 M698.058 22.3818 Q706.391 22.3818 711.148 27.7985 Q715.905 33.2151 715.905 42.7984 Q715.905 52.3469 711.148 57.7983 Q706.391 63.2149 698.058 63.2149 Q689.69 63.2149 684.933 57.7983 Q680.21 52.3469 680.21 42.7984 Q680.21 33.2151 684.933 27.7985 Q689.69 22.3818 698.058 22.3818 Z" fill="#000000" fill-rule="nonzero" fill-opacity="1" /><path clip-path="url(#clip560)" d="M721.912 23.3193 L728.682 23.3193 L740.835 55.958 L752.988 23.3193 L759.759 23.3193 L745.175 62.208 L736.495 62.208 L721.912 23.3193 Z" fill="#000000" fill-rule="nonzero" fill-opacity="1" /><path clip-path="url(#clip560)" d="M774.897 12.2777 L774.897 23.3193 L788.057 23.3193 L788.057 28.2846 L774.897 28.2846 L774.897 49.3956 Q774.897 54.1525 776.182 55.5066 Q777.502 56.8608 781.495 56.8608 L788.057 56.8608 L788.057 62.208 L781.495 62.208 Q774.099 62.208 771.286 59.465 Q768.474 56.6872 768.474 49.3956 L768.474 28.2846 L763.786 28.2846 L763.786 23.3193 L768.474 23.3193 L768.474 12.2777 L774.897 12.2777 Z" fill="#000000" fill-rule="nonzero" fill-opacity="1" /><path clip-path="url(#clip560)" d="M821.251 24.4651 L821.251 30.5068 Q818.543 29.1179 815.626 28.4235 Q812.71 27.729 809.585 27.729 Q804.828 27.729 802.432 29.1873 Q800.071 30.6457 800.071 33.5623 Q800.071 35.7845 801.772 37.0692 Q803.474 38.3192 808.613 39.4651 L810.8 39.9512 Q817.606 41.4095 820.453 44.0831 Q823.335 46.722 823.335 51.4789 Q823.335 56.8955 819.029 60.0552 Q814.758 63.2149 807.258 63.2149 Q804.133 63.2149 800.731 62.5899 Q797.363 61.9997 793.613 60.7844 L793.613 54.1872 Q797.154 56.0275 800.592 56.965 Q804.029 57.8677 807.397 57.8677 Q811.911 57.8677 814.342 56.34 Q816.772 54.7775 816.772 51.965 Q816.772 49.3608 815.001 47.972 Q813.265 46.5831 807.328 45.2984 L805.106 44.7775 Q799.168 43.5275 796.529 40.9581 Q793.89 38.354 793.89 33.8401 Q793.89 28.354 797.779 25.3679 Q801.668 22.3818 808.821 22.3818 Q812.363 22.3818 815.488 22.9027 Q818.612 23.4235 821.251 24.4651 Z" fill="#000000" fill-rule="nonzero" fill-opacity="1" /><path clip-path="url(#clip560)" d="M866.772 41.1664 L866.772 44.2914 L837.397 44.2914 Q837.814 50.8886 841.355 54.3608 Q844.932 57.7983 851.286 57.7983 Q854.966 57.7983 858.404 56.8955 Q861.876 55.9928 865.279 54.1872 L865.279 60.2288 Q861.841 61.6872 858.23 62.4511 Q854.619 63.2149 850.904 63.2149 Q841.598 63.2149 836.147 57.7983 Q830.73 52.3817 830.73 43.1456 Q830.73 33.597 835.869 28.0068 Q841.043 22.3818 849.793 22.3818 Q857.64 22.3818 862.189 27.4512 Q866.772 32.4859 866.772 41.1664 M860.383 39.2915 Q860.314 34.0484 857.432 30.9234 Q854.585 27.7985 849.862 27.7985 Q844.515 27.7985 841.286 30.8193 Q838.092 33.8401 837.605 39.3262 L860.383 39.2915 Z" fill="#000000" fill-rule="nonzero" fill-opacity="1" /><path clip-path="url(#clip560)" d="M872.675 23.3193 L879.446 23.3193 L891.598 55.958 L903.751 23.3193 L910.522 23.3193 L895.938 62.208 L887.258 62.208 L872.675 23.3193 Z" fill="#000000" fill-rule="nonzero" fill-opacity="1" /><path clip-path="url(#clip560)" d="M959.619 42.6595 Q951.876 42.6595 948.89 44.4303 Q945.903 46.2011 945.903 50.472 Q945.903 53.8747 948.126 55.8886 Q950.383 57.8677 954.237 57.8677 Q959.549 57.8677 962.744 54.1178 Q965.973 50.3331 965.973 44.0831 L965.973 42.6595 L959.619 42.6595 M972.362 40.0206 L972.362 62.208 L965.973 62.208 L965.973 56.3053 Q963.785 59.8469 960.521 61.5483 Q957.258 63.2149 952.535 63.2149 Q946.563 63.2149 943.022 59.8816 Q939.515 56.5136 939.515 50.8886 Q939.515 44.3262 943.89 40.9928 Q948.299 37.6595 957.015 37.6595 L965.973 37.6595 L965.973 37.0345 Q965.973 32.6248 963.056 30.229 Q960.174 27.7985 954.931 27.7985 Q951.598 27.7985 948.438 28.5971 Q945.278 29.3957 942.362 30.9929 L942.362 25.0901 Q945.869 23.736 949.167 23.0763 Q952.466 22.3818 955.591 22.3818 Q964.028 22.3818 968.195 26.7568 Q972.362 31.1318 972.362 40.0206 Z" fill="#000000" fill-rule="nonzero" fill-opacity="1" /><path clip-path="url(#clip560)" d="M1017.85 38.7359 L1017.85 62.208 L1011.46 62.208 L1011.46 38.9442 Q1011.46 33.4234 1009.31 30.6804 Q1007.15 27.9374 1002.85 27.9374 Q997.674 27.9374 994.688 31.2359 Q991.702 34.5345 991.702 40.229 L991.702 62.208 L985.278 62.208 L985.278 23.3193 L991.702 23.3193 L991.702 29.361 Q993.993 25.854 997.084 24.1179 Q1000.21 22.3818 1004.27 22.3818 Q1010.97 22.3818 1014.41 26.5485 Q1017.85 30.6804 1017.85 38.7359 Z" fill="#000000" fill-rule="nonzero" fill-opacity="1" /><path clip-path="url(#clip560)" d="M1056.18 29.2221 L1056.18 8.18051 L1062.57 8.18051 L1062.57 62.208 L1056.18 62.208 L1056.18 56.3747 Q1054.17 59.8469 1051.08 61.5483 Q1048.02 63.2149 1043.72 63.2149 Q1036.67 63.2149 1032.22 57.59 Q1027.81 51.965 1027.81 42.7984 Q1027.81 33.6318 1032.22 28.0068 Q1036.67 22.3818 1043.72 22.3818 Q1048.02 22.3818 1051.08 24.0832 Q1054.17 25.7499 1056.18 29.2221 M1034.41 42.7984 Q1034.41 49.847 1037.29 53.8747 Q1040.21 57.8677 1045.28 57.8677 Q1050.35 57.8677 1053.26 53.8747 Q1056.18 49.847 1056.18 42.7984 Q1056.18 35.7498 1053.26 31.7568 Q1050.35 27.729 1045.28 27.729 Q1040.21 27.729 1037.29 31.7568 Q1034.41 35.7498 1034.41 42.7984 Z" fill="#000000" fill-rule="nonzero" fill-opacity="1" /><path clip-path="url(#clip560)" d="M1098.61 10.368 L1109.06 10.368 L1122.29 45.6456 L1135.59 10.368 L1146.04 10.368 L1146.04 62.208 L1139.2 62.208 L1139.2 16.6874 L1125.83 52.2428 L1118.78 52.2428 L1105.42 16.6874 L1105.42 62.208 L1098.61 62.208 L1098.61 10.368 Z" fill="#000000" fill-rule="nonzero" fill-opacity="1" /><path clip-path="url(#clip560)" d="M1192.95 41.1664 L1192.95 44.2914 L1163.58 44.2914 Q1163.99 50.8886 1167.53 54.3608 Q1171.11 57.7983 1177.46 57.7983 Q1181.15 57.7983 1184.58 56.8955 Q1188.05 55.9928 1191.46 54.1872 L1191.46 60.2288 Q1188.02 61.6872 1184.41 62.4511 Q1180.8 63.2149 1177.08 63.2149 Q1167.78 63.2149 1162.33 57.7983 Q1156.91 52.3817 1156.91 43.1456 Q1156.91 33.597 1162.05 28.0068 Q1167.22 22.3818 1175.97 22.3818 Q1183.82 22.3818 1188.37 27.4512 Q1192.95 32.4859 1192.95 41.1664 M1186.56 39.2915 Q1186.49 34.0484 1183.61 30.9234 Q1180.76 27.7985 1176.04 27.7985 Q1170.69 27.7985 1167.46 30.8193 Q1164.27 33.8401 1163.78 39.3262 L1186.56 39.2915 Z" fill="#000000" fill-rule="nonzero" fill-opacity="1" /><path clip-path="url(#clip560)" d="M1235.76 38.7359 L1235.76 62.208 L1229.37 62.208 L1229.37 38.9442 Q1229.37 33.4234 1227.22 30.6804 Q1225.07 27.9374 1220.76 27.9374 Q1215.59 27.9374 1212.6 31.2359 Q1209.62 34.5345 1209.62 40.229 L1209.62 62.208 L1203.19 62.208 L1203.19 23.3193 L1209.62 23.3193 L1209.62 29.361 Q1211.91 25.854 1215 24.1179 Q1218.12 22.3818 1222.19 22.3818 Q1228.89 22.3818 1232.33 26.5485 Q1235.76 30.6804 1235.76 38.7359 Z" fill="#000000" fill-rule="nonzero" fill-opacity="1" /><path clip-path="url(#clip560)" d="M1274.1 29.2221 L1274.1 8.18051 L1280.49 8.18051 L1280.49 62.208 L1274.1 62.208 L1274.1 56.3747 Q1272.08 59.8469 1268.99 61.5483 Q1265.94 63.2149 1261.63 63.2149 Q1254.58 63.2149 1250.14 57.59 Q1245.73 51.965 1245.73 42.7984 Q1245.73 33.6318 1250.14 28.0068 Q1254.58 22.3818 1261.63 22.3818 Q1265.94 22.3818 1268.99 24.0832 Q1272.08 25.7499 1274.1 29.2221 M1252.33 42.7984 Q1252.33 49.847 1255.21 53.8747 Q1258.12 57.8677 1263.19 57.8677 Q1268.26 57.8677 1271.18 53.8747 Q1274.1 49.847 1274.1 42.7984 Q1274.1 35.7498 1271.18 31.7568 Q1268.26 27.729 1263.19 27.729 Q1258.12 27.729 1255.21 31.7568 Q1252.33 35.7498 1252.33 42.7984 Z" fill="#000000" fill-rule="nonzero" fill-opacity="1" /><path clip-path="url(#clip560)" d="M1326.91 41.1664 L1326.91 44.2914 L1297.53 44.2914 Q1297.95 50.8886 1301.49 54.3608 Q1305.07 57.7983 1311.42 57.7983 Q1315.1 57.7983 1318.54 56.8955 Q1322.01 55.9928 1325.42 54.1872 L1325.42 60.2288 Q1321.98 61.6872 1318.37 62.4511 Q1314.76 63.2149 1311.04 63.2149 Q1301.73 63.2149 1296.28 57.7983 Q1290.87 52.3817 1290.87 43.1456 Q1290.87 33.597 1296.01 28.0068 Q1301.18 22.3818 1309.93 22.3818 Q1317.78 22.3818 1322.33 27.4512 Q1326.91 32.4859 1326.91 41.1664 M1320.52 39.2915 Q1320.45 34.0484 1317.57 30.9234 Q1314.72 27.7985 1310 27.7985 Q1304.65 27.7985 1301.42 30.8193 Q1298.23 33.8401 1297.74 39.3262 L1320.52 39.2915 Z" fill="#000000" fill-rule="nonzero" fill-opacity="1" /><path clip-path="url(#clip560)" d="M1362.19 24.4651 L1362.19 30.5068 Q1359.48 29.1179 1356.56 28.4235 Q1353.64 27.729 1350.52 27.729 Q1345.76 27.729 1343.37 29.1873 Q1341.01 30.6457 1341.01 33.5623 Q1341.01 35.7845 1342.71 37.0692 Q1344.41 38.3192 1349.55 39.4651 L1351.73 39.9512 Q1358.54 41.4095 1361.39 44.0831 Q1364.27 46.722 1364.27 51.4789 Q1364.27 56.8955 1359.96 60.0552 Q1355.69 63.2149 1348.19 63.2149 Q1345.07 63.2149 1341.67 62.5899 Q1338.3 61.9997 1334.55 60.7844 L1334.55 54.1872 Q1338.09 56.0275 1341.53 56.965 Q1344.96 57.8677 1348.33 57.8677 Q1352.85 57.8677 1355.28 56.34 Q1357.71 54.7775 1357.71 51.965 Q1357.71 49.3608 1355.94 47.972 Q1354.2 46.5831 1348.26 45.2984 L1346.04 44.7775 Q1340.1 43.5275 1337.46 40.9581 Q1334.83 38.354 1334.83 33.8401 Q1334.83 28.354 1338.71 25.3679 Q1342.6 22.3818 1349.76 22.3818 Q1353.3 22.3818 1356.42 22.9027 Q1359.55 23.4235 1362.19 24.4651 Z" fill="#000000" fill-rule="nonzero" fill-opacity="1" /><path clip-path="url(#clip560)" d="M1412.39 8.24996 Q1407.74 16.236 1405.48 24.0485 Q1403.23 31.8609 1403.23 39.8817 Q1403.23 47.9025 1405.48 55.7844 Q1407.78 63.6316 1412.39 71.5829 L1406.84 71.5829 Q1401.63 63.4233 1399.03 55.5414 Q1396.46 47.6595 1396.46 39.8817 Q1396.46 32.1387 1399.03 24.2915 Q1401.6 16.4444 1406.84 8.24996 L1412.39 8.24996 Z" fill="#000000" fill-rule="nonzero" fill-opacity="1" /><path clip-path="url(#clip560)" d="M1457.12 38.7359 L1457.12 62.208 L1450.73 62.208 L1450.73 38.9442 Q1450.73 33.4234 1448.57 30.6804 Q1446.42 27.9374 1442.12 27.9374 Q1436.94 27.9374 1433.96 31.2359 Q1430.97 34.5345 1430.97 40.229 L1430.97 62.208 L1424.55 62.208 L1424.55 23.3193 L1430.97 23.3193 L1430.97 29.361 Q1433.26 25.854 1436.35 24.1179 Q1439.48 22.3818 1443.54 22.3818 Q1450.24 22.3818 1453.68 26.5485 Q1457.12 30.6804 1457.12 38.7359 Z" fill="#000000" fill-rule="nonzero" fill-opacity="1" /><path clip-path="url(#clip560)" d="M1493.3 29.9165 L1537.81 29.9165 L1537.81 35.7498 L1493.3 35.7498 L1493.3 29.9165 M1493.3 44.0831 L1537.81 44.0831 L1537.81 49.9858 L1493.3 49.9858 L1493.3 44.0831 Z" fill="#000000" fill-rule="nonzero" fill-opacity="1" /><path clip-path="url(#clip560)" d="M1596.8 34.2568 Q1601.84 35.3331 1604.65 38.7359 Q1607.5 42.1387 1607.5 47.1386 Q1607.5 54.8122 1602.22 59.0136 Q1596.94 63.2149 1587.22 63.2149 Q1583.96 63.2149 1580.48 62.5552 Q1577.05 61.9302 1573.37 60.6455 L1573.37 53.8747 Q1576.28 55.5761 1579.75 56.4441 Q1583.23 57.3122 1587.01 57.3122 Q1593.61 57.3122 1597.05 54.708 Q1600.52 52.1039 1600.52 47.1386 Q1600.52 42.5553 1597.29 39.9859 Q1594.09 37.3817 1588.37 37.3817 L1582.32 37.3817 L1582.32 31.6179 L1588.64 31.6179 Q1593.82 31.6179 1596.56 29.5693 Q1599.3 27.486 1599.3 23.5971 Q1599.3 19.6041 1596.46 17.486 Q1593.64 15.3333 1588.37 15.3333 Q1585.48 15.3333 1582.18 15.9582 Q1578.89 16.5832 1574.93 17.9027 L1574.93 11.6527 Q1578.92 10.5416 1582.39 9.98606 Q1585.9 9.43051 1588.99 9.43051 Q1596.98 9.43051 1601.63 13.0763 Q1606.28 16.6874 1606.28 22.8679 Q1606.28 27.1735 1603.82 30.1596 Q1601.35 33.1109 1596.8 34.2568 Z" fill="#000000" fill-rule="nonzero" fill-opacity="1" /><path clip-path="url(#clip560)" d="M1620.87 10.368 L1648.4 10.368 L1648.4 16.2707 L1627.29 16.2707 L1627.29 28.979 Q1628.82 28.4582 1630.34 28.2151 Q1631.87 27.9374 1633.4 27.9374 Q1642.08 27.9374 1647.15 32.6943 Q1652.22 37.4512 1652.22 45.5761 Q1652.22 53.9442 1647.01 58.5969 Q1641.8 63.2149 1632.32 63.2149 Q1629.06 63.2149 1625.66 62.6594 Q1622.29 62.1038 1618.68 60.9927 L1618.68 53.9442 Q1621.8 55.6455 1625.14 56.4789 Q1628.47 57.3122 1632.18 57.3122 Q1638.19 57.3122 1641.7 54.1525 Q1645.21 50.9928 1645.21 45.5761 Q1645.21 40.1595 1641.7 36.9998 Q1638.19 33.8401 1632.18 33.8401 Q1629.37 33.8401 1626.56 34.4651 Q1623.78 35.0901 1620.87 36.4095 L1620.87 10.368 Z" fill="#000000" fill-rule="nonzero" fill-opacity="1" /><path clip-path="url(#clip560)" d="M1681.04 14.986 Q1675.62 14.986 1672.88 20.3332 Q1670.17 25.6457 1670.17 36.3401 Q1670.17 46.9997 1672.88 52.3469 Q1675.62 57.6594 1681.04 57.6594 Q1686.49 57.6594 1689.2 52.3469 Q1691.94 46.9997 1691.94 36.3401 Q1691.94 25.6457 1689.2 20.3332 Q1686.49 14.986 1681.04 14.986 M1681.04 9.43051 Q1689.75 9.43051 1694.34 16.3402 Q1698.96 23.2152 1698.96 36.3401 Q1698.96 49.4303 1694.34 56.34 Q1689.75 63.2149 1681.04 63.2149 Q1672.32 63.2149 1667.71 56.34 Q1663.12 49.4303 1663.12 36.3401 Q1663.12 23.2152 1667.71 16.3402 Q1672.32 9.43051 1681.04 9.43051 Z" fill="#000000" fill-rule="nonzero" fill-opacity="1" /><path clip-path="url(#clip560)" d="M1709.37 8.24996 L1714.93 8.24996 Q1720.14 16.4444 1722.7 24.2915 Q1725.31 32.1387 1725.31 39.8817 Q1725.31 47.6595 1722.7 55.5414 Q1720.14 63.4233 1714.93 71.5829 L1709.37 71.5829 Q1713.99 63.6316 1716.25 55.7844 Q1718.54 47.9025 1718.54 39.8817 Q1718.54 31.8609 1716.25 24.0485 Q1713.99 16.236 1709.37 8.24996 Z" fill="#000000" fill-rule="nonzero" fill-opacity="1" /><circle clip-path="url(#clip562)" cx="356.671" cy="2328.68" r="25.2" fill="#ee7733" fill-rule="evenodd" fill-opacity="0.5" stroke="#000000" stroke-opacity="0.5" stroke-width="0"/>
<circle clip-path="url(#clip562)" cx="436.473" cy="1951.95" r="25.2" fill="#ee7733" fill-rule="evenodd" fill-opacity="0.5" stroke="#000000" stroke-opacity="0.5" stroke-width="0"/>
<circle clip-path="url(#clip562)" cx="436.473" cy="2098.96" r="25.2" fill="#ee7733" fill-rule="evenodd" fill-opacity="0.5" stroke="#000000" stroke-opacity="0.5" stroke-width="0"/>
<circle clip-path="url(#clip562)" cx="506.864" cy="1878.27" r="25.2" fill="#ee7733" fill-rule="evenodd" fill-opacity="0.5" stroke="#000000" stroke-opacity="0.5" stroke-width="0"/>
<circle clip-path="url(#clip562)" cx="569.83" cy="1516.14" r="25.2" fill="#ee7733" fill-rule="evenodd" fill-opacity="0.5" stroke="#000000" stroke-opacity="0.5" stroke-width="0"/>
<circle clip-path="url(#clip562)" cx="626.791" cy="1520.99" r="25.2" fill="#ee7733" fill-rule="evenodd" fill-opacity="0.5" stroke="#000000" stroke-opacity="0.5" stroke-width="0"/>
<circle clip-path="url(#clip562)" cx="726.627" cy="1197.22" r="25.2" fill="#ee7733" fill-rule="evenodd" fill-opacity="0.5" stroke="#000000" stroke-opacity="0.5" stroke-width="0"/>
<circle clip-path="url(#clip562)" cx="770.917" cy="996.047" r="25.2" fill="#ee7733" fill-rule="evenodd" fill-opacity="0.5" stroke="#000000" stroke-opacity="0.5" stroke-width="0"/>
<circle clip-path="url(#clip562)" cx="812.149" cy="1118.47" r="25.2" fill="#ee7733" fill-rule="evenodd" fill-opacity="0.5" stroke="#000000" stroke-opacity="0.5" stroke-width="0"/>
<circle clip-path="url(#clip562)" cx="886.95" cy="816.593" r="25.2" fill="#ee7733" fill-rule="evenodd" fill-opacity="0.5" stroke="#000000" stroke-opacity="0.5" stroke-width="0"/>
<circle clip-path="url(#clip562)" cx="953.422" cy="892.612" r="25.2" fill="#ee7733" fill-rule="evenodd" fill-opacity="0.5" stroke="#000000" stroke-opacity="0.5" stroke-width="0"/>
<circle clip-path="url(#clip562)" cx="1013.23" cy="839.78" r="25.2" fill="#ee7733" fill-rule="evenodd" fill-opacity="0.5" stroke="#000000" stroke-opacity="0.5" stroke-width="0"/>
<circle clip-path="url(#clip562)" cx="1093.04" cy="567.246" r="25.2" fill="#ee7733" fill-rule="evenodd" fill-opacity="0.5" stroke="#000000" stroke-opacity="0.5" stroke-width="0"/>
<circle clip-path="url(#clip562)" cx="1140.87" cy="775.798" r="25.2" fill="#ee7733" fill-rule="evenodd" fill-opacity="0.5" stroke="#000000" stroke-opacity="0.5" stroke-width="0"/>
<circle clip-path="url(#clip562)" cx="1206.13" cy="533.338" r="25.2" fill="#ee7733" fill-rule="evenodd" fill-opacity="0.5" stroke="#000000" stroke-opacity="0.5" stroke-width="0"/>
<circle clip-path="url(#clip562)" cx="1264.96" cy="578.398" r="25.2" fill="#ee7733" fill-rule="evenodd" fill-opacity="0.5" stroke="#000000" stroke-opacity="0.5" stroke-width="0"/>
<circle clip-path="url(#clip562)" cx="1335.36" cy="596.923" r="25.2" fill="#ee7733" fill-rule="evenodd" fill-opacity="0.5" stroke="#000000" stroke-opacity="0.5" stroke-width="0"/>
<circle clip-path="url(#clip562)" cx="1398.32" cy="379.619" r="25.2" fill="#ee7733" fill-rule="evenodd" fill-opacity="0.5" stroke="#000000" stroke-opacity="0.5" stroke-width="0"/>
<circle clip-path="url(#clip562)" cx="1468.71" cy="415.964" r="25.2" fill="#ee7733" fill-rule="evenodd" fill-opacity="0.5" stroke="#000000" stroke-opacity="0.5" stroke-width="0"/>
<circle clip-path="url(#clip562)" cx="1531.68" cy="541.428" r="25.2" fill="#ee7733" fill-rule="evenodd" fill-opacity="0.5" stroke="#000000" stroke-opacity="0.5" stroke-width="0"/>
<circle clip-path="url(#clip562)" cx="1588.64" cy="568.498" r="25.2" fill="#ee7733" fill-rule="evenodd" fill-opacity="0.5" stroke="#000000" stroke-opacity="0.5" stroke-width="0"/>
<circle clip-path="url(#clip562)" cx="1660.24" cy="329.634" r="25.2" fill="#ee7733" fill-rule="evenodd" fill-opacity="0.5" stroke="#000000" stroke-opacity="0.5" stroke-width="0"/>
<circle clip-path="url(#clip562)" cx="1724.17" cy="331.95" r="25.2" fill="#ee7733" fill-rule="evenodd" fill-opacity="0.5" stroke="#000000" stroke-opacity="0.5" stroke-width="0"/>
<circle clip-path="url(#clip562)" cx="1781.91" cy="254.728" r="25.2" fill="#ee7733" fill-rule="evenodd" fill-opacity="0.5" stroke="#000000" stroke-opacity="0.5" stroke-width="0"/>
<circle clip-path="url(#clip562)" cx="1848.8" cy="399.418" r="25.2" fill="#ee7733" fill-rule="evenodd" fill-opacity="0.5" stroke="#000000" stroke-opacity="0.5" stroke-width="0"/>
<circle clip-path="url(#clip562)" cx="1915.27" cy="550.346" r="25.2" fill="#ee7733" fill-rule="evenodd" fill-opacity="0.5" stroke="#000000" stroke-opacity="0.5" stroke-width="0"/>
<circle clip-path="url(#clip562)" cx="1975.08" cy="197.987" r="25.2" fill="#ee7733" fill-rule="evenodd" fill-opacity="0.5" stroke="#000000" stroke-opacity="0.5" stroke-width="0"/>
<circle clip-path="url(#clip562)" cx="2039.76" cy="357.314" r="25.2" fill="#ee7733" fill-rule="evenodd" fill-opacity="0.5" stroke="#000000" stroke-opacity="0.5" stroke-width="0"/>
<circle clip-path="url(#clip562)" cx="2107.3" cy="247.315" r="25.2" fill="#ee7733" fill-rule="evenodd" fill-opacity="0.5" stroke="#000000" stroke-opacity="0.5" stroke-width="0"/>
<circle clip-path="url(#clip562)" cx="2167.98" cy="396.406" r="25.2" fill="#ee7733" fill-rule="evenodd" fill-opacity="0.5" stroke="#000000" stroke-opacity="0.5" stroke-width="0"/>
<circle clip-path="url(#clip562)" cx="2234.24" cy="303.664" r="25.2" fill="#ee7733" fill-rule="evenodd" fill-opacity="0.5" stroke="#000000" stroke-opacity="0.5" stroke-width="0"/>
<circle clip-path="url(#clip562)" cx="2297.21" cy="261.016" r="25.2" fill="#ee7733" fill-rule="evenodd" fill-opacity="0.5" stroke="#000000" stroke-opacity="0.5" stroke-width="0"/>
<circle clip-path="url(#clip562)" cx="2363.15" cy="201.048" r="25.2" fill="#ee7733" fill-rule="evenodd" fill-opacity="0.5" stroke="#000000" stroke-opacity="0.5" stroke-width="0"/>
<circle clip-path="url(#clip562)" cx="2427.9" cy="386.656" r="25.2" fill="#ee7733" fill-rule="evenodd" fill-opacity="0.5" stroke="#000000" stroke-opacity="0.5" stroke-width="0"/>
<circle clip-path="url(#clip562)" cx="2491.13" cy="284.337" r="25.2" fill="#ee7733" fill-rule="evenodd" fill-opacity="0.5" stroke="#000000" stroke-opacity="0.5" stroke-width="0"/>
<circle clip-path="url(#clip562)" cx="2556.97" cy="294.508" r="25.2" fill="#ee7733" fill-rule="evenodd" fill-opacity="0.5" stroke="#000000" stroke-opacity="0.5" stroke-width="0"/>
<circle clip-path="url(#clip562)" cx="2620.16" cy="183.507" r="25.2" fill="#ee7733" fill-rule="evenodd" fill-opacity="0.5" stroke="#000000" stroke-opacity="0.5" stroke-width="0"/>
<circle clip-path="url(#clip562)" cx="2686.02" cy="268.34" r="25.2" fill="#ee7733" fill-rule="evenodd" fill-opacity="0.5" stroke="#000000" stroke-opacity="0.5" stroke-width="0"/>
<circle clip-path="url(#clip562)" cx="2750.02" cy="250.075" r="25.2" fill="#ee7733" fill-rule="evenodd" fill-opacity="0.5" stroke="#000000" stroke-opacity="0.5" stroke-width="0"/>
<circle clip-path="url(#clip562)" cx="2814.85" cy="399.188" r="25.2" fill="#ee7733" fill-rule="evenodd" fill-opacity="0.5" stroke="#000000" stroke-opacity="0.5" stroke-width="0"/>
<circle clip-path="url(#clip562)" cx="2878.38" cy="258.316" r="25.2" fill="#ee7733" fill-rule="evenodd" fill-opacity="0.5" stroke="#000000" stroke-opacity="0.5" stroke-width="0"/>
<circle clip-path="url(#clip562)" cx="2943.72" cy="278.698" r="25.2" fill="#ee7733" fill-rule="evenodd" fill-opacity="0.5" stroke="#000000" stroke-opacity="0.5" stroke-width="0"/>
<circle clip-path="url(#clip562)" cx="3007.7" cy="321.847" r="25.2" fill="#ee7733" fill-rule="evenodd" fill-opacity="0.5" stroke="#000000" stroke-opacity="0.5" stroke-width="0"/>
<circle clip-path="url(#clip562)" cx="3072.79" cy="211.706" r="25.2" fill="#ee7733" fill-rule="evenodd" fill-opacity="0.5" stroke="#000000" stroke-opacity="0.5" stroke-width="0"/>
<circle clip-path="url(#clip562)" cx="3137.21" cy="223.882" r="25.2" fill="#ee7733" fill-rule="evenodd" fill-opacity="0.5" stroke="#000000" stroke-opacity="0.5" stroke-width="0"/>
<circle clip-path="url(#clip562)" cx="3201.96" cy="280.895" r="25.2" fill="#ee7733" fill-rule="evenodd" fill-opacity="0.5" stroke="#000000" stroke-opacity="0.5" stroke-width="0"/>
<circle clip-path="url(#clip562)" cx="3266.31" cy="275.241" r="25.2" fill="#ee7733" fill-rule="evenodd" fill-opacity="0.5" stroke="#000000" stroke-opacity="0.5" stroke-width="0"/>
<circle clip-path="url(#clip562)" cx="3330.92" cy="324.819" r="25.2" fill="#ee7733" fill-rule="evenodd" fill-opacity="0.5" stroke="#000000" stroke-opacity="0.5" stroke-width="0"/>
<circle clip-path="url(#clip562)" cx="3395.06" cy="252.713" r="25.2" fill="#ee7733" fill-rule="evenodd" fill-opacity="0.5" stroke="#000000" stroke-opacity="0.5" stroke-width="0"/>
<circle clip-path="url(#clip562)" cx="3459.67" cy="256.874" r="25.2" fill="#ee7733" fill-rule="evenodd" fill-opacity="0.5" stroke="#000000" stroke-opacity="0.5" stroke-width="0"/>
</svg>
