<?xml version="1.0" encoding="utf-8"?>
<svg xmlns="http://www.w3.org/2000/svg" xmlns:xlink="http://www.w3.org/1999/xlink" width="700" height="550" viewBox="0 0 2800 2200">
<defs>
  <clipPath id="clip700">
    <rect x="0" y="0" width="2800" height="2200"/>
  </clipPath>
</defs>
<path clip-path="url(#clip700)" d="M0 2200 L2800 2200 L2800 0 L0 0  Z" fill="#ffffff" fill-rule="evenodd" fill-opacity="1"/>
<defs>
  <clipPath id="clip701">
    <rect x="560" y="0" width="1961" height="1961"/>
  </clipPath>
</defs>
<defs>
  <clipPath id="clip702">
    <rect x="323" y="124" width="2431" height="1879"/>
  </clipPath>
</defs>
<path clip-path="url(#clip700)" d="M323.252 2002.52 L2752.76 2002.52 L2752.76 124.089 L323.252 124.089  Z" fill="#ffffff" fill-rule="evenodd" fill-opacity="1"/>
<polyline clip-path="url(#clip702)" style="stroke:#222255; stroke-linecap:round; stroke-linejoin:round; stroke-width:2; stroke-opacity:0.5; fill:none" points="384.773,2002.52 384.773,124.089 "/>
<polyline clip-path="url(#clip702)" style="stroke:#222255; stroke-linecap:round; stroke-linejoin:round; stroke-width:2; stroke-opacity:0.5; fill:none" points="867.297,2002.52 867.297,124.089 "/>
<polyline clip-path="url(#clip702)" style="stroke:#222255; stroke-linecap:round; stroke-linejoin:round; stroke-width:2; stroke-opacity:0.5; fill:none" points="1349.82,2002.52 1349.82,124.089 "/>
<polyline clip-path="url(#clip702)" style="stroke:#222255; stroke-linecap:round; stroke-linejoin:round; stroke-width:2; stroke-opacity:0.5; fill:none" points="1832.34,2002.52 1832.34,124.089 "/>
<polyline clip-path="url(#clip702)" style="stroke:#222255; stroke-linecap:round; stroke-linejoin:round; stroke-width:2; stroke-opacity:0.5; fill:none" points="2314.87,2002.52 2314.87,124.089 "/>
<polyline clip-path="url(#clip702)" style="stroke:#222255; stroke-linecap:round; stroke-linejoin:round; stroke-width:2; stroke-opacity:0.3; fill:none" points="481.278,2002.52 481.278,124.089 "/>
<polyline clip-path="url(#clip702)" style="stroke:#222255; stroke-linecap:round; stroke-linejoin:round; stroke-width:2; stroke-opacity:0.3; fill:none" points="577.783,2002.52 577.783,124.089 "/>
<polyline clip-path="url(#clip702)" style="stroke:#222255; stroke-linecap:round; stroke-linejoin:round; stroke-width:2; stroke-opacity:0.3; fill:none" points="674.287,2002.52 674.287,124.089 "/>
<polyline clip-path="url(#clip702)" style="stroke:#222255; stroke-linecap:round; stroke-linejoin:round; stroke-width:2; stroke-opacity:0.3; fill:none" points="770.792,2002.52 770.792,124.089 "/>
<polyline clip-path="url(#clip702)" style="stroke:#222255; stroke-linecap:round; stroke-linejoin:round; stroke-width:2; stroke-opacity:0.3; fill:none" points="963.801,2002.52 963.801,124.089 "/>
<polyline clip-path="url(#clip702)" style="stroke:#222255; stroke-linecap:round; stroke-linejoin:round; stroke-width:2; stroke-opacity:0.3; fill:none" points="1060.31,2002.52 1060.31,124.089 "/>
<polyline clip-path="url(#clip702)" style="stroke:#222255; stroke-linecap:round; stroke-linejoin:round; stroke-width:2; stroke-opacity:0.3; fill:none" points="1156.81,2002.52 1156.81,124.089 "/>
<polyline clip-path="url(#clip702)" style="stroke:#222255; stroke-linecap:round; stroke-linejoin:round; stroke-width:2; stroke-opacity:0.3; fill:none" points="1253.32,2002.52 1253.32,124.089 "/>
<polyline clip-path="url(#clip702)" style="stroke:#222255; stroke-linecap:round; stroke-linejoin:round; stroke-width:2; stroke-opacity:0.3; fill:none" points="1446.32,2002.52 1446.32,124.089 "/>
<polyline clip-path="url(#clip702)" style="stroke:#222255; stroke-linecap:round; stroke-linejoin:round; stroke-width:2; stroke-opacity:0.3; fill:none" points="1542.83,2002.52 1542.83,124.089 "/>
<polyline clip-path="url(#clip702)" style="stroke:#222255; stroke-linecap:round; stroke-linejoin:round; stroke-width:2; stroke-opacity:0.3; fill:none" points="1639.33,2002.52 1639.33,124.089 "/>
<polyline clip-path="url(#clip702)" style="stroke:#222255; stroke-linecap:round; stroke-linejoin:round; stroke-width:2; stroke-opacity:0.3; fill:none" points="1735.84,2002.52 1735.84,124.089 "/>
<polyline clip-path="url(#clip702)" style="stroke:#222255; stroke-linecap:round; stroke-linejoin:round; stroke-width:2; stroke-opacity:0.3; fill:none" points="1928.85,2002.52 1928.85,124.089 "/>
<polyline clip-path="url(#clip702)" style="stroke:#222255; stroke-linecap:round; stroke-linejoin:round; stroke-width:2; stroke-opacity:0.3; fill:none" points="2025.35,2002.52 2025.35,124.089 "/>
<polyline clip-path="url(#clip702)" style="stroke:#222255; stroke-linecap:round; stroke-linejoin:round; stroke-width:2; stroke-opacity:0.3; fill:none" points="2121.86,2002.52 2121.86,124.089 "/>
<polyline clip-path="url(#clip702)" style="stroke:#222255; stroke-linecap:round; stroke-linejoin:round; stroke-width:2; stroke-opacity:0.3; fill:none" points="2218.36,2002.52 2218.36,124.089 "/>
<polyline clip-path="url(#clip702)" style="stroke:#222255; stroke-linecap:round; stroke-linejoin:round; stroke-width:2; stroke-opacity:0.3; fill:none" points="2411.37,2002.52 2411.37,124.089 "/>
<polyline clip-path="url(#clip702)" style="stroke:#222255; stroke-linecap:round; stroke-linejoin:round; stroke-width:2; stroke-opacity:0.3; fill:none" points="2507.88,2002.52 2507.88,124.089 "/>
<polyline clip-path="url(#clip702)" style="stroke:#222255; stroke-linecap:round; stroke-linejoin:round; stroke-width:2; stroke-opacity:0.3; fill:none" points="2604.38,2002.52 2604.38,124.089 "/>
<polyline clip-path="url(#clip702)" style="stroke:#222255; stroke-linecap:round; stroke-linejoin:round; stroke-width:2; stroke-opacity:0.3; fill:none" points="2700.88,2002.52 2700.88,124.089 "/>
<polyline clip-path="url(#clip700)" style="stroke:#222255; stroke-linecap:round; stroke-linejoin:round; stroke-width:4; stroke-opacity:0; fill:none" points="384.773,2002.52 384.773,1983.63 "/>
<polyline clip-path="url(#clip700)" style="stroke:#222255; stroke-linecap:round; stroke-linejoin:round; stroke-width:4; stroke-opacity:0; fill:none" points="867.297,2002.52 867.297,1983.63 "/>
<polyline clip-path="url(#clip700)" style="stroke:#222255; stroke-linecap:round; stroke-linejoin:round; stroke-width:4; stroke-opacity:0; fill:none" points="1349.82,2002.52 1349.82,1983.63 "/>
<polyline clip-path="url(#clip700)" style="stroke:#222255; stroke-linecap:round; stroke-linejoin:round; stroke-width:4; stroke-opacity:0; fill:none" points="1832.34,2002.52 1832.34,1983.63 "/>
<polyline clip-path="url(#clip700)" style="stroke:#222255; stroke-linecap:round; stroke-linejoin:round; stroke-width:4; stroke-opacity:0; fill:none" points="2314.87,2002.52 2314.87,1983.63 "/>
<polyline clip-path="url(#clip700)" style="stroke:#222255; stroke-linecap:round; stroke-linejoin:round; stroke-width:4; stroke-opacity:0; fill:none" points="481.278,2002.52 481.278,1993.07 "/>
<polyline clip-path="url(#clip700)" style="stroke:#222255; stroke-linecap:round; stroke-linejoin:round; stroke-width:4; stroke-opacity:0; fill:none" points="577.783,2002.52 577.783,1993.07 "/>
<polyline clip-path="url(#clip700)" style="stroke:#222255; stroke-linecap:round; stroke-linejoin:round; stroke-width:4; stroke-opacity:0; fill:none" points="674.287,2002.52 674.287,1993.07 "/>
<polyline clip-path="url(#clip700)" style="stroke:#222255; stroke-linecap:round; stroke-linejoin:round; stroke-width:4; stroke-opacity:0; fill:none" points="770.792,2002.52 770.792,1993.07 "/>
<polyline clip-path="url(#clip700)" style="stroke:#222255; stroke-linecap:round; stroke-linejoin:round; stroke-width:4; stroke-opacity:0; fill:none" points="963.801,2002.52 963.801,1993.07 "/>
<polyline clip-path="url(#clip700)" style="stroke:#222255; stroke-linecap:round; stroke-linejoin:round; stroke-width:4; stroke-opacity:0; fill:none" points="1060.31,2002.52 1060.31,1993.07 "/>
<polyline clip-path="url(#clip700)" style="stroke:#222255; stroke-linecap:round; stroke-linejoin:round; stroke-width:4; stroke-opacity:0; fill:none" points="1156.81,2002.52 1156.81,1993.07 "/>
<polyline clip-path="url(#clip700)" style="stroke:#222255; stroke-linecap:round; stroke-linejoin:round; stroke-width:4; stroke-opacity:0; fill:none" points="1253.32,2002.52 1253.32,1993.07 "/>
<polyline clip-path="url(#clip700)" style="stroke:#222255; stroke-linecap:round; stroke-linejoin:round; stroke-width:4; stroke-opacity:0; fill:none" points="1446.32,2002.52 1446.32,1993.07 "/>
<polyline clip-path="url(#clip700)" style="stroke:#222255; stroke-linecap:round; stroke-linejoin:round; stroke-width:4; stroke-opacity:0; fill:none" points="1542.83,2002.52 1542.83,1993.07 "/>
<polyline clip-path="url(#clip700)" style="stroke:#222255; stroke-linecap:round; stroke-linejoin:round; stroke-width:4; stroke-opacity:0; fill:none" points="1639.33,2002.52 1639.33,1993.07 "/>
<polyline clip-path="url(#clip700)" style="stroke:#222255; stroke-linecap:round; stroke-linejoin:round; stroke-width:4; stroke-opacity:0; fill:none" points="1735.84,2002.52 1735.84,1993.07 "/>
<polyline clip-path="url(#clip700)" style="stroke:#222255; stroke-linecap:round; stroke-linejoin:round; stroke-width:4; stroke-opacity:0; fill:none" points="1928.85,2002.52 1928.85,1993.07 "/>
<polyline clip-path="url(#clip700)" style="stroke:#222255; stroke-linecap:round; stroke-linejoin:round; stroke-width:4; stroke-opacity:0; fill:none" points="2025.35,2002.52 2025.35,1993.07 "/>
<polyline clip-path="url(#clip700)" style="stroke:#222255; stroke-linecap:round; stroke-linejoin:round; stroke-width:4; stroke-opacity:0; fill:none" points="2121.86,2002.52 2121.86,1993.07 "/>
<polyline clip-path="url(#clip700)" style="stroke:#222255; stroke-linecap:round; stroke-linejoin:round; stroke-width:4; stroke-opacity:0; fill:none" points="2218.36,2002.52 2218.36,1993.07 "/>
<polyline clip-path="url(#clip700)" style="stroke:#222255; stroke-linecap:round; stroke-linejoin:round; stroke-width:4; stroke-opacity:0; fill:none" points="2411.37,2002.52 2411.37,1993.07 "/>
<polyline clip-path="url(#clip700)" style="stroke:#222255; stroke-linecap:round; stroke-linejoin:round; stroke-width:4; stroke-opacity:0; fill:none" points="2507.88,2002.52 2507.88,1993.07 "/>
<polyline clip-path="url(#clip700)" style="stroke:#222255; stroke-linecap:round; stroke-linejoin:round; stroke-width:4; stroke-opacity:0; fill:none" points="2604.38,2002.52 2604.38,1993.07 "/>
<polyline clip-path="url(#clip700)" style="stroke:#222255; stroke-linecap:round; stroke-linejoin:round; stroke-width:4; stroke-opacity:0; fill:none" points="2700.88,2002.52 2700.88,1993.07 "/>
<path clip-path="url(#clip700)" d="M384.773 2036.64 Q381.162 2036.64 379.334 2040.21 Q377.528 2043.75 377.528 2050.88 Q377.528 2057.98 379.334 2061.55 Q381.162 2065.09 384.773 2065.09 Q388.408 2065.09 390.213 2061.55 Q392.042 2057.98 392.042 2050.88 Q392.042 2043.75 390.213 2040.21 Q388.408 2036.64 384.773 2036.64 M384.773 2032.94 Q390.584 2032.94 393.639 2037.54 Q396.718 2042.13 396.718 2050.88 Q396.718 2059.6 393.639 2064.21 Q390.584 2068.79 384.773 2068.79 Q378.963 2068.79 375.885 2064.21 Q372.829 2059.6 372.829 2050.88 Q372.829 2042.13 375.885 2037.54 Q378.963 2032.94 384.773 2032.94 Z" fill="#000000" fill-rule="nonzero" fill-opacity="1" /><path clip-path="url(#clip700)" d="M830.989 2064.19 L847.308 2064.19 L847.308 2068.12 L825.364 2068.12 L825.364 2064.19 Q828.026 2061.43 832.609 2056.8 Q837.216 2052.15 838.396 2050.81 Q840.642 2048.28 841.521 2046.55 Q842.424 2044.79 842.424 2043.1 Q842.424 2040.35 840.48 2038.61 Q838.558 2036.87 835.456 2036.87 Q833.257 2036.87 830.804 2037.64 Q828.373 2038.4 825.595 2039.95 L825.595 2035.23 Q828.419 2034.1 830.873 2033.52 Q833.327 2032.94 835.364 2032.94 Q840.734 2032.94 843.929 2035.62 Q847.123 2038.31 847.123 2042.8 Q847.123 2044.93 846.313 2046.85 Q845.526 2048.75 843.419 2051.34 Q842.841 2052.01 839.739 2055.23 Q836.637 2058.42 830.989 2064.19 Z" fill="#000000" fill-rule="nonzero" fill-opacity="1" /><path clip-path="url(#clip700)" d="M867.123 2036.64 Q863.512 2036.64 861.683 2040.21 Q859.878 2043.75 859.878 2050.88 Q859.878 2057.98 861.683 2061.55 Q863.512 2065.09 867.123 2065.09 Q870.757 2065.09 872.563 2061.55 Q874.391 2057.98 874.391 2050.88 Q874.391 2043.75 872.563 2040.21 Q870.757 2036.64 867.123 2036.64 M867.123 2032.94 Q872.933 2032.94 875.989 2037.54 Q879.067 2042.13 879.067 2050.88 Q879.067 2059.6 875.989 2064.21 Q872.933 2068.79 867.123 2068.79 Q861.313 2068.79 858.234 2064.21 Q855.179 2059.6 855.179 2050.88 Q855.179 2042.13 858.234 2037.54 Q861.313 2032.94 867.123 2032.94 Z" fill="#000000" fill-rule="nonzero" fill-opacity="1" /><path clip-path="url(#clip700)" d="M897.285 2036.64 Q893.674 2036.64 891.845 2040.21 Q890.04 2043.75 890.04 2050.88 Q890.04 2057.98 891.845 2061.55 Q893.674 2065.09 897.285 2065.09 Q900.919 2065.09 902.725 2061.55 Q904.553 2057.98 904.553 2050.88 Q904.553 2043.75 902.725 2040.21 Q900.919 2036.64 897.285 2036.64 M897.285 2032.94 Q903.095 2032.94 906.151 2037.54 Q909.229 2042.13 909.229 2050.88 Q909.229 2059.6 906.151 2064.21 Q903.095 2068.79 897.285 2068.79 Q891.475 2068.79 888.396 2064.21 Q885.34 2059.6 885.34 2050.88 Q885.34 2042.13 888.396 2037.54 Q891.475 2032.94 897.285 2032.94 Z" fill="#000000" fill-rule="nonzero" fill-opacity="1" /><path clip-path="url(#clip700)" d="M1322.91 2037.64 L1311.1 2056.09 L1322.91 2056.09 L1322.91 2037.64 M1321.68 2033.56 L1327.56 2033.56 L1327.56 2056.09 L1332.49 2056.09 L1332.49 2059.97 L1327.56 2059.97 L1327.56 2068.12 L1322.91 2068.12 L1322.91 2059.97 L1307.31 2059.97 L1307.31 2055.46 L1321.68 2033.56 Z" fill="#000000" fill-rule="nonzero" fill-opacity="1" /><path clip-path="url(#clip700)" d="M1350.22 2036.64 Q1346.61 2036.64 1344.79 2040.21 Q1342.98 2043.75 1342.98 2050.88 Q1342.98 2057.98 1344.79 2061.55 Q1346.61 2065.09 1350.22 2065.09 Q1353.86 2065.09 1355.66 2061.55 Q1357.49 2057.98 1357.49 2050.88 Q1357.49 2043.75 1355.66 2040.21 Q1353.86 2036.64 1350.22 2036.64 M1350.22 2032.94 Q1356.04 2032.94 1359.09 2037.54 Q1362.17 2042.13 1362.17 2050.88 Q1362.17 2059.6 1359.09 2064.21 Q1356.04 2068.79 1350.22 2068.79 Q1344.41 2068.79 1341.34 2064.21 Q1338.28 2059.6 1338.28 2050.88 Q1338.28 2042.13 1341.34 2037.54 Q1344.41 2032.94 1350.22 2032.94 Z" fill="#000000" fill-rule="nonzero" fill-opacity="1" /><path clip-path="url(#clip700)" d="M1380.39 2036.64 Q1376.78 2036.64 1374.95 2040.21 Q1373.14 2043.75 1373.14 2050.88 Q1373.14 2057.98 1374.95 2061.55 Q1376.78 2065.09 1380.39 2065.09 Q1384.02 2065.09 1385.83 2061.55 Q1387.66 2057.98 1387.66 2050.88 Q1387.66 2043.75 1385.83 2040.21 Q1384.02 2036.64 1380.39 2036.64 M1380.39 2032.94 Q1386.2 2032.94 1389.25 2037.54 Q1392.33 2042.13 1392.33 2050.88 Q1392.33 2059.6 1389.25 2064.21 Q1386.2 2068.79 1380.39 2068.79 Q1374.58 2068.79 1371.5 2064.21 Q1368.44 2059.6 1368.44 2050.88 Q1368.44 2042.13 1371.5 2037.54 Q1374.58 2032.94 1380.39 2032.94 Z" fill="#000000" fill-rule="nonzero" fill-opacity="1" /><path clip-path="url(#clip700)" d="M1802.67 2048.98 Q1799.52 2048.98 1797.67 2051.13 Q1795.84 2053.28 1795.84 2057.03 Q1795.84 2060.76 1797.67 2062.94 Q1799.52 2065.09 1802.67 2065.09 Q1805.82 2065.09 1807.64 2062.94 Q1809.5 2060.76 1809.5 2057.03 Q1809.5 2053.28 1807.64 2051.13 Q1805.82 2048.98 1802.67 2048.98 M1811.95 2034.33 L1811.95 2038.59 Q1810.19 2037.75 1808.38 2037.31 Q1806.6 2036.87 1804.84 2036.87 Q1800.21 2036.87 1797.76 2040 Q1795.33 2043.12 1794.98 2049.44 Q1796.35 2047.43 1798.41 2046.36 Q1800.47 2045.28 1802.94 2045.28 Q1808.15 2045.28 1811.16 2048.45 Q1814.19 2051.6 1814.19 2057.03 Q1814.19 2062.36 1811.05 2065.58 Q1807.9 2068.79 1802.67 2068.79 Q1796.67 2068.79 1793.5 2064.21 Q1790.33 2059.6 1790.33 2050.88 Q1790.33 2042.68 1794.22 2037.82 Q1798.11 2032.94 1804.66 2032.94 Q1806.42 2032.94 1808.2 2033.28 Q1810.01 2033.63 1811.95 2034.33 Z" fill="#000000" fill-rule="nonzero" fill-opacity="1" /><path clip-path="url(#clip700)" d="M1832.25 2036.64 Q1828.64 2036.64 1826.81 2040.21 Q1825.01 2043.75 1825.01 2050.88 Q1825.01 2057.98 1826.81 2061.55 Q1828.64 2065.09 1832.25 2065.09 Q1835.88 2065.09 1837.69 2061.55 Q1839.52 2057.98 1839.52 2050.88 Q1839.52 2043.75 1837.69 2040.21 Q1835.88 2036.64 1832.25 2036.64 M1832.25 2032.94 Q1838.06 2032.94 1841.12 2037.54 Q1844.19 2042.13 1844.19 2050.88 Q1844.19 2059.6 1841.12 2064.21 Q1838.06 2068.79 1832.25 2068.79 Q1826.44 2068.79 1823.36 2064.21 Q1820.31 2059.6 1820.31 2050.88 Q1820.31 2042.13 1823.36 2037.54 Q1826.44 2032.94 1832.25 2032.94 Z" fill="#000000" fill-rule="nonzero" fill-opacity="1" /><path clip-path="url(#clip700)" d="M1862.41 2036.64 Q1858.8 2036.64 1856.97 2040.21 Q1855.17 2043.75 1855.17 2050.88 Q1855.17 2057.98 1856.97 2061.55 Q1858.8 2065.09 1862.41 2065.09 Q1866.05 2065.09 1867.85 2061.55 Q1869.68 2057.98 1869.68 2050.88 Q1869.68 2043.75 1867.85 2040.21 Q1866.05 2036.64 1862.41 2036.64 M1862.41 2032.94 Q1868.22 2032.94 1871.28 2037.54 Q1874.36 2042.13 1874.36 2050.88 Q1874.36 2059.6 1871.28 2064.21 Q1868.22 2068.79 1862.41 2068.79 Q1856.6 2068.79 1853.52 2064.21 Q1850.47 2059.6 1850.47 2050.88 Q1850.47 2042.13 1853.52 2037.54 Q1856.6 2032.94 1862.41 2032.94 Z" fill="#000000" fill-rule="nonzero" fill-opacity="1" /><path clip-path="url(#clip700)" d="M2284.66 2051.71 Q2281.32 2051.71 2279.4 2053.49 Q2277.51 2055.28 2277.51 2058.4 Q2277.51 2061.53 2279.4 2063.31 Q2281.32 2065.09 2284.66 2065.09 Q2287.99 2065.09 2289.91 2063.31 Q2291.83 2061.5 2291.83 2058.4 Q2291.83 2055.28 2289.91 2053.49 Q2288.01 2051.71 2284.66 2051.71 M2279.98 2049.72 Q2276.97 2048.98 2275.28 2046.92 Q2273.62 2044.86 2273.62 2041.9 Q2273.62 2037.75 2276.56 2035.35 Q2279.52 2032.94 2284.66 2032.94 Q2289.82 2032.94 2292.76 2035.35 Q2295.7 2037.75 2295.7 2041.9 Q2295.7 2044.86 2294.01 2046.92 Q2292.34 2048.98 2289.36 2049.72 Q2292.74 2050.51 2294.61 2052.8 Q2296.51 2055.09 2296.51 2058.4 Q2296.51 2063.42 2293.43 2066.11 Q2290.38 2068.79 2284.66 2068.79 Q2278.94 2068.79 2275.86 2066.11 Q2272.81 2063.42 2272.81 2058.4 Q2272.81 2055.09 2274.7 2052.8 Q2276.6 2050.51 2279.98 2049.72 M2278.27 2042.34 Q2278.27 2045.02 2279.94 2046.53 Q2281.63 2048.03 2284.66 2048.03 Q2287.67 2048.03 2289.36 2046.53 Q2291.07 2045.02 2291.07 2042.34 Q2291.07 2039.65 2289.36 2038.15 Q2287.67 2036.64 2284.66 2036.64 Q2281.63 2036.64 2279.94 2038.15 Q2278.27 2039.65 2278.27 2042.34 Z" fill="#000000" fill-rule="nonzero" fill-opacity="1" /><path clip-path="url(#clip700)" d="M2314.82 2036.64 Q2311.21 2036.64 2309.38 2040.21 Q2307.57 2043.75 2307.57 2050.88 Q2307.57 2057.98 2309.38 2061.55 Q2311.21 2065.09 2314.82 2065.09 Q2318.45 2065.09 2320.26 2061.55 Q2322.09 2057.98 2322.09 2050.88 Q2322.09 2043.75 2320.26 2040.21 Q2318.45 2036.64 2314.82 2036.64 M2314.82 2032.94 Q2320.63 2032.94 2323.69 2037.54 Q2326.76 2042.13 2326.76 2050.88 Q2326.76 2059.6 2323.69 2064.21 Q2320.63 2068.79 2314.82 2068.79 Q2309.01 2068.79 2305.93 2064.21 Q2302.88 2059.6 2302.88 2050.88 Q2302.88 2042.13 2305.93 2037.54 Q2309.01 2032.94 2314.82 2032.94 Z" fill="#000000" fill-rule="nonzero" fill-opacity="1" /><path clip-path="url(#clip700)" d="M2344.98 2036.64 Q2341.37 2036.64 2339.54 2040.21 Q2337.74 2043.75 2337.74 2050.88 Q2337.74 2057.98 2339.54 2061.55 Q2341.37 2065.09 2344.98 2065.09 Q2348.62 2065.09 2350.42 2061.55 Q2352.25 2057.98 2352.25 2050.88 Q2352.25 2043.75 2350.42 2040.21 Q2348.62 2036.64 2344.98 2036.64 M2344.98 2032.94 Q2350.79 2032.94 2353.85 2037.54 Q2356.93 2042.13 2356.93 2050.88 Q2356.93 2059.6 2353.85 2064.21 Q2350.79 2068.79 2344.98 2068.79 Q2339.17 2068.79 2336.09 2064.21 Q2333.04 2059.6 2333.04 2050.88 Q2333.04 2042.13 2336.09 2037.54 Q2339.17 2032.94 2344.98 2032.94 Z" fill="#000000" fill-rule="nonzero" fill-opacity="1" /><path clip-path="url(#clip700)" d="M1201.08 2105.87 L1207.51 2105.87 L1207.51 2129.36 L1230.49 2105.87 L1238.74 2105.87 L1220.37 2124.65 L1239.69 2153.39 L1232.69 2153.39 L1216.2 2128.91 L1207.51 2137.79 L1207.51 2153.39 L1201.08 2153.39 L1201.08 2105.87 Z" fill="#000000" fill-rule="nonzero" fill-opacity="1" /><path clip-path="url(#clip700)" d="M1260.92 2121.84 Q1256.21 2121.84 1253.47 2125.54 Q1250.74 2129.2 1250.74 2135.59 Q1250.74 2141.99 1253.44 2145.68 Q1256.18 2149.34 1260.92 2149.34 Q1265.6 2149.34 1268.34 2145.65 Q1271.07 2141.96 1271.07 2135.59 Q1271.07 2129.26 1268.34 2125.57 Q1265.6 2121.84 1260.92 2121.84 M1260.92 2116.88 Q1268.56 2116.88 1272.92 2121.84 Q1277.28 2126.81 1277.28 2135.59 Q1277.28 2144.35 1272.92 2149.34 Q1268.56 2154.31 1260.92 2154.31 Q1253.25 2154.31 1248.89 2149.34 Q1244.56 2144.35 1244.56 2135.59 Q1244.56 2126.81 1248.89 2121.84 Q1253.25 2116.88 1260.92 2116.88 Z" fill="#000000" fill-rule="nonzero" fill-opacity="1" /><path clip-path="url(#clip700)" d="M1283.26 2153.39 L1283.26 2148.52 Q1289.06 2147.63 1290.84 2143.62 Q1293 2137.98 1293 2123.56 L1293 2117.74 L1317.1 2117.74 L1317.1 2153.39 L1311.24 2153.39 L1311.24 2122.42 L1298.86 2122.42 L1298.86 2125.95 Q1298.86 2139.7 1296.06 2145.88 Q1293.07 2152.46 1283.26 2153.39 Z" fill="#000000" fill-rule="nonzero" fill-opacity="1" /><path clip-path="url(#clip700)" d="M1358.95 2117.74 L1358.95 2153.39 L1353.13 2153.39 L1353.13 2124.77 L1335.94 2153.39 L1328.43 2153.39 L1328.43 2117.74 L1334.25 2117.74 L1334.25 2146.29 L1351.41 2117.74 L1358.95 2117.74 Z" fill="#000000" fill-rule="nonzero" fill-opacity="1" /><path clip-path="url(#clip700)" d="M1391.61 2153.39 L1391.61 2138.4 L1380.69 2138.4 Q1375.82 2138.4 1372.58 2135.37 Q1369.65 2132.63 1369.65 2126.78 L1369.65 2117.74 L1375.5 2117.74 L1375.5 2126.24 Q1375.5 2129.96 1377.16 2131.84 Q1378.85 2133.72 1382.16 2133.72 L1391.61 2133.72 L1391.61 2117.74 L1397.46 2117.74 L1397.46 2153.39 L1391.61 2153.39 Z" fill="#000000" fill-rule="nonzero" fill-opacity="1" /><path clip-path="url(#clip700)" d="M1440.02 2134.1 L1440.02 2136.96 L1413.09 2136.96 Q1413.47 2143.01 1416.72 2146.19 Q1420 2149.34 1425.82 2149.34 Q1429.2 2149.34 1432.35 2148.52 Q1435.53 2147.69 1438.65 2146.03 L1438.65 2151.57 Q1435.5 2152.91 1432.19 2153.61 Q1428.88 2154.31 1425.47 2154.31 Q1416.94 2154.31 1411.95 2149.34 Q1406.98 2144.38 1406.98 2135.91 Q1406.98 2127.16 1411.69 2122.04 Q1416.43 2116.88 1424.46 2116.88 Q1431.65 2116.88 1435.82 2121.53 Q1440.02 2126.14 1440.02 2134.1 M1434.16 2132.38 Q1434.1 2127.57 1431.46 2124.71 Q1428.85 2121.84 1424.52 2121.84 Q1419.62 2121.84 1416.66 2124.61 Q1413.73 2127.38 1413.28 2132.41 L1434.16 2132.38 Z" fill="#000000" fill-rule="nonzero" fill-opacity="1" /><path clip-path="url(#clip700)" d="M1475.29 2119.11 L1475.29 2124.58 Q1472.8 2123.21 1470.29 2122.54 Q1467.81 2121.84 1465.26 2121.84 Q1459.56 2121.84 1456.41 2125.47 Q1453.26 2129.07 1453.26 2135.59 Q1453.26 2142.12 1456.41 2145.75 Q1459.56 2149.34 1465.26 2149.34 Q1467.81 2149.34 1470.29 2148.68 Q1472.8 2147.98 1475.29 2146.61 L1475.29 2152.02 Q1472.83 2153.16 1470.19 2153.74 Q1467.58 2154.31 1464.62 2154.31 Q1456.57 2154.31 1451.83 2149.25 Q1447.09 2144.19 1447.09 2135.59 Q1447.09 2126.87 1451.86 2121.88 Q1456.67 2116.88 1465.01 2116.88 Q1467.71 2116.88 1470.29 2117.45 Q1472.87 2117.99 1475.29 2119.11 Z" fill="#000000" fill-rule="nonzero" fill-opacity="1" /><path clip-path="url(#clip700)" d="M1481.24 2117.74 L1515.39 2117.74 L1515.39 2122.42 L1501.19 2122.42 L1501.19 2153.39 L1495.43 2153.39 L1495.43 2122.42 L1481.24 2122.42 L1481.24 2117.74 Z" fill="#000000" fill-rule="nonzero" fill-opacity="1" /><path clip-path="url(#clip700)" d="M1529.08 2136.96 L1529.08 2148.71 L1537.41 2148.71 Q1541.43 2148.71 1543.53 2147.21 Q1545.63 2145.68 1545.63 2142.82 Q1545.63 2139.96 1543.53 2138.46 Q1541.43 2136.96 1537.41 2136.96 L1529.08 2136.96 M1529.08 2122.42 L1529.08 2132.28 L1536.78 2132.28 Q1540.09 2132.28 1542.19 2130.98 Q1544.29 2129.64 1544.29 2127.29 Q1544.29 2124.93 1542.19 2123.69 Q1540.09 2122.42 1536.78 2122.42 L1529.08 2122.42 M1523.22 2117.74 L1537.16 2117.74 Q1543.43 2117.74 1546.8 2120.03 Q1550.18 2122.32 1550.18 2126.56 Q1550.18 2129.83 1548.46 2131.78 Q1546.74 2133.68 1543.37 2134.16 Q1547.41 2134.93 1549.64 2137.35 Q1551.87 2139.76 1551.87 2143.39 Q1551.87 2148.17 1548.17 2150.78 Q1544.51 2153.39 1537.7 2153.39 L1523.22 2153.39 L1523.22 2117.74 Z" fill="#000000" fill-rule="nonzero" fill-opacity="1" /><path clip-path="url(#clip700)" d="M1575.67 2121.84 Q1570.96 2121.84 1568.23 2125.54 Q1565.49 2129.2 1565.49 2135.59 Q1565.49 2141.99 1568.19 2145.68 Q1570.93 2149.34 1575.67 2149.34 Q1580.35 2149.34 1583.09 2145.65 Q1585.83 2141.96 1585.83 2135.59 Q1585.83 2129.26 1583.09 2125.57 Q1580.35 2121.84 1575.67 2121.84 M1575.67 2116.88 Q1583.31 2116.88 1587.67 2121.84 Q1592.03 2126.81 1592.03 2135.59 Q1592.03 2144.35 1587.67 2149.34 Q1583.31 2154.31 1575.67 2154.31 Q1568 2154.31 1563.64 2149.34 Q1559.31 2144.35 1559.31 2135.59 Q1559.31 2126.81 1563.64 2121.84 Q1568 2116.88 1575.67 2116.88 Z" fill="#000000" fill-rule="nonzero" fill-opacity="1" /><path clip-path="url(#clip700)" d="M1628.09 2136.96 L1628.09 2148.71 L1636.43 2148.71 Q1640.44 2148.71 1642.54 2147.21 Q1644.65 2145.68 1644.65 2142.82 Q1644.65 2139.96 1642.54 2138.46 Q1640.44 2136.96 1636.43 2136.96 L1628.09 2136.96 M1628.09 2122.42 L1628.09 2132.28 L1635.8 2132.28 Q1639.11 2132.28 1641.21 2130.98 Q1643.31 2129.64 1643.31 2127.29 Q1643.31 2124.93 1641.21 2123.69 Q1639.11 2122.42 1635.8 2122.42 L1628.09 2122.42 M1622.24 2117.74 L1636.18 2117.74 Q1642.45 2117.74 1645.82 2120.03 Q1649.2 2122.32 1649.2 2126.56 Q1649.2 2129.83 1647.48 2131.78 Q1645.76 2133.68 1642.39 2134.16 Q1646.43 2134.93 1648.66 2137.35 Q1650.88 2139.76 1650.88 2143.39 Q1650.88 2148.17 1647.19 2150.78 Q1643.53 2153.39 1636.72 2153.39 L1622.24 2153.39 L1622.24 2117.74 Z" fill="#000000" fill-rule="nonzero" fill-opacity="1" /><path clip-path="url(#clip700)" d="M1691.37 2134.1 L1691.37 2136.96 L1664.44 2136.96 Q1664.82 2143.01 1668.07 2146.19 Q1671.35 2149.34 1677.17 2149.34 Q1680.55 2149.34 1683.7 2148.52 Q1686.88 2147.69 1690 2146.03 L1690 2151.57 Q1686.85 2152.91 1683.54 2153.61 Q1680.23 2154.31 1676.82 2154.31 Q1668.29 2154.31 1663.3 2149.34 Q1658.33 2144.38 1658.33 2135.91 Q1658.33 2127.16 1663.04 2122.04 Q1667.78 2116.88 1675.81 2116.88 Q1683 2116.88 1687.17 2121.53 Q1691.37 2126.14 1691.37 2134.1 M1685.51 2132.38 Q1685.45 2127.57 1682.81 2124.71 Q1680.2 2121.84 1675.87 2121.84 Q1670.97 2121.84 1668.01 2124.61 Q1665.08 2127.38 1664.63 2132.41 L1685.51 2132.38 Z" fill="#000000" fill-rule="nonzero" fill-opacity="1" /><path clip-path="url(#clip700)" d="M1706.65 2148.04 L1706.65 2166.95 L1700.76 2166.95 L1700.76 2117.74 L1706.65 2117.74 L1706.65 2123.15 Q1708.49 2119.97 1711.29 2118.44 Q1714.13 2116.88 1718.04 2116.88 Q1724.53 2116.88 1728.58 2122.04 Q1732.65 2127.19 1732.65 2135.59 Q1732.65 2144 1728.58 2149.15 Q1724.53 2154.31 1718.04 2154.31 Q1714.13 2154.31 1711.29 2152.78 Q1708.49 2151.22 1706.65 2148.04 M1726.57 2135.59 Q1726.57 2129.13 1723.9 2125.47 Q1721.26 2121.78 1716.61 2121.78 Q1711.96 2121.78 1709.29 2125.47 Q1706.65 2129.13 1706.65 2135.59 Q1706.65 2142.06 1709.29 2145.75 Q1711.96 2149.41 1716.61 2149.41 Q1721.26 2149.41 1723.9 2145.75 Q1726.57 2142.06 1726.57 2135.59 Z" fill="#000000" fill-rule="nonzero" fill-opacity="1" /><path clip-path="url(#clip700)" d="M1768.97 2148.71 L1784.05 2148.71 L1784.05 2117.74 L1789.94 2117.74 L1789.94 2153.39 L1742.14 2153.39 L1742.14 2117.74 L1748.02 2117.74 L1748.02 2148.71 L1763.08 2148.71 L1763.08 2117.74 L1768.97 2117.74 L1768.97 2148.71 Z" fill="#000000" fill-rule="nonzero" fill-opacity="1" /><path clip-path="url(#clip700)" d="M1832.31 2117.74 L1832.31 2153.39 L1826.48 2153.39 L1826.48 2124.77 L1809.29 2153.39 L1801.78 2153.39 L1801.78 2117.74 L1807.61 2117.74 L1807.61 2146.29 L1824.76 2117.74 L1832.31 2117.74 Z" fill="#000000" fill-rule="nonzero" fill-opacity="1" /><path clip-path="url(#clip700)" d="M1844.15 2117.74 L1850.03 2117.74 L1850.03 2132.28 L1869.04 2132.28 L1869.04 2117.74 L1874.92 2117.74 L1874.92 2153.39 L1869.04 2153.39 L1869.04 2136.96 L1850.03 2136.96 L1850.03 2153.39 L1844.15 2153.39 L1844.15 2117.74 Z" fill="#000000" fill-rule="nonzero" fill-opacity="1" /><polyline clip-path="url(#clip702)" style="stroke:#222255; stroke-linecap:round; stroke-linejoin:round; stroke-width:2; stroke-opacity:0.5; fill:none" points="323.252,1953.09 2752.76,1953.09 "/>
<polyline clip-path="url(#clip702)" style="stroke:#222255; stroke-linecap:round; stroke-linejoin:round; stroke-width:2; stroke-opacity:0.5; fill:none" points="323.252,1580.4 2752.76,1580.4 "/>
<polyline clip-path="url(#clip702)" style="stroke:#222255; stroke-linecap:round; stroke-linejoin:round; stroke-width:2; stroke-opacity:0.5; fill:none" points="323.252,1207.72 2752.76,1207.72 "/>
<polyline clip-path="url(#clip702)" style="stroke:#222255; stroke-linecap:round; stroke-linejoin:round; stroke-width:2; stroke-opacity:0.5; fill:none" points="323.252,835.038 2752.76,835.038 "/>
<polyline clip-path="url(#clip702)" style="stroke:#222255; stroke-linecap:round; stroke-linejoin:round; stroke-width:2; stroke-opacity:0.5; fill:none" points="323.252,462.355 2752.76,462.355 "/>
<polyline clip-path="url(#clip702)" style="stroke:#222255; stroke-linecap:round; stroke-linejoin:round; stroke-width:2; stroke-opacity:0.3; fill:none" points="323.252,1878.55 2752.76,1878.55 "/>
<polyline clip-path="url(#clip702)" style="stroke:#222255; stroke-linecap:round; stroke-linejoin:round; stroke-width:2; stroke-opacity:0.3; fill:none" points="323.252,1804.01 2752.76,1804.01 "/>
<polyline clip-path="url(#clip702)" style="stroke:#222255; stroke-linecap:round; stroke-linejoin:round; stroke-width:2; stroke-opacity:0.3; fill:none" points="323.252,1729.48 2752.76,1729.48 "/>
<polyline clip-path="url(#clip702)" style="stroke:#222255; stroke-linecap:round; stroke-linejoin:round; stroke-width:2; stroke-opacity:0.3; fill:none" points="323.252,1654.94 2752.76,1654.94 "/>
<polyline clip-path="url(#clip702)" style="stroke:#222255; stroke-linecap:round; stroke-linejoin:round; stroke-width:2; stroke-opacity:0.3; fill:none" points="323.252,1505.87 2752.76,1505.87 "/>
<polyline clip-path="url(#clip702)" style="stroke:#222255; stroke-linecap:round; stroke-linejoin:round; stroke-width:2; stroke-opacity:0.3; fill:none" points="323.252,1431.33 2752.76,1431.33 "/>
<polyline clip-path="url(#clip702)" style="stroke:#222255; stroke-linecap:round; stroke-linejoin:round; stroke-width:2; stroke-opacity:0.3; fill:none" points="323.252,1356.79 2752.76,1356.79 "/>
<polyline clip-path="url(#clip702)" style="stroke:#222255; stroke-linecap:round; stroke-linejoin:round; stroke-width:2; stroke-opacity:0.3; fill:none" points="323.252,1282.26 2752.76,1282.26 "/>
<polyline clip-path="url(#clip702)" style="stroke:#222255; stroke-linecap:round; stroke-linejoin:round; stroke-width:2; stroke-opacity:0.3; fill:none" points="323.252,1133.18 2752.76,1133.18 "/>
<polyline clip-path="url(#clip702)" style="stroke:#222255; stroke-linecap:round; stroke-linejoin:round; stroke-width:2; stroke-opacity:0.3; fill:none" points="323.252,1058.65 2752.76,1058.65 "/>
<polyline clip-path="url(#clip702)" style="stroke:#222255; stroke-linecap:round; stroke-linejoin:round; stroke-width:2; stroke-opacity:0.3; fill:none" points="323.252,984.111 2752.76,984.111 "/>
<polyline clip-path="url(#clip702)" style="stroke:#222255; stroke-linecap:round; stroke-linejoin:round; stroke-width:2; stroke-opacity:0.3; fill:none" points="323.252,909.574 2752.76,909.574 "/>
<polyline clip-path="url(#clip702)" style="stroke:#222255; stroke-linecap:round; stroke-linejoin:round; stroke-width:2; stroke-opacity:0.3; fill:none" points="323.252,760.501 2752.76,760.501 "/>
<polyline clip-path="url(#clip702)" style="stroke:#222255; stroke-linecap:round; stroke-linejoin:round; stroke-width:2; stroke-opacity:0.3; fill:none" points="323.252,685.965 2752.76,685.965 "/>
<polyline clip-path="url(#clip702)" style="stroke:#222255; stroke-linecap:round; stroke-linejoin:round; stroke-width:2; stroke-opacity:0.3; fill:none" points="323.252,611.428 2752.76,611.428 "/>
<polyline clip-path="url(#clip702)" style="stroke:#222255; stroke-linecap:round; stroke-linejoin:round; stroke-width:2; stroke-opacity:0.3; fill:none" points="323.252,536.891 2752.76,536.891 "/>
<polyline clip-path="url(#clip702)" style="stroke:#222255; stroke-linecap:round; stroke-linejoin:round; stroke-width:2; stroke-opacity:0.3; fill:none" points="323.252,387.818 2752.76,387.818 "/>
<polyline clip-path="url(#clip702)" style="stroke:#222255; stroke-linecap:round; stroke-linejoin:round; stroke-width:2; stroke-opacity:0.3; fill:none" points="323.252,313.282 2752.76,313.282 "/>
<polyline clip-path="url(#clip702)" style="stroke:#222255; stroke-linecap:round; stroke-linejoin:round; stroke-width:2; stroke-opacity:0.3; fill:none" points="323.252,238.745 2752.76,238.745 "/>
<polyline clip-path="url(#clip702)" style="stroke:#222255; stroke-linecap:round; stroke-linejoin:round; stroke-width:2; stroke-opacity:0.3; fill:none" points="323.252,164.209 2752.76,164.209 "/>
<polyline clip-path="url(#clip700)" style="stroke:#222255; stroke-linecap:round; stroke-linejoin:round; stroke-width:4; stroke-opacity:0; fill:none" points="323.252,1953.09 342.149,1953.09 "/>
<polyline clip-path="url(#clip700)" style="stroke:#222255; stroke-linecap:round; stroke-linejoin:round; stroke-width:4; stroke-opacity:0; fill:none" points="323.252,1580.4 342.149,1580.4 "/>
<polyline clip-path="url(#clip700)" style="stroke:#222255; stroke-linecap:round; stroke-linejoin:round; stroke-width:4; stroke-opacity:0; fill:none" points="323.252,1207.72 342.149,1207.72 "/>
<polyline clip-path="url(#clip700)" style="stroke:#222255; stroke-linecap:round; stroke-linejoin:round; stroke-width:4; stroke-opacity:0; fill:none" points="323.252,835.038 342.149,835.038 "/>
<polyline clip-path="url(#clip700)" style="stroke:#222255; stroke-linecap:round; stroke-linejoin:round; stroke-width:4; stroke-opacity:0; fill:none" points="323.252,462.355 342.149,462.355 "/>
<polyline clip-path="url(#clip700)" style="stroke:#222255; stroke-linecap:round; stroke-linejoin:round; stroke-width:4; stroke-opacity:0; fill:none" points="323.252,1878.55 332.701,1878.55 "/>
<polyline clip-path="url(#clip700)" style="stroke:#222255; stroke-linecap:round; stroke-linejoin:round; stroke-width:4; stroke-opacity:0; fill:none" points="323.252,1804.01 332.701,1804.01 "/>
<polyline clip-path="url(#clip700)" style="stroke:#222255; stroke-linecap:round; stroke-linejoin:round; stroke-width:4; stroke-opacity:0; fill:none" points="323.252,1729.48 332.701,1729.48 "/>
<polyline clip-path="url(#clip700)" style="stroke:#222255; stroke-linecap:round; stroke-linejoin:round; stroke-width:4; stroke-opacity:0; fill:none" points="323.252,1654.94 332.701,1654.94 "/>
<polyline clip-path="url(#clip700)" style="stroke:#222255; stroke-linecap:round; stroke-linejoin:round; stroke-width:4; stroke-opacity:0; fill:none" points="323.252,1505.87 332.701,1505.87 "/>
<polyline clip-path="url(#clip700)" style="stroke:#222255; stroke-linecap:round; stroke-linejoin:round; stroke-width:4; stroke-opacity:0; fill:none" points="323.252,1431.33 332.701,1431.33 "/>
<polyline clip-path="url(#clip700)" style="stroke:#222255; stroke-linecap:round; stroke-linejoin:round; stroke-width:4; stroke-opacity:0; fill:none" points="323.252,1356.79 332.701,1356.79 "/>
<polyline clip-path="url(#clip700)" style="stroke:#222255; stroke-linecap:round; stroke-linejoin:round; stroke-width:4; stroke-opacity:0; fill:none" points="323.252,1282.26 332.701,1282.26 "/>
<polyline clip-path="url(#clip700)" style="stroke:#222255; stroke-linecap:round; stroke-linejoin:round; stroke-width:4; stroke-opacity:0; fill:none" points="323.252,1133.18 332.701,1133.18 "/>
<polyline clip-path="url(#clip700)" style="stroke:#222255; stroke-linecap:round; stroke-linejoin:round; stroke-width:4; stroke-opacity:0; fill:none" points="323.252,1058.65 332.701,1058.65 "/>
<polyline clip-path="url(#clip700)" style="stroke:#222255; stroke-linecap:round; stroke-linejoin:round; stroke-width:4; stroke-opacity:0; fill:none" points="323.252,984.111 332.701,984.111 "/>
<polyline clip-path="url(#clip700)" style="stroke:#222255; stroke-linecap:round; stroke-linejoin:round; stroke-width:4; stroke-opacity:0; fill:none" points="323.252,909.574 332.701,909.574 "/>
<polyline clip-path="url(#clip700)" style="stroke:#222255; stroke-linecap:round; stroke-linejoin:round; stroke-width:4; stroke-opacity:0; fill:none" points="323.252,760.501 332.701,760.501 "/>
<polyline clip-path="url(#clip700)" style="stroke:#222255; stroke-linecap:round; stroke-linejoin:round; stroke-width:4; stroke-opacity:0; fill:none" points="323.252,685.965 332.701,685.965 "/>
<polyline clip-path="url(#clip700)" style="stroke:#222255; stroke-linecap:round; stroke-linejoin:round; stroke-width:4; stroke-opacity:0; fill:none" points="323.252,611.428 332.701,611.428 "/>
<polyline clip-path="url(#clip700)" style="stroke:#222255; stroke-linecap:round; stroke-linejoin:round; stroke-width:4; stroke-opacity:0; fill:none" points="323.252,536.891 332.701,536.891 "/>
<polyline clip-path="url(#clip700)" style="stroke:#222255; stroke-linecap:round; stroke-linejoin:round; stroke-width:4; stroke-opacity:0; fill:none" points="323.252,387.818 332.701,387.818 "/>
<polyline clip-path="url(#clip700)" style="stroke:#222255; stroke-linecap:round; stroke-linejoin:round; stroke-width:4; stroke-opacity:0; fill:none" points="323.252,313.282 332.701,313.282 "/>
<polyline clip-path="url(#clip700)" style="stroke:#222255; stroke-linecap:round; stroke-linejoin:round; stroke-width:4; stroke-opacity:0; fill:none" points="323.252,238.745 332.701,238.745 "/>
<polyline clip-path="url(#clip700)" style="stroke:#222255; stroke-linecap:round; stroke-linejoin:round; stroke-width:4; stroke-opacity:0; fill:none" points="323.252,164.209 332.701,164.209 "/>
<path clip-path="url(#clip700)" d="M269.307 1938.89 Q265.696 1938.89 263.868 1942.45 Q262.062 1945.99 262.062 1953.12 Q262.062 1960.23 263.868 1963.79 Q265.696 1967.33 269.307 1967.33 Q272.942 1967.33 274.747 1963.79 Q276.576 1960.23 276.576 1953.12 Q276.576 1945.99 274.747 1942.45 Q272.942 1938.89 269.307 1938.89 M269.307 1935.18 Q275.118 1935.18 278.173 1939.79 Q281.252 1944.37 281.252 1953.12 Q281.252 1961.85 278.173 1966.45 Q275.118 1971.04 269.307 1971.04 Q263.497 1971.04 260.419 1966.45 Q257.363 1961.85 257.363 1953.12 Q257.363 1944.37 260.419 1939.79 Q263.497 1935.18 269.307 1935.18 Z" fill="#000000" fill-rule="nonzero" fill-opacity="1" /><path clip-path="url(#clip700)" d="M199.794 1593.75 L207.433 1593.75 L207.433 1567.38 L199.123 1569.05 L199.123 1564.79 L207.386 1563.12 L212.062 1563.12 L212.062 1593.75 L219.701 1593.75 L219.701 1597.68 L199.794 1597.68 L199.794 1593.75 Z" fill="#000000" fill-rule="nonzero" fill-opacity="1" /><path clip-path="url(#clip700)" d="M239.145 1566.2 Q235.534 1566.2 233.706 1569.77 Q231.9 1573.31 231.9 1580.44 Q231.9 1587.54 233.706 1591.11 Q235.534 1594.65 239.145 1594.65 Q242.78 1594.65 244.585 1591.11 Q246.414 1587.54 246.414 1580.44 Q246.414 1573.31 244.585 1569.77 Q242.78 1566.2 239.145 1566.2 M239.145 1562.5 Q244.956 1562.5 248.011 1567.1 Q251.09 1571.69 251.09 1580.44 Q251.09 1589.16 248.011 1593.77 Q244.956 1598.35 239.145 1598.35 Q233.335 1598.35 230.257 1593.77 Q227.201 1589.16 227.201 1580.44 Q227.201 1571.69 230.257 1567.1 Q233.335 1562.5 239.145 1562.5 Z" fill="#000000" fill-rule="nonzero" fill-opacity="1" /><path clip-path="url(#clip700)" d="M269.307 1566.2 Q265.696 1566.2 263.868 1569.77 Q262.062 1573.31 262.062 1580.44 Q262.062 1587.54 263.868 1591.11 Q265.696 1594.65 269.307 1594.65 Q272.942 1594.65 274.747 1591.11 Q276.576 1587.54 276.576 1580.44 Q276.576 1573.31 274.747 1569.77 Q272.942 1566.2 269.307 1566.2 M269.307 1562.5 Q275.118 1562.5 278.173 1567.1 Q281.252 1571.69 281.252 1580.44 Q281.252 1589.16 278.173 1593.77 Q275.118 1598.35 269.307 1598.35 Q263.497 1598.35 260.419 1593.77 Q257.363 1589.16 257.363 1580.44 Q257.363 1571.69 260.419 1567.1 Q263.497 1562.5 269.307 1562.5 Z" fill="#000000" fill-rule="nonzero" fill-opacity="1" /><path clip-path="url(#clip700)" d="M203.011 1221.07 L219.331 1221.07 L219.331 1225 L197.386 1225 L197.386 1221.07 Q200.048 1218.31 204.632 1213.68 Q209.238 1209.03 210.419 1207.69 Q212.664 1205.16 213.544 1203.43 Q214.447 1201.67 214.447 1199.98 Q214.447 1197.22 212.502 1195.49 Q210.581 1193.75 207.479 1193.75 Q205.28 1193.75 202.826 1194.51 Q200.396 1195.28 197.618 1196.83 L197.618 1192.11 Q200.442 1190.97 202.896 1190.39 Q205.349 1189.82 207.386 1189.82 Q212.757 1189.82 215.951 1192.5 Q219.146 1195.19 219.146 1199.68 Q219.146 1201.81 218.335 1203.73 Q217.548 1205.63 215.442 1208.22 Q214.863 1208.89 211.761 1212.11 Q208.66 1215.3 203.011 1221.07 Z" fill="#000000" fill-rule="nonzero" fill-opacity="1" /><path clip-path="url(#clip700)" d="M239.145 1193.52 Q235.534 1193.52 233.706 1197.08 Q231.9 1200.63 231.9 1207.76 Q231.9 1214.86 233.706 1218.43 Q235.534 1221.97 239.145 1221.97 Q242.78 1221.97 244.585 1218.43 Q246.414 1214.86 246.414 1207.76 Q246.414 1200.63 244.585 1197.08 Q242.78 1193.52 239.145 1193.52 M239.145 1189.82 Q244.956 1189.82 248.011 1194.42 Q251.09 1199.01 251.09 1207.76 Q251.09 1216.48 248.011 1221.09 Q244.956 1225.67 239.145 1225.67 Q233.335 1225.67 230.257 1221.09 Q227.201 1216.48 227.201 1207.76 Q227.201 1199.01 230.257 1194.42 Q233.335 1189.82 239.145 1189.82 Z" fill="#000000" fill-rule="nonzero" fill-opacity="1" /><path clip-path="url(#clip700)" d="M269.307 1193.52 Q265.696 1193.52 263.868 1197.08 Q262.062 1200.63 262.062 1207.76 Q262.062 1214.86 263.868 1218.43 Q265.696 1221.97 269.307 1221.97 Q272.942 1221.97 274.747 1218.43 Q276.576 1214.86 276.576 1207.76 Q276.576 1200.63 274.747 1197.08 Q272.942 1193.52 269.307 1193.52 M269.307 1189.82 Q275.118 1189.82 278.173 1194.42 Q281.252 1199.01 281.252 1207.76 Q281.252 1216.48 278.173 1221.09 Q275.118 1225.67 269.307 1225.67 Q263.497 1225.67 260.419 1221.09 Q257.363 1216.48 257.363 1207.76 Q257.363 1199.01 260.419 1194.42 Q263.497 1189.82 269.307 1189.82 Z" fill="#000000" fill-rule="nonzero" fill-opacity="1" /><path clip-path="url(#clip700)" d="M213.15 833.684 Q216.507 834.401 218.382 836.67 Q220.28 838.938 220.28 842.271 Q220.28 847.387 216.761 850.188 Q213.243 852.989 206.761 852.989 Q204.585 852.989 202.271 852.549 Q199.979 852.133 197.525 851.276 L197.525 846.762 Q199.47 847.896 201.785 848.475 Q204.099 849.054 206.622 849.054 Q211.021 849.054 213.312 847.318 Q215.627 845.582 215.627 842.271 Q215.627 839.216 213.474 837.503 Q211.345 835.767 207.525 835.767 L203.498 835.767 L203.498 831.924 L207.71 831.924 Q211.16 831.924 212.988 830.559 Q214.817 829.17 214.817 826.577 Q214.817 823.915 212.919 822.503 Q211.044 821.068 207.525 821.068 Q205.604 821.068 203.405 821.485 Q201.206 821.901 198.567 822.781 L198.567 818.614 Q201.229 817.873 203.544 817.503 Q205.882 817.133 207.942 817.133 Q213.266 817.133 216.368 819.563 Q219.47 821.971 219.47 826.091 Q219.47 828.961 217.826 830.952 Q216.183 832.92 213.15 833.684 Z" fill="#000000" fill-rule="nonzero" fill-opacity="1" /><path clip-path="url(#clip700)" d="M239.145 820.836 Q235.534 820.836 233.706 824.401 Q231.9 827.943 231.9 835.072 Q231.9 842.179 233.706 845.744 Q235.534 849.285 239.145 849.285 Q242.78 849.285 244.585 845.744 Q246.414 842.179 246.414 835.072 Q246.414 827.943 244.585 824.401 Q242.78 820.836 239.145 820.836 M239.145 817.133 Q244.956 817.133 248.011 821.739 Q251.09 826.323 251.09 835.072 Q251.09 843.799 248.011 848.406 Q244.956 852.989 239.145 852.989 Q233.335 852.989 230.257 848.406 Q227.201 843.799 227.201 835.072 Q227.201 826.323 230.257 821.739 Q233.335 817.133 239.145 817.133 Z" fill="#000000" fill-rule="nonzero" fill-opacity="1" /><path clip-path="url(#clip700)" d="M269.307 820.836 Q265.696 820.836 263.868 824.401 Q262.062 827.943 262.062 835.072 Q262.062 842.179 263.868 845.744 Q265.696 849.285 269.307 849.285 Q272.942 849.285 274.747 845.744 Q276.576 842.179 276.576 835.072 Q276.576 827.943 274.747 824.401 Q272.942 820.836 269.307 820.836 M269.307 817.133 Q275.118 817.133 278.173 821.739 Q281.252 826.323 281.252 835.072 Q281.252 843.799 278.173 848.406 Q275.118 852.989 269.307 852.989 Q263.497 852.989 260.419 848.406 Q257.363 843.799 257.363 835.072 Q257.363 826.323 260.419 821.739 Q263.497 817.133 269.307 817.133 Z" fill="#000000" fill-rule="nonzero" fill-opacity="1" /><path clip-path="url(#clip700)" d="M211.831 449.149 L200.025 467.598 L211.831 467.598 L211.831 449.149 M210.604 445.075 L216.484 445.075 L216.484 467.598 L221.414 467.598 L221.414 471.487 L216.484 471.487 L216.484 479.635 L211.831 479.635 L211.831 471.487 L196.229 471.487 L196.229 466.973 L210.604 445.075 Z" fill="#000000" fill-rule="nonzero" fill-opacity="1" /><path clip-path="url(#clip700)" d="M239.145 448.154 Q235.534 448.154 233.706 451.718 Q231.9 455.26 231.9 462.39 Q231.9 469.496 233.706 473.061 Q235.534 476.602 239.145 476.602 Q242.78 476.602 244.585 473.061 Q246.414 469.496 246.414 462.39 Q246.414 455.26 244.585 451.718 Q242.78 448.154 239.145 448.154 M239.145 444.45 Q244.956 444.45 248.011 449.056 Q251.09 453.64 251.09 462.39 Q251.09 471.116 248.011 475.723 Q244.956 480.306 239.145 480.306 Q233.335 480.306 230.257 475.723 Q227.201 471.116 227.201 462.39 Q227.201 453.64 230.257 449.056 Q233.335 444.45 239.145 444.45 Z" fill="#000000" fill-rule="nonzero" fill-opacity="1" /><path clip-path="url(#clip700)" d="M269.307 448.154 Q265.696 448.154 263.868 451.718 Q262.062 455.26 262.062 462.39 Q262.062 469.496 263.868 473.061 Q265.696 476.602 269.307 476.602 Q272.942 476.602 274.747 473.061 Q276.576 469.496 276.576 462.39 Q276.576 455.26 274.747 451.718 Q272.942 448.154 269.307 448.154 M269.307 444.45 Q275.118 444.45 278.173 449.056 Q281.252 453.64 281.252 462.39 Q281.252 471.116 278.173 475.723 Q275.118 480.306 269.307 480.306 Q263.497 480.306 260.419 475.723 Q257.363 471.116 257.363 462.39 Q257.363 453.64 260.419 449.056 Q263.497 444.45 269.307 444.45 Z" fill="#000000" fill-rule="nonzero" fill-opacity="1" /><path clip-path="url(#clip700)" d="M27.3105 1143.32 Q17.1657 1143.32 10.177 1136.84 Q3.15611 1130.34 3.15611 1121.35 Q3.15611 1112.46 10.1448 1105.92 Q17.1335 1099.39 27.3105 1099.39 Q37.4554 1099.39 44.283 1105.92 Q51.1106 1112.46 51.1106 1121.38 Q51.1106 1130.27 44.2508 1136.81 Q37.3909 1143.32 27.3105 1143.32 M27.3105 1136.87 Q33.3008 1136.87 37.8418 1135.36 Q42.3506 1133.81 44.7983 1131.4 Q47.2137 1128.95 48.3731 1126.41 Q49.5326 1123.86 49.5326 1121.35 Q49.5326 1119.39 48.8884 1117.39 Q48.2121 1115.36 46.5696 1113.23 Q44.9271 1111.08 42.4473 1109.47 Q39.9674 1107.86 36.0383 1106.83 Q32.1092 1105.8 27.2461 1105.8 Q21.1914 1105.8 16.586 1107.31 Q11.9483 1108.82 9.46846 1111.27 Q6.98861 1113.72 5.79699 1116.29 Q4.60538 1118.87 4.60538 1121.35 Q4.60538 1123.32 5.31391 1125.34 Q5.99023 1127.37 7.69714 1129.5 Q9.37185 1131.59 11.8839 1133.2 Q14.3638 1134.81 18.3573 1135.84 Q22.3508 1136.87 27.3105 1136.87 M31.8515 1133.17 L22.2864 1133.17 L22.2864 1131.53 L24.6052 1131.53 L24.6052 1111.21 L22.2864 1111.21 L22.2864 1109.5 L31.8515 1109.5 L31.8515 1111.21 L29.5971 1111.21 L29.5971 1131.53 L31.8515 1131.53 L31.8515 1133.17 Z" fill="#000000" fill-rule="nonzero" fill-opacity="1" /><path clip-path="url(#clip700)" d="M50.5798 1057.5 Q54.2996 1057.5 57.9517 1059.1 Q61.5813 1060.68 64.3317 1063.25 Q67.0596 1065.8 68.7504 1069.24 Q70.4412 1072.69 70.4412 1076.21 L70.4412 1091.5 Q70.4412 1092.04 70.4186 1092.26 Q70.3961 1092.46 70.2834 1092.62 Q70.1481 1092.78 69.8776 1092.78 Q69.4492 1092.78 69.2689 1092.6 Q69.066 1092.42 69.0434 1092.22 Q69.0209 1092.01 69.0209 1091.5 Q69.0209 1090.37 68.9533 1089.69 Q68.8856 1089.02 68.7954 1088.59 Q68.6827 1088.14 68.3671 1087.91 Q68.0515 1087.66 67.781 1087.55 Q67.4879 1087.44 66.8341 1087.28 L42.0356 1081.1 Q41.2916 1080.92 41.1789 1080.92 Q40.7957 1080.92 40.6604 1081.15 Q40.5026 1081.35 40.435 1081.94 Q40.3448 1083.06 40.3448 1083.92 Q40.3448 1084.48 40.3222 1084.71 Q40.2997 1084.91 40.187 1085.09 Q40.0517 1085.25 39.7812 1085.25 Q39.3529 1085.25 39.1725 1085.07 Q38.9696 1084.87 38.9471 1084.64 Q38.902 1084.42 38.902 1083.88 L38.902 1068.37 Q38.902 1065.01 40.4801 1062.5 Q42.0356 1060 44.6733 1058.76 Q47.2884 1057.5 50.5798 1057.5 M48.889 1061.53 Q44.5831 1061.53 42.4639 1063.88 Q40.3448 1066.2 40.3448 1069.88 L40.3448 1074.81 Q40.3448 1076.28 40.6153 1076.64 Q40.8633 1077 42.1032 1077.32 L67.4428 1083.65 Q68.2769 1083.88 68.5024 1083.88 Q68.7504 1083.88 68.8405 1083.76 Q68.9082 1083.63 68.9533 1083.27 Q69.0209 1082.86 69.0209 1082.25 L69.0209 1077.04 Q69.0209 1075.04 68.4798 1073.21 Q67.9162 1071.36 67.037 1070.03 Q66.1352 1068.7 65.3687 1067.85 Q64.5797 1066.99 63.7907 1066.38 Q62.0097 1065.01 59.6876 1063.99 Q57.3656 1062.95 55.2464 1062.48 Q53.1048 1061.99 51.5267 1061.76 Q49.926 1061.53 48.889 1061.53 Z" fill="#000000" fill-rule="nonzero" fill-opacity="1" /><path clip-path="url(#clip700)" d="M40.2997 1021.05 L48.2803 1021.98 Q49.0017 1022.04 49.2272 1022.16 Q49.4301 1022.27 49.4301 1022.63 Q49.4301 1023.17 48.889 1023.17 Q48.6636 1023.17 48.0549 1023.08 Q46.8149 1022.95 45.5525 1022.95 Q44.1322 1022.95 43.253 1023.22 Q42.3512 1023.46 41.6974 1024.19 Q41.0437 1024.91 40.7731 1026.24 Q40.4801 1027.57 40.4801 1029.69 L40.4801 1035.77 Q40.4801 1037.26 40.7506 1037.62 Q41.0211 1037.96 42.2836 1038.28 L54.0065 1041.23 L54.0065 1037.04 Q54.0065 1034.11 53.1498 1032.96 Q52.2932 1031.81 49.5653 1031.08 Q49.137 1030.97 48.9792 1030.93 Q48.7988 1030.86 48.7087 1030.75 Q48.5959 1030.61 48.5959 1030.39 Q48.5959 1030.18 48.7312 1030.05 Q48.8439 1029.91 48.9792 1029.87 L49.1144 1029.82 Q49.3399 1029.82 49.8584 1029.96 L59.868 1032.5 Q60.5443 1032.69 60.7021 1032.8 Q60.8374 1032.89 60.8374 1033.2 Q60.8374 1033.43 60.6796 1033.59 Q60.5218 1033.74 60.2738 1033.74 Q60.0032 1033.7 59.7778 1033.61 Q58.4026 1033.29 57.5234 1033.29 Q56.9598 1033.29 56.6216 1033.41 Q56.2835 1033.52 55.9904 1033.9 Q55.6973 1034.29 55.5621 1035.07 Q55.4268 1035.86 55.4268 1037.13 L55.4268 1041.59 L66.9243 1044.45 L67.9839 1044.66 Q68.4573 1044.66 68.6376 1044.41 Q68.818 1044.14 68.9082 1043.17 Q69.0209 1041.73 69.0209 1040.78 Q69.0209 1039.61 69.066 1039.47 Q69.2012 1039.2 69.5619 1039.2 Q69.9677 1039.2 70.1932 1039.38 Q70.3961 1039.56 70.4186 1039.72 Q70.4412 1039.88 70.4412 1040.17 L70.3059 1047.05 L70.4412 1053.13 Q70.4412 1053.83 69.8776 1053.83 Q69.4492 1053.83 69.2689 1053.65 Q69.066 1053.47 69.0434 1053.27 Q69.0209 1053.07 69.0209 1052.55 Q69.0209 1051.42 68.9533 1050.74 Q68.8856 1050.07 68.7954 1049.64 Q68.6827 1049.19 68.3671 1048.96 Q68.0515 1048.71 67.781 1048.6 Q67.4879 1048.49 66.8341 1048.33 L42.4188 1042.24 Q41.5847 1042.02 41.3142 1042.02 Q41.0211 1042.02 40.8408 1042.22 Q40.6604 1042.4 40.5928 1042.9 Q40.5026 1043.39 40.5026 1043.8 Q40.4801 1044.18 40.4801 1045.02 Q40.4801 1045.56 40.4575 1045.78 Q40.435 1045.99 40.3222 1046.14 Q40.2095 1046.3 39.9615 1046.3 Q39.3303 1046.3 39.195 1046.03 Q39.0372 1045.74 39.0372 1044.93 L39.0372 1022.29 Q39.0372 1021.39 39.2401 1021.19 Q39.4205 1020.96 40.2997 1021.05 Z" fill="#000000" fill-rule="nonzero" fill-opacity="1" /><path clip-path="url(#clip700)" d="M38.3609 990.963 L48.4607 993.465 Q49.0694 993.601 49.2272 993.713 Q49.385 993.826 49.385 994.142 Q49.385 994.39 49.2723 994.548 Q49.1595 994.683 49.0468 994.683 L48.9341 994.705 Q48.8665 994.705 48.5283 994.66 Q48.1676 994.615 47.5814 994.57 Q46.9953 994.525 46.3415 994.525 Q42.6443 994.525 40.9309 996.328 Q39.195 998.109 39.195 1001.18 Q39.195 1003.29 40.3222 1005.19 Q41.4495 1007.08 43.2304 1008.16 Q44.9889 1009.25 46.8375 1009.25 Q48.5283 1009.25 49.6104 1008.39 Q50.6925 1007.53 51.0532 1006.43 L51.8874 1003.34 Q52.7215 1000.09 53.0822 999.169 Q53.4204 998.245 54.1869 997.478 Q56.306 995.201 59.5975 995.201 Q62.438 995.201 65.1884 996.802 Q67.9162 998.403 69.6972 1001.15 Q71.4557 1003.9 71.4557 1006.95 Q71.4557 1012.29 68.1417 1014.75 L70.7568 1017 Q71.2528 1017.43 71.3429 1017.57 Q71.4557 1017.68 71.4557 1017.84 Q71.4557 1018.04 71.3204 1018.2 Q71.2077 1018.35 71.0048 1018.35 Q70.847 1018.35 65.5491 1017.02 Q60.2512 1015.69 60.1385 1015.58 Q59.9582 1015.4 59.9582 1015.11 Q59.9582 1014.57 60.4767 1014.57 Q60.6119 1014.61 60.7923 1014.66 Q62.4155 1014.93 63.2947 1014.93 Q64.9404 1014.93 66.2029 1014.36 Q67.4428 1013.8 68.1642 1012.97 Q68.8631 1012.11 69.314 1010.96 Q69.7423 1009.81 69.9001 1008.84 Q70.0354 1007.87 70.0354 1006.86 Q70.0354 1004.67 68.7729 1002.73 Q67.5104 1000.77 65.5491 999.665 Q63.5878 998.538 61.5362 998.538 Q60.4541 998.538 59.62 998.831 Q58.7633 999.124 58.2899 999.53 Q57.8165 999.913 57.4558 1000.57 Q57.0951 1001.22 56.9598 1001.67 Q56.802 1002.1 56.6442 1002.78 L55.3366 1007.71 Q54.7505 1009.7 53.0597 1011.12 Q51.3689 1012.52 48.7763 1012.52 Q46.0485 1012.52 43.5235 1010.91 Q40.976 1009.29 39.443 1006.65 Q37.8875 1003.99 37.8875 1001.13 Q37.8875 998.876 38.7667 997.14 Q39.6234 995.404 41.224 994.525 L38.5864 992.293 Q38.0678 991.842 37.9777 991.752 Q37.8875 991.639 37.8875 991.482 Q37.8875 991.211 38.0453 991.098 Q38.2031 990.963 38.3609 990.963 Z" fill="#000000" fill-rule="nonzero" fill-opacity="1" /><path clip-path="url(#clip700)" d="M89.0492 1143.32 L89.0492 976.257 L85.5292 976.257 L85.5292 1143.32  Z" fill="#000000" fill-rule="evenodd" fill-opacity="1"/>
<path clip-path="url(#clip700)" d="M126.825 1142.15 Q116.68 1142.15 109.692 1135.68 Q102.671 1129.17 102.671 1120.18 Q102.671 1111.3 109.66 1104.76 Q116.648 1098.22 126.825 1098.22 Q136.97 1098.22 143.798 1104.76 Q150.625 1111.3 150.625 1120.22 Q150.625 1129.11 143.766 1135.64 Q136.906 1142.15 126.825 1142.15 M126.825 1135.71 Q132.816 1135.71 137.357 1134.19 Q141.865 1132.65 144.313 1130.23 Q146.728 1127.78 147.888 1125.24 Q149.047 1122.7 149.047 1120.18 Q149.047 1118.22 148.403 1116.22 Q147.727 1114.19 146.084 1112.07 Q144.442 1109.91 141.962 1108.3 Q139.482 1106.69 135.553 1105.66 Q131.624 1104.63 126.761 1104.63 Q120.706 1104.63 116.101 1106.14 Q111.463 1107.66 108.983 1110.1 Q106.503 1112.55 105.312 1115.13 Q104.12 1117.7 104.12 1120.18 Q104.12 1122.15 104.829 1124.18 Q105.505 1126.21 107.212 1128.33 Q108.887 1130.43 111.399 1132.04 Q113.878 1133.65 117.872 1134.68 Q121.866 1135.71 126.825 1135.71 M131.366 1132 L121.801 1132 L121.801 1130.36 L124.12 1130.36 L124.12 1110.04 L121.801 1110.04 L121.801 1108.33 L131.366 1108.33 L131.366 1110.04 L129.112 1110.04 L129.112 1130.36 L131.366 1130.36 L131.366 1132 Z" fill="#000000" fill-rule="nonzero" fill-opacity="1" /><path clip-path="url(#clip700)" d="M144.797 1058.65 Q146.893 1058.65 148.787 1060.1 Q150.658 1061.52 151.853 1063.68 Q153.025 1065.85 153.476 1068.3 Q153.859 1064.99 155.663 1063.07 Q157.466 1061.13 159.991 1061.13 Q161.682 1061.13 163.463 1062.13 Q165.222 1063.1 166.664 1064.76 Q168.107 1066.41 169.032 1068.84 Q169.956 1071.26 169.956 1073.89 L169.956 1090.37 Q169.956 1090.89 169.933 1091.1 Q169.911 1091.3 169.798 1091.46 Q169.685 1091.61 169.437 1091.61 Q168.987 1091.61 168.784 1091.46 Q168.581 1091.28 168.558 1091.07 Q168.536 1090.87 168.536 1090.37 Q168.536 1089.25 168.468 1088.57 Q168.4 1087.89 168.31 1087.47 Q168.197 1087.01 167.882 1086.79 Q167.566 1086.54 167.296 1086.43 Q167.003 1086.32 166.349 1086.16 L141.55 1079.98 Q140.806 1079.8 140.694 1079.8 Q140.265 1079.8 140.153 1080.07 Q140.017 1080.32 139.95 1081.04 L139.86 1082.8 Q139.86 1083.34 139.837 1083.57 Q139.814 1083.77 139.702 1083.93 Q139.589 1084.08 139.341 1084.08 Q138.71 1084.08 138.575 1083.81 Q138.417 1083.52 138.417 1082.75 L138.417 1067.24 Q138.417 1063.25 140.265 1060.95 Q142.091 1058.65 144.797 1058.65 M144.616 1062.85 Q143.76 1062.85 142.993 1063.07 Q142.227 1063.3 141.483 1063.84 Q140.739 1064.36 140.31 1065.39 Q139.86 1066.43 139.86 1067.87 L139.86 1073.85 Q139.86 1075.31 140.13 1075.67 Q140.378 1076.01 141.618 1076.33 L153.048 1079.19 L153.048 1072.45 Q153.048 1070.4 152.304 1068.6 Q151.56 1066.77 150.365 1065.53 Q149.148 1064.29 147.637 1063.57 Q146.127 1062.85 144.616 1062.85 M159.473 1065.44 Q158.797 1065.44 158.143 1065.55 Q157.489 1065.67 156.723 1066.03 Q155.956 1066.39 155.392 1066.95 Q154.829 1067.51 154.446 1068.51 Q154.062 1069.48 154.062 1070.74 L154.062 1079.46 L166.958 1082.66 Q167.792 1082.89 168.017 1082.89 Q168.265 1082.89 168.355 1082.78 Q168.423 1082.64 168.468 1082.28 Q168.536 1081.87 168.536 1081.27 L168.536 1075 Q168.536 1073.01 167.769 1071.21 Q166.98 1069.41 165.718 1068.17 Q164.455 1066.91 162.809 1066.18 Q161.164 1065.44 159.473 1065.44 Z" fill="#000000" fill-rule="nonzero" fill-opacity="1" /><path clip-path="url(#clip700)" d="M139.814 1021.74 L147.795 1022.66 Q148.516 1022.73 148.742 1022.84 Q148.945 1022.96 148.945 1023.32 Q148.945 1023.86 148.404 1023.86 Q148.178 1023.86 147.57 1023.77 Q146.33 1023.63 145.067 1023.63 Q143.647 1023.63 142.768 1023.9 Q141.866 1024.15 141.212 1024.87 Q140.558 1025.59 140.288 1026.93 Q139.995 1028.26 139.995 1030.37 L139.995 1036.46 Q139.995 1037.95 140.265 1038.31 Q140.536 1038.65 141.798 1038.96 L153.521 1041.92 L153.521 1037.72 Q153.521 1034.79 152.665 1033.64 Q151.808 1032.49 149.08 1031.77 Q148.652 1031.66 148.494 1031.61 Q148.314 1031.55 148.223 1031.43 Q148.111 1031.3 148.111 1031.07 Q148.111 1030.87 148.246 1030.73 Q148.359 1030.6 148.494 1030.55 L148.629 1030.51 Q148.855 1030.51 149.373 1030.64 L159.383 1033.19 Q160.059 1033.37 160.217 1033.49 Q160.352 1033.58 160.352 1033.89 Q160.352 1034.12 160.194 1034.27 Q160.037 1034.43 159.789 1034.43 Q159.518 1034.39 159.293 1034.3 Q157.917 1033.98 157.038 1033.98 Q156.475 1033.98 156.136 1034.09 Q155.798 1034.21 155.505 1034.59 Q155.212 1034.97 155.077 1035.76 Q154.942 1036.55 154.942 1037.81 L154.942 1042.28 L166.439 1045.14 L167.499 1045.34 Q167.972 1045.34 168.152 1045.1 Q168.333 1044.83 168.423 1043.86 Q168.536 1042.41 168.536 1041.47 Q168.536 1040.29 168.581 1040.16 Q168.716 1039.89 169.077 1039.89 Q169.482 1039.89 169.708 1040.07 Q169.911 1040.25 169.933 1040.41 Q169.956 1040.56 169.956 1040.86 L169.821 1047.73 L169.956 1053.82 Q169.956 1054.52 169.392 1054.52 Q168.964 1054.52 168.784 1054.34 Q168.581 1054.16 168.558 1053.96 Q168.536 1053.75 168.536 1053.23 Q168.536 1052.11 168.468 1051.43 Q168.4 1050.75 168.31 1050.33 Q168.197 1049.87 167.882 1049.65 Q167.566 1049.4 167.296 1049.29 Q167.003 1049.18 166.349 1049.02 L141.934 1042.93 Q141.099 1042.71 140.829 1042.71 Q140.536 1042.71 140.356 1042.91 Q140.175 1043.09 140.108 1043.59 Q140.017 1044.08 140.017 1044.49 Q139.995 1044.87 139.995 1045.7 Q139.995 1046.25 139.972 1046.47 Q139.95 1046.67 139.837 1046.83 Q139.724 1046.99 139.476 1046.99 Q138.845 1046.99 138.71 1046.72 Q138.552 1046.43 138.552 1045.61 L138.552 1022.98 Q138.552 1022.08 138.755 1021.88 Q138.935 1021.65 139.814 1021.74 Z" fill="#000000" fill-rule="nonzero" fill-opacity="1" /><path clip-path="url(#clip700)" d="M137.876 991.65 L147.975 994.153 Q148.584 994.288 148.742 994.401 Q148.9 994.514 148.9 994.829 Q148.9 995.077 148.787 995.235 Q148.674 995.37 148.562 995.37 L148.449 995.393 Q148.381 995.393 148.043 995.348 Q147.682 995.303 147.096 995.258 Q146.51 995.212 145.856 995.212 Q142.159 995.212 140.446 997.016 Q138.71 998.797 138.71 1001.86 Q138.71 1003.98 139.837 1005.88 Q140.964 1007.77 142.745 1008.85 Q144.504 1009.93 146.352 1009.93 Q148.043 1009.93 149.125 1009.08 Q150.207 1008.22 150.568 1007.12 L151.402 1004.03 Q152.236 1000.78 152.597 999.857 Q152.935 998.932 153.702 998.166 Q155.821 995.889 159.112 995.889 Q161.953 995.889 164.703 997.489 Q167.431 999.09 169.212 1001.84 Q170.97 1004.59 170.97 1007.63 Q170.97 1012.98 167.656 1015.43 L170.272 1017.69 Q170.767 1018.12 170.858 1018.25 Q170.97 1018.37 170.97 1018.52 Q170.97 1018.73 170.835 1018.88 Q170.722 1019.04 170.52 1019.04 Q170.362 1019.04 165.064 1017.71 Q159.766 1016.38 159.653 1016.27 Q159.473 1016.09 159.473 1015.8 Q159.473 1015.25 159.991 1015.25 Q160.127 1015.3 160.307 1015.34 Q161.93 1015.61 162.809 1015.61 Q164.455 1015.61 165.718 1015.05 Q166.958 1014.49 167.679 1013.65 Q168.378 1012.8 168.829 1011.65 Q169.257 1010.5 169.415 1009.53 Q169.55 1008.56 169.55 1007.54 Q169.55 1005.36 168.288 1003.42 Q167.025 1001.46 165.064 1000.35 Q163.103 999.225 161.051 999.225 Q159.969 999.225 159.135 999.518 Q158.278 999.811 157.805 1000.22 Q157.331 1000.6 156.971 1001.25 Q156.61 1001.91 156.475 1002.36 Q156.317 1002.79 156.159 1003.46 L154.851 1008.4 Q154.265 1010.38 152.574 1011.8 Q150.884 1013.2 148.291 1013.2 Q145.563 1013.2 143.038 1011.6 Q140.491 1009.98 138.958 1007.34 Q137.402 1004.68 137.402 1001.82 Q137.402 999.563 138.281 997.828 Q139.138 996.092 140.739 995.212 L138.101 992.981 Q137.583 992.53 137.492 992.44 Q137.402 992.327 137.402 992.169 Q137.402 991.898 137.56 991.786 Q137.718 991.65 137.876 991.65 Z" fill="#000000" fill-rule="nonzero" fill-opacity="1" /><path clip-path="url(#clip700)" d="M346.689 34.2568 Q351.724 35.3331 354.536 38.7359 Q357.383 42.1387 357.383 47.1386 Q357.383 54.8122 352.106 59.0136 Q346.828 63.2149 337.106 63.2149 Q333.842 63.2149 330.37 62.5552 Q326.932 61.9302 323.252 60.6455 L323.252 53.8747 Q326.168 55.5761 329.641 56.4441 Q333.113 57.3122 336.897 57.3122 Q343.495 57.3122 346.932 54.708 Q350.404 52.1039 350.404 47.1386 Q350.404 42.5553 347.175 39.9859 Q343.981 37.3817 338.252 37.3817 L332.21 37.3817 L332.21 31.6179 L338.529 31.6179 Q343.703 31.6179 346.446 29.5693 Q349.189 27.486 349.189 23.5971 Q349.189 19.6041 346.342 17.486 Q343.529 15.3333 338.252 15.3333 Q335.37 15.3333 332.071 15.9582 Q328.773 16.5832 324.814 17.9027 L324.814 11.6527 Q328.807 10.5416 332.279 9.98606 Q335.786 9.43051 338.877 9.43051 Q346.863 9.43051 351.515 13.0763 Q356.168 16.6874 356.168 22.8679 Q356.168 27.1735 353.703 30.1596 Q351.238 33.1109 346.689 34.2568 Z" fill="#000000" fill-rule="nonzero" fill-opacity="1" /><path clip-path="url(#clip700)" d="M370.682 53.3886 L378.008 53.3886 L378.008 62.208 L370.682 62.208 L370.682 53.3886 Z" fill="#000000" fill-rule="nonzero" fill-opacity="1" /><path clip-path="url(#clip700)" d="M399.328 56.3053 L423.807 56.3053 L423.807 62.208 L390.89 62.208 L390.89 56.3053 Q394.883 52.1733 401.758 45.2289 Q408.668 38.2498 410.439 36.2359 Q413.807 32.4512 415.126 29.8471 Q416.48 27.2082 416.48 24.6735 Q416.48 20.5416 413.564 17.9374 Q410.682 15.3333 406.029 15.3333 Q402.73 15.3333 399.05 16.4791 Q395.404 17.6249 391.237 19.9513 L391.237 12.868 Q395.474 11.1666 399.154 10.2986 Q402.835 9.43051 405.89 9.43051 Q413.946 9.43051 418.737 13.4583 Q423.529 17.486 423.529 24.2221 Q423.529 27.4165 422.314 30.2984 Q421.133 33.1457 417.973 37.0345 Q417.105 38.0415 412.453 42.8678 Q407.8 47.6595 399.328 56.3053 Z" fill="#000000" fill-rule="nonzero" fill-opacity="1" /><path clip-path="url(#clip700)" d="M460.508 10.368 L493.286 10.368 L493.286 16.2707 L467.522 16.2707 L467.522 31.6179 L492.209 31.6179 L492.209 37.5206 L467.522 37.5206 L467.522 56.3053 L493.911 56.3053 L493.911 62.208 L460.508 62.208 L460.508 10.368 Z" fill="#000000" fill-rule="nonzero" fill-opacity="1" /><path clip-path="url(#clip700)" d="M527.695 29.2915 Q526.619 28.6665 525.334 28.3887 Q524.084 28.0762 522.556 28.0762 Q517.14 28.0762 514.223 31.6179 Q511.341 35.1248 511.341 41.722 L511.341 62.208 L504.917 62.208 L504.917 23.3193 L511.341 23.3193 L511.341 29.361 Q513.355 25.8193 516.584 24.1179 Q519.813 22.3818 524.431 22.3818 Q525.091 22.3818 525.89 22.486 Q526.688 22.5554 527.66 22.729 L527.695 29.2915 Z" fill="#000000" fill-rule="nonzero" fill-opacity="1" /><path clip-path="url(#clip700)" d="M558.737 29.2221 L558.737 8.18051 L565.125 8.18051 L565.125 62.208 L558.737 62.208 L558.737 56.3747 Q556.723 59.8469 553.632 61.5483 Q550.577 63.2149 546.271 63.2149 Q539.223 63.2149 534.778 57.59 Q530.369 51.965 530.369 42.7984 Q530.369 33.6318 534.778 28.0068 Q539.223 22.3818 546.271 22.3818 Q550.577 22.3818 553.632 24.0832 Q556.723 25.7499 558.737 29.2221 M536.966 42.7984 Q536.966 49.847 539.848 53.8747 Q542.764 57.8677 547.834 57.8677 Q552.903 57.8677 555.82 53.8747 Q558.737 49.847 558.737 42.7984 Q558.737 35.7498 555.82 31.7568 Q552.903 27.729 547.834 27.729 Q542.764 27.729 539.848 31.7568 Q536.966 35.7498 536.966 42.7984 Z" fill="#000000" fill-rule="nonzero" fill-opacity="1" /><path clip-path="url(#clip700)" d="M603.667 5.3333 L609.847 5.3333 L601.236 18.3888 L596.549 18.3888 L603.667 5.3333 M592.07 5.3333 L597.972 5.3333 L590.229 18.3888 L585.473 18.3888 L592.07 5.3333 M593.354 27.7985 Q588.216 27.7985 585.229 31.8262 Q582.243 35.8193 582.243 42.7984 Q582.243 49.7775 585.195 53.8053 Q588.181 57.7983 593.354 57.7983 Q598.459 57.7983 601.445 53.7705 Q604.431 49.7428 604.431 42.7984 Q604.431 35.8887 601.445 31.8609 Q598.459 27.7985 593.354 27.7985 M593.354 22.3818 Q601.688 22.3818 606.445 27.7985 Q611.202 33.2151 611.202 42.7984 Q611.202 52.3469 606.445 57.7983 Q601.688 63.2149 593.354 63.2149 Q584.986 63.2149 580.23 57.7983 Q575.507 52.3469 575.507 42.7984 Q575.507 33.2151 580.23 27.7985 Q584.986 22.3818 593.354 22.3818 Z" fill="#000000" fill-rule="nonzero" fill-opacity="1" /><path clip-path="url(#clip700)" d="M646.583 24.4651 L646.583 30.5068 Q643.875 29.1179 640.958 28.4235 Q638.042 27.729 634.917 27.729 Q630.16 27.729 627.764 29.1873 Q625.403 30.6457 625.403 33.5623 Q625.403 35.7845 627.104 37.0692 Q628.806 38.3192 633.945 39.4651 L636.132 39.9512 Q642.938 41.4095 645.785 44.0831 Q648.667 46.722 648.667 51.4789 Q648.667 56.8955 644.361 60.0552 Q640.09 63.2149 632.59 63.2149 Q629.465 63.2149 626.063 62.5899 Q622.695 61.9997 618.945 60.7844 L618.945 54.1872 Q622.486 56.0275 625.924 56.965 Q629.361 57.8677 632.729 57.8677 Q637.243 57.8677 639.674 56.34 Q642.104 54.7775 642.104 51.965 Q642.104 49.3608 640.333 47.972 Q638.597 46.5831 632.66 45.2984 L630.438 44.7775 Q624.5 43.5275 621.861 40.9581 Q619.222 38.354 619.222 33.8401 Q619.222 28.354 623.111 25.3679 Q627 22.3818 634.153 22.3818 Q637.694 22.3818 640.819 22.9027 Q643.944 23.4235 646.583 24.4651 Z" fill="#000000" fill-rule="nonzero" fill-opacity="1" /><path clip-path="url(#clip700)" d="M655.611 40.229 L684.222 40.229 L684.222 45.2289 L655.611 45.2289 L655.611 40.229 Z" fill="#000000" fill-rule="nonzero" fill-opacity="1" /><path clip-path="url(#clip700)" d="M719.257 37.9026 Q721.513 38.6665 723.632 41.1664 Q725.784 43.6664 727.937 48.0414 L735.055 62.208 L727.52 62.208 L720.888 48.9095 Q718.319 43.7012 715.889 41.9998 Q713.493 40.2984 709.326 40.2984 L701.687 40.2984 L701.687 62.208 L694.673 62.208 L694.673 10.368 L710.507 10.368 Q719.395 10.368 723.77 14.0833 Q728.145 17.7985 728.145 25.2985 Q728.145 30.1943 725.854 33.4234 Q723.597 36.6526 719.257 37.9026 M701.687 16.1319 L701.687 34.5345 L710.507 34.5345 Q715.576 34.5345 718.145 32.2082 Q720.75 29.8471 720.75 25.2985 Q720.75 20.7499 718.145 18.4582 Q715.576 16.1319 710.507 16.1319 L701.687 16.1319 Z" fill="#000000" fill-rule="nonzero" fill-opacity="1" /><path clip-path="url(#clip700)" d="M773.874 41.1664 L773.874 44.2914 L744.499 44.2914 Q744.916 50.8886 748.458 54.3608 Q752.034 57.7983 758.388 57.7983 Q762.069 57.7983 765.506 56.8955 Q768.979 55.9928 772.381 54.1872 L772.381 60.2288 Q768.944 61.6872 765.333 62.4511 Q761.722 63.2149 758.006 63.2149 Q748.701 63.2149 743.249 57.7983 Q737.833 52.3817 737.833 43.1456 Q737.833 33.597 742.972 28.0068 Q748.145 22.3818 756.895 22.3818 Q764.742 22.3818 769.291 27.4512 Q773.874 32.4859 773.874 41.1664 M767.485 39.2915 Q767.416 34.0484 764.534 30.9234 Q761.687 27.7985 756.965 27.7985 Q751.617 27.7985 748.388 30.8193 Q745.194 33.8401 744.708 39.3262 L767.485 39.2915 M761.34 5.3333 L768.249 5.3333 L756.93 18.3888 L751.617 18.3888 L761.34 5.3333 Z" fill="#000000" fill-rule="nonzero" fill-opacity="1" /><path clip-path="url(#clip700)" d="M816.687 38.7359 L816.687 62.208 L810.298 62.208 L810.298 38.9442 Q810.298 33.4234 808.145 30.6804 Q805.992 27.9374 801.687 27.9374 Q796.513 27.9374 793.527 31.2359 Q790.541 34.5345 790.541 40.229 L790.541 62.208 L784.117 62.208 L784.117 23.3193 L790.541 23.3193 L790.541 29.361 Q792.833 25.854 795.923 24.1179 Q799.048 22.3818 803.11 22.3818 Q809.812 22.3818 813.249 26.5485 Q816.687 30.6804 816.687 38.7359 Z" fill="#000000" fill-rule="nonzero" fill-opacity="1" /><path clip-path="url(#clip700)" d="M845.61 65.8191 Q842.902 72.7635 840.332 74.8815 Q837.763 76.9996 833.457 76.9996 L828.353 76.9996 L828.353 71.6524 L832.103 71.6524 Q834.742 71.6524 836.2 70.4024 Q837.659 69.1524 839.43 64.4997 L840.575 61.583 L824.846 23.3193 L831.617 23.3193 L843.77 53.7358 L855.922 23.3193 L862.693 23.3193 L845.61 65.8191 Z" fill="#000000" fill-rule="nonzero" fill-opacity="1" /><path clip-path="url(#clip700)" d="M871.513 23.3193 L877.902 23.3193 L877.902 62.208 L871.513 62.208 L871.513 23.3193 M871.513 8.18051 L877.902 8.18051 L877.902 16.2707 L871.513 16.2707 L871.513 8.18051 Z" fill="#000000" fill-rule="nonzero" fill-opacity="1" /><path clip-path="url(#clip700)" d="M929.221 8.24996 Q924.568 16.236 922.311 24.0485 Q920.054 31.8609 920.054 39.8817 Q920.054 47.9025 922.311 55.7844 Q924.603 63.6316 929.221 71.5829 L923.665 71.5829 Q918.457 63.4233 915.853 55.5414 Q913.283 47.6595 913.283 39.8817 Q913.283 32.1387 915.853 24.2915 Q918.422 16.4444 923.665 8.24996 L929.221 8.24996 Z" fill="#000000" fill-rule="nonzero" fill-opacity="1" /><path clip-path="url(#clip700)" d="M973.943 38.7359 L973.943 62.208 L967.554 62.208 L967.554 38.9442 Q967.554 33.4234 965.401 30.6804 Q963.248 27.9374 958.943 27.9374 Q953.769 27.9374 950.783 31.2359 Q947.797 34.5345 947.797 40.229 L947.797 62.208 L941.373 62.208 L941.373 23.3193 L947.797 23.3193 L947.797 29.361 Q950.089 25.854 953.179 24.1179 Q956.304 22.3818 960.366 22.3818 Q967.068 22.3818 970.505 26.5485 Q973.943 30.6804 973.943 38.7359 Z" fill="#000000" fill-rule="nonzero" fill-opacity="1" /><path clip-path="url(#clip700)" d="M1010.12 29.9165 L1054.64 29.9165 L1054.64 35.7498 L1010.12 35.7498 L1010.12 29.9165 M1010.12 44.0831 L1054.64 44.0831 L1054.64 49.9858 L1010.12 49.9858 L1010.12 44.0831 Z" fill="#000000" fill-rule="nonzero" fill-opacity="1" /><path clip-path="url(#clip700)" d="M1093.59 56.3053 L1105.05 56.3053 L1105.05 16.7569 L1092.59 19.2568 L1092.59 12.868 L1104.98 10.368 L1112 10.368 L1112 56.3053 L1123.46 56.3053 L1123.46 62.208 L1093.59 62.208 L1093.59 56.3053 Z" fill="#000000" fill-rule="nonzero" fill-opacity="1" /><path clip-path="url(#clip700)" d="M1135.71 8.24996 L1141.27 8.24996 Q1146.48 16.4444 1149.05 24.2915 Q1151.65 32.1387 1151.65 39.8817 Q1151.65 47.6595 1149.05 55.5414 Q1146.48 63.4233 1141.27 71.5829 L1135.71 71.5829 Q1140.33 63.6316 1142.59 55.7844 Q1144.88 47.9025 1144.88 39.8817 Q1144.88 31.8609 1142.59 24.0485 Q1140.33 16.236 1135.71 8.24996 Z" fill="#000000" fill-rule="nonzero" fill-opacity="1" /><polyline clip-path="url(#clip702)" style="stroke:#ee7733; stroke-linecap:round; stroke-linejoin:round; stroke-width:16; stroke-opacity:1; fill:none" points="633.273,1894.25 753.904,1852.13 874.534,1808.64 995.165,1764.75 1115.8,1722.73 1236.43,1675.05 1357.06,1630.22 1477.69,1583.02 1598.32,1536.71 1718.95,1483.08 1839.58,1437.53 1960.21,1385.89 2080.84,1339.69 2201.47,1286.27 2322.1,1239.1 2442.73,1184.34 2563.37,1134.58 2684,1083.32 "/>
<polyline clip-path="url(#clip702)" style="stroke:#0077bb; stroke-linecap:round; stroke-linejoin:round; stroke-width:16; stroke-opacity:1; fill:none" points="512.642,1895.41 633.273,1840.64 753.904,1785.33 874.534,1730.19 995.165,1676.09 1115.8,1621.23 1236.43,1566.14 1357.06,1511.36 1477.69,1456.15 1598.32,1401.86 1718.95,1347.44 1839.58,1291.98 1960.21,1237.76 2080.84,1183.05 2201.47,1128.03 2322.1,1073.18 2442.73,1018.79 2563.37,963.432 2684,908.538 "/>
<polyline clip-path="url(#clip702)" style="stroke:#33bbee; stroke-linecap:round; stroke-linejoin:round; stroke-width:16; stroke-opacity:1; fill:none" points="512.642,1886.9 633.273,1824.78 753.904,1763.12 874.534,1701.38 995.165,1637.59 1115.8,1576.17 1236.43,1513.84 1357.06,1452.26 1477.69,1390.59 1598.32,1328.22 1718.95,1266.7 1839.58,1202.86 1960.21,1141.31 2080.84,1080.43 2201.47,1018.26 2322.1,956.064 2442.73,893.357 2563.37,830.74 2684,768.375 "/>
<polyline clip-path="url(#clip702)" style="stroke:#ee3377; stroke-linecap:round; stroke-linejoin:round; stroke-width:16; stroke-opacity:1; fill:none" points="392.011,1949.36 512.642,1878.02 633.273,1806.24 753.904,1733.19 874.534,1661.75 995.165,1591.7 1115.8,1519.27 1236.43,1447.67 1357.06,1376.41 1477.69,1302.96 1598.32,1232.04 1718.95,1160.21 1839.58,1088.39 1960.21,1017.29 2080.84,944.94 2201.47,873.571 2322.1,800.82 2442.73,731.323 2563.37,658.713 2684,587.046 "/>
<polyline clip-path="url(#clip702)" style="stroke:#cc3311; stroke-linecap:round; stroke-linejoin:round; stroke-width:16; stroke-opacity:1; fill:none" points="392.011,1947.5 512.642,1854.33 633.273,1761.15 753.904,1667.98 874.534,1574.81 995.165,1481.64 1115.8,1388.47 1236.43,1295.3 1357.06,1202.13 1477.69,1108.96 1598.32,1015.79 1718.95,922.618 1839.58,829.447 1960.21,736.277 2080.84,643.106 2201.47,549.935 2322.1,456.765 2442.73,363.594 2563.37,270.423 2684,177.252 "/>
<path clip-path="url(#clip700)" d="M2231.76 1939.91 L2671.77 1939.91 L2671.77 1628.87 L2231.76 1628.87  Z" fill="#ffffff" fill-rule="evenodd" fill-opacity="0.9"/>
<polyline clip-path="url(#clip700)" style="stroke:#222255; stroke-linecap:round; stroke-linejoin:round; stroke-width:4; stroke-opacity:0.1; fill:none" points="2231.76,1939.91 2671.77,1939.91 2671.77,1628.87 2231.76,1628.87 2231.76,1939.91 "/>
<polyline clip-path="url(#clip700)" style="stroke:#ee7733; stroke-linecap:round; stroke-linejoin:round; stroke-width:16; stroke-opacity:1; fill:none" points="2258.76,1680.71 2420.72,1680.71 "/>
<path clip-path="url(#clip700)" d="M2452 1694.1 L2452 1707.85 L2447.72 1707.85 L2447.72 1672.06 L2452 1672.06 L2452 1676 Q2453.34 1673.68 2455.38 1672.57 Q2457.44 1671.44 2460.29 1671.44 Q2465.01 1671.44 2467.95 1675.19 Q2470.91 1678.94 2470.91 1685.05 Q2470.91 1691.16 2467.95 1694.91 Q2465.01 1698.66 2460.29 1698.66 Q2457.44 1698.66 2455.38 1697.55 Q2453.34 1696.41 2452 1694.1 M2466.49 1685.05 Q2466.49 1680.35 2464.55 1677.69 Q2462.63 1675 2459.25 1675 Q2455.87 1675 2453.92 1677.69 Q2452 1680.35 2452 1685.05 Q2452 1689.75 2453.92 1692.43 Q2455.87 1695.09 2459.25 1695.09 Q2462.63 1695.09 2464.55 1692.43 Q2466.49 1689.75 2466.49 1685.05 Z" fill="#000000" fill-rule="nonzero" fill-opacity="1" /><path clip-path="url(#clip700)" d="M2493.6 1676.46 L2523.27 1676.46 L2523.27 1680.35 L2493.6 1680.35 L2493.6 1676.46 M2493.6 1685.9 L2523.27 1685.9 L2523.27 1689.84 L2493.6 1689.84 L2493.6 1685.9 Z" fill="#000000" fill-rule="nonzero" fill-opacity="1" /><path clip-path="url(#clip700)" d="M2558.44 1666.51 Q2554.82 1666.51 2553 1670.07 Q2551.19 1673.61 2551.19 1680.74 Q2551.19 1687.85 2553 1691.41 Q2554.82 1694.96 2558.44 1694.96 Q2562.07 1694.96 2563.88 1691.41 Q2565.7 1687.85 2565.7 1680.74 Q2565.7 1673.61 2563.88 1670.07 Q2562.07 1666.51 2558.44 1666.51 M2558.44 1662.8 Q2564.25 1662.8 2567.3 1667.41 Q2570.38 1671.99 2570.38 1680.74 Q2570.38 1689.47 2567.3 1694.08 Q2564.25 1698.66 2558.44 1698.66 Q2552.63 1698.66 2549.55 1694.08 Q2546.49 1689.47 2546.49 1680.74 Q2546.49 1671.99 2549.55 1667.41 Q2552.63 1662.8 2558.44 1662.8 Z" fill="#000000" fill-rule="nonzero" fill-opacity="1" /><path clip-path="url(#clip700)" d="M2578.6 1692.11 L2583.48 1692.11 L2583.48 1697.99 L2578.6 1697.99 L2578.6 1692.11 Z" fill="#000000" fill-rule="nonzero" fill-opacity="1" /><path clip-path="url(#clip700)" d="M2603.67 1666.51 Q2600.06 1666.51 2598.23 1670.07 Q2596.42 1673.61 2596.42 1680.74 Q2596.42 1687.85 2598.23 1691.41 Q2600.06 1694.96 2603.67 1694.96 Q2607.3 1694.96 2609.11 1691.41 Q2610.94 1687.85 2610.94 1680.74 Q2610.94 1673.61 2609.11 1670.07 Q2607.3 1666.51 2603.67 1666.51 M2603.67 1662.8 Q2609.48 1662.8 2612.53 1667.41 Q2615.61 1671.99 2615.61 1680.74 Q2615.61 1689.47 2612.53 1694.08 Q2609.48 1698.66 2603.67 1698.66 Q2597.86 1698.66 2594.78 1694.08 Q2591.72 1689.47 2591.72 1680.74 Q2591.72 1671.99 2594.78 1667.41 Q2597.86 1662.8 2603.67 1662.8 Z" fill="#000000" fill-rule="nonzero" fill-opacity="1" /><path clip-path="url(#clip700)" d="M2623.88 1663.43 L2642.23 1663.43 L2642.23 1667.36 L2628.16 1667.36 L2628.16 1675.84 Q2629.18 1675.49 2630.19 1675.33 Q2631.21 1675.14 2632.23 1675.14 Q2638.02 1675.14 2641.4 1678.31 Q2644.78 1681.48 2644.78 1686.9 Q2644.78 1692.48 2641.31 1695.58 Q2637.83 1698.66 2631.51 1698.66 Q2629.34 1698.66 2627.07 1698.29 Q2624.82 1697.92 2622.42 1697.18 L2622.42 1692.48 Q2624.5 1693.61 2626.72 1694.17 Q2628.94 1694.72 2631.42 1694.72 Q2635.43 1694.72 2637.76 1692.62 Q2640.1 1690.51 2640.1 1686.9 Q2640.1 1683.29 2637.76 1681.18 Q2635.43 1679.08 2631.42 1679.08 Q2629.55 1679.08 2627.67 1679.49 Q2625.82 1679.91 2623.88 1680.79 L2623.88 1663.43 Z" fill="#000000" fill-rule="nonzero" fill-opacity="1" /><polyline clip-path="url(#clip700)" style="stroke:#0077bb; stroke-linecap:round; stroke-linejoin:round; stroke-width:16; stroke-opacity:1; fill:none" points="2258.76,1732.55 2420.72,1732.55 "/>
<path clip-path="url(#clip700)" d="M2452 1745.94 L2452 1759.69 L2447.72 1759.69 L2447.72 1723.9 L2452 1723.9 L2452 1727.84 Q2453.34 1725.52 2455.38 1724.41 Q2457.44 1723.28 2460.29 1723.28 Q2465.01 1723.28 2467.95 1727.03 Q2470.91 1730.78 2470.91 1736.89 Q2470.91 1743 2467.95 1746.75 Q2465.01 1750.5 2460.29 1750.5 Q2457.44 1750.5 2455.38 1749.39 Q2453.34 1748.25 2452 1745.94 M2466.49 1736.89 Q2466.49 1732.19 2464.55 1729.53 Q2462.63 1726.84 2459.25 1726.84 Q2455.87 1726.84 2453.92 1729.53 Q2452 1732.19 2452 1736.89 Q2452 1741.59 2453.92 1744.27 Q2455.87 1746.93 2459.25 1746.93 Q2462.63 1746.93 2464.55 1744.27 Q2466.49 1741.59 2466.49 1736.89 Z" fill="#000000" fill-rule="nonzero" fill-opacity="1" /><path clip-path="url(#clip700)" d="M2493.6 1728.3 L2523.27 1728.3 L2523.27 1732.19 L2493.6 1732.19 L2493.6 1728.3 M2493.6 1737.74 L2523.27 1737.74 L2523.27 1741.68 L2493.6 1741.68 L2493.6 1737.74 Z" fill="#000000" fill-rule="nonzero" fill-opacity="1" /><path clip-path="url(#clip700)" d="M2558.44 1718.35 Q2554.82 1718.35 2553 1721.91 Q2551.19 1725.45 2551.19 1732.58 Q2551.19 1739.69 2553 1743.25 Q2554.82 1746.8 2558.44 1746.8 Q2562.07 1746.8 2563.88 1743.25 Q2565.7 1739.69 2565.7 1732.58 Q2565.7 1725.45 2563.88 1721.91 Q2562.07 1718.35 2558.44 1718.35 M2558.44 1714.64 Q2564.25 1714.64 2567.3 1719.25 Q2570.38 1723.83 2570.38 1732.58 Q2570.38 1741.31 2567.3 1745.92 Q2564.25 1750.5 2558.44 1750.5 Q2552.63 1750.5 2549.55 1745.92 Q2546.49 1741.31 2546.49 1732.58 Q2546.49 1723.83 2549.55 1719.25 Q2552.63 1714.64 2558.44 1714.64 Z" fill="#000000" fill-rule="nonzero" fill-opacity="1" /><path clip-path="url(#clip700)" d="M2578.6 1743.95 L2583.48 1743.95 L2583.48 1749.83 L2578.6 1749.83 L2578.6 1743.95 Z" fill="#000000" fill-rule="nonzero" fill-opacity="1" /><path clip-path="url(#clip700)" d="M2607.83 1731.19 Q2611.19 1731.91 2613.07 1734.18 Q2614.96 1736.45 2614.96 1739.78 Q2614.96 1744.9 2611.44 1747.7 Q2607.93 1750.5 2601.44 1750.5 Q2599.27 1750.5 2596.95 1750.06 Q2594.66 1749.64 2592.21 1748.79 L2592.21 1744.27 Q2594.15 1745.41 2596.47 1745.99 Q2598.78 1746.56 2601.31 1746.56 Q2605.7 1746.56 2608 1744.83 Q2610.31 1743.09 2610.31 1739.78 Q2610.31 1736.73 2608.16 1735.01 Q2606.03 1733.28 2602.21 1733.28 L2598.18 1733.28 L2598.18 1729.43 L2602.39 1729.43 Q2605.84 1729.43 2607.67 1728.07 Q2609.5 1726.68 2609.5 1724.09 Q2609.5 1721.43 2607.6 1720.01 Q2605.73 1718.58 2602.21 1718.58 Q2600.29 1718.58 2598.09 1719 Q2595.89 1719.41 2593.25 1720.29 L2593.25 1716.12 Q2595.91 1715.38 2598.23 1715.01 Q2600.57 1714.64 2602.63 1714.64 Q2607.95 1714.64 2611.05 1717.07 Q2614.15 1719.48 2614.15 1723.6 Q2614.15 1726.47 2612.51 1728.46 Q2610.87 1730.43 2607.83 1731.19 Z" fill="#000000" fill-rule="nonzero" fill-opacity="1" /><polyline clip-path="url(#clip700)" style="stroke:#33bbee; stroke-linecap:round; stroke-linejoin:round; stroke-width:16; stroke-opacity:1; fill:none" points="2258.76,1784.39 2420.72,1784.39 "/>
<path clip-path="url(#clip700)" d="M2452 1797.78 L2452 1811.53 L2447.72 1811.53 L2447.72 1775.74 L2452 1775.74 L2452 1779.68 Q2453.34 1777.36 2455.38 1776.25 Q2457.44 1775.12 2460.29 1775.12 Q2465.01 1775.12 2467.95 1778.87 Q2470.91 1782.62 2470.91 1788.73 Q2470.91 1794.84 2467.95 1798.59 Q2465.01 1802.34 2460.29 1802.34 Q2457.44 1802.34 2455.38 1801.23 Q2453.34 1800.09 2452 1797.78 M2466.49 1788.73 Q2466.49 1784.03 2464.55 1781.37 Q2462.63 1778.68 2459.25 1778.68 Q2455.87 1778.68 2453.92 1781.37 Q2452 1784.03 2452 1788.73 Q2452 1793.43 2453.92 1796.11 Q2455.87 1798.77 2459.25 1798.77 Q2462.63 1798.77 2464.55 1796.11 Q2466.49 1793.43 2466.49 1788.73 Z" fill="#000000" fill-rule="nonzero" fill-opacity="1" /><path clip-path="url(#clip700)" d="M2493.6 1780.14 L2523.27 1780.14 L2523.27 1784.03 L2493.6 1784.03 L2493.6 1780.14 M2493.6 1789.58 L2523.27 1789.58 L2523.27 1793.52 L2493.6 1793.52 L2493.6 1789.58 Z" fill="#000000" fill-rule="nonzero" fill-opacity="1" /><path clip-path="url(#clip700)" d="M2558.44 1770.19 Q2554.82 1770.19 2553 1773.75 Q2551.19 1777.29 2551.19 1784.42 Q2551.19 1791.53 2553 1795.09 Q2554.82 1798.64 2558.44 1798.64 Q2562.07 1798.64 2563.88 1795.09 Q2565.7 1791.53 2565.7 1784.42 Q2565.7 1777.29 2563.88 1773.75 Q2562.07 1770.19 2558.44 1770.19 M2558.44 1766.48 Q2564.25 1766.48 2567.3 1771.09 Q2570.38 1775.67 2570.38 1784.42 Q2570.38 1793.15 2567.3 1797.76 Q2564.25 1802.34 2558.44 1802.34 Q2552.63 1802.34 2549.55 1797.76 Q2546.49 1793.15 2546.49 1784.42 Q2546.49 1775.67 2549.55 1771.09 Q2552.63 1766.48 2558.44 1766.48 Z" fill="#000000" fill-rule="nonzero" fill-opacity="1" /><path clip-path="url(#clip700)" d="M2578.6 1795.79 L2583.48 1795.79 L2583.48 1801.67 L2578.6 1801.67 L2578.6 1795.79 Z" fill="#000000" fill-rule="nonzero" fill-opacity="1" /><path clip-path="url(#clip700)" d="M2593.71 1767.11 L2612.07 1767.11 L2612.07 1771.04 L2598 1771.04 L2598 1779.52 Q2599.01 1779.17 2600.03 1779.01 Q2601.05 1778.82 2602.07 1778.82 Q2607.86 1778.82 2611.24 1781.99 Q2614.62 1785.16 2614.62 1790.58 Q2614.62 1796.16 2611.14 1799.26 Q2607.67 1802.34 2601.35 1802.34 Q2599.18 1802.34 2596.91 1801.97 Q2594.66 1801.6 2592.26 1800.86 L2592.26 1796.16 Q2594.34 1797.29 2596.56 1797.85 Q2598.78 1798.4 2601.26 1798.4 Q2605.26 1798.4 2607.6 1796.3 Q2609.94 1794.19 2609.94 1790.58 Q2609.94 1786.97 2607.6 1784.86 Q2605.26 1782.76 2601.26 1782.76 Q2599.38 1782.76 2597.51 1783.17 Q2595.66 1783.59 2593.71 1784.47 L2593.71 1767.11 Z" fill="#000000" fill-rule="nonzero" fill-opacity="1" /><polyline clip-path="url(#clip700)" style="stroke:#ee3377; stroke-linecap:round; stroke-linejoin:round; stroke-width:16; stroke-opacity:1; fill:none" points="2258.76,1836.23 2420.72,1836.23 "/>
<path clip-path="url(#clip700)" d="M2452 1849.62 L2452 1863.37 L2447.72 1863.37 L2447.72 1827.58 L2452 1827.58 L2452 1831.52 Q2453.34 1829.2 2455.38 1828.09 Q2457.44 1826.96 2460.29 1826.96 Q2465.01 1826.96 2467.95 1830.71 Q2470.91 1834.46 2470.91 1840.57 Q2470.91 1846.68 2467.95 1850.43 Q2465.01 1854.18 2460.29 1854.18 Q2457.44 1854.18 2455.38 1853.07 Q2453.34 1851.93 2452 1849.62 M2466.49 1840.57 Q2466.49 1835.87 2464.55 1833.21 Q2462.63 1830.52 2459.25 1830.52 Q2455.87 1830.52 2453.92 1833.21 Q2452 1835.87 2452 1840.57 Q2452 1845.27 2453.92 1847.95 Q2455.87 1850.61 2459.25 1850.61 Q2462.63 1850.61 2464.55 1847.95 Q2466.49 1845.27 2466.49 1840.57 Z" fill="#000000" fill-rule="nonzero" fill-opacity="1" /><path clip-path="url(#clip700)" d="M2493.6 1831.98 L2523.27 1831.98 L2523.27 1835.87 L2493.6 1835.87 L2493.6 1831.98 M2493.6 1841.42 L2523.27 1841.42 L2523.27 1845.36 L2493.6 1845.36 L2493.6 1841.42 Z" fill="#000000" fill-rule="nonzero" fill-opacity="1" /><path clip-path="url(#clip700)" d="M2558.44 1822.03 Q2554.82 1822.03 2553 1825.59 Q2551.19 1829.13 2551.19 1836.26 Q2551.19 1843.37 2553 1846.93 Q2554.82 1850.48 2558.44 1850.48 Q2562.07 1850.48 2563.88 1846.93 Q2565.7 1843.37 2565.7 1836.26 Q2565.7 1829.13 2563.88 1825.59 Q2562.07 1822.03 2558.44 1822.03 M2558.44 1818.32 Q2564.25 1818.32 2567.3 1822.93 Q2570.38 1827.51 2570.38 1836.26 Q2570.38 1844.99 2567.3 1849.6 Q2564.25 1854.18 2558.44 1854.18 Q2552.63 1854.18 2549.55 1849.6 Q2546.49 1844.99 2546.49 1836.26 Q2546.49 1827.51 2549.55 1822.93 Q2552.63 1818.32 2558.44 1818.32 Z" fill="#000000" fill-rule="nonzero" fill-opacity="1" /><path clip-path="url(#clip700)" d="M2578.6 1847.63 L2583.48 1847.63 L2583.48 1853.51 L2578.6 1853.51 L2578.6 1847.63 Z" fill="#000000" fill-rule="nonzero" fill-opacity="1" /><path clip-path="url(#clip700)" d="M2592.49 1818.95 L2614.71 1818.95 L2614.71 1820.94 L2602.16 1853.51 L2597.28 1853.51 L2609.08 1822.88 L2592.49 1822.88 L2592.49 1818.95 Z" fill="#000000" fill-rule="nonzero" fill-opacity="1" /><polyline clip-path="url(#clip700)" style="stroke:#cc3311; stroke-linecap:round; stroke-linejoin:round; stroke-width:16; stroke-opacity:1; fill:none" points="2258.76,1888.07 2420.72,1888.07 "/>
<path clip-path="url(#clip700)" d="M2452 1901.46 L2452 1915.21 L2447.72 1915.21 L2447.72 1879.42 L2452 1879.42 L2452 1883.36 Q2453.34 1881.04 2455.38 1879.93 Q2457.44 1878.8 2460.29 1878.8 Q2465.01 1878.8 2467.95 1882.55 Q2470.91 1886.3 2470.91 1892.41 Q2470.91 1898.52 2467.95 1902.27 Q2465.01 1906.02 2460.29 1906.02 Q2457.44 1906.02 2455.38 1904.91 Q2453.34 1903.77 2452 1901.46 M2466.49 1892.41 Q2466.49 1887.71 2464.55 1885.05 Q2462.63 1882.36 2459.25 1882.36 Q2455.87 1882.36 2453.92 1885.05 Q2452 1887.71 2452 1892.41 Q2452 1897.11 2453.92 1899.79 Q2455.87 1902.45 2459.25 1902.45 Q2462.63 1902.45 2464.55 1899.79 Q2466.49 1897.11 2466.49 1892.41 Z" fill="#000000" fill-rule="nonzero" fill-opacity="1" /><path clip-path="url(#clip700)" d="M2493.6 1883.82 L2523.27 1883.82 L2523.27 1887.71 L2493.6 1887.71 L2493.6 1883.82 M2493.6 1893.26 L2523.27 1893.26 L2523.27 1897.2 L2493.6 1897.2 L2493.6 1893.26 Z" fill="#000000" fill-rule="nonzero" fill-opacity="1" /><path clip-path="url(#clip700)" d="M2549.25 1901.41 L2556.88 1901.41 L2556.88 1875.05 L2548.57 1876.71 L2548.57 1872.45 L2556.84 1870.79 L2561.51 1870.79 L2561.51 1901.41 L2569.15 1901.41 L2569.15 1905.35 L2549.25 1905.35 L2549.25 1901.41 Z" fill="#000000" fill-rule="nonzero" fill-opacity="1" /></svg>
