<?xml version="1.0" encoding="utf-8"?>
<svg xmlns="http://www.w3.org/2000/svg" xmlns:xlink="http://www.w3.org/1999/xlink" width="900" height="650" viewBox="0 0 3600 2600">
<defs>
  <clipPath id="clip080">
    <rect x="0" y="0" width="3600" height="2600"/>
  </clipPath>
</defs>
<path clip-path="url(#clip080)" d="M0 2600 L3600 2600 L3600 0 L0 0  Z" fill="#ffffff" fill-rule="evenodd" fill-opacity="1"/>
<defs>
  <clipPath id="clip081">
    <rect x="720" y="0" width="2521" height="2521"/>
  </clipPath>
</defs>
<defs>
  <clipPath id="clip082">
    <rect x="234" y="119" width="3319" height="2288"/>
  </clipPath>
</defs>
<path clip-path="url(#clip080)" d="M234.993 2406.34 L3552.76 2406.34 L3552.76 119.152 L234.993 119.152  Z" fill="#ffffff" fill-rule="evenodd" fill-opacity="1"/>
<polyline clip-path="url(#clip082)" style="stroke:#222255; stroke-linecap:round; stroke-linejoin:round; stroke-width:2; stroke-opacity:0.5; fill:none" points="328.892,2406.34 328.892,119.152 "/>
<polyline clip-path="url(#clip082)" style="stroke:#222255; stroke-linecap:round; stroke-linejoin:round; stroke-width:2; stroke-opacity:0.5; fill:none" points="954.885,2406.34 954.885,119.152 "/>
<polyline clip-path="url(#clip082)" style="stroke:#222255; stroke-linecap:round; stroke-linejoin:round; stroke-width:2; stroke-opacity:0.5; fill:none" points="1580.88,2406.34 1580.88,119.152 "/>
<polyline clip-path="url(#clip082)" style="stroke:#222255; stroke-linecap:round; stroke-linejoin:round; stroke-width:2; stroke-opacity:0.5; fill:none" points="2206.87,2406.34 2206.87,119.152 "/>
<polyline clip-path="url(#clip082)" style="stroke:#222255; stroke-linecap:round; stroke-linejoin:round; stroke-width:2; stroke-opacity:0.5; fill:none" points="2832.86,2406.34 2832.86,119.152 "/>
<polyline clip-path="url(#clip082)" style="stroke:#222255; stroke-linecap:round; stroke-linejoin:round; stroke-width:2; stroke-opacity:0.5; fill:none" points="3458.86,2406.34 3458.86,119.152 "/>
<polyline clip-path="url(#clip082)" style="stroke:#222255; stroke-linecap:round; stroke-linejoin:round; stroke-width:2; stroke-opacity:0.3; fill:none" points="454.09,2406.34 454.09,119.152 "/>
<polyline clip-path="url(#clip082)" style="stroke:#222255; stroke-linecap:round; stroke-linejoin:round; stroke-width:2; stroke-opacity:0.3; fill:none" points="579.289,2406.34 579.289,119.152 "/>
<polyline clip-path="url(#clip082)" style="stroke:#222255; stroke-linecap:round; stroke-linejoin:round; stroke-width:2; stroke-opacity:0.3; fill:none" points="704.488,2406.34 704.488,119.152 "/>
<polyline clip-path="url(#clip082)" style="stroke:#222255; stroke-linecap:round; stroke-linejoin:round; stroke-width:2; stroke-opacity:0.3; fill:none" points="829.686,2406.34 829.686,119.152 "/>
<polyline clip-path="url(#clip082)" style="stroke:#222255; stroke-linecap:round; stroke-linejoin:round; stroke-width:2; stroke-opacity:0.3; fill:none" points="1080.08,2406.34 1080.08,119.152 "/>
<polyline clip-path="url(#clip082)" style="stroke:#222255; stroke-linecap:round; stroke-linejoin:round; stroke-width:2; stroke-opacity:0.3; fill:none" points="1205.28,2406.34 1205.28,119.152 "/>
<polyline clip-path="url(#clip082)" style="stroke:#222255; stroke-linecap:round; stroke-linejoin:round; stroke-width:2; stroke-opacity:0.3; fill:none" points="1330.48,2406.34 1330.48,119.152 "/>
<polyline clip-path="url(#clip082)" style="stroke:#222255; stroke-linecap:round; stroke-linejoin:round; stroke-width:2; stroke-opacity:0.3; fill:none" points="1455.68,2406.34 1455.68,119.152 "/>
<polyline clip-path="url(#clip082)" style="stroke:#222255; stroke-linecap:round; stroke-linejoin:round; stroke-width:2; stroke-opacity:0.3; fill:none" points="1706.08,2406.34 1706.08,119.152 "/>
<polyline clip-path="url(#clip082)" style="stroke:#222255; stroke-linecap:round; stroke-linejoin:round; stroke-width:2; stroke-opacity:0.3; fill:none" points="1831.28,2406.34 1831.28,119.152 "/>
<polyline clip-path="url(#clip082)" style="stroke:#222255; stroke-linecap:round; stroke-linejoin:round; stroke-width:2; stroke-opacity:0.3; fill:none" points="1956.47,2406.34 1956.47,119.152 "/>
<polyline clip-path="url(#clip082)" style="stroke:#222255; stroke-linecap:round; stroke-linejoin:round; stroke-width:2; stroke-opacity:0.3; fill:none" points="2081.67,2406.34 2081.67,119.152 "/>
<polyline clip-path="url(#clip082)" style="stroke:#222255; stroke-linecap:round; stroke-linejoin:round; stroke-width:2; stroke-opacity:0.3; fill:none" points="2332.07,2406.34 2332.07,119.152 "/>
<polyline clip-path="url(#clip082)" style="stroke:#222255; stroke-linecap:round; stroke-linejoin:round; stroke-width:2; stroke-opacity:0.3; fill:none" points="2457.27,2406.34 2457.27,119.152 "/>
<polyline clip-path="url(#clip082)" style="stroke:#222255; stroke-linecap:round; stroke-linejoin:round; stroke-width:2; stroke-opacity:0.3; fill:none" points="2582.47,2406.34 2582.47,119.152 "/>
<polyline clip-path="url(#clip082)" style="stroke:#222255; stroke-linecap:round; stroke-linejoin:round; stroke-width:2; stroke-opacity:0.3; fill:none" points="2707.67,2406.34 2707.67,119.152 "/>
<polyline clip-path="url(#clip082)" style="stroke:#222255; stroke-linecap:round; stroke-linejoin:round; stroke-width:2; stroke-opacity:0.3; fill:none" points="2958.06,2406.34 2958.06,119.152 "/>
<polyline clip-path="url(#clip082)" style="stroke:#222255; stroke-linecap:round; stroke-linejoin:round; stroke-width:2; stroke-opacity:0.3; fill:none" points="3083.26,2406.34 3083.26,119.152 "/>
<polyline clip-path="url(#clip082)" style="stroke:#222255; stroke-linecap:round; stroke-linejoin:round; stroke-width:2; stroke-opacity:0.3; fill:none" points="3208.46,2406.34 3208.46,119.152 "/>
<polyline clip-path="url(#clip082)" style="stroke:#222255; stroke-linecap:round; stroke-linejoin:round; stroke-width:2; stroke-opacity:0.3; fill:none" points="3333.66,2406.34 3333.66,119.152 "/>
<polyline clip-path="url(#clip080)" style="stroke:#222255; stroke-linecap:round; stroke-linejoin:round; stroke-width:4; stroke-opacity:0; fill:none" points="328.892,2406.34 328.892,2387.44 "/>
<polyline clip-path="url(#clip080)" style="stroke:#222255; stroke-linecap:round; stroke-linejoin:round; stroke-width:4; stroke-opacity:0; fill:none" points="954.885,2406.34 954.885,2387.44 "/>
<polyline clip-path="url(#clip080)" style="stroke:#222255; stroke-linecap:round; stroke-linejoin:round; stroke-width:4; stroke-opacity:0; fill:none" points="1580.88,2406.34 1580.88,2387.44 "/>
<polyline clip-path="url(#clip080)" style="stroke:#222255; stroke-linecap:round; stroke-linejoin:round; stroke-width:4; stroke-opacity:0; fill:none" points="2206.87,2406.34 2206.87,2387.44 "/>
<polyline clip-path="url(#clip080)" style="stroke:#222255; stroke-linecap:round; stroke-linejoin:round; stroke-width:4; stroke-opacity:0; fill:none" points="2832.86,2406.34 2832.86,2387.44 "/>
<polyline clip-path="url(#clip080)" style="stroke:#222255; stroke-linecap:round; stroke-linejoin:round; stroke-width:4; stroke-opacity:0; fill:none" points="3458.86,2406.34 3458.86,2387.44 "/>
<polyline clip-path="url(#clip080)" style="stroke:#222255; stroke-linecap:round; stroke-linejoin:round; stroke-width:4; stroke-opacity:0; fill:none" points="454.09,2406.34 454.09,2396.89 "/>
<polyline clip-path="url(#clip080)" style="stroke:#222255; stroke-linecap:round; stroke-linejoin:round; stroke-width:4; stroke-opacity:0; fill:none" points="579.289,2406.34 579.289,2396.89 "/>
<polyline clip-path="url(#clip080)" style="stroke:#222255; stroke-linecap:round; stroke-linejoin:round; stroke-width:4; stroke-opacity:0; fill:none" points="704.488,2406.34 704.488,2396.89 "/>
<polyline clip-path="url(#clip080)" style="stroke:#222255; stroke-linecap:round; stroke-linejoin:round; stroke-width:4; stroke-opacity:0; fill:none" points="829.686,2406.34 829.686,2396.89 "/>
<polyline clip-path="url(#clip080)" style="stroke:#222255; stroke-linecap:round; stroke-linejoin:round; stroke-width:4; stroke-opacity:0; fill:none" points="1080.08,2406.34 1080.08,2396.89 "/>
<polyline clip-path="url(#clip080)" style="stroke:#222255; stroke-linecap:round; stroke-linejoin:round; stroke-width:4; stroke-opacity:0; fill:none" points="1205.28,2406.34 1205.28,2396.89 "/>
<polyline clip-path="url(#clip080)" style="stroke:#222255; stroke-linecap:round; stroke-linejoin:round; stroke-width:4; stroke-opacity:0; fill:none" points="1330.48,2406.34 1330.48,2396.89 "/>
<polyline clip-path="url(#clip080)" style="stroke:#222255; stroke-linecap:round; stroke-linejoin:round; stroke-width:4; stroke-opacity:0; fill:none" points="1455.68,2406.34 1455.68,2396.89 "/>
<polyline clip-path="url(#clip080)" style="stroke:#222255; stroke-linecap:round; stroke-linejoin:round; stroke-width:4; stroke-opacity:0; fill:none" points="1706.08,2406.34 1706.08,2396.89 "/>
<polyline clip-path="url(#clip080)" style="stroke:#222255; stroke-linecap:round; stroke-linejoin:round; stroke-width:4; stroke-opacity:0; fill:none" points="1831.28,2406.34 1831.28,2396.89 "/>
<polyline clip-path="url(#clip080)" style="stroke:#222255; stroke-linecap:round; stroke-linejoin:round; stroke-width:4; stroke-opacity:0; fill:none" points="1956.47,2406.34 1956.47,2396.89 "/>
<polyline clip-path="url(#clip080)" style="stroke:#222255; stroke-linecap:round; stroke-linejoin:round; stroke-width:4; stroke-opacity:0; fill:none" points="2081.67,2406.34 2081.67,2396.89 "/>
<polyline clip-path="url(#clip080)" style="stroke:#222255; stroke-linecap:round; stroke-linejoin:round; stroke-width:4; stroke-opacity:0; fill:none" points="2332.07,2406.34 2332.07,2396.89 "/>
<polyline clip-path="url(#clip080)" style="stroke:#222255; stroke-linecap:round; stroke-linejoin:round; stroke-width:4; stroke-opacity:0; fill:none" points="2457.27,2406.34 2457.27,2396.89 "/>
<polyline clip-path="url(#clip080)" style="stroke:#222255; stroke-linecap:round; stroke-linejoin:round; stroke-width:4; stroke-opacity:0; fill:none" points="2582.47,2406.34 2582.47,2396.89 "/>
<polyline clip-path="url(#clip080)" style="stroke:#222255; stroke-linecap:round; stroke-linejoin:round; stroke-width:4; stroke-opacity:0; fill:none" points="2707.67,2406.34 2707.67,2396.89 "/>
<polyline clip-path="url(#clip080)" style="stroke:#222255; stroke-linecap:round; stroke-linejoin:round; stroke-width:4; stroke-opacity:0; fill:none" points="2958.06,2406.34 2958.06,2396.89 "/>
<polyline clip-path="url(#clip080)" style="stroke:#222255; stroke-linecap:round; stroke-linejoin:round; stroke-width:4; stroke-opacity:0; fill:none" points="3083.26,2406.34 3083.26,2396.89 "/>
<polyline clip-path="url(#clip080)" style="stroke:#222255; stroke-linecap:round; stroke-linejoin:round; stroke-width:4; stroke-opacity:0; fill:none" points="3208.46,2406.34 3208.46,2396.89 "/>
<polyline clip-path="url(#clip080)" style="stroke:#222255; stroke-linecap:round; stroke-linejoin:round; stroke-width:4; stroke-opacity:0; fill:none" points="3333.66,2406.34 3333.66,2396.89 "/>
<path clip-path="url(#clip080)" d="M319.17 2443.78 L337.526 2443.78 L337.526 2447.72 L323.452 2447.72 L323.452 2456.19 Q324.471 2455.84 325.489 2455.68 Q326.508 2455.49 327.526 2455.49 Q333.313 2455.49 336.693 2458.66 Q340.072 2461.84 340.072 2467.25 Q340.072 2472.83 336.6 2475.93 Q333.128 2479.01 326.809 2479.01 Q324.633 2479.01 322.364 2478.64 Q320.119 2478.27 317.711 2477.53 L317.711 2472.83 Q319.795 2473.96 322.017 2474.52 Q324.239 2475.08 326.716 2475.08 Q330.721 2475.08 333.059 2472.97 Q335.396 2470.86 335.396 2467.25 Q335.396 2463.64 333.059 2461.53 Q330.721 2459.43 326.716 2459.43 Q324.841 2459.43 322.966 2459.84 Q321.114 2460.26 319.17 2461.14 L319.17 2443.78 Z" fill="#000000" fill-rule="nonzero" fill-opacity="1" /><path clip-path="url(#clip080)" d="M929.573 2474.4 L937.211 2474.4 L937.211 2448.04 L928.901 2449.71 L928.901 2445.45 L937.165 2443.78 L941.841 2443.78 L941.841 2474.4 L949.48 2474.4 L949.48 2478.34 L929.573 2478.34 L929.573 2474.4 Z" fill="#000000" fill-rule="nonzero" fill-opacity="1" /><path clip-path="url(#clip080)" d="M968.924 2446.86 Q965.313 2446.86 963.484 2450.42 Q961.679 2453.96 961.679 2461.09 Q961.679 2468.2 963.484 2471.77 Q965.313 2475.31 968.924 2475.31 Q972.558 2475.31 974.364 2471.77 Q976.193 2468.2 976.193 2461.09 Q976.193 2453.96 974.364 2450.42 Q972.558 2446.86 968.924 2446.86 M968.924 2443.15 Q974.734 2443.15 977.79 2447.76 Q980.869 2452.34 980.869 2461.09 Q980.869 2469.82 977.79 2474.43 Q974.734 2479.01 968.924 2479.01 Q963.114 2479.01 960.035 2474.43 Q956.98 2469.82 956.98 2461.09 Q956.98 2452.34 960.035 2447.76 Q963.114 2443.15 968.924 2443.15 Z" fill="#000000" fill-rule="nonzero" fill-opacity="1" /><path clip-path="url(#clip080)" d="M1556.06 2474.4 L1563.7 2474.4 L1563.7 2448.04 L1555.39 2449.71 L1555.39 2445.45 L1563.66 2443.78 L1568.33 2443.78 L1568.33 2474.4 L1575.97 2474.4 L1575.97 2478.34 L1556.06 2478.34 L1556.06 2474.4 Z" fill="#000000" fill-rule="nonzero" fill-opacity="1" /><path clip-path="url(#clip080)" d="M1585.46 2443.78 L1603.82 2443.78 L1603.82 2447.72 L1589.74 2447.72 L1589.74 2456.19 Q1590.76 2455.84 1591.78 2455.68 Q1592.8 2455.49 1593.82 2455.49 Q1599.6 2455.49 1602.98 2458.66 Q1606.36 2461.84 1606.36 2467.25 Q1606.36 2472.83 1602.89 2475.93 Q1599.42 2479.01 1593.1 2479.01 Q1590.92 2479.01 1588.66 2478.64 Q1586.41 2478.27 1584 2477.53 L1584 2472.83 Q1586.09 2473.96 1588.31 2474.52 Q1590.53 2475.08 1593.01 2475.08 Q1597.01 2475.08 1599.35 2472.97 Q1601.69 2470.86 1601.69 2467.25 Q1601.69 2463.64 1599.35 2461.53 Q1597.01 2459.43 1593.01 2459.43 Q1591.13 2459.43 1589.26 2459.84 Q1587.41 2460.26 1585.46 2461.14 L1585.46 2443.78 Z" fill="#000000" fill-rule="nonzero" fill-opacity="1" /><path clip-path="url(#clip080)" d="M2185.64 2474.4 L2201.96 2474.4 L2201.96 2478.34 L2180.02 2478.34 L2180.02 2474.4 Q2182.68 2471.65 2187.26 2467.02 Q2191.87 2462.37 2193.05 2461.03 Q2195.3 2458.5 2196.18 2456.77 Q2197.08 2455.01 2197.08 2453.32 Q2197.08 2450.56 2195.13 2448.83 Q2193.21 2447.09 2190.11 2447.09 Q2187.91 2447.09 2185.46 2447.85 Q2183.03 2448.62 2180.25 2450.17 L2180.25 2445.45 Q2183.07 2444.31 2185.53 2443.73 Q2187.98 2443.15 2190.02 2443.15 Q2195.39 2443.15 2198.58 2445.84 Q2201.78 2448.53 2201.78 2453.02 Q2201.78 2455.15 2200.97 2457.07 Q2200.18 2458.96 2198.07 2461.56 Q2197.5 2462.23 2194.39 2465.45 Q2191.29 2468.64 2185.64 2474.4 Z" fill="#000000" fill-rule="nonzero" fill-opacity="1" /><path clip-path="url(#clip080)" d="M2221.78 2446.86 Q2218.17 2446.86 2216.34 2450.42 Q2214.53 2453.96 2214.53 2461.09 Q2214.53 2468.2 2216.34 2471.77 Q2218.17 2475.31 2221.78 2475.31 Q2225.41 2475.31 2227.22 2471.77 Q2229.05 2468.2 2229.05 2461.09 Q2229.05 2453.96 2227.22 2450.42 Q2225.41 2446.86 2221.78 2446.86 M2221.78 2443.15 Q2227.59 2443.15 2230.64 2447.76 Q2233.72 2452.34 2233.72 2461.09 Q2233.72 2469.82 2230.64 2474.43 Q2227.59 2479.01 2221.78 2479.01 Q2215.97 2479.01 2212.89 2474.43 Q2209.83 2469.82 2209.83 2461.09 Q2209.83 2452.34 2212.89 2447.76 Q2215.97 2443.15 2221.78 2443.15 Z" fill="#000000" fill-rule="nonzero" fill-opacity="1" /><path clip-path="url(#clip080)" d="M2812.13 2474.4 L2828.45 2474.4 L2828.45 2478.34 L2806.51 2478.34 L2806.51 2474.4 Q2809.17 2471.65 2813.76 2467.02 Q2818.36 2462.37 2819.54 2461.03 Q2821.79 2458.5 2822.67 2456.77 Q2823.57 2455.01 2823.57 2453.32 Q2823.57 2450.56 2821.63 2448.83 Q2819.7 2447.09 2816.6 2447.09 Q2814.4 2447.09 2811.95 2447.85 Q2809.52 2448.62 2806.74 2450.17 L2806.74 2445.45 Q2809.57 2444.31 2812.02 2443.73 Q2814.47 2443.15 2816.51 2443.15 Q2821.88 2443.15 2825.07 2445.84 Q2828.27 2448.53 2828.27 2453.02 Q2828.27 2455.15 2827.46 2457.07 Q2826.67 2458.96 2824.57 2461.56 Q2823.99 2462.23 2820.88 2465.45 Q2817.78 2468.64 2812.13 2474.4 Z" fill="#000000" fill-rule="nonzero" fill-opacity="1" /><path clip-path="url(#clip080)" d="M2838.32 2443.78 L2856.67 2443.78 L2856.67 2447.72 L2842.6 2447.72 L2842.6 2456.19 Q2843.62 2455.84 2844.63 2455.68 Q2845.65 2455.49 2846.67 2455.49 Q2852.46 2455.49 2855.84 2458.66 Q2859.22 2461.84 2859.22 2467.25 Q2859.22 2472.83 2855.75 2475.93 Q2852.27 2479.01 2845.95 2479.01 Q2843.78 2479.01 2841.51 2478.64 Q2839.26 2478.27 2836.86 2477.53 L2836.86 2472.83 Q2838.94 2473.96 2841.16 2474.52 Q2843.38 2475.08 2845.86 2475.08 Q2849.87 2475.08 2852.2 2472.97 Q2854.54 2470.86 2854.54 2467.25 Q2854.54 2463.64 2852.2 2461.53 Q2849.87 2459.43 2845.86 2459.43 Q2843.99 2459.43 2842.11 2459.84 Q2840.26 2460.26 2838.32 2461.14 L2838.32 2443.78 Z" fill="#000000" fill-rule="nonzero" fill-opacity="1" /><path clip-path="url(#clip080)" d="M3447.7 2459.71 Q3451.06 2460.42 3452.93 2462.69 Q3454.83 2464.96 3454.83 2468.29 Q3454.83 2473.41 3451.31 2476.21 Q3447.79 2479.01 3441.31 2479.01 Q3439.13 2479.01 3436.82 2478.57 Q3434.53 2478.15 3432.07 2477.3 L3432.07 2472.78 Q3434.02 2473.92 3436.33 2474.5 Q3438.65 2475.08 3441.17 2475.08 Q3445.57 2475.08 3447.86 2473.34 Q3450.18 2471.6 3450.18 2468.29 Q3450.18 2465.24 3448.02 2463.53 Q3445.89 2461.79 3442.07 2461.79 L3438.05 2461.79 L3438.05 2457.95 L3442.26 2457.95 Q3445.71 2457.95 3447.54 2456.58 Q3449.37 2455.19 3449.37 2452.6 Q3449.37 2449.94 3447.47 2448.53 Q3445.59 2447.09 3442.07 2447.09 Q3440.15 2447.09 3437.95 2447.51 Q3435.76 2447.92 3433.12 2448.8 L3433.12 2444.64 Q3435.78 2443.9 3438.09 2443.53 Q3440.43 2443.15 3442.49 2443.15 Q3447.82 2443.15 3450.92 2445.59 Q3454.02 2447.99 3454.02 2452.11 Q3454.02 2454.98 3452.38 2456.97 Q3450.73 2458.94 3447.7 2459.71 Z" fill="#000000" fill-rule="nonzero" fill-opacity="1" /><path clip-path="url(#clip080)" d="M3473.69 2446.86 Q3470.08 2446.86 3468.26 2450.42 Q3466.45 2453.96 3466.45 2461.09 Q3466.45 2468.2 3468.26 2471.77 Q3470.08 2475.31 3473.69 2475.31 Q3477.33 2475.31 3479.13 2471.77 Q3480.96 2468.2 3480.96 2461.09 Q3480.96 2453.96 3479.13 2450.42 Q3477.33 2446.86 3473.69 2446.86 M3473.69 2443.15 Q3479.5 2443.15 3482.56 2447.76 Q3485.64 2452.34 3485.64 2461.09 Q3485.64 2469.82 3482.56 2474.43 Q3479.5 2479.01 3473.69 2479.01 Q3467.88 2479.01 3464.81 2474.43 Q3461.75 2469.82 3461.75 2461.09 Q3461.75 2452.34 3464.81 2447.76 Q3467.88 2443.15 3473.69 2443.15 Z" fill="#000000" fill-rule="nonzero" fill-opacity="1" /><path clip-path="url(#clip080)" d="M1875.89 2521.68 L1884.55 2521.68 L1905.62 2561.44 L1905.62 2521.68 L1911.86 2521.68 L1911.86 2569.2 L1903.2 2569.2 L1882.13 2529.45 L1882.13 2569.2 L1875.89 2569.2 L1875.89 2521.68 Z" fill="#000000" fill-rule="nonzero" fill-opacity="1" /><polyline clip-path="url(#clip082)" style="stroke:#222255; stroke-linecap:round; stroke-linejoin:round; stroke-width:2; stroke-opacity:0.5; fill:none" points="234.993,1978.51 3552.76,1978.51 "/>
<polyline clip-path="url(#clip082)" style="stroke:#222255; stroke-linecap:round; stroke-linejoin:round; stroke-width:2; stroke-opacity:0.5; fill:none" points="234.993,1413.21 3552.76,1413.21 "/>
<polyline clip-path="url(#clip082)" style="stroke:#222255; stroke-linecap:round; stroke-linejoin:round; stroke-width:2; stroke-opacity:0.5; fill:none" points="234.993,847.907 3552.76,847.907 "/>
<polyline clip-path="url(#clip082)" style="stroke:#222255; stroke-linecap:round; stroke-linejoin:round; stroke-width:2; stroke-opacity:0.5; fill:none" points="234.993,282.605 3552.76,282.605 "/>
<polyline clip-path="url(#clip082)" style="stroke:#222255; stroke-linecap:round; stroke-linejoin:round; stroke-width:2; stroke-opacity:0.3; fill:none" points="234.993,2317.69 3552.76,2317.69 "/>
<polyline clip-path="url(#clip082)" style="stroke:#222255; stroke-linecap:round; stroke-linejoin:round; stroke-width:2; stroke-opacity:0.3; fill:none" points="234.993,2204.63 3552.76,2204.63 "/>
<polyline clip-path="url(#clip082)" style="stroke:#222255; stroke-linecap:round; stroke-linejoin:round; stroke-width:2; stroke-opacity:0.3; fill:none" points="234.993,2091.57 3552.76,2091.57 "/>
<polyline clip-path="url(#clip082)" style="stroke:#222255; stroke-linecap:round; stroke-linejoin:round; stroke-width:2; stroke-opacity:0.3; fill:none" points="234.993,1865.45 3552.76,1865.45 "/>
<polyline clip-path="url(#clip082)" style="stroke:#222255; stroke-linecap:round; stroke-linejoin:round; stroke-width:2; stroke-opacity:0.3; fill:none" points="234.993,1752.39 3552.76,1752.39 "/>
<polyline clip-path="url(#clip082)" style="stroke:#222255; stroke-linecap:round; stroke-linejoin:round; stroke-width:2; stroke-opacity:0.3; fill:none" points="234.993,1639.33 3552.76,1639.33 "/>
<polyline clip-path="url(#clip082)" style="stroke:#222255; stroke-linecap:round; stroke-linejoin:round; stroke-width:2; stroke-opacity:0.3; fill:none" points="234.993,1526.27 3552.76,1526.27 "/>
<polyline clip-path="url(#clip082)" style="stroke:#222255; stroke-linecap:round; stroke-linejoin:round; stroke-width:2; stroke-opacity:0.3; fill:none" points="234.993,1300.15 3552.76,1300.15 "/>
<polyline clip-path="url(#clip082)" style="stroke:#222255; stroke-linecap:round; stroke-linejoin:round; stroke-width:2; stroke-opacity:0.3; fill:none" points="234.993,1187.09 3552.76,1187.09 "/>
<polyline clip-path="url(#clip082)" style="stroke:#222255; stroke-linecap:round; stroke-linejoin:round; stroke-width:2; stroke-opacity:0.3; fill:none" points="234.993,1074.03 3552.76,1074.03 "/>
<polyline clip-path="url(#clip082)" style="stroke:#222255; stroke-linecap:round; stroke-linejoin:round; stroke-width:2; stroke-opacity:0.3; fill:none" points="234.993,960.967 3552.76,960.967 "/>
<polyline clip-path="url(#clip082)" style="stroke:#222255; stroke-linecap:round; stroke-linejoin:round; stroke-width:2; stroke-opacity:0.3; fill:none" points="234.993,734.846 3552.76,734.846 "/>
<polyline clip-path="url(#clip082)" style="stroke:#222255; stroke-linecap:round; stroke-linejoin:round; stroke-width:2; stroke-opacity:0.3; fill:none" points="234.993,621.786 3552.76,621.786 "/>
<polyline clip-path="url(#clip082)" style="stroke:#222255; stroke-linecap:round; stroke-linejoin:round; stroke-width:2; stroke-opacity:0.3; fill:none" points="234.993,508.725 3552.76,508.725 "/>
<polyline clip-path="url(#clip082)" style="stroke:#222255; stroke-linecap:round; stroke-linejoin:round; stroke-width:2; stroke-opacity:0.3; fill:none" points="234.993,395.665 3552.76,395.665 "/>
<polyline clip-path="url(#clip082)" style="stroke:#222255; stroke-linecap:round; stroke-linejoin:round; stroke-width:2; stroke-opacity:0.3; fill:none" points="234.993,169.544 3552.76,169.544 "/>
<polyline clip-path="url(#clip080)" style="stroke:#222255; stroke-linecap:round; stroke-linejoin:round; stroke-width:4; stroke-opacity:0; fill:none" points="234.993,1978.51 253.891,1978.51 "/>
<polyline clip-path="url(#clip080)" style="stroke:#222255; stroke-linecap:round; stroke-linejoin:round; stroke-width:4; stroke-opacity:0; fill:none" points="234.993,1413.21 253.891,1413.21 "/>
<polyline clip-path="url(#clip080)" style="stroke:#222255; stroke-linecap:round; stroke-linejoin:round; stroke-width:4; stroke-opacity:0; fill:none" points="234.993,847.907 253.891,847.907 "/>
<polyline clip-path="url(#clip080)" style="stroke:#222255; stroke-linecap:round; stroke-linejoin:round; stroke-width:4; stroke-opacity:0; fill:none" points="234.993,282.605 253.891,282.605 "/>
<polyline clip-path="url(#clip080)" style="stroke:#222255; stroke-linecap:round; stroke-linejoin:round; stroke-width:4; stroke-opacity:0; fill:none" points="234.993,2317.69 244.442,2317.69 "/>
<polyline clip-path="url(#clip080)" style="stroke:#222255; stroke-linecap:round; stroke-linejoin:round; stroke-width:4; stroke-opacity:0; fill:none" points="234.993,2204.63 244.442,2204.63 "/>
<polyline clip-path="url(#clip080)" style="stroke:#222255; stroke-linecap:round; stroke-linejoin:round; stroke-width:4; stroke-opacity:0; fill:none" points="234.993,2091.57 244.442,2091.57 "/>
<polyline clip-path="url(#clip080)" style="stroke:#222255; stroke-linecap:round; stroke-linejoin:round; stroke-width:4; stroke-opacity:0; fill:none" points="234.993,1865.45 244.442,1865.45 "/>
<polyline clip-path="url(#clip080)" style="stroke:#222255; stroke-linecap:round; stroke-linejoin:round; stroke-width:4; stroke-opacity:0; fill:none" points="234.993,1752.39 244.442,1752.39 "/>
<polyline clip-path="url(#clip080)" style="stroke:#222255; stroke-linecap:round; stroke-linejoin:round; stroke-width:4; stroke-opacity:0; fill:none" points="234.993,1639.33 244.442,1639.33 "/>
<polyline clip-path="url(#clip080)" style="stroke:#222255; stroke-linecap:round; stroke-linejoin:round; stroke-width:4; stroke-opacity:0; fill:none" points="234.993,1526.27 244.442,1526.27 "/>
<polyline clip-path="url(#clip080)" style="stroke:#222255; stroke-linecap:round; stroke-linejoin:round; stroke-width:4; stroke-opacity:0; fill:none" points="234.993,1300.15 244.442,1300.15 "/>
<polyline clip-path="url(#clip080)" style="stroke:#222255; stroke-linecap:round; stroke-linejoin:round; stroke-width:4; stroke-opacity:0; fill:none" points="234.993,1187.09 244.442,1187.09 "/>
<polyline clip-path="url(#clip080)" style="stroke:#222255; stroke-linecap:round; stroke-linejoin:round; stroke-width:4; stroke-opacity:0; fill:none" points="234.993,1074.03 244.442,1074.03 "/>
<polyline clip-path="url(#clip080)" style="stroke:#222255; stroke-linecap:round; stroke-linejoin:round; stroke-width:4; stroke-opacity:0; fill:none" points="234.993,960.967 244.442,960.967 "/>
<polyline clip-path="url(#clip080)" style="stroke:#222255; stroke-linecap:round; stroke-linejoin:round; stroke-width:4; stroke-opacity:0; fill:none" points="234.993,734.846 244.442,734.846 "/>
<polyline clip-path="url(#clip080)" style="stroke:#222255; stroke-linecap:round; stroke-linejoin:round; stroke-width:4; stroke-opacity:0; fill:none" points="234.993,621.786 244.442,621.786 "/>
<polyline clip-path="url(#clip080)" style="stroke:#222255; stroke-linecap:round; stroke-linejoin:round; stroke-width:4; stroke-opacity:0; fill:none" points="234.993,508.725 244.442,508.725 "/>
<polyline clip-path="url(#clip080)" style="stroke:#222255; stroke-linecap:round; stroke-linejoin:round; stroke-width:4; stroke-opacity:0; fill:none" points="234.993,395.665 244.442,395.665 "/>
<polyline clip-path="url(#clip080)" style="stroke:#222255; stroke-linecap:round; stroke-linejoin:round; stroke-width:4; stroke-opacity:0; fill:none" points="234.993,169.544 244.442,169.544 "/>
<path clip-path="url(#clip080)" d="M114.72 1991.86 L122.359 1991.86 L122.359 1965.49 L114.049 1967.16 L114.049 1962.9 L122.313 1961.23 L126.989 1961.23 L126.989 1991.86 L134.627 1991.86 L134.627 1995.79 L114.72 1995.79 L114.72 1991.86 Z" fill="#000000" fill-rule="nonzero" fill-opacity="1" /><path clip-path="url(#clip080)" d="M144.072 1989.91 L148.956 1989.91 L148.956 1995.79 L144.072 1995.79 L144.072 1989.91 Z" fill="#000000" fill-rule="nonzero" fill-opacity="1" /><path clip-path="url(#clip080)" d="M169.141 1979.38 Q165.808 1979.38 163.887 1981.16 Q161.988 1982.94 161.988 1986.07 Q161.988 1989.19 163.887 1990.98 Q165.808 1992.76 169.141 1992.76 Q172.474 1992.76 174.396 1990.98 Q176.317 1989.17 176.317 1986.07 Q176.317 1982.94 174.396 1981.16 Q172.498 1979.38 169.141 1979.38 M164.465 1977.39 Q161.456 1976.65 159.766 1974.59 Q158.1 1972.53 158.1 1969.56 Q158.1 1965.42 161.039 1963.01 Q164.002 1960.61 169.141 1960.61 Q174.303 1960.61 177.243 1963.01 Q180.183 1965.42 180.183 1969.56 Q180.183 1972.53 178.493 1974.59 Q176.826 1976.65 173.84 1977.39 Q177.22 1978.17 179.095 1980.47 Q180.993 1982.76 180.993 1986.07 Q180.993 1991.09 177.914 1993.78 Q174.859 1996.46 169.141 1996.46 Q163.424 1996.46 160.345 1993.78 Q157.289 1991.09 157.289 1986.07 Q157.289 1982.76 159.187 1980.47 Q161.086 1978.17 164.465 1977.39 M162.752 1970 Q162.752 1972.69 164.419 1974.19 Q166.109 1975.7 169.141 1975.7 Q172.15 1975.7 173.84 1974.19 Q175.553 1972.69 175.553 1970 Q175.553 1967.32 173.84 1965.81 Q172.15 1964.31 169.141 1964.31 Q166.109 1964.31 164.419 1965.81 Q162.752 1967.32 162.752 1970 Z" fill="#000000" fill-rule="nonzero" fill-opacity="1" /><path clip-path="url(#clip080)" d="M114.813 1426.55 L122.452 1426.55 L122.452 1400.19 L114.141 1401.85 L114.141 1397.6 L122.405 1395.93 L127.081 1395.93 L127.081 1426.55 L134.72 1426.55 L134.72 1430.49 L114.813 1430.49 L114.813 1426.55 Z" fill="#000000" fill-rule="nonzero" fill-opacity="1" /><path clip-path="url(#clip080)" d="M144.164 1424.61 L149.049 1424.61 L149.049 1430.49 L144.164 1430.49 L144.164 1424.61 Z" fill="#000000" fill-rule="nonzero" fill-opacity="1" /><path clip-path="url(#clip080)" d="M159.373 1429.77 L159.373 1425.51 Q161.132 1426.35 162.937 1426.78 Q164.743 1427.22 166.479 1427.22 Q171.109 1427.22 173.539 1424.12 Q175.993 1421 176.34 1414.66 Q174.998 1416.65 172.937 1417.71 Q170.877 1418.78 168.377 1418.78 Q163.192 1418.78 160.16 1415.65 Q157.15 1412.5 157.15 1407.06 Q157.15 1401.74 160.299 1398.52 Q163.447 1395.3 168.678 1395.3 Q174.674 1395.3 177.822 1399.91 Q180.993 1404.49 180.993 1413.24 Q180.993 1421.41 177.104 1426.3 Q173.238 1431.16 166.687 1431.16 Q164.928 1431.16 163.123 1430.81 Q161.317 1430.47 159.373 1429.77 M168.678 1415.12 Q171.826 1415.12 173.655 1412.97 Q175.507 1410.81 175.507 1407.06 Q175.507 1403.34 173.655 1401.18 Q171.826 1399.01 168.678 1399.01 Q165.53 1399.01 163.678 1401.18 Q161.85 1403.34 161.85 1407.06 Q161.85 1410.81 163.678 1412.97 Q165.53 1415.12 168.678 1415.12 Z" fill="#000000" fill-rule="nonzero" fill-opacity="1" /><path clip-path="url(#clip080)" d="M117.845 861.251 L134.164 861.251 L134.164 865.187 L112.22 865.187 L112.22 861.251 Q114.882 858.497 119.465 853.867 Q124.072 849.214 125.252 847.872 Q127.498 845.349 128.377 843.613 Q129.28 841.853 129.28 840.164 Q129.28 837.409 127.336 835.673 Q125.415 833.937 122.313 833.937 Q120.114 833.937 117.66 834.701 Q115.229 835.464 112.452 837.015 L112.452 832.293 Q115.276 831.159 117.729 830.58 Q120.183 830.002 122.22 830.002 Q127.59 830.002 130.785 832.687 Q133.979 835.372 133.979 839.863 Q133.979 841.992 133.169 843.913 Q132.382 845.812 130.276 848.404 Q129.697 849.075 126.595 852.293 Q123.493 855.488 117.845 861.251 Z" fill="#000000" fill-rule="nonzero" fill-opacity="1" /><path clip-path="url(#clip080)" d="M143.979 859.307 L148.863 859.307 L148.863 865.187 L143.979 865.187 L143.979 859.307 Z" fill="#000000" fill-rule="nonzero" fill-opacity="1" /><path clip-path="url(#clip080)" d="M169.049 833.705 Q165.437 833.705 163.609 837.27 Q161.803 840.812 161.803 847.941 Q161.803 855.048 163.609 858.612 Q165.437 862.154 169.049 862.154 Q172.683 862.154 174.488 858.612 Q176.317 855.048 176.317 847.941 Q176.317 840.812 174.488 837.27 Q172.683 833.705 169.049 833.705 M169.049 830.002 Q174.859 830.002 177.914 834.608 Q180.993 839.191 180.993 847.941 Q180.993 856.668 177.914 861.275 Q174.859 865.858 169.049 865.858 Q163.238 865.858 160.16 861.275 Q157.104 856.668 157.104 847.941 Q157.104 839.191 160.16 834.608 Q163.238 830.002 169.049 830.002 Z" fill="#000000" fill-rule="nonzero" fill-opacity="1" /><path clip-path="url(#clip080)" d="M119.072 295.949 L135.391 295.949 L135.391 299.885 L113.447 299.885 L113.447 295.949 Q116.109 293.195 120.692 288.565 Q125.299 283.912 126.479 282.57 Q128.725 280.047 129.604 278.311 Q130.507 276.551 130.507 274.862 Q130.507 272.107 128.563 270.371 Q126.641 268.635 123.54 268.635 Q121.34 268.635 118.887 269.399 Q116.456 270.162 113.678 271.713 L113.678 266.991 Q116.503 265.857 118.956 265.278 Q121.41 264.7 123.447 264.7 Q128.817 264.7 132.012 267.385 Q135.206 270.07 135.206 274.561 Q135.206 276.69 134.396 278.611 Q133.609 280.51 131.502 283.102 Q130.924 283.773 127.822 286.991 Q124.72 290.186 119.072 295.949 Z" fill="#000000" fill-rule="nonzero" fill-opacity="1" /><path clip-path="url(#clip080)" d="M145.206 294.005 L150.09 294.005 L150.09 299.885 L145.206 299.885 L145.206 294.005 Z" fill="#000000" fill-rule="nonzero" fill-opacity="1" /><path clip-path="url(#clip080)" d="M161.086 295.949 L168.724 295.949 L168.724 269.584 L160.414 271.25 L160.414 266.991 L168.678 265.325 L173.354 265.325 L173.354 295.949 L180.993 295.949 L180.993 299.885 L161.086 299.885 L161.086 295.949 Z" fill="#000000" fill-rule="nonzero" fill-opacity="1" /><path clip-path="url(#clip080)" d="M21.1282 1244.04 Q23.0606 1244.04 26.4422 1244.78 Q29.8238 1245.49 31.4341 1246.07 Q35.7175 1247.68 39.3245 1250.9 Q41.3213 1252.67 42.7706 1254.6 Q44.1876 1256.5 44.8962 1257.92 Q45.5725 1259.33 45.9267 1261.01 Q46.3132 1262.68 46.3454 1263.46 Q46.4098 1264.23 46.4098 1265.32 L56.2326 1267.84 Q58.7769 1268.35 58.9379 1268.61 Q59.0667 1268.67 59.1311 1268.83 Q59.1956 1268.96 59.1956 1269.09 L59.1956 1269.22 Q59.1956 1269.58 59.0345 1269.77 Q58.8735 1269.96 58.6803 1269.99 L58.5192 1269.99 Q58.0684 1269.99 52.2713 1268.48 Q49.3084 1267.71 46.2488 1267.03 Q45.9267 1272.18 43.6401 1275.37 Q41.3535 1278.53 36.9091 1278.53 Q34.1716 1278.53 25.7659 1275.34 Q21.7401 1273.83 20.0654 1273.83 Q19.3247 1273.83 18.8738 1273.99 Q18.3907 1274.15 18.2297 1274.47 Q18.0365 1274.79 18.0043 1274.99 Q17.9721 1275.15 17.9721 1275.47 Q17.9721 1277.37 19.8722 1279.14 Q21.7723 1280.91 26.1523 1282.14 Q26.9575 1282.39 27.1507 1282.55 Q27.344 1282.72 27.344 1283.2 Q27.3118 1284 26.6676 1284 Q26.41 1284 25.4116 1283.71 Q24.381 1283.42 22.8673 1282.75 Q21.3215 1282.04 19.9366 1281.07 Q18.5196 1280.11 17.5212 1278.59 Q16.5228 1277.05 16.5228 1275.28 Q16.5228 1272.86 18.1009 1271.38 Q19.6468 1269.87 21.9334 1269.87 Q22.3843 1269.87 22.8996 1269.96 Q23.4148 1270.06 23.7047 1270.16 Q23.9946 1270.22 24.542 1270.41 Q25.0573 1270.57 25.154 1270.61 Q29.4051 1272.25 32.1748 1273.09 Q34.9123 1273.92 35.7175 1274.05 Q36.4904 1274.15 37.4244 1274.15 Q43.93 1274.15 44.7995 1266.64 L1.22501 1255.69 Q0.323242 1255.5 0.130007 1255.34 Q-0.095434 1255.18 -0.095434 1254.7 Q-0.095434 1253.92 0.613095 1253.92 Q0.838536 1253.92 1.61148 1254.12 L44.9284 1265 Q44.9284 1263.97 44.8962 1263.33 Q44.8639 1262.68 44.5741 1261.33 Q44.252 1259.95 43.6723 1258.79 Q43.0926 1257.59 41.9332 1255.92 Q40.7416 1254.25 39.0669 1252.6 Q36.9735 1250.54 33.4631 1248.71 Q29.9526 1246.87 27.0541 1246.87 Q23.8013 1246.87 21.4503 1249.22 Q21.1282 1249.58 20.935 1249.77 Q20.7418 1249.93 20.4197 1250.09 Q20.0976 1250.22 19.679 1250.22 Q18.584 1250.22 17.5534 1249.19 Q16.5228 1248.16 16.5228 1246.93 Q16.5228 1245.84 17.5856 1244.94 Q18.6484 1244.04 21.1282 1244.04 Z" fill="#000000" fill-rule="nonzero" fill-opacity="1" /><path clip-path="url(#clip080)" d="M258.43 34.2568 Q263.465 35.3331 266.277 38.7359 Q269.125 42.1387 269.125 47.1386 Q269.125 54.8122 263.847 59.0136 Q258.569 63.2149 248.847 63.2149 Q245.583 63.2149 242.111 62.5552 Q238.673 61.9302 234.993 60.6455 L234.993 53.8747 Q237.91 55.5761 241.382 56.4441 Q244.854 57.3122 248.639 57.3122 Q255.236 57.3122 258.673 54.708 Q262.146 52.1039 262.146 47.1386 Q262.146 42.5553 258.916 39.9859 Q255.722 37.3817 249.993 37.3817 L243.951 37.3817 L243.951 31.6179 L250.271 31.6179 Q255.444 31.6179 258.187 29.5693 Q260.93 27.486 260.93 23.5971 Q260.93 19.6041 258.083 17.486 Q255.271 15.3333 249.993 15.3333 Q247.111 15.3333 243.812 15.9582 Q240.514 16.5832 236.555 17.9027 L236.555 11.6527 Q240.548 10.5416 244.021 9.98606 Q247.528 9.43051 250.618 9.43051 Q258.604 9.43051 263.257 13.0763 Q267.909 16.6874 267.909 22.8679 Q267.909 27.1735 265.444 30.1596 Q262.979 33.1109 258.43 34.2568 Z" fill="#000000" fill-rule="nonzero" fill-opacity="1" /><path clip-path="url(#clip080)" d="M282.423 53.3886 L289.75 53.3886 L289.75 62.208 L282.423 62.208 L282.423 53.3886 Z" fill="#000000" fill-rule="nonzero" fill-opacity="1" /><path clip-path="url(#clip080)" d="M306.243 56.3053 L317.701 56.3053 L317.701 16.7569 L305.236 19.2568 L305.236 12.868 L317.631 10.368 L324.645 10.368 L324.645 56.3053 L336.104 56.3053 L336.104 62.208 L306.243 62.208 L306.243 56.3053 Z" fill="#000000" fill-rule="nonzero" fill-opacity="1" /><path clip-path="url(#clip080)" d="M350.27 53.3886 L357.596 53.3886 L357.596 62.208 L350.27 62.208 L350.27 53.3886 Z" fill="#000000" fill-rule="nonzero" fill-opacity="1" /><path clip-path="url(#clip080)" d="M374.089 56.3053 L385.548 56.3053 L385.548 16.7569 L373.082 19.2568 L373.082 12.868 L385.478 10.368 L392.492 10.368 L392.492 56.3053 L403.95 56.3053 L403.95 62.208 L374.089 62.208 L374.089 56.3053 Z" fill="#000000" fill-rule="nonzero" fill-opacity="1" /><path clip-path="url(#clip080)" d="M447.11 16.1319 L447.11 56.4441 L455.582 56.4441 Q466.311 56.4441 471.276 51.5831 Q476.276 46.722 476.276 36.2359 Q476.276 25.8193 471.276 20.9929 Q466.311 16.1319 455.582 16.1319 L447.11 16.1319 M440.096 10.368 L454.506 10.368 Q469.575 10.368 476.624 16.6527 Q483.672 22.9027 483.672 36.2359 Q483.672 49.6386 476.589 55.9233 Q469.506 62.208 454.506 62.208 L440.096 62.208 L440.096 10.368 Z" fill="#000000" fill-rule="nonzero" fill-opacity="1" /><path clip-path="url(#clip080)" d="M509.644 27.7985 Q504.505 27.7985 501.519 31.8262 Q498.533 35.8193 498.533 42.7984 Q498.533 49.7775 501.485 53.8053 Q504.471 57.7983 509.644 57.7983 Q514.748 57.7983 517.734 53.7705 Q520.721 49.7428 520.721 42.7984 Q520.721 35.8887 517.734 31.8609 Q514.748 27.7985 509.644 27.7985 M509.644 22.3818 Q517.978 22.3818 522.734 27.7985 Q527.491 33.2151 527.491 42.7984 Q527.491 52.3469 522.734 57.7983 Q517.978 63.2149 509.644 63.2149 Q501.276 63.2149 496.519 57.7983 Q491.797 52.3469 491.797 42.7984 Q491.797 33.2151 496.519 27.7985 Q501.276 22.3818 509.644 22.3818 Z" fill="#000000" fill-rule="nonzero" fill-opacity="1" /><path clip-path="url(#clip080)" d="M560.616 29.2915 Q559.54 28.6665 558.255 28.3887 Q557.005 28.0762 555.477 28.0762 Q550.061 28.0762 547.144 31.6179 Q544.262 35.1248 544.262 41.722 L544.262 62.208 L537.839 62.208 L537.839 23.3193 L544.262 23.3193 L544.262 29.361 Q546.276 25.8193 549.505 24.1179 Q552.734 22.3818 557.352 22.3818 Q558.012 22.3818 558.811 22.486 Q559.609 22.5554 560.581 22.729 L560.616 29.2915 Z" fill="#000000" fill-rule="nonzero" fill-opacity="1" /><path clip-path="url(#clip080)" d="M580.824 27.7985 Q575.686 27.7985 572.699 31.8262 Q569.713 35.8193 569.713 42.7984 Q569.713 49.7775 572.665 53.8053 Q575.651 57.7983 580.824 57.7983 Q585.929 57.7983 588.915 53.7705 Q591.901 49.7428 591.901 42.7984 Q591.901 35.8887 588.915 31.8609 Q585.929 27.7985 580.824 27.7985 M580.824 22.3818 Q589.158 22.3818 593.915 27.7985 Q598.672 33.2151 598.672 42.7984 Q598.672 52.3469 593.915 57.7983 Q589.158 63.2149 580.824 63.2149 Q572.456 63.2149 567.699 57.7983 Q562.977 52.3469 562.977 42.7984 Q562.977 33.2151 567.699 27.7985 Q572.456 22.3818 580.824 22.3818 Z" fill="#000000" fill-rule="nonzero" fill-opacity="1" /><path clip-path="url(#clip080)" d="M634.852 42.3123 Q634.852 35.3679 631.97 31.5484 Q629.123 27.729 623.949 27.729 Q618.81 27.729 615.928 31.5484 Q613.081 35.3679 613.081 42.3123 Q613.081 49.222 615.928 53.0414 Q618.81 56.8608 623.949 56.8608 Q629.123 56.8608 631.97 53.0414 Q634.852 49.222 634.852 42.3123 M641.241 57.3816 Q641.241 67.3121 636.831 72.1385 Q632.421 76.9996 623.324 76.9996 Q619.956 76.9996 616.97 76.4788 Q613.984 75.9926 611.171 74.951 L611.171 68.7357 Q613.984 70.2635 616.727 70.9927 Q619.47 71.7218 622.317 71.7218 Q628.602 71.7218 631.727 68.4232 Q634.852 65.1594 634.852 58.5275 L634.852 55.3678 Q632.873 58.8052 629.782 60.5066 Q626.692 62.208 622.387 62.208 Q615.234 62.208 610.859 56.7566 Q606.484 51.3053 606.484 42.3123 Q606.484 33.2845 610.859 27.8332 Q615.234 22.3818 622.387 22.3818 Q626.692 22.3818 629.782 24.0832 Q632.873 25.7846 634.852 29.2221 L634.852 23.3193 L641.241 23.3193 L641.241 57.3816 Z" fill="#000000" fill-rule="nonzero" fill-opacity="1" /><path clip-path="url(#clip080)" d="M669.47 27.7985 Q664.331 27.7985 661.345 31.8262 Q658.359 35.8193 658.359 42.7984 Q658.359 49.7775 661.31 53.8053 Q664.296 57.7983 669.47 57.7983 Q674.574 57.7983 677.56 53.7705 Q680.546 49.7428 680.546 42.7984 Q680.546 35.8887 677.56 31.8609 Q674.574 27.7985 669.47 27.7985 M669.47 22.3818 Q677.803 22.3818 682.56 27.7985 Q687.317 33.2151 687.317 42.7984 Q687.317 52.3469 682.56 57.7983 Q677.803 63.2149 669.47 63.2149 Q661.102 63.2149 656.345 57.7983 Q651.623 52.3469 651.623 42.7984 Q651.623 33.2151 656.345 27.7985 Q661.102 22.3818 669.47 22.3818 Z" fill="#000000" fill-rule="nonzero" fill-opacity="1" /><path clip-path="url(#clip080)" d="M693.324 23.3193 L700.095 23.3193 L712.247 55.958 L724.4 23.3193 L731.171 23.3193 L716.588 62.208 L707.907 62.208 L693.324 23.3193 Z" fill="#000000" fill-rule="nonzero" fill-opacity="1" /><path clip-path="url(#clip080)" d="M746.31 12.2777 L746.31 23.3193 L759.469 23.3193 L759.469 28.2846 L746.31 28.2846 L746.31 49.3956 Q746.31 54.1525 747.594 55.5066 Q748.914 56.8608 752.907 56.8608 L759.469 56.8608 L759.469 62.208 L752.907 62.208 Q745.511 62.208 742.699 59.465 Q739.886 56.6872 739.886 49.3956 L739.886 28.2846 L735.199 28.2846 L735.199 23.3193 L739.886 23.3193 L739.886 12.2777 L746.31 12.2777 Z" fill="#000000" fill-rule="nonzero" fill-opacity="1" /><path clip-path="url(#clip080)" d="M792.664 24.4651 L792.664 30.5068 Q789.955 29.1179 787.039 28.4235 Q784.122 27.729 780.997 27.729 Q776.24 27.729 773.844 29.1873 Q771.483 30.6457 771.483 33.5623 Q771.483 35.7845 773.184 37.0692 Q774.886 38.3192 780.025 39.4651 L782.212 39.9512 Q789.018 41.4095 791.865 44.0831 Q794.747 46.722 794.747 51.4789 Q794.747 56.8955 790.441 60.0552 Q786.171 63.2149 778.671 63.2149 Q775.546 63.2149 772.143 62.5899 Q768.775 61.9997 765.025 60.7844 L765.025 54.1872 Q768.566 56.0275 772.004 56.965 Q775.441 57.8677 778.809 57.8677 Q783.323 57.8677 785.754 56.34 Q788.184 54.7775 788.184 51.965 Q788.184 49.3608 786.414 47.972 Q784.677 46.5831 778.74 45.2984 L776.518 44.7775 Q770.58 43.5275 767.941 40.9581 Q765.303 38.354 765.303 33.8401 Q765.303 28.354 769.191 25.3679 Q773.08 22.3818 780.233 22.3818 Q783.775 22.3818 786.9 22.9027 Q790.025 23.4235 792.664 24.4651 Z" fill="#000000" fill-rule="nonzero" fill-opacity="1" /><path clip-path="url(#clip080)" d="M838.184 41.1664 L838.184 44.2914 L808.809 44.2914 Q809.226 50.8886 812.768 54.3608 Q816.344 57.7983 822.698 57.7983 Q826.379 57.7983 829.816 56.8955 Q833.288 55.9928 836.691 54.1872 L836.691 60.2288 Q833.254 61.6872 829.643 62.4511 Q826.031 63.2149 822.316 63.2149 Q813.011 63.2149 807.559 57.7983 Q802.143 52.3817 802.143 43.1456 Q802.143 33.597 807.282 28.0068 Q812.455 22.3818 821.205 22.3818 Q829.052 22.3818 833.601 27.4512 Q838.184 32.4859 838.184 41.1664 M831.795 39.2915 Q831.726 34.0484 828.844 30.9234 Q825.997 27.7985 821.275 27.7985 Q815.927 27.7985 812.698 30.8193 Q809.504 33.8401 809.018 39.3262 L831.795 39.2915 Z" fill="#000000" fill-rule="nonzero" fill-opacity="1" /><path clip-path="url(#clip080)" d="M844.087 23.3193 L850.858 23.3193 L863.01 55.958 L875.163 23.3193 L881.934 23.3193 L867.351 62.208 L858.67 62.208 L844.087 23.3193 Z" fill="#000000" fill-rule="nonzero" fill-opacity="1" /><path clip-path="url(#clip080)" d="M931.031 42.6595 Q923.288 42.6595 920.302 44.4303 Q917.316 46.2011 917.316 50.472 Q917.316 53.8747 919.538 55.8886 Q921.795 57.8677 925.649 57.8677 Q930.961 57.8677 934.156 54.1178 Q937.385 50.3331 937.385 44.0831 L937.385 42.6595 L931.031 42.6595 M943.774 40.0206 L943.774 62.208 L937.385 62.208 L937.385 56.3053 Q935.198 59.8469 931.934 61.5483 Q928.67 63.2149 923.948 63.2149 Q917.975 63.2149 914.434 59.8816 Q910.927 56.5136 910.927 50.8886 Q910.927 44.3262 915.302 40.9928 Q919.711 37.6595 928.427 37.6595 L937.385 37.6595 L937.385 37.0345 Q937.385 32.6248 934.468 30.229 Q931.586 27.7985 926.343 27.7985 Q923.01 27.7985 919.85 28.5971 Q916.691 29.3957 913.774 30.9929 L913.774 25.0901 Q917.281 23.736 920.58 23.0763 Q923.878 22.3818 927.003 22.3818 Q935.441 22.3818 939.607 26.7568 Q943.774 31.1318 943.774 40.0206 Z" fill="#000000" fill-rule="nonzero" fill-opacity="1" /><path clip-path="url(#clip080)" d="M989.26 38.7359 L989.26 62.208 L982.871 62.208 L982.871 38.9442 Q982.871 33.4234 980.718 30.6804 Q978.565 27.9374 974.26 27.9374 Q969.086 27.9374 966.1 31.2359 Q963.114 34.5345 963.114 40.229 L963.114 62.208 L956.69 62.208 L956.69 23.3193 L963.114 23.3193 L963.114 29.361 Q965.406 25.854 968.496 24.1179 Q971.621 22.3818 975.683 22.3818 Q982.385 22.3818 985.822 26.5485 Q989.26 30.6804 989.26 38.7359 Z" fill="#000000" fill-rule="nonzero" fill-opacity="1" /><path clip-path="url(#clip080)" d="M1027.59 29.2221 L1027.59 8.18051 L1033.98 8.18051 L1033.98 62.208 L1027.59 62.208 L1027.59 56.3747 Q1025.58 59.8469 1022.49 61.5483 Q1019.43 63.2149 1015.13 63.2149 Q1008.08 63.2149 1003.63 57.59 Q999.225 51.965 999.225 42.7984 Q999.225 33.6318 1003.63 28.0068 Q1008.08 22.3818 1015.13 22.3818 Q1019.43 22.3818 1022.49 24.0832 Q1025.58 25.7499 1027.59 29.2221 M1005.82 42.7984 Q1005.82 49.847 1008.7 53.8747 Q1011.62 57.8677 1016.69 57.8677 Q1021.76 57.8677 1024.68 53.8747 Q1027.59 49.847 1027.59 42.7984 Q1027.59 35.7498 1024.68 31.7568 Q1021.76 27.729 1016.69 27.729 Q1011.62 27.729 1008.7 31.7568 Q1005.82 35.7498 1005.82 42.7984 Z" fill="#000000" fill-rule="nonzero" fill-opacity="1" /><path clip-path="url(#clip080)" d="M1070.02 10.368 L1080.47 10.368 L1093.7 45.6456 L1107 10.368 L1117.45 10.368 L1117.45 62.208 L1110.61 62.208 L1110.61 16.6874 L1097.25 52.2428 L1090.2 52.2428 L1076.83 16.6874 L1076.83 62.208 L1070.02 62.208 L1070.02 10.368 Z" fill="#000000" fill-rule="nonzero" fill-opacity="1" /><path clip-path="url(#clip080)" d="M1164.36 41.1664 L1164.36 44.2914 L1134.99 44.2914 Q1135.4 50.8886 1138.95 54.3608 Q1142.52 57.7983 1148.88 57.7983 Q1152.56 57.7983 1155.99 56.8955 Q1159.47 55.9928 1162.87 54.1872 L1162.87 60.2288 Q1159.43 61.6872 1155.82 62.4511 Q1152.21 63.2149 1148.49 63.2149 Q1139.19 63.2149 1133.74 57.7983 Q1128.32 52.3817 1128.32 43.1456 Q1128.32 33.597 1133.46 28.0068 Q1138.63 22.3818 1147.38 22.3818 Q1155.23 22.3818 1159.78 27.4512 Q1164.36 32.4859 1164.36 41.1664 M1157.97 39.2915 Q1157.9 34.0484 1155.02 30.9234 Q1152.18 27.7985 1147.45 27.7985 Q1142.11 27.7985 1138.88 30.8193 Q1135.68 33.8401 1135.2 39.3262 L1157.97 39.2915 Z" fill="#000000" fill-rule="nonzero" fill-opacity="1" /><path clip-path="url(#clip080)" d="M1207.18 38.7359 L1207.18 62.208 L1200.79 62.208 L1200.79 38.9442 Q1200.79 33.4234 1198.63 30.6804 Q1196.48 27.9374 1192.18 27.9374 Q1187 27.9374 1184.02 31.2359 Q1181.03 34.5345 1181.03 40.229 L1181.03 62.208 L1174.61 62.208 L1174.61 23.3193 L1181.03 23.3193 L1181.03 29.361 Q1183.32 25.854 1186.41 24.1179 Q1189.54 22.3818 1193.6 22.3818 Q1200.3 22.3818 1203.74 26.5485 Q1207.18 30.6804 1207.18 38.7359 Z" fill="#000000" fill-rule="nonzero" fill-opacity="1" /><path clip-path="url(#clip080)" d="M1245.51 29.2221 L1245.51 8.18051 L1251.9 8.18051 L1251.9 62.208 L1245.51 62.208 L1245.51 56.3747 Q1243.49 59.8469 1240.4 61.5483 Q1237.35 63.2149 1233.04 63.2149 Q1225.99 63.2149 1221.55 57.59 Q1217.14 51.965 1217.14 42.7984 Q1217.14 33.6318 1221.55 28.0068 Q1225.99 22.3818 1233.04 22.3818 Q1237.35 22.3818 1240.4 24.0832 Q1243.49 25.7499 1245.51 29.2221 M1223.74 42.7984 Q1223.74 49.847 1226.62 53.8747 Q1229.54 57.8677 1234.61 57.8677 Q1239.68 57.8677 1242.59 53.8747 Q1245.51 49.847 1245.51 42.7984 Q1245.51 35.7498 1242.59 31.7568 Q1239.68 27.729 1234.61 27.729 Q1229.54 27.729 1226.62 31.7568 Q1223.74 35.7498 1223.74 42.7984 Z" fill="#000000" fill-rule="nonzero" fill-opacity="1" /><path clip-path="url(#clip080)" d="M1298.32 41.1664 L1298.32 44.2914 L1268.95 44.2914 Q1269.36 50.8886 1272.9 54.3608 Q1276.48 57.7983 1282.83 57.7983 Q1286.52 57.7983 1289.95 56.8955 Q1293.42 55.9928 1296.83 54.1872 L1296.83 60.2288 Q1293.39 61.6872 1289.78 62.4511 Q1286.17 63.2149 1282.45 63.2149 Q1273.15 63.2149 1267.7 57.7983 Q1262.28 52.3817 1262.28 43.1456 Q1262.28 33.597 1267.42 28.0068 Q1272.59 22.3818 1281.34 22.3818 Q1289.19 22.3818 1293.74 27.4512 Q1298.32 32.4859 1298.32 41.1664 M1291.93 39.2915 Q1291.86 34.0484 1288.98 30.9234 Q1286.13 27.7985 1281.41 27.7985 Q1276.06 27.7985 1272.83 30.8193 Q1269.64 33.8401 1269.15 39.3262 L1291.93 39.2915 Z" fill="#000000" fill-rule="nonzero" fill-opacity="1" /><path clip-path="url(#clip080)" d="M1333.6 24.4651 L1333.6 30.5068 Q1330.89 29.1179 1327.97 28.4235 Q1325.06 27.729 1321.93 27.729 Q1317.17 27.729 1314.78 29.1873 Q1312.42 30.6457 1312.42 33.5623 Q1312.42 35.7845 1314.12 37.0692 Q1315.82 38.3192 1320.96 39.4651 L1323.15 39.9512 Q1329.95 41.4095 1332.8 44.0831 Q1335.68 46.722 1335.68 51.4789 Q1335.68 56.8955 1331.38 60.0552 Q1327.11 63.2149 1319.61 63.2149 Q1316.48 63.2149 1313.08 62.5899 Q1309.71 61.9997 1305.96 60.7844 L1305.96 54.1872 Q1309.5 56.0275 1312.94 56.965 Q1316.38 57.8677 1319.74 57.8677 Q1324.26 57.8677 1326.69 56.34 Q1329.12 54.7775 1329.12 51.965 Q1329.12 49.3608 1327.35 47.972 Q1325.61 46.5831 1319.67 45.2984 L1317.45 44.7775 Q1311.51 43.5275 1308.88 40.9581 Q1306.24 38.354 1306.24 33.8401 Q1306.24 28.354 1310.13 25.3679 Q1314.01 22.3818 1321.17 22.3818 Q1324.71 22.3818 1327.83 22.9027 Q1330.96 23.4235 1333.6 24.4651 Z" fill="#000000" fill-rule="nonzero" fill-opacity="1" /><circle clip-path="url(#clip082)" cx="328.892" cy="2239.42" r="21.6" fill="#ee7733" fill-rule="evenodd" fill-opacity="0.2" stroke="#000000" stroke-opacity="0.2" stroke-width="0"/>
<circle clip-path="url(#clip082)" cx="454.09" cy="2025.01" r="21.6" fill="#ee7733" fill-rule="evenodd" fill-opacity="0.2" stroke="#000000" stroke-opacity="0.2" stroke-width="0"/>
<circle clip-path="url(#clip082)" cx="579.289" cy="1995.73" r="21.6" fill="#ee7733" fill-rule="evenodd" fill-opacity="0.2" stroke="#000000" stroke-opacity="0.2" stroke-width="0"/>
<circle clip-path="url(#clip082)" cx="704.488" cy="1400.55" r="21.6" fill="#ee7733" fill-rule="evenodd" fill-opacity="0.2" stroke="#000000" stroke-opacity="0.2" stroke-width="0"/>
<circle clip-path="url(#clip082)" cx="829.686" cy="1518.1" r="21.6" fill="#ee7733" fill-rule="evenodd" fill-opacity="0.2" stroke="#000000" stroke-opacity="0.2" stroke-width="0"/>
<circle clip-path="url(#clip082)" cx="954.885" cy="1431.61" r="21.6" fill="#ee7733" fill-rule="evenodd" fill-opacity="0.2" stroke="#000000" stroke-opacity="0.2" stroke-width="0"/>
<circle clip-path="url(#clip082)" cx="1080.08" cy="1273.94" r="21.6" fill="#ee7733" fill-rule="evenodd" fill-opacity="0.2" stroke="#000000" stroke-opacity="0.2" stroke-width="0"/>
<circle clip-path="url(#clip082)" cx="1205.28" cy="1312.85" r="21.6" fill="#ee7733" fill-rule="evenodd" fill-opacity="0.2" stroke="#000000" stroke-opacity="0.2" stroke-width="0"/>
<circle clip-path="url(#clip082)" cx="1330.48" cy="1021.54" r="21.6" fill="#ee7733" fill-rule="evenodd" fill-opacity="0.2" stroke="#000000" stroke-opacity="0.2" stroke-width="0"/>
<circle clip-path="url(#clip082)" cx="1455.68" cy="701.082" r="21.6" fill="#ee7733" fill-rule="evenodd" fill-opacity="0.2" stroke="#000000" stroke-opacity="0.2" stroke-width="0"/>
<circle clip-path="url(#clip082)" cx="1580.88" cy="1495.62" r="21.6" fill="#ee7733" fill-rule="evenodd" fill-opacity="0.2" stroke="#000000" stroke-opacity="0.2" stroke-width="0"/>
<circle clip-path="url(#clip082)" cx="1706.08" cy="1097.37" r="21.6" fill="#ee7733" fill-rule="evenodd" fill-opacity="0.2" stroke="#000000" stroke-opacity="0.2" stroke-width="0"/>
<circle clip-path="url(#clip082)" cx="1831.28" cy="1320.43" r="21.6" fill="#ee7733" fill-rule="evenodd" fill-opacity="0.2" stroke="#000000" stroke-opacity="0.2" stroke-width="0"/>
<circle clip-path="url(#clip082)" cx="1956.47" cy="709.965" r="21.6" fill="#ee7733" fill-rule="evenodd" fill-opacity="0.2" stroke="#000000" stroke-opacity="0.2" stroke-width="0"/>
<circle clip-path="url(#clip082)" cx="2081.67" cy="1101.51" r="21.6" fill="#ee7733" fill-rule="evenodd" fill-opacity="0.2" stroke="#000000" stroke-opacity="0.2" stroke-width="0"/>
<circle clip-path="url(#clip082)" cx="2206.87" cy="1020.61" r="21.6" fill="#ee7733" fill-rule="evenodd" fill-opacity="0.2" stroke="#000000" stroke-opacity="0.2" stroke-width="0"/>
<circle clip-path="url(#clip082)" cx="2332.07" cy="1461.12" r="21.6" fill="#ee7733" fill-rule="evenodd" fill-opacity="0.2" stroke="#000000" stroke-opacity="0.2" stroke-width="0"/>
<circle clip-path="url(#clip082)" cx="2457.27" cy="1005.24" r="21.6" fill="#ee7733" fill-rule="evenodd" fill-opacity="0.2" stroke="#000000" stroke-opacity="0.2" stroke-width="0"/>
<circle clip-path="url(#clip082)" cx="2582.47" cy="183.884" r="21.6" fill="#ee7733" fill-rule="evenodd" fill-opacity="0.2" stroke="#000000" stroke-opacity="0.2" stroke-width="0"/>
<circle clip-path="url(#clip082)" cx="2707.67" cy="1256.93" r="21.6" fill="#ee7733" fill-rule="evenodd" fill-opacity="0.2" stroke="#000000" stroke-opacity="0.2" stroke-width="0"/>
<circle clip-path="url(#clip082)" cx="2832.86" cy="1161.76" r="21.6" fill="#ee7733" fill-rule="evenodd" fill-opacity="0.2" stroke="#000000" stroke-opacity="0.2" stroke-width="0"/>
<circle clip-path="url(#clip082)" cx="2958.06" cy="1088.62" r="21.6" fill="#ee7733" fill-rule="evenodd" fill-opacity="0.2" stroke="#000000" stroke-opacity="0.2" stroke-width="0"/>
<circle clip-path="url(#clip082)" cx="3083.26" cy="1099.39" r="21.6" fill="#ee7733" fill-rule="evenodd" fill-opacity="0.2" stroke="#000000" stroke-opacity="0.2" stroke-width="0"/>
<circle clip-path="url(#clip082)" cx="3208.46" cy="1144.81" r="21.6" fill="#ee7733" fill-rule="evenodd" fill-opacity="0.2" stroke="#000000" stroke-opacity="0.2" stroke-width="0"/>
<circle clip-path="url(#clip082)" cx="3333.66" cy="1143.35" r="21.6" fill="#ee7733" fill-rule="evenodd" fill-opacity="0.2" stroke="#000000" stroke-opacity="0.2" stroke-width="0"/>
<circle clip-path="url(#clip082)" cx="3458.86" cy="811.51" r="21.6" fill="#ee7733" fill-rule="evenodd" fill-opacity="0.2" stroke="#000000" stroke-opacity="0.2" stroke-width="0"/>
<circle clip-path="url(#clip082)" cx="328.892" cy="2309" r="21.6" fill="#0077bb" fill-rule="evenodd" fill-opacity="0.4" stroke="#000000" stroke-opacity="0.4" stroke-width="0"/>
<circle clip-path="url(#clip082)" cx="454.09" cy="2106.5" r="21.6" fill="#0077bb" fill-rule="evenodd" fill-opacity="0.4" stroke="#000000" stroke-opacity="0.4" stroke-width="0"/>
<circle clip-path="url(#clip082)" cx="579.289" cy="1922.07" r="21.6" fill="#0077bb" fill-rule="evenodd" fill-opacity="0.4" stroke="#000000" stroke-opacity="0.4" stroke-width="0"/>
<circle clip-path="url(#clip082)" cx="704.488" cy="1504.62" r="21.6" fill="#0077bb" fill-rule="evenodd" fill-opacity="0.4" stroke="#000000" stroke-opacity="0.4" stroke-width="0"/>
<circle clip-path="url(#clip082)" cx="829.686" cy="1684.63" r="21.6" fill="#0077bb" fill-rule="evenodd" fill-opacity="0.4" stroke="#000000" stroke-opacity="0.4" stroke-width="0"/>
<circle clip-path="url(#clip082)" cx="954.885" cy="1438.39" r="21.6" fill="#0077bb" fill-rule="evenodd" fill-opacity="0.4" stroke="#000000" stroke-opacity="0.4" stroke-width="0"/>
<circle clip-path="url(#clip082)" cx="1080.08" cy="1045.67" r="21.6" fill="#0077bb" fill-rule="evenodd" fill-opacity="0.4" stroke="#000000" stroke-opacity="0.4" stroke-width="0"/>
<circle clip-path="url(#clip082)" cx="1205.28" cy="1185.36" r="21.6" fill="#0077bb" fill-rule="evenodd" fill-opacity="0.4" stroke="#000000" stroke-opacity="0.4" stroke-width="0"/>
<circle clip-path="url(#clip082)" cx="1330.48" cy="1196.61" r="21.6" fill="#0077bb" fill-rule="evenodd" fill-opacity="0.4" stroke="#000000" stroke-opacity="0.4" stroke-width="0"/>
<circle clip-path="url(#clip082)" cx="1455.68" cy="1237.54" r="21.6" fill="#0077bb" fill-rule="evenodd" fill-opacity="0.4" stroke="#000000" stroke-opacity="0.4" stroke-width="0"/>
<circle clip-path="url(#clip082)" cx="1580.88" cy="1246.53" r="21.6" fill="#0077bb" fill-rule="evenodd" fill-opacity="0.4" stroke="#000000" stroke-opacity="0.4" stroke-width="0"/>
<circle clip-path="url(#clip082)" cx="1706.08" cy="1158.84" r="21.6" fill="#0077bb" fill-rule="evenodd" fill-opacity="0.4" stroke="#000000" stroke-opacity="0.4" stroke-width="0"/>
<circle clip-path="url(#clip082)" cx="1831.28" cy="1405.93" r="21.6" fill="#0077bb" fill-rule="evenodd" fill-opacity="0.4" stroke="#000000" stroke-opacity="0.4" stroke-width="0"/>
<circle clip-path="url(#clip082)" cx="1956.47" cy="1227.81" r="21.6" fill="#0077bb" fill-rule="evenodd" fill-opacity="0.4" stroke="#000000" stroke-opacity="0.4" stroke-width="0"/>
<circle clip-path="url(#clip082)" cx="2081.67" cy="1151.6" r="21.6" fill="#0077bb" fill-rule="evenodd" fill-opacity="0.4" stroke="#000000" stroke-opacity="0.4" stroke-width="0"/>
<circle clip-path="url(#clip082)" cx="2206.87" cy="1048.78" r="21.6" fill="#0077bb" fill-rule="evenodd" fill-opacity="0.4" stroke="#000000" stroke-opacity="0.4" stroke-width="0"/>
<circle clip-path="url(#clip082)" cx="2332.07" cy="1227.45" r="21.6" fill="#0077bb" fill-rule="evenodd" fill-opacity="0.4" stroke="#000000" stroke-opacity="0.4" stroke-width="0"/>
<circle clip-path="url(#clip082)" cx="2457.27" cy="1089.5" r="21.6" fill="#0077bb" fill-rule="evenodd" fill-opacity="0.4" stroke="#000000" stroke-opacity="0.4" stroke-width="0"/>
<circle clip-path="url(#clip082)" cx="2582.47" cy="1114.44" r="21.6" fill="#0077bb" fill-rule="evenodd" fill-opacity="0.4" stroke="#000000" stroke-opacity="0.4" stroke-width="0"/>
<circle clip-path="url(#clip082)" cx="2707.67" cy="833.803" r="21.6" fill="#0077bb" fill-rule="evenodd" fill-opacity="0.4" stroke="#000000" stroke-opacity="0.4" stroke-width="0"/>
<circle clip-path="url(#clip082)" cx="2832.86" cy="864.999" r="21.6" fill="#0077bb" fill-rule="evenodd" fill-opacity="0.4" stroke="#000000" stroke-opacity="0.4" stroke-width="0"/>
<circle clip-path="url(#clip082)" cx="2958.06" cy="1050.58" r="21.6" fill="#0077bb" fill-rule="evenodd" fill-opacity="0.4" stroke="#000000" stroke-opacity="0.4" stroke-width="0"/>
<circle clip-path="url(#clip082)" cx="3083.26" cy="1173.38" r="21.6" fill="#0077bb" fill-rule="evenodd" fill-opacity="0.4" stroke="#000000" stroke-opacity="0.4" stroke-width="0"/>
<circle clip-path="url(#clip082)" cx="3208.46" cy="914.532" r="21.6" fill="#0077bb" fill-rule="evenodd" fill-opacity="0.4" stroke="#000000" stroke-opacity="0.4" stroke-width="0"/>
<circle clip-path="url(#clip082)" cx="3333.66" cy="816.354" r="21.6" fill="#0077bb" fill-rule="evenodd" fill-opacity="0.4" stroke="#000000" stroke-opacity="0.4" stroke-width="0"/>
<circle clip-path="url(#clip082)" cx="3458.86" cy="963.031" r="21.6" fill="#0077bb" fill-rule="evenodd" fill-opacity="0.4" stroke="#000000" stroke-opacity="0.4" stroke-width="0"/>
<polyline clip-path="url(#clip082)" style="stroke:#33bbee; stroke-linecap:round; stroke-linejoin:round; stroke-width:16; stroke-opacity:0.6; fill:none" points="328.892,2339.43 454.09,2196.19 579.289,1825.66 704.488,1701.84 829.686,1600.29 954.885,1292.75 1080.08,1434.28 1205.28,1333.81 1330.48,1279.25 1455.68,1214.68 1580.88,960.676 1706.08,1171.05 1831.28,1168.56 1956.47,1225.15 2081.67,1213.47 2206.87,1059.13 2332.07,1283.45 2457.27,1260.3 2582.47,895.816 2707.67,1136.79 2832.86,1110.78 2958.06,987.112 3083.26,934.541 3208.46,1098.02 3333.66,1026.73 3458.86,966.235 "/>
<polyline clip-path="url(#clip082)" style="stroke:#ee3377; stroke-linecap:round; stroke-linejoin:round; stroke-width:12; stroke-opacity:0.5; fill:none" points="328.892,2341.61 454.09,2085.58 579.289,1799.78 704.488,1581.11 829.686,1547.01 954.885,1363.58 1080.08,1505.53 1205.28,1427.69 1330.48,1390.25 1455.68,1379.03 1580.88,1272.52 1706.08,1299.64 1831.28,1113.92 1956.47,1137.64 2081.67,1035.56 2206.87,1110.42 2332.07,1147.18 2457.27,1113.51 2582.47,1100.35 2707.67,1070.74 2832.86,1013.08 2958.06,995.608 3083.26,1064.76 3208.46,1064.84 3333.66,1077.43 3458.86,1025.73 "/>
<polyline clip-path="url(#clip082)" style="stroke:#cc3311; stroke-linecap:round; stroke-linejoin:round; stroke-width:6; stroke-opacity:1; fill:none" points="328.892,2301.38 454.09,2036.42 579.289,1954.82 704.488,1639.03 829.686,1620.6 954.885,1430.4 1080.08,1387.41 1205.28,1467.34 1330.48,1261.54 1455.68,1282.57 1580.88,1210.22 1706.08,1185.41 1831.28,1250.98 1956.47,1192.97 2081.67,1157.77 2206.87,1217.32 2332.07,1053.81 2457.27,1178.65 2582.47,1171.82 2707.67,994.583 2832.86,1175.69 2958.06,1018.85 3083.26,1160.67 3208.46,1152.44 3333.66,1050.06 3458.86,1015.83 "/>
<path clip-path="url(#clip080)" d="M2927.45 2330.1 L3442.16 2330.1 L3442.16 2019.06 L2927.45 2019.06  Z" fill="#ffffff" fill-rule="evenodd" fill-opacity="0.9"/>
<polyline clip-path="url(#clip080)" style="stroke:#222255; stroke-linecap:round; stroke-linejoin:round; stroke-width:4; stroke-opacity:0.1; fill:none" points="2927.45,2330.1 3442.16,2330.1 3442.16,2019.06 2927.45,2019.06 2927.45,2330.1 "/>
<circle clip-path="url(#clip080)" cx="3074.9" cy="2070.9" r="23.04" fill="#ee7733" fill-rule="evenodd" fill-opacity="0.2" stroke="#000000" stroke-opacity="0.2" stroke-width="0"/>
<path clip-path="url(#clip080)" d="M3244.07 2072.53 L3244.07 2088.18 L3239.81 2088.18 L3239.81 2072.67 Q3239.81 2068.99 3238.38 2067.16 Q3236.94 2065.33 3234.07 2065.33 Q3230.62 2065.33 3228.63 2067.53 Q3226.64 2069.73 3226.64 2073.53 L3226.64 2088.18 L3222.36 2088.18 L3222.36 2062.25 L3226.64 2062.25 L3226.64 2066.28 Q3228.17 2063.94 3230.23 2062.79 Q3232.31 2061.63 3235.02 2061.63 Q3239.49 2061.63 3241.78 2064.41 Q3244.07 2067.16 3244.07 2072.53 Z" fill="#000000" fill-rule="nonzero" fill-opacity="1" /><path clip-path="url(#clip080)" d="M3268.19 2066.65 L3297.87 2066.65 L3297.87 2070.54 L3268.19 2070.54 L3268.19 2066.65 M3268.19 2076.1 L3297.87 2076.1 L3297.87 2080.03 L3268.19 2080.03 L3268.19 2076.1 Z" fill="#000000" fill-rule="nonzero" fill-opacity="1" /><path clip-path="url(#clip080)" d="M3323.84 2084.25 L3331.48 2084.25 L3331.48 2057.88 L3323.17 2059.55 L3323.17 2055.29 L3331.43 2053.62 L3336.11 2053.62 L3336.11 2084.25 L3343.75 2084.25 L3343.75 2088.18 L3323.84 2088.18 L3323.84 2084.25 Z" fill="#000000" fill-rule="nonzero" fill-opacity="1" /><path clip-path="url(#clip080)" d="M3363.19 2056.7 Q3359.58 2056.7 3357.75 2060.26 Q3355.95 2063.81 3355.95 2070.93 Q3355.95 2078.04 3357.75 2081.61 Q3359.58 2085.15 3363.19 2085.15 Q3366.83 2085.15 3368.63 2081.61 Q3370.46 2078.04 3370.46 2070.93 Q3370.46 2063.81 3368.63 2060.26 Q3366.83 2056.7 3363.19 2056.7 M3363.19 2053 Q3369 2053 3372.06 2057.6 Q3375.14 2062.19 3375.14 2070.93 Q3375.14 2079.66 3372.06 2084.27 Q3369 2088.85 3363.19 2088.85 Q3357.38 2088.85 3354.3 2084.27 Q3351.25 2079.66 3351.25 2070.93 Q3351.25 2062.19 3354.3 2057.6 Q3357.38 2053 3363.19 2053 Z" fill="#000000" fill-rule="nonzero" fill-opacity="1" /><circle clip-path="url(#clip080)" cx="3074.9" cy="2122.74" r="23.04" fill="#0077bb" fill-rule="evenodd" fill-opacity="0.4" stroke="#000000" stroke-opacity="0.4" stroke-width="0"/>
<path clip-path="url(#clip080)" d="M3244.07 2124.37 L3244.07 2140.02 L3239.81 2140.02 L3239.81 2124.51 Q3239.81 2120.83 3238.38 2119 Q3236.94 2117.17 3234.07 2117.17 Q3230.62 2117.17 3228.63 2119.37 Q3226.64 2121.57 3226.64 2125.37 L3226.64 2140.02 L3222.36 2140.02 L3222.36 2114.09 L3226.64 2114.09 L3226.64 2118.12 Q3228.17 2115.78 3230.23 2114.63 Q3232.31 2113.47 3235.02 2113.47 Q3239.49 2113.47 3241.78 2116.25 Q3244.07 2119 3244.07 2124.37 Z" fill="#000000" fill-rule="nonzero" fill-opacity="1" /><path clip-path="url(#clip080)" d="M3268.19 2118.49 L3297.87 2118.49 L3297.87 2122.38 L3268.19 2122.38 L3268.19 2118.49 M3268.19 2127.94 L3297.87 2127.94 L3297.87 2131.87 L3268.19 2131.87 L3268.19 2127.94 Z" fill="#000000" fill-rule="nonzero" fill-opacity="1" /><path clip-path="url(#clip080)" d="M3327.06 2136.09 L3343.38 2136.09 L3343.38 2140.02 L3321.43 2140.02 L3321.43 2136.09 Q3324.1 2133.33 3328.68 2128.7 Q3333.29 2124.05 3334.47 2122.71 Q3336.71 2120.18 3337.59 2118.45 Q3338.49 2116.69 3338.49 2115 Q3338.49 2112.24 3336.55 2110.51 Q3334.63 2108.77 3331.53 2108.77 Q3329.33 2108.77 3326.87 2109.53 Q3324.44 2110.3 3321.67 2111.85 L3321.67 2107.13 Q3324.49 2105.99 3326.94 2105.41 Q3329.4 2104.84 3331.43 2104.84 Q3336.8 2104.84 3340 2107.52 Q3343.19 2110.21 3343.19 2114.7 Q3343.19 2116.83 3342.38 2118.75 Q3341.6 2120.65 3339.49 2123.24 Q3338.91 2123.91 3335.81 2127.13 Q3332.71 2130.32 3327.06 2136.09 Z" fill="#000000" fill-rule="nonzero" fill-opacity="1" /><path clip-path="url(#clip080)" d="M3353.24 2105.46 L3371.6 2105.46 L3371.6 2109.4 L3357.52 2109.4 L3357.52 2117.87 Q3358.54 2117.52 3359.56 2117.36 Q3360.58 2117.17 3361.6 2117.17 Q3367.38 2117.17 3370.76 2120.34 Q3374.14 2123.52 3374.14 2128.93 Q3374.14 2134.51 3370.67 2137.61 Q3367.2 2140.69 3360.88 2140.69 Q3358.7 2140.69 3356.43 2140.32 Q3354.19 2139.95 3351.78 2139.21 L3351.78 2134.51 Q3353.86 2135.65 3356.09 2136.2 Q3358.31 2136.76 3360.79 2136.76 Q3364.79 2136.76 3367.13 2134.65 Q3369.47 2132.54 3369.47 2128.93 Q3369.47 2125.32 3367.13 2123.21 Q3364.79 2121.11 3360.79 2121.11 Q3358.91 2121.11 3357.04 2121.52 Q3355.18 2121.94 3353.24 2122.82 L3353.24 2105.46 Z" fill="#000000" fill-rule="nonzero" fill-opacity="1" /><polyline clip-path="url(#clip080)" style="stroke:#33bbee; stroke-linecap:round; stroke-linejoin:round; stroke-width:16; stroke-opacity:0.6; fill:none" points="2964.31,2174.58 3185.5,2174.58 "/>
<path clip-path="url(#clip080)" d="M3244.07 2176.21 L3244.07 2191.86 L3239.81 2191.86 L3239.81 2176.35 Q3239.81 2172.67 3238.38 2170.84 Q3236.94 2169.01 3234.07 2169.01 Q3230.62 2169.01 3228.63 2171.21 Q3226.64 2173.41 3226.64 2177.21 L3226.64 2191.86 L3222.36 2191.86 L3222.36 2165.93 L3226.64 2165.93 L3226.64 2169.96 Q3228.17 2167.62 3230.23 2166.47 Q3232.31 2165.31 3235.02 2165.31 Q3239.49 2165.31 3241.78 2168.09 Q3244.07 2170.84 3244.07 2176.21 Z" fill="#000000" fill-rule="nonzero" fill-opacity="1" /><path clip-path="url(#clip080)" d="M3268.19 2170.33 L3297.87 2170.33 L3297.87 2174.22 L3268.19 2174.22 L3268.19 2170.33 M3268.19 2179.78 L3297.87 2179.78 L3297.87 2183.71 L3268.19 2183.71 L3268.19 2179.78 Z" fill="#000000" fill-rule="nonzero" fill-opacity="1" /><path clip-path="url(#clip080)" d="M3323.08 2157.3 L3341.43 2157.3 L3341.43 2161.24 L3327.36 2161.24 L3327.36 2169.71 Q3328.38 2169.36 3329.4 2169.2 Q3330.42 2169.01 3331.43 2169.01 Q3337.22 2169.01 3340.6 2172.18 Q3343.98 2175.36 3343.98 2180.77 Q3343.98 2186.35 3340.51 2189.45 Q3337.04 2192.53 3330.72 2192.53 Q3328.54 2192.53 3326.27 2192.16 Q3324.03 2191.79 3321.62 2191.05 L3321.62 2186.35 Q3323.7 2187.49 3325.93 2188.04 Q3328.15 2188.6 3330.62 2188.6 Q3334.63 2188.6 3336.97 2186.49 Q3339.3 2184.38 3339.3 2180.77 Q3339.3 2177.16 3336.97 2175.05 Q3334.63 2172.95 3330.62 2172.95 Q3328.75 2172.95 3326.87 2173.36 Q3325.02 2173.78 3323.08 2174.66 L3323.08 2157.3 Z" fill="#000000" fill-rule="nonzero" fill-opacity="1" /><path clip-path="url(#clip080)" d="M3363.19 2160.38 Q3359.58 2160.38 3357.75 2163.94 Q3355.95 2167.49 3355.95 2174.61 Q3355.95 2181.72 3357.75 2185.29 Q3359.58 2188.83 3363.19 2188.83 Q3366.83 2188.83 3368.63 2185.29 Q3370.46 2181.72 3370.46 2174.61 Q3370.46 2167.49 3368.63 2163.94 Q3366.83 2160.38 3363.19 2160.38 M3363.19 2156.68 Q3369 2156.68 3372.06 2161.28 Q3375.14 2165.87 3375.14 2174.61 Q3375.14 2183.34 3372.06 2187.95 Q3369 2192.53 3363.19 2192.53 Q3357.38 2192.53 3354.3 2187.95 Q3351.25 2183.34 3351.25 2174.61 Q3351.25 2165.87 3354.3 2161.28 Q3357.38 2156.68 3363.19 2156.68 Z" fill="#000000" fill-rule="nonzero" fill-opacity="1" /><polyline clip-path="url(#clip080)" style="stroke:#ee3377; stroke-linecap:round; stroke-linejoin:round; stroke-width:12; stroke-opacity:0.5; fill:none" points="2964.31,2226.42 3185.5,2226.42 "/>
<path clip-path="url(#clip080)" d="M3244.07 2228.05 L3244.07 2243.7 L3239.81 2243.7 L3239.81 2228.19 Q3239.81 2224.51 3238.38 2222.68 Q3236.94 2220.85 3234.07 2220.85 Q3230.62 2220.85 3228.63 2223.05 Q3226.64 2225.25 3226.64 2229.05 L3226.64 2243.7 L3222.36 2243.7 L3222.36 2217.77 L3226.64 2217.77 L3226.64 2221.8 Q3228.17 2219.46 3230.23 2218.31 Q3232.31 2217.15 3235.02 2217.15 Q3239.49 2217.15 3241.78 2219.93 Q3244.07 2222.68 3244.07 2228.05 Z" fill="#000000" fill-rule="nonzero" fill-opacity="1" /><path clip-path="url(#clip080)" d="M3268.19 2222.17 L3297.87 2222.17 L3297.87 2226.06 L3268.19 2226.06 L3268.19 2222.17 M3268.19 2231.62 L3297.87 2231.62 L3297.87 2235.55 L3268.19 2235.55 L3268.19 2231.62 Z" fill="#000000" fill-rule="nonzero" fill-opacity="1" /><path clip-path="url(#clip080)" d="M3323.84 2239.77 L3331.48 2239.77 L3331.48 2213.4 L3323.17 2215.07 L3323.17 2210.81 L3331.43 2209.14 L3336.11 2209.14 L3336.11 2239.77 L3343.75 2239.77 L3343.75 2243.7 L3323.84 2243.7 L3323.84 2239.77 Z" fill="#000000" fill-rule="nonzero" fill-opacity="1" /><path clip-path="url(#clip080)" d="M3363.19 2212.22 Q3359.58 2212.22 3357.75 2215.78 Q3355.95 2219.33 3355.95 2226.45 Q3355.95 2233.56 3357.75 2237.13 Q3359.58 2240.67 3363.19 2240.67 Q3366.83 2240.67 3368.63 2237.13 Q3370.46 2233.56 3370.46 2226.45 Q3370.46 2219.33 3368.63 2215.78 Q3366.83 2212.22 3363.19 2212.22 M3363.19 2208.52 Q3369 2208.52 3372.06 2213.12 Q3375.14 2217.71 3375.14 2226.45 Q3375.14 2235.18 3372.06 2239.79 Q3369 2244.37 3363.19 2244.37 Q3357.38 2244.37 3354.3 2239.79 Q3351.25 2235.18 3351.25 2226.45 Q3351.25 2217.71 3354.3 2213.12 Q3357.38 2208.52 3363.19 2208.52 Z" fill="#000000" fill-rule="nonzero" fill-opacity="1" /><path clip-path="url(#clip080)" d="M3393.36 2212.22 Q3389.74 2212.22 3387.92 2215.78 Q3386.11 2219.33 3386.11 2226.45 Q3386.11 2233.56 3387.92 2237.13 Q3389.74 2240.67 3393.36 2240.67 Q3396.99 2240.67 3398.8 2237.13 Q3400.62 2233.56 3400.62 2226.45 Q3400.62 2219.33 3398.8 2215.78 Q3396.99 2212.22 3393.36 2212.22 M3393.36 2208.52 Q3399.17 2208.52 3402.22 2213.12 Q3405.3 2217.71 3405.3 2226.45 Q3405.3 2235.18 3402.22 2239.79 Q3399.17 2244.37 3393.36 2244.37 Q3387.55 2244.37 3384.47 2239.79 Q3381.41 2235.18 3381.41 2226.45 Q3381.41 2217.71 3384.47 2213.12 Q3387.55 2208.52 3393.36 2208.52 Z" fill="#000000" fill-rule="nonzero" fill-opacity="1" /><polyline clip-path="url(#clip080)" style="stroke:#cc3311; stroke-linecap:round; stroke-linejoin:round; stroke-width:6; stroke-opacity:1; fill:none" points="2964.31,2278.26 3185.5,2278.26 "/>
<path clip-path="url(#clip080)" d="M3244.07 2279.89 L3244.07 2295.54 L3239.81 2295.54 L3239.81 2280.03 Q3239.81 2276.35 3238.38 2274.52 Q3236.94 2272.69 3234.07 2272.69 Q3230.62 2272.69 3228.63 2274.89 Q3226.64 2277.09 3226.64 2280.89 L3226.64 2295.54 L3222.36 2295.54 L3222.36 2269.61 L3226.64 2269.61 L3226.64 2273.64 Q3228.17 2271.3 3230.23 2270.15 Q3232.31 2268.99 3235.02 2268.99 Q3239.49 2268.99 3241.78 2271.77 Q3244.07 2274.52 3244.07 2279.89 Z" fill="#000000" fill-rule="nonzero" fill-opacity="1" /><path clip-path="url(#clip080)" d="M3268.19 2274.01 L3297.87 2274.01 L3297.87 2277.9 L3268.19 2277.9 L3268.19 2274.01 M3268.19 2283.46 L3297.87 2283.46 L3297.87 2287.39 L3268.19 2287.39 L3268.19 2283.46 Z" fill="#000000" fill-rule="nonzero" fill-opacity="1" /><path clip-path="url(#clip080)" d="M3327.06 2291.61 L3343.38 2291.61 L3343.38 2295.54 L3321.43 2295.54 L3321.43 2291.61 Q3324.1 2288.85 3328.68 2284.22 Q3333.29 2279.57 3334.47 2278.23 Q3336.71 2275.7 3337.59 2273.97 Q3338.49 2272.21 3338.49 2270.52 Q3338.49 2267.76 3336.55 2266.03 Q3334.63 2264.29 3331.53 2264.29 Q3329.33 2264.29 3326.87 2265.05 Q3324.44 2265.82 3321.67 2267.37 L3321.67 2262.65 Q3324.49 2261.51 3326.94 2260.93 Q3329.4 2260.36 3331.43 2260.36 Q3336.8 2260.36 3340 2263.04 Q3343.19 2265.73 3343.19 2270.22 Q3343.19 2272.35 3342.38 2274.27 Q3341.6 2276.17 3339.49 2278.76 Q3338.91 2279.43 3335.81 2282.65 Q3332.71 2285.84 3327.06 2291.61 Z" fill="#000000" fill-rule="nonzero" fill-opacity="1" /><path clip-path="url(#clip080)" d="M3363.19 2264.06 Q3359.58 2264.06 3357.75 2267.62 Q3355.95 2271.17 3355.95 2278.29 Q3355.95 2285.4 3357.75 2288.97 Q3359.58 2292.51 3363.19 2292.51 Q3366.83 2292.51 3368.63 2288.97 Q3370.46 2285.4 3370.46 2278.29 Q3370.46 2271.17 3368.63 2267.62 Q3366.83 2264.06 3363.19 2264.06 M3363.19 2260.36 Q3369 2260.36 3372.06 2264.96 Q3375.14 2269.55 3375.14 2278.29 Q3375.14 2287.02 3372.06 2291.63 Q3369 2296.21 3363.19 2296.21 Q3357.38 2296.21 3354.3 2291.63 Q3351.25 2287.02 3351.25 2278.29 Q3351.25 2269.55 3354.3 2264.96 Q3357.38 2260.36 3363.19 2260.36 Z" fill="#000000" fill-rule="nonzero" fill-opacity="1" /><path clip-path="url(#clip080)" d="M3393.36 2264.06 Q3389.74 2264.06 3387.92 2267.62 Q3386.11 2271.17 3386.11 2278.29 Q3386.11 2285.4 3387.92 2288.97 Q3389.74 2292.51 3393.36 2292.51 Q3396.99 2292.51 3398.8 2288.97 Q3400.62 2285.4 3400.62 2278.29 Q3400.62 2271.17 3398.8 2267.62 Q3396.99 2264.06 3393.36 2264.06 M3393.36 2260.36 Q3399.17 2260.36 3402.22 2264.96 Q3405.3 2269.55 3405.3 2278.29 Q3405.3 2287.02 3402.22 2291.63 Q3399.17 2296.21 3393.36 2296.21 Q3387.55 2296.21 3384.47 2291.63 Q3381.41 2287.02 3381.41 2278.29 Q3381.41 2269.55 3384.47 2264.96 Q3387.55 2260.36 3393.36 2260.36 Z" fill="#000000" fill-rule="nonzero" fill-opacity="1" /></svg>
