<?xml version="1.0" encoding="utf-8"?>
<svg xmlns="http://www.w3.org/2000/svg" xmlns:xlink="http://www.w3.org/1999/xlink" width="900" height="650" viewBox="0 0 3600 2600">
<defs>
  <clipPath id="clip690">
    <rect x="0" y="0" width="3600" height="2600"/>
  </clipPath>
</defs>
<path clip-path="url(#clip690)" d="M0 2600 L3600 2600 L3600 0 L0 0  Z" fill="#ffffff" fill-rule="evenodd" fill-opacity="1"/>
<defs>
  <clipPath id="clip691">
    <rect x="720" y="0" width="2521" height="2521"/>
  </clipPath>
</defs>
<defs>
  <clipPath id="clip692">
    <rect x="251" y="119" width="3303" height="2288"/>
  </clipPath>
</defs>
<path clip-path="url(#clip690)" d="M251.243 2406.34 L3552.76 2406.34 L3552.76 119.152 L251.243 119.152  Z" fill="#ffffff" fill-rule="evenodd" fill-opacity="1"/>
<polyline clip-path="url(#clip692)" style="stroke:#222255; stroke-linecap:round; stroke-linejoin:round; stroke-width:2; stroke-opacity:0.5; fill:none" points="334.846,2406.34 334.846,119.152 "/>
<polyline clip-path="url(#clip692)" style="stroke:#222255; stroke-linecap:round; stroke-linejoin:round; stroke-width:2; stroke-opacity:0.5; fill:none" points="990.559,2406.34 990.559,119.152 "/>
<polyline clip-path="url(#clip692)" style="stroke:#222255; stroke-linecap:round; stroke-linejoin:round; stroke-width:2; stroke-opacity:0.5; fill:none" points="1646.27,2406.34 1646.27,119.152 "/>
<polyline clip-path="url(#clip692)" style="stroke:#222255; stroke-linecap:round; stroke-linejoin:round; stroke-width:2; stroke-opacity:0.5; fill:none" points="2301.98,2406.34 2301.98,119.152 "/>
<polyline clip-path="url(#clip692)" style="stroke:#222255; stroke-linecap:round; stroke-linejoin:round; stroke-width:2; stroke-opacity:0.5; fill:none" points="2957.7,2406.34 2957.7,119.152 "/>
<polyline clip-path="url(#clip692)" style="stroke:#222255; stroke-linecap:round; stroke-linejoin:round; stroke-width:2; stroke-opacity:0.3; fill:none" points="465.989,2406.34 465.989,119.152 "/>
<polyline clip-path="url(#clip692)" style="stroke:#222255; stroke-linecap:round; stroke-linejoin:round; stroke-width:2; stroke-opacity:0.3; fill:none" points="597.131,2406.34 597.131,119.152 "/>
<polyline clip-path="url(#clip692)" style="stroke:#222255; stroke-linecap:round; stroke-linejoin:round; stroke-width:2; stroke-opacity:0.3; fill:none" points="728.274,2406.34 728.274,119.152 "/>
<polyline clip-path="url(#clip692)" style="stroke:#222255; stroke-linecap:round; stroke-linejoin:round; stroke-width:2; stroke-opacity:0.3; fill:none" points="859.416,2406.34 859.416,119.152 "/>
<polyline clip-path="url(#clip692)" style="stroke:#222255; stroke-linecap:round; stroke-linejoin:round; stroke-width:2; stroke-opacity:0.3; fill:none" points="1121.7,2406.34 1121.7,119.152 "/>
<polyline clip-path="url(#clip692)" style="stroke:#222255; stroke-linecap:round; stroke-linejoin:round; stroke-width:2; stroke-opacity:0.3; fill:none" points="1252.84,2406.34 1252.84,119.152 "/>
<polyline clip-path="url(#clip692)" style="stroke:#222255; stroke-linecap:round; stroke-linejoin:round; stroke-width:2; stroke-opacity:0.3; fill:none" points="1383.99,2406.34 1383.99,119.152 "/>
<polyline clip-path="url(#clip692)" style="stroke:#222255; stroke-linecap:round; stroke-linejoin:round; stroke-width:2; stroke-opacity:0.3; fill:none" points="1515.13,2406.34 1515.13,119.152 "/>
<polyline clip-path="url(#clip692)" style="stroke:#222255; stroke-linecap:round; stroke-linejoin:round; stroke-width:2; stroke-opacity:0.3; fill:none" points="1777.41,2406.34 1777.41,119.152 "/>
<polyline clip-path="url(#clip692)" style="stroke:#222255; stroke-linecap:round; stroke-linejoin:round; stroke-width:2; stroke-opacity:0.3; fill:none" points="1908.56,2406.34 1908.56,119.152 "/>
<polyline clip-path="url(#clip692)" style="stroke:#222255; stroke-linecap:round; stroke-linejoin:round; stroke-width:2; stroke-opacity:0.3; fill:none" points="2039.7,2406.34 2039.7,119.152 "/>
<polyline clip-path="url(#clip692)" style="stroke:#222255; stroke-linecap:round; stroke-linejoin:round; stroke-width:2; stroke-opacity:0.3; fill:none" points="2170.84,2406.34 2170.84,119.152 "/>
<polyline clip-path="url(#clip692)" style="stroke:#222255; stroke-linecap:round; stroke-linejoin:round; stroke-width:2; stroke-opacity:0.3; fill:none" points="2433.13,2406.34 2433.13,119.152 "/>
<polyline clip-path="url(#clip692)" style="stroke:#222255; stroke-linecap:round; stroke-linejoin:round; stroke-width:2; stroke-opacity:0.3; fill:none" points="2564.27,2406.34 2564.27,119.152 "/>
<polyline clip-path="url(#clip692)" style="stroke:#222255; stroke-linecap:round; stroke-linejoin:round; stroke-width:2; stroke-opacity:0.3; fill:none" points="2695.41,2406.34 2695.41,119.152 "/>
<polyline clip-path="url(#clip692)" style="stroke:#222255; stroke-linecap:round; stroke-linejoin:round; stroke-width:2; stroke-opacity:0.3; fill:none" points="2826.55,2406.34 2826.55,119.152 "/>
<polyline clip-path="url(#clip692)" style="stroke:#222255; stroke-linecap:round; stroke-linejoin:round; stroke-width:2; stroke-opacity:0.3; fill:none" points="3088.84,2406.34 3088.84,119.152 "/>
<polyline clip-path="url(#clip692)" style="stroke:#222255; stroke-linecap:round; stroke-linejoin:round; stroke-width:2; stroke-opacity:0.3; fill:none" points="3219.98,2406.34 3219.98,119.152 "/>
<polyline clip-path="url(#clip692)" style="stroke:#222255; stroke-linecap:round; stroke-linejoin:round; stroke-width:2; stroke-opacity:0.3; fill:none" points="3351.12,2406.34 3351.12,119.152 "/>
<polyline clip-path="url(#clip692)" style="stroke:#222255; stroke-linecap:round; stroke-linejoin:round; stroke-width:2; stroke-opacity:0.3; fill:none" points="3482.27,2406.34 3482.27,119.152 "/>
<polyline clip-path="url(#clip690)" style="stroke:#222255; stroke-linecap:round; stroke-linejoin:round; stroke-width:4; stroke-opacity:0; fill:none" points="334.846,2406.34 334.846,2387.44 "/>
<polyline clip-path="url(#clip690)" style="stroke:#222255; stroke-linecap:round; stroke-linejoin:round; stroke-width:4; stroke-opacity:0; fill:none" points="990.559,2406.34 990.559,2387.44 "/>
<polyline clip-path="url(#clip690)" style="stroke:#222255; stroke-linecap:round; stroke-linejoin:round; stroke-width:4; stroke-opacity:0; fill:none" points="1646.27,2406.34 1646.27,2387.44 "/>
<polyline clip-path="url(#clip690)" style="stroke:#222255; stroke-linecap:round; stroke-linejoin:round; stroke-width:4; stroke-opacity:0; fill:none" points="2301.98,2406.34 2301.98,2387.44 "/>
<polyline clip-path="url(#clip690)" style="stroke:#222255; stroke-linecap:round; stroke-linejoin:round; stroke-width:4; stroke-opacity:0; fill:none" points="2957.7,2406.34 2957.7,2387.44 "/>
<polyline clip-path="url(#clip690)" style="stroke:#222255; stroke-linecap:round; stroke-linejoin:round; stroke-width:4; stroke-opacity:0; fill:none" points="465.989,2406.34 465.989,2396.89 "/>
<polyline clip-path="url(#clip690)" style="stroke:#222255; stroke-linecap:round; stroke-linejoin:round; stroke-width:4; stroke-opacity:0; fill:none" points="597.131,2406.34 597.131,2396.89 "/>
<polyline clip-path="url(#clip690)" style="stroke:#222255; stroke-linecap:round; stroke-linejoin:round; stroke-width:4; stroke-opacity:0; fill:none" points="728.274,2406.34 728.274,2396.89 "/>
<polyline clip-path="url(#clip690)" style="stroke:#222255; stroke-linecap:round; stroke-linejoin:round; stroke-width:4; stroke-opacity:0; fill:none" points="859.416,2406.34 859.416,2396.89 "/>
<polyline clip-path="url(#clip690)" style="stroke:#222255; stroke-linecap:round; stroke-linejoin:round; stroke-width:4; stroke-opacity:0; fill:none" points="1121.7,2406.34 1121.7,2396.89 "/>
<polyline clip-path="url(#clip690)" style="stroke:#222255; stroke-linecap:round; stroke-linejoin:round; stroke-width:4; stroke-opacity:0; fill:none" points="1252.84,2406.34 1252.84,2396.89 "/>
<polyline clip-path="url(#clip690)" style="stroke:#222255; stroke-linecap:round; stroke-linejoin:round; stroke-width:4; stroke-opacity:0; fill:none" points="1383.99,2406.34 1383.99,2396.89 "/>
<polyline clip-path="url(#clip690)" style="stroke:#222255; stroke-linecap:round; stroke-linejoin:round; stroke-width:4; stroke-opacity:0; fill:none" points="1515.13,2406.34 1515.13,2396.89 "/>
<polyline clip-path="url(#clip690)" style="stroke:#222255; stroke-linecap:round; stroke-linejoin:round; stroke-width:4; stroke-opacity:0; fill:none" points="1777.41,2406.34 1777.41,2396.89 "/>
<polyline clip-path="url(#clip690)" style="stroke:#222255; stroke-linecap:round; stroke-linejoin:round; stroke-width:4; stroke-opacity:0; fill:none" points="1908.56,2406.34 1908.56,2396.89 "/>
<polyline clip-path="url(#clip690)" style="stroke:#222255; stroke-linecap:round; stroke-linejoin:round; stroke-width:4; stroke-opacity:0; fill:none" points="2039.7,2406.34 2039.7,2396.89 "/>
<polyline clip-path="url(#clip690)" style="stroke:#222255; stroke-linecap:round; stroke-linejoin:round; stroke-width:4; stroke-opacity:0; fill:none" points="2170.84,2406.34 2170.84,2396.89 "/>
<polyline clip-path="url(#clip690)" style="stroke:#222255; stroke-linecap:round; stroke-linejoin:round; stroke-width:4; stroke-opacity:0; fill:none" points="2433.13,2406.34 2433.13,2396.89 "/>
<polyline clip-path="url(#clip690)" style="stroke:#222255; stroke-linecap:round; stroke-linejoin:round; stroke-width:4; stroke-opacity:0; fill:none" points="2564.27,2406.34 2564.27,2396.89 "/>
<polyline clip-path="url(#clip690)" style="stroke:#222255; stroke-linecap:round; stroke-linejoin:round; stroke-width:4; stroke-opacity:0; fill:none" points="2695.41,2406.34 2695.41,2396.89 "/>
<polyline clip-path="url(#clip690)" style="stroke:#222255; stroke-linecap:round; stroke-linejoin:round; stroke-width:4; stroke-opacity:0; fill:none" points="2826.55,2406.34 2826.55,2396.89 "/>
<polyline clip-path="url(#clip690)" style="stroke:#222255; stroke-linecap:round; stroke-linejoin:round; stroke-width:4; stroke-opacity:0; fill:none" points="3088.84,2406.34 3088.84,2396.89 "/>
<polyline clip-path="url(#clip690)" style="stroke:#222255; stroke-linecap:round; stroke-linejoin:round; stroke-width:4; stroke-opacity:0; fill:none" points="3219.98,2406.34 3219.98,2396.89 "/>
<polyline clip-path="url(#clip690)" style="stroke:#222255; stroke-linecap:round; stroke-linejoin:round; stroke-width:4; stroke-opacity:0; fill:none" points="3351.12,2406.34 3351.12,2396.89 "/>
<polyline clip-path="url(#clip690)" style="stroke:#222255; stroke-linecap:round; stroke-linejoin:round; stroke-width:4; stroke-opacity:0; fill:none" points="3482.27,2406.34 3482.27,2396.89 "/>
<path clip-path="url(#clip690)" d="M334.846 2446.86 Q331.235 2446.86 329.406 2450.42 Q327.601 2453.96 327.601 2461.09 Q327.601 2468.2 329.406 2471.77 Q331.235 2475.31 334.846 2475.31 Q338.48 2475.31 340.286 2471.77 Q342.115 2468.2 342.115 2461.09 Q342.115 2453.96 340.286 2450.42 Q338.48 2446.86 334.846 2446.86 M334.846 2443.15 Q340.656 2443.15 343.712 2447.76 Q346.791 2452.34 346.791 2461.09 Q346.791 2469.82 343.712 2474.43 Q340.656 2479.01 334.846 2479.01 Q329.036 2479.01 325.957 2474.43 Q322.902 2469.82 322.902 2461.09 Q322.902 2452.34 325.957 2447.76 Q329.036 2443.15 334.846 2443.15 Z" fill="#000000" fill-rule="nonzero" fill-opacity="1" /><path clip-path="url(#clip690)" d="M954.251 2474.4 L970.571 2474.4 L970.571 2478.34 L948.626 2478.34 L948.626 2474.4 Q951.288 2471.65 955.872 2467.02 Q960.478 2462.37 961.659 2461.03 Q963.904 2458.5 964.784 2456.77 Q965.686 2455.01 965.686 2453.32 Q965.686 2450.56 963.742 2448.83 Q961.821 2447.09 958.719 2447.09 Q956.52 2447.09 954.066 2447.85 Q951.635 2448.62 948.858 2450.17 L948.858 2445.45 Q951.682 2444.31 954.135 2443.73 Q956.589 2443.15 958.626 2443.15 Q963.996 2443.15 967.191 2445.84 Q970.385 2448.53 970.385 2453.02 Q970.385 2455.15 969.575 2457.07 Q968.788 2458.96 966.682 2461.56 Q966.103 2462.23 963.001 2465.45 Q959.899 2468.64 954.251 2474.4 Z" fill="#000000" fill-rule="nonzero" fill-opacity="1" /><path clip-path="url(#clip690)" d="M990.385 2446.86 Q986.774 2446.86 984.945 2450.42 Q983.14 2453.96 983.14 2461.09 Q983.14 2468.2 984.945 2471.77 Q986.774 2475.31 990.385 2475.31 Q994.019 2475.31 995.825 2471.77 Q997.654 2468.2 997.654 2461.09 Q997.654 2453.96 995.825 2450.42 Q994.019 2446.86 990.385 2446.86 M990.385 2443.15 Q996.195 2443.15 999.251 2447.76 Q1002.33 2452.34 1002.33 2461.09 Q1002.33 2469.82 999.251 2474.43 Q996.195 2479.01 990.385 2479.01 Q984.575 2479.01 981.496 2474.43 Q978.441 2469.82 978.441 2461.09 Q978.441 2452.34 981.496 2447.76 Q984.575 2443.15 990.385 2443.15 Z" fill="#000000" fill-rule="nonzero" fill-opacity="1" /><path clip-path="url(#clip690)" d="M1020.55 2446.86 Q1016.94 2446.86 1015.11 2450.42 Q1013.3 2453.96 1013.3 2461.09 Q1013.3 2468.2 1015.11 2471.77 Q1016.94 2475.31 1020.55 2475.31 Q1024.18 2475.31 1025.99 2471.77 Q1027.82 2468.2 1027.82 2461.09 Q1027.82 2453.96 1025.99 2450.42 Q1024.18 2446.86 1020.55 2446.86 M1020.55 2443.15 Q1026.36 2443.15 1029.41 2447.76 Q1032.49 2452.34 1032.49 2461.09 Q1032.49 2469.82 1029.41 2474.43 Q1026.36 2479.01 1020.55 2479.01 Q1014.74 2479.01 1011.66 2474.43 Q1008.6 2469.82 1008.6 2461.09 Q1008.6 2452.34 1011.66 2447.76 Q1014.74 2443.15 1020.55 2443.15 Z" fill="#000000" fill-rule="nonzero" fill-opacity="1" /><path clip-path="url(#clip690)" d="M1619.36 2447.85 L1607.56 2466.3 L1619.36 2466.3 L1619.36 2447.85 M1618.14 2443.78 L1624.01 2443.78 L1624.01 2466.3 L1628.95 2466.3 L1628.95 2470.19 L1624.01 2470.19 L1624.01 2478.34 L1619.36 2478.34 L1619.36 2470.19 L1603.76 2470.19 L1603.76 2465.68 L1618.14 2443.78 Z" fill="#000000" fill-rule="nonzero" fill-opacity="1" /><path clip-path="url(#clip690)" d="M1646.68 2446.86 Q1643.07 2446.86 1641.24 2450.42 Q1639.43 2453.96 1639.43 2461.09 Q1639.43 2468.2 1641.24 2471.77 Q1643.07 2475.31 1646.68 2475.31 Q1650.31 2475.31 1652.12 2471.77 Q1653.95 2468.2 1653.95 2461.09 Q1653.95 2453.96 1652.12 2450.42 Q1650.31 2446.86 1646.68 2446.86 M1646.68 2443.15 Q1652.49 2443.15 1655.54 2447.76 Q1658.62 2452.34 1658.62 2461.09 Q1658.62 2469.82 1655.54 2474.43 Q1652.49 2479.01 1646.68 2479.01 Q1640.87 2479.01 1637.79 2474.43 Q1634.73 2469.82 1634.73 2461.09 Q1634.73 2452.34 1637.79 2447.76 Q1640.87 2443.15 1646.68 2443.15 Z" fill="#000000" fill-rule="nonzero" fill-opacity="1" /><path clip-path="url(#clip690)" d="M1676.84 2446.86 Q1673.23 2446.86 1671.4 2450.42 Q1669.59 2453.96 1669.59 2461.09 Q1669.59 2468.2 1671.4 2471.77 Q1673.23 2475.31 1676.84 2475.31 Q1680.47 2475.31 1682.28 2471.77 Q1684.11 2468.2 1684.11 2461.09 Q1684.11 2453.96 1682.28 2450.42 Q1680.47 2446.86 1676.84 2446.86 M1676.84 2443.15 Q1682.65 2443.15 1685.7 2447.76 Q1688.78 2452.34 1688.78 2461.09 Q1688.78 2469.82 1685.7 2474.43 Q1682.65 2479.01 1676.84 2479.01 Q1671.03 2479.01 1667.95 2474.43 Q1664.89 2469.82 1664.89 2461.09 Q1664.89 2452.34 1667.95 2447.76 Q1671.03 2443.15 1676.84 2443.15 Z" fill="#000000" fill-rule="nonzero" fill-opacity="1" /><path clip-path="url(#clip690)" d="M2272.31 2459.2 Q2269.16 2459.2 2267.31 2461.35 Q2265.48 2463.5 2265.48 2467.25 Q2265.48 2470.98 2267.31 2473.15 Q2269.16 2475.31 2272.31 2475.31 Q2275.46 2475.31 2277.29 2473.15 Q2279.14 2470.98 2279.14 2467.25 Q2279.14 2463.5 2277.29 2461.35 Q2275.46 2459.2 2272.31 2459.2 M2281.59 2444.54 L2281.59 2448.8 Q2279.83 2447.97 2278.03 2447.53 Q2276.24 2447.09 2274.48 2447.09 Q2269.85 2447.09 2267.4 2450.21 Q2264.97 2453.34 2264.62 2459.66 Q2265.99 2457.65 2268.05 2456.58 Q2270.11 2455.49 2272.59 2455.49 Q2277.79 2455.49 2280.8 2458.66 Q2283.84 2461.81 2283.84 2467.25 Q2283.84 2472.58 2280.69 2475.79 Q2277.54 2479.01 2272.31 2479.01 Q2266.31 2479.01 2263.14 2474.43 Q2259.97 2469.82 2259.97 2461.09 Q2259.97 2452.9 2263.86 2448.04 Q2267.75 2443.15 2274.3 2443.15 Q2276.06 2443.15 2277.84 2443.5 Q2279.65 2443.85 2281.59 2444.54 Z" fill="#000000" fill-rule="nonzero" fill-opacity="1" /><path clip-path="url(#clip690)" d="M2301.89 2446.86 Q2298.28 2446.86 2296.45 2450.42 Q2294.65 2453.96 2294.65 2461.09 Q2294.65 2468.2 2296.45 2471.77 Q2298.28 2475.31 2301.89 2475.31 Q2305.53 2475.31 2307.33 2471.77 Q2309.16 2468.2 2309.16 2461.09 Q2309.16 2453.96 2307.33 2450.42 Q2305.53 2446.86 2301.89 2446.86 M2301.89 2443.15 Q2307.7 2443.15 2310.76 2447.76 Q2313.84 2452.34 2313.84 2461.09 Q2313.84 2469.82 2310.76 2474.43 Q2307.7 2479.01 2301.89 2479.01 Q2296.08 2479.01 2293 2474.43 Q2289.95 2469.82 2289.95 2461.09 Q2289.95 2452.34 2293 2447.76 Q2296.08 2443.15 2301.89 2443.15 Z" fill="#000000" fill-rule="nonzero" fill-opacity="1" /><path clip-path="url(#clip690)" d="M2332.05 2446.86 Q2328.44 2446.86 2326.61 2450.42 Q2324.81 2453.96 2324.81 2461.09 Q2324.81 2468.2 2326.61 2471.77 Q2328.44 2475.31 2332.05 2475.31 Q2335.69 2475.31 2337.49 2471.77 Q2339.32 2468.2 2339.32 2461.09 Q2339.32 2453.96 2337.49 2450.42 Q2335.69 2446.86 2332.05 2446.86 M2332.05 2443.15 Q2337.86 2443.15 2340.92 2447.76 Q2344 2452.34 2344 2461.09 Q2344 2469.82 2340.92 2474.43 Q2337.86 2479.01 2332.05 2479.01 Q2326.24 2479.01 2323.16 2474.43 Q2320.11 2469.82 2320.11 2461.09 Q2320.11 2452.34 2323.16 2447.76 Q2326.24 2443.15 2332.05 2443.15 Z" fill="#000000" fill-rule="nonzero" fill-opacity="1" /><path clip-path="url(#clip690)" d="M2927.49 2461.93 Q2924.16 2461.93 2922.23 2463.71 Q2920.34 2465.49 2920.34 2468.62 Q2920.34 2471.74 2922.23 2473.53 Q2924.16 2475.31 2927.49 2475.31 Q2930.82 2475.31 2932.74 2473.53 Q2934.66 2471.72 2934.66 2468.62 Q2934.66 2465.49 2932.74 2463.71 Q2930.84 2461.93 2927.49 2461.93 M2922.81 2459.94 Q2919.8 2459.2 2918.11 2457.14 Q2916.45 2455.08 2916.45 2452.11 Q2916.45 2447.97 2919.39 2445.56 Q2922.35 2443.15 2927.49 2443.15 Q2932.65 2443.15 2935.59 2445.56 Q2938.53 2447.97 2938.53 2452.11 Q2938.53 2455.08 2936.84 2457.14 Q2935.17 2459.2 2932.19 2459.94 Q2935.57 2460.72 2937.44 2463.02 Q2939.34 2465.31 2939.34 2468.62 Q2939.34 2473.64 2936.26 2476.33 Q2933.21 2479.01 2927.49 2479.01 Q2921.77 2479.01 2918.69 2476.33 Q2915.64 2473.64 2915.64 2468.62 Q2915.64 2465.31 2917.53 2463.02 Q2919.43 2460.72 2922.81 2459.94 M2921.1 2452.55 Q2921.1 2455.24 2922.77 2456.74 Q2924.46 2458.25 2927.49 2458.25 Q2930.5 2458.25 2932.19 2456.74 Q2933.9 2455.24 2933.9 2452.55 Q2933.9 2449.87 2932.19 2448.36 Q2930.5 2446.86 2927.49 2446.86 Q2924.46 2446.86 2922.77 2448.36 Q2921.1 2449.87 2921.1 2452.55 Z" fill="#000000" fill-rule="nonzero" fill-opacity="1" /><path clip-path="url(#clip690)" d="M2957.65 2446.86 Q2954.04 2446.86 2952.21 2450.42 Q2950.41 2453.96 2950.41 2461.09 Q2950.41 2468.2 2952.21 2471.77 Q2954.04 2475.31 2957.65 2475.31 Q2961.28 2475.31 2963.09 2471.77 Q2964.92 2468.2 2964.92 2461.09 Q2964.92 2453.96 2963.09 2450.42 Q2961.28 2446.86 2957.65 2446.86 M2957.65 2443.15 Q2963.46 2443.15 2966.52 2447.76 Q2969.59 2452.34 2969.59 2461.09 Q2969.59 2469.82 2966.52 2474.43 Q2963.46 2479.01 2957.65 2479.01 Q2951.84 2479.01 2948.76 2474.43 Q2945.71 2469.82 2945.71 2461.09 Q2945.71 2452.34 2948.76 2447.76 Q2951.84 2443.15 2957.65 2443.15 Z" fill="#000000" fill-rule="nonzero" fill-opacity="1" /><path clip-path="url(#clip690)" d="M2987.81 2446.86 Q2984.2 2446.86 2982.37 2450.42 Q2980.57 2453.96 2980.57 2461.09 Q2980.57 2468.2 2982.37 2471.77 Q2984.2 2475.31 2987.81 2475.31 Q2991.45 2475.31 2993.25 2471.77 Q2995.08 2468.2 2995.08 2461.09 Q2995.08 2453.96 2993.25 2450.42 Q2991.45 2446.86 2987.81 2446.86 M2987.81 2443.15 Q2993.62 2443.15 2996.68 2447.76 Q2999.76 2452.34 2999.76 2461.09 Q2999.76 2469.82 2996.68 2474.43 Q2993.62 2479.01 2987.81 2479.01 Q2982 2479.01 2978.92 2474.43 Q2975.87 2469.82 2975.87 2461.09 Q2975.87 2452.34 2978.92 2447.76 Q2982 2443.15 2987.81 2443.15 Z" fill="#000000" fill-rule="nonzero" fill-opacity="1" /><path clip-path="url(#clip690)" d="M1884.02 2521.68 L1892.67 2521.68 L1913.74 2561.44 L1913.74 2521.68 L1919.98 2521.68 L1919.98 2569.2 L1911.33 2569.2 L1890.25 2529.45 L1890.25 2569.2 L1884.02 2569.2 L1884.02 2521.68 Z" fill="#000000" fill-rule="nonzero" fill-opacity="1" /><polyline clip-path="url(#clip692)" style="stroke:#222255; stroke-linecap:round; stroke-linejoin:round; stroke-width:2; stroke-opacity:0.5; fill:none" points="251.243,2346.15 3552.76,2346.15 "/>
<polyline clip-path="url(#clip692)" style="stroke:#222255; stroke-linecap:round; stroke-linejoin:round; stroke-width:2; stroke-opacity:0.5; fill:none" points="251.243,1892.37 3552.76,1892.37 "/>
<polyline clip-path="url(#clip692)" style="stroke:#222255; stroke-linecap:round; stroke-linejoin:round; stroke-width:2; stroke-opacity:0.5; fill:none" points="251.243,1438.59 3552.76,1438.59 "/>
<polyline clip-path="url(#clip692)" style="stroke:#222255; stroke-linecap:round; stroke-linejoin:round; stroke-width:2; stroke-opacity:0.5; fill:none" points="251.243,984.806 3552.76,984.806 "/>
<polyline clip-path="url(#clip692)" style="stroke:#222255; stroke-linecap:round; stroke-linejoin:round; stroke-width:2; stroke-opacity:0.5; fill:none" points="251.243,531.026 3552.76,531.026 "/>
<polyline clip-path="url(#clip692)" style="stroke:#222255; stroke-linecap:round; stroke-linejoin:round; stroke-width:2; stroke-opacity:0.3; fill:none" points="251.243,2255.39 3552.76,2255.39 "/>
<polyline clip-path="url(#clip692)" style="stroke:#222255; stroke-linecap:round; stroke-linejoin:round; stroke-width:2; stroke-opacity:0.3; fill:none" points="251.243,2164.63 3552.76,2164.63 "/>
<polyline clip-path="url(#clip692)" style="stroke:#222255; stroke-linecap:round; stroke-linejoin:round; stroke-width:2; stroke-opacity:0.3; fill:none" points="251.243,2073.88 3552.76,2073.88 "/>
<polyline clip-path="url(#clip692)" style="stroke:#222255; stroke-linecap:round; stroke-linejoin:round; stroke-width:2; stroke-opacity:0.3; fill:none" points="251.243,1983.12 3552.76,1983.12 "/>
<polyline clip-path="url(#clip692)" style="stroke:#222255; stroke-linecap:round; stroke-linejoin:round; stroke-width:2; stroke-opacity:0.3; fill:none" points="251.243,1801.61 3552.76,1801.61 "/>
<polyline clip-path="url(#clip692)" style="stroke:#222255; stroke-linecap:round; stroke-linejoin:round; stroke-width:2; stroke-opacity:0.3; fill:none" points="251.243,1710.85 3552.76,1710.85 "/>
<polyline clip-path="url(#clip692)" style="stroke:#222255; stroke-linecap:round; stroke-linejoin:round; stroke-width:2; stroke-opacity:0.3; fill:none" points="251.243,1620.1 3552.76,1620.1 "/>
<polyline clip-path="url(#clip692)" style="stroke:#222255; stroke-linecap:round; stroke-linejoin:round; stroke-width:2; stroke-opacity:0.3; fill:none" points="251.243,1529.34 3552.76,1529.34 "/>
<polyline clip-path="url(#clip692)" style="stroke:#222255; stroke-linecap:round; stroke-linejoin:round; stroke-width:2; stroke-opacity:0.3; fill:none" points="251.243,1347.83 3552.76,1347.83 "/>
<polyline clip-path="url(#clip692)" style="stroke:#222255; stroke-linecap:round; stroke-linejoin:round; stroke-width:2; stroke-opacity:0.3; fill:none" points="251.243,1257.07 3552.76,1257.07 "/>
<polyline clip-path="url(#clip692)" style="stroke:#222255; stroke-linecap:round; stroke-linejoin:round; stroke-width:2; stroke-opacity:0.3; fill:none" points="251.243,1166.32 3552.76,1166.32 "/>
<polyline clip-path="url(#clip692)" style="stroke:#222255; stroke-linecap:round; stroke-linejoin:round; stroke-width:2; stroke-opacity:0.3; fill:none" points="251.243,1075.56 3552.76,1075.56 "/>
<polyline clip-path="url(#clip692)" style="stroke:#222255; stroke-linecap:round; stroke-linejoin:round; stroke-width:2; stroke-opacity:0.3; fill:none" points="251.243,894.05 3552.76,894.05 "/>
<polyline clip-path="url(#clip692)" style="stroke:#222255; stroke-linecap:round; stroke-linejoin:round; stroke-width:2; stroke-opacity:0.3; fill:none" points="251.243,803.294 3552.76,803.294 "/>
<polyline clip-path="url(#clip692)" style="stroke:#222255; stroke-linecap:round; stroke-linejoin:round; stroke-width:2; stroke-opacity:0.3; fill:none" points="251.243,712.538 3552.76,712.538 "/>
<polyline clip-path="url(#clip692)" style="stroke:#222255; stroke-linecap:round; stroke-linejoin:round; stroke-width:2; stroke-opacity:0.3; fill:none" points="251.243,621.782 3552.76,621.782 "/>
<polyline clip-path="url(#clip692)" style="stroke:#222255; stroke-linecap:round; stroke-linejoin:round; stroke-width:2; stroke-opacity:0.3; fill:none" points="251.243,440.27 3552.76,440.27 "/>
<polyline clip-path="url(#clip692)" style="stroke:#222255; stroke-linecap:round; stroke-linejoin:round; stroke-width:2; stroke-opacity:0.3; fill:none" points="251.243,349.514 3552.76,349.514 "/>
<polyline clip-path="url(#clip692)" style="stroke:#222255; stroke-linecap:round; stroke-linejoin:round; stroke-width:2; stroke-opacity:0.3; fill:none" points="251.243,258.758 3552.76,258.758 "/>
<polyline clip-path="url(#clip692)" style="stroke:#222255; stroke-linecap:round; stroke-linejoin:round; stroke-width:2; stroke-opacity:0.3; fill:none" points="251.243,168.002 3552.76,168.002 "/>
<polyline clip-path="url(#clip690)" style="stroke:#222255; stroke-linecap:round; stroke-linejoin:round; stroke-width:4; stroke-opacity:0; fill:none" points="251.243,2346.15 270.14,2346.15 "/>
<polyline clip-path="url(#clip690)" style="stroke:#222255; stroke-linecap:round; stroke-linejoin:round; stroke-width:4; stroke-opacity:0; fill:none" points="251.243,1892.37 270.14,1892.37 "/>
<polyline clip-path="url(#clip690)" style="stroke:#222255; stroke-linecap:round; stroke-linejoin:round; stroke-width:4; stroke-opacity:0; fill:none" points="251.243,1438.59 270.14,1438.59 "/>
<polyline clip-path="url(#clip690)" style="stroke:#222255; stroke-linecap:round; stroke-linejoin:round; stroke-width:4; stroke-opacity:0; fill:none" points="251.243,984.806 270.14,984.806 "/>
<polyline clip-path="url(#clip690)" style="stroke:#222255; stroke-linecap:round; stroke-linejoin:round; stroke-width:4; stroke-opacity:0; fill:none" points="251.243,531.026 270.14,531.026 "/>
<polyline clip-path="url(#clip690)" style="stroke:#222255; stroke-linecap:round; stroke-linejoin:round; stroke-width:4; stroke-opacity:0; fill:none" points="251.243,2255.39 260.692,2255.39 "/>
<polyline clip-path="url(#clip690)" style="stroke:#222255; stroke-linecap:round; stroke-linejoin:round; stroke-width:4; stroke-opacity:0; fill:none" points="251.243,2164.63 260.692,2164.63 "/>
<polyline clip-path="url(#clip690)" style="stroke:#222255; stroke-linecap:round; stroke-linejoin:round; stroke-width:4; stroke-opacity:0; fill:none" points="251.243,2073.88 260.692,2073.88 "/>
<polyline clip-path="url(#clip690)" style="stroke:#222255; stroke-linecap:round; stroke-linejoin:round; stroke-width:4; stroke-opacity:0; fill:none" points="251.243,1983.12 260.692,1983.12 "/>
<polyline clip-path="url(#clip690)" style="stroke:#222255; stroke-linecap:round; stroke-linejoin:round; stroke-width:4; stroke-opacity:0; fill:none" points="251.243,1801.61 260.692,1801.61 "/>
<polyline clip-path="url(#clip690)" style="stroke:#222255; stroke-linecap:round; stroke-linejoin:round; stroke-width:4; stroke-opacity:0; fill:none" points="251.243,1710.85 260.692,1710.85 "/>
<polyline clip-path="url(#clip690)" style="stroke:#222255; stroke-linecap:round; stroke-linejoin:round; stroke-width:4; stroke-opacity:0; fill:none" points="251.243,1620.1 260.692,1620.1 "/>
<polyline clip-path="url(#clip690)" style="stroke:#222255; stroke-linecap:round; stroke-linejoin:round; stroke-width:4; stroke-opacity:0; fill:none" points="251.243,1529.34 260.692,1529.34 "/>
<polyline clip-path="url(#clip690)" style="stroke:#222255; stroke-linecap:round; stroke-linejoin:round; stroke-width:4; stroke-opacity:0; fill:none" points="251.243,1347.83 260.692,1347.83 "/>
<polyline clip-path="url(#clip690)" style="stroke:#222255; stroke-linecap:round; stroke-linejoin:round; stroke-width:4; stroke-opacity:0; fill:none" points="251.243,1257.07 260.692,1257.07 "/>
<polyline clip-path="url(#clip690)" style="stroke:#222255; stroke-linecap:round; stroke-linejoin:round; stroke-width:4; stroke-opacity:0; fill:none" points="251.243,1166.32 260.692,1166.32 "/>
<polyline clip-path="url(#clip690)" style="stroke:#222255; stroke-linecap:round; stroke-linejoin:round; stroke-width:4; stroke-opacity:0; fill:none" points="251.243,1075.56 260.692,1075.56 "/>
<polyline clip-path="url(#clip690)" style="stroke:#222255; stroke-linecap:round; stroke-linejoin:round; stroke-width:4; stroke-opacity:0; fill:none" points="251.243,894.05 260.692,894.05 "/>
<polyline clip-path="url(#clip690)" style="stroke:#222255; stroke-linecap:round; stroke-linejoin:round; stroke-width:4; stroke-opacity:0; fill:none" points="251.243,803.294 260.692,803.294 "/>
<polyline clip-path="url(#clip690)" style="stroke:#222255; stroke-linecap:round; stroke-linejoin:round; stroke-width:4; stroke-opacity:0; fill:none" points="251.243,712.538 260.692,712.538 "/>
<polyline clip-path="url(#clip690)" style="stroke:#222255; stroke-linecap:round; stroke-linejoin:round; stroke-width:4; stroke-opacity:0; fill:none" points="251.243,621.782 260.692,621.782 "/>
<polyline clip-path="url(#clip690)" style="stroke:#222255; stroke-linecap:round; stroke-linejoin:round; stroke-width:4; stroke-opacity:0; fill:none" points="251.243,440.27 260.692,440.27 "/>
<polyline clip-path="url(#clip690)" style="stroke:#222255; stroke-linecap:round; stroke-linejoin:round; stroke-width:4; stroke-opacity:0; fill:none" points="251.243,349.514 260.692,349.514 "/>
<polyline clip-path="url(#clip690)" style="stroke:#222255; stroke-linecap:round; stroke-linejoin:round; stroke-width:4; stroke-opacity:0; fill:none" points="251.243,258.758 260.692,258.758 "/>
<polyline clip-path="url(#clip690)" style="stroke:#222255; stroke-linecap:round; stroke-linejoin:round; stroke-width:4; stroke-opacity:0; fill:none" points="251.243,168.002 260.692,168.002 "/>
<path clip-path="url(#clip690)" d="M185.298 2331.94 Q181.687 2331.94 179.859 2335.51 Q178.053 2339.05 178.053 2346.18 Q178.053 2353.29 179.859 2356.85 Q181.687 2360.39 185.298 2360.39 Q188.933 2360.39 190.738 2356.85 Q192.567 2353.29 192.567 2346.18 Q192.567 2339.05 190.738 2335.51 Q188.933 2331.94 185.298 2331.94 M185.298 2328.24 Q191.109 2328.24 194.164 2332.85 Q197.243 2337.43 197.243 2346.18 Q197.243 2354.91 194.164 2359.51 Q191.109 2364.1 185.298 2364.1 Q179.488 2364.1 176.41 2359.51 Q173.354 2354.91 173.354 2346.18 Q173.354 2337.43 176.41 2332.85 Q179.488 2328.24 185.298 2328.24 Z" fill="#000000" fill-rule="nonzero" fill-opacity="1" /><path clip-path="url(#clip690)" d="M115.785 1905.71 L123.424 1905.71 L123.424 1879.35 L115.114 1881.01 L115.114 1876.75 L123.378 1875.09 L128.053 1875.09 L128.053 1905.71 L135.692 1905.71 L135.692 1909.65 L115.785 1909.65 L115.785 1905.71 Z" fill="#000000" fill-rule="nonzero" fill-opacity="1" /><path clip-path="url(#clip690)" d="M155.137 1878.16 Q151.526 1878.16 149.697 1881.73 Q147.891 1885.27 147.891 1892.4 Q147.891 1899.51 149.697 1903.07 Q151.526 1906.61 155.137 1906.61 Q158.771 1906.61 160.576 1903.07 Q162.405 1899.51 162.405 1892.4 Q162.405 1885.27 160.576 1881.73 Q158.771 1878.16 155.137 1878.16 M155.137 1874.46 Q160.947 1874.46 164.002 1879.07 Q167.081 1883.65 167.081 1892.4 Q167.081 1901.13 164.002 1905.73 Q160.947 1910.32 155.137 1910.32 Q149.326 1910.32 146.248 1905.73 Q143.192 1901.13 143.192 1892.4 Q143.192 1883.65 146.248 1879.07 Q149.326 1874.46 155.137 1874.46 Z" fill="#000000" fill-rule="nonzero" fill-opacity="1" /><path clip-path="url(#clip690)" d="M185.298 1878.16 Q181.687 1878.16 179.859 1881.73 Q178.053 1885.27 178.053 1892.4 Q178.053 1899.51 179.859 1903.07 Q181.687 1906.61 185.298 1906.61 Q188.933 1906.61 190.738 1903.07 Q192.567 1899.51 192.567 1892.4 Q192.567 1885.27 190.738 1881.73 Q188.933 1878.16 185.298 1878.16 M185.298 1874.46 Q191.109 1874.46 194.164 1879.07 Q197.243 1883.65 197.243 1892.4 Q197.243 1901.13 194.164 1905.73 Q191.109 1910.32 185.298 1910.32 Q179.488 1910.32 176.41 1905.73 Q173.354 1901.13 173.354 1892.4 Q173.354 1883.65 176.41 1879.07 Q179.488 1874.46 185.298 1874.46 Z" fill="#000000" fill-rule="nonzero" fill-opacity="1" /><path clip-path="url(#clip690)" d="M119.003 1451.93 L135.322 1451.93 L135.322 1455.87 L113.378 1455.87 L113.378 1451.93 Q116.04 1449.18 120.623 1444.55 Q125.229 1439.89 126.41 1438.55 Q128.655 1436.03 129.535 1434.29 Q130.438 1432.53 130.438 1430.84 Q130.438 1428.09 128.493 1426.35 Q126.572 1424.62 123.47 1424.62 Q121.271 1424.62 118.817 1425.38 Q116.387 1426.14 113.609 1427.69 L113.609 1422.97 Q116.433 1421.84 118.887 1421.26 Q121.34 1420.68 123.378 1420.68 Q128.748 1420.68 131.942 1423.37 Q135.137 1426.05 135.137 1430.54 Q135.137 1432.67 134.327 1434.59 Q133.539 1436.49 131.433 1439.08 Q130.854 1439.75 127.752 1442.97 Q124.651 1446.17 119.003 1451.93 Z" fill="#000000" fill-rule="nonzero" fill-opacity="1" /><path clip-path="url(#clip690)" d="M155.137 1424.38 Q151.526 1424.38 149.697 1427.95 Q147.891 1431.49 147.891 1438.62 Q147.891 1445.73 149.697 1449.29 Q151.526 1452.83 155.137 1452.83 Q158.771 1452.83 160.576 1449.29 Q162.405 1445.73 162.405 1438.62 Q162.405 1431.49 160.576 1427.95 Q158.771 1424.38 155.137 1424.38 M155.137 1420.68 Q160.947 1420.68 164.002 1425.29 Q167.081 1429.87 167.081 1438.62 Q167.081 1447.35 164.002 1451.95 Q160.947 1456.54 155.137 1456.54 Q149.326 1456.54 146.248 1451.95 Q143.192 1447.35 143.192 1438.62 Q143.192 1429.87 146.248 1425.29 Q149.326 1420.68 155.137 1420.68 Z" fill="#000000" fill-rule="nonzero" fill-opacity="1" /><path clip-path="url(#clip690)" d="M185.298 1424.38 Q181.687 1424.38 179.859 1427.95 Q178.053 1431.49 178.053 1438.62 Q178.053 1445.73 179.859 1449.29 Q181.687 1452.83 185.298 1452.83 Q188.933 1452.83 190.738 1449.29 Q192.567 1445.73 192.567 1438.62 Q192.567 1431.49 190.738 1427.95 Q188.933 1424.38 185.298 1424.38 M185.298 1420.68 Q191.109 1420.68 194.164 1425.29 Q197.243 1429.87 197.243 1438.62 Q197.243 1447.35 194.164 1451.95 Q191.109 1456.54 185.298 1456.54 Q179.488 1456.54 176.41 1451.95 Q173.354 1447.35 173.354 1438.62 Q173.354 1429.87 176.41 1425.29 Q179.488 1420.68 185.298 1420.68 Z" fill="#000000" fill-rule="nonzero" fill-opacity="1" /><path clip-path="url(#clip690)" d="M129.141 983.452 Q132.498 984.169 134.373 986.438 Q136.271 988.706 136.271 992.039 Q136.271 997.155 132.752 999.956 Q129.234 1002.76 122.753 1002.76 Q120.577 1002.76 118.262 1002.32 Q115.97 1001.9 113.516 1001.04 L113.516 996.53 Q115.461 997.664 117.776 998.243 Q120.09 998.822 122.614 998.822 Q127.012 998.822 129.303 997.086 Q131.618 995.35 131.618 992.039 Q131.618 988.984 129.465 987.271 Q127.336 985.535 123.516 985.535 L119.489 985.535 L119.489 981.692 L123.702 981.692 Q127.151 981.692 128.979 980.327 Q130.808 978.938 130.808 976.345 Q130.808 973.683 128.91 972.271 Q127.035 970.836 123.516 970.836 Q121.595 970.836 119.396 971.253 Q117.197 971.669 114.558 972.549 L114.558 968.382 Q117.22 967.641 119.535 967.271 Q121.873 966.901 123.933 966.901 Q129.257 966.901 132.359 969.331 Q135.461 971.739 135.461 975.859 Q135.461 978.729 133.817 980.72 Q132.174 982.688 129.141 983.452 Z" fill="#000000" fill-rule="nonzero" fill-opacity="1" /><path clip-path="url(#clip690)" d="M155.137 970.604 Q151.526 970.604 149.697 974.169 Q147.891 977.711 147.891 984.84 Q147.891 991.947 149.697 995.512 Q151.526 999.053 155.137 999.053 Q158.771 999.053 160.576 995.512 Q162.405 991.947 162.405 984.84 Q162.405 977.711 160.576 974.169 Q158.771 970.604 155.137 970.604 M155.137 966.901 Q160.947 966.901 164.002 971.507 Q167.081 976.09 167.081 984.84 Q167.081 993.567 164.002 998.174 Q160.947 1002.76 155.137 1002.76 Q149.326 1002.76 146.248 998.174 Q143.192 993.567 143.192 984.84 Q143.192 976.09 146.248 971.507 Q149.326 966.901 155.137 966.901 Z" fill="#000000" fill-rule="nonzero" fill-opacity="1" /><path clip-path="url(#clip690)" d="M185.298 970.604 Q181.687 970.604 179.859 974.169 Q178.053 977.711 178.053 984.84 Q178.053 991.947 179.859 995.512 Q181.687 999.053 185.298 999.053 Q188.933 999.053 190.738 995.512 Q192.567 991.947 192.567 984.84 Q192.567 977.711 190.738 974.169 Q188.933 970.604 185.298 970.604 M185.298 966.901 Q191.109 966.901 194.164 971.507 Q197.243 976.09 197.243 984.84 Q197.243 993.567 194.164 998.174 Q191.109 1002.76 185.298 1002.76 Q179.488 1002.76 176.41 998.174 Q173.354 993.567 173.354 984.84 Q173.354 976.09 176.41 971.507 Q179.488 966.901 185.298 966.901 Z" fill="#000000" fill-rule="nonzero" fill-opacity="1" /><path clip-path="url(#clip690)" d="M127.822 517.82 L116.016 536.269 L127.822 536.269 L127.822 517.82 M126.595 513.746 L132.475 513.746 L132.475 536.269 L137.405 536.269 L137.405 540.158 L132.475 540.158 L132.475 548.306 L127.822 548.306 L127.822 540.158 L112.22 540.158 L112.22 535.644 L126.595 513.746 Z" fill="#000000" fill-rule="nonzero" fill-opacity="1" /><path clip-path="url(#clip690)" d="M155.137 516.824 Q151.526 516.824 149.697 520.389 Q147.891 523.931 147.891 531.06 Q147.891 538.167 149.697 541.732 Q151.526 545.273 155.137 545.273 Q158.771 545.273 160.576 541.732 Q162.405 538.167 162.405 531.06 Q162.405 523.931 160.576 520.389 Q158.771 516.824 155.137 516.824 M155.137 513.121 Q160.947 513.121 164.002 517.727 Q167.081 522.31 167.081 531.06 Q167.081 539.787 164.002 544.394 Q160.947 548.977 155.137 548.977 Q149.326 548.977 146.248 544.394 Q143.192 539.787 143.192 531.06 Q143.192 522.31 146.248 517.727 Q149.326 513.121 155.137 513.121 Z" fill="#000000" fill-rule="nonzero" fill-opacity="1" /><path clip-path="url(#clip690)" d="M185.298 516.824 Q181.687 516.824 179.859 520.389 Q178.053 523.931 178.053 531.06 Q178.053 538.167 179.859 541.732 Q181.687 545.273 185.298 545.273 Q188.933 545.273 190.738 541.732 Q192.567 538.167 192.567 531.06 Q192.567 523.931 190.738 520.389 Q188.933 516.824 185.298 516.824 M185.298 513.121 Q191.109 513.121 194.164 517.727 Q197.243 522.31 197.243 531.06 Q197.243 539.787 194.164 544.394 Q191.109 548.977 185.298 548.977 Q179.488 548.977 176.41 544.394 Q173.354 539.787 173.354 531.06 Q173.354 522.31 176.41 517.727 Q179.488 513.121 185.298 513.121 Z" fill="#000000" fill-rule="nonzero" fill-opacity="1" /><path clip-path="url(#clip690)" d="M21.1282 1244.04 Q23.0606 1244.04 26.4422 1244.78 Q29.8238 1245.49 31.4341 1246.07 Q35.7175 1247.68 39.3245 1250.9 Q41.3213 1252.67 42.7706 1254.6 Q44.1876 1256.5 44.8962 1257.92 Q45.5725 1259.33 45.9267 1261.01 Q46.3132 1262.68 46.3454 1263.46 Q46.4098 1264.23 46.4098 1265.32 L56.2326 1267.84 Q58.7769 1268.35 58.9379 1268.61 Q59.0667 1268.67 59.1311 1268.83 Q59.1956 1268.96 59.1956 1269.09 L59.1956 1269.22 Q59.1956 1269.58 59.0345 1269.77 Q58.8735 1269.96 58.6803 1269.99 L58.5192 1269.99 Q58.0684 1269.99 52.2713 1268.48 Q49.3084 1267.71 46.2488 1267.03 Q45.9267 1272.18 43.6401 1275.37 Q41.3535 1278.53 36.9091 1278.53 Q34.1716 1278.53 25.7659 1275.34 Q21.7401 1273.83 20.0654 1273.83 Q19.3247 1273.83 18.8738 1273.99 Q18.3907 1274.15 18.2297 1274.47 Q18.0365 1274.79 18.0043 1274.99 Q17.9721 1275.15 17.9721 1275.47 Q17.9721 1277.37 19.8722 1279.14 Q21.7723 1280.91 26.1523 1282.14 Q26.9575 1282.39 27.1507 1282.55 Q27.344 1282.72 27.344 1283.2 Q27.3118 1284 26.6676 1284 Q26.41 1284 25.4116 1283.71 Q24.381 1283.42 22.8673 1282.75 Q21.3215 1282.04 19.9366 1281.07 Q18.5196 1280.11 17.5212 1278.59 Q16.5228 1277.05 16.5228 1275.28 Q16.5228 1272.86 18.1009 1271.38 Q19.6468 1269.87 21.9334 1269.87 Q22.3843 1269.87 22.8996 1269.96 Q23.4148 1270.06 23.7047 1270.16 Q23.9946 1270.22 24.542 1270.41 Q25.0573 1270.57 25.154 1270.61 Q29.4051 1272.25 32.1748 1273.09 Q34.9123 1273.92 35.7175 1274.05 Q36.4904 1274.15 37.4244 1274.15 Q43.93 1274.15 44.7995 1266.64 L1.22501 1255.69 Q0.323242 1255.5 0.130007 1255.34 Q-0.095434 1255.18 -0.095434 1254.7 Q-0.095434 1253.92 0.613095 1253.92 Q0.838536 1253.92 1.61148 1254.12 L44.9284 1265 Q44.9284 1263.97 44.8962 1263.33 Q44.8639 1262.68 44.5741 1261.33 Q44.252 1259.95 43.6723 1258.79 Q43.0926 1257.59 41.9332 1255.92 Q40.7416 1254.25 39.0669 1252.6 Q36.9735 1250.54 33.4631 1248.71 Q29.9526 1246.87 27.0541 1246.87 Q23.8013 1246.87 21.4503 1249.22 Q21.1282 1249.58 20.935 1249.77 Q20.7418 1249.93 20.4197 1250.09 Q20.0976 1250.22 19.679 1250.22 Q18.584 1250.22 17.5534 1249.19 Q16.5228 1248.16 16.5228 1246.93 Q16.5228 1245.84 17.5856 1244.94 Q18.6484 1244.04 21.1282 1244.04 Z" fill="#000000" fill-rule="nonzero" fill-opacity="1" /><path clip-path="url(#clip690)" d="M274.68 34.2568 Q279.715 35.3331 282.527 38.7359 Q285.375 42.1387 285.375 47.1386 Q285.375 54.8122 280.097 59.0136 Q274.819 63.2149 265.097 63.2149 Q261.833 63.2149 258.361 62.5552 Q254.923 61.9302 251.243 60.6455 L251.243 53.8747 Q254.16 55.5761 257.632 56.4441 Q261.104 57.3122 264.889 57.3122 Q271.486 57.3122 274.923 54.708 Q278.395 52.1039 278.395 47.1386 Q278.395 42.5553 275.166 39.9859 Q271.972 37.3817 266.243 37.3817 L260.201 37.3817 L260.201 31.6179 L266.521 31.6179 Q271.694 31.6179 274.437 29.5693 Q277.18 27.486 277.18 23.5971 Q277.18 19.6041 274.333 17.486 Q271.521 15.3333 266.243 15.3333 Q263.361 15.3333 260.062 15.9582 Q256.764 16.5832 252.805 17.9027 L252.805 11.6527 Q256.798 10.5416 260.271 9.98606 Q263.778 9.43051 266.868 9.43051 Q274.854 9.43051 279.507 13.0763 Q284.159 16.6874 284.159 22.8679 Q284.159 27.1735 281.694 30.1596 Q279.229 33.1109 274.68 34.2568 Z" fill="#000000" fill-rule="nonzero" fill-opacity="1" /><path clip-path="url(#clip690)" d="M298.673 53.3886 L306 53.3886 L306 62.208 L298.673 62.208 L298.673 53.3886 Z" fill="#000000" fill-rule="nonzero" fill-opacity="1" /><path clip-path="url(#clip690)" d="M327.319 56.3053 L351.798 56.3053 L351.798 62.208 L318.881 62.208 L318.881 56.3053 Q322.874 52.1733 329.749 45.2289 Q336.659 38.2498 338.43 36.2359 Q341.798 32.4512 343.117 29.8471 Q344.472 27.2082 344.472 24.6735 Q344.472 20.5416 341.555 17.9374 Q338.673 15.3333 334.02 15.3333 Q330.722 15.3333 327.041 16.4791 Q323.395 17.6249 319.229 19.9513 L319.229 12.868 Q323.465 11.1666 327.145 10.2986 Q330.826 9.43051 333.881 9.43051 Q341.937 9.43051 346.728 13.4583 Q351.52 17.486 351.52 24.2221 Q351.52 27.4165 350.305 30.2984 Q349.124 33.1457 345.965 37.0345 Q345.097 38.0415 340.444 42.8678 Q335.791 47.6595 327.319 56.3053 Z" fill="#000000" fill-rule="nonzero" fill-opacity="1" /><path clip-path="url(#clip690)" d="M366.52 53.3886 L373.846 53.3886 L373.846 62.208 L366.52 62.208 L366.52 53.3886 Z" fill="#000000" fill-rule="nonzero" fill-opacity="1" /><path clip-path="url(#clip690)" d="M390.339 56.3053 L401.798 56.3053 L401.798 16.7569 L389.332 19.2568 L389.332 12.868 L401.728 10.368 L408.742 10.368 L408.742 56.3053 L420.2 56.3053 L420.2 62.208 L390.339 62.208 L390.339 56.3053 Z" fill="#000000" fill-rule="nonzero" fill-opacity="1" /><path clip-path="url(#clip690)" d="M456.346 10.368 L489.124 10.368 L489.124 16.2707 L463.36 16.2707 L463.36 31.6179 L488.047 31.6179 L488.047 37.5206 L463.36 37.5206 L463.36 56.3053 L489.749 56.3053 L489.749 62.208 L456.346 62.208 L456.346 10.368 Z" fill="#000000" fill-rule="nonzero" fill-opacity="1" /><path clip-path="url(#clip690)" d="M523.533 29.2915 Q522.457 28.6665 521.172 28.3887 Q519.922 28.0762 518.394 28.0762 Q512.978 28.0762 510.061 31.6179 Q507.179 35.1248 507.179 41.722 L507.179 62.208 L500.755 62.208 L500.755 23.3193 L507.179 23.3193 L507.179 29.361 Q509.193 25.8193 512.422 24.1179 Q515.651 22.3818 520.269 22.3818 Q520.929 22.3818 521.728 22.486 Q522.526 22.5554 523.498 22.729 L523.533 29.2915 Z" fill="#000000" fill-rule="nonzero" fill-opacity="1" /><path clip-path="url(#clip690)" d="M554.575 29.2221 L554.575 8.18051 L560.963 8.18051 L560.963 62.208 L554.575 62.208 L554.575 56.3747 Q552.561 59.8469 549.47 61.5483 Q546.415 63.2149 542.109 63.2149 Q535.061 63.2149 530.616 57.59 Q526.207 51.965 526.207 42.7984 Q526.207 33.6318 530.616 28.0068 Q535.061 22.3818 542.109 22.3818 Q546.415 22.3818 549.47 24.0832 Q552.561 25.7499 554.575 29.2221 M532.804 42.7984 Q532.804 49.847 535.686 53.8747 Q538.602 57.8677 543.672 57.8677 Q548.741 57.8677 551.658 53.8747 Q554.575 49.847 554.575 42.7984 Q554.575 35.7498 551.658 31.7568 Q548.741 27.729 543.672 27.729 Q538.602 27.729 535.686 31.7568 Q532.804 35.7498 532.804 42.7984 Z" fill="#000000" fill-rule="nonzero" fill-opacity="1" /><path clip-path="url(#clip690)" d="M599.505 5.3333 L605.685 5.3333 L597.074 18.3888 L592.387 18.3888 L599.505 5.3333 M587.908 5.3333 L593.81 5.3333 L586.067 18.3888 L581.311 18.3888 L587.908 5.3333 M589.192 27.7985 Q584.054 27.7985 581.067 31.8262 Q578.081 35.8193 578.081 42.7984 Q578.081 49.7775 581.033 53.8053 Q584.019 57.7983 589.192 57.7983 Q594.297 57.7983 597.283 53.7705 Q600.269 49.7428 600.269 42.7984 Q600.269 35.8887 597.283 31.8609 Q594.297 27.7985 589.192 27.7985 M589.192 22.3818 Q597.526 22.3818 602.283 27.7985 Q607.04 33.2151 607.04 42.7984 Q607.04 52.3469 602.283 57.7983 Q597.526 63.2149 589.192 63.2149 Q580.824 63.2149 576.067 57.7983 Q571.345 52.3469 571.345 42.7984 Q571.345 33.2151 576.067 27.7985 Q580.824 22.3818 589.192 22.3818 Z" fill="#000000" fill-rule="nonzero" fill-opacity="1" /><path clip-path="url(#clip690)" d="M642.421 24.4651 L642.421 30.5068 Q639.713 29.1179 636.796 28.4235 Q633.88 27.729 630.755 27.729 Q625.998 27.729 623.602 29.1873 Q621.241 30.6457 621.241 33.5623 Q621.241 35.7845 622.942 37.0692 Q624.644 38.3192 629.782 39.4651 L631.97 39.9512 Q638.775 41.4095 641.623 44.0831 Q644.505 46.722 644.505 51.4789 Q644.505 56.8955 640.199 60.0552 Q635.928 63.2149 628.428 63.2149 Q625.303 63.2149 621.901 62.5899 Q618.533 61.9997 614.783 60.7844 L614.783 54.1872 Q618.324 56.0275 621.762 56.965 Q625.199 57.8677 628.567 57.8677 Q633.081 57.8677 635.512 56.34 Q637.942 54.7775 637.942 51.965 Q637.942 49.3608 636.171 47.972 Q634.435 46.5831 628.498 45.2984 L626.276 44.7775 Q620.338 43.5275 617.699 40.9581 Q615.06 38.354 615.06 33.8401 Q615.06 28.354 618.949 25.3679 Q622.838 22.3818 629.991 22.3818 Q633.532 22.3818 636.657 22.9027 Q639.782 23.4235 642.421 24.4651 Z" fill="#000000" fill-rule="nonzero" fill-opacity="1" /><path clip-path="url(#clip690)" d="M651.449 40.229 L680.06 40.229 L680.06 45.2289 L651.449 45.2289 L651.449 40.229 Z" fill="#000000" fill-rule="nonzero" fill-opacity="1" /><path clip-path="url(#clip690)" d="M715.095 37.9026 Q717.351 38.6665 719.47 41.1664 Q721.622 43.6664 723.775 48.0414 L730.893 62.208 L723.358 62.208 L716.726 48.9095 Q714.157 43.7012 711.726 41.9998 Q709.331 40.2984 705.164 40.2984 L697.525 40.2984 L697.525 62.208 L690.511 62.208 L690.511 10.368 L706.345 10.368 Q715.233 10.368 719.608 14.0833 Q723.983 17.7985 723.983 25.2985 Q723.983 30.1943 721.692 33.4234 Q719.435 36.6526 715.095 37.9026 M697.525 16.1319 L697.525 34.5345 L706.345 34.5345 Q711.414 34.5345 713.983 32.2082 Q716.588 29.8471 716.588 25.2985 Q716.588 20.7499 713.983 18.4582 Q711.414 16.1319 706.345 16.1319 L697.525 16.1319 Z" fill="#000000" fill-rule="nonzero" fill-opacity="1" /><path clip-path="url(#clip690)" d="M769.712 41.1664 L769.712 44.2914 L740.337 44.2914 Q740.754 50.8886 744.296 54.3608 Q747.872 57.7983 754.226 57.7983 Q757.907 57.7983 761.344 56.8955 Q764.816 55.9928 768.219 54.1872 L768.219 60.2288 Q764.782 61.6872 761.171 62.4511 Q757.56 63.2149 753.844 63.2149 Q744.539 63.2149 739.087 57.7983 Q733.671 52.3817 733.671 43.1456 Q733.671 33.597 738.81 28.0068 Q743.983 22.3818 752.733 22.3818 Q760.58 22.3818 765.129 27.4512 Q769.712 32.4859 769.712 41.1664 M763.323 39.2915 Q763.254 34.0484 760.372 30.9234 Q757.525 27.7985 752.803 27.7985 Q747.455 27.7985 744.226 30.8193 Q741.032 33.8401 740.546 39.3262 L763.323 39.2915 M757.178 5.3333 L764.087 5.3333 L752.768 18.3888 L747.455 18.3888 L757.178 5.3333 Z" fill="#000000" fill-rule="nonzero" fill-opacity="1" /><path clip-path="url(#clip690)" d="M812.525 38.7359 L812.525 62.208 L806.136 62.208 L806.136 38.9442 Q806.136 33.4234 803.983 30.6804 Q801.83 27.9374 797.525 27.9374 Q792.351 27.9374 789.365 31.2359 Q786.379 34.5345 786.379 40.229 L786.379 62.208 L779.955 62.208 L779.955 23.3193 L786.379 23.3193 L786.379 29.361 Q788.671 25.854 791.761 24.1179 Q794.886 22.3818 798.948 22.3818 Q805.65 22.3818 809.087 26.5485 Q812.525 30.6804 812.525 38.7359 Z" fill="#000000" fill-rule="nonzero" fill-opacity="1" /><path clip-path="url(#clip690)" d="M841.448 65.8191 Q838.74 72.7635 836.17 74.8815 Q833.601 76.9996 829.295 76.9996 L824.191 76.9996 L824.191 71.6524 L827.941 71.6524 Q830.58 71.6524 832.038 70.4024 Q833.497 69.1524 835.267 64.4997 L836.413 61.583 L820.684 23.3193 L827.455 23.3193 L839.608 53.7358 L851.76 23.3193 L858.531 23.3193 L841.448 65.8191 Z" fill="#000000" fill-rule="nonzero" fill-opacity="1" /><path clip-path="url(#clip690)" d="M867.351 23.3193 L873.74 23.3193 L873.74 62.208 L867.351 62.208 L867.351 23.3193 M867.351 8.18051 L873.74 8.18051 L873.74 16.2707 L867.351 16.2707 L867.351 8.18051 Z" fill="#000000" fill-rule="nonzero" fill-opacity="1" /><path clip-path="url(#clip690)" d="M925.059 8.24996 Q920.406 16.236 918.149 24.0485 Q915.892 31.8609 915.892 39.8817 Q915.892 47.9025 918.149 55.7844 Q920.441 63.6316 925.059 71.5829 L919.503 71.5829 Q914.295 63.4233 911.691 55.5414 Q909.121 47.6595 909.121 39.8817 Q909.121 32.1387 911.691 24.2915 Q914.26 16.4444 919.503 8.24996 L925.059 8.24996 Z" fill="#000000" fill-rule="nonzero" fill-opacity="1" /><path clip-path="url(#clip690)" d="M969.781 38.7359 L969.781 62.208 L963.392 62.208 L963.392 38.9442 Q963.392 33.4234 961.239 30.6804 Q959.086 27.9374 954.781 27.9374 Q949.607 27.9374 946.621 31.2359 Q943.635 34.5345 943.635 40.229 L943.635 62.208 L937.211 62.208 L937.211 23.3193 L943.635 23.3193 L943.635 29.361 Q945.927 25.854 949.017 24.1179 Q952.142 22.3818 956.204 22.3818 Q962.906 22.3818 966.343 26.5485 Q969.781 30.6804 969.781 38.7359 Z" fill="#000000" fill-rule="nonzero" fill-opacity="1" /><path clip-path="url(#clip690)" d="M1005.96 29.9165 L1050.47 29.9165 L1050.47 35.7498 L1005.96 35.7498 L1005.96 29.9165 M1005.96 44.0831 L1050.47 44.0831 L1050.47 49.9858 L1005.96 49.9858 L1005.96 44.0831 Z" fill="#000000" fill-rule="nonzero" fill-opacity="1" /><path clip-path="url(#clip690)" d="M1089.43 56.3053 L1100.89 56.3053 L1100.89 16.7569 L1088.43 19.2568 L1088.43 12.868 L1100.82 10.368 L1107.84 10.368 L1107.84 56.3053 L1119.29 56.3053 L1119.29 62.208 L1089.43 62.208 L1089.43 56.3053 Z" fill="#000000" fill-rule="nonzero" fill-opacity="1" /><path clip-path="url(#clip690)" d="M1131.55 8.24996 L1137.11 8.24996 Q1142.31 16.4444 1144.88 24.2915 Q1147.49 32.1387 1147.49 39.8817 Q1147.49 47.6595 1144.88 55.5414 Q1142.31 63.4233 1137.11 71.5829 L1131.55 71.5829 Q1136.17 63.6316 1138.43 55.7844 Q1140.72 47.9025 1140.72 39.8817 Q1140.72 31.8609 1138.43 24.0485 Q1136.17 16.236 1131.55 8.24996 Z" fill="#000000" fill-rule="nonzero" fill-opacity="1" /><circle clip-path="url(#clip692)" cx="1983.96" cy="2113.12" r="18" fill="#ee7733" fill-rule="evenodd" fill-opacity="1" stroke="#000000" stroke-opacity="1" stroke-width="0"/>
<circle clip-path="url(#clip692)" cx="2475.75" cy="1987.74" r="18" fill="#ee7733" fill-rule="evenodd" fill-opacity="1" stroke="#000000" stroke-opacity="1" stroke-width="0"/>
<circle clip-path="url(#clip692)" cx="2639.68" cy="1942.17" r="18" fill="#ee7733" fill-rule="evenodd" fill-opacity="1" stroke="#000000" stroke-opacity="1" stroke-width="0"/>
<circle clip-path="url(#clip692)" cx="2967.53" cy="1860.18" r="18" fill="#ee7733" fill-rule="evenodd" fill-opacity="1" stroke="#000000" stroke-opacity="1" stroke-width="0"/>
<circle clip-path="url(#clip692)" cx="3131.46" cy="1817.69" r="18" fill="#ee7733" fill-rule="evenodd" fill-opacity="1" stroke="#000000" stroke-opacity="1" stroke-width="0"/>
<circle clip-path="url(#clip692)" cx="3295.39" cy="1761.89" r="18" fill="#ee7733" fill-rule="evenodd" fill-opacity="1" stroke="#000000" stroke-opacity="1" stroke-width="0"/>
<circle clip-path="url(#clip692)" cx="3459.32" cy="1727.57" r="18" fill="#ee7733" fill-rule="evenodd" fill-opacity="1" stroke="#000000" stroke-opacity="1" stroke-width="0"/>
<circle clip-path="url(#clip692)" cx="836.466" cy="2227.73" r="18" fill="#0077bb" fill-rule="evenodd" fill-opacity="1" stroke="#000000" stroke-opacity="1" stroke-width="0"/>
<circle clip-path="url(#clip692)" cx="1000.39" cy="2173.35" r="18" fill="#0077bb" fill-rule="evenodd" fill-opacity="1" stroke="#000000" stroke-opacity="1" stroke-width="0"/>
<circle clip-path="url(#clip692)" cx="1164.32" cy="2118.48" r="18" fill="#0077bb" fill-rule="evenodd" fill-opacity="1" stroke="#000000" stroke-opacity="1" stroke-width="0"/>
<circle clip-path="url(#clip692)" cx="1328.25" cy="2065.8" r="18" fill="#0077bb" fill-rule="evenodd" fill-opacity="1" stroke="#000000" stroke-opacity="1" stroke-width="0"/>
<circle clip-path="url(#clip692)" cx="1492.18" cy="2006.36" r="18" fill="#0077bb" fill-rule="evenodd" fill-opacity="1" stroke="#000000" stroke-opacity="1" stroke-width="0"/>
<circle clip-path="url(#clip692)" cx="1656.11" cy="1951.95" r="18" fill="#0077bb" fill-rule="evenodd" fill-opacity="1" stroke="#000000" stroke-opacity="1" stroke-width="0"/>
<circle clip-path="url(#clip692)" cx="1820.04" cy="1895.76" r="18" fill="#0077bb" fill-rule="evenodd" fill-opacity="1" stroke="#000000" stroke-opacity="1" stroke-width="0"/>
<circle clip-path="url(#clip692)" cx="1983.96" cy="1833.76" r="18" fill="#0077bb" fill-rule="evenodd" fill-opacity="1" stroke="#000000" stroke-opacity="1" stroke-width="0"/>
<circle clip-path="url(#clip692)" cx="2147.89" cy="1773.64" r="18" fill="#0077bb" fill-rule="evenodd" fill-opacity="1" stroke="#000000" stroke-opacity="1" stroke-width="0"/>
<circle clip-path="url(#clip692)" cx="2311.82" cy="1717.77" r="18" fill="#0077bb" fill-rule="evenodd" fill-opacity="1" stroke="#000000" stroke-opacity="1" stroke-width="0"/>
<circle clip-path="url(#clip692)" cx="2475.75" cy="1650.36" r="18" fill="#0077bb" fill-rule="evenodd" fill-opacity="1" stroke="#000000" stroke-opacity="1" stroke-width="0"/>
<circle clip-path="url(#clip692)" cx="2639.68" cy="1592.99" r="18" fill="#0077bb" fill-rule="evenodd" fill-opacity="1" stroke="#000000" stroke-opacity="1" stroke-width="0"/>
<circle clip-path="url(#clip692)" cx="2803.6" cy="1531.11" r="18" fill="#0077bb" fill-rule="evenodd" fill-opacity="1" stroke="#000000" stroke-opacity="1" stroke-width="0"/>
<circle clip-path="url(#clip692)" cx="2967.53" cy="1473.11" r="18" fill="#0077bb" fill-rule="evenodd" fill-opacity="1" stroke="#000000" stroke-opacity="1" stroke-width="0"/>
<circle clip-path="url(#clip692)" cx="3131.46" cy="1409.6" r="18" fill="#0077bb" fill-rule="evenodd" fill-opacity="1" stroke="#000000" stroke-opacity="1" stroke-width="0"/>
<circle clip-path="url(#clip692)" cx="3295.39" cy="1347.89" r="18" fill="#0077bb" fill-rule="evenodd" fill-opacity="1" stroke="#000000" stroke-opacity="1" stroke-width="0"/>
<circle clip-path="url(#clip692)" cx="3459.32" cy="1285.04" r="18" fill="#0077bb" fill-rule="evenodd" fill-opacity="1" stroke="#000000" stroke-opacity="1" stroke-width="0"/>
<circle clip-path="url(#clip692)" cx="344.682" cy="2341.61" r="18" fill="#33bbee" fill-rule="evenodd" fill-opacity="1" stroke="#000000" stroke-opacity="1" stroke-width="0"/>
<circle clip-path="url(#clip692)" cx="508.61" cy="2275" r="18" fill="#33bbee" fill-rule="evenodd" fill-opacity="1" stroke="#000000" stroke-opacity="1" stroke-width="0"/>
<circle clip-path="url(#clip692)" cx="672.538" cy="2208.77" r="18" fill="#33bbee" fill-rule="evenodd" fill-opacity="1" stroke="#000000" stroke-opacity="1" stroke-width="0"/>
<circle clip-path="url(#clip692)" cx="836.466" cy="2142.52" r="18" fill="#33bbee" fill-rule="evenodd" fill-opacity="1" stroke="#000000" stroke-opacity="1" stroke-width="0"/>
<circle clip-path="url(#clip692)" cx="1000.39" cy="2075.21" r="18" fill="#33bbee" fill-rule="evenodd" fill-opacity="1" stroke="#000000" stroke-opacity="1" stroke-width="0"/>
<circle clip-path="url(#clip692)" cx="1164.32" cy="2008.8" r="18" fill="#33bbee" fill-rule="evenodd" fill-opacity="1" stroke="#000000" stroke-opacity="1" stroke-width="0"/>
<circle clip-path="url(#clip692)" cx="1328.25" cy="1941.7" r="18" fill="#33bbee" fill-rule="evenodd" fill-opacity="1" stroke="#000000" stroke-opacity="1" stroke-width="0"/>
<circle clip-path="url(#clip692)" cx="1492.18" cy="1874.89" r="18" fill="#33bbee" fill-rule="evenodd" fill-opacity="1" stroke="#000000" stroke-opacity="1" stroke-width="0"/>
<circle clip-path="url(#clip692)" cx="1656.11" cy="1807.62" r="18" fill="#33bbee" fill-rule="evenodd" fill-opacity="1" stroke="#000000" stroke-opacity="1" stroke-width="0"/>
<circle clip-path="url(#clip692)" cx="1820.04" cy="1741.8" r="18" fill="#33bbee" fill-rule="evenodd" fill-opacity="1" stroke="#000000" stroke-opacity="1" stroke-width="0"/>
<circle clip-path="url(#clip692)" cx="1983.96" cy="1675.46" r="18" fill="#33bbee" fill-rule="evenodd" fill-opacity="1" stroke="#000000" stroke-opacity="1" stroke-width="0"/>
<circle clip-path="url(#clip692)" cx="2147.89" cy="1607.82" r="18" fill="#33bbee" fill-rule="evenodd" fill-opacity="1" stroke="#000000" stroke-opacity="1" stroke-width="0"/>
<circle clip-path="url(#clip692)" cx="2311.82" cy="1542.18" r="18" fill="#33bbee" fill-rule="evenodd" fill-opacity="1" stroke="#000000" stroke-opacity="1" stroke-width="0"/>
<circle clip-path="url(#clip692)" cx="2475.75" cy="1474.4" r="18" fill="#33bbee" fill-rule="evenodd" fill-opacity="1" stroke="#000000" stroke-opacity="1" stroke-width="0"/>
<circle clip-path="url(#clip692)" cx="2639.68" cy="1408.46" r="18" fill="#33bbee" fill-rule="evenodd" fill-opacity="1" stroke="#000000" stroke-opacity="1" stroke-width="0"/>
<circle clip-path="url(#clip692)" cx="2803.6" cy="1341.48" r="18" fill="#33bbee" fill-rule="evenodd" fill-opacity="1" stroke="#000000" stroke-opacity="1" stroke-width="0"/>
<circle clip-path="url(#clip692)" cx="2967.53" cy="1274.48" r="18" fill="#33bbee" fill-rule="evenodd" fill-opacity="1" stroke="#000000" stroke-opacity="1" stroke-width="0"/>
<circle clip-path="url(#clip692)" cx="3131.46" cy="1207.3" r="18" fill="#33bbee" fill-rule="evenodd" fill-opacity="1" stroke="#000000" stroke-opacity="1" stroke-width="0"/>
<circle clip-path="url(#clip692)" cx="3295.39" cy="1141.21" r="18" fill="#33bbee" fill-rule="evenodd" fill-opacity="1" stroke="#000000" stroke-opacity="1" stroke-width="0"/>
<circle clip-path="url(#clip692)" cx="3459.32" cy="1075.44" r="18" fill="#33bbee" fill-rule="evenodd" fill-opacity="1" stroke="#000000" stroke-opacity="1" stroke-width="0"/>
<circle clip-path="url(#clip692)" cx="508.61" cy="2265.32" r="18" fill="#ee3377" fill-rule="evenodd" fill-opacity="1" stroke="#000000" stroke-opacity="1" stroke-width="0"/>
<circle clip-path="url(#clip692)" cx="672.538" cy="2190.76" r="18" fill="#ee3377" fill-rule="evenodd" fill-opacity="1" stroke="#000000" stroke-opacity="1" stroke-width="0"/>
<circle clip-path="url(#clip692)" cx="836.466" cy="2115.05" r="18" fill="#ee3377" fill-rule="evenodd" fill-opacity="1" stroke="#000000" stroke-opacity="1" stroke-width="0"/>
<circle clip-path="url(#clip692)" cx="1000.39" cy="2040.06" r="18" fill="#ee3377" fill-rule="evenodd" fill-opacity="1" stroke="#000000" stroke-opacity="1" stroke-width="0"/>
<circle clip-path="url(#clip692)" cx="1164.32" cy="1963.88" r="18" fill="#ee3377" fill-rule="evenodd" fill-opacity="1" stroke="#000000" stroke-opacity="1" stroke-width="0"/>
<circle clip-path="url(#clip692)" cx="1328.25" cy="1889.06" r="18" fill="#ee3377" fill-rule="evenodd" fill-opacity="1" stroke="#000000" stroke-opacity="1" stroke-width="0"/>
<circle clip-path="url(#clip692)" cx="1492.18" cy="1811.3" r="18" fill="#ee3377" fill-rule="evenodd" fill-opacity="1" stroke="#000000" stroke-opacity="1" stroke-width="0"/>
<circle clip-path="url(#clip692)" cx="1656.11" cy="1735.29" r="18" fill="#ee3377" fill-rule="evenodd" fill-opacity="1" stroke="#000000" stroke-opacity="1" stroke-width="0"/>
<circle clip-path="url(#clip692)" cx="1820.04" cy="1661.3" r="18" fill="#ee3377" fill-rule="evenodd" fill-opacity="1" stroke="#000000" stroke-opacity="1" stroke-width="0"/>
<circle clip-path="url(#clip692)" cx="1983.96" cy="1584.34" r="18" fill="#ee3377" fill-rule="evenodd" fill-opacity="1" stroke="#000000" stroke-opacity="1" stroke-width="0"/>
<circle clip-path="url(#clip692)" cx="2147.89" cy="1508.33" r="18" fill="#ee3377" fill-rule="evenodd" fill-opacity="1" stroke="#000000" stroke-opacity="1" stroke-width="0"/>
<circle clip-path="url(#clip692)" cx="2311.82" cy="1433.15" r="18" fill="#ee3377" fill-rule="evenodd" fill-opacity="1" stroke="#000000" stroke-opacity="1" stroke-width="0"/>
<circle clip-path="url(#clip692)" cx="2475.75" cy="1358.98" r="18" fill="#ee3377" fill-rule="evenodd" fill-opacity="1" stroke="#000000" stroke-opacity="1" stroke-width="0"/>
<circle clip-path="url(#clip692)" cx="2639.68" cy="1282.07" r="18" fill="#ee3377" fill-rule="evenodd" fill-opacity="1" stroke="#000000" stroke-opacity="1" stroke-width="0"/>
<circle clip-path="url(#clip692)" cx="2803.6" cy="1206.48" r="18" fill="#ee3377" fill-rule="evenodd" fill-opacity="1" stroke="#000000" stroke-opacity="1" stroke-width="0"/>
<circle clip-path="url(#clip692)" cx="2967.53" cy="1131.59" r="18" fill="#ee3377" fill-rule="evenodd" fill-opacity="1" stroke="#000000" stroke-opacity="1" stroke-width="0"/>
<circle clip-path="url(#clip692)" cx="3131.46" cy="1056.92" r="18" fill="#ee3377" fill-rule="evenodd" fill-opacity="1" stroke="#000000" stroke-opacity="1" stroke-width="0"/>
<circle clip-path="url(#clip692)" cx="3295.39" cy="981.105" r="18" fill="#ee3377" fill-rule="evenodd" fill-opacity="1" stroke="#000000" stroke-opacity="1" stroke-width="0"/>
<circle clip-path="url(#clip692)" cx="3459.32" cy="903.349" r="18" fill="#ee3377" fill-rule="evenodd" fill-opacity="1" stroke="#000000" stroke-opacity="1" stroke-width="0"/>
<circle clip-path="url(#clip692)" cx="344.682" cy="2339.34" r="18" fill="#cc3311" fill-rule="evenodd" fill-opacity="1" stroke="#000000" stroke-opacity="1" stroke-width="0"/>
<circle clip-path="url(#clip692)" cx="508.61" cy="2253.1" r="18" fill="#cc3311" fill-rule="evenodd" fill-opacity="1" stroke="#000000" stroke-opacity="1" stroke-width="0"/>
<circle clip-path="url(#clip692)" cx="672.538" cy="2167.17" r="18" fill="#cc3311" fill-rule="evenodd" fill-opacity="1" stroke="#000000" stroke-opacity="1" stroke-width="0"/>
<circle clip-path="url(#clip692)" cx="836.466" cy="2079.32" r="18" fill="#cc3311" fill-rule="evenodd" fill-opacity="1" stroke="#000000" stroke-opacity="1" stroke-width="0"/>
<circle clip-path="url(#clip692)" cx="1000.39" cy="1992.26" r="18" fill="#cc3311" fill-rule="evenodd" fill-opacity="1" stroke="#000000" stroke-opacity="1" stroke-width="0"/>
<circle clip-path="url(#clip692)" cx="1164.32" cy="1902.35" r="18" fill="#cc3311" fill-rule="evenodd" fill-opacity="1" stroke="#000000" stroke-opacity="1" stroke-width="0"/>
<circle clip-path="url(#clip692)" cx="1328.25" cy="1817.03" r="18" fill="#cc3311" fill-rule="evenodd" fill-opacity="1" stroke="#000000" stroke-opacity="1" stroke-width="0"/>
<circle clip-path="url(#clip692)" cx="1492.18" cy="1729.84" r="18" fill="#cc3311" fill-rule="evenodd" fill-opacity="1" stroke="#000000" stroke-opacity="1" stroke-width="0"/>
<circle clip-path="url(#clip692)" cx="1656.11" cy="1644.11" r="18" fill="#cc3311" fill-rule="evenodd" fill-opacity="1" stroke="#000000" stroke-opacity="1" stroke-width="0"/>
<circle clip-path="url(#clip692)" cx="1820.04" cy="1555.94" r="18" fill="#cc3311" fill-rule="evenodd" fill-opacity="1" stroke="#000000" stroke-opacity="1" stroke-width="0"/>
<circle clip-path="url(#clip692)" cx="1983.96" cy="1468.47" r="18" fill="#cc3311" fill-rule="evenodd" fill-opacity="1" stroke="#000000" stroke-opacity="1" stroke-width="0"/>
<circle clip-path="url(#clip692)" cx="2147.89" cy="1381.24" r="18" fill="#cc3311" fill-rule="evenodd" fill-opacity="1" stroke="#000000" stroke-opacity="1" stroke-width="0"/>
<circle clip-path="url(#clip692)" cx="2311.82" cy="1293.3" r="18" fill="#cc3311" fill-rule="evenodd" fill-opacity="1" stroke="#000000" stroke-opacity="1" stroke-width="0"/>
<circle clip-path="url(#clip692)" cx="2475.75" cy="1207.15" r="18" fill="#cc3311" fill-rule="evenodd" fill-opacity="1" stroke="#000000" stroke-opacity="1" stroke-width="0"/>
<circle clip-path="url(#clip692)" cx="2639.68" cy="1118.91" r="18" fill="#cc3311" fill-rule="evenodd" fill-opacity="1" stroke="#000000" stroke-opacity="1" stroke-width="0"/>
<circle clip-path="url(#clip692)" cx="2803.6" cy="1033.56" r="18" fill="#cc3311" fill-rule="evenodd" fill-opacity="1" stroke="#000000" stroke-opacity="1" stroke-width="0"/>
<circle clip-path="url(#clip692)" cx="2967.53" cy="944.872" r="18" fill="#cc3311" fill-rule="evenodd" fill-opacity="1" stroke="#000000" stroke-opacity="1" stroke-width="0"/>
<circle clip-path="url(#clip692)" cx="3131.46" cy="856.299" r="18" fill="#cc3311" fill-rule="evenodd" fill-opacity="1" stroke="#000000" stroke-opacity="1" stroke-width="0"/>
<circle clip-path="url(#clip692)" cx="3295.39" cy="771.813" r="18" fill="#cc3311" fill-rule="evenodd" fill-opacity="1" stroke="#000000" stroke-opacity="1" stroke-width="0"/>
<circle clip-path="url(#clip692)" cx="3459.32" cy="683.019" r="18" fill="#cc3311" fill-rule="evenodd" fill-opacity="1" stroke="#000000" stroke-opacity="1" stroke-width="0"/>
<circle clip-path="url(#clip692)" cx="344.682" cy="2339.34" r="18" fill="#009988" fill-rule="evenodd" fill-opacity="1" stroke="#000000" stroke-opacity="1" stroke-width="0"/>
<circle clip-path="url(#clip692)" cx="508.61" cy="2225.89" r="18" fill="#009988" fill-rule="evenodd" fill-opacity="1" stroke="#000000" stroke-opacity="1" stroke-width="0"/>
<circle clip-path="url(#clip692)" cx="672.538" cy="2112.45" r="18" fill="#009988" fill-rule="evenodd" fill-opacity="1" stroke="#000000" stroke-opacity="1" stroke-width="0"/>
<circle clip-path="url(#clip692)" cx="836.466" cy="1999" r="18" fill="#009988" fill-rule="evenodd" fill-opacity="1" stroke="#000000" stroke-opacity="1" stroke-width="0"/>
<circle clip-path="url(#clip692)" cx="1000.39" cy="1885.56" r="18" fill="#009988" fill-rule="evenodd" fill-opacity="1" stroke="#000000" stroke-opacity="1" stroke-width="0"/>
<circle clip-path="url(#clip692)" cx="1164.32" cy="1772.11" r="18" fill="#009988" fill-rule="evenodd" fill-opacity="1" stroke="#000000" stroke-opacity="1" stroke-width="0"/>
<circle clip-path="url(#clip692)" cx="1328.25" cy="1658.67" r="18" fill="#009988" fill-rule="evenodd" fill-opacity="1" stroke="#000000" stroke-opacity="1" stroke-width="0"/>
<circle clip-path="url(#clip692)" cx="1492.18" cy="1545.22" r="18" fill="#009988" fill-rule="evenodd" fill-opacity="1" stroke="#000000" stroke-opacity="1" stroke-width="0"/>
<circle clip-path="url(#clip692)" cx="1656.11" cy="1431.78" r="18" fill="#009988" fill-rule="evenodd" fill-opacity="1" stroke="#000000" stroke-opacity="1" stroke-width="0"/>
<circle clip-path="url(#clip692)" cx="1820.04" cy="1318.33" r="18" fill="#009988" fill-rule="evenodd" fill-opacity="1" stroke="#000000" stroke-opacity="1" stroke-width="0"/>
<circle clip-path="url(#clip692)" cx="1983.96" cy="1204.89" r="18" fill="#009988" fill-rule="evenodd" fill-opacity="1" stroke="#000000" stroke-opacity="1" stroke-width="0"/>
<circle clip-path="url(#clip692)" cx="2147.89" cy="1091.44" r="18" fill="#009988" fill-rule="evenodd" fill-opacity="1" stroke="#000000" stroke-opacity="1" stroke-width="0"/>
<circle clip-path="url(#clip692)" cx="2311.82" cy="977.999" r="18" fill="#009988" fill-rule="evenodd" fill-opacity="1" stroke="#000000" stroke-opacity="1" stroke-width="0"/>
<circle clip-path="url(#clip692)" cx="2475.75" cy="864.554" r="18" fill="#009988" fill-rule="evenodd" fill-opacity="1" stroke="#000000" stroke-opacity="1" stroke-width="0"/>
<circle clip-path="url(#clip692)" cx="2639.68" cy="751.109" r="18" fill="#009988" fill-rule="evenodd" fill-opacity="1" stroke="#000000" stroke-opacity="1" stroke-width="0"/>
<circle clip-path="url(#clip692)" cx="2803.6" cy="637.664" r="18" fill="#009988" fill-rule="evenodd" fill-opacity="1" stroke="#000000" stroke-opacity="1" stroke-width="0"/>
<circle clip-path="url(#clip692)" cx="2967.53" cy="524.219" r="18" fill="#009988" fill-rule="evenodd" fill-opacity="1" stroke="#000000" stroke-opacity="1" stroke-width="0"/>
<circle clip-path="url(#clip692)" cx="3131.46" cy="410.774" r="18" fill="#009988" fill-rule="evenodd" fill-opacity="1" stroke="#000000" stroke-opacity="1" stroke-width="0"/>
<circle clip-path="url(#clip692)" cx="3295.39" cy="297.329" r="18" fill="#009988" fill-rule="evenodd" fill-opacity="1" stroke="#000000" stroke-opacity="1" stroke-width="0"/>
<circle clip-path="url(#clip692)" cx="3459.32" cy="183.884" r="18" fill="#009988" fill-rule="evenodd" fill-opacity="1" stroke="#000000" stroke-opacity="1" stroke-width="0"/>
<path clip-path="url(#clip690)" d="M2915.5 2330.1 L3442.71 2330.1 L3442.71 1967.22 L2915.5 1967.22  Z" fill="#ffffff" fill-rule="evenodd" fill-opacity="0.9"/>
<polyline clip-path="url(#clip690)" style="stroke:#222255; stroke-linecap:round; stroke-linejoin:round; stroke-width:4; stroke-opacity:0.1; fill:none" points="2915.5,2330.1 3442.71,2330.1 3442.71,1967.22 2915.5,1967.22 2915.5,2330.1 "/>
<circle clip-path="url(#clip690)" cx="3062.23" cy="2019.06" r="23.04" fill="#ee7733" fill-rule="evenodd" fill-opacity="1" stroke="#000000" stroke-opacity="1" stroke-width="0"/>
<path clip-path="url(#clip690)" d="M3213.25 2032.45 L3213.25 2046.2 L3208.96 2046.2 L3208.96 2010.41 L3213.25 2010.41 L3213.25 2014.35 Q3214.59 2012.03 3216.62 2010.92 Q3218.69 2009.79 3221.53 2009.79 Q3226.25 2009.79 3229.19 2013.54 Q3232.16 2017.29 3232.16 2023.4 Q3232.16 2029.51 3229.19 2033.26 Q3226.25 2037.01 3221.53 2037.01 Q3218.69 2037.01 3216.62 2035.9 Q3214.59 2034.77 3213.25 2032.45 M3227.74 2023.4 Q3227.74 2018.7 3225.79 2016.04 Q3223.87 2013.35 3220.49 2013.35 Q3217.11 2013.35 3215.17 2016.04 Q3213.25 2018.7 3213.25 2023.4 Q3213.25 2028.1 3215.17 2030.78 Q3217.11 2033.45 3220.49 2033.45 Q3223.87 2033.45 3225.79 2030.78 Q3227.74 2028.1 3227.74 2023.4 Z" fill="#000000" fill-rule="nonzero" fill-opacity="1" /><path clip-path="url(#clip690)" d="M3254.84 2014.81 L3284.52 2014.81 L3284.52 2018.7 L3254.84 2018.7 L3254.84 2014.81 M3254.84 2024.26 L3284.52 2024.26 L3284.52 2028.19 L3254.84 2028.19 L3254.84 2024.26 Z" fill="#000000" fill-rule="nonzero" fill-opacity="1" /><path clip-path="url(#clip690)" d="M3319.68 2004.86 Q3316.07 2004.86 3314.24 2008.42 Q3312.43 2011.97 3312.43 2019.09 Q3312.43 2026.2 3314.24 2029.77 Q3316.07 2033.31 3319.68 2033.31 Q3323.31 2033.31 3325.12 2029.77 Q3326.95 2026.2 3326.95 2019.09 Q3326.95 2011.97 3325.12 2008.42 Q3323.31 2004.86 3319.68 2004.86 M3319.68 2001.16 Q3325.49 2001.16 3328.55 2005.76 Q3331.62 2010.35 3331.62 2019.09 Q3331.62 2027.82 3328.55 2032.43 Q3325.49 2037.01 3319.68 2037.01 Q3313.87 2037.01 3310.79 2032.43 Q3307.74 2027.82 3307.74 2019.09 Q3307.74 2010.35 3310.79 2005.76 Q3313.87 2001.16 3319.68 2001.16 Z" fill="#000000" fill-rule="nonzero" fill-opacity="1" /><path clip-path="url(#clip690)" d="M3339.84 2030.46 L3344.73 2030.46 L3344.73 2036.34 L3339.84 2036.34 L3339.84 2030.46 Z" fill="#000000" fill-rule="nonzero" fill-opacity="1" /><path clip-path="url(#clip690)" d="M3364.91 2004.86 Q3361.3 2004.86 3359.47 2008.42 Q3357.67 2011.97 3357.67 2019.09 Q3357.67 2026.2 3359.47 2029.77 Q3361.3 2033.31 3364.91 2033.31 Q3368.55 2033.31 3370.35 2029.77 Q3372.18 2026.2 3372.18 2019.09 Q3372.18 2011.97 3370.35 2008.42 Q3368.55 2004.86 3364.91 2004.86 M3364.91 2001.16 Q3370.72 2001.16 3373.78 2005.76 Q3376.86 2010.35 3376.86 2019.09 Q3376.86 2027.82 3373.78 2032.43 Q3370.72 2037.01 3364.91 2037.01 Q3359.1 2037.01 3356.02 2032.43 Q3352.97 2027.82 3352.97 2019.09 Q3352.97 2010.35 3356.02 2005.76 Q3359.1 2001.16 3364.91 2001.16 Z" fill="#000000" fill-rule="nonzero" fill-opacity="1" /><path clip-path="url(#clip690)" d="M3385.88 2032.41 L3393.52 2032.41 L3393.52 2006.04 L3385.21 2007.71 L3385.21 2003.45 L3393.48 2001.78 L3398.15 2001.78 L3398.15 2032.41 L3405.79 2032.41 L3405.79 2036.34 L3385.88 2036.34 L3385.88 2032.41 Z" fill="#000000" fill-rule="nonzero" fill-opacity="1" /><circle clip-path="url(#clip690)" cx="3062.23" cy="2070.9" r="23.04" fill="#0077bb" fill-rule="evenodd" fill-opacity="1" stroke="#000000" stroke-opacity="1" stroke-width="0"/>
<path clip-path="url(#clip690)" d="M3213.25 2084.29 L3213.25 2098.04 L3208.96 2098.04 L3208.96 2062.25 L3213.25 2062.25 L3213.25 2066.19 Q3214.59 2063.87 3216.62 2062.76 Q3218.69 2061.63 3221.53 2061.63 Q3226.25 2061.63 3229.19 2065.38 Q3232.16 2069.13 3232.16 2075.24 Q3232.16 2081.35 3229.19 2085.1 Q3226.25 2088.85 3221.53 2088.85 Q3218.69 2088.85 3216.62 2087.74 Q3214.59 2086.61 3213.25 2084.29 M3227.74 2075.24 Q3227.74 2070.54 3225.79 2067.88 Q3223.87 2065.19 3220.49 2065.19 Q3217.11 2065.19 3215.17 2067.88 Q3213.25 2070.54 3213.25 2075.24 Q3213.25 2079.94 3215.17 2082.62 Q3217.11 2085.29 3220.49 2085.29 Q3223.87 2085.29 3225.79 2082.62 Q3227.74 2079.94 3227.74 2075.24 Z" fill="#000000" fill-rule="nonzero" fill-opacity="1" /><path clip-path="url(#clip690)" d="M3254.84 2066.65 L3284.52 2066.65 L3284.52 2070.54 L3254.84 2070.54 L3254.84 2066.65 M3254.84 2076.1 L3284.52 2076.1 L3284.52 2080.03 L3254.84 2080.03 L3254.84 2076.1 Z" fill="#000000" fill-rule="nonzero" fill-opacity="1" /><path clip-path="url(#clip690)" d="M3319.68 2056.7 Q3316.07 2056.7 3314.24 2060.26 Q3312.43 2063.81 3312.43 2070.93 Q3312.43 2078.04 3314.24 2081.61 Q3316.07 2085.15 3319.68 2085.15 Q3323.31 2085.15 3325.12 2081.61 Q3326.95 2078.04 3326.95 2070.93 Q3326.95 2063.81 3325.12 2060.26 Q3323.31 2056.7 3319.68 2056.7 M3319.68 2053 Q3325.49 2053 3328.55 2057.6 Q3331.62 2062.19 3331.62 2070.93 Q3331.62 2079.66 3328.55 2084.27 Q3325.49 2088.85 3319.68 2088.85 Q3313.87 2088.85 3310.79 2084.27 Q3307.74 2079.66 3307.74 2070.93 Q3307.74 2062.19 3310.79 2057.6 Q3313.87 2053 3319.68 2053 Z" fill="#000000" fill-rule="nonzero" fill-opacity="1" /><path clip-path="url(#clip690)" d="M3339.84 2082.3 L3344.73 2082.3 L3344.73 2088.18 L3339.84 2088.18 L3339.84 2082.3 Z" fill="#000000" fill-rule="nonzero" fill-opacity="1" /><path clip-path="url(#clip690)" d="M3364.91 2056.7 Q3361.3 2056.7 3359.47 2060.26 Q3357.67 2063.81 3357.67 2070.93 Q3357.67 2078.04 3359.47 2081.61 Q3361.3 2085.15 3364.91 2085.15 Q3368.55 2085.15 3370.35 2081.61 Q3372.18 2078.04 3372.18 2070.93 Q3372.18 2063.81 3370.35 2060.26 Q3368.55 2056.7 3364.91 2056.7 M3364.91 2053 Q3370.72 2053 3373.78 2057.6 Q3376.86 2062.19 3376.86 2070.93 Q3376.86 2079.66 3373.78 2084.27 Q3370.72 2088.85 3364.91 2088.85 Q3359.1 2088.85 3356.02 2084.27 Q3352.97 2079.66 3352.97 2070.93 Q3352.97 2062.19 3356.02 2057.6 Q3359.1 2053 3364.91 2053 Z" fill="#000000" fill-rule="nonzero" fill-opacity="1" /><path clip-path="url(#clip690)" d="M3385.12 2053.62 L3403.48 2053.62 L3403.48 2057.56 L3389.4 2057.56 L3389.4 2066.03 Q3390.42 2065.68 3391.44 2065.52 Q3392.46 2065.33 3393.48 2065.33 Q3399.26 2065.33 3402.64 2068.5 Q3406.02 2071.68 3406.02 2077.09 Q3406.02 2082.67 3402.55 2085.77 Q3399.08 2088.85 3392.76 2088.85 Q3390.58 2088.85 3388.31 2088.48 Q3386.07 2088.11 3383.66 2087.37 L3383.66 2082.67 Q3385.74 2083.81 3387.97 2084.36 Q3390.19 2084.92 3392.67 2084.92 Q3396.67 2084.92 3399.01 2082.81 Q3401.35 2080.7 3401.35 2077.09 Q3401.35 2073.48 3399.01 2071.37 Q3396.67 2069.27 3392.67 2069.27 Q3390.79 2069.27 3388.92 2069.68 Q3387.06 2070.1 3385.12 2070.98 L3385.12 2053.62 Z" fill="#000000" fill-rule="nonzero" fill-opacity="1" /><circle clip-path="url(#clip690)" cx="3062.23" cy="2122.74" r="23.04" fill="#33bbee" fill-rule="evenodd" fill-opacity="1" stroke="#000000" stroke-opacity="1" stroke-width="0"/>
<path clip-path="url(#clip690)" d="M3213.25 2136.13 L3213.25 2149.88 L3208.96 2149.88 L3208.96 2114.09 L3213.25 2114.09 L3213.25 2118.03 Q3214.59 2115.71 3216.62 2114.6 Q3218.69 2113.47 3221.53 2113.47 Q3226.25 2113.47 3229.19 2117.22 Q3232.16 2120.97 3232.16 2127.08 Q3232.16 2133.19 3229.19 2136.94 Q3226.25 2140.69 3221.53 2140.69 Q3218.69 2140.69 3216.62 2139.58 Q3214.59 2138.45 3213.25 2136.13 M3227.74 2127.08 Q3227.74 2122.38 3225.79 2119.72 Q3223.87 2117.03 3220.49 2117.03 Q3217.11 2117.03 3215.17 2119.72 Q3213.25 2122.38 3213.25 2127.08 Q3213.25 2131.78 3215.17 2134.46 Q3217.11 2137.13 3220.49 2137.13 Q3223.87 2137.13 3225.79 2134.46 Q3227.74 2131.78 3227.74 2127.08 Z" fill="#000000" fill-rule="nonzero" fill-opacity="1" /><path clip-path="url(#clip690)" d="M3254.84 2118.49 L3284.52 2118.49 L3284.52 2122.38 L3254.84 2122.38 L3254.84 2118.49 M3254.84 2127.94 L3284.52 2127.94 L3284.52 2131.87 L3254.84 2131.87 L3254.84 2127.94 Z" fill="#000000" fill-rule="nonzero" fill-opacity="1" /><path clip-path="url(#clip690)" d="M3319.68 2108.54 Q3316.07 2108.54 3314.24 2112.1 Q3312.43 2115.65 3312.43 2122.77 Q3312.43 2129.88 3314.24 2133.45 Q3316.07 2136.99 3319.68 2136.99 Q3323.31 2136.99 3325.12 2133.45 Q3326.95 2129.88 3326.95 2122.77 Q3326.95 2115.65 3325.12 2112.1 Q3323.31 2108.54 3319.68 2108.54 M3319.68 2104.84 Q3325.49 2104.84 3328.55 2109.44 Q3331.62 2114.03 3331.62 2122.77 Q3331.62 2131.5 3328.55 2136.11 Q3325.49 2140.69 3319.68 2140.69 Q3313.87 2140.69 3310.79 2136.11 Q3307.74 2131.5 3307.74 2122.77 Q3307.74 2114.03 3310.79 2109.44 Q3313.87 2104.84 3319.68 2104.84 Z" fill="#000000" fill-rule="nonzero" fill-opacity="1" /><path clip-path="url(#clip690)" d="M3339.84 2134.14 L3344.73 2134.14 L3344.73 2140.02 L3339.84 2140.02 L3339.84 2134.14 Z" fill="#000000" fill-rule="nonzero" fill-opacity="1" /><path clip-path="url(#clip690)" d="M3369.08 2121.39 Q3372.43 2122.1 3374.31 2124.37 Q3376.21 2126.64 3376.21 2129.97 Q3376.21 2135.09 3372.69 2137.89 Q3369.17 2140.69 3362.69 2140.69 Q3360.51 2140.69 3358.2 2140.25 Q3355.91 2139.84 3353.45 2138.98 L3353.45 2134.46 Q3355.4 2135.6 3357.71 2136.18 Q3360.03 2136.76 3362.55 2136.76 Q3366.95 2136.76 3369.24 2135.02 Q3371.55 2133.28 3371.55 2129.97 Q3371.55 2126.92 3369.4 2125.21 Q3367.27 2123.47 3363.45 2123.47 L3359.43 2123.47 L3359.43 2119.63 L3363.64 2119.63 Q3367.09 2119.63 3368.92 2118.26 Q3370.74 2116.87 3370.74 2114.28 Q3370.74 2111.62 3368.85 2110.21 Q3366.97 2108.77 3363.45 2108.77 Q3361.53 2108.77 3359.33 2109.19 Q3357.13 2109.6 3354.49 2110.48 L3354.49 2106.32 Q3357.16 2105.58 3359.47 2105.21 Q3361.81 2104.84 3363.87 2104.84 Q3369.19 2104.84 3372.3 2107.27 Q3375.4 2109.67 3375.4 2113.79 Q3375.4 2116.66 3373.75 2118.65 Q3372.11 2120.62 3369.08 2121.39 Z" fill="#000000" fill-rule="nonzero" fill-opacity="1" /><circle clip-path="url(#clip690)" cx="3062.23" cy="2174.58" r="23.04" fill="#ee3377" fill-rule="evenodd" fill-opacity="1" stroke="#000000" stroke-opacity="1" stroke-width="0"/>
<path clip-path="url(#clip690)" d="M3213.25 2187.97 L3213.25 2201.72 L3208.96 2201.72 L3208.96 2165.93 L3213.25 2165.93 L3213.25 2169.87 Q3214.59 2167.55 3216.62 2166.44 Q3218.69 2165.31 3221.53 2165.31 Q3226.25 2165.31 3229.19 2169.06 Q3232.16 2172.81 3232.16 2178.92 Q3232.16 2185.03 3229.19 2188.78 Q3226.25 2192.53 3221.53 2192.53 Q3218.69 2192.53 3216.62 2191.42 Q3214.59 2190.29 3213.25 2187.97 M3227.74 2178.92 Q3227.74 2174.22 3225.79 2171.56 Q3223.87 2168.87 3220.49 2168.87 Q3217.11 2168.87 3215.17 2171.56 Q3213.25 2174.22 3213.25 2178.92 Q3213.25 2183.62 3215.17 2186.3 Q3217.11 2188.97 3220.49 2188.97 Q3223.87 2188.97 3225.79 2186.3 Q3227.74 2183.62 3227.74 2178.92 Z" fill="#000000" fill-rule="nonzero" fill-opacity="1" /><path clip-path="url(#clip690)" d="M3254.84 2170.33 L3284.52 2170.33 L3284.52 2174.22 L3254.84 2174.22 L3254.84 2170.33 M3254.84 2179.78 L3284.52 2179.78 L3284.52 2183.71 L3254.84 2183.71 L3254.84 2179.78 Z" fill="#000000" fill-rule="nonzero" fill-opacity="1" /><path clip-path="url(#clip690)" d="M3319.68 2160.38 Q3316.07 2160.38 3314.24 2163.94 Q3312.43 2167.49 3312.43 2174.61 Q3312.43 2181.72 3314.24 2185.29 Q3316.07 2188.83 3319.68 2188.83 Q3323.31 2188.83 3325.12 2185.29 Q3326.95 2181.72 3326.95 2174.61 Q3326.95 2167.49 3325.12 2163.94 Q3323.31 2160.38 3319.68 2160.38 M3319.68 2156.68 Q3325.49 2156.68 3328.55 2161.28 Q3331.62 2165.87 3331.62 2174.61 Q3331.62 2183.34 3328.55 2187.95 Q3325.49 2192.53 3319.68 2192.53 Q3313.87 2192.53 3310.79 2187.95 Q3307.74 2183.34 3307.74 2174.61 Q3307.74 2165.87 3310.79 2161.28 Q3313.87 2156.68 3319.68 2156.68 Z" fill="#000000" fill-rule="nonzero" fill-opacity="1" /><path clip-path="url(#clip690)" d="M3339.84 2185.98 L3344.73 2185.98 L3344.73 2191.86 L3339.84 2191.86 L3339.84 2185.98 Z" fill="#000000" fill-rule="nonzero" fill-opacity="1" /><path clip-path="url(#clip690)" d="M3354.96 2157.3 L3373.31 2157.3 L3373.31 2161.24 L3359.24 2161.24 L3359.24 2169.71 Q3360.26 2169.36 3361.28 2169.2 Q3362.3 2169.01 3363.31 2169.01 Q3369.1 2169.01 3372.48 2172.18 Q3375.86 2175.36 3375.86 2180.77 Q3375.86 2186.35 3372.39 2189.45 Q3368.92 2192.53 3362.6 2192.53 Q3360.42 2192.53 3358.15 2192.16 Q3355.91 2191.79 3353.5 2191.05 L3353.5 2186.35 Q3355.58 2187.49 3357.8 2188.04 Q3360.03 2188.6 3362.5 2188.6 Q3366.51 2188.6 3368.85 2186.49 Q3371.18 2184.38 3371.18 2180.77 Q3371.18 2177.16 3368.85 2175.05 Q3366.51 2172.95 3362.5 2172.95 Q3360.63 2172.95 3358.75 2173.36 Q3356.9 2173.78 3354.96 2174.66 L3354.96 2157.3 Z" fill="#000000" fill-rule="nonzero" fill-opacity="1" /><circle clip-path="url(#clip690)" cx="3062.23" cy="2226.42" r="23.04" fill="#cc3311" fill-rule="evenodd" fill-opacity="1" stroke="#000000" stroke-opacity="1" stroke-width="0"/>
<path clip-path="url(#clip690)" d="M3213.25 2239.81 L3213.25 2253.56 L3208.96 2253.56 L3208.96 2217.77 L3213.25 2217.77 L3213.25 2221.71 Q3214.59 2219.39 3216.62 2218.28 Q3218.69 2217.15 3221.53 2217.15 Q3226.25 2217.15 3229.19 2220.9 Q3232.16 2224.65 3232.16 2230.76 Q3232.16 2236.87 3229.19 2240.62 Q3226.25 2244.37 3221.53 2244.37 Q3218.69 2244.37 3216.62 2243.26 Q3214.59 2242.13 3213.25 2239.81 M3227.74 2230.76 Q3227.74 2226.06 3225.79 2223.4 Q3223.87 2220.71 3220.49 2220.71 Q3217.11 2220.71 3215.17 2223.4 Q3213.25 2226.06 3213.25 2230.76 Q3213.25 2235.46 3215.17 2238.14 Q3217.11 2240.81 3220.49 2240.81 Q3223.87 2240.81 3225.79 2238.14 Q3227.74 2235.46 3227.74 2230.76 Z" fill="#000000" fill-rule="nonzero" fill-opacity="1" /><path clip-path="url(#clip690)" d="M3254.84 2222.17 L3284.52 2222.17 L3284.52 2226.06 L3254.84 2226.06 L3254.84 2222.17 M3254.84 2231.62 L3284.52 2231.62 L3284.52 2235.55 L3254.84 2235.55 L3254.84 2231.62 Z" fill="#000000" fill-rule="nonzero" fill-opacity="1" /><path clip-path="url(#clip690)" d="M3319.68 2212.22 Q3316.07 2212.22 3314.24 2215.78 Q3312.43 2219.33 3312.43 2226.45 Q3312.43 2233.56 3314.24 2237.13 Q3316.07 2240.67 3319.68 2240.67 Q3323.31 2240.67 3325.12 2237.13 Q3326.95 2233.56 3326.95 2226.45 Q3326.95 2219.33 3325.12 2215.78 Q3323.31 2212.22 3319.68 2212.22 M3319.68 2208.52 Q3325.49 2208.52 3328.55 2213.12 Q3331.62 2217.71 3331.62 2226.45 Q3331.62 2235.18 3328.55 2239.79 Q3325.49 2244.37 3319.68 2244.37 Q3313.87 2244.37 3310.79 2239.79 Q3307.74 2235.18 3307.74 2226.45 Q3307.74 2217.71 3310.79 2213.12 Q3313.87 2208.52 3319.68 2208.52 Z" fill="#000000" fill-rule="nonzero" fill-opacity="1" /><path clip-path="url(#clip690)" d="M3339.84 2237.82 L3344.73 2237.82 L3344.73 2243.7 L3339.84 2243.7 L3339.84 2237.82 Z" fill="#000000" fill-rule="nonzero" fill-opacity="1" /><path clip-path="url(#clip690)" d="M3353.73 2209.14 L3375.95 2209.14 L3375.95 2211.13 L3363.41 2243.7 L3358.52 2243.7 L3370.33 2213.08 L3353.73 2213.08 L3353.73 2209.14 Z" fill="#000000" fill-rule="nonzero" fill-opacity="1" /><circle clip-path="url(#clip690)" cx="3062.23" cy="2278.26" r="23.04" fill="#009988" fill-rule="evenodd" fill-opacity="1" stroke="#000000" stroke-opacity="1" stroke-width="0"/>
<path clip-path="url(#clip690)" d="M3213.25 2291.65 L3213.25 2305.4 L3208.96 2305.4 L3208.96 2269.61 L3213.25 2269.61 L3213.25 2273.55 Q3214.59 2271.23 3216.62 2270.12 Q3218.69 2268.99 3221.53 2268.99 Q3226.25 2268.99 3229.19 2272.74 Q3232.16 2276.49 3232.16 2282.6 Q3232.16 2288.71 3229.19 2292.46 Q3226.25 2296.21 3221.53 2296.21 Q3218.69 2296.21 3216.62 2295.1 Q3214.59 2293.97 3213.25 2291.65 M3227.74 2282.6 Q3227.74 2277.9 3225.79 2275.24 Q3223.87 2272.55 3220.49 2272.55 Q3217.11 2272.55 3215.17 2275.24 Q3213.25 2277.9 3213.25 2282.6 Q3213.25 2287.3 3215.17 2289.98 Q3217.11 2292.65 3220.49 2292.65 Q3223.87 2292.65 3225.79 2289.98 Q3227.74 2287.3 3227.74 2282.6 Z" fill="#000000" fill-rule="nonzero" fill-opacity="1" /><path clip-path="url(#clip690)" d="M3254.84 2274.01 L3284.52 2274.01 L3284.52 2277.9 L3254.84 2277.9 L3254.84 2274.01 M3254.84 2283.46 L3284.52 2283.46 L3284.52 2287.39 L3254.84 2287.39 L3254.84 2283.46 Z" fill="#000000" fill-rule="nonzero" fill-opacity="1" /><path clip-path="url(#clip690)" d="M3310.49 2291.61 L3318.13 2291.61 L3318.13 2265.24 L3309.82 2266.91 L3309.82 2262.65 L3318.08 2260.98 L3322.76 2260.98 L3322.76 2291.61 L3330.4 2291.61 L3330.4 2295.54 L3310.49 2295.54 L3310.49 2291.61 Z" fill="#000000" fill-rule="nonzero" fill-opacity="1" /></svg>
