<?xml version="1.0" encoding="utf-8"?>
<svg xmlns="http://www.w3.org/2000/svg" xmlns:xlink="http://www.w3.org/1999/xlink" width="700" height="550" viewBox="0 0 2800 2200">
<defs>
  <clipPath id="clip340">
    <rect x="0" y="0" width="2800" height="2200"/>
  </clipPath>
</defs>
<path clip-path="url(#clip340)" d="M0 2200 L2800 2200 L2800 0 L0 0  Z" fill="#ffffff" fill-rule="evenodd" fill-opacity="1"/>
<defs>
  <clipPath id="clip341">
    <rect x="560" y="0" width="1961" height="1961"/>
  </clipPath>
</defs>
<defs>
  <clipPath id="clip342">
    <rect x="322" y="124" width="2432" height="1879"/>
  </clipPath>
</defs>
<path clip-path="url(#clip340)" d="M322.094 2002.52 L2752.76 2002.52 L2752.76 124.089 L322.094 124.089  Z" fill="#ffffff" fill-rule="evenodd" fill-opacity="1"/>
<polyline clip-path="url(#clip342)" style="stroke:#222255; stroke-linecap:round; stroke-linejoin:round; stroke-width:2; stroke-opacity:0.5; fill:none" points="789.597,2002.52 789.597,124.089 "/>
<polyline clip-path="url(#clip342)" style="stroke:#222255; stroke-linecap:round; stroke-linejoin:round; stroke-width:2; stroke-opacity:0.5; fill:none" points="1263.19,2002.52 1263.19,124.089 "/>
<polyline clip-path="url(#clip342)" style="stroke:#222255; stroke-linecap:round; stroke-linejoin:round; stroke-width:2; stroke-opacity:0.5; fill:none" points="1736.78,2002.52 1736.78,124.089 "/>
<polyline clip-path="url(#clip342)" style="stroke:#222255; stroke-linecap:round; stroke-linejoin:round; stroke-width:2; stroke-opacity:0.5; fill:none" points="2210.37,2002.52 2210.37,124.089 "/>
<polyline clip-path="url(#clip342)" style="stroke:#222255; stroke-linecap:round; stroke-linejoin:round; stroke-width:2; stroke-opacity:0.5; fill:none" points="2683.96,2002.52 2683.96,124.089 "/>
<polyline clip-path="url(#clip342)" style="stroke:#222255; stroke-linecap:round; stroke-linejoin:round; stroke-width:2; stroke-opacity:0.3; fill:none" points="410.724,2002.52 410.724,124.089 "/>
<polyline clip-path="url(#clip342)" style="stroke:#222255; stroke-linecap:round; stroke-linejoin:round; stroke-width:2; stroke-opacity:0.3; fill:none" points="505.442,2002.52 505.442,124.089 "/>
<polyline clip-path="url(#clip342)" style="stroke:#222255; stroke-linecap:round; stroke-linejoin:round; stroke-width:2; stroke-opacity:0.3; fill:none" points="600.16,2002.52 600.16,124.089 "/>
<polyline clip-path="url(#clip342)" style="stroke:#222255; stroke-linecap:round; stroke-linejoin:round; stroke-width:2; stroke-opacity:0.3; fill:none" points="694.879,2002.52 694.879,124.089 "/>
<polyline clip-path="url(#clip342)" style="stroke:#222255; stroke-linecap:round; stroke-linejoin:round; stroke-width:2; stroke-opacity:0.3; fill:none" points="884.315,2002.52 884.315,124.089 "/>
<polyline clip-path="url(#clip342)" style="stroke:#222255; stroke-linecap:round; stroke-linejoin:round; stroke-width:2; stroke-opacity:0.3; fill:none" points="979.034,2002.52 979.034,124.089 "/>
<polyline clip-path="url(#clip342)" style="stroke:#222255; stroke-linecap:round; stroke-linejoin:round; stroke-width:2; stroke-opacity:0.3; fill:none" points="1073.75,2002.52 1073.75,124.089 "/>
<polyline clip-path="url(#clip342)" style="stroke:#222255; stroke-linecap:round; stroke-linejoin:round; stroke-width:2; stroke-opacity:0.3; fill:none" points="1168.47,2002.52 1168.47,124.089 "/>
<polyline clip-path="url(#clip342)" style="stroke:#222255; stroke-linecap:round; stroke-linejoin:round; stroke-width:2; stroke-opacity:0.3; fill:none" points="1357.91,2002.52 1357.91,124.089 "/>
<polyline clip-path="url(#clip342)" style="stroke:#222255; stroke-linecap:round; stroke-linejoin:round; stroke-width:2; stroke-opacity:0.3; fill:none" points="1452.63,2002.52 1452.63,124.089 "/>
<polyline clip-path="url(#clip342)" style="stroke:#222255; stroke-linecap:round; stroke-linejoin:round; stroke-width:2; stroke-opacity:0.3; fill:none" points="1547.34,2002.52 1547.34,124.089 "/>
<polyline clip-path="url(#clip342)" style="stroke:#222255; stroke-linecap:round; stroke-linejoin:round; stroke-width:2; stroke-opacity:0.3; fill:none" points="1642.06,2002.52 1642.06,124.089 "/>
<polyline clip-path="url(#clip342)" style="stroke:#222255; stroke-linecap:round; stroke-linejoin:round; stroke-width:2; stroke-opacity:0.3; fill:none" points="1831.5,2002.52 1831.5,124.089 "/>
<polyline clip-path="url(#clip342)" style="stroke:#222255; stroke-linecap:round; stroke-linejoin:round; stroke-width:2; stroke-opacity:0.3; fill:none" points="1926.22,2002.52 1926.22,124.089 "/>
<polyline clip-path="url(#clip342)" style="stroke:#222255; stroke-linecap:round; stroke-linejoin:round; stroke-width:2; stroke-opacity:0.3; fill:none" points="2020.94,2002.52 2020.94,124.089 "/>
<polyline clip-path="url(#clip342)" style="stroke:#222255; stroke-linecap:round; stroke-linejoin:round; stroke-width:2; stroke-opacity:0.3; fill:none" points="2115.65,2002.52 2115.65,124.089 "/>
<polyline clip-path="url(#clip342)" style="stroke:#222255; stroke-linecap:round; stroke-linejoin:round; stroke-width:2; stroke-opacity:0.3; fill:none" points="2305.09,2002.52 2305.09,124.089 "/>
<polyline clip-path="url(#clip342)" style="stroke:#222255; stroke-linecap:round; stroke-linejoin:round; stroke-width:2; stroke-opacity:0.3; fill:none" points="2399.81,2002.52 2399.81,124.089 "/>
<polyline clip-path="url(#clip342)" style="stroke:#222255; stroke-linecap:round; stroke-linejoin:round; stroke-width:2; stroke-opacity:0.3; fill:none" points="2494.53,2002.52 2494.53,124.089 "/>
<polyline clip-path="url(#clip342)" style="stroke:#222255; stroke-linecap:round; stroke-linejoin:round; stroke-width:2; stroke-opacity:0.3; fill:none" points="2589.25,2002.52 2589.25,124.089 "/>
<polyline clip-path="url(#clip340)" style="stroke:#222255; stroke-linecap:round; stroke-linejoin:round; stroke-width:4; stroke-opacity:0; fill:none" points="789.597,2002.52 789.597,1983.63 "/>
<polyline clip-path="url(#clip340)" style="stroke:#222255; stroke-linecap:round; stroke-linejoin:round; stroke-width:4; stroke-opacity:0; fill:none" points="1263.19,2002.52 1263.19,1983.63 "/>
<polyline clip-path="url(#clip340)" style="stroke:#222255; stroke-linecap:round; stroke-linejoin:round; stroke-width:4; stroke-opacity:0; fill:none" points="1736.78,2002.52 1736.78,1983.63 "/>
<polyline clip-path="url(#clip340)" style="stroke:#222255; stroke-linecap:round; stroke-linejoin:round; stroke-width:4; stroke-opacity:0; fill:none" points="2210.37,2002.52 2210.37,1983.63 "/>
<polyline clip-path="url(#clip340)" style="stroke:#222255; stroke-linecap:round; stroke-linejoin:round; stroke-width:4; stroke-opacity:0; fill:none" points="2683.96,2002.52 2683.96,1983.63 "/>
<polyline clip-path="url(#clip340)" style="stroke:#222255; stroke-linecap:round; stroke-linejoin:round; stroke-width:4; stroke-opacity:0; fill:none" points="410.724,2002.52 410.724,1993.07 "/>
<polyline clip-path="url(#clip340)" style="stroke:#222255; stroke-linecap:round; stroke-linejoin:round; stroke-width:4; stroke-opacity:0; fill:none" points="505.442,2002.52 505.442,1993.07 "/>
<polyline clip-path="url(#clip340)" style="stroke:#222255; stroke-linecap:round; stroke-linejoin:round; stroke-width:4; stroke-opacity:0; fill:none" points="600.16,2002.52 600.16,1993.07 "/>
<polyline clip-path="url(#clip340)" style="stroke:#222255; stroke-linecap:round; stroke-linejoin:round; stroke-width:4; stroke-opacity:0; fill:none" points="694.879,2002.52 694.879,1993.07 "/>
<polyline clip-path="url(#clip340)" style="stroke:#222255; stroke-linecap:round; stroke-linejoin:round; stroke-width:4; stroke-opacity:0; fill:none" points="884.315,2002.52 884.315,1993.07 "/>
<polyline clip-path="url(#clip340)" style="stroke:#222255; stroke-linecap:round; stroke-linejoin:round; stroke-width:4; stroke-opacity:0; fill:none" points="979.034,2002.52 979.034,1993.07 "/>
<polyline clip-path="url(#clip340)" style="stroke:#222255; stroke-linecap:round; stroke-linejoin:round; stroke-width:4; stroke-opacity:0; fill:none" points="1073.75,2002.52 1073.75,1993.07 "/>
<polyline clip-path="url(#clip340)" style="stroke:#222255; stroke-linecap:round; stroke-linejoin:round; stroke-width:4; stroke-opacity:0; fill:none" points="1168.47,2002.52 1168.47,1993.07 "/>
<polyline clip-path="url(#clip340)" style="stroke:#222255; stroke-linecap:round; stroke-linejoin:round; stroke-width:4; stroke-opacity:0; fill:none" points="1357.91,2002.52 1357.91,1993.07 "/>
<polyline clip-path="url(#clip340)" style="stroke:#222255; stroke-linecap:round; stroke-linejoin:round; stroke-width:4; stroke-opacity:0; fill:none" points="1452.63,2002.52 1452.63,1993.07 "/>
<polyline clip-path="url(#clip340)" style="stroke:#222255; stroke-linecap:round; stroke-linejoin:round; stroke-width:4; stroke-opacity:0; fill:none" points="1547.34,2002.52 1547.34,1993.07 "/>
<polyline clip-path="url(#clip340)" style="stroke:#222255; stroke-linecap:round; stroke-linejoin:round; stroke-width:4; stroke-opacity:0; fill:none" points="1642.06,2002.52 1642.06,1993.07 "/>
<polyline clip-path="url(#clip340)" style="stroke:#222255; stroke-linecap:round; stroke-linejoin:round; stroke-width:4; stroke-opacity:0; fill:none" points="1831.5,2002.52 1831.5,1993.07 "/>
<polyline clip-path="url(#clip340)" style="stroke:#222255; stroke-linecap:round; stroke-linejoin:round; stroke-width:4; stroke-opacity:0; fill:none" points="1926.22,2002.52 1926.22,1993.07 "/>
<polyline clip-path="url(#clip340)" style="stroke:#222255; stroke-linecap:round; stroke-linejoin:round; stroke-width:4; stroke-opacity:0; fill:none" points="2020.94,2002.52 2020.94,1993.07 "/>
<polyline clip-path="url(#clip340)" style="stroke:#222255; stroke-linecap:round; stroke-linejoin:round; stroke-width:4; stroke-opacity:0; fill:none" points="2115.65,2002.52 2115.65,1993.07 "/>
<polyline clip-path="url(#clip340)" style="stroke:#222255; stroke-linecap:round; stroke-linejoin:round; stroke-width:4; stroke-opacity:0; fill:none" points="2305.09,2002.52 2305.09,1993.07 "/>
<polyline clip-path="url(#clip340)" style="stroke:#222255; stroke-linecap:round; stroke-linejoin:round; stroke-width:4; stroke-opacity:0; fill:none" points="2399.81,2002.52 2399.81,1993.07 "/>
<polyline clip-path="url(#clip340)" style="stroke:#222255; stroke-linecap:round; stroke-linejoin:round; stroke-width:4; stroke-opacity:0; fill:none" points="2494.53,2002.52 2494.53,1993.07 "/>
<polyline clip-path="url(#clip340)" style="stroke:#222255; stroke-linecap:round; stroke-linejoin:round; stroke-width:4; stroke-opacity:0; fill:none" points="2589.25,2002.52 2589.25,1993.07 "/>
<path clip-path="url(#clip340)" d="M767.78 2036.64 Q764.169 2036.64 762.34 2040.21 Q760.535 2043.75 760.535 2050.88 Q760.535 2057.98 762.34 2061.55 Q764.169 2065.09 767.78 2065.09 Q771.414 2065.09 773.22 2061.55 Q775.048 2057.98 775.048 2050.88 Q775.048 2043.75 773.22 2040.21 Q771.414 2036.64 767.78 2036.64 M767.78 2032.94 Q773.59 2032.94 776.646 2037.54 Q779.724 2042.13 779.724 2050.88 Q779.724 2059.6 776.646 2064.21 Q773.59 2068.79 767.78 2068.79 Q761.97 2068.79 758.891 2064.21 Q755.835 2059.6 755.835 2050.88 Q755.835 2042.13 758.891 2037.54 Q761.97 2032.94 767.78 2032.94 Z" fill="#000000" fill-rule="nonzero" fill-opacity="1" /><path clip-path="url(#clip340)" d="M787.942 2062.24 L792.826 2062.24 L792.826 2068.12 L787.942 2068.12 L787.942 2062.24 Z" fill="#000000" fill-rule="nonzero" fill-opacity="1" /><path clip-path="url(#clip340)" d="M807.039 2064.19 L823.358 2064.19 L823.358 2068.12 L801.414 2068.12 L801.414 2064.19 Q804.076 2061.43 808.659 2056.8 Q813.266 2052.15 814.446 2050.81 Q816.692 2048.28 817.571 2046.55 Q818.474 2044.79 818.474 2043.1 Q818.474 2040.35 816.53 2038.61 Q814.608 2036.87 811.506 2036.87 Q809.307 2036.87 806.854 2037.64 Q804.423 2038.4 801.645 2039.95 L801.645 2035.23 Q804.469 2034.1 806.923 2033.52 Q809.377 2032.94 811.414 2032.94 Q816.784 2032.94 819.979 2035.62 Q823.173 2038.31 823.173 2042.8 Q823.173 2044.93 822.363 2046.85 Q821.576 2048.75 819.469 2051.34 Q818.891 2052.01 815.789 2055.23 Q812.687 2058.42 807.039 2064.19 Z" fill="#000000" fill-rule="nonzero" fill-opacity="1" /><path clip-path="url(#clip340)" d="M1240.33 2036.64 Q1236.72 2036.64 1234.89 2040.21 Q1233.08 2043.75 1233.08 2050.88 Q1233.08 2057.98 1234.89 2061.55 Q1236.72 2065.09 1240.33 2065.09 Q1243.96 2065.09 1245.77 2061.55 Q1247.6 2057.98 1247.6 2050.88 Q1247.6 2043.75 1245.77 2040.21 Q1243.96 2036.64 1240.33 2036.64 M1240.33 2032.94 Q1246.14 2032.94 1249.2 2037.54 Q1252.27 2042.13 1252.27 2050.88 Q1252.27 2059.6 1249.2 2064.21 Q1246.14 2068.79 1240.33 2068.79 Q1234.52 2068.79 1231.44 2064.21 Q1228.39 2059.6 1228.39 2050.88 Q1228.39 2042.13 1231.44 2037.54 Q1234.52 2032.94 1240.33 2032.94 Z" fill="#000000" fill-rule="nonzero" fill-opacity="1" /><path clip-path="url(#clip340)" d="M1260.49 2062.24 L1265.38 2062.24 L1265.38 2068.12 L1260.49 2068.12 L1260.49 2062.24 Z" fill="#000000" fill-rule="nonzero" fill-opacity="1" /><path clip-path="url(#clip340)" d="M1288.41 2037.64 L1276.6 2056.09 L1288.41 2056.09 L1288.41 2037.64 M1287.18 2033.56 L1293.06 2033.56 L1293.06 2056.09 L1297.99 2056.09 L1297.99 2059.97 L1293.06 2059.97 L1293.06 2068.12 L1288.41 2068.12 L1288.41 2059.97 L1272.81 2059.97 L1272.81 2055.46 L1287.18 2033.56 Z" fill="#000000" fill-rule="nonzero" fill-opacity="1" /><path clip-path="url(#clip340)" d="M1714.08 2036.64 Q1710.47 2036.64 1708.64 2040.21 Q1706.84 2043.75 1706.84 2050.88 Q1706.84 2057.98 1708.64 2061.55 Q1710.47 2065.09 1714.08 2065.09 Q1717.72 2065.09 1719.52 2061.55 Q1721.35 2057.98 1721.35 2050.88 Q1721.35 2043.75 1719.52 2040.21 Q1717.72 2036.64 1714.08 2036.64 M1714.08 2032.94 Q1719.89 2032.94 1722.95 2037.54 Q1726.03 2042.13 1726.03 2050.88 Q1726.03 2059.6 1722.95 2064.21 Q1719.89 2068.79 1714.08 2068.79 Q1708.27 2068.79 1705.19 2064.21 Q1702.14 2059.6 1702.14 2050.88 Q1702.14 2042.13 1705.19 2037.54 Q1708.27 2032.94 1714.08 2032.94 Z" fill="#000000" fill-rule="nonzero" fill-opacity="1" /><path clip-path="url(#clip340)" d="M1734.25 2062.24 L1739.13 2062.24 L1739.13 2068.12 L1734.25 2068.12 L1734.25 2062.24 Z" fill="#000000" fill-rule="nonzero" fill-opacity="1" /><path clip-path="url(#clip340)" d="M1759.89 2048.98 Q1756.75 2048.98 1754.89 2051.13 Q1753.06 2053.28 1753.06 2057.03 Q1753.06 2060.76 1754.89 2062.94 Q1756.75 2065.09 1759.89 2065.09 Q1763.04 2065.09 1764.87 2062.94 Q1766.72 2060.76 1766.72 2057.03 Q1766.72 2053.28 1764.87 2051.13 Q1763.04 2048.98 1759.89 2048.98 M1769.18 2034.33 L1769.18 2038.59 Q1767.42 2037.75 1765.61 2037.31 Q1763.83 2036.87 1762.07 2036.87 Q1757.44 2036.87 1754.99 2040 Q1752.56 2043.12 1752.21 2049.44 Q1753.57 2047.43 1755.63 2046.36 Q1757.69 2045.28 1760.17 2045.28 Q1765.38 2045.28 1768.39 2048.45 Q1771.42 2051.6 1771.42 2057.03 Q1771.42 2062.36 1768.27 2065.58 Q1765.12 2068.79 1759.89 2068.79 Q1753.9 2068.79 1750.73 2064.21 Q1747.56 2059.6 1747.56 2050.88 Q1747.56 2042.68 1751.44 2037.82 Q1755.33 2032.94 1761.88 2032.94 Q1763.64 2032.94 1765.43 2033.28 Q1767.23 2033.63 1769.18 2034.33 Z" fill="#000000" fill-rule="nonzero" fill-opacity="1" /><path clip-path="url(#clip340)" d="M2187.8 2036.64 Q2184.19 2036.64 2182.36 2040.21 Q2180.56 2043.75 2180.56 2050.88 Q2180.56 2057.98 2182.36 2061.55 Q2184.19 2065.09 2187.8 2065.09 Q2191.44 2065.09 2193.24 2061.55 Q2195.07 2057.98 2195.07 2050.88 Q2195.07 2043.75 2193.24 2040.21 Q2191.44 2036.64 2187.8 2036.64 M2187.8 2032.94 Q2193.61 2032.94 2196.67 2037.54 Q2199.75 2042.13 2199.75 2050.88 Q2199.75 2059.6 2196.67 2064.21 Q2193.61 2068.79 2187.8 2068.79 Q2181.99 2068.79 2178.91 2064.21 Q2175.86 2059.6 2175.86 2050.88 Q2175.86 2042.13 2178.91 2037.54 Q2181.99 2032.94 2187.8 2032.94 Z" fill="#000000" fill-rule="nonzero" fill-opacity="1" /><path clip-path="url(#clip340)" d="M2207.96 2062.24 L2212.85 2062.24 L2212.85 2068.12 L2207.96 2068.12 L2207.96 2062.24 Z" fill="#000000" fill-rule="nonzero" fill-opacity="1" /><path clip-path="url(#clip340)" d="M2233.03 2051.71 Q2229.7 2051.71 2227.78 2053.49 Q2225.88 2055.28 2225.88 2058.4 Q2225.88 2061.53 2227.78 2063.31 Q2229.7 2065.09 2233.03 2065.09 Q2236.37 2065.09 2238.29 2063.31 Q2240.21 2061.5 2240.21 2058.4 Q2240.21 2055.28 2238.29 2053.49 Q2236.39 2051.71 2233.03 2051.71 M2228.36 2049.72 Q2225.35 2048.98 2223.66 2046.92 Q2221.99 2044.86 2221.99 2041.9 Q2221.99 2037.75 2224.93 2035.35 Q2227.89 2032.94 2233.03 2032.94 Q2238.2 2032.94 2241.14 2035.35 Q2244.08 2037.75 2244.08 2041.9 Q2244.08 2044.86 2242.39 2046.92 Q2240.72 2048.98 2237.73 2049.72 Q2241.11 2050.51 2242.99 2052.8 Q2244.89 2055.09 2244.89 2058.4 Q2244.89 2063.42 2241.81 2066.11 Q2238.75 2068.79 2233.03 2068.79 Q2227.32 2068.79 2224.24 2066.11 Q2221.18 2063.42 2221.18 2058.4 Q2221.18 2055.09 2223.08 2052.8 Q2224.98 2050.51 2228.36 2049.72 M2226.64 2042.34 Q2226.64 2045.02 2228.31 2046.53 Q2230 2048.03 2233.03 2048.03 Q2236.04 2048.03 2237.73 2046.53 Q2239.45 2045.02 2239.45 2042.34 Q2239.45 2039.65 2237.73 2038.15 Q2236.04 2036.64 2233.03 2036.64 Q2230 2036.64 2228.31 2038.15 Q2226.64 2039.65 2226.64 2042.34 Z" fill="#000000" fill-rule="nonzero" fill-opacity="1" /><path clip-path="url(#clip340)" d="M2651.12 2064.19 L2658.76 2064.19 L2658.76 2037.82 L2650.45 2039.49 L2650.45 2035.23 L2658.71 2033.56 L2663.39 2033.56 L2663.39 2064.19 L2671.02 2064.19 L2671.02 2068.12 L2651.12 2068.12 L2651.12 2064.19 Z" fill="#000000" fill-rule="nonzero" fill-opacity="1" /><path clip-path="url(#clip340)" d="M2680.47 2062.24 L2685.35 2062.24 L2685.35 2068.12 L2680.47 2068.12 L2680.47 2062.24 Z" fill="#000000" fill-rule="nonzero" fill-opacity="1" /><path clip-path="url(#clip340)" d="M2705.54 2036.64 Q2701.93 2036.64 2700.1 2040.21 Q2698.29 2043.75 2698.29 2050.88 Q2698.29 2057.98 2700.1 2061.55 Q2701.93 2065.09 2705.54 2065.09 Q2709.17 2065.09 2710.98 2061.55 Q2712.81 2057.98 2712.81 2050.88 Q2712.81 2043.75 2710.98 2040.21 Q2709.17 2036.64 2705.54 2036.64 M2705.54 2032.94 Q2711.35 2032.94 2714.4 2037.54 Q2717.48 2042.13 2717.48 2050.88 Q2717.48 2059.6 2714.4 2064.21 Q2711.35 2068.79 2705.54 2068.79 Q2699.73 2068.79 2696.65 2064.21 Q2693.59 2059.6 2693.59 2050.88 Q2693.59 2042.13 2696.65 2037.54 Q2699.73 2032.94 2705.54 2032.94 Z" fill="#000000" fill-rule="nonzero" fill-opacity="1" /><path clip-path="url(#clip340)" d="M1025.75 2130.69 L1025.75 2148.1 L1036.06 2148.1 Q1041.25 2148.1 1043.73 2145.97 Q1046.25 2143.81 1046.25 2139.38 Q1046.25 2134.93 1043.73 2132.83 Q1041.25 2130.69 1036.06 2130.69 L1025.75 2130.69 M1025.75 2111.15 L1025.75 2125.47 L1035.27 2125.47 Q1039.98 2125.47 1042.27 2123.72 Q1044.59 2121.94 1044.59 2118.31 Q1044.59 2114.72 1042.27 2112.93 Q1039.98 2111.15 1035.27 2111.15 L1025.75 2111.15 M1019.32 2105.87 L1035.74 2105.87 Q1043.1 2105.87 1047.07 2108.92 Q1051.05 2111.98 1051.05 2117.61 Q1051.05 2121.97 1049.02 2124.55 Q1046.98 2127.13 1043.03 2127.76 Q1047.77 2128.78 1050.38 2132.03 Q1053.03 2135.24 1053.03 2140.08 Q1053.03 2146.45 1048.7 2149.92 Q1044.37 2153.39 1036.38 2153.39 L1019.32 2153.39 L1019.32 2105.87 Z" fill="#000000" fill-rule="nonzero" fill-opacity="1" /><path clip-path="url(#clip340)" d="M1094.28 2134.1 L1094.28 2136.96 L1067.35 2136.96 Q1067.73 2143.01 1070.98 2146.19 Q1074.26 2149.34 1080.08 2149.34 Q1083.45 2149.34 1086.61 2148.52 Q1089.79 2147.69 1092.91 2146.03 L1092.91 2151.57 Q1089.76 2152.91 1086.45 2153.61 Q1083.14 2154.31 1079.73 2154.31 Q1071.2 2154.31 1066.2 2149.34 Q1061.24 2144.38 1061.24 2135.91 Q1061.24 2127.16 1065.95 2122.04 Q1070.69 2116.88 1078.71 2116.88 Q1085.91 2116.88 1090.08 2121.53 Q1094.28 2126.14 1094.28 2134.1 M1088.42 2132.38 Q1088.36 2127.57 1085.71 2124.71 Q1083.1 2121.84 1078.78 2121.84 Q1073.87 2121.84 1070.91 2124.61 Q1067.99 2127.38 1067.54 2132.41 L1088.42 2132.38 Z" fill="#000000" fill-rule="nonzero" fill-opacity="1" /><path clip-path="url(#clip340)" d="M1109.55 2148.04 L1109.55 2166.95 L1103.67 2166.95 L1103.67 2117.74 L1109.55 2117.74 L1109.55 2123.15 Q1111.4 2119.97 1114.2 2118.44 Q1117.03 2116.88 1120.95 2116.88 Q1127.44 2116.88 1131.48 2122.04 Q1135.56 2127.19 1135.56 2135.59 Q1135.56 2144 1131.48 2149.15 Q1127.44 2154.31 1120.95 2154.31 Q1117.03 2154.31 1114.2 2152.78 Q1111.4 2151.22 1109.55 2148.04 M1129.48 2135.59 Q1129.48 2129.13 1126.81 2125.47 Q1124.16 2121.78 1119.52 2121.78 Q1114.87 2121.78 1112.2 2125.47 Q1109.55 2129.13 1109.55 2135.59 Q1109.55 2142.06 1112.2 2145.75 Q1114.87 2149.41 1119.52 2149.41 Q1124.16 2149.41 1126.81 2145.75 Q1129.48 2142.06 1129.48 2135.59 Z" fill="#000000" fill-rule="nonzero" fill-opacity="1" /><path clip-path="url(#clip340)" d="M1159.08 2121.84 Q1154.37 2121.84 1151.63 2125.54 Q1148.89 2129.2 1148.89 2135.59 Q1148.89 2141.99 1151.6 2145.68 Q1154.34 2149.34 1159.08 2149.34 Q1163.76 2149.34 1166.5 2145.65 Q1169.23 2141.96 1169.23 2135.59 Q1169.23 2129.26 1166.5 2125.57 Q1163.76 2121.84 1159.08 2121.84 M1159.08 2116.88 Q1166.72 2116.88 1171.08 2121.84 Q1175.44 2126.81 1175.44 2135.59 Q1175.44 2144.35 1171.08 2149.34 Q1166.72 2154.31 1159.08 2154.31 Q1151.41 2154.31 1147.05 2149.34 Q1142.72 2144.35 1142.72 2135.59 Q1142.72 2126.81 1147.05 2121.84 Q1151.41 2116.88 1159.08 2116.88 Z" fill="#000000" fill-rule="nonzero" fill-opacity="1" /><path clip-path="url(#clip340)" d="M1191.04 2128.02 Q1191.04 2130.66 1193.07 2132.16 Q1195.11 2133.65 1198.9 2133.65 L1206.79 2133.65 L1206.79 2122.42 L1198.9 2122.42 Q1195.11 2122.42 1193.07 2123.88 Q1191.04 2125.35 1191.04 2128.02 M1182.7 2153.39 L1193.58 2137.76 Q1189.89 2136.93 1187.44 2134.77 Q1184.99 2132.57 1184.99 2128.02 Q1184.99 2122.86 1188.39 2120.32 Q1191.83 2117.74 1198.74 2117.74 L1212.68 2117.74 L1212.68 2153.39 L1206.79 2153.39 L1206.79 2138.33 L1199.5 2138.33 L1189 2153.39 L1182.7 2153.39 Z" fill="#000000" fill-rule="nonzero" fill-opacity="1" /><path clip-path="url(#clip340)" d="M1220.13 2117.74 L1254.28 2117.74 L1254.28 2122.42 L1240.08 2122.42 L1240.08 2153.39 L1234.32 2153.39 L1234.32 2122.42 L1220.13 2122.42 L1220.13 2117.74 Z" fill="#000000" fill-rule="nonzero" fill-opacity="1" /><path clip-path="url(#clip340)" d="M1262.11 2117.74 L1268 2117.74 L1268 2132.28 L1287 2132.28 L1287 2117.74 L1292.89 2117.74 L1292.89 2153.39 L1287 2153.39 L1287 2136.96 L1268 2136.96 L1268 2153.39 L1262.11 2153.39 L1262.11 2117.74 Z" fill="#000000" fill-rule="nonzero" fill-opacity="1" /><path clip-path="url(#clip340)" d="M1318.76 2121.84 Q1314.05 2121.84 1311.32 2125.54 Q1308.58 2129.2 1308.58 2135.59 Q1308.58 2141.99 1311.28 2145.68 Q1314.02 2149.34 1318.76 2149.34 Q1323.44 2149.34 1326.18 2145.65 Q1328.92 2141.96 1328.92 2135.59 Q1328.92 2129.26 1326.18 2125.57 Q1323.44 2121.84 1318.76 2121.84 M1318.76 2116.88 Q1326.4 2116.88 1330.76 2121.84 Q1335.12 2126.81 1335.12 2135.59 Q1335.12 2144.35 1330.76 2149.34 Q1326.4 2154.31 1318.76 2154.31 Q1311.09 2154.31 1306.73 2149.34 Q1302.4 2144.35 1302.4 2135.59 Q1302.4 2126.81 1306.73 2121.84 Q1311.09 2116.88 1318.76 2116.88 Z" fill="#000000" fill-rule="nonzero" fill-opacity="1" /><path clip-path="url(#clip340)" d="M1370.48 2119.11 L1370.48 2124.58 Q1368 2123.21 1365.49 2122.54 Q1363 2121.84 1360.46 2121.84 Q1354.76 2121.84 1351.61 2125.47 Q1348.46 2129.07 1348.46 2135.59 Q1348.46 2142.12 1351.61 2145.75 Q1354.76 2149.34 1360.46 2149.34 Q1363 2149.34 1365.49 2148.68 Q1368 2147.98 1370.48 2146.61 L1370.48 2152.02 Q1368.03 2153.16 1365.39 2153.74 Q1362.78 2154.31 1359.82 2154.31 Q1351.77 2154.31 1347.03 2149.25 Q1342.28 2144.19 1342.28 2135.59 Q1342.28 2126.87 1347.06 2121.88 Q1351.86 2116.88 1360.2 2116.88 Q1362.91 2116.88 1365.49 2117.45 Q1368.07 2117.99 1370.48 2119.11 Z" fill="#000000" fill-rule="nonzero" fill-opacity="1" /><path clip-path="url(#clip340)" d="M1376.44 2117.74 L1410.59 2117.74 L1410.59 2122.42 L1396.39 2122.42 L1396.39 2153.39 L1390.63 2153.39 L1390.63 2122.42 L1376.44 2122.42 L1376.44 2117.74 Z" fill="#000000" fill-rule="nonzero" fill-opacity="1" /><path clip-path="url(#clip340)" d="M1440.83 2142.82 Q1440.83 2139.96 1438.72 2138.46 Q1436.66 2136.96 1432.65 2136.96 L1424.31 2136.96 L1424.31 2148.71 L1432.65 2148.71 Q1436.66 2148.71 1438.72 2147.21 Q1440.83 2145.68 1440.83 2142.82 M1418.42 2117.74 L1424.31 2117.74 L1424.31 2132.28 L1432.9 2132.28 Q1439.71 2132.28 1443.37 2134.89 Q1447.06 2137.47 1447.06 2142.82 Q1447.06 2148.17 1443.37 2150.78 Q1439.71 2153.39 1432.9 2153.39 L1418.42 2153.39 L1418.42 2117.74 Z" fill="#000000" fill-rule="nonzero" fill-opacity="1" /><path clip-path="url(#clip340)" d="M1508.33 2117.74 L1508.33 2153.39 L1502.45 2153.39 L1502.45 2122.42 L1483.44 2122.42 L1483.44 2153.39 L1477.56 2153.39 L1477.56 2117.74 L1508.33 2117.74 Z" fill="#000000" fill-rule="nonzero" fill-opacity="1" /><path clip-path="url(#clip340)" d="M1534.21 2121.84 Q1529.5 2121.84 1526.76 2125.54 Q1524.03 2129.2 1524.03 2135.59 Q1524.03 2141.99 1526.73 2145.68 Q1529.47 2149.34 1534.21 2149.34 Q1538.89 2149.34 1541.63 2145.65 Q1544.36 2141.96 1544.36 2135.59 Q1544.36 2129.26 1541.63 2125.57 Q1538.89 2121.84 1534.21 2121.84 M1534.21 2116.88 Q1541.85 2116.88 1546.21 2121.84 Q1550.57 2126.81 1550.57 2135.59 Q1550.57 2144.35 1546.21 2149.34 Q1541.85 2154.31 1534.21 2154.31 Q1526.54 2154.31 1522.18 2149.34 Q1517.85 2144.35 1517.85 2135.59 Q1517.85 2126.81 1522.18 2121.84 Q1526.54 2116.88 1534.21 2116.88 Z" fill="#000000" fill-rule="nonzero" fill-opacity="1" /><path clip-path="url(#clip340)" d="M1566.17 2128.02 Q1566.17 2130.66 1568.2 2132.16 Q1570.24 2133.65 1574.03 2133.65 L1581.92 2133.65 L1581.92 2122.42 L1574.03 2122.42 Q1570.24 2122.42 1568.2 2123.88 Q1566.17 2125.35 1566.17 2128.02 M1557.83 2153.39 L1568.71 2137.76 Q1565.02 2136.93 1562.57 2134.77 Q1560.12 2132.57 1560.12 2128.02 Q1560.12 2122.86 1563.52 2120.32 Q1566.96 2117.74 1573.87 2117.74 L1587.81 2117.74 L1587.81 2153.39 L1581.92 2153.39 L1581.92 2138.33 L1574.63 2138.33 L1564.13 2153.39 L1557.83 2153.39 Z" fill="#000000" fill-rule="nonzero" fill-opacity="1" /><path clip-path="url(#clip340)" d="M1605.12 2136.96 L1605.12 2148.71 L1613.46 2148.71 Q1617.47 2148.71 1619.57 2147.21 Q1621.68 2145.68 1621.68 2142.82 Q1621.68 2139.96 1619.57 2138.46 Q1617.47 2136.96 1613.46 2136.96 L1605.12 2136.96 M1605.12 2122.42 L1605.12 2132.28 L1612.83 2132.28 Q1616.14 2132.28 1618.24 2130.98 Q1620.34 2129.64 1620.34 2127.29 Q1620.34 2124.93 1618.24 2123.69 Q1616.14 2122.42 1612.83 2122.42 L1605.12 2122.42 M1599.27 2117.74 L1613.21 2117.74 Q1619.48 2117.74 1622.85 2120.03 Q1626.23 2122.32 1626.23 2126.56 Q1626.23 2129.83 1624.51 2131.78 Q1622.79 2133.68 1619.42 2134.16 Q1623.46 2134.93 1625.69 2137.35 Q1627.91 2139.76 1627.91 2143.39 Q1627.91 2148.17 1624.22 2150.78 Q1620.56 2153.39 1613.75 2153.39 L1599.27 2153.39 L1599.27 2117.74 Z" fill="#000000" fill-rule="nonzero" fill-opacity="1" /><path clip-path="url(#clip340)" d="M1634.18 2153.39 L1634.18 2148.52 Q1639.98 2147.63 1641.76 2143.62 Q1643.92 2137.98 1643.92 2123.56 L1643.92 2117.74 L1668.02 2117.74 L1668.02 2153.39 L1662.16 2153.39 L1662.16 2122.42 L1649.78 2122.42 L1649.78 2125.95 Q1649.78 2139.7 1646.98 2145.88 Q1643.99 2152.46 1634.18 2153.39 Z" fill="#000000" fill-rule="nonzero" fill-opacity="1" /><path clip-path="url(#clip340)" d="M1710.06 2134.1 L1710.06 2136.96 L1683.14 2136.96 Q1683.52 2143.01 1686.76 2146.19 Q1690.04 2149.34 1695.87 2149.34 Q1699.24 2149.34 1702.39 2148.52 Q1705.58 2147.69 1708.69 2146.03 L1708.69 2151.57 Q1705.54 2152.91 1702.23 2153.61 Q1698.92 2154.31 1695.52 2154.31 Q1686.99 2154.31 1681.99 2149.34 Q1677.03 2144.38 1677.03 2135.91 Q1677.03 2127.16 1681.74 2122.04 Q1686.48 2116.88 1694.5 2116.88 Q1701.69 2116.88 1705.86 2121.53 Q1710.06 2126.14 1710.06 2134.1 M1704.21 2132.38 Q1704.14 2127.57 1701.5 2124.71 Q1698.89 2121.84 1694.56 2121.84 Q1689.66 2121.84 1686.7 2124.61 Q1683.77 2127.38 1683.33 2132.41 L1704.21 2132.38 Z" fill="#000000" fill-rule="nonzero" fill-opacity="1" /><path clip-path="url(#clip340)" d="M1719.45 2117.74 L1725.34 2117.74 L1725.34 2132.28 L1744.34 2132.28 L1744.34 2117.74 L1750.23 2117.74 L1750.23 2153.39 L1744.34 2153.39 L1744.34 2136.96 L1725.34 2136.96 L1725.34 2153.39 L1719.45 2153.39 L1719.45 2117.74 Z" fill="#000000" fill-rule="nonzero" fill-opacity="1" /><path clip-path="url(#clip340)" d="M1792.59 2117.74 L1792.59 2153.39 L1786.77 2153.39 L1786.77 2124.77 L1769.58 2153.39 L1762.07 2153.39 L1762.07 2117.74 L1767.9 2117.74 L1767.9 2146.29 L1785.05 2117.74 L1792.59 2117.74 Z" fill="#000000" fill-rule="nonzero" fill-opacity="1" /><path clip-path="url(#clip340)" d="M1810.55 2128.02 Q1810.55 2130.66 1812.58 2132.16 Q1814.62 2133.65 1818.41 2133.65 L1826.3 2133.65 L1826.3 2122.42 L1818.41 2122.42 Q1814.62 2122.42 1812.58 2123.88 Q1810.55 2125.35 1810.55 2128.02 M1802.21 2153.39 L1813.09 2137.76 Q1809.4 2136.93 1806.95 2134.77 Q1804.5 2132.57 1804.5 2128.02 Q1804.5 2122.86 1807.9 2120.32 Q1811.34 2117.74 1818.25 2117.74 L1832.19 2117.74 L1832.19 2153.39 L1826.3 2153.39 L1826.3 2138.33 L1819.01 2138.33 L1808.51 2153.39 L1802.21 2153.39 Z" fill="#000000" fill-rule="nonzero" fill-opacity="1" /><path clip-path="url(#clip340)" d="M1870.26 2148.04 L1870.26 2166.95 L1864.37 2166.95 L1864.37 2117.74 L1870.26 2117.74 L1870.26 2123.15 Q1872.1 2119.97 1874.9 2118.44 Q1877.74 2116.88 1881.65 2116.88 Q1888.14 2116.88 1892.19 2122.04 Q1896.26 2127.19 1896.26 2135.59 Q1896.26 2144 1892.19 2149.15 Q1888.14 2154.31 1881.65 2154.31 Q1877.74 2154.31 1874.9 2152.78 Q1872.1 2151.22 1870.26 2148.04 M1890.18 2135.59 Q1890.18 2129.13 1887.51 2125.47 Q1884.87 2121.78 1880.22 2121.78 Q1875.57 2121.78 1872.9 2125.47 Q1870.26 2129.13 1870.26 2135.59 Q1870.26 2142.06 1872.9 2145.75 Q1875.57 2149.41 1880.22 2149.41 Q1884.87 2149.41 1887.51 2145.75 Q1890.18 2142.06 1890.18 2135.59 Z" fill="#000000" fill-rule="nonzero" fill-opacity="1" /><path clip-path="url(#clip340)" d="M1936.46 2134.1 L1936.46 2136.96 L1909.53 2136.96 Q1909.91 2143.01 1913.16 2146.19 Q1916.44 2149.34 1922.26 2149.34 Q1925.64 2149.34 1928.79 2148.52 Q1931.97 2147.69 1935.09 2146.03 L1935.09 2151.57 Q1931.94 2152.91 1928.63 2153.61 Q1925.32 2154.31 1921.91 2154.31 Q1913.38 2154.31 1908.39 2149.34 Q1903.42 2144.38 1903.42 2135.91 Q1903.42 2127.16 1908.13 2122.04 Q1912.87 2116.88 1920.9 2116.88 Q1928.09 2116.88 1932.26 2121.53 Q1936.46 2126.14 1936.46 2134.1 M1930.6 2132.38 Q1930.54 2127.57 1927.9 2124.71 Q1925.29 2121.84 1920.96 2121.84 Q1916.06 2121.84 1913.1 2124.61 Q1910.17 2127.38 1909.72 2132.41 L1930.6 2132.38 Z" fill="#000000" fill-rule="nonzero" fill-opacity="1" /><path clip-path="url(#clip340)" d="M1960.2 2116.88 Q1967.84 2116.88 1972.2 2121.84 Q1976.56 2126.81 1976.56 2135.59 Q1976.56 2144.35 1972.2 2149.34 Q1967.84 2154.31 1960.2 2154.31 Q1952.53 2154.31 1948.3 2149.47 Q1944.07 2144.63 1943.84 2135.59 L1943.65 2128.31 Q1943.49 2124.52 1943.49 2123.21 Q1943.49 2118.12 1945.34 2114.36 Q1948.24 2108.48 1953.23 2105.93 Q1958.26 2103.38 1966.66 2103.32 Q1970.55 2103.29 1972.27 2102.75 L1973.89 2107.39 Q1972.33 2108.03 1970.9 2108.06 L1962.94 2108.6 Q1958.93 2108.89 1956.51 2110.29 Q1950.18 2114.01 1949.57 2118.88 L1949.35 2120.67 Q1953.49 2116.88 1960.2 2116.88 M1960.2 2121.84 Q1955.49 2121.84 1952.76 2125.54 Q1950.02 2129.2 1950.02 2135.59 Q1950.02 2141.99 1952.72 2145.68 Q1955.46 2149.34 1960.2 2149.34 Q1964.88 2149.34 1967.62 2145.65 Q1970.36 2141.96 1970.36 2135.59 Q1970.36 2129.26 1967.62 2125.57 Q1964.88 2121.84 1960.2 2121.84 Z" fill="#000000" fill-rule="nonzero" fill-opacity="1" /><path clip-path="url(#clip340)" d="M1991.94 2148.04 L1991.94 2166.95 L1986.05 2166.95 L1986.05 2117.74 L1991.94 2117.74 L1991.94 2123.15 Q1993.78 2119.97 1996.58 2118.44 Q1999.42 2116.88 2003.33 2116.88 Q2009.82 2116.88 2013.87 2122.04 Q2017.94 2127.19 2017.94 2135.59 Q2017.94 2144 2013.87 2149.15 Q2009.82 2154.31 2003.33 2154.31 Q1999.42 2154.31 1996.58 2152.78 Q1993.78 2151.22 1991.94 2148.04 M2011.86 2135.59 Q2011.86 2129.13 2009.19 2125.47 Q2006.55 2121.78 2001.9 2121.78 Q1997.25 2121.78 1994.58 2125.47 Q1991.94 2129.13 1991.94 2135.59 Q1991.94 2142.06 1994.58 2145.75 Q1997.25 2149.41 2001.9 2149.41 Q2006.55 2149.41 2009.19 2145.75 Q2011.86 2142.06 2011.86 2135.59 Z" fill="#000000" fill-rule="nonzero" fill-opacity="1" /><path clip-path="url(#clip340)" d="M2043.85 2135.47 Q2036.75 2135.47 2034.01 2137.09 Q2031.28 2138.71 2031.28 2142.63 Q2031.28 2145.75 2033.31 2147.59 Q2035.38 2149.41 2038.92 2149.41 Q2043.79 2149.41 2046.71 2145.97 Q2049.67 2142.5 2049.67 2136.77 L2049.67 2135.47 L2043.85 2135.47 M2055.53 2133.05 L2055.53 2153.39 L2049.67 2153.39 L2049.67 2147.98 Q2047.67 2151.22 2044.68 2152.78 Q2041.68 2154.31 2037.36 2154.31 Q2031.88 2154.31 2028.63 2151.25 Q2025.42 2148.17 2025.42 2143.01 Q2025.42 2137 2029.43 2133.94 Q2033.47 2130.88 2041.46 2130.88 L2049.67 2130.88 L2049.67 2130.31 Q2049.67 2126.27 2047 2124.07 Q2044.36 2121.84 2039.55 2121.84 Q2036.5 2121.84 2033.6 2122.58 Q2030.7 2123.31 2028.03 2124.77 L2028.03 2119.36 Q2031.24 2118.12 2034.27 2117.52 Q2037.29 2116.88 2040.16 2116.88 Q2047.89 2116.88 2051.71 2120.89 Q2055.53 2124.9 2055.53 2133.05 Z" fill="#000000" fill-rule="nonzero" fill-opacity="1" /><polyline clip-path="url(#clip342)" style="stroke:#222255; stroke-linecap:round; stroke-linejoin:round; stroke-width:2; stroke-opacity:0.5; fill:none" points="322.094,1970.72 2752.76,1970.72 "/>
<polyline clip-path="url(#clip342)" style="stroke:#222255; stroke-linecap:round; stroke-linejoin:round; stroke-width:2; stroke-opacity:0.5; fill:none" points="322.094,1522.35 2752.76,1522.35 "/>
<polyline clip-path="url(#clip342)" style="stroke:#222255; stroke-linecap:round; stroke-linejoin:round; stroke-width:2; stroke-opacity:0.5; fill:none" points="322.094,1073.99 2752.76,1073.99 "/>
<polyline clip-path="url(#clip342)" style="stroke:#222255; stroke-linecap:round; stroke-linejoin:round; stroke-width:2; stroke-opacity:0.5; fill:none" points="322.094,625.619 2752.76,625.619 "/>
<polyline clip-path="url(#clip342)" style="stroke:#222255; stroke-linecap:round; stroke-linejoin:round; stroke-width:2; stroke-opacity:0.5; fill:none" points="322.094,177.252 2752.76,177.252 "/>
<polyline clip-path="url(#clip342)" style="stroke:#222255; stroke-linecap:round; stroke-linejoin:round; stroke-width:2; stroke-opacity:0.3; fill:none" points="322.094,1881.05 2752.76,1881.05 "/>
<polyline clip-path="url(#clip342)" style="stroke:#222255; stroke-linecap:round; stroke-linejoin:round; stroke-width:2; stroke-opacity:0.3; fill:none" points="322.094,1791.37 2752.76,1791.37 "/>
<polyline clip-path="url(#clip342)" style="stroke:#222255; stroke-linecap:round; stroke-linejoin:round; stroke-width:2; stroke-opacity:0.3; fill:none" points="322.094,1701.7 2752.76,1701.7 "/>
<polyline clip-path="url(#clip342)" style="stroke:#222255; stroke-linecap:round; stroke-linejoin:round; stroke-width:2; stroke-opacity:0.3; fill:none" points="322.094,1612.03 2752.76,1612.03 "/>
<polyline clip-path="url(#clip342)" style="stroke:#222255; stroke-linecap:round; stroke-linejoin:round; stroke-width:2; stroke-opacity:0.3; fill:none" points="322.094,1432.68 2752.76,1432.68 "/>
<polyline clip-path="url(#clip342)" style="stroke:#222255; stroke-linecap:round; stroke-linejoin:round; stroke-width:2; stroke-opacity:0.3; fill:none" points="322.094,1343.01 2752.76,1343.01 "/>
<polyline clip-path="url(#clip342)" style="stroke:#222255; stroke-linecap:round; stroke-linejoin:round; stroke-width:2; stroke-opacity:0.3; fill:none" points="322.094,1253.33 2752.76,1253.33 "/>
<polyline clip-path="url(#clip342)" style="stroke:#222255; stroke-linecap:round; stroke-linejoin:round; stroke-width:2; stroke-opacity:0.3; fill:none" points="322.094,1163.66 2752.76,1163.66 "/>
<polyline clip-path="url(#clip342)" style="stroke:#222255; stroke-linecap:round; stroke-linejoin:round; stroke-width:2; stroke-opacity:0.3; fill:none" points="322.094,984.312 2752.76,984.312 "/>
<polyline clip-path="url(#clip342)" style="stroke:#222255; stroke-linecap:round; stroke-linejoin:round; stroke-width:2; stroke-opacity:0.3; fill:none" points="322.094,894.639 2752.76,894.639 "/>
<polyline clip-path="url(#clip342)" style="stroke:#222255; stroke-linecap:round; stroke-linejoin:round; stroke-width:2; stroke-opacity:0.3; fill:none" points="322.094,804.966 2752.76,804.966 "/>
<polyline clip-path="url(#clip342)" style="stroke:#222255; stroke-linecap:round; stroke-linejoin:round; stroke-width:2; stroke-opacity:0.3; fill:none" points="322.094,715.292 2752.76,715.292 "/>
<polyline clip-path="url(#clip342)" style="stroke:#222255; stroke-linecap:round; stroke-linejoin:round; stroke-width:2; stroke-opacity:0.3; fill:none" points="322.094,535.946 2752.76,535.946 "/>
<polyline clip-path="url(#clip342)" style="stroke:#222255; stroke-linecap:round; stroke-linejoin:round; stroke-width:2; stroke-opacity:0.3; fill:none" points="322.094,446.272 2752.76,446.272 "/>
<polyline clip-path="url(#clip342)" style="stroke:#222255; stroke-linecap:round; stroke-linejoin:round; stroke-width:2; stroke-opacity:0.3; fill:none" points="322.094,356.599 2752.76,356.599 "/>
<polyline clip-path="url(#clip342)" style="stroke:#222255; stroke-linecap:round; stroke-linejoin:round; stroke-width:2; stroke-opacity:0.3; fill:none" points="322.094,266.926 2752.76,266.926 "/>
<polyline clip-path="url(#clip340)" style="stroke:#222255; stroke-linecap:round; stroke-linejoin:round; stroke-width:4; stroke-opacity:0; fill:none" points="322.094,1970.72 340.992,1970.72 "/>
<polyline clip-path="url(#clip340)" style="stroke:#222255; stroke-linecap:round; stroke-linejoin:round; stroke-width:4; stroke-opacity:0; fill:none" points="322.094,1522.35 340.992,1522.35 "/>
<polyline clip-path="url(#clip340)" style="stroke:#222255; stroke-linecap:round; stroke-linejoin:round; stroke-width:4; stroke-opacity:0; fill:none" points="322.094,1073.99 340.992,1073.99 "/>
<polyline clip-path="url(#clip340)" style="stroke:#222255; stroke-linecap:round; stroke-linejoin:round; stroke-width:4; stroke-opacity:0; fill:none" points="322.094,625.619 340.992,625.619 "/>
<polyline clip-path="url(#clip340)" style="stroke:#222255; stroke-linecap:round; stroke-linejoin:round; stroke-width:4; stroke-opacity:0; fill:none" points="322.094,177.252 340.992,177.252 "/>
<polyline clip-path="url(#clip340)" style="stroke:#222255; stroke-linecap:round; stroke-linejoin:round; stroke-width:4; stroke-opacity:0; fill:none" points="322.094,1881.05 331.543,1881.05 "/>
<polyline clip-path="url(#clip340)" style="stroke:#222255; stroke-linecap:round; stroke-linejoin:round; stroke-width:4; stroke-opacity:0; fill:none" points="322.094,1791.37 331.543,1791.37 "/>
<polyline clip-path="url(#clip340)" style="stroke:#222255; stroke-linecap:round; stroke-linejoin:round; stroke-width:4; stroke-opacity:0; fill:none" points="322.094,1701.7 331.543,1701.7 "/>
<polyline clip-path="url(#clip340)" style="stroke:#222255; stroke-linecap:round; stroke-linejoin:round; stroke-width:4; stroke-opacity:0; fill:none" points="322.094,1612.03 331.543,1612.03 "/>
<polyline clip-path="url(#clip340)" style="stroke:#222255; stroke-linecap:round; stroke-linejoin:round; stroke-width:4; stroke-opacity:0; fill:none" points="322.094,1432.68 331.543,1432.68 "/>
<polyline clip-path="url(#clip340)" style="stroke:#222255; stroke-linecap:round; stroke-linejoin:round; stroke-width:4; stroke-opacity:0; fill:none" points="322.094,1343.01 331.543,1343.01 "/>
<polyline clip-path="url(#clip340)" style="stroke:#222255; stroke-linecap:round; stroke-linejoin:round; stroke-width:4; stroke-opacity:0; fill:none" points="322.094,1253.33 331.543,1253.33 "/>
<polyline clip-path="url(#clip340)" style="stroke:#222255; stroke-linecap:round; stroke-linejoin:round; stroke-width:4; stroke-opacity:0; fill:none" points="322.094,1163.66 331.543,1163.66 "/>
<polyline clip-path="url(#clip340)" style="stroke:#222255; stroke-linecap:round; stroke-linejoin:round; stroke-width:4; stroke-opacity:0; fill:none" points="322.094,984.312 331.543,984.312 "/>
<polyline clip-path="url(#clip340)" style="stroke:#222255; stroke-linecap:round; stroke-linejoin:round; stroke-width:4; stroke-opacity:0; fill:none" points="322.094,894.639 331.543,894.639 "/>
<polyline clip-path="url(#clip340)" style="stroke:#222255; stroke-linecap:round; stroke-linejoin:round; stroke-width:4; stroke-opacity:0; fill:none" points="322.094,804.966 331.543,804.966 "/>
<polyline clip-path="url(#clip340)" style="stroke:#222255; stroke-linecap:round; stroke-linejoin:round; stroke-width:4; stroke-opacity:0; fill:none" points="322.094,715.292 331.543,715.292 "/>
<polyline clip-path="url(#clip340)" style="stroke:#222255; stroke-linecap:round; stroke-linejoin:round; stroke-width:4; stroke-opacity:0; fill:none" points="322.094,535.946 331.543,535.946 "/>
<polyline clip-path="url(#clip340)" style="stroke:#222255; stroke-linecap:round; stroke-linejoin:round; stroke-width:4; stroke-opacity:0; fill:none" points="322.094,446.272 331.543,446.272 "/>
<polyline clip-path="url(#clip340)" style="stroke:#222255; stroke-linecap:round; stroke-linejoin:round; stroke-width:4; stroke-opacity:0; fill:none" points="322.094,356.599 331.543,356.599 "/>
<polyline clip-path="url(#clip340)" style="stroke:#222255; stroke-linecap:round; stroke-linejoin:round; stroke-width:4; stroke-opacity:0; fill:none" points="322.094,266.926 331.543,266.926 "/>
<path clip-path="url(#clip340)" d="M228.034 1953.44 L246.391 1953.44 L246.391 1957.37 L232.317 1957.37 L232.317 1965.85 Q233.335 1965.5 234.354 1965.34 Q235.372 1965.15 236.391 1965.15 Q242.178 1965.15 245.557 1968.32 Q248.937 1971.49 248.937 1976.91 Q248.937 1982.49 245.465 1985.59 Q241.993 1988.67 235.673 1988.67 Q233.497 1988.67 231.229 1988.3 Q228.983 1987.93 226.576 1987.19 L226.576 1982.49 Q228.659 1983.62 230.882 1984.18 Q233.104 1984.73 235.581 1984.73 Q239.585 1984.73 241.923 1982.63 Q244.261 1980.52 244.261 1976.91 Q244.261 1973.3 241.923 1971.19 Q239.585 1969.09 235.581 1969.09 Q233.706 1969.09 231.831 1969.5 Q229.979 1969.92 228.034 1970.8 L228.034 1953.44 Z" fill="#000000" fill-rule="nonzero" fill-opacity="1" /><path clip-path="url(#clip340)" d="M268.15 1956.52 Q264.539 1956.52 262.71 1960.08 Q260.905 1963.62 260.905 1970.75 Q260.905 1977.86 262.71 1981.42 Q264.539 1984.97 268.15 1984.97 Q271.784 1984.97 273.59 1981.42 Q275.418 1977.86 275.418 1970.75 Q275.418 1963.62 273.59 1960.08 Q271.784 1956.52 268.15 1956.52 M268.15 1952.81 Q273.96 1952.81 277.016 1957.42 Q280.094 1962 280.094 1970.75 Q280.094 1979.48 277.016 1984.09 Q273.96 1988.67 268.15 1988.67 Q262.34 1988.67 259.261 1984.09 Q256.206 1979.48 256.206 1970.75 Q256.206 1962 259.261 1957.42 Q262.34 1952.81 268.15 1952.81 Z" fill="#000000" fill-rule="nonzero" fill-opacity="1" /><path clip-path="url(#clip340)" d="M198.636 1535.7 L206.275 1535.7 L206.275 1509.33 L197.965 1511 L197.965 1506.74 L206.229 1505.07 L210.905 1505.07 L210.905 1535.7 L218.544 1535.7 L218.544 1539.63 L198.636 1539.63 L198.636 1535.7 Z" fill="#000000" fill-rule="nonzero" fill-opacity="1" /><path clip-path="url(#clip340)" d="M237.988 1508.15 Q234.377 1508.15 232.548 1511.72 Q230.743 1515.26 230.743 1522.39 Q230.743 1529.49 232.548 1533.06 Q234.377 1536.6 237.988 1536.6 Q241.622 1536.6 243.428 1533.06 Q245.257 1529.49 245.257 1522.39 Q245.257 1515.26 243.428 1511.72 Q241.622 1508.15 237.988 1508.15 M237.988 1504.45 Q243.798 1504.45 246.854 1509.05 Q249.932 1513.64 249.932 1522.39 Q249.932 1531.11 246.854 1535.72 Q243.798 1540.3 237.988 1540.3 Q232.178 1540.3 229.099 1535.72 Q226.044 1531.11 226.044 1522.39 Q226.044 1513.64 229.099 1509.05 Q232.178 1504.45 237.988 1504.45 Z" fill="#000000" fill-rule="nonzero" fill-opacity="1" /><path clip-path="url(#clip340)" d="M268.15 1508.15 Q264.539 1508.15 262.71 1511.72 Q260.905 1515.26 260.905 1522.39 Q260.905 1529.49 262.71 1533.06 Q264.539 1536.6 268.15 1536.6 Q271.784 1536.6 273.59 1533.06 Q275.418 1529.49 275.418 1522.39 Q275.418 1515.26 273.59 1511.72 Q271.784 1508.15 268.15 1508.15 M268.15 1504.45 Q273.96 1504.45 277.016 1509.05 Q280.094 1513.64 280.094 1522.39 Q280.094 1531.11 277.016 1535.72 Q273.96 1540.3 268.15 1540.3 Q262.34 1540.3 259.261 1535.72 Q256.206 1531.11 256.206 1522.39 Q256.206 1513.64 259.261 1509.05 Q262.34 1504.45 268.15 1504.45 Z" fill="#000000" fill-rule="nonzero" fill-opacity="1" /><path clip-path="url(#clip340)" d="M198.636 1087.33 L206.275 1087.33 L206.275 1060.96 L197.965 1062.63 L197.965 1058.37 L206.229 1056.71 L210.905 1056.71 L210.905 1087.33 L218.544 1087.33 L218.544 1091.27 L198.636 1091.27 L198.636 1087.33 Z" fill="#000000" fill-rule="nonzero" fill-opacity="1" /><path clip-path="url(#clip340)" d="M228.034 1056.71 L246.391 1056.71 L246.391 1060.64 L232.317 1060.64 L232.317 1069.11 Q233.335 1068.77 234.354 1068.6 Q235.372 1068.42 236.391 1068.42 Q242.178 1068.42 245.557 1071.59 Q248.937 1074.76 248.937 1080.18 Q248.937 1085.76 245.465 1088.86 Q241.993 1091.94 235.673 1091.94 Q233.497 1091.94 231.229 1091.57 Q228.983 1091.2 226.576 1090.46 L226.576 1085.76 Q228.659 1086.89 230.882 1087.45 Q233.104 1088 235.581 1088 Q239.585 1088 241.923 1085.9 Q244.261 1083.79 244.261 1080.18 Q244.261 1076.57 241.923 1074.46 Q239.585 1072.35 235.581 1072.35 Q233.706 1072.35 231.831 1072.77 Q229.979 1073.19 228.034 1074.07 L228.034 1056.71 Z" fill="#000000" fill-rule="nonzero" fill-opacity="1" /><path clip-path="url(#clip340)" d="M268.15 1059.78 Q264.539 1059.78 262.71 1063.35 Q260.905 1066.89 260.905 1074.02 Q260.905 1081.13 262.71 1084.69 Q264.539 1088.23 268.15 1088.23 Q271.784 1088.23 273.59 1084.69 Q275.418 1081.13 275.418 1074.02 Q275.418 1066.89 273.59 1063.35 Q271.784 1059.78 268.15 1059.78 M268.15 1056.08 Q273.96 1056.08 277.016 1060.69 Q280.094 1065.27 280.094 1074.02 Q280.094 1082.75 277.016 1087.35 Q273.96 1091.94 268.15 1091.94 Q262.34 1091.94 259.261 1087.35 Q256.206 1082.75 256.206 1074.02 Q256.206 1065.27 259.261 1060.69 Q262.34 1056.08 268.15 1056.08 Z" fill="#000000" fill-rule="nonzero" fill-opacity="1" /><path clip-path="url(#clip340)" d="M201.854 638.964 L218.173 638.964 L218.173 642.899 L196.229 642.899 L196.229 638.964 Q198.891 636.209 203.474 631.58 Q208.081 626.927 209.261 625.584 Q211.507 623.061 212.386 621.325 Q213.289 619.566 213.289 617.876 Q213.289 615.121 211.345 613.385 Q209.423 611.649 206.322 611.649 Q204.123 611.649 201.669 612.413 Q199.238 613.177 196.461 614.728 L196.461 610.006 Q199.285 608.871 201.738 608.293 Q204.192 607.714 206.229 607.714 Q211.599 607.714 214.794 610.399 Q217.988 613.084 217.988 617.575 Q217.988 619.705 217.178 621.626 Q216.391 623.524 214.284 626.117 Q213.706 626.788 210.604 630.006 Q207.502 633.2 201.854 638.964 Z" fill="#000000" fill-rule="nonzero" fill-opacity="1" /><path clip-path="url(#clip340)" d="M237.988 611.418 Q234.377 611.418 232.548 614.982 Q230.743 618.524 230.743 625.654 Q230.743 632.76 232.548 636.325 Q234.377 639.867 237.988 639.867 Q241.622 639.867 243.428 636.325 Q245.257 632.76 245.257 625.654 Q245.257 618.524 243.428 614.982 Q241.622 611.418 237.988 611.418 M237.988 607.714 Q243.798 607.714 246.854 612.32 Q249.932 616.904 249.932 625.654 Q249.932 634.38 246.854 638.987 Q243.798 643.57 237.988 643.57 Q232.178 643.57 229.099 638.987 Q226.044 634.38 226.044 625.654 Q226.044 616.904 229.099 612.32 Q232.178 607.714 237.988 607.714 Z" fill="#000000" fill-rule="nonzero" fill-opacity="1" /><path clip-path="url(#clip340)" d="M268.15 611.418 Q264.539 611.418 262.71 614.982 Q260.905 618.524 260.905 625.654 Q260.905 632.76 262.71 636.325 Q264.539 639.867 268.15 639.867 Q271.784 639.867 273.59 636.325 Q275.418 632.76 275.418 625.654 Q275.418 618.524 273.59 614.982 Q271.784 611.418 268.15 611.418 M268.15 607.714 Q273.96 607.714 277.016 612.32 Q280.094 616.904 280.094 625.654 Q280.094 634.38 277.016 638.987 Q273.96 643.57 268.15 643.57 Q262.34 643.57 259.261 638.987 Q256.206 634.38 256.206 625.654 Q256.206 616.904 259.261 612.32 Q262.34 607.714 268.15 607.714 Z" fill="#000000" fill-rule="nonzero" fill-opacity="1" /><path clip-path="url(#clip340)" d="M201.854 190.597 L218.173 190.597 L218.173 194.532 L196.229 194.532 L196.229 190.597 Q198.891 187.843 203.474 183.213 Q208.081 178.56 209.261 177.218 Q211.507 174.695 212.386 172.959 Q213.289 171.199 213.289 169.509 Q213.289 166.755 211.345 165.019 Q209.423 163.283 206.322 163.283 Q204.123 163.283 201.669 164.047 Q199.238 164.81 196.461 166.361 L196.461 161.639 Q199.285 160.505 201.738 159.926 Q204.192 159.347 206.229 159.347 Q211.599 159.347 214.794 162.033 Q217.988 164.718 217.988 169.209 Q217.988 171.338 217.178 173.259 Q216.391 175.158 214.284 177.75 Q213.706 178.421 210.604 181.639 Q207.502 184.833 201.854 190.597 Z" fill="#000000" fill-rule="nonzero" fill-opacity="1" /><path clip-path="url(#clip340)" d="M228.034 159.972 L246.391 159.972 L246.391 163.908 L232.317 163.908 L232.317 172.38 Q233.335 172.033 234.354 171.871 Q235.372 171.685 236.391 171.685 Q242.178 171.685 245.557 174.857 Q248.937 178.028 248.937 183.445 Q248.937 189.023 245.465 192.125 Q241.993 195.204 235.673 195.204 Q233.497 195.204 231.229 194.833 Q228.983 194.463 226.576 193.722 L226.576 189.023 Q228.659 190.158 230.882 190.713 Q233.104 191.269 235.581 191.269 Q239.585 191.269 241.923 189.162 Q244.261 187.056 244.261 183.445 Q244.261 179.833 241.923 177.727 Q239.585 175.621 235.581 175.621 Q233.706 175.621 231.831 176.037 Q229.979 176.454 228.034 177.333 L228.034 159.972 Z" fill="#000000" fill-rule="nonzero" fill-opacity="1" /><path clip-path="url(#clip340)" d="M268.15 163.051 Q264.539 163.051 262.71 166.616 Q260.905 170.158 260.905 177.287 Q260.905 184.394 262.71 187.958 Q264.539 191.5 268.15 191.5 Q271.784 191.5 273.59 187.958 Q275.418 184.394 275.418 177.287 Q275.418 170.158 273.59 166.616 Q271.784 163.051 268.15 163.051 M268.15 159.347 Q273.96 159.347 277.016 163.954 Q280.094 168.537 280.094 177.287 Q280.094 186.014 277.016 190.62 Q273.96 195.204 268.15 195.204 Q262.34 195.204 259.261 190.62 Q256.206 186.014 256.206 177.287 Q256.206 168.537 259.261 163.954 Q262.34 159.347 268.15 159.347 Z" fill="#000000" fill-rule="nonzero" fill-opacity="1" /><path clip-path="url(#clip340)" d="M27.3105 1143.32 Q17.1657 1143.32 10.177 1136.84 Q3.15611 1130.34 3.15611 1121.35 Q3.15611 1112.46 10.1448 1105.92 Q17.1335 1099.39 27.3105 1099.39 Q37.4554 1099.39 44.283 1105.92 Q51.1106 1112.46 51.1106 1121.38 Q51.1106 1130.27 44.2508 1136.81 Q37.3909 1143.32 27.3105 1143.32 M27.3105 1136.87 Q33.3008 1136.87 37.8418 1135.36 Q42.3506 1133.81 44.7983 1131.4 Q47.2137 1128.95 48.3731 1126.41 Q49.5326 1123.86 49.5326 1121.35 Q49.5326 1119.39 48.8884 1117.39 Q48.2121 1115.36 46.5696 1113.23 Q44.9271 1111.08 42.4473 1109.47 Q39.9674 1107.86 36.0383 1106.83 Q32.1092 1105.8 27.2461 1105.8 Q21.1914 1105.8 16.586 1107.31 Q11.9483 1108.82 9.46846 1111.27 Q6.98861 1113.72 5.79699 1116.29 Q4.60538 1118.87 4.60538 1121.35 Q4.60538 1123.32 5.31391 1125.34 Q5.99023 1127.37 7.69714 1129.5 Q9.37185 1131.59 11.8839 1133.2 Q14.3638 1134.81 18.3573 1135.84 Q22.3508 1136.87 27.3105 1136.87 M31.8515 1133.17 L22.2864 1133.17 L22.2864 1131.53 L24.6052 1131.53 L24.6052 1111.21 L22.2864 1111.21 L22.2864 1109.5 L31.8515 1109.5 L31.8515 1111.21 L29.5971 1111.21 L29.5971 1131.53 L31.8515 1131.53 L31.8515 1133.17 Z" fill="#000000" fill-rule="nonzero" fill-opacity="1" /><path clip-path="url(#clip340)" d="M50.5798 1057.5 Q54.2996 1057.5 57.9517 1059.1 Q61.5813 1060.68 64.3317 1063.25 Q67.0596 1065.8 68.7504 1069.24 Q70.4412 1072.69 70.4412 1076.21 L70.4412 1091.5 Q70.4412 1092.04 70.4186 1092.26 Q70.3961 1092.46 70.2834 1092.62 Q70.1481 1092.78 69.8776 1092.78 Q69.4492 1092.78 69.2689 1092.6 Q69.066 1092.42 69.0434 1092.22 Q69.0209 1092.01 69.0209 1091.5 Q69.0209 1090.37 68.9533 1089.69 Q68.8856 1089.02 68.7954 1088.59 Q68.6827 1088.14 68.3671 1087.91 Q68.0515 1087.66 67.781 1087.55 Q67.4879 1087.44 66.8341 1087.28 L42.0356 1081.1 Q41.2916 1080.92 41.1789 1080.92 Q40.7957 1080.92 40.6604 1081.15 Q40.5026 1081.35 40.435 1081.94 Q40.3448 1083.06 40.3448 1083.92 Q40.3448 1084.48 40.3222 1084.71 Q40.2997 1084.91 40.187 1085.09 Q40.0517 1085.25 39.7812 1085.25 Q39.3529 1085.25 39.1725 1085.07 Q38.9696 1084.87 38.9471 1084.64 Q38.902 1084.42 38.902 1083.88 L38.902 1068.37 Q38.902 1065.01 40.4801 1062.5 Q42.0356 1060 44.6733 1058.76 Q47.2884 1057.5 50.5798 1057.5 M48.889 1061.53 Q44.5831 1061.53 42.4639 1063.88 Q40.3448 1066.2 40.3448 1069.88 L40.3448 1074.81 Q40.3448 1076.28 40.6153 1076.64 Q40.8633 1077 42.1032 1077.32 L67.4428 1083.65 Q68.2769 1083.88 68.5024 1083.88 Q68.7504 1083.88 68.8405 1083.76 Q68.9082 1083.63 68.9533 1083.27 Q69.0209 1082.86 69.0209 1082.25 L69.0209 1077.04 Q69.0209 1075.04 68.4798 1073.21 Q67.9162 1071.36 67.037 1070.03 Q66.1352 1068.7 65.3687 1067.85 Q64.5797 1066.99 63.7907 1066.38 Q62.0097 1065.01 59.6876 1063.99 Q57.3656 1062.95 55.2464 1062.48 Q53.1048 1061.99 51.5267 1061.76 Q49.926 1061.53 48.889 1061.53 Z" fill="#000000" fill-rule="nonzero" fill-opacity="1" /><path clip-path="url(#clip340)" d="M40.2997 1021.05 L48.2803 1021.98 Q49.0017 1022.04 49.2272 1022.16 Q49.4301 1022.27 49.4301 1022.63 Q49.4301 1023.17 48.889 1023.17 Q48.6636 1023.17 48.0549 1023.08 Q46.8149 1022.95 45.5525 1022.95 Q44.1322 1022.95 43.253 1023.22 Q42.3512 1023.46 41.6974 1024.19 Q41.0437 1024.91 40.7731 1026.24 Q40.4801 1027.57 40.4801 1029.69 L40.4801 1035.77 Q40.4801 1037.26 40.7506 1037.62 Q41.0211 1037.96 42.2836 1038.28 L54.0065 1041.23 L54.0065 1037.04 Q54.0065 1034.11 53.1498 1032.96 Q52.2932 1031.81 49.5653 1031.08 Q49.137 1030.97 48.9792 1030.93 Q48.7988 1030.86 48.7087 1030.75 Q48.5959 1030.61 48.5959 1030.39 Q48.5959 1030.18 48.7312 1030.05 Q48.8439 1029.91 48.9792 1029.87 L49.1144 1029.82 Q49.3399 1029.82 49.8584 1029.96 L59.868 1032.5 Q60.5443 1032.69 60.7021 1032.8 Q60.8374 1032.89 60.8374 1033.2 Q60.8374 1033.43 60.6796 1033.59 Q60.5218 1033.74 60.2738 1033.74 Q60.0032 1033.7 59.7778 1033.61 Q58.4026 1033.29 57.5234 1033.29 Q56.9598 1033.29 56.6216 1033.41 Q56.2835 1033.52 55.9904 1033.9 Q55.6973 1034.29 55.5621 1035.07 Q55.4268 1035.86 55.4268 1037.13 L55.4268 1041.59 L66.9243 1044.45 L67.9839 1044.66 Q68.4573 1044.66 68.6376 1044.41 Q68.818 1044.14 68.9082 1043.17 Q69.0209 1041.73 69.0209 1040.78 Q69.0209 1039.61 69.066 1039.47 Q69.2012 1039.2 69.5619 1039.2 Q69.9677 1039.2 70.1932 1039.38 Q70.3961 1039.56 70.4186 1039.72 Q70.4412 1039.88 70.4412 1040.17 L70.3059 1047.05 L70.4412 1053.13 Q70.4412 1053.83 69.8776 1053.83 Q69.4492 1053.83 69.2689 1053.65 Q69.066 1053.47 69.0434 1053.27 Q69.0209 1053.07 69.0209 1052.55 Q69.0209 1051.42 68.9533 1050.74 Q68.8856 1050.07 68.7954 1049.64 Q68.6827 1049.19 68.3671 1048.96 Q68.0515 1048.71 67.781 1048.6 Q67.4879 1048.49 66.8341 1048.33 L42.4188 1042.24 Q41.5847 1042.02 41.3142 1042.02 Q41.0211 1042.02 40.8408 1042.22 Q40.6604 1042.4 40.5928 1042.9 Q40.5026 1043.39 40.5026 1043.8 Q40.4801 1044.18 40.4801 1045.02 Q40.4801 1045.56 40.4575 1045.78 Q40.435 1045.99 40.3222 1046.14 Q40.2095 1046.3 39.9615 1046.3 Q39.3303 1046.3 39.195 1046.03 Q39.0372 1045.74 39.0372 1044.93 L39.0372 1022.29 Q39.0372 1021.39 39.2401 1021.19 Q39.4205 1020.96 40.2997 1021.05 Z" fill="#000000" fill-rule="nonzero" fill-opacity="1" /><path clip-path="url(#clip340)" d="M38.3609 990.963 L48.4607 993.465 Q49.0694 993.601 49.2272 993.713 Q49.385 993.826 49.385 994.142 Q49.385 994.39 49.2723 994.548 Q49.1595 994.683 49.0468 994.683 L48.9341 994.705 Q48.8665 994.705 48.5283 994.66 Q48.1676 994.615 47.5814 994.57 Q46.9953 994.525 46.3415 994.525 Q42.6443 994.525 40.9309 996.328 Q39.195 998.109 39.195 1001.18 Q39.195 1003.29 40.3222 1005.19 Q41.4495 1007.08 43.2304 1008.16 Q44.9889 1009.25 46.8375 1009.25 Q48.5283 1009.25 49.6104 1008.39 Q50.6925 1007.53 51.0532 1006.43 L51.8874 1003.34 Q52.7215 1000.09 53.0822 999.169 Q53.4204 998.245 54.1869 997.478 Q56.306 995.201 59.5975 995.201 Q62.438 995.201 65.1884 996.802 Q67.9162 998.403 69.6972 1001.15 Q71.4557 1003.9 71.4557 1006.95 Q71.4557 1012.29 68.1417 1014.75 L70.7568 1017 Q71.2528 1017.43 71.3429 1017.57 Q71.4557 1017.68 71.4557 1017.84 Q71.4557 1018.04 71.3204 1018.2 Q71.2077 1018.35 71.0048 1018.35 Q70.847 1018.35 65.5491 1017.02 Q60.2512 1015.69 60.1385 1015.58 Q59.9582 1015.4 59.9582 1015.11 Q59.9582 1014.57 60.4767 1014.57 Q60.6119 1014.61 60.7923 1014.66 Q62.4155 1014.93 63.2947 1014.93 Q64.9404 1014.93 66.2029 1014.36 Q67.4428 1013.8 68.1642 1012.97 Q68.8631 1012.11 69.314 1010.96 Q69.7423 1009.81 69.9001 1008.84 Q70.0354 1007.87 70.0354 1006.86 Q70.0354 1004.67 68.7729 1002.73 Q67.5104 1000.77 65.5491 999.665 Q63.5878 998.538 61.5362 998.538 Q60.4541 998.538 59.62 998.831 Q58.7633 999.124 58.2899 999.53 Q57.8165 999.913 57.4558 1000.57 Q57.0951 1001.22 56.9598 1001.67 Q56.802 1002.1 56.6442 1002.78 L55.3366 1007.71 Q54.7505 1009.7 53.0597 1011.12 Q51.3689 1012.52 48.7763 1012.52 Q46.0485 1012.52 43.5235 1010.91 Q40.976 1009.29 39.443 1006.65 Q37.8875 1003.99 37.8875 1001.13 Q37.8875 998.876 38.7667 997.14 Q39.6234 995.404 41.224 994.525 L38.5864 992.293 Q38.0678 991.842 37.9777 991.752 Q37.8875 991.639 37.8875 991.482 Q37.8875 991.211 38.0453 991.098 Q38.2031 990.963 38.3609 990.963 Z" fill="#000000" fill-rule="nonzero" fill-opacity="1" /><path clip-path="url(#clip340)" d="M89.0492 1143.32 L89.0492 976.257 L85.5292 976.257 L85.5292 1143.32  Z" fill="#000000" fill-rule="evenodd" fill-opacity="1"/>
<path clip-path="url(#clip340)" d="M126.825 1142.15 Q116.68 1142.15 109.692 1135.68 Q102.671 1129.17 102.671 1120.18 Q102.671 1111.3 109.66 1104.76 Q116.648 1098.22 126.825 1098.22 Q136.97 1098.22 143.798 1104.76 Q150.625 1111.3 150.625 1120.22 Q150.625 1129.11 143.766 1135.64 Q136.906 1142.15 126.825 1142.15 M126.825 1135.71 Q132.816 1135.71 137.357 1134.19 Q141.865 1132.65 144.313 1130.23 Q146.728 1127.78 147.888 1125.24 Q149.047 1122.7 149.047 1120.18 Q149.047 1118.22 148.403 1116.22 Q147.727 1114.19 146.084 1112.07 Q144.442 1109.91 141.962 1108.3 Q139.482 1106.69 135.553 1105.66 Q131.624 1104.63 126.761 1104.63 Q120.706 1104.63 116.101 1106.14 Q111.463 1107.66 108.983 1110.1 Q106.503 1112.55 105.312 1115.13 Q104.12 1117.7 104.12 1120.18 Q104.12 1122.15 104.829 1124.18 Q105.505 1126.21 107.212 1128.33 Q108.887 1130.43 111.399 1132.04 Q113.878 1133.65 117.872 1134.68 Q121.866 1135.71 126.825 1135.71 M131.366 1132 L121.801 1132 L121.801 1130.36 L124.12 1130.36 L124.12 1110.04 L121.801 1110.04 L121.801 1108.33 L131.366 1108.33 L131.366 1110.04 L129.112 1110.04 L129.112 1130.36 L131.366 1130.36 L131.366 1132 Z" fill="#000000" fill-rule="nonzero" fill-opacity="1" /><path clip-path="url(#clip340)" d="M144.797 1058.65 Q146.893 1058.65 148.787 1060.1 Q150.658 1061.52 151.853 1063.68 Q153.025 1065.85 153.476 1068.3 Q153.859 1064.99 155.663 1063.07 Q157.466 1061.13 159.991 1061.13 Q161.682 1061.13 163.463 1062.13 Q165.222 1063.1 166.664 1064.76 Q168.107 1066.41 169.032 1068.84 Q169.956 1071.26 169.956 1073.89 L169.956 1090.37 Q169.956 1090.89 169.933 1091.1 Q169.911 1091.3 169.798 1091.46 Q169.685 1091.61 169.437 1091.61 Q168.987 1091.61 168.784 1091.46 Q168.581 1091.28 168.558 1091.07 Q168.536 1090.87 168.536 1090.37 Q168.536 1089.25 168.468 1088.57 Q168.4 1087.89 168.31 1087.47 Q168.197 1087.01 167.882 1086.79 Q167.566 1086.54 167.296 1086.43 Q167.003 1086.32 166.349 1086.16 L141.55 1079.98 Q140.806 1079.8 140.694 1079.8 Q140.265 1079.8 140.153 1080.07 Q140.017 1080.32 139.95 1081.04 L139.86 1082.8 Q139.86 1083.34 139.837 1083.57 Q139.814 1083.77 139.702 1083.93 Q139.589 1084.08 139.341 1084.08 Q138.71 1084.08 138.575 1083.81 Q138.417 1083.52 138.417 1082.75 L138.417 1067.24 Q138.417 1063.25 140.265 1060.95 Q142.091 1058.65 144.797 1058.65 M144.616 1062.85 Q143.76 1062.85 142.993 1063.07 Q142.227 1063.3 141.483 1063.84 Q140.739 1064.36 140.31 1065.39 Q139.86 1066.43 139.86 1067.87 L139.86 1073.85 Q139.86 1075.31 140.13 1075.67 Q140.378 1076.01 141.618 1076.33 L153.048 1079.19 L153.048 1072.45 Q153.048 1070.4 152.304 1068.6 Q151.56 1066.77 150.365 1065.53 Q149.148 1064.29 147.637 1063.57 Q146.127 1062.85 144.616 1062.85 M159.473 1065.44 Q158.797 1065.44 158.143 1065.55 Q157.489 1065.67 156.723 1066.03 Q155.956 1066.39 155.392 1066.95 Q154.829 1067.51 154.446 1068.51 Q154.062 1069.48 154.062 1070.74 L154.062 1079.46 L166.958 1082.66 Q167.792 1082.89 168.017 1082.89 Q168.265 1082.89 168.355 1082.78 Q168.423 1082.64 168.468 1082.28 Q168.536 1081.87 168.536 1081.27 L168.536 1075 Q168.536 1073.01 167.769 1071.21 Q166.98 1069.41 165.718 1068.17 Q164.455 1066.91 162.809 1066.18 Q161.164 1065.44 159.473 1065.44 Z" fill="#000000" fill-rule="nonzero" fill-opacity="1" /><path clip-path="url(#clip340)" d="M139.814 1021.74 L147.795 1022.66 Q148.516 1022.73 148.742 1022.84 Q148.945 1022.96 148.945 1023.32 Q148.945 1023.86 148.404 1023.86 Q148.178 1023.86 147.57 1023.77 Q146.33 1023.63 145.067 1023.63 Q143.647 1023.63 142.768 1023.9 Q141.866 1024.15 141.212 1024.87 Q140.558 1025.59 140.288 1026.93 Q139.995 1028.26 139.995 1030.37 L139.995 1036.46 Q139.995 1037.95 140.265 1038.31 Q140.536 1038.65 141.798 1038.96 L153.521 1041.92 L153.521 1037.72 Q153.521 1034.79 152.665 1033.64 Q151.808 1032.49 149.08 1031.77 Q148.652 1031.66 148.494 1031.61 Q148.314 1031.55 148.223 1031.43 Q148.111 1031.3 148.111 1031.07 Q148.111 1030.87 148.246 1030.73 Q148.359 1030.6 148.494 1030.55 L148.629 1030.51 Q148.855 1030.51 149.373 1030.64 L159.383 1033.19 Q160.059 1033.37 160.217 1033.49 Q160.352 1033.58 160.352 1033.89 Q160.352 1034.12 160.194 1034.27 Q160.037 1034.43 159.789 1034.43 Q159.518 1034.39 159.293 1034.3 Q157.917 1033.98 157.038 1033.98 Q156.475 1033.98 156.136 1034.09 Q155.798 1034.21 155.505 1034.59 Q155.212 1034.97 155.077 1035.76 Q154.942 1036.55 154.942 1037.81 L154.942 1042.28 L166.439 1045.14 L167.499 1045.34 Q167.972 1045.34 168.152 1045.1 Q168.333 1044.83 168.423 1043.86 Q168.536 1042.41 168.536 1041.47 Q168.536 1040.29 168.581 1040.16 Q168.716 1039.89 169.077 1039.89 Q169.482 1039.89 169.708 1040.07 Q169.911 1040.25 169.933 1040.41 Q169.956 1040.56 169.956 1040.86 L169.821 1047.73 L169.956 1053.82 Q169.956 1054.52 169.392 1054.52 Q168.964 1054.52 168.784 1054.34 Q168.581 1054.16 168.558 1053.96 Q168.536 1053.75 168.536 1053.23 Q168.536 1052.11 168.468 1051.43 Q168.4 1050.75 168.31 1050.33 Q168.197 1049.87 167.882 1049.65 Q167.566 1049.4 167.296 1049.29 Q167.003 1049.18 166.349 1049.02 L141.934 1042.93 Q141.099 1042.71 140.829 1042.71 Q140.536 1042.71 140.356 1042.91 Q140.175 1043.09 140.108 1043.59 Q140.017 1044.08 140.017 1044.49 Q139.995 1044.87 139.995 1045.7 Q139.995 1046.25 139.972 1046.47 Q139.95 1046.67 139.837 1046.83 Q139.724 1046.99 139.476 1046.99 Q138.845 1046.99 138.71 1046.72 Q138.552 1046.43 138.552 1045.61 L138.552 1022.98 Q138.552 1022.08 138.755 1021.88 Q138.935 1021.65 139.814 1021.74 Z" fill="#000000" fill-rule="nonzero" fill-opacity="1" /><path clip-path="url(#clip340)" d="M137.876 991.65 L147.975 994.153 Q148.584 994.288 148.742 994.401 Q148.9 994.514 148.9 994.829 Q148.9 995.077 148.787 995.235 Q148.674 995.37 148.562 995.37 L148.449 995.393 Q148.381 995.393 148.043 995.348 Q147.682 995.303 147.096 995.258 Q146.51 995.212 145.856 995.212 Q142.159 995.212 140.446 997.016 Q138.71 998.797 138.71 1001.86 Q138.71 1003.98 139.837 1005.88 Q140.964 1007.77 142.745 1008.85 Q144.504 1009.93 146.352 1009.93 Q148.043 1009.93 149.125 1009.08 Q150.207 1008.22 150.568 1007.12 L151.402 1004.03 Q152.236 1000.78 152.597 999.857 Q152.935 998.932 153.702 998.166 Q155.821 995.889 159.112 995.889 Q161.953 995.889 164.703 997.489 Q167.431 999.09 169.212 1001.84 Q170.97 1004.59 170.97 1007.63 Q170.97 1012.98 167.656 1015.43 L170.272 1017.69 Q170.767 1018.12 170.858 1018.25 Q170.97 1018.37 170.97 1018.52 Q170.97 1018.73 170.835 1018.88 Q170.722 1019.04 170.52 1019.04 Q170.362 1019.04 165.064 1017.71 Q159.766 1016.38 159.653 1016.27 Q159.473 1016.09 159.473 1015.8 Q159.473 1015.25 159.991 1015.25 Q160.127 1015.3 160.307 1015.34 Q161.93 1015.61 162.809 1015.61 Q164.455 1015.61 165.718 1015.05 Q166.958 1014.49 167.679 1013.65 Q168.378 1012.8 168.829 1011.65 Q169.257 1010.5 169.415 1009.53 Q169.55 1008.56 169.55 1007.54 Q169.55 1005.36 168.288 1003.42 Q167.025 1001.46 165.064 1000.35 Q163.103 999.225 161.051 999.225 Q159.969 999.225 159.135 999.518 Q158.278 999.811 157.805 1000.22 Q157.331 1000.6 156.971 1001.25 Q156.61 1001.91 156.475 1002.36 Q156.317 1002.79 156.159 1003.46 L154.851 1008.4 Q154.265 1010.38 152.574 1011.8 Q150.884 1013.2 148.291 1013.2 Q145.563 1013.2 143.038 1011.6 Q140.491 1009.98 138.958 1007.34 Q137.402 1004.68 137.402 1001.82 Q137.402 999.563 138.281 997.828 Q139.138 996.092 140.739 995.212 L138.101 992.981 Q137.583 992.53 137.492 992.44 Q137.402 992.327 137.402 992.169 Q137.402 991.898 137.56 991.786 Q137.718 991.65 137.876 991.65 Z" fill="#000000" fill-rule="nonzero" fill-opacity="1" /><path clip-path="url(#clip340)" d="M345.532 34.2568 Q350.566 35.3331 353.379 38.7359 Q356.226 42.1387 356.226 47.1386 Q356.226 54.8122 350.948 59.0136 Q345.671 63.2149 335.948 63.2149 Q332.685 63.2149 329.212 62.5552 Q325.775 61.9302 322.094 60.6455 L322.094 53.8747 Q325.011 55.5761 328.483 56.4441 Q331.955 57.3122 335.74 57.3122 Q342.337 57.3122 345.775 54.708 Q349.247 52.1039 349.247 47.1386 Q349.247 42.5553 346.018 39.9859 Q342.823 37.3817 337.094 37.3817 L331.053 37.3817 L331.053 31.6179 L337.372 31.6179 Q342.546 31.6179 345.289 29.5693 Q348.032 27.486 348.032 23.5971 Q348.032 19.6041 345.184 17.486 Q342.372 15.3333 337.094 15.3333 Q334.212 15.3333 330.914 15.9582 Q327.615 16.5832 323.657 17.9027 L323.657 11.6527 Q327.65 10.5416 331.122 9.98606 Q334.629 9.43051 337.719 9.43051 Q345.705 9.43051 350.358 13.0763 Q355.011 16.6874 355.011 22.8679 Q355.011 27.1735 352.546 30.1596 Q350.08 33.1109 345.532 34.2568 Z" fill="#000000" fill-rule="nonzero" fill-opacity="1" /><path clip-path="url(#clip340)" d="M369.525 53.3886 L376.851 53.3886 L376.851 62.208 L369.525 62.208 L369.525 53.3886 Z" fill="#000000" fill-rule="nonzero" fill-opacity="1" /><path clip-path="url(#clip340)" d="M398.17 56.3053 L422.649 56.3053 L422.649 62.208 L389.733 62.208 L389.733 56.3053 Q393.726 52.1733 400.601 45.2289 Q407.511 38.2498 409.281 36.2359 Q412.649 32.4512 413.969 29.8471 Q415.323 27.2082 415.323 24.6735 Q415.323 20.5416 412.406 17.9374 Q409.524 15.3333 404.872 15.3333 Q401.573 15.3333 397.893 16.4791 Q394.247 17.6249 390.08 19.9513 L390.08 12.868 Q394.316 11.1666 397.997 10.2986 Q401.677 9.43051 404.733 9.43051 Q412.788 9.43051 417.58 13.4583 Q422.372 17.486 422.372 24.2221 Q422.372 27.4165 421.156 30.2984 Q419.976 33.1457 416.816 37.0345 Q415.948 38.0415 411.295 42.8678 Q406.642 47.6595 398.17 56.3053 Z" fill="#000000" fill-rule="nonzero" fill-opacity="1" /><path clip-path="url(#clip340)" d="M437.371 53.3886 L444.698 53.3886 L444.698 62.208 L437.371 62.208 L437.371 53.3886 Z" fill="#000000" fill-rule="nonzero" fill-opacity="1" /><path clip-path="url(#clip340)" d="M466.017 56.3053 L490.496 56.3053 L490.496 62.208 L457.58 62.208 L457.58 56.3053 Q461.573 52.1733 468.448 45.2289 Q475.357 38.2498 477.128 36.2359 Q480.496 32.4512 481.816 29.8471 Q483.17 27.2082 483.17 24.6735 Q483.17 20.5416 480.253 17.9374 Q477.371 15.3333 472.719 15.3333 Q469.42 15.3333 465.739 16.4791 Q462.094 17.6249 457.927 19.9513 L457.927 12.868 Q462.163 11.1666 465.844 10.2986 Q469.524 9.43051 472.58 9.43051 Q480.635 9.43051 485.427 13.4583 Q490.218 17.486 490.218 24.2221 Q490.218 27.4165 489.003 30.2984 Q487.823 33.1457 484.663 37.0345 Q483.795 38.0415 479.142 42.8678 Q474.489 47.6595 466.017 56.3053 Z" fill="#000000" fill-rule="nonzero" fill-opacity="1" /><path clip-path="url(#clip340)" d="M527.197 10.368 L559.975 10.368 L559.975 16.2707 L534.211 16.2707 L534.211 31.6179 L558.899 31.6179 L558.899 37.5206 L534.211 37.5206 L534.211 56.3053 L560.6 56.3053 L560.6 62.208 L527.197 62.208 L527.197 10.368 Z" fill="#000000" fill-rule="nonzero" fill-opacity="1" /><path clip-path="url(#clip340)" d="M594.385 29.2915 Q593.308 28.6665 592.023 28.3887 Q590.773 28.0762 589.246 28.0762 Q583.829 28.0762 580.912 31.6179 Q578.03 35.1248 578.03 41.722 L578.03 62.208 L571.607 62.208 L571.607 23.3193 L578.03 23.3193 L578.03 29.361 Q580.044 25.8193 583.273 24.1179 Q586.503 22.3818 591.121 22.3818 Q591.78 22.3818 592.579 22.486 Q593.378 22.5554 594.35 22.729 L594.385 29.2915 Z" fill="#000000" fill-rule="nonzero" fill-opacity="1" /><path clip-path="url(#clip340)" d="M625.426 29.2221 L625.426 8.18051 L631.815 8.18051 L631.815 62.208 L625.426 62.208 L625.426 56.3747 Q623.412 59.8469 620.322 61.5483 Q617.266 63.2149 612.961 63.2149 Q605.912 63.2149 601.468 57.59 Q597.058 51.965 597.058 42.7984 Q597.058 33.6318 601.468 28.0068 Q605.912 22.3818 612.961 22.3818 Q617.266 22.3818 620.322 24.0832 Q623.412 25.7499 625.426 29.2221 M603.655 42.7984 Q603.655 49.847 606.537 53.8747 Q609.454 57.8677 614.523 57.8677 Q619.593 57.8677 622.509 53.8747 Q625.426 49.847 625.426 42.7984 Q625.426 35.7498 622.509 31.7568 Q619.593 27.729 614.523 27.729 Q609.454 27.729 606.537 31.7568 Q603.655 35.7498 603.655 42.7984 Z" fill="#000000" fill-rule="nonzero" fill-opacity="1" /><path clip-path="url(#clip340)" d="M670.356 5.3333 L676.537 5.3333 L667.926 18.3888 L663.238 18.3888 L670.356 5.3333 M658.759 5.3333 L664.662 5.3333 L656.919 18.3888 L652.162 18.3888 L658.759 5.3333 M660.044 27.7985 Q654.905 27.7985 651.919 31.8262 Q648.933 35.8193 648.933 42.7984 Q648.933 49.7775 651.884 53.8053 Q654.87 57.7983 660.044 57.7983 Q665.148 57.7983 668.134 53.7705 Q671.12 49.7428 671.12 42.7984 Q671.12 35.8887 668.134 31.8609 Q665.148 27.7985 660.044 27.7985 M660.044 22.3818 Q668.377 22.3818 673.134 27.7985 Q677.891 33.2151 677.891 42.7984 Q677.891 52.3469 673.134 57.7983 Q668.377 63.2149 660.044 63.2149 Q651.676 63.2149 646.919 57.7983 Q642.197 52.3469 642.197 42.7984 Q642.197 33.2151 646.919 27.7985 Q651.676 22.3818 660.044 22.3818 Z" fill="#000000" fill-rule="nonzero" fill-opacity="1" /><path clip-path="url(#clip340)" d="M713.273 24.4651 L713.273 30.5068 Q710.564 29.1179 707.648 28.4235 Q704.731 27.729 701.606 27.729 Q696.849 27.729 694.453 29.1873 Q692.092 30.6457 692.092 33.5623 Q692.092 35.7845 693.794 37.0692 Q695.495 38.3192 700.634 39.4651 L702.821 39.9512 Q709.627 41.4095 712.474 44.0831 Q715.356 46.722 715.356 51.4789 Q715.356 56.8955 711.051 60.0552 Q706.78 63.2149 699.28 63.2149 Q696.155 63.2149 692.752 62.5899 Q689.384 61.9997 685.634 60.7844 L685.634 54.1872 Q689.176 56.0275 692.613 56.965 Q696.051 57.8677 699.419 57.8677 Q703.933 57.8677 706.363 56.34 Q708.794 54.7775 708.794 51.965 Q708.794 49.3608 707.023 47.972 Q705.287 46.5831 699.349 45.2984 L697.127 44.7775 Q691.19 43.5275 688.551 40.9581 Q685.912 38.354 685.912 33.8401 Q685.912 28.354 689.801 25.3679 Q693.69 22.3818 700.842 22.3818 Q704.384 22.3818 707.509 22.9027 Q710.634 23.4235 713.273 24.4651 Z" fill="#000000" fill-rule="nonzero" fill-opacity="1" /><path clip-path="url(#clip340)" d="M722.301 40.229 L750.911 40.229 L750.911 45.2289 L722.301 45.2289 L722.301 40.229 Z" fill="#000000" fill-rule="nonzero" fill-opacity="1" /><path clip-path="url(#clip340)" d="M785.946 37.9026 Q788.203 38.6665 790.321 41.1664 Q792.474 43.6664 794.627 48.0414 L801.745 62.208 L794.21 62.208 L787.578 48.9095 Q785.009 43.7012 782.578 41.9998 Q780.182 40.2984 776.016 40.2984 L768.377 40.2984 L768.377 62.208 L761.363 62.208 L761.363 10.368 L777.196 10.368 Q786.085 10.368 790.46 14.0833 Q794.835 17.7985 794.835 25.2985 Q794.835 30.1943 792.543 33.4234 Q790.286 36.6526 785.946 37.9026 M768.377 16.1319 L768.377 34.5345 L777.196 34.5345 Q782.265 34.5345 784.835 32.2082 Q787.439 29.8471 787.439 25.2985 Q787.439 20.7499 784.835 18.4582 Q782.265 16.1319 777.196 16.1319 L768.377 16.1319 Z" fill="#000000" fill-rule="nonzero" fill-opacity="1" /><path clip-path="url(#clip340)" d="M840.564 41.1664 L840.564 44.2914 L811.189 44.2914 Q811.606 50.8886 815.147 54.3608 Q818.724 57.7983 825.078 57.7983 Q828.758 57.7983 832.196 56.8955 Q835.668 55.9928 839.071 54.1872 L839.071 60.2288 Q835.633 61.6872 832.022 62.4511 Q828.411 63.2149 824.696 63.2149 Q815.39 63.2149 809.939 57.7983 Q804.522 52.3817 804.522 43.1456 Q804.522 33.597 809.661 28.0068 Q814.835 22.3818 823.585 22.3818 Q831.432 22.3818 835.98 27.4512 Q840.564 32.4859 840.564 41.1664 M834.175 39.2915 Q834.105 34.0484 831.224 30.9234 Q828.376 27.7985 823.654 27.7985 Q818.307 27.7985 815.078 30.8193 Q811.883 33.8401 811.397 39.3262 L834.175 39.2915 M828.029 5.3333 L834.939 5.3333 L823.619 18.3888 L818.307 18.3888 L828.029 5.3333 Z" fill="#000000" fill-rule="nonzero" fill-opacity="1" /><path clip-path="url(#clip340)" d="M883.376 38.7359 L883.376 62.208 L876.987 62.208 L876.987 38.9442 Q876.987 33.4234 874.834 30.6804 Q872.682 27.9374 868.376 27.9374 Q863.203 27.9374 860.216 31.2359 Q857.23 34.5345 857.23 40.229 L857.23 62.208 L850.807 62.208 L850.807 23.3193 L857.23 23.3193 L857.23 29.361 Q859.522 25.854 862.612 24.1179 Q865.737 22.3818 869.8 22.3818 Q876.501 22.3818 879.939 26.5485 Q883.376 30.6804 883.376 38.7359 Z" fill="#000000" fill-rule="nonzero" fill-opacity="1" /><path clip-path="url(#clip340)" d="M912.299 65.8191 Q909.591 72.7635 907.022 74.8815 Q904.452 76.9996 900.147 76.9996 L895.043 76.9996 L895.043 71.6524 L898.793 71.6524 Q901.431 71.6524 902.89 70.4024 Q904.348 69.1524 906.119 64.4997 L907.265 61.583 L891.536 23.3193 L898.307 23.3193 L910.459 53.7358 L922.612 23.3193 L929.383 23.3193 L912.299 65.8191 Z" fill="#000000" fill-rule="nonzero" fill-opacity="1" /><path clip-path="url(#clip340)" d="M938.202 23.3193 L944.591 23.3193 L944.591 62.208 L938.202 62.208 L938.202 23.3193 M938.202 8.18051 L944.591 8.18051 L944.591 16.2707 L938.202 16.2707 L938.202 8.18051 Z" fill="#000000" fill-rule="nonzero" fill-opacity="1" /><path clip-path="url(#clip340)" d="M995.91 8.24996 Q991.257 16.236 989 24.0485 Q986.744 31.8609 986.744 39.8817 Q986.744 47.9025 989 55.7844 Q991.292 63.6316 995.91 71.5829 L990.355 71.5829 Q985.146 63.4233 982.542 55.5414 Q979.973 47.6595 979.973 39.8817 Q979.973 32.1387 982.542 24.2915 Q985.112 16.4444 990.355 8.24996 L995.91 8.24996 Z" fill="#000000" fill-rule="nonzero" fill-opacity="1" /><path clip-path="url(#clip340)" d="M1040.63 38.7359 L1040.63 62.208 L1034.24 62.208 L1034.24 38.9442 Q1034.24 33.4234 1032.09 30.6804 Q1029.94 27.9374 1025.63 27.9374 Q1020.46 27.9374 1017.47 31.2359 Q1014.49 34.5345 1014.49 40.229 L1014.49 62.208 L1008.06 62.208 L1008.06 23.3193 L1014.49 23.3193 L1014.49 29.361 Q1016.78 25.854 1019.87 24.1179 Q1022.99 22.3818 1027.06 22.3818 Q1033.76 22.3818 1037.19 26.5485 Q1040.63 30.6804 1040.63 38.7359 Z" fill="#000000" fill-rule="nonzero" fill-opacity="1" /><path clip-path="url(#clip340)" d="M1076.81 29.9165 L1121.33 29.9165 L1121.33 35.7498 L1076.81 35.7498 L1076.81 29.9165 M1076.81 44.0831 L1121.33 44.0831 L1121.33 49.9858 L1076.81 49.9858 L1076.81 44.0831 Z" fill="#000000" fill-rule="nonzero" fill-opacity="1" /><path clip-path="url(#clip340)" d="M1160.28 56.3053 L1171.74 56.3053 L1171.74 16.7569 L1159.28 19.2568 L1159.28 12.868 L1171.67 10.368 L1178.69 10.368 L1178.69 56.3053 L1190.15 56.3053 L1190.15 62.208 L1160.28 62.208 L1160.28 56.3053 Z" fill="#000000" fill-rule="nonzero" fill-opacity="1" /><path clip-path="url(#clip340)" d="M1202.4 8.24996 L1207.96 8.24996 Q1213.17 16.4444 1215.74 24.2915 Q1218.34 32.1387 1218.34 39.8817 Q1218.34 47.6595 1215.74 55.5414 Q1213.17 63.4233 1207.96 71.5829 L1202.4 71.5829 Q1207.02 63.6316 1209.28 55.7844 Q1211.57 47.9025 1211.57 39.8817 Q1211.57 31.8609 1209.28 24.0485 Q1207.02 16.236 1202.4 8.24996 Z" fill="#000000" fill-rule="nonzero" fill-opacity="1" /><polyline clip-path="url(#clip342)" style="stroke:#ee7733; stroke-linecap:round; stroke-linejoin:round; stroke-width:16; stroke-opacity:1; fill:none" points="390.887,1949.36 396.355,1944.85 402.223,1935.41 408.52,1912.14 415.276,1911.06 422.526,1891.46 430.306,1879.12 438.653,1860.38 447.61,1849.37 457.221,1829.25 467.534,1812.43 478.601,1802.83 490.475,1783.11 503.217,1773 516.889,1753.57 531.56,1742.74 547.302,1733.86 564.194,1727.93 582.32,1717.4 601.769,1707.18 622.638,1704.6 645.032,1698.95 669.061,1695.13 694.845,1689.3 722.512,1683.66 752.2,1678.55 784.055,1672.9 818.238,1667.04 854.916,1659.37 894.273,1652.41 936.505,1647.11 981.82,1637.14 1030.45,1627.07 1082.62,1616.64 1138.61,1603.47 1198.68,1594.76 1263.15,1579.38 1332.32,1562.25 1406.54,1545.69 1486.18,1523.92 1571.64,1504.56 1663.34,1479.43 1761.74,1451.75 1867.32,1419.85 1980.62,1382.1 2102.18,1337.23 2232.63,1289.84 2372.6,1230.74 2522.8,1161.1 2683.96,1073.99 "/>
<polyline clip-path="url(#clip342)" style="stroke:#0077bb; stroke-linecap:round; stroke-linejoin:round; stroke-width:16; stroke-opacity:1; fill:none" points="390.887,1760.57 396.355,1742.48 402.223,1729.17 408.52,1714.49 415.276,1697.57 422.526,1686.25 430.306,1654.97 438.653,1636.95 447.61,1620.37 457.221,1605.55 467.534,1574.54 478.601,1558.94 490.475,1540.87 503.217,1524.48 516.889,1512.23 531.56,1499.28 547.302,1489.42 564.194,1482.44 582.32,1475.2 601.769,1467.61 622.638,1459.97 645.032,1456.84 669.061,1450.5 694.845,1444.84 722.512,1439.07 752.2,1433.27 784.055,1424.43 818.238,1416.82 854.916,1407.65 894.273,1397.92 936.505,1386.66 981.82,1376.36 1030.45,1363.4 1082.62,1347.64 1138.61,1335.53 1198.68,1316.19 1263.15,1299.33 1332.32,1277.19 1406.54,1252.84 1486.18,1229.43 1571.64,1198.2 1663.34,1167.6 1761.74,1127.76 1867.32,1085.73 1980.62,1038.15 2102.18,977.665 2232.63,910.175 2372.6,831.965 2522.8,739.072 2683.96,625.619 "/>
<polyline clip-path="url(#clip342)" style="stroke:#33bbee; stroke-linecap:round; stroke-linejoin:round; stroke-width:16; stroke-opacity:1; fill:none" points="390.887,1563.46 396.355,1545.18 402.223,1525.12 408.52,1493.43 415.276,1477.9 422.526,1457.17 430.306,1430.25 438.653,1411.09 447.61,1383.03 457.221,1360.91 467.534,1331.35 478.601,1317.6 490.475,1296.18 503.217,1280.85 516.889,1263.92 531.56,1256.69 547.302,1247.69 564.194,1239.73 582.32,1233.35 601.769,1226.89 622.638,1221.8 645.032,1215.02 669.061,1209.03 694.845,1200.68 722.512,1193.91 752.2,1184.24 784.055,1176.17 818.238,1165.1 854.916,1154.13 894.273,1143.56 936.505,1131.78 981.82,1115.58 1030.45,1098.12 1082.62,1081.31 1138.61,1064.67 1198.68,1041.24 1263.15,1015.49 1332.32,991.872 1406.54,961.725 1486.18,931.85 1571.64,891.902 1663.34,852.768 1761.74,804.579 1867.32,753.32 1980.62,689.768 2102.18,620.44 2232.63,537.913 2372.6,438.234 2522.8,319.393 2683.96,177.252 "/>
<path clip-path="url(#clip340)" d="M2217.67 1939.91 L2671.73 1939.91 L2671.73 1732.55 L2217.67 1732.55  Z" fill="#ffffff" fill-rule="evenodd" fill-opacity="0.9"/>
<polyline clip-path="url(#clip340)" style="stroke:#222255; stroke-linecap:round; stroke-linejoin:round; stroke-width:4; stroke-opacity:0.1; fill:none" points="2217.67,1939.91 2671.73,1939.91 2671.73,1732.55 2217.67,1732.55 2217.67,1939.91 "/>
<polyline clip-path="url(#clip340)" style="stroke:#ee7733; stroke-linecap:round; stroke-linejoin:round; stroke-width:16; stroke-opacity:1; fill:none" points="2244.68,1784.39 2406.72,1784.39 "/>
<path clip-path="url(#clip340)" d="M2455.45 1786.02 L2455.45 1801.67 L2451.19 1801.67 L2451.19 1786.16 Q2451.19 1782.48 2449.75 1780.65 Q2448.32 1778.82 2445.45 1778.82 Q2442 1778.82 2440.01 1781.02 Q2438.01 1783.22 2438.01 1787.02 L2438.01 1801.67 L2433.73 1801.67 L2433.73 1775.74 L2438.01 1775.74 L2438.01 1779.77 Q2439.54 1777.43 2441.6 1776.27 Q2443.69 1775.12 2446.39 1775.12 Q2450.86 1775.12 2453.15 1777.9 Q2455.45 1780.65 2455.45 1786.02 Z" fill="#000000" fill-rule="nonzero" fill-opacity="1" /><path clip-path="url(#clip340)" d="M2460.88 1775.74 L2465.4 1775.74 L2473.5 1797.5 L2481.6 1775.74 L2486.12 1775.74 L2476.39 1801.67 L2470.61 1801.67 L2460.88 1775.74 Z" fill="#000000" fill-rule="nonzero" fill-opacity="1" /><path clip-path="url(#clip340)" d="M2507.62 1780.14 L2537.3 1780.14 L2537.3 1784.03 L2507.62 1784.03 L2507.62 1780.14 M2507.62 1789.58 L2537.3 1789.58 L2537.3 1793.52 L2507.62 1793.52 L2507.62 1789.58 Z" fill="#000000" fill-rule="nonzero" fill-opacity="1" /><path clip-path="url(#clip340)" d="M2576.63 1783.03 Q2579.98 1783.75 2581.86 1786.02 Q2583.75 1788.29 2583.75 1791.62 Q2583.75 1796.74 2580.24 1799.54 Q2576.72 1802.34 2570.24 1802.34 Q2568.06 1802.34 2565.75 1801.9 Q2563.45 1801.48 2561 1800.63 L2561 1796.11 Q2562.94 1797.25 2565.26 1797.83 Q2567.57 1798.4 2570.1 1798.4 Q2574.5 1798.4 2576.79 1796.67 Q2579.1 1794.93 2579.1 1791.62 Q2579.1 1788.57 2576.95 1786.85 Q2574.82 1785.12 2571 1785.12 L2566.97 1785.12 L2566.97 1781.27 L2571.19 1781.27 Q2574.63 1781.27 2576.46 1779.91 Q2578.29 1778.52 2578.29 1775.93 Q2578.29 1773.27 2576.39 1771.85 Q2574.52 1770.42 2571 1770.42 Q2569.08 1770.42 2566.88 1770.84 Q2564.68 1771.25 2562.04 1772.13 L2562.04 1767.96 Q2564.7 1767.22 2567.02 1766.85 Q2569.36 1766.48 2571.42 1766.48 Q2576.74 1766.48 2579.84 1768.91 Q2582.94 1771.32 2582.94 1775.44 Q2582.94 1778.31 2581.3 1780.3 Q2579.66 1782.27 2576.63 1783.03 Z" fill="#000000" fill-rule="nonzero" fill-opacity="1" /><path clip-path="url(#clip340)" d="M2602.62 1770.19 Q2599.01 1770.19 2597.18 1773.75 Q2595.37 1777.29 2595.37 1784.42 Q2595.37 1791.53 2597.18 1795.09 Q2599.01 1798.64 2602.62 1798.64 Q2606.25 1798.64 2608.06 1795.09 Q2609.89 1791.53 2609.89 1784.42 Q2609.89 1777.29 2608.06 1773.75 Q2606.25 1770.19 2602.62 1770.19 M2602.62 1766.48 Q2608.43 1766.48 2611.49 1771.09 Q2614.56 1775.67 2614.56 1784.42 Q2614.56 1793.15 2611.49 1797.76 Q2608.43 1802.34 2602.62 1802.34 Q2596.81 1802.34 2593.73 1797.76 Q2590.68 1793.15 2590.68 1784.42 Q2590.68 1775.67 2593.73 1771.09 Q2596.81 1766.48 2602.62 1766.48 Z" fill="#000000" fill-rule="nonzero" fill-opacity="1" /><path clip-path="url(#clip340)" d="M2632.78 1770.19 Q2629.17 1770.19 2627.34 1773.75 Q2625.54 1777.29 2625.54 1784.42 Q2625.54 1791.53 2627.34 1795.09 Q2629.17 1798.64 2632.78 1798.64 Q2636.42 1798.64 2638.22 1795.09 Q2640.05 1791.53 2640.05 1784.42 Q2640.05 1777.29 2638.22 1773.75 Q2636.42 1770.19 2632.78 1770.19 M2632.78 1766.48 Q2638.59 1766.48 2641.65 1771.09 Q2644.73 1775.67 2644.73 1784.42 Q2644.73 1793.15 2641.65 1797.76 Q2638.59 1802.34 2632.78 1802.34 Q2626.97 1802.34 2623.89 1797.76 Q2620.84 1793.15 2620.84 1784.42 Q2620.84 1775.67 2623.89 1771.09 Q2626.97 1766.48 2632.78 1766.48 Z" fill="#000000" fill-rule="nonzero" fill-opacity="1" /><polyline clip-path="url(#clip340)" style="stroke:#0077bb; stroke-linecap:round; stroke-linejoin:round; stroke-width:16; stroke-opacity:1; fill:none" points="2244.68,1836.23 2406.72,1836.23 "/>
<path clip-path="url(#clip340)" d="M2455.45 1837.86 L2455.45 1853.51 L2451.19 1853.51 L2451.19 1838 Q2451.19 1834.32 2449.75 1832.49 Q2448.32 1830.66 2445.45 1830.66 Q2442 1830.66 2440.01 1832.86 Q2438.01 1835.06 2438.01 1838.86 L2438.01 1853.51 L2433.73 1853.51 L2433.73 1827.58 L2438.01 1827.58 L2438.01 1831.61 Q2439.54 1829.27 2441.6 1828.11 Q2443.69 1826.96 2446.39 1826.96 Q2450.86 1826.96 2453.15 1829.74 Q2455.45 1832.49 2455.45 1837.86 Z" fill="#000000" fill-rule="nonzero" fill-opacity="1" /><path clip-path="url(#clip340)" d="M2460.88 1827.58 L2465.4 1827.58 L2473.5 1849.34 L2481.6 1827.58 L2486.12 1827.58 L2476.39 1853.51 L2470.61 1853.51 L2460.88 1827.58 Z" fill="#000000" fill-rule="nonzero" fill-opacity="1" /><path clip-path="url(#clip340)" d="M2507.62 1831.98 L2537.3 1831.98 L2537.3 1835.87 L2507.62 1835.87 L2507.62 1831.98 M2507.62 1841.42 L2537.3 1841.42 L2537.3 1845.36 L2507.62 1845.36 L2507.62 1841.42 Z" fill="#000000" fill-rule="nonzero" fill-opacity="1" /><path clip-path="url(#clip340)" d="M2575.31 1823.02 L2563.5 1841.47 L2575.31 1841.47 L2575.31 1823.02 M2574.08 1818.95 L2579.96 1818.95 L2579.96 1841.47 L2584.89 1841.47 L2584.89 1845.36 L2579.96 1845.36 L2579.96 1853.51 L2575.31 1853.51 L2575.31 1845.36 L2559.7 1845.36 L2559.7 1840.85 L2574.08 1818.95 Z" fill="#000000" fill-rule="nonzero" fill-opacity="1" /><path clip-path="url(#clip340)" d="M2602.62 1822.03 Q2599.01 1822.03 2597.18 1825.59 Q2595.37 1829.13 2595.37 1836.26 Q2595.37 1843.37 2597.18 1846.93 Q2599.01 1850.48 2602.62 1850.48 Q2606.25 1850.48 2608.06 1846.93 Q2609.89 1843.37 2609.89 1836.26 Q2609.89 1829.13 2608.06 1825.59 Q2606.25 1822.03 2602.62 1822.03 M2602.62 1818.32 Q2608.43 1818.32 2611.49 1822.93 Q2614.56 1827.51 2614.56 1836.26 Q2614.56 1844.99 2611.49 1849.6 Q2608.43 1854.18 2602.62 1854.18 Q2596.81 1854.18 2593.73 1849.6 Q2590.68 1844.99 2590.68 1836.26 Q2590.68 1827.51 2593.73 1822.93 Q2596.81 1818.32 2602.62 1818.32 Z" fill="#000000" fill-rule="nonzero" fill-opacity="1" /><path clip-path="url(#clip340)" d="M2632.78 1822.03 Q2629.17 1822.03 2627.34 1825.59 Q2625.54 1829.13 2625.54 1836.26 Q2625.54 1843.37 2627.34 1846.93 Q2629.17 1850.48 2632.78 1850.48 Q2636.42 1850.48 2638.22 1846.93 Q2640.05 1843.37 2640.05 1836.26 Q2640.05 1829.13 2638.22 1825.59 Q2636.42 1822.03 2632.78 1822.03 M2632.78 1818.32 Q2638.59 1818.32 2641.65 1822.93 Q2644.73 1827.51 2644.73 1836.26 Q2644.73 1844.99 2641.65 1849.6 Q2638.59 1854.18 2632.78 1854.18 Q2626.97 1854.18 2623.89 1849.6 Q2620.84 1844.99 2620.84 1836.26 Q2620.84 1827.51 2623.89 1822.93 Q2626.97 1818.32 2632.78 1818.32 Z" fill="#000000" fill-rule="nonzero" fill-opacity="1" /><polyline clip-path="url(#clip340)" style="stroke:#33bbee; stroke-linecap:round; stroke-linejoin:round; stroke-width:16; stroke-opacity:1; fill:none" points="2244.68,1888.07 2406.72,1888.07 "/>
<path clip-path="url(#clip340)" d="M2455.45 1889.7 L2455.45 1905.35 L2451.19 1905.35 L2451.19 1889.84 Q2451.19 1886.16 2449.75 1884.33 Q2448.32 1882.5 2445.45 1882.5 Q2442 1882.5 2440.01 1884.7 Q2438.01 1886.9 2438.01 1890.7 L2438.01 1905.35 L2433.73 1905.35 L2433.73 1879.42 L2438.01 1879.42 L2438.01 1883.45 Q2439.54 1881.11 2441.6 1879.95 Q2443.69 1878.8 2446.39 1878.8 Q2450.86 1878.8 2453.15 1881.58 Q2455.45 1884.33 2455.45 1889.7 Z" fill="#000000" fill-rule="nonzero" fill-opacity="1" /><path clip-path="url(#clip340)" d="M2460.88 1879.42 L2465.4 1879.42 L2473.5 1901.18 L2481.6 1879.42 L2486.12 1879.42 L2476.39 1905.35 L2470.61 1905.35 L2460.88 1879.42 Z" fill="#000000" fill-rule="nonzero" fill-opacity="1" /><path clip-path="url(#clip340)" d="M2507.62 1883.82 L2537.3 1883.82 L2537.3 1887.71 L2507.62 1887.71 L2507.62 1883.82 M2507.62 1893.26 L2537.3 1893.26 L2537.3 1897.2 L2507.62 1897.2 L2507.62 1893.26 Z" fill="#000000" fill-rule="nonzero" fill-opacity="1" /><path clip-path="url(#clip340)" d="M2562.5 1870.79 L2580.86 1870.79 L2580.86 1874.72 L2566.79 1874.72 L2566.79 1883.2 Q2567.81 1882.85 2568.82 1882.69 Q2569.84 1882.5 2570.86 1882.5 Q2576.65 1882.5 2580.03 1885.67 Q2583.41 1888.84 2583.41 1894.26 Q2583.41 1899.84 2579.94 1902.94 Q2576.46 1906.02 2570.14 1906.02 Q2567.97 1906.02 2565.7 1905.65 Q2563.45 1905.28 2561.05 1904.54 L2561.05 1899.84 Q2563.13 1900.97 2565.35 1901.53 Q2567.57 1902.08 2570.05 1902.08 Q2574.06 1902.08 2576.39 1899.98 Q2578.73 1897.87 2578.73 1894.26 Q2578.73 1890.65 2576.39 1888.54 Q2574.06 1886.44 2570.05 1886.44 Q2568.18 1886.44 2566.3 1886.85 Q2564.45 1887.27 2562.5 1888.15 L2562.5 1870.79 Z" fill="#000000" fill-rule="nonzero" fill-opacity="1" /><path clip-path="url(#clip340)" d="M2602.62 1873.87 Q2599.01 1873.87 2597.18 1877.43 Q2595.37 1880.97 2595.37 1888.1 Q2595.37 1895.21 2597.18 1898.77 Q2599.01 1902.32 2602.62 1902.32 Q2606.25 1902.32 2608.06 1898.77 Q2609.89 1895.21 2609.89 1888.1 Q2609.89 1880.97 2608.06 1877.43 Q2606.25 1873.87 2602.62 1873.87 M2602.62 1870.16 Q2608.43 1870.16 2611.49 1874.77 Q2614.56 1879.35 2614.56 1888.1 Q2614.56 1896.83 2611.49 1901.44 Q2608.43 1906.02 2602.62 1906.02 Q2596.81 1906.02 2593.73 1901.44 Q2590.68 1896.83 2590.68 1888.1 Q2590.68 1879.35 2593.73 1874.77 Q2596.81 1870.16 2602.62 1870.16 Z" fill="#000000" fill-rule="nonzero" fill-opacity="1" /><path clip-path="url(#clip340)" d="M2632.78 1873.87 Q2629.17 1873.87 2627.34 1877.43 Q2625.54 1880.97 2625.54 1888.1 Q2625.54 1895.21 2627.34 1898.77 Q2629.17 1902.32 2632.78 1902.32 Q2636.42 1902.32 2638.22 1898.77 Q2640.05 1895.21 2640.05 1888.1 Q2640.05 1880.97 2638.22 1877.43 Q2636.42 1873.87 2632.78 1873.87 M2632.78 1870.16 Q2638.59 1870.16 2641.65 1874.77 Q2644.73 1879.35 2644.73 1888.1 Q2644.73 1896.83 2641.65 1901.44 Q2638.59 1906.02 2632.78 1906.02 Q2626.97 1906.02 2623.89 1901.44 Q2620.84 1896.83 2620.84 1888.1 Q2620.84 1879.35 2623.89 1874.77 Q2626.97 1870.16 2632.78 1870.16 Z" fill="#000000" fill-rule="nonzero" fill-opacity="1" /></svg>
