<?xml version="1.0" encoding="utf-8"?>
<svg xmlns="http://www.w3.org/2000/svg" xmlns:xlink="http://www.w3.org/1999/xlink" width="900" height="650" viewBox="0 0 3600 2600">
<defs>
  <clipPath id="clip870">
    <rect x="0" y="0" width="3600" height="2600"/>
  </clipPath>
</defs>
<path clip-path="url(#clip870)" d="M0 2600 L3600 2600 L3600 0 L0 0  Z" fill="#ffffff" fill-rule="evenodd" fill-opacity="1"/>
<defs>
  <clipPath id="clip871">
    <rect x="720" y="0" width="2521" height="2521"/>
  </clipPath>
</defs>
<defs>
  <clipPath id="clip872">
    <rect x="250" y="119" width="3304" height="2288"/>
  </clipPath>
</defs>
<path clip-path="url(#clip870)" d="M250.085 2406.34 L3552.76 2406.34 L3552.76 119.152 L250.085 119.152  Z" fill="#ffffff" fill-rule="evenodd" fill-opacity="1"/>
<polyline clip-path="url(#clip872)" style="stroke:#222255; stroke-linecap:round; stroke-linejoin:round; stroke-width:2; stroke-opacity:0.5; fill:none" points="885.306,2406.34 885.306,119.152 "/>
<polyline clip-path="url(#clip872)" style="stroke:#222255; stroke-linecap:round; stroke-linejoin:round; stroke-width:2; stroke-opacity:0.5; fill:none" points="1528.8,2406.34 1528.8,119.152 "/>
<polyline clip-path="url(#clip872)" style="stroke:#222255; stroke-linecap:round; stroke-linejoin:round; stroke-width:2; stroke-opacity:0.5; fill:none" points="2172.3,2406.34 2172.3,119.152 "/>
<polyline clip-path="url(#clip872)" style="stroke:#222255; stroke-linecap:round; stroke-linejoin:round; stroke-width:2; stroke-opacity:0.5; fill:none" points="2815.79,2406.34 2815.79,119.152 "/>
<polyline clip-path="url(#clip872)" style="stroke:#222255; stroke-linecap:round; stroke-linejoin:round; stroke-width:2; stroke-opacity:0.5; fill:none" points="3459.28,2406.34 3459.28,119.152 "/>
<polyline clip-path="url(#clip872)" style="stroke:#222255; stroke-linecap:round; stroke-linejoin:round; stroke-width:2; stroke-opacity:0.3; fill:none" points="370.511,2406.34 370.511,119.152 "/>
<polyline clip-path="url(#clip872)" style="stroke:#222255; stroke-linecap:round; stroke-linejoin:round; stroke-width:2; stroke-opacity:0.3; fill:none" points="499.21,2406.34 499.21,119.152 "/>
<polyline clip-path="url(#clip872)" style="stroke:#222255; stroke-linecap:round; stroke-linejoin:round; stroke-width:2; stroke-opacity:0.3; fill:none" points="627.909,2406.34 627.909,119.152 "/>
<polyline clip-path="url(#clip872)" style="stroke:#222255; stroke-linecap:round; stroke-linejoin:round; stroke-width:2; stroke-opacity:0.3; fill:none" points="756.607,2406.34 756.607,119.152 "/>
<polyline clip-path="url(#clip872)" style="stroke:#222255; stroke-linecap:round; stroke-linejoin:round; stroke-width:2; stroke-opacity:0.3; fill:none" points="1014.01,2406.34 1014.01,119.152 "/>
<polyline clip-path="url(#clip872)" style="stroke:#222255; stroke-linecap:round; stroke-linejoin:round; stroke-width:2; stroke-opacity:0.3; fill:none" points="1142.7,2406.34 1142.7,119.152 "/>
<polyline clip-path="url(#clip872)" style="stroke:#222255; stroke-linecap:round; stroke-linejoin:round; stroke-width:2; stroke-opacity:0.3; fill:none" points="1271.4,2406.34 1271.4,119.152 "/>
<polyline clip-path="url(#clip872)" style="stroke:#222255; stroke-linecap:round; stroke-linejoin:round; stroke-width:2; stroke-opacity:0.3; fill:none" points="1400.1,2406.34 1400.1,119.152 "/>
<polyline clip-path="url(#clip872)" style="stroke:#222255; stroke-linecap:round; stroke-linejoin:round; stroke-width:2; stroke-opacity:0.3; fill:none" points="1657.5,2406.34 1657.5,119.152 "/>
<polyline clip-path="url(#clip872)" style="stroke:#222255; stroke-linecap:round; stroke-linejoin:round; stroke-width:2; stroke-opacity:0.3; fill:none" points="1786.2,2406.34 1786.2,119.152 "/>
<polyline clip-path="url(#clip872)" style="stroke:#222255; stroke-linecap:round; stroke-linejoin:round; stroke-width:2; stroke-opacity:0.3; fill:none" points="1914.9,2406.34 1914.9,119.152 "/>
<polyline clip-path="url(#clip872)" style="stroke:#222255; stroke-linecap:round; stroke-linejoin:round; stroke-width:2; stroke-opacity:0.3; fill:none" points="2043.6,2406.34 2043.6,119.152 "/>
<polyline clip-path="url(#clip872)" style="stroke:#222255; stroke-linecap:round; stroke-linejoin:round; stroke-width:2; stroke-opacity:0.3; fill:none" points="2300.99,2406.34 2300.99,119.152 "/>
<polyline clip-path="url(#clip872)" style="stroke:#222255; stroke-linecap:round; stroke-linejoin:round; stroke-width:2; stroke-opacity:0.3; fill:none" points="2429.69,2406.34 2429.69,119.152 "/>
<polyline clip-path="url(#clip872)" style="stroke:#222255; stroke-linecap:round; stroke-linejoin:round; stroke-width:2; stroke-opacity:0.3; fill:none" points="2558.39,2406.34 2558.39,119.152 "/>
<polyline clip-path="url(#clip872)" style="stroke:#222255; stroke-linecap:round; stroke-linejoin:round; stroke-width:2; stroke-opacity:0.3; fill:none" points="2687.09,2406.34 2687.09,119.152 "/>
<polyline clip-path="url(#clip872)" style="stroke:#222255; stroke-linecap:round; stroke-linejoin:round; stroke-width:2; stroke-opacity:0.3; fill:none" points="2944.49,2406.34 2944.49,119.152 "/>
<polyline clip-path="url(#clip872)" style="stroke:#222255; stroke-linecap:round; stroke-linejoin:round; stroke-width:2; stroke-opacity:0.3; fill:none" points="3073.19,2406.34 3073.19,119.152 "/>
<polyline clip-path="url(#clip872)" style="stroke:#222255; stroke-linecap:round; stroke-linejoin:round; stroke-width:2; stroke-opacity:0.3; fill:none" points="3201.89,2406.34 3201.89,119.152 "/>
<polyline clip-path="url(#clip872)" style="stroke:#222255; stroke-linecap:round; stroke-linejoin:round; stroke-width:2; stroke-opacity:0.3; fill:none" points="3330.59,2406.34 3330.59,119.152 "/>
<polyline clip-path="url(#clip870)" style="stroke:#222255; stroke-linecap:round; stroke-linejoin:round; stroke-width:4; stroke-opacity:0; fill:none" points="885.306,2406.34 885.306,2387.44 "/>
<polyline clip-path="url(#clip870)" style="stroke:#222255; stroke-linecap:round; stroke-linejoin:round; stroke-width:4; stroke-opacity:0; fill:none" points="1528.8,2406.34 1528.8,2387.44 "/>
<polyline clip-path="url(#clip870)" style="stroke:#222255; stroke-linecap:round; stroke-linejoin:round; stroke-width:4; stroke-opacity:0; fill:none" points="2172.3,2406.34 2172.3,2387.44 "/>
<polyline clip-path="url(#clip870)" style="stroke:#222255; stroke-linecap:round; stroke-linejoin:round; stroke-width:4; stroke-opacity:0; fill:none" points="2815.79,2406.34 2815.79,2387.44 "/>
<polyline clip-path="url(#clip870)" style="stroke:#222255; stroke-linecap:round; stroke-linejoin:round; stroke-width:4; stroke-opacity:0; fill:none" points="3459.28,2406.34 3459.28,2387.44 "/>
<polyline clip-path="url(#clip870)" style="stroke:#222255; stroke-linecap:round; stroke-linejoin:round; stroke-width:4; stroke-opacity:0; fill:none" points="370.511,2406.34 370.511,2396.89 "/>
<polyline clip-path="url(#clip870)" style="stroke:#222255; stroke-linecap:round; stroke-linejoin:round; stroke-width:4; stroke-opacity:0; fill:none" points="499.21,2406.34 499.21,2396.89 "/>
<polyline clip-path="url(#clip870)" style="stroke:#222255; stroke-linecap:round; stroke-linejoin:round; stroke-width:4; stroke-opacity:0; fill:none" points="627.909,2406.34 627.909,2396.89 "/>
<polyline clip-path="url(#clip870)" style="stroke:#222255; stroke-linecap:round; stroke-linejoin:round; stroke-width:4; stroke-opacity:0; fill:none" points="756.607,2406.34 756.607,2396.89 "/>
<polyline clip-path="url(#clip870)" style="stroke:#222255; stroke-linecap:round; stroke-linejoin:round; stroke-width:4; stroke-opacity:0; fill:none" points="1014.01,2406.34 1014.01,2396.89 "/>
<polyline clip-path="url(#clip870)" style="stroke:#222255; stroke-linecap:round; stroke-linejoin:round; stroke-width:4; stroke-opacity:0; fill:none" points="1142.7,2406.34 1142.7,2396.89 "/>
<polyline clip-path="url(#clip870)" style="stroke:#222255; stroke-linecap:round; stroke-linejoin:round; stroke-width:4; stroke-opacity:0; fill:none" points="1271.4,2406.34 1271.4,2396.89 "/>
<polyline clip-path="url(#clip870)" style="stroke:#222255; stroke-linecap:round; stroke-linejoin:round; stroke-width:4; stroke-opacity:0; fill:none" points="1400.1,2406.34 1400.1,2396.89 "/>
<polyline clip-path="url(#clip870)" style="stroke:#222255; stroke-linecap:round; stroke-linejoin:round; stroke-width:4; stroke-opacity:0; fill:none" points="1657.5,2406.34 1657.5,2396.89 "/>
<polyline clip-path="url(#clip870)" style="stroke:#222255; stroke-linecap:round; stroke-linejoin:round; stroke-width:4; stroke-opacity:0; fill:none" points="1786.2,2406.34 1786.2,2396.89 "/>
<polyline clip-path="url(#clip870)" style="stroke:#222255; stroke-linecap:round; stroke-linejoin:round; stroke-width:4; stroke-opacity:0; fill:none" points="1914.9,2406.34 1914.9,2396.89 "/>
<polyline clip-path="url(#clip870)" style="stroke:#222255; stroke-linecap:round; stroke-linejoin:round; stroke-width:4; stroke-opacity:0; fill:none" points="2043.6,2406.34 2043.6,2396.89 "/>
<polyline clip-path="url(#clip870)" style="stroke:#222255; stroke-linecap:round; stroke-linejoin:round; stroke-width:4; stroke-opacity:0; fill:none" points="2300.99,2406.34 2300.99,2396.89 "/>
<polyline clip-path="url(#clip870)" style="stroke:#222255; stroke-linecap:round; stroke-linejoin:round; stroke-width:4; stroke-opacity:0; fill:none" points="2429.69,2406.34 2429.69,2396.89 "/>
<polyline clip-path="url(#clip870)" style="stroke:#222255; stroke-linecap:round; stroke-linejoin:round; stroke-width:4; stroke-opacity:0; fill:none" points="2558.39,2406.34 2558.39,2396.89 "/>
<polyline clip-path="url(#clip870)" style="stroke:#222255; stroke-linecap:round; stroke-linejoin:round; stroke-width:4; stroke-opacity:0; fill:none" points="2687.09,2406.34 2687.09,2396.89 "/>
<polyline clip-path="url(#clip870)" style="stroke:#222255; stroke-linecap:round; stroke-linejoin:round; stroke-width:4; stroke-opacity:0; fill:none" points="2944.49,2406.34 2944.49,2396.89 "/>
<polyline clip-path="url(#clip870)" style="stroke:#222255; stroke-linecap:round; stroke-linejoin:round; stroke-width:4; stroke-opacity:0; fill:none" points="3073.19,2406.34 3073.19,2396.89 "/>
<polyline clip-path="url(#clip870)" style="stroke:#222255; stroke-linecap:round; stroke-linejoin:round; stroke-width:4; stroke-opacity:0; fill:none" points="3201.89,2406.34 3201.89,2396.89 "/>
<polyline clip-path="url(#clip870)" style="stroke:#222255; stroke-linecap:round; stroke-linejoin:round; stroke-width:4; stroke-opacity:0; fill:none" points="3330.59,2406.34 3330.59,2396.89 "/>
<path clip-path="url(#clip870)" d="M863.489 2446.86 Q859.878 2446.86 858.05 2450.42 Q856.244 2453.96 856.244 2461.09 Q856.244 2468.2 858.05 2471.77 Q859.878 2475.31 863.489 2475.31 Q867.124 2475.31 868.929 2471.77 Q870.758 2468.2 870.758 2461.09 Q870.758 2453.96 868.929 2450.42 Q867.124 2446.86 863.489 2446.86 M863.489 2443.15 Q869.299 2443.15 872.355 2447.76 Q875.434 2452.34 875.434 2461.09 Q875.434 2469.82 872.355 2474.43 Q869.299 2479.01 863.489 2479.01 Q857.679 2479.01 854.6 2474.43 Q851.545 2469.82 851.545 2461.09 Q851.545 2452.34 854.6 2447.76 Q857.679 2443.15 863.489 2443.15 Z" fill="#000000" fill-rule="nonzero" fill-opacity="1" /><path clip-path="url(#clip870)" d="M883.651 2472.46 L888.535 2472.46 L888.535 2478.34 L883.651 2478.34 L883.651 2472.46 Z" fill="#000000" fill-rule="nonzero" fill-opacity="1" /><path clip-path="url(#clip870)" d="M902.748 2474.4 L919.068 2474.4 L919.068 2478.34 L897.123 2478.34 L897.123 2474.4 Q899.785 2471.65 904.369 2467.02 Q908.975 2462.37 910.156 2461.03 Q912.401 2458.5 913.281 2456.77 Q914.183 2455.01 914.183 2453.32 Q914.183 2450.56 912.239 2448.83 Q910.318 2447.09 907.216 2447.09 Q905.017 2447.09 902.563 2447.85 Q900.133 2448.62 897.355 2450.17 L897.355 2445.45 Q900.179 2444.31 902.633 2443.73 Q905.086 2443.15 907.123 2443.15 Q912.494 2443.15 915.688 2445.84 Q918.883 2448.53 918.883 2453.02 Q918.883 2455.15 918.072 2457.07 Q917.285 2458.96 915.179 2461.56 Q914.6 2462.23 911.498 2465.45 Q908.396 2468.64 902.748 2474.4 Z" fill="#000000" fill-rule="nonzero" fill-opacity="1" /><path clip-path="url(#clip870)" d="M1505.94 2446.86 Q1502.33 2446.86 1500.5 2450.42 Q1498.7 2453.96 1498.7 2461.09 Q1498.7 2468.2 1500.5 2471.77 Q1502.33 2475.31 1505.94 2475.31 Q1509.58 2475.31 1511.38 2471.77 Q1513.21 2468.2 1513.21 2461.09 Q1513.21 2453.96 1511.38 2450.42 Q1509.58 2446.86 1505.94 2446.86 M1505.94 2443.15 Q1511.75 2443.15 1514.81 2447.76 Q1517.89 2452.34 1517.89 2461.09 Q1517.89 2469.82 1514.81 2474.43 Q1511.75 2479.01 1505.94 2479.01 Q1500.13 2479.01 1497.05 2474.43 Q1494 2469.82 1494 2461.09 Q1494 2452.34 1497.05 2447.76 Q1500.13 2443.15 1505.94 2443.15 Z" fill="#000000" fill-rule="nonzero" fill-opacity="1" /><path clip-path="url(#clip870)" d="M1526.1 2472.46 L1530.99 2472.46 L1530.99 2478.34 L1526.1 2478.34 L1526.1 2472.46 Z" fill="#000000" fill-rule="nonzero" fill-opacity="1" /><path clip-path="url(#clip870)" d="M1554.02 2447.85 L1542.22 2466.3 L1554.02 2466.3 L1554.02 2447.85 M1552.79 2443.78 L1558.67 2443.78 L1558.67 2466.3 L1563.6 2466.3 L1563.6 2470.19 L1558.67 2470.19 L1558.67 2478.34 L1554.02 2478.34 L1554.02 2470.19 L1538.42 2470.19 L1538.42 2465.68 L1552.79 2443.78 Z" fill="#000000" fill-rule="nonzero" fill-opacity="1" /><path clip-path="url(#clip870)" d="M2149.6 2446.86 Q2145.99 2446.86 2144.16 2450.42 Q2142.35 2453.96 2142.35 2461.09 Q2142.35 2468.2 2144.16 2471.77 Q2145.99 2475.31 2149.6 2475.31 Q2153.23 2475.31 2155.04 2471.77 Q2156.87 2468.2 2156.87 2461.09 Q2156.87 2453.96 2155.04 2450.42 Q2153.23 2446.86 2149.6 2446.86 M2149.6 2443.15 Q2155.41 2443.15 2158.46 2447.76 Q2161.54 2452.34 2161.54 2461.09 Q2161.54 2469.82 2158.46 2474.43 Q2155.41 2479.01 2149.6 2479.01 Q2143.79 2479.01 2140.71 2474.43 Q2137.65 2469.82 2137.65 2461.09 Q2137.65 2452.34 2140.71 2447.76 Q2143.79 2443.15 2149.6 2443.15 Z" fill="#000000" fill-rule="nonzero" fill-opacity="1" /><path clip-path="url(#clip870)" d="M2169.76 2472.46 L2174.64 2472.46 L2174.64 2478.34 L2169.76 2478.34 L2169.76 2472.46 Z" fill="#000000" fill-rule="nonzero" fill-opacity="1" /><path clip-path="url(#clip870)" d="M2195.41 2459.2 Q2192.26 2459.2 2190.41 2461.35 Q2188.58 2463.5 2188.58 2467.25 Q2188.58 2470.98 2190.41 2473.15 Q2192.26 2475.31 2195.41 2475.31 Q2198.56 2475.31 2200.39 2473.15 Q2202.24 2470.98 2202.24 2467.25 Q2202.24 2463.5 2200.39 2461.35 Q2198.56 2459.2 2195.41 2459.2 M2204.69 2444.54 L2204.69 2448.8 Q2202.93 2447.97 2201.13 2447.53 Q2199.34 2447.09 2197.58 2447.09 Q2192.95 2447.09 2190.5 2450.21 Q2188.07 2453.34 2187.72 2459.66 Q2189.09 2457.65 2191.15 2456.58 Q2193.21 2455.49 2195.69 2455.49 Q2200.89 2455.49 2203.9 2458.66 Q2206.94 2461.81 2206.94 2467.25 Q2206.94 2472.58 2203.79 2475.79 Q2200.64 2479.01 2195.41 2479.01 Q2189.41 2479.01 2186.24 2474.43 Q2183.07 2469.82 2183.07 2461.09 Q2183.07 2452.9 2186.96 2448.04 Q2190.85 2443.15 2197.4 2443.15 Q2199.16 2443.15 2200.94 2443.5 Q2202.75 2443.85 2204.69 2444.54 Z" fill="#000000" fill-rule="nonzero" fill-opacity="1" /><path clip-path="url(#clip870)" d="M2793.22 2446.86 Q2789.61 2446.86 2787.78 2450.42 Q2785.97 2453.96 2785.97 2461.09 Q2785.97 2468.2 2787.78 2471.77 Q2789.61 2475.31 2793.22 2475.31 Q2796.85 2475.31 2798.66 2471.77 Q2800.49 2468.2 2800.49 2461.09 Q2800.49 2453.96 2798.66 2450.42 Q2796.85 2446.86 2793.22 2446.86 M2793.22 2443.15 Q2799.03 2443.15 2802.09 2447.76 Q2805.16 2452.34 2805.16 2461.09 Q2805.16 2469.82 2802.09 2474.43 Q2799.03 2479.01 2793.22 2479.01 Q2787.41 2479.01 2784.33 2474.43 Q2781.28 2469.82 2781.28 2461.09 Q2781.28 2452.34 2784.33 2447.76 Q2787.41 2443.15 2793.22 2443.15 Z" fill="#000000" fill-rule="nonzero" fill-opacity="1" /><path clip-path="url(#clip870)" d="M2813.38 2472.46 L2818.27 2472.46 L2818.27 2478.34 L2813.38 2478.34 L2813.38 2472.46 Z" fill="#000000" fill-rule="nonzero" fill-opacity="1" /><path clip-path="url(#clip870)" d="M2838.45 2461.93 Q2835.12 2461.93 2833.2 2463.71 Q2831.3 2465.49 2831.3 2468.62 Q2831.3 2471.74 2833.2 2473.53 Q2835.12 2475.31 2838.45 2475.31 Q2841.78 2475.31 2843.71 2473.53 Q2845.63 2471.72 2845.63 2468.62 Q2845.63 2465.49 2843.71 2463.71 Q2841.81 2461.93 2838.45 2461.93 M2833.78 2459.94 Q2830.77 2459.2 2829.08 2457.14 Q2827.41 2455.08 2827.41 2452.11 Q2827.41 2447.97 2830.35 2445.56 Q2833.31 2443.15 2838.45 2443.15 Q2843.61 2443.15 2846.55 2445.56 Q2849.49 2447.97 2849.49 2452.11 Q2849.49 2455.08 2847.8 2457.14 Q2846.14 2459.2 2843.15 2459.94 Q2846.53 2460.72 2848.41 2463.02 Q2850.3 2465.31 2850.3 2468.62 Q2850.3 2473.64 2847.22 2476.33 Q2844.17 2479.01 2838.45 2479.01 Q2832.73 2479.01 2829.66 2476.33 Q2826.6 2473.64 2826.6 2468.62 Q2826.6 2465.31 2828.5 2463.02 Q2830.4 2460.72 2833.78 2459.94 M2832.06 2452.55 Q2832.06 2455.24 2833.73 2456.74 Q2835.42 2458.25 2838.45 2458.25 Q2841.46 2458.25 2843.15 2456.74 Q2844.86 2455.24 2844.86 2452.55 Q2844.86 2449.87 2843.15 2448.36 Q2841.46 2446.86 2838.45 2446.86 Q2835.42 2446.86 2833.73 2448.36 Q2832.06 2449.87 2832.06 2452.55 Z" fill="#000000" fill-rule="nonzero" fill-opacity="1" /><path clip-path="url(#clip870)" d="M3426.44 2474.4 L3434.08 2474.4 L3434.08 2448.04 L3425.77 2449.71 L3425.77 2445.45 L3434.03 2443.78 L3438.71 2443.78 L3438.71 2474.4 L3446.34 2474.4 L3446.34 2478.34 L3426.44 2478.34 L3426.44 2474.4 Z" fill="#000000" fill-rule="nonzero" fill-opacity="1" /><path clip-path="url(#clip870)" d="M3455.79 2472.46 L3460.67 2472.46 L3460.67 2478.34 L3455.79 2478.34 L3455.79 2472.46 Z" fill="#000000" fill-rule="nonzero" fill-opacity="1" /><path clip-path="url(#clip870)" d="M3480.86 2446.86 Q3477.25 2446.86 3475.42 2450.42 Q3473.61 2453.96 3473.61 2461.09 Q3473.61 2468.2 3475.42 2471.77 Q3477.25 2475.31 3480.86 2475.31 Q3484.49 2475.31 3486.3 2471.77 Q3488.13 2468.2 3488.13 2461.09 Q3488.13 2453.96 3486.3 2450.42 Q3484.49 2446.86 3480.86 2446.86 M3480.86 2443.15 Q3486.67 2443.15 3489.72 2447.76 Q3492.8 2452.34 3492.8 2461.09 Q3492.8 2469.82 3489.72 2474.43 Q3486.67 2479.01 3480.86 2479.01 Q3475.05 2479.01 3471.97 2474.43 Q3468.91 2469.82 3468.91 2461.09 Q3468.91 2452.34 3471.97 2447.76 Q3475.05 2443.15 3480.86 2443.15 Z" fill="#000000" fill-rule="nonzero" fill-opacity="1" /><path clip-path="url(#clip870)" d="M1891.36 2563.86 L1891.36 2582.76 L1885.47 2582.76 L1885.47 2533.56 L1891.36 2533.56 L1891.36 2538.97 Q1893.21 2535.78 1896.01 2534.26 Q1898.84 2532.7 1902.76 2532.7 Q1909.25 2532.7 1913.29 2537.85 Q1917.37 2543.01 1917.37 2551.41 Q1917.37 2559.81 1913.29 2564.97 Q1909.25 2570.13 1902.76 2570.13 Q1898.84 2570.13 1896.01 2568.6 Q1893.21 2567.04 1891.36 2563.86 M1911.29 2551.41 Q1911.29 2544.95 1908.61 2541.29 Q1905.97 2537.6 1901.33 2537.6 Q1896.68 2537.6 1894 2541.29 Q1891.36 2544.95 1891.36 2551.41 Q1891.36 2557.87 1894 2561.56 Q1896.68 2565.23 1901.33 2565.23 Q1905.97 2565.23 1908.61 2561.56 Q1911.29 2557.87 1911.29 2551.41 Z" fill="#000000" fill-rule="nonzero" fill-opacity="1" /><polyline clip-path="url(#clip872)" style="stroke:#222255; stroke-linecap:round; stroke-linejoin:round; stroke-width:2; stroke-opacity:0.5; fill:none" points="250.085,2330.3 3552.76,2330.3 "/>
<polyline clip-path="url(#clip872)" style="stroke:#222255; stroke-linecap:round; stroke-linejoin:round; stroke-width:2; stroke-opacity:0.5; fill:none" points="250.085,1793.7 3552.76,1793.7 "/>
<polyline clip-path="url(#clip872)" style="stroke:#222255; stroke-linecap:round; stroke-linejoin:round; stroke-width:2; stroke-opacity:0.5; fill:none" points="250.085,1257.09 3552.76,1257.09 "/>
<polyline clip-path="url(#clip872)" style="stroke:#222255; stroke-linecap:round; stroke-linejoin:round; stroke-width:2; stroke-opacity:0.5; fill:none" points="250.085,720.488 3552.76,720.488 "/>
<polyline clip-path="url(#clip872)" style="stroke:#222255; stroke-linecap:round; stroke-linejoin:round; stroke-width:2; stroke-opacity:0.5; fill:none" points="250.085,183.884 3552.76,183.884 "/>
<polyline clip-path="url(#clip872)" style="stroke:#222255; stroke-linecap:round; stroke-linejoin:round; stroke-width:2; stroke-opacity:0.3; fill:none" points="250.085,2222.98 3552.76,2222.98 "/>
<polyline clip-path="url(#clip872)" style="stroke:#222255; stroke-linecap:round; stroke-linejoin:round; stroke-width:2; stroke-opacity:0.3; fill:none" points="250.085,2115.66 3552.76,2115.66 "/>
<polyline clip-path="url(#clip872)" style="stroke:#222255; stroke-linecap:round; stroke-linejoin:round; stroke-width:2; stroke-opacity:0.3; fill:none" points="250.085,2008.34 3552.76,2008.34 "/>
<polyline clip-path="url(#clip872)" style="stroke:#222255; stroke-linecap:round; stroke-linejoin:round; stroke-width:2; stroke-opacity:0.3; fill:none" points="250.085,1901.02 3552.76,1901.02 "/>
<polyline clip-path="url(#clip872)" style="stroke:#222255; stroke-linecap:round; stroke-linejoin:round; stroke-width:2; stroke-opacity:0.3; fill:none" points="250.085,1686.38 3552.76,1686.38 "/>
<polyline clip-path="url(#clip872)" style="stroke:#222255; stroke-linecap:round; stroke-linejoin:round; stroke-width:2; stroke-opacity:0.3; fill:none" points="250.085,1579.06 3552.76,1579.06 "/>
<polyline clip-path="url(#clip872)" style="stroke:#222255; stroke-linecap:round; stroke-linejoin:round; stroke-width:2; stroke-opacity:0.3; fill:none" points="250.085,1471.73 3552.76,1471.73 "/>
<polyline clip-path="url(#clip872)" style="stroke:#222255; stroke-linecap:round; stroke-linejoin:round; stroke-width:2; stroke-opacity:0.3; fill:none" points="250.085,1364.41 3552.76,1364.41 "/>
<polyline clip-path="url(#clip872)" style="stroke:#222255; stroke-linecap:round; stroke-linejoin:round; stroke-width:2; stroke-opacity:0.3; fill:none" points="250.085,1149.77 3552.76,1149.77 "/>
<polyline clip-path="url(#clip872)" style="stroke:#222255; stroke-linecap:round; stroke-linejoin:round; stroke-width:2; stroke-opacity:0.3; fill:none" points="250.085,1042.45 3552.76,1042.45 "/>
<polyline clip-path="url(#clip872)" style="stroke:#222255; stroke-linecap:round; stroke-linejoin:round; stroke-width:2; stroke-opacity:0.3; fill:none" points="250.085,935.13 3552.76,935.13 "/>
<polyline clip-path="url(#clip872)" style="stroke:#222255; stroke-linecap:round; stroke-linejoin:round; stroke-width:2; stroke-opacity:0.3; fill:none" points="250.085,827.809 3552.76,827.809 "/>
<polyline clip-path="url(#clip872)" style="stroke:#222255; stroke-linecap:round; stroke-linejoin:round; stroke-width:2; stroke-opacity:0.3; fill:none" points="250.085,613.168 3552.76,613.168 "/>
<polyline clip-path="url(#clip872)" style="stroke:#222255; stroke-linecap:round; stroke-linejoin:round; stroke-width:2; stroke-opacity:0.3; fill:none" points="250.085,505.847 3552.76,505.847 "/>
<polyline clip-path="url(#clip872)" style="stroke:#222255; stroke-linecap:round; stroke-linejoin:round; stroke-width:2; stroke-opacity:0.3; fill:none" points="250.085,398.526 3552.76,398.526 "/>
<polyline clip-path="url(#clip872)" style="stroke:#222255; stroke-linecap:round; stroke-linejoin:round; stroke-width:2; stroke-opacity:0.3; fill:none" points="250.085,291.205 3552.76,291.205 "/>
<polyline clip-path="url(#clip870)" style="stroke:#222255; stroke-linecap:round; stroke-linejoin:round; stroke-width:4; stroke-opacity:0; fill:none" points="250.085,2330.3 268.983,2330.3 "/>
<polyline clip-path="url(#clip870)" style="stroke:#222255; stroke-linecap:round; stroke-linejoin:round; stroke-width:4; stroke-opacity:0; fill:none" points="250.085,1793.7 268.983,1793.7 "/>
<polyline clip-path="url(#clip870)" style="stroke:#222255; stroke-linecap:round; stroke-linejoin:round; stroke-width:4; stroke-opacity:0; fill:none" points="250.085,1257.09 268.983,1257.09 "/>
<polyline clip-path="url(#clip870)" style="stroke:#222255; stroke-linecap:round; stroke-linejoin:round; stroke-width:4; stroke-opacity:0; fill:none" points="250.085,720.488 268.983,720.488 "/>
<polyline clip-path="url(#clip870)" style="stroke:#222255; stroke-linecap:round; stroke-linejoin:round; stroke-width:4; stroke-opacity:0; fill:none" points="250.085,183.884 268.983,183.884 "/>
<polyline clip-path="url(#clip870)" style="stroke:#222255; stroke-linecap:round; stroke-linejoin:round; stroke-width:4; stroke-opacity:0; fill:none" points="250.085,2222.98 259.534,2222.98 "/>
<polyline clip-path="url(#clip870)" style="stroke:#222255; stroke-linecap:round; stroke-linejoin:round; stroke-width:4; stroke-opacity:0; fill:none" points="250.085,2115.66 259.534,2115.66 "/>
<polyline clip-path="url(#clip870)" style="stroke:#222255; stroke-linecap:round; stroke-linejoin:round; stroke-width:4; stroke-opacity:0; fill:none" points="250.085,2008.34 259.534,2008.34 "/>
<polyline clip-path="url(#clip870)" style="stroke:#222255; stroke-linecap:round; stroke-linejoin:round; stroke-width:4; stroke-opacity:0; fill:none" points="250.085,1901.02 259.534,1901.02 "/>
<polyline clip-path="url(#clip870)" style="stroke:#222255; stroke-linecap:round; stroke-linejoin:round; stroke-width:4; stroke-opacity:0; fill:none" points="250.085,1686.38 259.534,1686.38 "/>
<polyline clip-path="url(#clip870)" style="stroke:#222255; stroke-linecap:round; stroke-linejoin:round; stroke-width:4; stroke-opacity:0; fill:none" points="250.085,1579.06 259.534,1579.06 "/>
<polyline clip-path="url(#clip870)" style="stroke:#222255; stroke-linecap:round; stroke-linejoin:round; stroke-width:4; stroke-opacity:0; fill:none" points="250.085,1471.73 259.534,1471.73 "/>
<polyline clip-path="url(#clip870)" style="stroke:#222255; stroke-linecap:round; stroke-linejoin:round; stroke-width:4; stroke-opacity:0; fill:none" points="250.085,1364.41 259.534,1364.41 "/>
<polyline clip-path="url(#clip870)" style="stroke:#222255; stroke-linecap:round; stroke-linejoin:round; stroke-width:4; stroke-opacity:0; fill:none" points="250.085,1149.77 259.534,1149.77 "/>
<polyline clip-path="url(#clip870)" style="stroke:#222255; stroke-linecap:round; stroke-linejoin:round; stroke-width:4; stroke-opacity:0; fill:none" points="250.085,1042.45 259.534,1042.45 "/>
<polyline clip-path="url(#clip870)" style="stroke:#222255; stroke-linecap:round; stroke-linejoin:round; stroke-width:4; stroke-opacity:0; fill:none" points="250.085,935.13 259.534,935.13 "/>
<polyline clip-path="url(#clip870)" style="stroke:#222255; stroke-linecap:round; stroke-linejoin:round; stroke-width:4; stroke-opacity:0; fill:none" points="250.085,827.809 259.534,827.809 "/>
<polyline clip-path="url(#clip870)" style="stroke:#222255; stroke-linecap:round; stroke-linejoin:round; stroke-width:4; stroke-opacity:0; fill:none" points="250.085,613.168 259.534,613.168 "/>
<polyline clip-path="url(#clip870)" style="stroke:#222255; stroke-linecap:round; stroke-linejoin:round; stroke-width:4; stroke-opacity:0; fill:none" points="250.085,505.847 259.534,505.847 "/>
<polyline clip-path="url(#clip870)" style="stroke:#222255; stroke-linecap:round; stroke-linejoin:round; stroke-width:4; stroke-opacity:0; fill:none" points="250.085,398.526 259.534,398.526 "/>
<polyline clip-path="url(#clip870)" style="stroke:#222255; stroke-linecap:round; stroke-linejoin:round; stroke-width:4; stroke-opacity:0; fill:none" points="250.085,291.205 259.534,291.205 "/>
<path clip-path="url(#clip870)" d="M144.026 2313.02 L162.382 2313.02 L162.382 2316.96 L148.308 2316.96 L148.308 2325.43 Q149.326 2325.08 150.345 2324.92 Q151.363 2324.74 152.382 2324.74 Q158.169 2324.74 161.549 2327.91 Q164.928 2331.08 164.928 2336.49 Q164.928 2342.07 161.456 2345.17 Q157.984 2348.25 151.664 2348.25 Q149.488 2348.25 147.22 2347.88 Q144.975 2347.51 142.567 2346.77 L142.567 2342.07 Q144.651 2343.21 146.873 2343.76 Q149.095 2344.32 151.572 2344.32 Q155.576 2344.32 157.914 2342.21 Q160.252 2340.11 160.252 2336.49 Q160.252 2332.88 157.914 2330.78 Q155.576 2328.67 151.572 2328.67 Q149.697 2328.67 147.822 2329.09 Q145.97 2329.5 144.026 2330.38 L144.026 2313.02 Z" fill="#000000" fill-rule="nonzero" fill-opacity="1" /><path clip-path="url(#clip870)" d="M184.141 2316.1 Q180.53 2316.1 178.701 2319.67 Q176.896 2323.21 176.896 2330.34 Q176.896 2337.44 178.701 2341.01 Q180.53 2344.55 184.141 2344.55 Q187.775 2344.55 189.581 2341.01 Q191.41 2337.44 191.41 2330.34 Q191.41 2323.21 189.581 2319.67 Q187.775 2316.1 184.141 2316.1 M184.141 2312.4 Q189.951 2312.4 193.007 2317 Q196.085 2321.59 196.085 2330.34 Q196.085 2339.06 193.007 2343.67 Q189.951 2348.25 184.141 2348.25 Q178.331 2348.25 175.252 2343.67 Q172.197 2339.06 172.197 2330.34 Q172.197 2321.59 175.252 2317 Q178.331 2312.4 184.141 2312.4 Z" fill="#000000" fill-rule="nonzero" fill-opacity="1" /><path clip-path="url(#clip870)" d="M114.628 1807.04 L122.266 1807.04 L122.266 1780.68 L113.956 1782.34 L113.956 1778.08 L122.22 1776.42 L126.896 1776.42 L126.896 1807.04 L134.535 1807.04 L134.535 1810.98 L114.628 1810.98 L114.628 1807.04 Z" fill="#000000" fill-rule="nonzero" fill-opacity="1" /><path clip-path="url(#clip870)" d="M153.979 1779.5 Q150.368 1779.5 148.539 1783.06 Q146.734 1786.6 146.734 1793.73 Q146.734 1800.84 148.539 1804.4 Q150.368 1807.95 153.979 1807.95 Q157.613 1807.95 159.419 1804.4 Q161.248 1800.84 161.248 1793.73 Q161.248 1786.6 159.419 1783.06 Q157.613 1779.5 153.979 1779.5 M153.979 1775.79 Q159.789 1775.79 162.845 1780.4 Q165.924 1784.98 165.924 1793.73 Q165.924 1802.46 162.845 1807.07 Q159.789 1811.65 153.979 1811.65 Q148.169 1811.65 145.09 1807.07 Q142.035 1802.46 142.035 1793.73 Q142.035 1784.98 145.09 1780.4 Q148.169 1775.79 153.979 1775.79 Z" fill="#000000" fill-rule="nonzero" fill-opacity="1" /><path clip-path="url(#clip870)" d="M184.141 1779.5 Q180.53 1779.5 178.701 1783.06 Q176.896 1786.6 176.896 1793.73 Q176.896 1800.84 178.701 1804.4 Q180.53 1807.95 184.141 1807.95 Q187.775 1807.95 189.581 1804.4 Q191.41 1800.84 191.41 1793.73 Q191.41 1786.6 189.581 1783.06 Q187.775 1779.5 184.141 1779.5 M184.141 1775.79 Q189.951 1775.79 193.007 1780.4 Q196.085 1784.98 196.085 1793.73 Q196.085 1802.46 193.007 1807.07 Q189.951 1811.65 184.141 1811.65 Q178.331 1811.65 175.252 1807.07 Q172.197 1802.46 172.197 1793.73 Q172.197 1784.98 175.252 1780.4 Q178.331 1775.79 184.141 1775.79 Z" fill="#000000" fill-rule="nonzero" fill-opacity="1" /><path clip-path="url(#clip870)" d="M114.628 1270.44 L122.266 1270.44 L122.266 1244.07 L113.956 1245.74 L113.956 1241.48 L122.22 1239.81 L126.896 1239.81 L126.896 1270.44 L134.535 1270.44 L134.535 1274.37 L114.628 1274.37 L114.628 1270.44 Z" fill="#000000" fill-rule="nonzero" fill-opacity="1" /><path clip-path="url(#clip870)" d="M144.026 1239.81 L162.382 1239.81 L162.382 1243.75 L148.308 1243.75 L148.308 1252.22 Q149.326 1251.87 150.345 1251.71 Q151.363 1251.53 152.382 1251.53 Q158.169 1251.53 161.549 1254.7 Q164.928 1257.87 164.928 1263.29 Q164.928 1268.86 161.456 1271.97 Q157.984 1275.04 151.664 1275.04 Q149.488 1275.04 147.22 1274.67 Q144.975 1274.3 142.567 1273.56 L142.567 1268.86 Q144.651 1270 146.873 1270.55 Q149.095 1271.11 151.572 1271.11 Q155.576 1271.11 157.914 1269 Q160.252 1266.9 160.252 1263.29 Q160.252 1259.67 157.914 1257.57 Q155.576 1255.46 151.572 1255.46 Q149.697 1255.46 147.822 1255.88 Q145.97 1256.29 144.026 1257.17 L144.026 1239.81 Z" fill="#000000" fill-rule="nonzero" fill-opacity="1" /><path clip-path="url(#clip870)" d="M184.141 1242.89 Q180.53 1242.89 178.701 1246.46 Q176.896 1250 176.896 1257.13 Q176.896 1264.23 178.701 1267.8 Q180.53 1271.34 184.141 1271.34 Q187.775 1271.34 189.581 1267.8 Q191.41 1264.23 191.41 1257.13 Q191.41 1250 189.581 1246.46 Q187.775 1242.89 184.141 1242.89 M184.141 1239.19 Q189.951 1239.19 193.007 1243.79 Q196.085 1248.38 196.085 1257.13 Q196.085 1265.85 193.007 1270.46 Q189.951 1275.04 184.141 1275.04 Q178.331 1275.04 175.252 1270.46 Q172.197 1265.85 172.197 1257.13 Q172.197 1248.38 175.252 1243.79 Q178.331 1239.19 184.141 1239.19 Z" fill="#000000" fill-rule="nonzero" fill-opacity="1" /><path clip-path="url(#clip870)" d="M117.845 733.833 L134.164 733.833 L134.164 737.768 L112.22 737.768 L112.22 733.833 Q114.882 731.079 119.465 726.449 Q124.072 721.796 125.252 720.454 Q127.498 717.931 128.377 716.195 Q129.28 714.435 129.28 712.745 Q129.28 709.991 127.336 708.255 Q125.415 706.519 122.313 706.519 Q120.114 706.519 117.66 707.283 Q115.229 708.046 112.452 709.597 L112.452 704.875 Q115.276 703.741 117.729 703.162 Q120.183 702.583 122.22 702.583 Q127.59 702.583 130.785 705.269 Q133.979 707.954 133.979 712.445 Q133.979 714.574 133.169 716.495 Q132.382 718.394 130.276 720.986 Q129.697 721.657 126.595 724.875 Q123.493 728.069 117.845 733.833 Z" fill="#000000" fill-rule="nonzero" fill-opacity="1" /><path clip-path="url(#clip870)" d="M153.979 706.287 Q150.368 706.287 148.539 709.852 Q146.734 713.394 146.734 720.523 Q146.734 727.63 148.539 731.194 Q150.368 734.736 153.979 734.736 Q157.613 734.736 159.419 731.194 Q161.248 727.63 161.248 720.523 Q161.248 713.394 159.419 709.852 Q157.613 706.287 153.979 706.287 M153.979 702.583 Q159.789 702.583 162.845 707.19 Q165.924 711.773 165.924 720.523 Q165.924 729.25 162.845 733.856 Q159.789 738.44 153.979 738.44 Q148.169 738.44 145.09 733.856 Q142.035 729.25 142.035 720.523 Q142.035 711.773 145.09 707.19 Q148.169 702.583 153.979 702.583 Z" fill="#000000" fill-rule="nonzero" fill-opacity="1" /><path clip-path="url(#clip870)" d="M184.141 706.287 Q180.53 706.287 178.701 709.852 Q176.896 713.394 176.896 720.523 Q176.896 727.63 178.701 731.194 Q180.53 734.736 184.141 734.736 Q187.775 734.736 189.581 731.194 Q191.41 727.63 191.41 720.523 Q191.41 713.394 189.581 709.852 Q187.775 706.287 184.141 706.287 M184.141 702.583 Q189.951 702.583 193.007 707.19 Q196.085 711.773 196.085 720.523 Q196.085 729.25 193.007 733.856 Q189.951 738.44 184.141 738.44 Q178.331 738.44 175.252 733.856 Q172.197 729.25 172.197 720.523 Q172.197 711.773 175.252 707.19 Q178.331 702.583 184.141 702.583 Z" fill="#000000" fill-rule="nonzero" fill-opacity="1" /><path clip-path="url(#clip870)" d="M117.845 197.229 L134.164 197.229 L134.164 201.164 L112.22 201.164 L112.22 197.229 Q114.882 194.474 119.465 189.844 Q124.072 185.192 125.252 183.849 Q127.498 181.326 128.377 179.59 Q129.28 177.831 129.28 176.141 Q129.28 173.386 127.336 171.65 Q125.415 169.914 122.313 169.914 Q120.114 169.914 117.66 170.678 Q115.229 171.442 112.452 172.993 L112.452 168.271 Q115.276 167.136 117.729 166.558 Q120.183 165.979 122.22 165.979 Q127.59 165.979 130.785 168.664 Q133.979 171.349 133.979 175.84 Q133.979 177.97 133.169 179.891 Q132.382 181.789 130.276 184.382 Q129.697 185.053 126.595 188.27 Q123.493 191.465 117.845 197.229 Z" fill="#000000" fill-rule="nonzero" fill-opacity="1" /><path clip-path="url(#clip870)" d="M144.026 166.604 L162.382 166.604 L162.382 170.539 L148.308 170.539 L148.308 179.011 Q149.326 178.664 150.345 178.502 Q151.363 178.317 152.382 178.317 Q158.169 178.317 161.549 181.488 Q164.928 184.659 164.928 190.076 Q164.928 195.655 161.456 198.756 Q157.984 201.835 151.664 201.835 Q149.488 201.835 147.22 201.465 Q144.975 201.094 142.567 200.354 L142.567 195.655 Q144.651 196.789 146.873 197.344 Q149.095 197.9 151.572 197.9 Q155.576 197.9 157.914 195.794 Q160.252 193.687 160.252 190.076 Q160.252 186.465 157.914 184.358 Q155.576 182.252 151.572 182.252 Q149.697 182.252 147.822 182.669 Q145.97 183.085 144.026 183.965 L144.026 166.604 Z" fill="#000000" fill-rule="nonzero" fill-opacity="1" /><path clip-path="url(#clip870)" d="M184.141 169.683 Q180.53 169.683 178.701 173.247 Q176.896 176.789 176.896 183.919 Q176.896 191.025 178.701 194.59 Q180.53 198.131 184.141 198.131 Q187.775 198.131 189.581 194.59 Q191.41 191.025 191.41 183.919 Q191.41 176.789 189.581 173.247 Q187.775 169.683 184.141 169.683 M184.141 165.979 Q189.951 165.979 193.007 170.585 Q196.085 175.169 196.085 183.919 Q196.085 192.645 193.007 197.252 Q189.951 201.835 184.141 201.835 Q178.331 201.835 175.252 197.252 Q172.197 192.645 172.197 183.919 Q172.197 175.169 175.252 170.585 Q178.331 165.979 184.141 165.979 Z" fill="#000000" fill-rule="nonzero" fill-opacity="1" /><path clip-path="url(#clip870)" d="M21.1282 1244.04 Q23.0606 1244.04 26.4422 1244.78 Q29.8238 1245.49 31.4341 1246.07 Q35.7175 1247.68 39.3245 1250.9 Q41.3213 1252.67 42.7706 1254.6 Q44.1876 1256.5 44.8962 1257.92 Q45.5725 1259.33 45.9267 1261.01 Q46.3132 1262.68 46.3454 1263.46 Q46.4098 1264.23 46.4098 1265.32 L56.2326 1267.84 Q58.7769 1268.35 58.9379 1268.61 Q59.0667 1268.67 59.1311 1268.83 Q59.1956 1268.96 59.1956 1269.09 L59.1956 1269.22 Q59.1956 1269.58 59.0345 1269.77 Q58.8735 1269.96 58.6803 1269.99 L58.5192 1269.99 Q58.0684 1269.99 52.2713 1268.48 Q49.3084 1267.71 46.2488 1267.03 Q45.9267 1272.18 43.6401 1275.37 Q41.3535 1278.53 36.9091 1278.53 Q34.1716 1278.53 25.7659 1275.34 Q21.7401 1273.83 20.0654 1273.83 Q19.3247 1273.83 18.8738 1273.99 Q18.3907 1274.15 18.2297 1274.47 Q18.0365 1274.79 18.0043 1274.99 Q17.9721 1275.15 17.9721 1275.47 Q17.9721 1277.37 19.8722 1279.14 Q21.7723 1280.91 26.1523 1282.14 Q26.9575 1282.39 27.1507 1282.55 Q27.344 1282.72 27.344 1283.2 Q27.3118 1284 26.6676 1284 Q26.41 1284 25.4116 1283.71 Q24.381 1283.42 22.8673 1282.75 Q21.3215 1282.04 19.9366 1281.07 Q18.5196 1280.11 17.5212 1278.59 Q16.5228 1277.05 16.5228 1275.28 Q16.5228 1272.86 18.1009 1271.38 Q19.6468 1269.87 21.9334 1269.87 Q22.3843 1269.87 22.8996 1269.96 Q23.4148 1270.06 23.7047 1270.16 Q23.9946 1270.22 24.542 1270.41 Q25.0573 1270.57 25.154 1270.61 Q29.4051 1272.25 32.1748 1273.09 Q34.9123 1273.92 35.7175 1274.05 Q36.4904 1274.15 37.4244 1274.15 Q43.93 1274.15 44.7995 1266.64 L1.22501 1255.69 Q0.323242 1255.5 0.130007 1255.34 Q-0.095434 1255.18 -0.095434 1254.7 Q-0.095434 1253.92 0.613095 1253.92 Q0.838536 1253.92 1.61148 1254.12 L44.9284 1265 Q44.9284 1263.97 44.8962 1263.33 Q44.8639 1262.68 44.5741 1261.33 Q44.252 1259.95 43.6723 1258.79 Q43.0926 1257.59 41.9332 1255.92 Q40.7416 1254.25 39.0669 1252.6 Q36.9735 1250.54 33.4631 1248.71 Q29.9526 1246.87 27.0541 1246.87 Q23.8013 1246.87 21.4503 1249.22 Q21.1282 1249.58 20.935 1249.77 Q20.7418 1249.93 20.4197 1250.09 Q20.0976 1250.22 19.679 1250.22 Q18.584 1250.22 17.5534 1249.19 Q16.5228 1248.16 16.5228 1246.93 Q16.5228 1245.84 17.5856 1244.94 Q18.6484 1244.04 21.1282 1244.04 Z" fill="#000000" fill-rule="nonzero" fill-opacity="1" /><path clip-path="url(#clip870)" d="M273.523 34.2568 Q278.558 35.3331 281.37 38.7359 Q284.217 42.1387 284.217 47.1386 Q284.217 54.8122 278.939 59.0136 Q273.662 63.2149 263.94 63.2149 Q260.676 63.2149 257.203 62.5552 Q253.766 61.9302 250.085 60.6455 L250.085 53.8747 Q253.002 55.5761 256.474 56.4441 Q259.947 57.3122 263.731 57.3122 Q270.328 57.3122 273.766 54.708 Q277.238 52.1039 277.238 47.1386 Q277.238 42.5553 274.009 39.9859 Q270.815 37.3817 265.085 37.3817 L259.044 37.3817 L259.044 31.6179 L265.363 31.6179 Q270.537 31.6179 273.28 29.5693 Q276.023 27.486 276.023 23.5971 Q276.023 19.6041 273.176 17.486 Q270.363 15.3333 265.085 15.3333 Q262.203 15.3333 258.905 15.9582 Q255.606 16.5832 251.648 17.9027 L251.648 11.6527 Q255.641 10.5416 259.113 9.98606 Q262.62 9.43051 265.71 9.43051 Q273.696 9.43051 278.349 13.0763 Q283.002 16.6874 283.002 22.8679 Q283.002 27.1735 280.537 30.1596 Q278.071 33.1109 273.523 34.2568 Z" fill="#000000" fill-rule="nonzero" fill-opacity="1" /><path clip-path="url(#clip870)" d="M297.516 53.3886 L304.842 53.3886 L304.842 62.208 L297.516 62.208 L297.516 53.3886 Z" fill="#000000" fill-rule="nonzero" fill-opacity="1" /><path clip-path="url(#clip870)" d="M326.161 56.3053 L350.64 56.3053 L350.64 62.208 L317.724 62.208 L317.724 56.3053 Q321.717 52.1733 328.592 45.2289 Q335.502 38.2498 337.272 36.2359 Q340.641 32.4512 341.96 29.8471 Q343.314 27.2082 343.314 24.6735 Q343.314 20.5416 340.397 17.9374 Q337.516 15.3333 332.863 15.3333 Q329.564 15.3333 325.884 16.4791 Q322.238 17.6249 318.071 19.9513 L318.071 12.868 Q322.307 11.1666 325.988 10.2986 Q329.668 9.43051 332.724 9.43051 Q340.779 9.43051 345.571 13.4583 Q350.363 17.486 350.363 24.2221 Q350.363 27.4165 349.147 30.2984 Q347.967 33.1457 344.807 37.0345 Q343.939 38.0415 339.286 42.8678 Q334.634 47.6595 326.161 56.3053 Z" fill="#000000" fill-rule="nonzero" fill-opacity="1" /><path clip-path="url(#clip870)" d="M365.363 53.3886 L372.689 53.3886 L372.689 62.208 L365.363 62.208 L365.363 53.3886 Z" fill="#000000" fill-rule="nonzero" fill-opacity="1" /><path clip-path="url(#clip870)" d="M394.008 56.3053 L418.487 56.3053 L418.487 62.208 L385.571 62.208 L385.571 56.3053 Q389.564 52.1733 396.439 45.2289 Q403.349 38.2498 405.119 36.2359 Q408.487 32.4512 409.807 29.8471 Q411.161 27.2082 411.161 24.6735 Q411.161 20.5416 408.244 17.9374 Q405.362 15.3333 400.71 15.3333 Q397.411 15.3333 393.731 16.4791 Q390.085 17.6249 385.918 19.9513 L385.918 12.868 Q390.154 11.1666 393.835 10.2986 Q397.515 9.43051 400.571 9.43051 Q408.626 9.43051 413.418 13.4583 Q418.21 17.486 418.21 24.2221 Q418.21 27.4165 416.994 30.2984 Q415.814 33.1457 412.654 37.0345 Q411.786 38.0415 407.133 42.8678 Q402.48 47.6595 394.008 56.3053 Z" fill="#000000" fill-rule="nonzero" fill-opacity="1" /><path clip-path="url(#clip870)" d="M455.189 10.368 L487.966 10.368 L487.966 16.2707 L462.202 16.2707 L462.202 31.6179 L486.89 31.6179 L486.89 37.5206 L462.202 37.5206 L462.202 56.3053 L488.591 56.3053 L488.591 62.208 L455.189 62.208 L455.189 10.368 Z" fill="#000000" fill-rule="nonzero" fill-opacity="1" /><path clip-path="url(#clip870)" d="M522.376 29.2915 Q521.299 28.6665 520.015 28.3887 Q518.765 28.0762 517.237 28.0762 Q511.82 28.0762 508.904 31.6179 Q506.022 35.1248 506.022 41.722 L506.022 62.208 L499.598 62.208 L499.598 23.3193 L506.022 23.3193 L506.022 29.361 Q508.035 25.8193 511.265 24.1179 Q514.494 22.3818 519.112 22.3818 Q519.772 22.3818 520.57 22.486 Q521.369 22.5554 522.341 22.729 L522.376 29.2915 Z" fill="#000000" fill-rule="nonzero" fill-opacity="1" /><path clip-path="url(#clip870)" d="M553.417 29.2221 L553.417 8.18051 L559.806 8.18051 L559.806 62.208 L553.417 62.208 L553.417 56.3747 Q551.403 59.8469 548.313 61.5483 Q545.257 63.2149 540.952 63.2149 Q533.903 63.2149 529.459 57.59 Q525.049 51.965 525.049 42.7984 Q525.049 33.6318 529.459 28.0068 Q533.903 22.3818 540.952 22.3818 Q545.257 22.3818 548.313 24.0832 Q551.403 25.7499 553.417 29.2221 M531.646 42.7984 Q531.646 49.847 534.528 53.8747 Q537.445 57.8677 542.514 57.8677 Q547.584 57.8677 550.501 53.8747 Q553.417 49.847 553.417 42.7984 Q553.417 35.7498 550.501 31.7568 Q547.584 27.729 542.514 27.729 Q537.445 27.729 534.528 31.7568 Q531.646 35.7498 531.646 42.7984 Z" fill="#000000" fill-rule="nonzero" fill-opacity="1" /><path clip-path="url(#clip870)" d="M598.347 5.3333 L604.528 5.3333 L595.917 18.3888 L591.229 18.3888 L598.347 5.3333 M586.75 5.3333 L592.653 5.3333 L584.91 18.3888 L580.153 18.3888 L586.75 5.3333 M588.035 27.7985 Q582.896 27.7985 579.91 31.8262 Q576.924 35.8193 576.924 42.7984 Q576.924 49.7775 579.875 53.8053 Q582.861 57.7983 588.035 57.7983 Q593.139 57.7983 596.125 53.7705 Q599.111 49.7428 599.111 42.7984 Q599.111 35.8887 596.125 31.8609 Q593.139 27.7985 588.035 27.7985 M588.035 22.3818 Q596.368 22.3818 601.125 27.7985 Q605.882 33.2151 605.882 42.7984 Q605.882 52.3469 601.125 57.7983 Q596.368 63.2149 588.035 63.2149 Q579.667 63.2149 574.91 57.7983 Q570.188 52.3469 570.188 42.7984 Q570.188 33.2151 574.91 27.7985 Q579.667 22.3818 588.035 22.3818 Z" fill="#000000" fill-rule="nonzero" fill-opacity="1" /><path clip-path="url(#clip870)" d="M641.264 24.4651 L641.264 30.5068 Q638.556 29.1179 635.639 28.4235 Q632.722 27.729 629.597 27.729 Q624.84 27.729 622.445 29.1873 Q620.083 30.6457 620.083 33.5623 Q620.083 35.7845 621.785 37.0692 Q623.486 38.3192 628.625 39.4651 L630.813 39.9512 Q637.618 41.4095 640.465 44.0831 Q643.347 46.722 643.347 51.4789 Q643.347 56.8955 639.042 60.0552 Q634.771 63.2149 627.271 63.2149 Q624.146 63.2149 620.743 62.5899 Q617.375 61.9997 613.625 60.7844 L613.625 54.1872 Q617.167 56.0275 620.604 56.965 Q624.042 57.8677 627.41 57.8677 Q631.924 57.8677 634.354 56.34 Q636.785 54.7775 636.785 51.965 Q636.785 49.3608 635.014 47.972 Q633.278 46.5831 627.34 45.2984 L625.118 44.7775 Q619.181 43.5275 616.542 40.9581 Q613.903 38.354 613.903 33.8401 Q613.903 28.354 617.792 25.3679 Q621.681 22.3818 628.833 22.3818 Q632.375 22.3818 635.5 22.9027 Q638.625 23.4235 641.264 24.4651 Z" fill="#000000" fill-rule="nonzero" fill-opacity="1" /><path clip-path="url(#clip870)" d="M650.292 40.229 L678.903 40.229 L678.903 45.2289 L650.292 45.2289 L650.292 40.229 Z" fill="#000000" fill-rule="nonzero" fill-opacity="1" /><path clip-path="url(#clip870)" d="M713.937 37.9026 Q716.194 38.6665 718.312 41.1664 Q720.465 43.6664 722.618 48.0414 L729.736 62.208 L722.201 62.208 L715.569 48.9095 Q713 43.7012 710.569 41.9998 Q708.173 40.2984 704.007 40.2984 L696.368 40.2984 L696.368 62.208 L689.354 62.208 L689.354 10.368 L705.187 10.368 Q714.076 10.368 718.451 14.0833 Q722.826 17.7985 722.826 25.2985 Q722.826 30.1943 720.534 33.4234 Q718.277 36.6526 713.937 37.9026 M696.368 16.1319 L696.368 34.5345 L705.187 34.5345 Q710.257 34.5345 712.826 32.2082 Q715.43 29.8471 715.43 25.2985 Q715.43 20.7499 712.826 18.4582 Q710.257 16.1319 705.187 16.1319 L696.368 16.1319 Z" fill="#000000" fill-rule="nonzero" fill-opacity="1" /><path clip-path="url(#clip870)" d="M768.555 41.1664 L768.555 44.2914 L739.18 44.2914 Q739.597 50.8886 743.138 54.3608 Q746.715 57.7983 753.069 57.7983 Q756.749 57.7983 760.187 56.8955 Q763.659 55.9928 767.062 54.1872 L767.062 60.2288 Q763.624 61.6872 760.013 62.4511 Q756.402 63.2149 752.687 63.2149 Q743.381 63.2149 737.93 57.7983 Q732.513 52.3817 732.513 43.1456 Q732.513 33.597 737.652 28.0068 Q742.826 22.3818 751.576 22.3818 Q759.423 22.3818 763.972 27.4512 Q768.555 32.4859 768.555 41.1664 M762.166 39.2915 Q762.097 34.0484 759.215 30.9234 Q756.367 27.7985 751.645 27.7985 Q746.298 27.7985 743.069 30.8193 Q739.874 33.8401 739.388 39.3262 L762.166 39.2915 M756.02 5.3333 L762.93 5.3333 L751.611 18.3888 L746.298 18.3888 L756.02 5.3333 Z" fill="#000000" fill-rule="nonzero" fill-opacity="1" /><path clip-path="url(#clip870)" d="M811.367 38.7359 L811.367 62.208 L804.978 62.208 L804.978 38.9442 Q804.978 33.4234 802.826 30.6804 Q800.673 27.9374 796.367 27.9374 Q791.194 27.9374 788.208 31.2359 Q785.221 34.5345 785.221 40.229 L785.221 62.208 L778.798 62.208 L778.798 23.3193 L785.221 23.3193 L785.221 29.361 Q787.513 25.854 790.603 24.1179 Q793.728 22.3818 797.791 22.3818 Q804.492 22.3818 807.93 26.5485 Q811.367 30.6804 811.367 38.7359 Z" fill="#000000" fill-rule="nonzero" fill-opacity="1" /><path clip-path="url(#clip870)" d="M840.291 65.8191 Q837.582 72.7635 835.013 74.8815 Q832.443 76.9996 828.138 76.9996 L823.034 76.9996 L823.034 71.6524 L826.784 71.6524 Q829.423 71.6524 830.881 70.4024 Q832.339 69.1524 834.11 64.4997 L835.256 61.583 L819.527 23.3193 L826.298 23.3193 L838.45 53.7358 L850.603 23.3193 L857.374 23.3193 L840.291 65.8191 Z" fill="#000000" fill-rule="nonzero" fill-opacity="1" /><path clip-path="url(#clip870)" d="M866.193 23.3193 L872.582 23.3193 L872.582 62.208 L866.193 62.208 L866.193 23.3193 M866.193 8.18051 L872.582 8.18051 L872.582 16.2707 L866.193 16.2707 L866.193 8.18051 Z" fill="#000000" fill-rule="nonzero" fill-opacity="1" /><path clip-path="url(#clip870)" d="M923.901 8.24996 Q919.249 16.236 916.992 24.0485 Q914.735 31.8609 914.735 39.8817 Q914.735 47.9025 916.992 55.7844 Q919.283 63.6316 923.901 71.5829 L918.346 71.5829 Q913.137 63.4233 910.533 55.5414 Q907.964 47.6595 907.964 39.8817 Q907.964 32.1387 910.533 24.2915 Q913.103 16.4444 918.346 8.24996 L923.901 8.24996 Z" fill="#000000" fill-rule="nonzero" fill-opacity="1" /><path clip-path="url(#clip870)" d="M968.623 38.7359 L968.623 62.208 L962.234 62.208 L962.234 38.9442 Q962.234 33.4234 960.082 30.6804 Q957.929 27.9374 953.623 27.9374 Q948.45 27.9374 945.464 31.2359 Q942.478 34.5345 942.478 40.229 L942.478 62.208 L936.054 62.208 L936.054 23.3193 L942.478 23.3193 L942.478 29.361 Q944.769 25.854 947.859 24.1179 Q950.984 22.3818 955.047 22.3818 Q961.748 22.3818 965.186 26.5485 Q968.623 30.6804 968.623 38.7359 Z" fill="#000000" fill-rule="nonzero" fill-opacity="1" /><path clip-path="url(#clip870)" d="M1004.8 29.9165 L1049.32 29.9165 L1049.32 35.7498 L1004.8 35.7498 L1004.8 29.9165 M1004.8 44.0831 L1049.32 44.0831 L1049.32 49.9858 L1004.8 49.9858 L1004.8 44.0831 Z" fill="#000000" fill-rule="nonzero" fill-opacity="1" /><path clip-path="url(#clip870)" d="M1088.28 56.3053 L1099.73 56.3053 L1099.73 16.7569 L1087.27 19.2568 L1087.27 12.868 L1099.66 10.368 L1106.68 10.368 L1106.68 56.3053 L1118.14 56.3053 L1118.14 62.208 L1088.28 62.208 L1088.28 56.3053 Z" fill="#000000" fill-rule="nonzero" fill-opacity="1" /><path clip-path="url(#clip870)" d="M1130.39 8.24996 L1135.95 8.24996 Q1141.16 16.4444 1143.73 24.2915 Q1146.33 32.1387 1146.33 39.8817 Q1146.33 47.6595 1143.73 55.5414 Q1141.16 63.4233 1135.95 71.5829 L1130.39 71.5829 Q1135.01 63.6316 1137.27 55.7844 Q1139.56 47.9025 1139.56 39.8817 Q1139.56 31.8609 1137.27 24.0485 Q1135.01 16.236 1130.39 8.24996 Z" fill="#000000" fill-rule="nonzero" fill-opacity="1" /><circle clip-path="url(#clip872)" cx="343.557" cy="2341.61" r="21.6" fill="#ee7733" fill-rule="evenodd" fill-opacity="1" stroke="#000000" stroke-opacity="1" stroke-width="0"/>
<circle clip-path="url(#clip872)" cx="350.988" cy="2300.43" r="21.6" fill="#ee7733" fill-rule="evenodd" fill-opacity="1" stroke="#000000" stroke-opacity="1" stroke-width="0"/>
<circle clip-path="url(#clip872)" cx="358.961" cy="2287.99" r="21.6" fill="#ee7733" fill-rule="evenodd" fill-opacity="1" stroke="#000000" stroke-opacity="1" stroke-width="0"/>
<circle clip-path="url(#clip872)" cx="367.517" cy="2268.82" r="21.6" fill="#ee7733" fill-rule="evenodd" fill-opacity="1" stroke="#000000" stroke-opacity="1" stroke-width="0"/>
<circle clip-path="url(#clip872)" cx="376.697" cy="2244.72" r="21.6" fill="#ee7733" fill-rule="evenodd" fill-opacity="1" stroke="#000000" stroke-opacity="1" stroke-width="0"/>
<circle clip-path="url(#clip872)" cx="386.548" cy="2230.86" r="21.6" fill="#ee7733" fill-rule="evenodd" fill-opacity="1" stroke="#000000" stroke-opacity="1" stroke-width="0"/>
<circle clip-path="url(#clip872)" cx="397.118" cy="2219.88" r="21.6" fill="#ee7733" fill-rule="evenodd" fill-opacity="1" stroke="#000000" stroke-opacity="1" stroke-width="0"/>
<circle clip-path="url(#clip872)" cx="408.46" cy="2212.04" r="21.6" fill="#ee7733" fill-rule="evenodd" fill-opacity="1" stroke="#000000" stroke-opacity="1" stroke-width="0"/>
<circle clip-path="url(#clip872)" cx="420.63" cy="2180.41" r="21.6" fill="#ee7733" fill-rule="evenodd" fill-opacity="1" stroke="#000000" stroke-opacity="1" stroke-width="0"/>
<circle clip-path="url(#clip872)" cx="433.69" cy="2169.68" r="21.6" fill="#ee7733" fill-rule="evenodd" fill-opacity="1" stroke="#000000" stroke-opacity="1" stroke-width="0"/>
<circle clip-path="url(#clip872)" cx="447.703" cy="2146.95" r="21.6" fill="#ee7733" fill-rule="evenodd" fill-opacity="1" stroke="#000000" stroke-opacity="1" stroke-width="0"/>
<circle clip-path="url(#clip872)" cx="462.739" cy="2127.79" r="21.6" fill="#ee7733" fill-rule="evenodd" fill-opacity="1" stroke="#000000" stroke-opacity="1" stroke-width="0"/>
<circle clip-path="url(#clip872)" cx="478.874" cy="2108.29" r="21.6" fill="#ee7733" fill-rule="evenodd" fill-opacity="1" stroke="#000000" stroke-opacity="1" stroke-width="0"/>
<circle clip-path="url(#clip872)" cx="496.187" cy="2089.66" r="21.6" fill="#ee7733" fill-rule="evenodd" fill-opacity="1" stroke="#000000" stroke-opacity="1" stroke-width="0"/>
<circle clip-path="url(#clip872)" cx="514.764" cy="2077.73" r="21.6" fill="#ee7733" fill-rule="evenodd" fill-opacity="1" stroke="#000000" stroke-opacity="1" stroke-width="0"/>
<circle clip-path="url(#clip872)" cx="534.698" cy="2055.87" r="21.6" fill="#ee7733" fill-rule="evenodd" fill-opacity="1" stroke="#000000" stroke-opacity="1" stroke-width="0"/>
<circle clip-path="url(#clip872)" cx="556.087" cy="2049.21" r="21.6" fill="#ee7733" fill-rule="evenodd" fill-opacity="1" stroke="#000000" stroke-opacity="1" stroke-width="0"/>
<circle clip-path="url(#clip872)" cx="579.039" cy="2033.15" r="21.6" fill="#ee7733" fill-rule="evenodd" fill-opacity="1" stroke="#000000" stroke-opacity="1" stroke-width="0"/>
<circle clip-path="url(#clip872)" cx="603.667" cy="2025.49" r="21.6" fill="#ee7733" fill-rule="evenodd" fill-opacity="1" stroke="#000000" stroke-opacity="1" stroke-width="0"/>
<circle clip-path="url(#clip872)" cx="630.094" cy="2017.21" r="21.6" fill="#ee7733" fill-rule="evenodd" fill-opacity="1" stroke="#000000" stroke-opacity="1" stroke-width="0"/>
<circle clip-path="url(#clip872)" cx="658.451" cy="2011.1" r="21.6" fill="#ee7733" fill-rule="evenodd" fill-opacity="1" stroke="#000000" stroke-opacity="1" stroke-width="0"/>
<circle clip-path="url(#clip872)" cx="688.878" cy="2006.12" r="21.6" fill="#ee7733" fill-rule="evenodd" fill-opacity="1" stroke="#000000" stroke-opacity="1" stroke-width="0"/>
<circle clip-path="url(#clip872)" cx="721.528" cy="2002.38" r="21.6" fill="#ee7733" fill-rule="evenodd" fill-opacity="1" stroke="#000000" stroke-opacity="1" stroke-width="0"/>
<circle clip-path="url(#clip872)" cx="756.562" cy="1993.73" r="21.6" fill="#ee7733" fill-rule="evenodd" fill-opacity="1" stroke="#000000" stroke-opacity="1" stroke-width="0"/>
<circle clip-path="url(#clip872)" cx="794.155" cy="1988.43" r="21.6" fill="#ee7733" fill-rule="evenodd" fill-opacity="1" stroke="#000000" stroke-opacity="1" stroke-width="0"/>
<circle clip-path="url(#clip872)" cx="834.493" cy="1980.54" r="21.6" fill="#ee7733" fill-rule="evenodd" fill-opacity="1" stroke="#000000" stroke-opacity="1" stroke-width="0"/>
<circle clip-path="url(#clip872)" cx="877.777" cy="1974.6" r="21.6" fill="#ee7733" fill-rule="evenodd" fill-opacity="1" stroke="#000000" stroke-opacity="1" stroke-width="0"/>
<circle clip-path="url(#clip872)" cx="924.222" cy="1965.66" r="21.6" fill="#ee7733" fill-rule="evenodd" fill-opacity="1" stroke="#000000" stroke-opacity="1" stroke-width="0"/>
<circle clip-path="url(#clip872)" cx="974.059" cy="1958.71" r="21.6" fill="#ee7733" fill-rule="evenodd" fill-opacity="1" stroke="#000000" stroke-opacity="1" stroke-width="0"/>
<circle clip-path="url(#clip872)" cx="1027.54" cy="1949.99" r="21.6" fill="#ee7733" fill-rule="evenodd" fill-opacity="1" stroke="#000000" stroke-opacity="1" stroke-width="0"/>
<circle clip-path="url(#clip872)" cx="1084.92" cy="1940.7" r="21.6" fill="#ee7733" fill-rule="evenodd" fill-opacity="1" stroke="#000000" stroke-opacity="1" stroke-width="0"/>
<circle clip-path="url(#clip872)" cx="1146.49" cy="1930.3" r="21.6" fill="#ee7733" fill-rule="evenodd" fill-opacity="1" stroke="#000000" stroke-opacity="1" stroke-width="0"/>
<circle clip-path="url(#clip872)" cx="1212.56" cy="1918.1" r="21.6" fill="#ee7733" fill-rule="evenodd" fill-opacity="1" stroke="#000000" stroke-opacity="1" stroke-width="0"/>
<circle clip-path="url(#clip872)" cx="1283.45" cy="1904.83" r="21.6" fill="#ee7733" fill-rule="evenodd" fill-opacity="1" stroke="#000000" stroke-opacity="1" stroke-width="0"/>
<circle clip-path="url(#clip872)" cx="1359.53" cy="1894.51" r="21.6" fill="#ee7733" fill-rule="evenodd" fill-opacity="1" stroke="#000000" stroke-opacity="1" stroke-width="0"/>
<circle clip-path="url(#clip872)" cx="1441.15" cy="1878.94" r="21.6" fill="#ee7733" fill-rule="evenodd" fill-opacity="1" stroke="#000000" stroke-opacity="1" stroke-width="0"/>
<circle clip-path="url(#clip872)" cx="1528.74" cy="1861.37" r="21.6" fill="#ee7733" fill-rule="evenodd" fill-opacity="1" stroke="#000000" stroke-opacity="1" stroke-width="0"/>
<circle clip-path="url(#clip872)" cx="1622.73" cy="1839.52" r="21.6" fill="#ee7733" fill-rule="evenodd" fill-opacity="1" stroke="#000000" stroke-opacity="1" stroke-width="0"/>
<circle clip-path="url(#clip872)" cx="1723.58" cy="1821.14" r="21.6" fill="#ee7733" fill-rule="evenodd" fill-opacity="1" stroke="#000000" stroke-opacity="1" stroke-width="0"/>
<circle clip-path="url(#clip872)" cx="1831.79" cy="1799.87" r="21.6" fill="#ee7733" fill-rule="evenodd" fill-opacity="1" stroke="#000000" stroke-opacity="1" stroke-width="0"/>
<circle clip-path="url(#clip872)" cx="1947.91" cy="1773.93" r="21.6" fill="#ee7733" fill-rule="evenodd" fill-opacity="1" stroke="#000000" stroke-opacity="1" stroke-width="0"/>
<circle clip-path="url(#clip872)" cx="2072.51" cy="1741.26" r="21.6" fill="#ee7733" fill-rule="evenodd" fill-opacity="1" stroke="#000000" stroke-opacity="1" stroke-width="0"/>
<circle clip-path="url(#clip872)" cx="2206.21" cy="1706.58" r="21.6" fill="#ee7733" fill-rule="evenodd" fill-opacity="1" stroke="#000000" stroke-opacity="1" stroke-width="0"/>
<circle clip-path="url(#clip872)" cx="2349.67" cy="1665.11" r="21.6" fill="#ee7733" fill-rule="evenodd" fill-opacity="1" stroke="#000000" stroke-opacity="1" stroke-width="0"/>
<circle clip-path="url(#clip872)" cx="2503.61" cy="1623.69" r="21.6" fill="#ee7733" fill-rule="evenodd" fill-opacity="1" stroke="#000000" stroke-opacity="1" stroke-width="0"/>
<circle clip-path="url(#clip872)" cx="2668.79" cy="1579.16" r="21.6" fill="#ee7733" fill-rule="evenodd" fill-opacity="1" stroke="#000000" stroke-opacity="1" stroke-width="0"/>
<circle clip-path="url(#clip872)" cx="2846.03" cy="1520" r="21.6" fill="#ee7733" fill-rule="evenodd" fill-opacity="1" stroke="#000000" stroke-opacity="1" stroke-width="0"/>
<circle clip-path="url(#clip872)" cx="3036.22" cy="1442.64" r="21.6" fill="#ee7733" fill-rule="evenodd" fill-opacity="1" stroke="#000000" stroke-opacity="1" stroke-width="0"/>
<circle clip-path="url(#clip872)" cx="3240.3" cy="1359.25" r="21.6" fill="#ee7733" fill-rule="evenodd" fill-opacity="1" stroke="#000000" stroke-opacity="1" stroke-width="0"/>
<circle clip-path="url(#clip872)" cx="3459.28" cy="1257.09" r="21.6" fill="#ee7733" fill-rule="evenodd" fill-opacity="1" stroke="#000000" stroke-opacity="1" stroke-width="0"/>
<circle clip-path="url(#clip872)" cx="343.557" cy="2078.16" r="21.6" fill="#0077bb" fill-rule="evenodd" fill-opacity="1" stroke="#000000" stroke-opacity="1" stroke-width="0"/>
<circle clip-path="url(#clip872)" cx="350.988" cy="2042.95" r="21.6" fill="#0077bb" fill-rule="evenodd" fill-opacity="1" stroke="#000000" stroke-opacity="1" stroke-width="0"/>
<circle clip-path="url(#clip872)" cx="358.961" cy="2029.61" r="21.6" fill="#0077bb" fill-rule="evenodd" fill-opacity="1" stroke="#000000" stroke-opacity="1" stroke-width="0"/>
<circle clip-path="url(#clip872)" cx="367.517" cy="2011.97" r="21.6" fill="#0077bb" fill-rule="evenodd" fill-opacity="1" stroke="#000000" stroke-opacity="1" stroke-width="0"/>
<circle clip-path="url(#clip872)" cx="376.697" cy="2007.6" r="21.6" fill="#0077bb" fill-rule="evenodd" fill-opacity="1" stroke="#000000" stroke-opacity="1" stroke-width="0"/>
<circle clip-path="url(#clip872)" cx="386.548" cy="1983.15" r="21.6" fill="#0077bb" fill-rule="evenodd" fill-opacity="1" stroke="#000000" stroke-opacity="1" stroke-width="0"/>
<circle clip-path="url(#clip872)" cx="397.118" cy="1957.03" r="21.6" fill="#0077bb" fill-rule="evenodd" fill-opacity="1" stroke="#000000" stroke-opacity="1" stroke-width="0"/>
<circle clip-path="url(#clip872)" cx="408.46" cy="1931.41" r="21.6" fill="#0077bb" fill-rule="evenodd" fill-opacity="1" stroke="#000000" stroke-opacity="1" stroke-width="0"/>
<circle clip-path="url(#clip872)" cx="420.63" cy="1909.91" r="21.6" fill="#0077bb" fill-rule="evenodd" fill-opacity="1" stroke="#000000" stroke-opacity="1" stroke-width="0"/>
<circle clip-path="url(#clip872)" cx="433.69" cy="1896.57" r="21.6" fill="#0077bb" fill-rule="evenodd" fill-opacity="1" stroke="#000000" stroke-opacity="1" stroke-width="0"/>
<circle clip-path="url(#clip872)" cx="447.703" cy="1862.08" r="21.6" fill="#0077bb" fill-rule="evenodd" fill-opacity="1" stroke="#000000" stroke-opacity="1" stroke-width="0"/>
<circle clip-path="url(#clip872)" cx="462.739" cy="1841.24" r="21.6" fill="#0077bb" fill-rule="evenodd" fill-opacity="1" stroke="#000000" stroke-opacity="1" stroke-width="0"/>
<circle clip-path="url(#clip872)" cx="478.874" cy="1817.03" r="21.6" fill="#0077bb" fill-rule="evenodd" fill-opacity="1" stroke="#000000" stroke-opacity="1" stroke-width="0"/>
<circle clip-path="url(#clip872)" cx="496.187" cy="1790.95" r="21.6" fill="#0077bb" fill-rule="evenodd" fill-opacity="1" stroke="#000000" stroke-opacity="1" stroke-width="0"/>
<circle clip-path="url(#clip872)" cx="514.764" cy="1781.71" r="21.6" fill="#0077bb" fill-rule="evenodd" fill-opacity="1" stroke="#000000" stroke-opacity="1" stroke-width="0"/>
<circle clip-path="url(#clip872)" cx="534.698" cy="1766.44" r="21.6" fill="#0077bb" fill-rule="evenodd" fill-opacity="1" stroke="#000000" stroke-opacity="1" stroke-width="0"/>
<circle clip-path="url(#clip872)" cx="556.087" cy="1753.99" r="21.6" fill="#0077bb" fill-rule="evenodd" fill-opacity="1" stroke="#000000" stroke-opacity="1" stroke-width="0"/>
<circle clip-path="url(#clip872)" cx="579.039" cy="1742.72" r="21.6" fill="#0077bb" fill-rule="evenodd" fill-opacity="1" stroke="#000000" stroke-opacity="1" stroke-width="0"/>
<circle clip-path="url(#clip872)" cx="603.667" cy="1735.45" r="21.6" fill="#0077bb" fill-rule="evenodd" fill-opacity="1" stroke="#000000" stroke-opacity="1" stroke-width="0"/>
<circle clip-path="url(#clip872)" cx="630.094" cy="1728.07" r="21.6" fill="#0077bb" fill-rule="evenodd" fill-opacity="1" stroke="#000000" stroke-opacity="1" stroke-width="0"/>
<circle clip-path="url(#clip872)" cx="658.451" cy="1721.86" r="21.6" fill="#0077bb" fill-rule="evenodd" fill-opacity="1" stroke="#000000" stroke-opacity="1" stroke-width="0"/>
<circle clip-path="url(#clip872)" cx="688.878" cy="1714.14" r="21.6" fill="#0077bb" fill-rule="evenodd" fill-opacity="1" stroke="#000000" stroke-opacity="1" stroke-width="0"/>
<circle clip-path="url(#clip872)" cx="721.528" cy="1708.39" r="21.6" fill="#0077bb" fill-rule="evenodd" fill-opacity="1" stroke="#000000" stroke-opacity="1" stroke-width="0"/>
<circle clip-path="url(#clip872)" cx="756.562" cy="1702.69" r="21.6" fill="#0077bb" fill-rule="evenodd" fill-opacity="1" stroke="#000000" stroke-opacity="1" stroke-width="0"/>
<circle clip-path="url(#clip872)" cx="794.155" cy="1692.13" r="21.6" fill="#0077bb" fill-rule="evenodd" fill-opacity="1" stroke="#000000" stroke-opacity="1" stroke-width="0"/>
<circle clip-path="url(#clip872)" cx="834.493" cy="1686.49" r="21.6" fill="#0077bb" fill-rule="evenodd" fill-opacity="1" stroke="#000000" stroke-opacity="1" stroke-width="0"/>
<circle clip-path="url(#clip872)" cx="877.777" cy="1678.18" r="21.6" fill="#0077bb" fill-rule="evenodd" fill-opacity="1" stroke="#000000" stroke-opacity="1" stroke-width="0"/>
<circle clip-path="url(#clip872)" cx="924.222" cy="1666.02" r="21.6" fill="#0077bb" fill-rule="evenodd" fill-opacity="1" stroke="#000000" stroke-opacity="1" stroke-width="0"/>
<circle clip-path="url(#clip872)" cx="974.059" cy="1655.05" r="21.6" fill="#0077bb" fill-rule="evenodd" fill-opacity="1" stroke="#000000" stroke-opacity="1" stroke-width="0"/>
<circle clip-path="url(#clip872)" cx="1027.54" cy="1646.93" r="21.6" fill="#0077bb" fill-rule="evenodd" fill-opacity="1" stroke="#000000" stroke-opacity="1" stroke-width="0"/>
<circle clip-path="url(#clip872)" cx="1084.92" cy="1633.85" r="21.6" fill="#0077bb" fill-rule="evenodd" fill-opacity="1" stroke="#000000" stroke-opacity="1" stroke-width="0"/>
<circle clip-path="url(#clip872)" cx="1146.49" cy="1617.82" r="21.6" fill="#0077bb" fill-rule="evenodd" fill-opacity="1" stroke="#000000" stroke-opacity="1" stroke-width="0"/>
<circle clip-path="url(#clip872)" cx="1212.56" cy="1601.45" r="21.6" fill="#0077bb" fill-rule="evenodd" fill-opacity="1" stroke="#000000" stroke-opacity="1" stroke-width="0"/>
<circle clip-path="url(#clip872)" cx="1283.45" cy="1585.95" r="21.6" fill="#0077bb" fill-rule="evenodd" fill-opacity="1" stroke="#000000" stroke-opacity="1" stroke-width="0"/>
<circle clip-path="url(#clip872)" cx="1359.53" cy="1568.57" r="21.6" fill="#0077bb" fill-rule="evenodd" fill-opacity="1" stroke="#000000" stroke-opacity="1" stroke-width="0"/>
<circle clip-path="url(#clip872)" cx="1441.15" cy="1548.45" r="21.6" fill="#0077bb" fill-rule="evenodd" fill-opacity="1" stroke="#000000" stroke-opacity="1" stroke-width="0"/>
<circle clip-path="url(#clip872)" cx="1528.74" cy="1523.81" r="21.6" fill="#0077bb" fill-rule="evenodd" fill-opacity="1" stroke="#000000" stroke-opacity="1" stroke-width="0"/>
<circle clip-path="url(#clip872)" cx="1622.73" cy="1500.3" r="21.6" fill="#0077bb" fill-rule="evenodd" fill-opacity="1" stroke="#000000" stroke-opacity="1" stroke-width="0"/>
<circle clip-path="url(#clip872)" cx="1723.58" cy="1469.72" r="21.6" fill="#0077bb" fill-rule="evenodd" fill-opacity="1" stroke="#000000" stroke-opacity="1" stroke-width="0"/>
<circle clip-path="url(#clip872)" cx="1831.79" cy="1439.96" r="21.6" fill="#0077bb" fill-rule="evenodd" fill-opacity="1" stroke="#000000" stroke-opacity="1" stroke-width="0"/>
<circle clip-path="url(#clip872)" cx="1947.91" cy="1409.23" r="21.6" fill="#0077bb" fill-rule="evenodd" fill-opacity="1" stroke="#000000" stroke-opacity="1" stroke-width="0"/>
<circle clip-path="url(#clip872)" cx="2072.51" cy="1367.89" r="21.6" fill="#0077bb" fill-rule="evenodd" fill-opacity="1" stroke="#000000" stroke-opacity="1" stroke-width="0"/>
<circle clip-path="url(#clip872)" cx="2206.21" cy="1322.11" r="21.6" fill="#0077bb" fill-rule="evenodd" fill-opacity="1" stroke="#000000" stroke-opacity="1" stroke-width="0"/>
<circle clip-path="url(#clip872)" cx="2349.67" cy="1270.26" r="21.6" fill="#0077bb" fill-rule="evenodd" fill-opacity="1" stroke="#000000" stroke-opacity="1" stroke-width="0"/>
<circle clip-path="url(#clip872)" cx="2503.61" cy="1214.59" r="21.6" fill="#0077bb" fill-rule="evenodd" fill-opacity="1" stroke="#000000" stroke-opacity="1" stroke-width="0"/>
<circle clip-path="url(#clip872)" cx="2668.79" cy="1146.37" r="21.6" fill="#0077bb" fill-rule="evenodd" fill-opacity="1" stroke="#000000" stroke-opacity="1" stroke-width="0"/>
<circle clip-path="url(#clip872)" cx="2846.03" cy="1065.32" r="21.6" fill="#0077bb" fill-rule="evenodd" fill-opacity="1" stroke="#000000" stroke-opacity="1" stroke-width="0"/>
<circle clip-path="url(#clip872)" cx="3036.22" cy="972.086" r="21.6" fill="#0077bb" fill-rule="evenodd" fill-opacity="1" stroke="#000000" stroke-opacity="1" stroke-width="0"/>
<circle clip-path="url(#clip872)" cx="3240.3" cy="854.805" r="21.6" fill="#0077bb" fill-rule="evenodd" fill-opacity="1" stroke="#000000" stroke-opacity="1" stroke-width="0"/>
<circle clip-path="url(#clip872)" cx="3459.28" cy="720.488" r="21.6" fill="#0077bb" fill-rule="evenodd" fill-opacity="1" stroke="#000000" stroke-opacity="1" stroke-width="0"/>
<circle clip-path="url(#clip872)" cx="343.557" cy="1836.57" r="21.6" fill="#33bbee" fill-rule="evenodd" fill-opacity="1" stroke="#000000" stroke-opacity="1" stroke-width="0"/>
<circle clip-path="url(#clip872)" cx="350.988" cy="1817.12" r="21.6" fill="#33bbee" fill-rule="evenodd" fill-opacity="1" stroke="#000000" stroke-opacity="1" stroke-width="0"/>
<circle clip-path="url(#clip872)" cx="358.961" cy="1793.66" r="21.6" fill="#33bbee" fill-rule="evenodd" fill-opacity="1" stroke="#000000" stroke-opacity="1" stroke-width="0"/>
<circle clip-path="url(#clip872)" cx="367.517" cy="1758.04" r="21.6" fill="#33bbee" fill-rule="evenodd" fill-opacity="1" stroke="#000000" stroke-opacity="1" stroke-width="0"/>
<circle clip-path="url(#clip872)" cx="376.697" cy="1738.66" r="21.6" fill="#33bbee" fill-rule="evenodd" fill-opacity="1" stroke="#000000" stroke-opacity="1" stroke-width="0"/>
<circle clip-path="url(#clip872)" cx="386.548" cy="1712.94" r="21.6" fill="#33bbee" fill-rule="evenodd" fill-opacity="1" stroke="#000000" stroke-opacity="1" stroke-width="0"/>
<circle clip-path="url(#clip872)" cx="397.118" cy="1677.73" r="21.6" fill="#33bbee" fill-rule="evenodd" fill-opacity="1" stroke="#000000" stroke-opacity="1" stroke-width="0"/>
<circle clip-path="url(#clip872)" cx="408.46" cy="1651.52" r="21.6" fill="#33bbee" fill-rule="evenodd" fill-opacity="1" stroke="#000000" stroke-opacity="1" stroke-width="0"/>
<circle clip-path="url(#clip872)" cx="420.63" cy="1623.19" r="21.6" fill="#33bbee" fill-rule="evenodd" fill-opacity="1" stroke="#000000" stroke-opacity="1" stroke-width="0"/>
<circle clip-path="url(#clip872)" cx="433.69" cy="1589.72" r="21.6" fill="#33bbee" fill-rule="evenodd" fill-opacity="1" stroke="#000000" stroke-opacity="1" stroke-width="0"/>
<circle clip-path="url(#clip872)" cx="447.703" cy="1575.95" r="21.6" fill="#33bbee" fill-rule="evenodd" fill-opacity="1" stroke="#000000" stroke-opacity="1" stroke-width="0"/>
<circle clip-path="url(#clip872)" cx="462.739" cy="1537.39" r="21.6" fill="#33bbee" fill-rule="evenodd" fill-opacity="1" stroke="#000000" stroke-opacity="1" stroke-width="0"/>
<circle clip-path="url(#clip872)" cx="478.874" cy="1520.52" r="21.6" fill="#33bbee" fill-rule="evenodd" fill-opacity="1" stroke="#000000" stroke-opacity="1" stroke-width="0"/>
<circle clip-path="url(#clip872)" cx="496.187" cy="1499.68" r="21.6" fill="#33bbee" fill-rule="evenodd" fill-opacity="1" stroke="#000000" stroke-opacity="1" stroke-width="0"/>
<circle clip-path="url(#clip872)" cx="514.764" cy="1486.13" r="21.6" fill="#33bbee" fill-rule="evenodd" fill-opacity="1" stroke="#000000" stroke-opacity="1" stroke-width="0"/>
<circle clip-path="url(#clip872)" cx="534.698" cy="1474.87" r="21.6" fill="#33bbee" fill-rule="evenodd" fill-opacity="1" stroke="#000000" stroke-opacity="1" stroke-width="0"/>
<circle clip-path="url(#clip872)" cx="556.087" cy="1466.42" r="21.6" fill="#33bbee" fill-rule="evenodd" fill-opacity="1" stroke="#000000" stroke-opacity="1" stroke-width="0"/>
<circle clip-path="url(#clip872)" cx="579.039" cy="1456.16" r="21.6" fill="#33bbee" fill-rule="evenodd" fill-opacity="1" stroke="#000000" stroke-opacity="1" stroke-width="0"/>
<circle clip-path="url(#clip872)" cx="603.667" cy="1448.84" r="21.6" fill="#33bbee" fill-rule="evenodd" fill-opacity="1" stroke="#000000" stroke-opacity="1" stroke-width="0"/>
<circle clip-path="url(#clip872)" cx="630.094" cy="1440.54" r="21.6" fill="#33bbee" fill-rule="evenodd" fill-opacity="1" stroke="#000000" stroke-opacity="1" stroke-width="0"/>
<circle clip-path="url(#clip872)" cx="658.451" cy="1432.71" r="21.6" fill="#33bbee" fill-rule="evenodd" fill-opacity="1" stroke="#000000" stroke-opacity="1" stroke-width="0"/>
<circle clip-path="url(#clip872)" cx="688.878" cy="1427.66" r="21.6" fill="#33bbee" fill-rule="evenodd" fill-opacity="1" stroke="#000000" stroke-opacity="1" stroke-width="0"/>
<circle clip-path="url(#clip872)" cx="721.528" cy="1418.04" r="21.6" fill="#33bbee" fill-rule="evenodd" fill-opacity="1" stroke="#000000" stroke-opacity="1" stroke-width="0"/>
<circle clip-path="url(#clip872)" cx="756.562" cy="1409.11" r="21.6" fill="#33bbee" fill-rule="evenodd" fill-opacity="1" stroke="#000000" stroke-opacity="1" stroke-width="0"/>
<circle clip-path="url(#clip872)" cx="794.155" cy="1398.86" r="21.6" fill="#33bbee" fill-rule="evenodd" fill-opacity="1" stroke="#000000" stroke-opacity="1" stroke-width="0"/>
<circle clip-path="url(#clip872)" cx="834.493" cy="1388.59" r="21.6" fill="#33bbee" fill-rule="evenodd" fill-opacity="1" stroke="#000000" stroke-opacity="1" stroke-width="0"/>
<circle clip-path="url(#clip872)" cx="877.777" cy="1378.98" r="21.6" fill="#33bbee" fill-rule="evenodd" fill-opacity="1" stroke="#000000" stroke-opacity="1" stroke-width="0"/>
<circle clip-path="url(#clip872)" cx="924.222" cy="1366.83" r="21.6" fill="#33bbee" fill-rule="evenodd" fill-opacity="1" stroke="#000000" stroke-opacity="1" stroke-width="0"/>
<circle clip-path="url(#clip872)" cx="974.059" cy="1352.35" r="21.6" fill="#33bbee" fill-rule="evenodd" fill-opacity="1" stroke="#000000" stroke-opacity="1" stroke-width="0"/>
<circle clip-path="url(#clip872)" cx="1027.54" cy="1340.01" r="21.6" fill="#33bbee" fill-rule="evenodd" fill-opacity="1" stroke="#000000" stroke-opacity="1" stroke-width="0"/>
<circle clip-path="url(#clip872)" cx="1084.92" cy="1324.35" r="21.6" fill="#33bbee" fill-rule="evenodd" fill-opacity="1" stroke="#000000" stroke-opacity="1" stroke-width="0"/>
<circle clip-path="url(#clip872)" cx="1146.49" cy="1306.02" r="21.6" fill="#33bbee" fill-rule="evenodd" fill-opacity="1" stroke="#000000" stroke-opacity="1" stroke-width="0"/>
<circle clip-path="url(#clip872)" cx="1212.56" cy="1285.03" r="21.6" fill="#33bbee" fill-rule="evenodd" fill-opacity="1" stroke="#000000" stroke-opacity="1" stroke-width="0"/>
<circle clip-path="url(#clip872)" cx="1283.45" cy="1264.82" r="21.6" fill="#33bbee" fill-rule="evenodd" fill-opacity="1" stroke="#000000" stroke-opacity="1" stroke-width="0"/>
<circle clip-path="url(#clip872)" cx="1359.53" cy="1243.13" r="21.6" fill="#33bbee" fill-rule="evenodd" fill-opacity="1" stroke="#000000" stroke-opacity="1" stroke-width="0"/>
<circle clip-path="url(#clip872)" cx="1441.15" cy="1220.07" r="21.6" fill="#33bbee" fill-rule="evenodd" fill-opacity="1" stroke="#000000" stroke-opacity="1" stroke-width="0"/>
<circle clip-path="url(#clip872)" cx="1528.74" cy="1190.73" r="21.6" fill="#33bbee" fill-rule="evenodd" fill-opacity="1" stroke="#000000" stroke-opacity="1" stroke-width="0"/>
<circle clip-path="url(#clip872)" cx="1622.73" cy="1162.33" r="21.6" fill="#33bbee" fill-rule="evenodd" fill-opacity="1" stroke="#000000" stroke-opacity="1" stroke-width="0"/>
<circle clip-path="url(#clip872)" cx="1723.58" cy="1122.4" r="21.6" fill="#33bbee" fill-rule="evenodd" fill-opacity="1" stroke="#000000" stroke-opacity="1" stroke-width="0"/>
<circle clip-path="url(#clip872)" cx="1831.79" cy="1084.39" r="21.6" fill="#33bbee" fill-rule="evenodd" fill-opacity="1" stroke="#000000" stroke-opacity="1" stroke-width="0"/>
<circle clip-path="url(#clip872)" cx="1947.91" cy="1038.65" r="21.6" fill="#33bbee" fill-rule="evenodd" fill-opacity="1" stroke="#000000" stroke-opacity="1" stroke-width="0"/>
<circle clip-path="url(#clip872)" cx="2072.51" cy="992.39" r="21.6" fill="#33bbee" fill-rule="evenodd" fill-opacity="1" stroke="#000000" stroke-opacity="1" stroke-width="0"/>
<circle clip-path="url(#clip872)" cx="2206.21" cy="933.804" r="21.6" fill="#33bbee" fill-rule="evenodd" fill-opacity="1" stroke="#000000" stroke-opacity="1" stroke-width="0"/>
<circle clip-path="url(#clip872)" cx="2349.67" cy="873.491" r="21.6" fill="#33bbee" fill-rule="evenodd" fill-opacity="1" stroke="#000000" stroke-opacity="1" stroke-width="0"/>
<circle clip-path="url(#clip872)" cx="2503.61" cy="797.333" r="21.6" fill="#33bbee" fill-rule="evenodd" fill-opacity="1" stroke="#000000" stroke-opacity="1" stroke-width="0"/>
<circle clip-path="url(#clip872)" cx="2668.79" cy="715.003" r="21.6" fill="#33bbee" fill-rule="evenodd" fill-opacity="1" stroke="#000000" stroke-opacity="1" stroke-width="0"/>
<circle clip-path="url(#clip872)" cx="2846.03" cy="612.974" r="21.6" fill="#33bbee" fill-rule="evenodd" fill-opacity="1" stroke="#000000" stroke-opacity="1" stroke-width="0"/>
<circle clip-path="url(#clip872)" cx="3036.22" cy="495.368" r="21.6" fill="#33bbee" fill-rule="evenodd" fill-opacity="1" stroke="#000000" stroke-opacity="1" stroke-width="0"/>
<circle clip-path="url(#clip872)" cx="3240.3" cy="354.034" r="21.6" fill="#33bbee" fill-rule="evenodd" fill-opacity="1" stroke="#000000" stroke-opacity="1" stroke-width="0"/>
<circle clip-path="url(#clip872)" cx="3459.28" cy="183.884" r="21.6" fill="#33bbee" fill-rule="evenodd" fill-opacity="1" stroke="#000000" stroke-opacity="1" stroke-width="0"/>
<path clip-path="url(#clip870)" d="M2924.39 2330.1 L3442.67 2330.1 L3442.67 2122.74 L2924.39 2122.74  Z" fill="#ffffff" fill-rule="evenodd" fill-opacity="0.9"/>
<polyline clip-path="url(#clip870)" style="stroke:#222255; stroke-linecap:round; stroke-linejoin:round; stroke-width:4; stroke-opacity:0.1; fill:none" points="2924.39,2330.1 3442.67,2330.1 3442.67,2122.74 2924.39,2122.74 2924.39,2330.1 "/>
<circle clip-path="url(#clip870)" cx="3071.18" cy="2174.58" r="23.04" fill="#ee7733" fill-rule="evenodd" fill-opacity="1" stroke="#000000" stroke-opacity="1" stroke-width="0"/>
<path clip-path="url(#clip870)" d="M3217.96 2157.3 L3224.26 2157.3 L3239.58 2186.21 L3239.58 2157.3 L3244.12 2157.3 L3244.12 2191.86 L3237.82 2191.86 L3222.5 2162.95 L3222.5 2191.86 L3217.96 2191.86 L3217.96 2157.3 Z" fill="#000000" fill-rule="nonzero" fill-opacity="1" /><path clip-path="url(#clip870)" d="M3268.86 2170.33 L3298.54 2170.33 L3298.54 2174.22 L3268.86 2174.22 L3268.86 2170.33 M3268.86 2179.78 L3298.54 2179.78 L3298.54 2183.71 L3268.86 2183.71 L3268.86 2179.78 Z" fill="#000000" fill-rule="nonzero" fill-opacity="1" /><path clip-path="url(#clip870)" d="M3337.87 2173.23 Q3341.23 2173.94 3343.1 2176.21 Q3345 2178.48 3345 2181.81 Q3345 2186.93 3341.48 2189.73 Q3337.96 2192.53 3331.48 2192.53 Q3329.3 2192.53 3326.99 2192.09 Q3324.7 2191.68 3322.24 2190.82 L3322.24 2186.3 Q3324.19 2187.44 3326.5 2188.02 Q3328.82 2188.6 3331.34 2188.6 Q3335.74 2188.6 3338.03 2186.86 Q3340.35 2185.12 3340.35 2181.81 Q3340.35 2178.76 3338.19 2177.05 Q3336.06 2175.31 3332.24 2175.31 L3328.22 2175.31 L3328.22 2171.47 L3332.43 2171.47 Q3335.88 2171.47 3337.71 2170.1 Q3339.54 2168.71 3339.54 2166.12 Q3339.54 2163.46 3337.64 2162.05 Q3335.76 2160.61 3332.24 2160.61 Q3330.32 2160.61 3328.12 2161.03 Q3325.92 2161.44 3323.29 2162.32 L3323.29 2158.16 Q3325.95 2157.42 3328.26 2157.05 Q3330.6 2156.68 3332.66 2156.68 Q3337.98 2156.68 3341.09 2159.11 Q3344.19 2161.51 3344.19 2165.63 Q3344.19 2168.5 3342.54 2170.49 Q3340.9 2172.46 3337.87 2173.23 Z" fill="#000000" fill-rule="nonzero" fill-opacity="1" /><path clip-path="url(#clip870)" d="M3363.86 2160.38 Q3360.25 2160.38 3358.42 2163.94 Q3356.62 2167.49 3356.62 2174.61 Q3356.62 2181.72 3358.42 2185.29 Q3360.25 2188.83 3363.86 2188.83 Q3367.5 2188.83 3369.3 2185.29 Q3371.13 2181.72 3371.13 2174.61 Q3371.13 2167.49 3369.3 2163.94 Q3367.5 2160.38 3363.86 2160.38 M3363.86 2156.68 Q3369.67 2156.68 3372.73 2161.28 Q3375.81 2165.87 3375.81 2174.61 Q3375.81 2183.34 3372.73 2187.95 Q3369.67 2192.53 3363.86 2192.53 Q3358.05 2192.53 3354.98 2187.95 Q3351.92 2183.34 3351.92 2174.61 Q3351.92 2165.87 3354.98 2161.28 Q3358.05 2156.68 3363.86 2156.68 Z" fill="#000000" fill-rule="nonzero" fill-opacity="1" /><path clip-path="url(#clip870)" d="M3394.03 2160.38 Q3390.42 2160.38 3388.59 2163.94 Q3386.78 2167.49 3386.78 2174.61 Q3386.78 2181.72 3388.59 2185.29 Q3390.42 2188.83 3394.03 2188.83 Q3397.66 2188.83 3399.47 2185.29 Q3401.29 2181.72 3401.29 2174.61 Q3401.29 2167.49 3399.47 2163.94 Q3397.66 2160.38 3394.03 2160.38 M3394.03 2156.68 Q3399.84 2156.68 3402.89 2161.28 Q3405.97 2165.87 3405.97 2174.61 Q3405.97 2183.34 3402.89 2187.95 Q3399.84 2192.53 3394.03 2192.53 Q3388.22 2192.53 3385.14 2187.95 Q3382.08 2183.34 3382.08 2174.61 Q3382.08 2165.87 3385.14 2161.28 Q3388.22 2156.68 3394.03 2156.68 Z" fill="#000000" fill-rule="nonzero" fill-opacity="1" /><circle clip-path="url(#clip870)" cx="3071.18" cy="2226.42" r="23.04" fill="#0077bb" fill-rule="evenodd" fill-opacity="1" stroke="#000000" stroke-opacity="1" stroke-width="0"/>
<path clip-path="url(#clip870)" d="M3217.96 2209.14 L3224.26 2209.14 L3239.58 2238.05 L3239.58 2209.14 L3244.12 2209.14 L3244.12 2243.7 L3237.82 2243.7 L3222.5 2214.79 L3222.5 2243.7 L3217.96 2243.7 L3217.96 2209.14 Z" fill="#000000" fill-rule="nonzero" fill-opacity="1" /><path clip-path="url(#clip870)" d="M3268.86 2222.17 L3298.54 2222.17 L3298.54 2226.06 L3268.86 2226.06 L3268.86 2222.17 M3268.86 2231.62 L3298.54 2231.62 L3298.54 2235.55 L3268.86 2235.55 L3268.86 2231.62 Z" fill="#000000" fill-rule="nonzero" fill-opacity="1" /><path clip-path="url(#clip870)" d="M3336.55 2213.21 L3324.74 2231.66 L3336.55 2231.66 L3336.55 2213.21 M3335.32 2209.14 L3341.2 2209.14 L3341.2 2231.66 L3346.13 2231.66 L3346.13 2235.55 L3341.2 2235.55 L3341.2 2243.7 L3336.55 2243.7 L3336.55 2235.55 L3320.95 2235.55 L3320.95 2231.04 L3335.32 2209.14 Z" fill="#000000" fill-rule="nonzero" fill-opacity="1" /><path clip-path="url(#clip870)" d="M3363.86 2212.22 Q3360.25 2212.22 3358.42 2215.78 Q3356.62 2219.33 3356.62 2226.45 Q3356.62 2233.56 3358.42 2237.13 Q3360.25 2240.67 3363.86 2240.67 Q3367.5 2240.67 3369.3 2237.13 Q3371.13 2233.56 3371.13 2226.45 Q3371.13 2219.33 3369.3 2215.78 Q3367.5 2212.22 3363.86 2212.22 M3363.86 2208.52 Q3369.67 2208.52 3372.73 2213.12 Q3375.81 2217.71 3375.81 2226.45 Q3375.81 2235.18 3372.73 2239.79 Q3369.67 2244.37 3363.86 2244.37 Q3358.05 2244.37 3354.98 2239.79 Q3351.92 2235.18 3351.92 2226.45 Q3351.92 2217.71 3354.98 2213.12 Q3358.05 2208.52 3363.86 2208.52 Z" fill="#000000" fill-rule="nonzero" fill-opacity="1" /><path clip-path="url(#clip870)" d="M3394.03 2212.22 Q3390.42 2212.22 3388.59 2215.78 Q3386.78 2219.33 3386.78 2226.45 Q3386.78 2233.56 3388.59 2237.13 Q3390.42 2240.67 3394.03 2240.67 Q3397.66 2240.67 3399.47 2237.13 Q3401.29 2233.56 3401.29 2226.45 Q3401.29 2219.33 3399.47 2215.78 Q3397.66 2212.22 3394.03 2212.22 M3394.03 2208.52 Q3399.84 2208.52 3402.89 2213.12 Q3405.97 2217.71 3405.97 2226.45 Q3405.97 2235.18 3402.89 2239.79 Q3399.84 2244.37 3394.03 2244.37 Q3388.22 2244.37 3385.14 2239.79 Q3382.08 2235.18 3382.08 2226.45 Q3382.08 2217.71 3385.14 2213.12 Q3388.22 2208.52 3394.03 2208.52 Z" fill="#000000" fill-rule="nonzero" fill-opacity="1" /><circle clip-path="url(#clip870)" cx="3071.18" cy="2278.26" r="23.04" fill="#33bbee" fill-rule="evenodd" fill-opacity="1" stroke="#000000" stroke-opacity="1" stroke-width="0"/>
<path clip-path="url(#clip870)" d="M3217.96 2260.98 L3224.26 2260.98 L3239.58 2289.89 L3239.58 2260.98 L3244.12 2260.98 L3244.12 2295.54 L3237.82 2295.54 L3222.5 2266.63 L3222.5 2295.54 L3217.96 2295.54 L3217.96 2260.98 Z" fill="#000000" fill-rule="nonzero" fill-opacity="1" /><path clip-path="url(#clip870)" d="M3268.86 2274.01 L3298.54 2274.01 L3298.54 2277.9 L3268.86 2277.9 L3268.86 2274.01 M3268.86 2283.46 L3298.54 2283.46 L3298.54 2287.39 L3268.86 2287.39 L3268.86 2283.46 Z" fill="#000000" fill-rule="nonzero" fill-opacity="1" /><path clip-path="url(#clip870)" d="M3323.75 2260.98 L3342.11 2260.98 L3342.11 2264.92 L3328.03 2264.92 L3328.03 2273.39 Q3329.05 2273.04 3330.07 2272.88 Q3331.09 2272.69 3332.11 2272.69 Q3337.89 2272.69 3341.27 2275.86 Q3344.65 2279.04 3344.65 2284.45 Q3344.65 2290.03 3341.18 2293.13 Q3337.71 2296.21 3331.39 2296.21 Q3329.21 2296.21 3326.94 2295.84 Q3324.7 2295.47 3322.29 2294.73 L3322.29 2290.03 Q3324.37 2291.17 3326.6 2291.72 Q3328.82 2292.28 3331.3 2292.28 Q3335.3 2292.28 3337.64 2290.17 Q3339.98 2288.06 3339.98 2284.45 Q3339.98 2280.84 3337.64 2278.73 Q3335.3 2276.63 3331.3 2276.63 Q3329.42 2276.63 3327.55 2277.04 Q3325.69 2277.46 3323.75 2278.34 L3323.75 2260.98 Z" fill="#000000" fill-rule="nonzero" fill-opacity="1" /><path clip-path="url(#clip870)" d="M3363.86 2264.06 Q3360.25 2264.06 3358.42 2267.62 Q3356.62 2271.17 3356.62 2278.29 Q3356.62 2285.4 3358.42 2288.97 Q3360.25 2292.51 3363.86 2292.51 Q3367.5 2292.51 3369.3 2288.97 Q3371.13 2285.4 3371.13 2278.29 Q3371.13 2271.17 3369.3 2267.62 Q3367.5 2264.06 3363.86 2264.06 M3363.86 2260.36 Q3369.67 2260.36 3372.73 2264.96 Q3375.81 2269.55 3375.81 2278.29 Q3375.81 2287.02 3372.73 2291.63 Q3369.67 2296.21 3363.86 2296.21 Q3358.05 2296.21 3354.98 2291.63 Q3351.92 2287.02 3351.92 2278.29 Q3351.92 2269.55 3354.98 2264.96 Q3358.05 2260.36 3363.86 2260.36 Z" fill="#000000" fill-rule="nonzero" fill-opacity="1" /><path clip-path="url(#clip870)" d="M3394.03 2264.06 Q3390.42 2264.06 3388.59 2267.62 Q3386.78 2271.17 3386.78 2278.29 Q3386.78 2285.4 3388.59 2288.97 Q3390.42 2292.51 3394.03 2292.51 Q3397.66 2292.51 3399.47 2288.97 Q3401.29 2285.4 3401.29 2278.29 Q3401.29 2271.17 3399.47 2267.62 Q3397.66 2264.06 3394.03 2264.06 M3394.03 2260.36 Q3399.84 2260.36 3402.89 2264.96 Q3405.97 2269.55 3405.97 2278.29 Q3405.97 2287.02 3402.89 2291.63 Q3399.84 2296.21 3394.03 2296.21 Q3388.22 2296.21 3385.14 2291.63 Q3382.08 2287.02 3382.08 2278.29 Q3382.08 2269.55 3385.14 2264.96 Q3388.22 2260.36 3394.03 2260.36 Z" fill="#000000" fill-rule="nonzero" fill-opacity="1" /></svg>
