<?xml version="1.0" encoding="utf-8"?>
<svg xmlns="http://www.w3.org/2000/svg" xmlns:xlink="http://www.w3.org/1999/xlink" width="700" height="550" viewBox="0 0 2800 2200">
<defs>
  <clipPath id="clip470">
    <rect x="0" y="0" width="2800" height="2200"/>
  </clipPath>
</defs>
<path clip-path="url(#clip470)" d="M0 2200 L2800 2200 L2800 0 L0 0  Z" fill="#ffffff" fill-rule="evenodd" fill-opacity="1"/>
<defs>
  <clipPath id="clip471">
    <rect x="560" y="0" width="1961" height="1961"/>
  </clipPath>
</defs>
<defs>
  <clipPath id="clip472">
    <rect x="322" y="124" width="2432" height="1865"/>
  </clipPath>
</defs>
<path clip-path="url(#clip470)" d="M322.094 1988.05 L2752.76 1988.05 L2752.76 124.089 L322.094 124.089  Z" fill="#ffffff" fill-rule="evenodd" fill-opacity="1"/>
<polyline clip-path="url(#clip472)" style="stroke:#222255; stroke-linecap:round; stroke-linejoin:round; stroke-width:2; stroke-opacity:0.5; fill:none" points="1155.25,1988.05 1155.25,124.089 "/>
<polyline clip-path="url(#clip472)" style="stroke:#222255; stroke-linecap:round; stroke-linejoin:round; stroke-width:2; stroke-opacity:0.5; fill:none" points="2683.96,1988.05 2683.96,124.089 "/>
<polyline clip-path="url(#clip472)" style="stroke:#222255; stroke-linecap:round; stroke-linejoin:round; stroke-width:2; stroke-opacity:0.3; fill:none" points="355.911,1988.05 355.911,124.089 "/>
<polyline clip-path="url(#clip472)" style="stroke:#222255; stroke-linecap:round; stroke-linejoin:round; stroke-width:2; stroke-opacity:0.3; fill:none" points="546.908,1988.05 546.908,124.089 "/>
<polyline clip-path="url(#clip472)" style="stroke:#222255; stroke-linecap:round; stroke-linejoin:round; stroke-width:2; stroke-opacity:0.3; fill:none" points="695.056,1988.05 695.056,124.089 "/>
<polyline clip-path="url(#clip472)" style="stroke:#222255; stroke-linecap:round; stroke-linejoin:round; stroke-width:2; stroke-opacity:0.3; fill:none" points="816.101,1988.05 816.101,124.089 "/>
<polyline clip-path="url(#clip472)" style="stroke:#222255; stroke-linecap:round; stroke-linejoin:round; stroke-width:2; stroke-opacity:0.3; fill:none" points="918.444,1988.05 918.444,124.089 "/>
<polyline clip-path="url(#clip472)" style="stroke:#222255; stroke-linecap:round; stroke-linejoin:round; stroke-width:2; stroke-opacity:0.3; fill:none" points="1007.1,1988.05 1007.1,124.089 "/>
<polyline clip-path="url(#clip472)" style="stroke:#222255; stroke-linecap:round; stroke-linejoin:round; stroke-width:2; stroke-opacity:0.3; fill:none" points="1085.3,1988.05 1085.3,124.089 "/>
<polyline clip-path="url(#clip472)" style="stroke:#222255; stroke-linecap:round; stroke-linejoin:round; stroke-width:2; stroke-opacity:0.3; fill:none" points="1615.44,1988.05 1615.44,124.089 "/>
<polyline clip-path="url(#clip472)" style="stroke:#222255; stroke-linecap:round; stroke-linejoin:round; stroke-width:2; stroke-opacity:0.3; fill:none" points="1884.63,1988.05 1884.63,124.089 "/>
<polyline clip-path="url(#clip472)" style="stroke:#222255; stroke-linecap:round; stroke-linejoin:round; stroke-width:2; stroke-opacity:0.3; fill:none" points="2075.63,1988.05 2075.63,124.089 "/>
<polyline clip-path="url(#clip472)" style="stroke:#222255; stroke-linecap:round; stroke-linejoin:round; stroke-width:2; stroke-opacity:0.3; fill:none" points="2223.77,1988.05 2223.77,124.089 "/>
<polyline clip-path="url(#clip472)" style="stroke:#222255; stroke-linecap:round; stroke-linejoin:round; stroke-width:2; stroke-opacity:0.3; fill:none" points="2344.82,1988.05 2344.82,124.089 "/>
<polyline clip-path="url(#clip472)" style="stroke:#222255; stroke-linecap:round; stroke-linejoin:round; stroke-width:2; stroke-opacity:0.3; fill:none" points="2447.16,1988.05 2447.16,124.089 "/>
<polyline clip-path="url(#clip472)" style="stroke:#222255; stroke-linecap:round; stroke-linejoin:round; stroke-width:2; stroke-opacity:0.3; fill:none" points="2535.82,1988.05 2535.82,124.089 "/>
<polyline clip-path="url(#clip472)" style="stroke:#222255; stroke-linecap:round; stroke-linejoin:round; stroke-width:2; stroke-opacity:0.3; fill:none" points="2614.01,1988.05 2614.01,124.089 "/>
<polyline clip-path="url(#clip470)" style="stroke:#222255; stroke-linecap:round; stroke-linejoin:round; stroke-width:4; stroke-opacity:0; fill:none" points="1155.25,1988.05 1155.25,1969.15 "/>
<polyline clip-path="url(#clip470)" style="stroke:#222255; stroke-linecap:round; stroke-linejoin:round; stroke-width:4; stroke-opacity:0; fill:none" points="2683.96,1988.05 2683.96,1969.15 "/>
<polyline clip-path="url(#clip470)" style="stroke:#222255; stroke-linecap:round; stroke-linejoin:round; stroke-width:4; stroke-opacity:0; fill:none" points="355.911,1988.05 355.911,1978.6 "/>
<polyline clip-path="url(#clip470)" style="stroke:#222255; stroke-linecap:round; stroke-linejoin:round; stroke-width:4; stroke-opacity:0; fill:none" points="546.908,1988.05 546.908,1978.6 "/>
<polyline clip-path="url(#clip470)" style="stroke:#222255; stroke-linecap:round; stroke-linejoin:round; stroke-width:4; stroke-opacity:0; fill:none" points="695.056,1988.05 695.056,1978.6 "/>
<polyline clip-path="url(#clip470)" style="stroke:#222255; stroke-linecap:round; stroke-linejoin:round; stroke-width:4; stroke-opacity:0; fill:none" points="816.101,1988.05 816.101,1978.6 "/>
<polyline clip-path="url(#clip470)" style="stroke:#222255; stroke-linecap:round; stroke-linejoin:round; stroke-width:4; stroke-opacity:0; fill:none" points="918.444,1988.05 918.444,1978.6 "/>
<polyline clip-path="url(#clip470)" style="stroke:#222255; stroke-linecap:round; stroke-linejoin:round; stroke-width:4; stroke-opacity:0; fill:none" points="1007.1,1988.05 1007.1,1978.6 "/>
<polyline clip-path="url(#clip470)" style="stroke:#222255; stroke-linecap:round; stroke-linejoin:round; stroke-width:4; stroke-opacity:0; fill:none" points="1085.3,1988.05 1085.3,1978.6 "/>
<polyline clip-path="url(#clip470)" style="stroke:#222255; stroke-linecap:round; stroke-linejoin:round; stroke-width:4; stroke-opacity:0; fill:none" points="1615.44,1988.05 1615.44,1978.6 "/>
<polyline clip-path="url(#clip470)" style="stroke:#222255; stroke-linecap:round; stroke-linejoin:round; stroke-width:4; stroke-opacity:0; fill:none" points="1884.63,1988.05 1884.63,1978.6 "/>
<polyline clip-path="url(#clip470)" style="stroke:#222255; stroke-linecap:round; stroke-linejoin:round; stroke-width:4; stroke-opacity:0; fill:none" points="2075.63,1988.05 2075.63,1978.6 "/>
<polyline clip-path="url(#clip470)" style="stroke:#222255; stroke-linecap:round; stroke-linejoin:round; stroke-width:4; stroke-opacity:0; fill:none" points="2223.77,1988.05 2223.77,1978.6 "/>
<polyline clip-path="url(#clip470)" style="stroke:#222255; stroke-linecap:round; stroke-linejoin:round; stroke-width:4; stroke-opacity:0; fill:none" points="2344.82,1988.05 2344.82,1978.6 "/>
<polyline clip-path="url(#clip470)" style="stroke:#222255; stroke-linecap:round; stroke-linejoin:round; stroke-width:4; stroke-opacity:0; fill:none" points="2447.16,1988.05 2447.16,1978.6 "/>
<polyline clip-path="url(#clip470)" style="stroke:#222255; stroke-linecap:round; stroke-linejoin:round; stroke-width:4; stroke-opacity:0; fill:none" points="2535.82,1988.05 2535.82,1978.6 "/>
<polyline clip-path="url(#clip470)" style="stroke:#222255; stroke-linecap:round; stroke-linejoin:round; stroke-width:4; stroke-opacity:0; fill:none" points="2614.01,1988.05 2614.01,1978.6 "/>
<path clip-path="url(#clip470)" d="M1105.36 2065.37 L1113 2065.37 L1113 2039.01 L1104.69 2040.67 L1104.69 2036.41 L1112.95 2034.75 L1117.63 2034.75 L1117.63 2065.37 L1125.27 2065.37 L1125.27 2069.31 L1105.36 2069.31 L1105.36 2065.37 Z" fill="#000000" fill-rule="nonzero" fill-opacity="1" /><path clip-path="url(#clip470)" d="M1144.71 2037.82 Q1141.1 2037.82 1139.27 2041.39 Q1137.47 2044.93 1137.47 2052.06 Q1137.47 2059.17 1139.27 2062.73 Q1141.1 2066.27 1144.71 2066.27 Q1148.35 2066.27 1150.15 2062.73 Q1151.98 2059.17 1151.98 2052.06 Q1151.98 2044.93 1150.15 2041.39 Q1148.35 2037.82 1144.71 2037.82 M1144.71 2034.12 Q1150.52 2034.12 1153.58 2038.73 Q1156.66 2043.31 1156.66 2052.06 Q1156.66 2060.79 1153.58 2065.39 Q1150.52 2069.98 1144.71 2069.98 Q1138.9 2069.98 1135.82 2065.39 Q1132.77 2060.79 1132.77 2052.06 Q1132.77 2043.31 1135.82 2038.73 Q1138.9 2034.12 1144.71 2034.12 Z" fill="#000000" fill-rule="nonzero" fill-opacity="1" /><path clip-path="url(#clip470)" d="M1156.66 2028.22 L1180.77 2028.22 L1180.77 2031.42 L1156.66 2031.42 L1156.66 2028.22 Z" fill="#000000" fill-rule="nonzero" fill-opacity="1" /><path clip-path="url(#clip470)" d="M1189.63 2038.7 L1195.83 2038.7 L1195.83 2017.28 L1189.08 2018.63 L1189.08 2015.17 L1195.8 2013.82 L1199.6 2013.82 L1199.6 2038.7 L1205.8 2038.7 L1205.8 2041.9 L1189.63 2041.9 L1189.63 2038.7 Z" fill="#000000" fill-rule="nonzero" fill-opacity="1" /><path clip-path="url(#clip470)" d="M2648.95 2065.37 L2656.59 2065.37 L2656.59 2039.01 L2648.28 2040.67 L2648.28 2036.41 L2656.54 2034.75 L2661.21 2034.75 L2661.21 2065.37 L2668.85 2065.37 L2668.85 2069.31 L2648.95 2069.31 L2648.95 2065.37 Z" fill="#000000" fill-rule="nonzero" fill-opacity="1" /><path clip-path="url(#clip470)" d="M2688.3 2037.82 Q2684.69 2037.82 2682.86 2041.39 Q2681.05 2044.93 2681.05 2052.06 Q2681.05 2059.17 2682.86 2062.73 Q2684.69 2066.27 2688.3 2066.27 Q2691.93 2066.27 2693.74 2062.73 Q2695.57 2059.17 2695.57 2052.06 Q2695.57 2044.93 2693.74 2041.39 Q2691.93 2037.82 2688.3 2037.82 M2688.3 2034.12 Q2694.11 2034.12 2697.16 2038.73 Q2700.24 2043.31 2700.24 2052.06 Q2700.24 2060.79 2697.16 2065.39 Q2694.11 2069.98 2688.3 2069.98 Q2682.49 2069.98 2679.41 2065.39 Q2676.35 2060.79 2676.35 2052.06 Q2676.35 2043.31 2679.41 2038.73 Q2682.49 2034.12 2688.3 2034.12 Z" fill="#000000" fill-rule="nonzero" fill-opacity="1" /><path clip-path="url(#clip470)" d="M2709.95 2016.32 Q2707.01 2016.32 2705.53 2019.21 Q2704.06 2022.09 2704.06 2027.88 Q2704.06 2033.66 2705.53 2036.55 Q2707.01 2039.43 2709.95 2039.43 Q2712.9 2039.43 2714.37 2036.55 Q2715.85 2033.66 2715.85 2027.88 Q2715.85 2022.09 2714.37 2019.21 Q2712.9 2016.32 2709.95 2016.32 M2709.95 2013.31 Q2714.67 2013.31 2717.15 2017.05 Q2719.65 2020.77 2719.65 2027.88 Q2719.65 2034.97 2717.15 2038.72 Q2714.67 2042.44 2709.95 2042.44 Q2705.23 2042.44 2702.73 2038.72 Q2700.24 2034.97 2700.24 2027.88 Q2700.24 2020.77 2702.73 2017.05 Q2705.23 2013.31 2709.95 2013.31 Z" fill="#000000" fill-rule="nonzero" fill-opacity="1" /><path clip-path="url(#clip470)" d="M1025.75 2134.64 L1025.75 2152.05 L1036.06 2152.05 Q1041.25 2152.05 1043.73 2149.92 Q1046.25 2147.75 1046.25 2143.33 Q1046.25 2138.87 1043.73 2136.77 Q1041.25 2134.64 1036.06 2134.64 L1025.75 2134.64 M1025.75 2115.1 L1025.75 2129.42 L1035.27 2129.42 Q1039.98 2129.42 1042.27 2127.67 Q1044.59 2125.89 1044.59 2122.26 Q1044.59 2118.66 1042.27 2116.88 Q1039.98 2115.1 1035.27 2115.1 L1025.75 2115.1 M1019.32 2109.81 L1035.74 2109.81 Q1043.1 2109.81 1047.07 2112.87 Q1051.05 2115.93 1051.05 2121.56 Q1051.05 2125.92 1049.02 2128.5 Q1046.98 2131.08 1043.03 2131.71 Q1047.77 2132.73 1050.38 2135.98 Q1053.03 2139.19 1053.03 2144.03 Q1053.03 2150.4 1048.7 2153.87 Q1044.37 2157.33 1036.38 2157.33 L1019.32 2157.33 L1019.32 2109.81 Z" fill="#000000" fill-rule="nonzero" fill-opacity="1" /><path clip-path="url(#clip470)" d="M1094.28 2138.05 L1094.28 2140.91 L1067.35 2140.91 Q1067.73 2146.96 1070.98 2150.14 Q1074.26 2153.29 1080.08 2153.29 Q1083.45 2153.29 1086.61 2152.47 Q1089.79 2151.64 1092.91 2149.98 L1092.91 2155.52 Q1089.76 2156.86 1086.45 2157.56 Q1083.14 2158.26 1079.73 2158.26 Q1071.2 2158.26 1066.2 2153.29 Q1061.24 2148.33 1061.24 2139.86 Q1061.24 2131.11 1065.95 2125.98 Q1070.69 2120.83 1078.71 2120.83 Q1085.91 2120.83 1090.08 2125.47 Q1094.28 2130.09 1094.28 2138.05 M1088.42 2136.33 Q1088.36 2131.52 1085.71 2128.66 Q1083.1 2125.79 1078.78 2125.79 Q1073.87 2125.79 1070.91 2128.56 Q1067.99 2131.33 1067.54 2136.36 L1088.42 2136.33 Z" fill="#000000" fill-rule="nonzero" fill-opacity="1" /><path clip-path="url(#clip470)" d="M1109.55 2151.99 L1109.55 2170.89 L1103.67 2170.89 L1103.67 2121.69 L1109.55 2121.69 L1109.55 2127.1 Q1111.4 2123.91 1114.2 2122.39 Q1117.03 2120.83 1120.95 2120.83 Q1127.44 2120.83 1131.48 2125.98 Q1135.56 2131.14 1135.56 2139.54 Q1135.56 2147.95 1131.48 2153.1 Q1127.44 2158.26 1120.95 2158.26 Q1117.03 2158.26 1114.2 2156.73 Q1111.4 2155.17 1109.55 2151.99 M1129.48 2139.54 Q1129.48 2133.08 1126.81 2129.42 Q1124.16 2125.73 1119.52 2125.73 Q1114.87 2125.73 1112.2 2129.42 Q1109.55 2133.08 1109.55 2139.54 Q1109.55 2146 1112.2 2149.7 Q1114.87 2153.36 1119.52 2153.36 Q1124.16 2153.36 1126.81 2149.7 Q1129.48 2146 1129.48 2139.54 Z" fill="#000000" fill-rule="nonzero" fill-opacity="1" /><path clip-path="url(#clip470)" d="M1159.08 2125.79 Q1154.37 2125.79 1151.63 2129.48 Q1148.89 2133.15 1148.89 2139.54 Q1148.89 2145.94 1151.6 2149.63 Q1154.34 2153.29 1159.08 2153.29 Q1163.76 2153.29 1166.5 2149.6 Q1169.23 2145.91 1169.23 2139.54 Q1169.23 2133.21 1166.5 2129.52 Q1163.76 2125.79 1159.08 2125.79 M1159.08 2120.83 Q1166.72 2120.83 1171.08 2125.79 Q1175.44 2130.76 1175.44 2139.54 Q1175.44 2148.3 1171.08 2153.29 Q1166.72 2158.26 1159.08 2158.26 Q1151.41 2158.26 1147.05 2153.29 Q1142.72 2148.3 1142.72 2139.54 Q1142.72 2130.76 1147.05 2125.79 Q1151.41 2120.83 1159.08 2120.83 Z" fill="#000000" fill-rule="nonzero" fill-opacity="1" /><path clip-path="url(#clip470)" d="M1191.04 2131.97 Q1191.04 2134.61 1193.07 2136.11 Q1195.11 2137.6 1198.9 2137.6 L1206.79 2137.6 L1206.79 2126.37 L1198.9 2126.37 Q1195.11 2126.37 1193.07 2127.83 Q1191.04 2129.29 1191.04 2131.97 M1182.7 2157.33 L1193.58 2141.71 Q1189.89 2140.88 1187.44 2138.72 Q1184.99 2136.52 1184.99 2131.97 Q1184.99 2126.81 1188.39 2124.27 Q1191.83 2121.69 1198.74 2121.69 L1212.68 2121.69 L1212.68 2157.33 L1206.79 2157.33 L1206.79 2142.28 L1199.5 2142.28 L1189 2157.33 L1182.7 2157.33 Z" fill="#000000" fill-rule="nonzero" fill-opacity="1" /><path clip-path="url(#clip470)" d="M1220.13 2121.69 L1254.28 2121.69 L1254.28 2126.37 L1240.08 2126.37 L1240.08 2157.33 L1234.32 2157.33 L1234.32 2126.37 L1220.13 2126.37 L1220.13 2121.69 Z" fill="#000000" fill-rule="nonzero" fill-opacity="1" /><path clip-path="url(#clip470)" d="M1262.11 2121.69 L1268 2121.69 L1268 2136.23 L1287 2136.23 L1287 2121.69 L1292.89 2121.69 L1292.89 2157.33 L1287 2157.33 L1287 2140.91 L1268 2140.91 L1268 2157.33 L1262.11 2157.33 L1262.11 2121.69 Z" fill="#000000" fill-rule="nonzero" fill-opacity="1" /><path clip-path="url(#clip470)" d="M1318.76 2125.79 Q1314.05 2125.79 1311.32 2129.48 Q1308.58 2133.15 1308.58 2139.54 Q1308.58 2145.94 1311.28 2149.63 Q1314.02 2153.29 1318.76 2153.29 Q1323.44 2153.29 1326.18 2149.6 Q1328.92 2145.91 1328.92 2139.54 Q1328.92 2133.21 1326.18 2129.52 Q1323.44 2125.79 1318.76 2125.79 M1318.76 2120.83 Q1326.4 2120.83 1330.76 2125.79 Q1335.12 2130.76 1335.12 2139.54 Q1335.12 2148.3 1330.76 2153.29 Q1326.4 2158.26 1318.76 2158.26 Q1311.09 2158.26 1306.73 2153.29 Q1302.4 2148.3 1302.4 2139.54 Q1302.4 2130.76 1306.73 2125.79 Q1311.09 2120.83 1318.76 2120.83 Z" fill="#000000" fill-rule="nonzero" fill-opacity="1" /><path clip-path="url(#clip470)" d="M1370.48 2123.06 L1370.48 2128.53 Q1368 2127.16 1365.49 2126.49 Q1363 2125.79 1360.46 2125.79 Q1354.76 2125.79 1351.61 2129.42 Q1348.46 2133.02 1348.46 2139.54 Q1348.46 2146.07 1351.61 2149.7 Q1354.76 2153.29 1360.46 2153.29 Q1363 2153.29 1365.49 2152.62 Q1368 2151.92 1370.48 2150.56 L1370.48 2155.97 Q1368.03 2157.11 1365.39 2157.68 Q1362.78 2158.26 1359.82 2158.26 Q1351.77 2158.26 1347.03 2153.2 Q1342.28 2148.14 1342.28 2139.54 Q1342.28 2130.82 1347.06 2125.82 Q1351.86 2120.83 1360.2 2120.83 Q1362.91 2120.83 1365.49 2121.4 Q1368.07 2121.94 1370.48 2123.06 Z" fill="#000000" fill-rule="nonzero" fill-opacity="1" /><path clip-path="url(#clip470)" d="M1376.44 2121.69 L1410.59 2121.69 L1410.59 2126.37 L1396.39 2126.37 L1396.39 2157.33 L1390.63 2157.33 L1390.63 2126.37 L1376.44 2126.37 L1376.44 2121.69 Z" fill="#000000" fill-rule="nonzero" fill-opacity="1" /><path clip-path="url(#clip470)" d="M1440.83 2146.77 Q1440.83 2143.9 1438.72 2142.41 Q1436.66 2140.91 1432.65 2140.91 L1424.31 2140.91 L1424.31 2152.66 L1432.65 2152.66 Q1436.66 2152.66 1438.72 2151.16 Q1440.83 2149.63 1440.83 2146.77 M1418.42 2121.69 L1424.31 2121.69 L1424.31 2136.23 L1432.9 2136.23 Q1439.71 2136.23 1443.37 2138.84 Q1447.06 2141.42 1447.06 2146.77 Q1447.06 2152.11 1443.37 2154.72 Q1439.71 2157.33 1432.9 2157.33 L1418.42 2157.33 L1418.42 2121.69 Z" fill="#000000" fill-rule="nonzero" fill-opacity="1" /><path clip-path="url(#clip470)" d="M1508.33 2121.69 L1508.33 2157.33 L1502.45 2157.33 L1502.45 2126.37 L1483.44 2126.37 L1483.44 2157.33 L1477.56 2157.33 L1477.56 2121.69 L1508.33 2121.69 Z" fill="#000000" fill-rule="nonzero" fill-opacity="1" /><path clip-path="url(#clip470)" d="M1534.21 2125.79 Q1529.5 2125.79 1526.76 2129.48 Q1524.03 2133.15 1524.03 2139.54 Q1524.03 2145.94 1526.73 2149.63 Q1529.47 2153.29 1534.21 2153.29 Q1538.89 2153.29 1541.63 2149.6 Q1544.36 2145.91 1544.36 2139.54 Q1544.36 2133.21 1541.63 2129.52 Q1538.89 2125.79 1534.21 2125.79 M1534.21 2120.83 Q1541.85 2120.83 1546.21 2125.79 Q1550.57 2130.76 1550.57 2139.54 Q1550.57 2148.3 1546.21 2153.29 Q1541.85 2158.26 1534.21 2158.26 Q1526.54 2158.26 1522.18 2153.29 Q1517.85 2148.3 1517.85 2139.54 Q1517.85 2130.76 1522.18 2125.79 Q1526.54 2120.83 1534.21 2120.83 Z" fill="#000000" fill-rule="nonzero" fill-opacity="1" /><path clip-path="url(#clip470)" d="M1566.17 2131.97 Q1566.17 2134.61 1568.2 2136.11 Q1570.24 2137.6 1574.03 2137.6 L1581.92 2137.6 L1581.92 2126.37 L1574.03 2126.37 Q1570.24 2126.37 1568.2 2127.83 Q1566.17 2129.29 1566.17 2131.97 M1557.83 2157.33 L1568.71 2141.71 Q1565.02 2140.88 1562.57 2138.72 Q1560.12 2136.52 1560.12 2131.97 Q1560.12 2126.81 1563.52 2124.27 Q1566.96 2121.69 1573.87 2121.69 L1587.81 2121.69 L1587.81 2157.33 L1581.92 2157.33 L1581.92 2142.28 L1574.63 2142.28 L1564.13 2157.33 L1557.83 2157.33 Z" fill="#000000" fill-rule="nonzero" fill-opacity="1" /><path clip-path="url(#clip470)" d="M1605.12 2140.91 L1605.12 2152.66 L1613.46 2152.66 Q1617.47 2152.66 1619.57 2151.16 Q1621.68 2149.63 1621.68 2146.77 Q1621.68 2143.9 1619.57 2142.41 Q1617.47 2140.91 1613.46 2140.91 L1605.12 2140.91 M1605.12 2126.37 L1605.12 2136.23 L1612.83 2136.23 Q1616.14 2136.23 1618.24 2134.93 Q1620.34 2133.59 1620.34 2131.24 Q1620.34 2128.88 1618.24 2127.64 Q1616.14 2126.37 1612.83 2126.37 L1605.12 2126.37 M1599.27 2121.69 L1613.21 2121.69 Q1619.48 2121.69 1622.85 2123.98 Q1626.23 2126.27 1626.23 2130.5 Q1626.23 2133.78 1624.51 2135.72 Q1622.79 2137.63 1619.42 2138.11 Q1623.46 2138.87 1625.69 2141.29 Q1627.91 2143.71 1627.91 2147.34 Q1627.91 2152.11 1624.22 2154.72 Q1620.56 2157.33 1613.75 2157.33 L1599.27 2157.33 L1599.27 2121.69 Z" fill="#000000" fill-rule="nonzero" fill-opacity="1" /><path clip-path="url(#clip470)" d="M1634.18 2157.33 L1634.18 2152.47 Q1639.98 2151.57 1641.76 2147.56 Q1643.92 2141.93 1643.92 2127.51 L1643.92 2121.69 L1668.02 2121.69 L1668.02 2157.33 L1662.16 2157.33 L1662.16 2126.37 L1649.78 2126.37 L1649.78 2129.9 Q1649.78 2143.65 1646.98 2149.82 Q1643.99 2156.41 1634.18 2157.33 Z" fill="#000000" fill-rule="nonzero" fill-opacity="1" /><path clip-path="url(#clip470)" d="M1710.06 2138.05 L1710.06 2140.91 L1683.14 2140.91 Q1683.52 2146.96 1686.76 2150.14 Q1690.04 2153.29 1695.87 2153.29 Q1699.24 2153.29 1702.39 2152.47 Q1705.58 2151.64 1708.69 2149.98 L1708.69 2155.52 Q1705.54 2156.86 1702.23 2157.56 Q1698.92 2158.26 1695.52 2158.26 Q1686.99 2158.26 1681.99 2153.29 Q1677.03 2148.33 1677.03 2139.86 Q1677.03 2131.11 1681.74 2125.98 Q1686.48 2120.83 1694.5 2120.83 Q1701.69 2120.83 1705.86 2125.47 Q1710.06 2130.09 1710.06 2138.05 M1704.21 2136.33 Q1704.14 2131.52 1701.5 2128.66 Q1698.89 2125.79 1694.56 2125.79 Q1689.66 2125.79 1686.7 2128.56 Q1683.77 2131.33 1683.33 2136.36 L1704.21 2136.33 Z" fill="#000000" fill-rule="nonzero" fill-opacity="1" /><path clip-path="url(#clip470)" d="M1719.45 2121.69 L1725.34 2121.69 L1725.34 2136.23 L1744.34 2136.23 L1744.34 2121.69 L1750.23 2121.69 L1750.23 2157.33 L1744.34 2157.33 L1744.34 2140.91 L1725.34 2140.91 L1725.34 2157.33 L1719.45 2157.33 L1719.45 2121.69 Z" fill="#000000" fill-rule="nonzero" fill-opacity="1" /><path clip-path="url(#clip470)" d="M1792.59 2121.69 L1792.59 2157.33 L1786.77 2157.33 L1786.77 2128.72 L1769.58 2157.33 L1762.07 2157.33 L1762.07 2121.69 L1767.9 2121.69 L1767.9 2150.24 L1785.05 2121.69 L1792.59 2121.69 Z" fill="#000000" fill-rule="nonzero" fill-opacity="1" /><path clip-path="url(#clip470)" d="M1810.55 2131.97 Q1810.55 2134.61 1812.58 2136.11 Q1814.62 2137.6 1818.41 2137.6 L1826.3 2137.6 L1826.3 2126.37 L1818.41 2126.37 Q1814.62 2126.37 1812.58 2127.83 Q1810.55 2129.29 1810.55 2131.97 M1802.21 2157.33 L1813.09 2141.71 Q1809.4 2140.88 1806.95 2138.72 Q1804.5 2136.52 1804.5 2131.97 Q1804.5 2126.81 1807.9 2124.27 Q1811.34 2121.69 1818.25 2121.69 L1832.19 2121.69 L1832.19 2157.33 L1826.3 2157.33 L1826.3 2142.28 L1819.01 2142.28 L1808.51 2157.33 L1802.21 2157.33 Z" fill="#000000" fill-rule="nonzero" fill-opacity="1" /><path clip-path="url(#clip470)" d="M1870.26 2151.99 L1870.26 2170.89 L1864.37 2170.89 L1864.37 2121.69 L1870.26 2121.69 L1870.26 2127.1 Q1872.1 2123.91 1874.9 2122.39 Q1877.74 2120.83 1881.65 2120.83 Q1888.14 2120.83 1892.19 2125.98 Q1896.26 2131.14 1896.26 2139.54 Q1896.26 2147.95 1892.19 2153.1 Q1888.14 2158.26 1881.65 2158.26 Q1877.74 2158.26 1874.9 2156.73 Q1872.1 2155.17 1870.26 2151.99 M1890.18 2139.54 Q1890.18 2133.08 1887.51 2129.42 Q1884.87 2125.73 1880.22 2125.73 Q1875.57 2125.73 1872.9 2129.42 Q1870.26 2133.08 1870.26 2139.54 Q1870.26 2146 1872.9 2149.7 Q1875.57 2153.36 1880.22 2153.36 Q1884.87 2153.36 1887.51 2149.7 Q1890.18 2146 1890.18 2139.54 Z" fill="#000000" fill-rule="nonzero" fill-opacity="1" /><path clip-path="url(#clip470)" d="M1936.46 2138.05 L1936.46 2140.91 L1909.53 2140.91 Q1909.91 2146.96 1913.16 2150.14 Q1916.44 2153.29 1922.26 2153.29 Q1925.64 2153.29 1928.79 2152.47 Q1931.97 2151.64 1935.09 2149.98 L1935.09 2155.52 Q1931.94 2156.86 1928.63 2157.56 Q1925.32 2158.26 1921.91 2158.26 Q1913.38 2158.26 1908.39 2153.29 Q1903.42 2148.33 1903.42 2139.86 Q1903.42 2131.11 1908.13 2125.98 Q1912.87 2120.83 1920.9 2120.83 Q1928.09 2120.83 1932.26 2125.47 Q1936.46 2130.09 1936.46 2138.05 M1930.6 2136.33 Q1930.54 2131.52 1927.9 2128.66 Q1925.29 2125.79 1920.96 2125.79 Q1916.06 2125.79 1913.1 2128.56 Q1910.17 2131.33 1909.72 2136.36 L1930.6 2136.33 Z" fill="#000000" fill-rule="nonzero" fill-opacity="1" /><path clip-path="url(#clip470)" d="M1960.2 2120.83 Q1967.84 2120.83 1972.2 2125.79 Q1976.56 2130.76 1976.56 2139.54 Q1976.56 2148.3 1972.2 2153.29 Q1967.84 2158.26 1960.2 2158.26 Q1952.53 2158.26 1948.3 2153.42 Q1944.07 2148.58 1943.84 2139.54 L1943.65 2132.25 Q1943.49 2128.47 1943.49 2127.16 Q1943.49 2122.07 1945.34 2118.31 Q1948.24 2112.42 1953.23 2109.88 Q1958.26 2107.33 1966.66 2107.27 Q1970.55 2107.24 1972.27 2106.7 L1973.89 2111.34 Q1972.33 2111.98 1970.9 2112.01 L1962.94 2112.55 Q1958.93 2112.84 1956.51 2114.24 Q1950.18 2117.96 1949.57 2122.83 L1949.35 2124.62 Q1953.49 2120.83 1960.2 2120.83 M1960.2 2125.79 Q1955.49 2125.79 1952.76 2129.48 Q1950.02 2133.15 1950.02 2139.54 Q1950.02 2145.94 1952.72 2149.63 Q1955.46 2153.29 1960.2 2153.29 Q1964.88 2153.29 1967.62 2149.6 Q1970.36 2145.91 1970.36 2139.54 Q1970.36 2133.21 1967.62 2129.52 Q1964.88 2125.79 1960.2 2125.79 Z" fill="#000000" fill-rule="nonzero" fill-opacity="1" /><path clip-path="url(#clip470)" d="M1991.94 2151.99 L1991.94 2170.89 L1986.05 2170.89 L1986.05 2121.69 L1991.94 2121.69 L1991.94 2127.1 Q1993.78 2123.91 1996.58 2122.39 Q1999.42 2120.83 2003.33 2120.83 Q2009.82 2120.83 2013.87 2125.98 Q2017.94 2131.14 2017.94 2139.54 Q2017.94 2147.95 2013.87 2153.1 Q2009.82 2158.26 2003.33 2158.26 Q1999.42 2158.26 1996.58 2156.73 Q1993.78 2155.17 1991.94 2151.99 M2011.86 2139.54 Q2011.86 2133.08 2009.19 2129.42 Q2006.55 2125.73 2001.9 2125.73 Q1997.25 2125.73 1994.58 2129.42 Q1991.94 2133.08 1991.94 2139.54 Q1991.94 2146 1994.58 2149.7 Q1997.25 2153.36 2001.9 2153.36 Q2006.55 2153.36 2009.19 2149.7 Q2011.86 2146 2011.86 2139.54 Z" fill="#000000" fill-rule="nonzero" fill-opacity="1" /><path clip-path="url(#clip470)" d="M2043.85 2139.42 Q2036.75 2139.42 2034.01 2141.04 Q2031.28 2142.66 2031.28 2146.58 Q2031.28 2149.7 2033.31 2151.54 Q2035.38 2153.36 2038.92 2153.36 Q2043.79 2153.36 2046.71 2149.92 Q2049.67 2146.45 2049.67 2140.72 L2049.67 2139.42 L2043.85 2139.42 M2055.53 2137 L2055.53 2157.33 L2049.67 2157.33 L2049.67 2151.92 Q2047.67 2155.17 2044.68 2156.73 Q2041.68 2158.26 2037.36 2158.26 Q2031.88 2158.26 2028.63 2155.2 Q2025.42 2152.11 2025.42 2146.96 Q2025.42 2140.94 2029.43 2137.89 Q2033.47 2134.83 2041.46 2134.83 L2049.67 2134.83 L2049.67 2134.26 Q2049.67 2130.22 2047 2128.02 Q2044.36 2125.79 2039.55 2125.79 Q2036.5 2125.79 2033.6 2126.52 Q2030.7 2127.26 2028.03 2128.72 L2028.03 2123.31 Q2031.24 2122.07 2034.27 2121.46 Q2037.29 2120.83 2040.16 2120.83 Q2047.89 2120.83 2051.71 2124.84 Q2055.53 2128.85 2055.53 2137 Z" fill="#000000" fill-rule="nonzero" fill-opacity="1" /><polyline clip-path="url(#clip472)" style="stroke:#222255; stroke-linecap:round; stroke-linejoin:round; stroke-width:2; stroke-opacity:0.5; fill:none" points="322.094,1956.49 2752.76,1956.49 "/>
<polyline clip-path="url(#clip472)" style="stroke:#222255; stroke-linecap:round; stroke-linejoin:round; stroke-width:2; stroke-opacity:0.5; fill:none" points="322.094,1511.58 2752.76,1511.58 "/>
<polyline clip-path="url(#clip472)" style="stroke:#222255; stroke-linecap:round; stroke-linejoin:round; stroke-width:2; stroke-opacity:0.5; fill:none" points="322.094,1066.66 2752.76,1066.66 "/>
<polyline clip-path="url(#clip472)" style="stroke:#222255; stroke-linecap:round; stroke-linejoin:round; stroke-width:2; stroke-opacity:0.5; fill:none" points="322.094,621.754 2752.76,621.754 "/>
<polyline clip-path="url(#clip472)" style="stroke:#222255; stroke-linecap:round; stroke-linejoin:round; stroke-width:2; stroke-opacity:0.5; fill:none" points="322.094,176.843 2752.76,176.843 "/>
<polyline clip-path="url(#clip472)" style="stroke:#222255; stroke-linecap:round; stroke-linejoin:round; stroke-width:2; stroke-opacity:0.3; fill:none" points="322.094,1867.5 2752.76,1867.5 "/>
<polyline clip-path="url(#clip472)" style="stroke:#222255; stroke-linecap:round; stroke-linejoin:round; stroke-width:2; stroke-opacity:0.3; fill:none" points="322.094,1778.52 2752.76,1778.52 "/>
<polyline clip-path="url(#clip472)" style="stroke:#222255; stroke-linecap:round; stroke-linejoin:round; stroke-width:2; stroke-opacity:0.3; fill:none" points="322.094,1689.54 2752.76,1689.54 "/>
<polyline clip-path="url(#clip472)" style="stroke:#222255; stroke-linecap:round; stroke-linejoin:round; stroke-width:2; stroke-opacity:0.3; fill:none" points="322.094,1600.56 2752.76,1600.56 "/>
<polyline clip-path="url(#clip472)" style="stroke:#222255; stroke-linecap:round; stroke-linejoin:round; stroke-width:2; stroke-opacity:0.3; fill:none" points="322.094,1422.59 2752.76,1422.59 "/>
<polyline clip-path="url(#clip472)" style="stroke:#222255; stroke-linecap:round; stroke-linejoin:round; stroke-width:2; stroke-opacity:0.3; fill:none" points="322.094,1333.61 2752.76,1333.61 "/>
<polyline clip-path="url(#clip472)" style="stroke:#222255; stroke-linecap:round; stroke-linejoin:round; stroke-width:2; stroke-opacity:0.3; fill:none" points="322.094,1244.63 2752.76,1244.63 "/>
<polyline clip-path="url(#clip472)" style="stroke:#222255; stroke-linecap:round; stroke-linejoin:round; stroke-width:2; stroke-opacity:0.3; fill:none" points="322.094,1155.65 2752.76,1155.65 "/>
<polyline clip-path="url(#clip472)" style="stroke:#222255; stroke-linecap:round; stroke-linejoin:round; stroke-width:2; stroke-opacity:0.3; fill:none" points="322.094,977.683 2752.76,977.683 "/>
<polyline clip-path="url(#clip472)" style="stroke:#222255; stroke-linecap:round; stroke-linejoin:round; stroke-width:2; stroke-opacity:0.3; fill:none" points="322.094,888.7 2752.76,888.7 "/>
<polyline clip-path="url(#clip472)" style="stroke:#222255; stroke-linecap:round; stroke-linejoin:round; stroke-width:2; stroke-opacity:0.3; fill:none" points="322.094,799.718 2752.76,799.718 "/>
<polyline clip-path="url(#clip472)" style="stroke:#222255; stroke-linecap:round; stroke-linejoin:round; stroke-width:2; stroke-opacity:0.3; fill:none" points="322.094,710.736 2752.76,710.736 "/>
<polyline clip-path="url(#clip472)" style="stroke:#222255; stroke-linecap:round; stroke-linejoin:round; stroke-width:2; stroke-opacity:0.3; fill:none" points="322.094,532.772 2752.76,532.772 "/>
<polyline clip-path="url(#clip472)" style="stroke:#222255; stroke-linecap:round; stroke-linejoin:round; stroke-width:2; stroke-opacity:0.3; fill:none" points="322.094,443.789 2752.76,443.789 "/>
<polyline clip-path="url(#clip472)" style="stroke:#222255; stroke-linecap:round; stroke-linejoin:round; stroke-width:2; stroke-opacity:0.3; fill:none" points="322.094,354.807 2752.76,354.807 "/>
<polyline clip-path="url(#clip472)" style="stroke:#222255; stroke-linecap:round; stroke-linejoin:round; stroke-width:2; stroke-opacity:0.3; fill:none" points="322.094,265.825 2752.76,265.825 "/>
<polyline clip-path="url(#clip470)" style="stroke:#222255; stroke-linecap:round; stroke-linejoin:round; stroke-width:4; stroke-opacity:0; fill:none" points="322.094,1956.49 340.992,1956.49 "/>
<polyline clip-path="url(#clip470)" style="stroke:#222255; stroke-linecap:round; stroke-linejoin:round; stroke-width:4; stroke-opacity:0; fill:none" points="322.094,1511.58 340.992,1511.58 "/>
<polyline clip-path="url(#clip470)" style="stroke:#222255; stroke-linecap:round; stroke-linejoin:round; stroke-width:4; stroke-opacity:0; fill:none" points="322.094,1066.66 340.992,1066.66 "/>
<polyline clip-path="url(#clip470)" style="stroke:#222255; stroke-linecap:round; stroke-linejoin:round; stroke-width:4; stroke-opacity:0; fill:none" points="322.094,621.754 340.992,621.754 "/>
<polyline clip-path="url(#clip470)" style="stroke:#222255; stroke-linecap:round; stroke-linejoin:round; stroke-width:4; stroke-opacity:0; fill:none" points="322.094,176.843 340.992,176.843 "/>
<polyline clip-path="url(#clip470)" style="stroke:#222255; stroke-linecap:round; stroke-linejoin:round; stroke-width:4; stroke-opacity:0; fill:none" points="322.094,1867.5 331.543,1867.5 "/>
<polyline clip-path="url(#clip470)" style="stroke:#222255; stroke-linecap:round; stroke-linejoin:round; stroke-width:4; stroke-opacity:0; fill:none" points="322.094,1778.52 331.543,1778.52 "/>
<polyline clip-path="url(#clip470)" style="stroke:#222255; stroke-linecap:round; stroke-linejoin:round; stroke-width:4; stroke-opacity:0; fill:none" points="322.094,1689.54 331.543,1689.54 "/>
<polyline clip-path="url(#clip470)" style="stroke:#222255; stroke-linecap:round; stroke-linejoin:round; stroke-width:4; stroke-opacity:0; fill:none" points="322.094,1600.56 331.543,1600.56 "/>
<polyline clip-path="url(#clip470)" style="stroke:#222255; stroke-linecap:round; stroke-linejoin:round; stroke-width:4; stroke-opacity:0; fill:none" points="322.094,1422.59 331.543,1422.59 "/>
<polyline clip-path="url(#clip470)" style="stroke:#222255; stroke-linecap:round; stroke-linejoin:round; stroke-width:4; stroke-opacity:0; fill:none" points="322.094,1333.61 331.543,1333.61 "/>
<polyline clip-path="url(#clip470)" style="stroke:#222255; stroke-linecap:round; stroke-linejoin:round; stroke-width:4; stroke-opacity:0; fill:none" points="322.094,1244.63 331.543,1244.63 "/>
<polyline clip-path="url(#clip470)" style="stroke:#222255; stroke-linecap:round; stroke-linejoin:round; stroke-width:4; stroke-opacity:0; fill:none" points="322.094,1155.65 331.543,1155.65 "/>
<polyline clip-path="url(#clip470)" style="stroke:#222255; stroke-linecap:round; stroke-linejoin:round; stroke-width:4; stroke-opacity:0; fill:none" points="322.094,977.683 331.543,977.683 "/>
<polyline clip-path="url(#clip470)" style="stroke:#222255; stroke-linecap:round; stroke-linejoin:round; stroke-width:4; stroke-opacity:0; fill:none" points="322.094,888.7 331.543,888.7 "/>
<polyline clip-path="url(#clip470)" style="stroke:#222255; stroke-linecap:round; stroke-linejoin:round; stroke-width:4; stroke-opacity:0; fill:none" points="322.094,799.718 331.543,799.718 "/>
<polyline clip-path="url(#clip470)" style="stroke:#222255; stroke-linecap:round; stroke-linejoin:round; stroke-width:4; stroke-opacity:0; fill:none" points="322.094,710.736 331.543,710.736 "/>
<polyline clip-path="url(#clip470)" style="stroke:#222255; stroke-linecap:round; stroke-linejoin:round; stroke-width:4; stroke-opacity:0; fill:none" points="322.094,532.772 331.543,532.772 "/>
<polyline clip-path="url(#clip470)" style="stroke:#222255; stroke-linecap:round; stroke-linejoin:round; stroke-width:4; stroke-opacity:0; fill:none" points="322.094,443.789 331.543,443.789 "/>
<polyline clip-path="url(#clip470)" style="stroke:#222255; stroke-linecap:round; stroke-linejoin:round; stroke-width:4; stroke-opacity:0; fill:none" points="322.094,354.807 331.543,354.807 "/>
<polyline clip-path="url(#clip470)" style="stroke:#222255; stroke-linecap:round; stroke-linejoin:round; stroke-width:4; stroke-opacity:0; fill:none" points="322.094,265.825 331.543,265.825 "/>
<path clip-path="url(#clip470)" d="M228.034 1939.21 L246.391 1939.21 L246.391 1943.14 L232.317 1943.14 L232.317 1951.61 Q233.335 1951.27 234.354 1951.1 Q235.372 1950.92 236.391 1950.92 Q242.178 1950.92 245.557 1954.09 Q248.937 1957.26 248.937 1962.68 Q248.937 1968.26 245.465 1971.36 Q241.993 1974.44 235.673 1974.44 Q233.497 1974.44 231.229 1974.07 Q228.983 1973.7 226.576 1972.96 L226.576 1968.26 Q228.659 1969.39 230.882 1969.95 Q233.104 1970.5 235.581 1970.5 Q239.585 1970.5 241.923 1968.4 Q244.261 1966.29 244.261 1962.68 Q244.261 1959.07 241.923 1956.96 Q239.585 1954.85 235.581 1954.85 Q233.706 1954.85 231.831 1955.27 Q229.979 1955.69 228.034 1956.57 L228.034 1939.21 Z" fill="#000000" fill-rule="nonzero" fill-opacity="1" /><path clip-path="url(#clip470)" d="M268.15 1942.29 Q264.539 1942.29 262.71 1945.85 Q260.905 1949.39 260.905 1956.52 Q260.905 1963.63 262.71 1967.19 Q264.539 1970.73 268.15 1970.73 Q271.784 1970.73 273.59 1967.19 Q275.418 1963.63 275.418 1956.52 Q275.418 1949.39 273.59 1945.85 Q271.784 1942.29 268.15 1942.29 M268.15 1938.58 Q273.96 1938.58 277.016 1943.19 Q280.094 1947.77 280.094 1956.52 Q280.094 1965.25 277.016 1969.85 Q273.96 1974.44 268.15 1974.44 Q262.34 1974.44 259.261 1969.85 Q256.206 1965.25 256.206 1956.52 Q256.206 1947.77 259.261 1943.19 Q262.34 1938.58 268.15 1938.58 Z" fill="#000000" fill-rule="nonzero" fill-opacity="1" /><path clip-path="url(#clip470)" d="M198.636 1524.92 L206.275 1524.92 L206.275 1498.56 L197.965 1500.22 L197.965 1495.96 L206.229 1494.3 L210.905 1494.3 L210.905 1524.92 L218.544 1524.92 L218.544 1528.86 L198.636 1528.86 L198.636 1524.92 Z" fill="#000000" fill-rule="nonzero" fill-opacity="1" /><path clip-path="url(#clip470)" d="M237.988 1497.37 Q234.377 1497.37 232.548 1500.94 Q230.743 1504.48 230.743 1511.61 Q230.743 1518.72 232.548 1522.28 Q234.377 1525.82 237.988 1525.82 Q241.622 1525.82 243.428 1522.28 Q245.257 1518.72 245.257 1511.61 Q245.257 1504.48 243.428 1500.94 Q241.622 1497.37 237.988 1497.37 M237.988 1493.67 Q243.798 1493.67 246.854 1498.28 Q249.932 1502.86 249.932 1511.61 Q249.932 1520.34 246.854 1524.94 Q243.798 1529.53 237.988 1529.53 Q232.178 1529.53 229.099 1524.94 Q226.044 1520.34 226.044 1511.61 Q226.044 1502.86 229.099 1498.28 Q232.178 1493.67 237.988 1493.67 Z" fill="#000000" fill-rule="nonzero" fill-opacity="1" /><path clip-path="url(#clip470)" d="M268.15 1497.37 Q264.539 1497.37 262.71 1500.94 Q260.905 1504.48 260.905 1511.61 Q260.905 1518.72 262.71 1522.28 Q264.539 1525.82 268.15 1525.82 Q271.784 1525.82 273.59 1522.28 Q275.418 1518.72 275.418 1511.61 Q275.418 1504.48 273.59 1500.94 Q271.784 1497.37 268.15 1497.37 M268.15 1493.67 Q273.96 1493.67 277.016 1498.28 Q280.094 1502.86 280.094 1511.61 Q280.094 1520.34 277.016 1524.94 Q273.96 1529.53 268.15 1529.53 Q262.34 1529.53 259.261 1524.94 Q256.206 1520.34 256.206 1511.61 Q256.206 1502.86 259.261 1498.28 Q262.34 1493.67 268.15 1493.67 Z" fill="#000000" fill-rule="nonzero" fill-opacity="1" /><path clip-path="url(#clip470)" d="M198.636 1080.01 L206.275 1080.01 L206.275 1053.64 L197.965 1055.31 L197.965 1051.05 L206.229 1049.38 L210.905 1049.38 L210.905 1080.01 L218.544 1080.01 L218.544 1083.94 L198.636 1083.94 L198.636 1080.01 Z" fill="#000000" fill-rule="nonzero" fill-opacity="1" /><path clip-path="url(#clip470)" d="M228.034 1049.38 L246.391 1049.38 L246.391 1053.32 L232.317 1053.32 L232.317 1061.79 Q233.335 1061.44 234.354 1061.28 Q235.372 1061.1 236.391 1061.1 Q242.178 1061.1 245.557 1064.27 Q248.937 1067.44 248.937 1072.86 Q248.937 1078.44 245.465 1081.54 Q241.993 1084.62 235.673 1084.62 Q233.497 1084.62 231.229 1084.25 Q228.983 1083.88 226.576 1083.13 L226.576 1078.44 Q228.659 1079.57 230.882 1080.13 Q233.104 1080.68 235.581 1080.68 Q239.585 1080.68 241.923 1078.57 Q244.261 1076.47 244.261 1072.86 Q244.261 1069.25 241.923 1067.14 Q239.585 1065.03 235.581 1065.03 Q233.706 1065.03 231.831 1065.45 Q229.979 1065.87 228.034 1066.75 L228.034 1049.38 Z" fill="#000000" fill-rule="nonzero" fill-opacity="1" /><path clip-path="url(#clip470)" d="M268.15 1052.46 Q264.539 1052.46 262.71 1056.03 Q260.905 1059.57 260.905 1066.7 Q260.905 1073.81 262.71 1077.37 Q264.539 1080.91 268.15 1080.91 Q271.784 1080.91 273.59 1077.37 Q275.418 1073.81 275.418 1066.7 Q275.418 1059.57 273.59 1056.03 Q271.784 1052.46 268.15 1052.46 M268.15 1048.76 Q273.96 1048.76 277.016 1053.37 Q280.094 1057.95 280.094 1066.7 Q280.094 1075.43 277.016 1080.03 Q273.96 1084.62 268.15 1084.62 Q262.34 1084.62 259.261 1080.03 Q256.206 1075.43 256.206 1066.7 Q256.206 1057.95 259.261 1053.37 Q262.34 1048.76 268.15 1048.76 Z" fill="#000000" fill-rule="nonzero" fill-opacity="1" /><path clip-path="url(#clip470)" d="M201.854 635.099 L218.173 635.099 L218.173 639.034 L196.229 639.034 L196.229 635.099 Q198.891 632.344 203.474 627.714 Q208.081 623.062 209.261 621.719 Q211.507 619.196 212.386 617.46 Q213.289 615.701 213.289 614.011 Q213.289 611.256 211.345 609.52 Q209.423 607.784 206.322 607.784 Q204.123 607.784 201.669 608.548 Q199.238 609.312 196.461 610.863 L196.461 606.14 Q199.285 605.006 201.738 604.427 Q204.192 603.849 206.229 603.849 Q211.599 603.849 214.794 606.534 Q217.988 609.219 217.988 613.71 Q217.988 615.839 217.178 617.761 Q216.391 619.659 214.284 622.251 Q213.706 622.923 210.604 626.14 Q207.502 629.335 201.854 635.099 Z" fill="#000000" fill-rule="nonzero" fill-opacity="1" /><path clip-path="url(#clip470)" d="M237.988 607.552 Q234.377 607.552 232.548 611.117 Q230.743 614.659 230.743 621.789 Q230.743 628.895 232.548 632.46 Q234.377 636.001 237.988 636.001 Q241.622 636.001 243.428 632.46 Q245.257 628.895 245.257 621.789 Q245.257 614.659 243.428 611.117 Q241.622 607.552 237.988 607.552 M237.988 603.849 Q243.798 603.849 246.854 608.455 Q249.932 613.039 249.932 621.789 Q249.932 630.515 246.854 635.122 Q243.798 639.705 237.988 639.705 Q232.178 639.705 229.099 635.122 Q226.044 630.515 226.044 621.789 Q226.044 613.039 229.099 608.455 Q232.178 603.849 237.988 603.849 Z" fill="#000000" fill-rule="nonzero" fill-opacity="1" /><path clip-path="url(#clip470)" d="M268.15 607.552 Q264.539 607.552 262.71 611.117 Q260.905 614.659 260.905 621.789 Q260.905 628.895 262.71 632.46 Q264.539 636.001 268.15 636.001 Q271.784 636.001 273.59 632.46 Q275.418 628.895 275.418 621.789 Q275.418 614.659 273.59 611.117 Q271.784 607.552 268.15 607.552 M268.15 603.849 Q273.96 603.849 277.016 608.455 Q280.094 613.039 280.094 621.789 Q280.094 630.515 277.016 635.122 Q273.96 639.705 268.15 639.705 Q262.34 639.705 259.261 635.122 Q256.206 630.515 256.206 621.789 Q256.206 613.039 259.261 608.455 Q262.34 603.849 268.15 603.849 Z" fill="#000000" fill-rule="nonzero" fill-opacity="1" /><path clip-path="url(#clip470)" d="M201.854 190.188 L218.173 190.188 L218.173 194.123 L196.229 194.123 L196.229 190.188 Q198.891 187.433 203.474 182.803 Q208.081 178.151 209.261 176.808 Q211.507 174.285 212.386 172.549 Q213.289 170.79 213.289 169.1 Q213.289 166.345 211.345 164.609 Q209.423 162.873 206.322 162.873 Q204.123 162.873 201.669 163.637 Q199.238 164.401 196.461 165.952 L196.461 161.229 Q199.285 160.095 201.738 159.516 Q204.192 158.938 206.229 158.938 Q211.599 158.938 214.794 161.623 Q217.988 164.308 217.988 168.799 Q217.988 170.928 217.178 172.85 Q216.391 174.748 214.284 177.34 Q213.706 178.012 210.604 181.229 Q207.502 184.424 201.854 190.188 Z" fill="#000000" fill-rule="nonzero" fill-opacity="1" /><path clip-path="url(#clip470)" d="M228.034 159.563 L246.391 159.563 L246.391 163.498 L232.317 163.498 L232.317 171.97 Q233.335 171.623 234.354 171.461 Q235.372 171.276 236.391 171.276 Q242.178 171.276 245.557 174.447 Q248.937 177.618 248.937 183.035 Q248.937 188.614 245.465 191.715 Q241.993 194.794 235.673 194.794 Q233.497 194.794 231.229 194.424 Q228.983 194.053 226.576 193.313 L226.576 188.614 Q228.659 189.748 230.882 190.303 Q233.104 190.859 235.581 190.859 Q239.585 190.859 241.923 188.752 Q244.261 186.646 244.261 183.035 Q244.261 179.424 241.923 177.317 Q239.585 175.211 235.581 175.211 Q233.706 175.211 231.831 175.627 Q229.979 176.044 228.034 176.924 L228.034 159.563 Z" fill="#000000" fill-rule="nonzero" fill-opacity="1" /><path clip-path="url(#clip470)" d="M268.15 162.641 Q264.539 162.641 262.71 166.206 Q260.905 169.748 260.905 176.877 Q260.905 183.984 262.71 187.549 Q264.539 191.09 268.15 191.09 Q271.784 191.09 273.59 187.549 Q275.418 183.984 275.418 176.877 Q275.418 169.748 273.59 166.206 Q271.784 162.641 268.15 162.641 M268.15 158.938 Q273.96 158.938 277.016 163.544 Q280.094 168.128 280.094 176.877 Q280.094 185.604 277.016 190.211 Q273.96 194.794 268.15 194.794 Q262.34 194.794 259.261 190.211 Q256.206 185.604 256.206 176.877 Q256.206 168.128 259.261 163.544 Q262.34 158.938 268.15 158.938 Z" fill="#000000" fill-rule="nonzero" fill-opacity="1" /><path clip-path="url(#clip470)" d="M27.3105 1136.08 Q17.1657 1136.08 10.177 1129.6 Q3.15611 1123.1 3.15611 1114.11 Q3.15611 1105.22 10.1448 1098.69 Q17.1335 1092.15 27.3105 1092.15 Q37.4554 1092.15 44.283 1098.69 Q51.1106 1105.22 51.1106 1114.14 Q51.1106 1123.03 44.2508 1129.57 Q37.3909 1136.08 27.3105 1136.08 M27.3105 1129.64 Q33.3008 1129.64 37.8418 1128.12 Q42.3506 1126.58 44.7983 1124.16 Q47.2137 1121.71 48.3731 1119.17 Q49.5326 1116.62 49.5326 1114.11 Q49.5326 1112.15 48.8884 1110.15 Q48.2121 1108.12 46.5696 1106 Q44.9271 1103.84 42.4473 1102.23 Q39.9674 1100.62 36.0383 1099.59 Q32.1092 1098.56 27.2461 1098.56 Q21.1914 1098.56 16.586 1100.07 Q11.9483 1101.58 9.46846 1104.03 Q6.98861 1106.48 5.79699 1109.06 Q4.60538 1111.63 4.60538 1114.11 Q4.60538 1116.08 5.31391 1118.11 Q5.99023 1120.13 7.69714 1122.26 Q9.37185 1124.35 11.8839 1125.96 Q14.3638 1127.57 18.3573 1128.61 Q22.3508 1129.64 27.3105 1129.64 M31.8515 1125.93 L22.2864 1125.93 L22.2864 1124.29 L24.6052 1124.29 L24.6052 1103.97 L22.2864 1103.97 L22.2864 1102.26 L31.8515 1102.26 L31.8515 1103.97 L29.5971 1103.97 L29.5971 1124.29 L31.8515 1124.29 L31.8515 1125.93 Z" fill="#000000" fill-rule="nonzero" fill-opacity="1" /><path clip-path="url(#clip470)" d="M50.5798 1050.26 Q54.2996 1050.26 57.9517 1051.86 Q61.5813 1053.44 64.3317 1056.01 Q67.0596 1058.56 68.7504 1062.01 Q70.4412 1065.46 70.4412 1068.97 L70.4412 1084.26 Q70.4412 1084.8 70.4186 1085.02 Q70.3961 1085.23 70.2834 1085.38 Q70.1481 1085.54 69.8776 1085.54 Q69.4492 1085.54 69.2689 1085.36 Q69.066 1085.18 69.0434 1084.98 Q69.0209 1084.78 69.0209 1084.26 Q69.0209 1083.13 68.9533 1082.45 Q68.8856 1081.78 68.7954 1081.35 Q68.6827 1080.9 68.3671 1080.67 Q68.0515 1080.42 67.781 1080.31 Q67.4879 1080.2 66.8341 1080.04 L42.0356 1073.86 Q41.2916 1073.68 41.1789 1073.68 Q40.7957 1073.68 40.6604 1073.91 Q40.5026 1074.11 40.435 1074.7 Q40.3448 1075.83 40.3448 1076.68 Q40.3448 1077.25 40.3222 1077.47 Q40.2997 1077.67 40.187 1077.85 Q40.0517 1078.01 39.7812 1078.01 Q39.3529 1078.01 39.1725 1077.83 Q38.9696 1077.63 38.9471 1077.4 Q38.902 1077.18 38.902 1076.64 L38.902 1061.13 Q38.902 1057.77 40.4801 1055.27 Q42.0356 1052.76 44.6733 1051.52 Q47.2884 1050.26 50.5798 1050.26 M48.889 1054.3 Q44.5831 1054.3 42.4639 1056.64 Q40.3448 1058.96 40.3448 1062.64 L40.3448 1067.57 Q40.3448 1069.04 40.6153 1069.4 Q40.8633 1069.76 42.1032 1070.08 L67.4428 1076.41 Q68.2769 1076.64 68.5024 1076.64 Q68.7504 1076.64 68.8405 1076.52 Q68.9082 1076.39 68.9533 1076.03 Q69.0209 1075.62 69.0209 1075.01 L69.0209 1069.81 Q69.0209 1067.8 68.4798 1065.97 Q67.9162 1064.13 67.037 1062.8 Q66.1352 1061.46 65.3687 1060.61 Q64.5797 1059.75 63.7907 1059.14 Q62.0097 1057.77 59.6876 1056.75 Q57.3656 1055.72 55.2464 1055.24 Q53.1048 1054.75 51.5267 1054.52 Q49.926 1054.3 48.889 1054.3 Z" fill="#000000" fill-rule="nonzero" fill-opacity="1" /><path clip-path="url(#clip470)" d="M40.2997 1013.81 L48.2803 1014.74 Q49.0017 1014.81 49.2272 1014.92 Q49.4301 1015.03 49.4301 1015.39 Q49.4301 1015.93 48.889 1015.93 Q48.6636 1015.93 48.0549 1015.84 Q46.8149 1015.71 45.5525 1015.71 Q44.1322 1015.71 43.253 1015.98 Q42.3512 1016.23 41.6974 1016.95 Q41.0437 1017.67 40.7731 1019 Q40.4801 1020.33 40.4801 1022.45 L40.4801 1028.54 Q40.4801 1030.02 40.7506 1030.38 Q41.0211 1030.72 42.2836 1031.04 L54.0065 1033.99 L54.0065 1029.8 Q54.0065 1026.87 53.1498 1025.72 Q52.2932 1024.57 49.5653 1023.85 Q49.137 1023.73 48.9792 1023.69 Q48.7988 1023.62 48.7087 1023.51 Q48.5959 1023.37 48.5959 1023.15 Q48.5959 1022.94 48.7312 1022.81 Q48.8439 1022.67 48.9792 1022.63 L49.1144 1022.58 Q49.3399 1022.58 49.8584 1022.72 L59.868 1025.27 Q60.5443 1025.45 60.7021 1025.56 Q60.8374 1025.65 60.8374 1025.97 Q60.8374 1026.19 60.6796 1026.35 Q60.5218 1026.51 60.2738 1026.51 Q60.0032 1026.46 59.7778 1026.37 Q58.4026 1026.06 57.5234 1026.06 Q56.9598 1026.06 56.6216 1026.17 Q56.2835 1026.28 55.9904 1026.66 Q55.6973 1027.05 55.5621 1027.84 Q55.4268 1028.63 55.4268 1029.89 L55.4268 1034.35 L66.9243 1037.21 L67.9839 1037.42 Q68.4573 1037.42 68.6376 1037.17 Q68.818 1036.9 68.9082 1035.93 Q69.0209 1034.49 69.0209 1033.54 Q69.0209 1032.37 69.066 1032.23 Q69.2012 1031.96 69.5619 1031.96 Q69.9677 1031.96 70.1932 1032.14 Q70.3961 1032.32 70.4186 1032.48 Q70.4412 1032.64 70.4412 1032.93 L70.3059 1039.81 L70.4412 1045.89 Q70.4412 1046.59 69.8776 1046.59 Q69.4492 1046.59 69.2689 1046.41 Q69.066 1046.23 69.0434 1046.03 Q69.0209 1045.83 69.0209 1045.31 Q69.0209 1044.18 68.9533 1043.5 Q68.8856 1042.83 68.7954 1042.4 Q68.6827 1041.95 68.3671 1041.72 Q68.0515 1041.48 67.781 1041.36 Q67.4879 1041.25 66.8341 1041.09 L42.4188 1035.01 Q41.5847 1034.78 41.3142 1034.78 Q41.0211 1034.78 40.8408 1034.98 Q40.6604 1035.16 40.5928 1035.66 Q40.5026 1036.16 40.5026 1036.56 Q40.4801 1036.94 40.4801 1037.78 Q40.4801 1038.32 40.4575 1038.54 Q40.435 1038.75 40.3222 1038.91 Q40.2095 1039.06 39.9615 1039.06 Q39.3303 1039.06 39.195 1038.79 Q39.0372 1038.5 39.0372 1037.69 L39.0372 1015.05 Q39.0372 1014.15 39.2401 1013.95 Q39.4205 1013.72 40.2997 1013.81 Z" fill="#000000" fill-rule="nonzero" fill-opacity="1" /><path clip-path="url(#clip470)" d="M38.3609 983.725 L48.4607 986.227 Q49.0694 986.362 49.2272 986.475 Q49.385 986.588 49.385 986.903 Q49.385 987.151 49.2723 987.309 Q49.1595 987.444 49.0468 987.444 L48.9341 987.467 Q48.8665 987.467 48.5283 987.422 Q48.1676 987.377 47.5814 987.332 Q46.9953 987.287 46.3415 987.287 Q42.6443 987.287 40.9309 989.09 Q39.195 990.871 39.195 993.937 Q39.195 996.056 40.3222 997.95 Q41.4495 999.844 43.2304 1000.93 Q44.9889 1002.01 46.8375 1002.01 Q48.5283 1002.01 49.6104 1001.15 Q50.6925 1000.29 51.0532 999.19 L51.8874 996.101 Q52.7215 992.855 53.0822 991.931 Q53.4204 991.006 54.1869 990.24 Q56.306 987.963 59.5975 987.963 Q62.438 987.963 65.1884 989.564 Q67.9162 991.164 69.6972 993.915 Q71.4557 996.665 71.4557 999.708 Q71.4557 1005.05 68.1417 1007.51 L70.7568 1009.76 Q71.2528 1010.19 71.3429 1010.33 Q71.4557 1010.44 71.4557 1010.6 Q71.4557 1010.8 71.3204 1010.96 Q71.2077 1011.12 71.0048 1011.12 Q70.847 1011.12 65.5491 1009.79 Q60.2512 1008.46 60.1385 1008.34 Q59.9582 1008.16 59.9582 1007.87 Q59.9582 1007.33 60.4767 1007.33 Q60.6119 1007.37 60.7923 1007.42 Q62.4155 1007.69 63.2947 1007.69 Q64.9404 1007.69 66.2029 1007.13 Q67.4428 1006.56 68.1642 1005.73 Q68.8631 1004.87 69.314 1003.72 Q69.7423 1002.57 69.9001 1001.6 Q70.0354 1000.63 70.0354 999.618 Q70.0354 997.431 68.7729 995.493 Q67.5104 993.531 65.5491 992.427 Q63.5878 991.299 61.5362 991.299 Q60.4541 991.299 59.62 991.593 Q58.7633 991.886 58.2899 992.291 Q57.8165 992.675 57.4558 993.328 Q57.0951 993.982 56.9598 994.433 Q56.802 994.861 56.6442 995.538 L55.3366 1000.47 Q54.7505 1002.46 53.0597 1003.88 Q51.3689 1005.28 48.7763 1005.28 Q46.0485 1005.28 43.5235 1003.68 Q40.976 1002.05 39.443 999.415 Q37.8875 996.755 37.8875 993.892 Q37.8875 991.638 38.7667 989.902 Q39.6234 988.166 41.224 987.287 L38.5864 985.055 Q38.0678 984.604 37.9777 984.514 Q37.8875 984.401 37.8875 984.243 Q37.8875 983.973 38.0453 983.86 Q38.2031 983.725 38.3609 983.725 Z" fill="#000000" fill-rule="nonzero" fill-opacity="1" /><path clip-path="url(#clip470)" d="M89.0492 1136.08 L89.0492 969.019 L85.5292 969.019 L85.5292 1136.08  Z" fill="#000000" fill-rule="evenodd" fill-opacity="1"/>
<path clip-path="url(#clip470)" d="M126.825 1134.91 Q116.68 1134.91 109.692 1128.44 Q102.671 1121.93 102.671 1112.95 Q102.671 1104.06 109.66 1097.52 Q116.648 1090.98 126.825 1090.98 Q136.97 1090.98 143.798 1097.52 Q150.625 1104.06 150.625 1112.98 Q150.625 1121.87 143.766 1128.4 Q136.906 1134.91 126.825 1134.91 M126.825 1128.47 Q132.816 1128.47 137.357 1126.96 Q141.865 1125.41 144.313 1122.99 Q146.728 1120.55 147.888 1118 Q149.047 1115.46 149.047 1112.95 Q149.047 1110.98 148.403 1108.98 Q147.727 1106.96 146.084 1104.83 Q144.442 1102.67 141.962 1101.06 Q139.482 1099.45 135.553 1098.42 Q131.624 1097.39 126.761 1097.39 Q120.706 1097.39 116.101 1098.9 Q111.463 1100.42 108.983 1102.87 Q106.503 1105.31 105.312 1107.89 Q104.12 1110.47 104.12 1112.95 Q104.12 1114.91 104.829 1116.94 Q105.505 1118.97 107.212 1121.09 Q108.887 1123.19 111.399 1124.8 Q113.878 1126.41 117.872 1127.44 Q121.866 1128.47 126.825 1128.47 M131.366 1124.77 L121.801 1124.77 L121.801 1123.12 L124.12 1123.12 L124.12 1102.8 L121.801 1102.8 L121.801 1101.09 L131.366 1101.09 L131.366 1102.8 L129.112 1102.8 L129.112 1123.12 L131.366 1123.12 L131.366 1124.77 Z" fill="#000000" fill-rule="nonzero" fill-opacity="1" /><path clip-path="url(#clip470)" d="M144.797 1051.42 Q146.893 1051.42 148.787 1052.86 Q150.658 1054.28 151.853 1056.44 Q153.025 1058.61 153.476 1061.06 Q153.859 1057.75 155.663 1055.83 Q157.466 1053.9 159.991 1053.9 Q161.682 1053.9 163.463 1054.89 Q165.222 1055.86 166.664 1057.53 Q168.107 1059.17 169.032 1061.61 Q169.956 1064.02 169.956 1066.66 L169.956 1083.14 Q169.956 1083.65 169.933 1083.86 Q169.911 1084.06 169.798 1084.22 Q169.685 1084.38 169.437 1084.38 Q168.987 1084.38 168.784 1084.22 Q168.581 1084.04 168.558 1083.83 Q168.536 1083.63 168.536 1083.14 Q168.536 1082.01 168.468 1081.33 Q168.4 1080.66 168.31 1080.23 Q168.197 1079.78 167.882 1079.55 Q167.566 1079.3 167.296 1079.19 Q167.003 1079.08 166.349 1078.92 L141.55 1072.74 Q140.806 1072.56 140.694 1072.56 Q140.265 1072.56 140.153 1072.83 Q140.017 1073.08 139.95 1073.8 L139.86 1075.56 Q139.86 1076.1 139.837 1076.33 Q139.814 1076.53 139.702 1076.69 Q139.589 1076.85 139.341 1076.85 Q138.71 1076.85 138.575 1076.58 Q138.417 1076.28 138.417 1075.52 L138.417 1060.01 Q138.417 1056.01 140.265 1053.72 Q142.091 1051.42 144.797 1051.42 M144.616 1055.61 Q143.76 1055.61 142.993 1055.83 Q142.227 1056.06 141.483 1056.6 Q140.739 1057.12 140.31 1058.16 Q139.86 1059.19 139.86 1060.64 L139.86 1066.61 Q139.86 1068.08 140.13 1068.44 Q140.378 1068.77 141.618 1069.09 L153.048 1071.95 L153.048 1065.21 Q153.048 1063.16 152.304 1061.36 Q151.56 1059.53 150.365 1058.29 Q149.148 1057.05 147.637 1056.33 Q146.127 1055.61 144.616 1055.61 M159.473 1058.2 Q158.797 1058.2 158.143 1058.31 Q157.489 1058.43 156.723 1058.79 Q155.956 1059.15 155.392 1059.71 Q154.829 1060.28 154.446 1061.27 Q154.062 1062.24 154.062 1063.5 L154.062 1072.22 L166.958 1075.43 Q167.792 1075.65 168.017 1075.65 Q168.265 1075.65 168.355 1075.54 Q168.423 1075.4 168.468 1075.04 Q168.536 1074.64 168.536 1074.03 L168.536 1067.76 Q168.536 1065.78 167.769 1063.97 Q166.98 1062.17 165.718 1060.93 Q164.455 1059.67 162.809 1058.95 Q161.164 1058.2 159.473 1058.2 Z" fill="#000000" fill-rule="nonzero" fill-opacity="1" /><path clip-path="url(#clip470)" d="M139.814 1014.5 L147.795 1015.43 Q148.516 1015.49 148.742 1015.61 Q148.945 1015.72 148.945 1016.08 Q148.945 1016.62 148.404 1016.62 Q148.178 1016.62 147.57 1016.53 Q146.33 1016.4 145.067 1016.4 Q143.647 1016.4 142.768 1016.67 Q141.866 1016.91 141.212 1017.64 Q140.558 1018.36 140.288 1019.69 Q139.995 1021.02 139.995 1023.14 L139.995 1029.22 Q139.995 1030.71 140.265 1031.07 Q140.536 1031.41 141.798 1031.73 L153.521 1034.68 L153.521 1030.49 Q153.521 1027.55 152.665 1026.4 Q151.808 1025.26 149.08 1024.53 Q148.652 1024.42 148.494 1024.38 Q148.314 1024.31 148.223 1024.2 Q148.111 1024.06 148.111 1023.83 Q148.111 1023.63 148.246 1023.5 Q148.359 1023.36 148.494 1023.32 L148.629 1023.27 Q148.855 1023.27 149.373 1023.41 L159.383 1025.95 Q160.059 1026.13 160.217 1026.25 Q160.352 1026.34 160.352 1026.65 Q160.352 1026.88 160.194 1027.04 Q160.037 1027.19 159.789 1027.19 Q159.518 1027.15 159.293 1027.06 Q157.917 1026.74 157.038 1026.74 Q156.475 1026.74 156.136 1026.86 Q155.798 1026.97 155.505 1027.35 Q155.212 1027.73 155.077 1028.52 Q154.942 1029.31 154.942 1030.58 L154.942 1035.04 L166.439 1037.9 L167.499 1038.11 Q167.972 1038.11 168.152 1037.86 Q168.333 1037.59 168.423 1036.62 Q168.536 1035.17 168.536 1034.23 Q168.536 1033.06 168.581 1032.92 Q168.716 1032.65 169.077 1032.65 Q169.482 1032.65 169.708 1032.83 Q169.911 1033.01 169.933 1033.17 Q169.956 1033.33 169.956 1033.62 L169.821 1040.49 L169.956 1046.58 Q169.956 1047.28 169.392 1047.28 Q168.964 1047.28 168.784 1047.1 Q168.581 1046.92 168.558 1046.72 Q168.536 1046.51 168.536 1046 Q168.536 1044.87 168.468 1044.19 Q168.4 1043.52 168.31 1043.09 Q168.197 1042.64 167.882 1042.41 Q167.566 1042.16 167.296 1042.05 Q167.003 1041.94 166.349 1041.78 L141.934 1035.69 Q141.099 1035.47 140.829 1035.47 Q140.536 1035.47 140.356 1035.67 Q140.175 1035.85 140.108 1036.35 Q140.017 1036.84 140.017 1037.25 Q139.995 1037.63 139.995 1038.47 Q139.995 1039.01 139.972 1039.23 Q139.95 1039.44 139.837 1039.59 Q139.724 1039.75 139.476 1039.75 Q138.845 1039.75 138.71 1039.48 Q138.552 1039.19 138.552 1038.38 L138.552 1015.74 Q138.552 1014.84 138.755 1014.64 Q138.935 1014.41 139.814 1014.5 Z" fill="#000000" fill-rule="nonzero" fill-opacity="1" /><path clip-path="url(#clip470)" d="M137.876 984.412 L147.975 986.915 Q148.584 987.05 148.742 987.163 Q148.9 987.275 148.9 987.591 Q148.9 987.839 148.787 987.997 Q148.674 988.132 148.562 988.132 L148.449 988.154 Q148.381 988.154 148.043 988.109 Q147.682 988.064 147.096 988.019 Q146.51 987.974 145.856 987.974 Q142.159 987.974 140.446 989.778 Q138.71 991.559 138.71 994.625 Q138.71 996.744 139.837 998.637 Q140.964 1000.53 142.745 1001.61 Q144.504 1002.7 146.352 1002.7 Q148.043 1002.7 149.125 1001.84 Q150.207 1000.98 150.568 999.877 L151.402 996.789 Q152.236 993.543 152.597 992.618 Q152.935 991.694 153.702 990.927 Q155.821 988.65 159.112 988.65 Q161.953 988.65 164.703 990.251 Q167.431 991.852 169.212 994.602 Q170.97 997.352 170.97 1000.4 Q170.97 1005.74 167.656 1008.2 L170.272 1010.45 Q170.767 1010.88 170.858 1011.01 Q170.97 1011.13 170.97 1011.28 Q170.97 1011.49 170.835 1011.65 Q170.722 1011.8 170.52 1011.8 Q170.362 1011.8 165.064 1010.47 Q159.766 1009.14 159.653 1009.03 Q159.473 1008.85 159.473 1008.56 Q159.473 1008.02 159.991 1008.02 Q160.127 1008.06 160.307 1008.11 Q161.93 1008.38 162.809 1008.38 Q164.455 1008.38 165.718 1007.81 Q166.958 1007.25 167.679 1006.42 Q168.378 1005.56 168.829 1004.41 Q169.257 1003.26 169.415 1002.29 Q169.55 1001.32 169.55 1000.31 Q169.55 998.119 168.288 996.18 Q167.025 994.219 165.064 993.114 Q163.103 991.987 161.051 991.987 Q159.969 991.987 159.135 992.28 Q158.278 992.573 157.805 992.979 Q157.331 993.362 156.971 994.016 Q156.61 994.67 156.475 995.121 Q156.317 995.549 156.159 996.225 L154.851 1001.16 Q154.265 1003.15 152.574 1004.57 Q150.884 1005.96 148.291 1005.96 Q145.563 1005.96 143.038 1004.36 Q140.491 1002.74 138.958 1000.1 Q137.402 997.443 137.402 994.58 Q137.402 992.325 138.281 990.589 Q139.138 988.853 140.739 987.974 L138.101 985.742 Q137.583 985.291 137.492 985.201 Q137.402 985.088 137.402 984.931 Q137.402 984.66 137.56 984.547 Q137.718 984.412 137.876 984.412 Z" fill="#000000" fill-rule="nonzero" fill-opacity="1" /><path clip-path="url(#clip470)" d="M345.532 34.2568 Q350.566 35.3331 353.379 38.7359 Q356.226 42.1387 356.226 47.1386 Q356.226 54.8122 350.948 59.0136 Q345.671 63.2149 335.948 63.2149 Q332.685 63.2149 329.212 62.5552 Q325.775 61.9302 322.094 60.6455 L322.094 53.8747 Q325.011 55.5761 328.483 56.4441 Q331.955 57.3122 335.74 57.3122 Q342.337 57.3122 345.775 54.708 Q349.247 52.1039 349.247 47.1386 Q349.247 42.5553 346.018 39.9859 Q342.823 37.3817 337.094 37.3817 L331.053 37.3817 L331.053 31.6179 L337.372 31.6179 Q342.546 31.6179 345.289 29.5693 Q348.032 27.486 348.032 23.5971 Q348.032 19.6041 345.184 17.486 Q342.372 15.3333 337.094 15.3333 Q334.212 15.3333 330.914 15.9582 Q327.615 16.5832 323.657 17.9027 L323.657 11.6527 Q327.65 10.5416 331.122 9.98606 Q334.629 9.43051 337.719 9.43051 Q345.705 9.43051 350.358 13.0763 Q355.011 16.6874 355.011 22.8679 Q355.011 27.1735 352.546 30.1596 Q350.08 33.1109 345.532 34.2568 Z" fill="#000000" fill-rule="nonzero" fill-opacity="1" /><path clip-path="url(#clip470)" d="M369.525 53.3886 L376.851 53.3886 L376.851 62.208 L369.525 62.208 L369.525 53.3886 Z" fill="#000000" fill-rule="nonzero" fill-opacity="1" /><path clip-path="url(#clip470)" d="M398.17 56.3053 L422.649 56.3053 L422.649 62.208 L389.733 62.208 L389.733 56.3053 Q393.726 52.1733 400.601 45.2289 Q407.511 38.2498 409.281 36.2359 Q412.649 32.4512 413.969 29.8471 Q415.323 27.2082 415.323 24.6735 Q415.323 20.5416 412.406 17.9374 Q409.524 15.3333 404.872 15.3333 Q401.573 15.3333 397.893 16.4791 Q394.247 17.6249 390.08 19.9513 L390.08 12.868 Q394.316 11.1666 397.997 10.2986 Q401.677 9.43051 404.733 9.43051 Q412.788 9.43051 417.58 13.4583 Q422.372 17.486 422.372 24.2221 Q422.372 27.4165 421.156 30.2984 Q419.976 33.1457 416.816 37.0345 Q415.948 38.0415 411.295 42.8678 Q406.642 47.6595 398.17 56.3053 Z" fill="#000000" fill-rule="nonzero" fill-opacity="1" /><path clip-path="url(#clip470)" d="M437.371 53.3886 L444.698 53.3886 L444.698 62.208 L437.371 62.208 L437.371 53.3886 Z" fill="#000000" fill-rule="nonzero" fill-opacity="1" /><path clip-path="url(#clip470)" d="M466.017 56.3053 L490.496 56.3053 L490.496 62.208 L457.58 62.208 L457.58 56.3053 Q461.573 52.1733 468.448 45.2289 Q475.357 38.2498 477.128 36.2359 Q480.496 32.4512 481.816 29.8471 Q483.17 27.2082 483.17 24.6735 Q483.17 20.5416 480.253 17.9374 Q477.371 15.3333 472.719 15.3333 Q469.42 15.3333 465.739 16.4791 Q462.094 17.6249 457.927 19.9513 L457.927 12.868 Q462.163 11.1666 465.844 10.2986 Q469.524 9.43051 472.58 9.43051 Q480.635 9.43051 485.427 13.4583 Q490.218 17.486 490.218 24.2221 Q490.218 27.4165 489.003 30.2984 Q487.823 33.1457 484.663 37.0345 Q483.795 38.0415 479.142 42.8678 Q474.489 47.6595 466.017 56.3053 Z" fill="#000000" fill-rule="nonzero" fill-opacity="1" /><path clip-path="url(#clip470)" d="M527.197 10.368 L559.975 10.368 L559.975 16.2707 L534.211 16.2707 L534.211 31.6179 L558.899 31.6179 L558.899 37.5206 L534.211 37.5206 L534.211 56.3053 L560.6 56.3053 L560.6 62.208 L527.197 62.208 L527.197 10.368 Z" fill="#000000" fill-rule="nonzero" fill-opacity="1" /><path clip-path="url(#clip470)" d="M594.385 29.2915 Q593.308 28.6665 592.023 28.3887 Q590.773 28.0762 589.246 28.0762 Q583.829 28.0762 580.912 31.6179 Q578.03 35.1248 578.03 41.722 L578.03 62.208 L571.607 62.208 L571.607 23.3193 L578.03 23.3193 L578.03 29.361 Q580.044 25.8193 583.273 24.1179 Q586.503 22.3818 591.121 22.3818 Q591.78 22.3818 592.579 22.486 Q593.378 22.5554 594.35 22.729 L594.385 29.2915 Z" fill="#000000" fill-rule="nonzero" fill-opacity="1" /><path clip-path="url(#clip470)" d="M625.426 29.2221 L625.426 8.18051 L631.815 8.18051 L631.815 62.208 L625.426 62.208 L625.426 56.3747 Q623.412 59.8469 620.322 61.5483 Q617.266 63.2149 612.961 63.2149 Q605.912 63.2149 601.468 57.59 Q597.058 51.965 597.058 42.7984 Q597.058 33.6318 601.468 28.0068 Q605.912 22.3818 612.961 22.3818 Q617.266 22.3818 620.322 24.0832 Q623.412 25.7499 625.426 29.2221 M603.655 42.7984 Q603.655 49.847 606.537 53.8747 Q609.454 57.8677 614.523 57.8677 Q619.593 57.8677 622.509 53.8747 Q625.426 49.847 625.426 42.7984 Q625.426 35.7498 622.509 31.7568 Q619.593 27.729 614.523 27.729 Q609.454 27.729 606.537 31.7568 Q603.655 35.7498 603.655 42.7984 Z" fill="#000000" fill-rule="nonzero" fill-opacity="1" /><path clip-path="url(#clip470)" d="M670.356 5.3333 L676.537 5.3333 L667.926 18.3888 L663.238 18.3888 L670.356 5.3333 M658.759 5.3333 L664.662 5.3333 L656.919 18.3888 L652.162 18.3888 L658.759 5.3333 M660.044 27.7985 Q654.905 27.7985 651.919 31.8262 Q648.933 35.8193 648.933 42.7984 Q648.933 49.7775 651.884 53.8053 Q654.87 57.7983 660.044 57.7983 Q665.148 57.7983 668.134 53.7705 Q671.12 49.7428 671.12 42.7984 Q671.12 35.8887 668.134 31.8609 Q665.148 27.7985 660.044 27.7985 M660.044 22.3818 Q668.377 22.3818 673.134 27.7985 Q677.891 33.2151 677.891 42.7984 Q677.891 52.3469 673.134 57.7983 Q668.377 63.2149 660.044 63.2149 Q651.676 63.2149 646.919 57.7983 Q642.197 52.3469 642.197 42.7984 Q642.197 33.2151 646.919 27.7985 Q651.676 22.3818 660.044 22.3818 Z" fill="#000000" fill-rule="nonzero" fill-opacity="1" /><path clip-path="url(#clip470)" d="M713.273 24.4651 L713.273 30.5068 Q710.564 29.1179 707.648 28.4235 Q704.731 27.729 701.606 27.729 Q696.849 27.729 694.453 29.1873 Q692.092 30.6457 692.092 33.5623 Q692.092 35.7845 693.794 37.0692 Q695.495 38.3192 700.634 39.4651 L702.821 39.9512 Q709.627 41.4095 712.474 44.0831 Q715.356 46.722 715.356 51.4789 Q715.356 56.8955 711.051 60.0552 Q706.78 63.2149 699.28 63.2149 Q696.155 63.2149 692.752 62.5899 Q689.384 61.9997 685.634 60.7844 L685.634 54.1872 Q689.176 56.0275 692.613 56.965 Q696.051 57.8677 699.419 57.8677 Q703.933 57.8677 706.363 56.34 Q708.794 54.7775 708.794 51.965 Q708.794 49.3608 707.023 47.972 Q705.287 46.5831 699.349 45.2984 L697.127 44.7775 Q691.19 43.5275 688.551 40.9581 Q685.912 38.354 685.912 33.8401 Q685.912 28.354 689.801 25.3679 Q693.69 22.3818 700.842 22.3818 Q704.384 22.3818 707.509 22.9027 Q710.634 23.4235 713.273 24.4651 Z" fill="#000000" fill-rule="nonzero" fill-opacity="1" /><path clip-path="url(#clip470)" d="M722.301 40.229 L750.911 40.229 L750.911 45.2289 L722.301 45.2289 L722.301 40.229 Z" fill="#000000" fill-rule="nonzero" fill-opacity="1" /><path clip-path="url(#clip470)" d="M785.946 37.9026 Q788.203 38.6665 790.321 41.1664 Q792.474 43.6664 794.627 48.0414 L801.745 62.208 L794.21 62.208 L787.578 48.9095 Q785.009 43.7012 782.578 41.9998 Q780.182 40.2984 776.016 40.2984 L768.377 40.2984 L768.377 62.208 L761.363 62.208 L761.363 10.368 L777.196 10.368 Q786.085 10.368 790.46 14.0833 Q794.835 17.7985 794.835 25.2985 Q794.835 30.1943 792.543 33.4234 Q790.286 36.6526 785.946 37.9026 M768.377 16.1319 L768.377 34.5345 L777.196 34.5345 Q782.265 34.5345 784.835 32.2082 Q787.439 29.8471 787.439 25.2985 Q787.439 20.7499 784.835 18.4582 Q782.265 16.1319 777.196 16.1319 L768.377 16.1319 Z" fill="#000000" fill-rule="nonzero" fill-opacity="1" /><path clip-path="url(#clip470)" d="M840.564 41.1664 L840.564 44.2914 L811.189 44.2914 Q811.606 50.8886 815.147 54.3608 Q818.724 57.7983 825.078 57.7983 Q828.758 57.7983 832.196 56.8955 Q835.668 55.9928 839.071 54.1872 L839.071 60.2288 Q835.633 61.6872 832.022 62.4511 Q828.411 63.2149 824.696 63.2149 Q815.39 63.2149 809.939 57.7983 Q804.522 52.3817 804.522 43.1456 Q804.522 33.597 809.661 28.0068 Q814.835 22.3818 823.585 22.3818 Q831.432 22.3818 835.98 27.4512 Q840.564 32.4859 840.564 41.1664 M834.175 39.2915 Q834.105 34.0484 831.224 30.9234 Q828.376 27.7985 823.654 27.7985 Q818.307 27.7985 815.078 30.8193 Q811.883 33.8401 811.397 39.3262 L834.175 39.2915 M828.029 5.3333 L834.939 5.3333 L823.619 18.3888 L818.307 18.3888 L828.029 5.3333 Z" fill="#000000" fill-rule="nonzero" fill-opacity="1" /><path clip-path="url(#clip470)" d="M883.376 38.7359 L883.376 62.208 L876.987 62.208 L876.987 38.9442 Q876.987 33.4234 874.834 30.6804 Q872.682 27.9374 868.376 27.9374 Q863.203 27.9374 860.216 31.2359 Q857.23 34.5345 857.23 40.229 L857.23 62.208 L850.807 62.208 L850.807 23.3193 L857.23 23.3193 L857.23 29.361 Q859.522 25.854 862.612 24.1179 Q865.737 22.3818 869.8 22.3818 Q876.501 22.3818 879.939 26.5485 Q883.376 30.6804 883.376 38.7359 Z" fill="#000000" fill-rule="nonzero" fill-opacity="1" /><path clip-path="url(#clip470)" d="M912.299 65.8191 Q909.591 72.7635 907.022 74.8815 Q904.452 76.9996 900.147 76.9996 L895.043 76.9996 L895.043 71.6524 L898.793 71.6524 Q901.431 71.6524 902.89 70.4024 Q904.348 69.1524 906.119 64.4997 L907.265 61.583 L891.536 23.3193 L898.307 23.3193 L910.459 53.7358 L922.612 23.3193 L929.383 23.3193 L912.299 65.8191 Z" fill="#000000" fill-rule="nonzero" fill-opacity="1" /><path clip-path="url(#clip470)" d="M938.202 23.3193 L944.591 23.3193 L944.591 62.208 L938.202 62.208 L938.202 23.3193 M938.202 8.18051 L944.591 8.18051 L944.591 16.2707 L938.202 16.2707 L938.202 8.18051 Z" fill="#000000" fill-rule="nonzero" fill-opacity="1" /><path clip-path="url(#clip470)" d="M995.91 8.24996 Q991.257 16.236 989 24.0485 Q986.744 31.8609 986.744 39.8817 Q986.744 47.9025 989 55.7844 Q991.292 63.6316 995.91 71.5829 L990.355 71.5829 Q985.146 63.4233 982.542 55.5414 Q979.973 47.6595 979.973 39.8817 Q979.973 32.1387 982.542 24.2915 Q985.112 16.4444 990.355 8.24996 L995.91 8.24996 Z" fill="#000000" fill-rule="nonzero" fill-opacity="1" /><path clip-path="url(#clip470)" d="M1040.63 38.7359 L1040.63 62.208 L1034.24 62.208 L1034.24 38.9442 Q1034.24 33.4234 1032.09 30.6804 Q1029.94 27.9374 1025.63 27.9374 Q1020.46 27.9374 1017.47 31.2359 Q1014.49 34.5345 1014.49 40.229 L1014.49 62.208 L1008.06 62.208 L1008.06 23.3193 L1014.49 23.3193 L1014.49 29.361 Q1016.78 25.854 1019.87 24.1179 Q1022.99 22.3818 1027.06 22.3818 Q1033.76 22.3818 1037.19 26.5485 Q1040.63 30.6804 1040.63 38.7359 Z" fill="#000000" fill-rule="nonzero" fill-opacity="1" /><path clip-path="url(#clip470)" d="M1076.81 29.9165 L1121.33 29.9165 L1121.33 35.7498 L1076.81 35.7498 L1076.81 29.9165 M1076.81 44.0831 L1121.33 44.0831 L1121.33 49.9858 L1076.81 49.9858 L1076.81 44.0831 Z" fill="#000000" fill-rule="nonzero" fill-opacity="1" /><path clip-path="url(#clip470)" d="M1160.28 56.3053 L1171.74 56.3053 L1171.74 16.7569 L1159.28 19.2568 L1159.28 12.868 L1171.67 10.368 L1178.69 10.368 L1178.69 56.3053 L1190.15 56.3053 L1190.15 62.208 L1160.28 62.208 L1160.28 56.3053 Z" fill="#000000" fill-rule="nonzero" fill-opacity="1" /><path clip-path="url(#clip470)" d="M1205.04 53.3886 L1212.37 53.3886 L1212.37 59.3608 L1206.67 70.4718 L1202.19 70.4718 L1205.04 59.3608 L1205.04 53.3886 Z" fill="#000000" fill-rule="nonzero" fill-opacity="1" /><path clip-path="url(#clip470)" d="M1248.89 10.368 L1255.91 10.368 L1255.91 56.3053 L1281.15 56.3053 L1281.15 62.208 L1248.89 62.208 L1248.89 10.368 Z" fill="#000000" fill-rule="nonzero" fill-opacity="1" /><path clip-path="url(#clip470)" d="M1302.05 27.7985 Q1296.92 27.7985 1293.93 31.8262 Q1290.94 35.8193 1290.94 42.7984 Q1290.94 49.7775 1293.89 53.8053 Q1296.88 57.7983 1302.05 57.7983 Q1307.16 57.7983 1310.14 53.7705 Q1313.13 49.7428 1313.13 42.7984 Q1313.13 35.8887 1310.14 31.8609 Q1307.16 27.7985 1302.05 27.7985 M1302.05 22.3818 Q1310.39 22.3818 1315.14 27.7985 Q1319.9 33.2151 1319.9 42.7984 Q1319.9 52.3469 1315.14 57.7983 Q1310.39 63.2149 1302.05 63.2149 Q1293.69 63.2149 1288.93 57.7983 Q1284.21 52.3469 1284.21 42.7984 Q1284.21 33.2151 1288.93 27.7985 Q1293.69 22.3818 1302.05 22.3818 Z" fill="#000000" fill-rule="nonzero" fill-opacity="1" /><path clip-path="url(#clip470)" d="M1356.08 42.3123 Q1356.08 35.3679 1353.2 31.5484 Q1350.35 27.729 1345.18 27.729 Q1340.04 27.729 1337.16 31.5484 Q1334.31 35.3679 1334.31 42.3123 Q1334.31 49.222 1337.16 53.0414 Q1340.04 56.8608 1345.18 56.8608 Q1350.35 56.8608 1353.2 53.0414 Q1356.08 49.222 1356.08 42.3123 M1362.47 57.3816 Q1362.47 67.3121 1358.06 72.1385 Q1353.65 76.9996 1344.55 76.9996 Q1341.19 76.9996 1338.2 76.4788 Q1335.21 75.9926 1332.4 74.951 L1332.4 68.7357 Q1335.21 70.2635 1337.96 70.9927 Q1340.7 71.7218 1343.55 71.7218 Q1349.83 71.7218 1352.96 68.4232 Q1356.08 65.1594 1356.08 58.5275 L1356.08 55.3678 Q1354.1 58.8052 1351.01 60.5066 Q1347.92 62.208 1343.62 62.208 Q1336.46 62.208 1332.09 56.7566 Q1327.71 51.3053 1327.71 42.3123 Q1327.71 33.2845 1332.09 27.8332 Q1336.46 22.3818 1343.62 22.3818 Q1347.92 22.3818 1351.01 24.0832 Q1354.1 25.7846 1356.08 29.2221 L1356.08 23.3193 L1362.47 23.3193 L1362.47 57.3816 Z" fill="#000000" fill-rule="nonzero" fill-opacity="1" /><path clip-path="url(#clip470)" d="M1373.41 10.368 L1380.94 10.368 L1393.82 29.6387 L1406.78 10.368 L1414.31 10.368 L1397.64 35.2637 L1415.42 62.208 L1407.89 62.208 L1393.3 40.1595 L1378.62 62.208 L1371.05 62.208 L1389.55 34.5345 L1373.41 10.368 Z" fill="#000000" fill-rule="nonzero" fill-opacity="1" /><path clip-path="url(#clip470)" d="M1423.34 8.24996 L1428.89 8.24996 Q1434.1 16.4444 1436.67 24.2915 Q1439.28 32.1387 1439.28 39.8817 Q1439.28 47.6595 1436.67 55.5414 Q1434.1 63.4233 1428.89 71.5829 L1423.34 71.5829 Q1427.96 63.6316 1430.21 55.7844 Q1432.51 47.9025 1432.51 39.8817 Q1432.51 31.8609 1430.21 24.0485 Q1427.96 16.236 1423.34 8.24996 Z" fill="#000000" fill-rule="nonzero" fill-opacity="1" /><polyline clip-path="url(#clip472)" style="stroke:#ee7733; stroke-linecap:round; stroke-linejoin:round; stroke-width:16; stroke-opacity:1; fill:none" points="390.887,1935.29 437.684,1930.82 484.482,1921.45 531.279,1898.36 578.077,1897.29 624.874,1877.83 671.672,1865.59 718.469,1847 765.267,1836.08 812.064,1816.1 858.862,1799.42 905.659,1789.9 952.457,1770.32 999.254,1760.29 1046.05,1741.01 1092.85,1730.26 1139.65,1721.46 1186.44,1715.57 1233.24,1705.12 1280.04,1694.98 1326.84,1692.42 1373.63,1686.81 1420.43,1683.02 1467.23,1677.24 1514.03,1671.64 1560.82,1666.57 1607.62,1660.96 1654.42,1655.15 1701.22,1647.53 1748.01,1640.63 1794.81,1635.37 1841.61,1625.48 1888.41,1615.49 1935.2,1605.14 1982,1592.06 2028.8,1583.43 2075.6,1568.17 2122.39,1551.17 2169.19,1534.74 2215.99,1513.14 2262.79,1493.92 2309.58,1468.98 2356.38,1441.52 2403.18,1409.87 2449.98,1372.41 2496.77,1327.88 2543.57,1280.85 2590.37,1222.21 2637.17,1153.11 2683.96,1066.66 "/>
<polyline clip-path="url(#clip472)" style="stroke:#0077bb; stroke-linecap:round; stroke-linejoin:round; stroke-width:16; stroke-opacity:1; fill:none" points="390.887,1747.96 437.684,1730.01 484.482,1716.8 531.279,1702.23 578.077,1685.45 624.874,1674.21 671.672,1643.17 718.469,1625.29 765.267,1608.84 812.064,1594.13 858.862,1563.36 905.659,1547.88 952.457,1529.95 999.254,1513.69 1046.05,1501.53 1092.85,1488.68 1139.65,1478.89 1186.44,1471.97 1233.24,1464.79 1280.04,1457.26 1326.84,1449.67 1373.63,1446.57 1420.43,1440.28 1467.23,1434.66 1514.03,1428.94 1560.82,1423.18 1607.62,1414.41 1654.42,1406.85 1701.22,1397.76 1748.01,1388.1 1794.81,1376.93 1841.61,1366.71 1888.41,1353.85 1935.2,1338.21 1982,1326.19 2028.8,1307 2075.6,1290.27 2122.39,1268.3 2169.19,1244.14 2215.99,1220.92 2262.79,1189.92 2309.58,1159.56 2356.38,1120.02 2403.18,1078.32 2449.98,1031.11 2496.77,971.087 2543.57,904.117 2590.37,826.509 2637.17,734.333 2683.96,621.754 "/>
<polyline clip-path="url(#clip472)" style="stroke:#33bbee; stroke-linecap:round; stroke-linejoin:round; stroke-width:16; stroke-opacity:1; fill:none" points="390.887,1552.37 437.684,1534.23 484.482,1514.32 531.279,1482.88 578.077,1467.47 624.874,1446.89 671.672,1420.19 718.469,1401.17 765.267,1373.33 812.064,1351.37 858.862,1322.04 905.659,1308.41 952.457,1287.15 999.254,1271.94 1046.05,1255.13 1092.85,1247.97 1139.65,1239.03 1186.44,1231.13 1233.24,1224.8 1280.04,1218.39 1326.84,1213.34 1373.63,1206.61 1420.43,1200.67 1467.23,1192.38 1514.03,1185.67 1560.82,1176.07 1607.62,1168.07 1654.42,1157.08 1701.22,1146.19 1748.01,1135.7 1794.81,1124.01 1841.61,1107.94 1888.41,1090.61 1935.2,1073.93 1982,1057.42 2028.8,1034.17 2075.6,1008.62 2122.39,985.184 2169.19,955.269 2215.99,925.625 2262.79,885.984 2309.58,847.152 2356.38,799.335 2403.18,748.471 2449.98,685.408 2496.77,616.614 2543.57,534.723 2590.37,435.813 2637.17,317.888 2683.96,176.843 "/>
<path clip-path="url(#clip470)" d="M2217.67 1925.91 L2671.73 1925.91 L2671.73 1718.55 L2217.67 1718.55  Z" fill="#ffffff" fill-rule="evenodd" fill-opacity="0.9"/>
<polyline clip-path="url(#clip470)" style="stroke:#222255; stroke-linecap:round; stroke-linejoin:round; stroke-width:4; stroke-opacity:0.1; fill:none" points="2217.67,1925.91 2671.73,1925.91 2671.73,1718.55 2217.67,1718.55 2217.67,1925.91 "/>
<polyline clip-path="url(#clip470)" style="stroke:#ee7733; stroke-linecap:round; stroke-linejoin:round; stroke-width:16; stroke-opacity:1; fill:none" points="2244.68,1770.39 2406.72,1770.39 "/>
<path clip-path="url(#clip470)" d="M2455.45 1772.03 L2455.45 1787.67 L2451.19 1787.67 L2451.19 1772.17 Q2451.19 1768.48 2449.75 1766.66 Q2448.32 1764.83 2445.45 1764.83 Q2442 1764.83 2440.01 1767.03 Q2438.01 1769.23 2438.01 1773.02 L2438.01 1787.67 L2433.73 1787.67 L2433.73 1761.75 L2438.01 1761.75 L2438.01 1765.78 Q2439.54 1763.44 2441.6 1762.28 Q2443.69 1761.12 2446.39 1761.12 Q2450.86 1761.12 2453.15 1763.9 Q2455.45 1766.66 2455.45 1772.03 Z" fill="#000000" fill-rule="nonzero" fill-opacity="1" /><path clip-path="url(#clip470)" d="M2460.88 1761.75 L2465.4 1761.75 L2473.5 1783.51 L2481.6 1761.75 L2486.12 1761.75 L2476.39 1787.67 L2470.61 1787.67 L2460.88 1761.75 Z" fill="#000000" fill-rule="nonzero" fill-opacity="1" /><path clip-path="url(#clip470)" d="M2507.62 1766.15 L2537.3 1766.15 L2537.3 1770.04 L2507.62 1770.04 L2507.62 1766.15 M2507.62 1775.59 L2537.3 1775.59 L2537.3 1779.53 L2507.62 1779.53 L2507.62 1775.59 Z" fill="#000000" fill-rule="nonzero" fill-opacity="1" /><path clip-path="url(#clip470)" d="M2576.63 1769.04 Q2579.98 1769.76 2581.86 1772.03 Q2583.75 1774.29 2583.75 1777.63 Q2583.75 1782.74 2580.24 1785.54 Q2576.72 1788.35 2570.24 1788.35 Q2568.06 1788.35 2565.75 1787.91 Q2563.45 1787.49 2561 1786.63 L2561 1782.12 Q2562.94 1783.25 2565.26 1783.83 Q2567.57 1784.41 2570.1 1784.41 Q2574.5 1784.41 2576.79 1782.67 Q2579.1 1780.94 2579.1 1777.63 Q2579.1 1774.57 2576.95 1772.86 Q2574.82 1771.12 2571 1771.12 L2566.97 1771.12 L2566.97 1767.28 L2571.19 1767.28 Q2574.63 1767.28 2576.46 1765.92 Q2578.29 1764.53 2578.29 1761.93 Q2578.29 1759.27 2576.39 1757.86 Q2574.52 1756.42 2571 1756.42 Q2569.08 1756.42 2566.88 1756.84 Q2564.68 1757.26 2562.04 1758.14 L2562.04 1753.97 Q2564.7 1753.23 2567.02 1752.86 Q2569.36 1752.49 2571.42 1752.49 Q2576.74 1752.49 2579.84 1754.92 Q2582.94 1757.33 2582.94 1761.45 Q2582.94 1764.32 2581.3 1766.31 Q2579.66 1768.28 2576.63 1769.04 Z" fill="#000000" fill-rule="nonzero" fill-opacity="1" /><path clip-path="url(#clip470)" d="M2602.62 1756.19 Q2599.01 1756.19 2597.18 1759.76 Q2595.37 1763.3 2595.37 1770.43 Q2595.37 1777.54 2597.18 1781.1 Q2599.01 1784.64 2602.62 1784.64 Q2606.25 1784.64 2608.06 1781.1 Q2609.89 1777.54 2609.89 1770.43 Q2609.89 1763.3 2608.06 1759.76 Q2606.25 1756.19 2602.62 1756.19 M2602.62 1752.49 Q2608.43 1752.49 2611.49 1757.1 Q2614.56 1761.68 2614.56 1770.43 Q2614.56 1779.16 2611.49 1783.76 Q2608.43 1788.35 2602.62 1788.35 Q2596.81 1788.35 2593.73 1783.76 Q2590.68 1779.16 2590.68 1770.43 Q2590.68 1761.68 2593.73 1757.1 Q2596.81 1752.49 2602.62 1752.49 Z" fill="#000000" fill-rule="nonzero" fill-opacity="1" /><path clip-path="url(#clip470)" d="M2632.78 1756.19 Q2629.17 1756.19 2627.34 1759.76 Q2625.54 1763.3 2625.54 1770.43 Q2625.54 1777.54 2627.34 1781.1 Q2629.17 1784.64 2632.78 1784.64 Q2636.42 1784.64 2638.22 1781.1 Q2640.05 1777.54 2640.05 1770.43 Q2640.05 1763.3 2638.22 1759.76 Q2636.42 1756.19 2632.78 1756.19 M2632.78 1752.49 Q2638.59 1752.49 2641.65 1757.1 Q2644.73 1761.68 2644.73 1770.43 Q2644.73 1779.16 2641.65 1783.76 Q2638.59 1788.35 2632.78 1788.35 Q2626.97 1788.35 2623.89 1783.76 Q2620.84 1779.16 2620.84 1770.43 Q2620.84 1761.68 2623.89 1757.1 Q2626.97 1752.49 2632.78 1752.49 Z" fill="#000000" fill-rule="nonzero" fill-opacity="1" /><polyline clip-path="url(#clip470)" style="stroke:#0077bb; stroke-linecap:round; stroke-linejoin:round; stroke-width:16; stroke-opacity:1; fill:none" points="2244.68,1822.23 2406.72,1822.23 "/>
<path clip-path="url(#clip470)" d="M2455.45 1823.87 L2455.45 1839.51 L2451.19 1839.51 L2451.19 1824.01 Q2451.19 1820.32 2449.75 1818.5 Q2448.32 1816.67 2445.45 1816.67 Q2442 1816.67 2440.01 1818.87 Q2438.01 1821.07 2438.01 1824.86 L2438.01 1839.51 L2433.73 1839.51 L2433.73 1813.59 L2438.01 1813.59 L2438.01 1817.62 Q2439.54 1815.28 2441.6 1814.12 Q2443.69 1812.96 2446.39 1812.96 Q2450.86 1812.96 2453.15 1815.74 Q2455.45 1818.5 2455.45 1823.87 Z" fill="#000000" fill-rule="nonzero" fill-opacity="1" /><path clip-path="url(#clip470)" d="M2460.88 1813.59 L2465.4 1813.59 L2473.5 1835.35 L2481.6 1813.59 L2486.12 1813.59 L2476.39 1839.51 L2470.61 1839.51 L2460.88 1813.59 Z" fill="#000000" fill-rule="nonzero" fill-opacity="1" /><path clip-path="url(#clip470)" d="M2507.62 1817.99 L2537.3 1817.99 L2537.3 1821.88 L2507.62 1821.88 L2507.62 1817.99 M2507.62 1827.43 L2537.3 1827.43 L2537.3 1831.37 L2507.62 1831.37 L2507.62 1827.43 Z" fill="#000000" fill-rule="nonzero" fill-opacity="1" /><path clip-path="url(#clip470)" d="M2575.31 1809.03 L2563.5 1827.48 L2575.31 1827.48 L2575.31 1809.03 M2574.08 1804.95 L2579.96 1804.95 L2579.96 1827.48 L2584.89 1827.48 L2584.89 1831.37 L2579.96 1831.37 L2579.96 1839.51 L2575.31 1839.51 L2575.31 1831.37 L2559.7 1831.37 L2559.7 1826.85 L2574.08 1804.95 Z" fill="#000000" fill-rule="nonzero" fill-opacity="1" /><path clip-path="url(#clip470)" d="M2602.62 1808.03 Q2599.01 1808.03 2597.18 1811.6 Q2595.37 1815.14 2595.37 1822.27 Q2595.37 1829.38 2597.18 1832.94 Q2599.01 1836.48 2602.62 1836.48 Q2606.25 1836.48 2608.06 1832.94 Q2609.89 1829.38 2609.89 1822.27 Q2609.89 1815.14 2608.06 1811.6 Q2606.25 1808.03 2602.62 1808.03 M2602.62 1804.33 Q2608.43 1804.33 2611.49 1808.94 Q2614.56 1813.52 2614.56 1822.27 Q2614.56 1831 2611.49 1835.6 Q2608.43 1840.19 2602.62 1840.19 Q2596.81 1840.19 2593.73 1835.6 Q2590.68 1831 2590.68 1822.27 Q2590.68 1813.52 2593.73 1808.94 Q2596.81 1804.33 2602.62 1804.33 Z" fill="#000000" fill-rule="nonzero" fill-opacity="1" /><path clip-path="url(#clip470)" d="M2632.78 1808.03 Q2629.17 1808.03 2627.34 1811.6 Q2625.54 1815.14 2625.54 1822.27 Q2625.54 1829.38 2627.34 1832.94 Q2629.17 1836.48 2632.78 1836.48 Q2636.42 1836.48 2638.22 1832.94 Q2640.05 1829.38 2640.05 1822.27 Q2640.05 1815.14 2638.22 1811.6 Q2636.42 1808.03 2632.78 1808.03 M2632.78 1804.33 Q2638.59 1804.33 2641.65 1808.94 Q2644.73 1813.52 2644.73 1822.27 Q2644.73 1831 2641.65 1835.6 Q2638.59 1840.19 2632.78 1840.19 Q2626.97 1840.19 2623.89 1835.6 Q2620.84 1831 2620.84 1822.27 Q2620.84 1813.52 2623.89 1808.94 Q2626.97 1804.33 2632.78 1804.33 Z" fill="#000000" fill-rule="nonzero" fill-opacity="1" /><polyline clip-path="url(#clip470)" style="stroke:#33bbee; stroke-linecap:round; stroke-linejoin:round; stroke-width:16; stroke-opacity:1; fill:none" points="2244.68,1874.07 2406.72,1874.07 "/>
<path clip-path="url(#clip470)" d="M2455.45 1875.71 L2455.45 1891.35 L2451.19 1891.35 L2451.19 1875.85 Q2451.19 1872.16 2449.75 1870.34 Q2448.32 1868.51 2445.45 1868.51 Q2442 1868.51 2440.01 1870.71 Q2438.01 1872.91 2438.01 1876.7 L2438.01 1891.35 L2433.73 1891.35 L2433.73 1865.43 L2438.01 1865.43 L2438.01 1869.46 Q2439.54 1867.12 2441.6 1865.96 Q2443.69 1864.8 2446.39 1864.8 Q2450.86 1864.8 2453.15 1867.58 Q2455.45 1870.34 2455.45 1875.71 Z" fill="#000000" fill-rule="nonzero" fill-opacity="1" /><path clip-path="url(#clip470)" d="M2460.88 1865.43 L2465.4 1865.43 L2473.5 1887.19 L2481.6 1865.43 L2486.12 1865.43 L2476.39 1891.35 L2470.61 1891.35 L2460.88 1865.43 Z" fill="#000000" fill-rule="nonzero" fill-opacity="1" /><path clip-path="url(#clip470)" d="M2507.62 1869.83 L2537.3 1869.83 L2537.3 1873.72 L2507.62 1873.72 L2507.62 1869.83 M2507.62 1879.27 L2537.3 1879.27 L2537.3 1883.21 L2507.62 1883.21 L2507.62 1879.27 Z" fill="#000000" fill-rule="nonzero" fill-opacity="1" /><path clip-path="url(#clip470)" d="M2562.5 1856.79 L2580.86 1856.79 L2580.86 1860.73 L2566.79 1860.73 L2566.79 1869.2 Q2567.81 1868.85 2568.82 1868.69 Q2569.84 1868.51 2570.86 1868.51 Q2576.65 1868.51 2580.03 1871.68 Q2583.41 1874.85 2583.41 1880.27 Q2583.41 1885.84 2579.94 1888.95 Q2576.46 1892.03 2570.14 1892.03 Q2567.97 1892.03 2565.7 1891.66 Q2563.45 1891.28 2561.05 1890.54 L2561.05 1885.84 Q2563.13 1886.98 2565.35 1887.53 Q2567.57 1888.09 2570.05 1888.09 Q2574.06 1888.09 2576.39 1885.98 Q2578.73 1883.88 2578.73 1880.27 Q2578.73 1876.66 2576.39 1874.55 Q2574.06 1872.44 2570.05 1872.44 Q2568.18 1872.44 2566.3 1872.86 Q2564.45 1873.28 2562.5 1874.16 L2562.5 1856.79 Z" fill="#000000" fill-rule="nonzero" fill-opacity="1" /><path clip-path="url(#clip470)" d="M2602.62 1859.87 Q2599.01 1859.87 2597.18 1863.44 Q2595.37 1866.98 2595.37 1874.11 Q2595.37 1881.22 2597.18 1884.78 Q2599.01 1888.32 2602.62 1888.32 Q2606.25 1888.32 2608.06 1884.78 Q2609.89 1881.22 2609.89 1874.11 Q2609.89 1866.98 2608.06 1863.44 Q2606.25 1859.87 2602.62 1859.87 M2602.62 1856.17 Q2608.43 1856.17 2611.49 1860.78 Q2614.56 1865.36 2614.56 1874.11 Q2614.56 1882.84 2611.49 1887.44 Q2608.43 1892.03 2602.62 1892.03 Q2596.81 1892.03 2593.73 1887.44 Q2590.68 1882.84 2590.68 1874.11 Q2590.68 1865.36 2593.73 1860.78 Q2596.81 1856.17 2602.62 1856.17 Z" fill="#000000" fill-rule="nonzero" fill-opacity="1" /><path clip-path="url(#clip470)" d="M2632.78 1859.87 Q2629.17 1859.87 2627.34 1863.44 Q2625.54 1866.98 2625.54 1874.11 Q2625.54 1881.22 2627.34 1884.78 Q2629.17 1888.32 2632.78 1888.32 Q2636.42 1888.32 2638.22 1884.78 Q2640.05 1881.22 2640.05 1874.11 Q2640.05 1866.98 2638.22 1863.44 Q2636.42 1859.87 2632.78 1859.87 M2632.78 1856.17 Q2638.59 1856.17 2641.65 1860.78 Q2644.73 1865.36 2644.73 1874.11 Q2644.73 1882.84 2641.65 1887.44 Q2638.59 1892.03 2632.78 1892.03 Q2626.97 1892.03 2623.89 1887.44 Q2620.84 1882.84 2620.84 1874.11 Q2620.84 1865.36 2623.89 1860.78 Q2626.97 1856.17 2632.78 1856.17 Z" fill="#000000" fill-rule="nonzero" fill-opacity="1" /></svg>
