<?xml version="1.0" encoding="utf-8"?>
<svg xmlns="http://www.w3.org/2000/svg" xmlns:xlink="http://www.w3.org/1999/xlink" width="900" height="650" viewBox="0 0 3600 2600">
<defs>
  <clipPath id="clip080">
    <rect x="0" y="0" width="3600" height="2600"/>
  </clipPath>
</defs>
<path clip-path="url(#clip080)" d="M0 2600 L3600 2600 L3600 0 L0 0  Z" fill="#ffffff" fill-rule="evenodd" fill-opacity="1"/>
<defs>
  <clipPath id="clip081">
    <rect x="720" y="0" width="2521" height="2521"/>
  </clipPath>
</defs>
<defs>
  <clipPath id="clip082">
    <rect x="317" y="119" width="3237" height="2275"/>
  </clipPath>
</defs>
<path clip-path="url(#clip080)" d="M317.192 2393.03 L3552.76 2393.03 L3552.76 119.152 L317.192 119.152  Z" fill="#ffffff" fill-rule="evenodd" fill-opacity="1"/>
<polyline clip-path="url(#clip082)" style="stroke:#222255; stroke-linecap:round; stroke-linejoin:round; stroke-width:2; stroke-opacity:0.5; fill:none" points="1206.79,2393.03 1206.79,119.152 "/>
<polyline clip-path="url(#clip082)" style="stroke:#222255; stroke-linecap:round; stroke-linejoin:round; stroke-width:2; stroke-opacity:0.5; fill:none" points="2733,2393.03 2733,119.152 "/>
<polyline clip-path="url(#clip082)" style="stroke:#222255; stroke-linecap:round; stroke-linejoin:round; stroke-width:2; stroke-opacity:0.3; fill:none" points="408.764,2393.03 408.764,119.152 "/>
<polyline clip-path="url(#clip082)" style="stroke:#222255; stroke-linecap:round; stroke-linejoin:round; stroke-width:2; stroke-opacity:0.3; fill:none" points="599.447,2393.03 599.447,119.152 "/>
<polyline clip-path="url(#clip082)" style="stroke:#222255; stroke-linecap:round; stroke-linejoin:round; stroke-width:2; stroke-opacity:0.3; fill:none" points="747.352,2393.03 747.352,119.152 "/>
<polyline clip-path="url(#clip082)" style="stroke:#222255; stroke-linecap:round; stroke-linejoin:round; stroke-width:2; stroke-opacity:0.3; fill:none" points="868.199,2393.03 868.199,119.152 "/>
<polyline clip-path="url(#clip082)" style="stroke:#222255; stroke-linecap:round; stroke-linejoin:round; stroke-width:2; stroke-opacity:0.3; fill:none" points="970.374,2393.03 970.374,119.152 "/>
<polyline clip-path="url(#clip082)" style="stroke:#222255; stroke-linecap:round; stroke-linejoin:round; stroke-width:2; stroke-opacity:0.3; fill:none" points="1058.88,2393.03 1058.88,119.152 "/>
<polyline clip-path="url(#clip082)" style="stroke:#222255; stroke-linecap:round; stroke-linejoin:round; stroke-width:2; stroke-opacity:0.3; fill:none" points="1136.95,2393.03 1136.95,119.152 "/>
<polyline clip-path="url(#clip082)" style="stroke:#222255; stroke-linecap:round; stroke-linejoin:round; stroke-width:2; stroke-opacity:0.3; fill:none" points="1666.22,2393.03 1666.22,119.152 "/>
<polyline clip-path="url(#clip082)" style="stroke:#222255; stroke-linecap:round; stroke-linejoin:round; stroke-width:2; stroke-opacity:0.3; fill:none" points="1934.97,2393.03 1934.97,119.152 "/>
<polyline clip-path="url(#clip082)" style="stroke:#222255; stroke-linecap:round; stroke-linejoin:round; stroke-width:2; stroke-opacity:0.3; fill:none" points="2125.66,2393.03 2125.66,119.152 "/>
<polyline clip-path="url(#clip082)" style="stroke:#222255; stroke-linecap:round; stroke-linejoin:round; stroke-width:2; stroke-opacity:0.3; fill:none" points="2273.56,2393.03 2273.56,119.152 "/>
<polyline clip-path="url(#clip082)" style="stroke:#222255; stroke-linecap:round; stroke-linejoin:round; stroke-width:2; stroke-opacity:0.3; fill:none" points="2394.41,2393.03 2394.41,119.152 "/>
<polyline clip-path="url(#clip082)" style="stroke:#222255; stroke-linecap:round; stroke-linejoin:round; stroke-width:2; stroke-opacity:0.3; fill:none" points="2496.58,2393.03 2496.58,119.152 "/>
<polyline clip-path="url(#clip082)" style="stroke:#222255; stroke-linecap:round; stroke-linejoin:round; stroke-width:2; stroke-opacity:0.3; fill:none" points="2585.09,2393.03 2585.09,119.152 "/>
<polyline clip-path="url(#clip082)" style="stroke:#222255; stroke-linecap:round; stroke-linejoin:round; stroke-width:2; stroke-opacity:0.3; fill:none" points="2663.16,2393.03 2663.16,119.152 "/>
<polyline clip-path="url(#clip082)" style="stroke:#222255; stroke-linecap:round; stroke-linejoin:round; stroke-width:2; stroke-opacity:0.3; fill:none" points="3192.43,2393.03 3192.43,119.152 "/>
<polyline clip-path="url(#clip082)" style="stroke:#222255; stroke-linecap:round; stroke-linejoin:round; stroke-width:2; stroke-opacity:0.3; fill:none" points="3461.18,2393.03 3461.18,119.152 "/>
<polyline clip-path="url(#clip080)" style="stroke:#222255; stroke-linecap:round; stroke-linejoin:round; stroke-width:4; stroke-opacity:0; fill:none" points="1206.79,2393.03 1206.79,2374.14 "/>
<polyline clip-path="url(#clip080)" style="stroke:#222255; stroke-linecap:round; stroke-linejoin:round; stroke-width:4; stroke-opacity:0; fill:none" points="2733,2393.03 2733,2374.14 "/>
<polyline clip-path="url(#clip080)" style="stroke:#222255; stroke-linecap:round; stroke-linejoin:round; stroke-width:4; stroke-opacity:0; fill:none" points="408.764,2393.03 408.764,2383.58 "/>
<polyline clip-path="url(#clip080)" style="stroke:#222255; stroke-linecap:round; stroke-linejoin:round; stroke-width:4; stroke-opacity:0; fill:none" points="599.447,2393.03 599.447,2383.58 "/>
<polyline clip-path="url(#clip080)" style="stroke:#222255; stroke-linecap:round; stroke-linejoin:round; stroke-width:4; stroke-opacity:0; fill:none" points="747.352,2393.03 747.352,2383.58 "/>
<polyline clip-path="url(#clip080)" style="stroke:#222255; stroke-linecap:round; stroke-linejoin:round; stroke-width:4; stroke-opacity:0; fill:none" points="868.199,2393.03 868.199,2383.58 "/>
<polyline clip-path="url(#clip080)" style="stroke:#222255; stroke-linecap:round; stroke-linejoin:round; stroke-width:4; stroke-opacity:0; fill:none" points="970.374,2393.03 970.374,2383.58 "/>
<polyline clip-path="url(#clip080)" style="stroke:#222255; stroke-linecap:round; stroke-linejoin:round; stroke-width:4; stroke-opacity:0; fill:none" points="1058.88,2393.03 1058.88,2383.58 "/>
<polyline clip-path="url(#clip080)" style="stroke:#222255; stroke-linecap:round; stroke-linejoin:round; stroke-width:4; stroke-opacity:0; fill:none" points="1136.95,2393.03 1136.95,2383.58 "/>
<polyline clip-path="url(#clip080)" style="stroke:#222255; stroke-linecap:round; stroke-linejoin:round; stroke-width:4; stroke-opacity:0; fill:none" points="1666.22,2393.03 1666.22,2383.58 "/>
<polyline clip-path="url(#clip080)" style="stroke:#222255; stroke-linecap:round; stroke-linejoin:round; stroke-width:4; stroke-opacity:0; fill:none" points="1934.97,2393.03 1934.97,2383.58 "/>
<polyline clip-path="url(#clip080)" style="stroke:#222255; stroke-linecap:round; stroke-linejoin:round; stroke-width:4; stroke-opacity:0; fill:none" points="2125.66,2393.03 2125.66,2383.58 "/>
<polyline clip-path="url(#clip080)" style="stroke:#222255; stroke-linecap:round; stroke-linejoin:round; stroke-width:4; stroke-opacity:0; fill:none" points="2273.56,2393.03 2273.56,2383.58 "/>
<polyline clip-path="url(#clip080)" style="stroke:#222255; stroke-linecap:round; stroke-linejoin:round; stroke-width:4; stroke-opacity:0; fill:none" points="2394.41,2393.03 2394.41,2383.58 "/>
<polyline clip-path="url(#clip080)" style="stroke:#222255; stroke-linecap:round; stroke-linejoin:round; stroke-width:4; stroke-opacity:0; fill:none" points="2496.58,2393.03 2496.58,2383.58 "/>
<polyline clip-path="url(#clip080)" style="stroke:#222255; stroke-linecap:round; stroke-linejoin:round; stroke-width:4; stroke-opacity:0; fill:none" points="2585.09,2393.03 2585.09,2383.58 "/>
<polyline clip-path="url(#clip080)" style="stroke:#222255; stroke-linecap:round; stroke-linejoin:round; stroke-width:4; stroke-opacity:0; fill:none" points="2663.16,2393.03 2663.16,2383.58 "/>
<polyline clip-path="url(#clip080)" style="stroke:#222255; stroke-linecap:round; stroke-linejoin:round; stroke-width:4; stroke-opacity:0; fill:none" points="3192.43,2393.03 3192.43,2383.58 "/>
<polyline clip-path="url(#clip080)" style="stroke:#222255; stroke-linecap:round; stroke-linejoin:round; stroke-width:4; stroke-opacity:0; fill:none" points="3461.18,2393.03 3461.18,2383.58 "/>
<path clip-path="url(#clip080)" d="M1173.11 2476.76 L1180.75 2476.76 L1180.75 2450.39 L1172.44 2452.06 L1172.44 2447.8 L1180.71 2446.13 L1185.38 2446.13 L1185.38 2476.76 L1193.02 2476.76 L1193.02 2480.69 L1173.11 2480.69 L1173.11 2476.76 Z" fill="#000000" fill-rule="nonzero" fill-opacity="1" /><path clip-path="url(#clip080)" d="M1212.47 2449.21 Q1208.85 2449.21 1207.03 2452.78 Q1205.22 2456.32 1205.22 2463.45 Q1205.22 2470.55 1207.03 2474.12 Q1208.85 2477.66 1212.47 2477.66 Q1216.1 2477.66 1217.91 2474.12 Q1219.73 2470.55 1219.73 2463.45 Q1219.73 2456.32 1217.91 2452.78 Q1216.1 2449.21 1212.47 2449.21 M1212.47 2445.51 Q1218.28 2445.51 1221.33 2450.11 Q1224.41 2454.7 1224.41 2463.45 Q1224.41 2472.17 1221.33 2476.78 Q1218.28 2481.36 1212.47 2481.36 Q1206.66 2481.36 1203.58 2476.78 Q1200.52 2472.17 1200.52 2463.45 Q1200.52 2454.7 1203.58 2450.11 Q1206.66 2445.51 1212.47 2445.51 Z" fill="#000000" fill-rule="nonzero" fill-opacity="1" /><path clip-path="url(#clip080)" d="M1224.96 2450.09 L1231.16 2450.09 L1231.16 2428.66 L1224.41 2430.02 L1224.41 2426.56 L1231.12 2425.2 L1234.92 2425.2 L1234.92 2450.09 L1241.13 2450.09 L1241.13 2453.28 L1224.96 2453.28 L1224.96 2450.09 Z" fill="#000000" fill-rule="nonzero" fill-opacity="1" /><path clip-path="url(#clip080)" d="M2698.77 2476.76 L2706.41 2476.76 L2706.41 2450.39 L2698.1 2452.06 L2698.1 2447.8 L2706.36 2446.13 L2711.04 2446.13 L2711.04 2476.76 L2718.68 2476.76 L2718.68 2480.69 L2698.77 2480.69 L2698.77 2476.76 Z" fill="#000000" fill-rule="nonzero" fill-opacity="1" /><path clip-path="url(#clip080)" d="M2738.12 2449.21 Q2734.51 2449.21 2732.68 2452.78 Q2730.88 2456.32 2730.88 2463.45 Q2730.88 2470.55 2732.68 2474.12 Q2734.51 2477.66 2738.12 2477.66 Q2741.75 2477.66 2743.56 2474.12 Q2745.39 2470.55 2745.39 2463.45 Q2745.39 2456.32 2743.56 2452.78 Q2741.75 2449.21 2738.12 2449.21 M2738.12 2445.51 Q2743.93 2445.51 2746.99 2450.11 Q2750.07 2454.7 2750.07 2463.45 Q2750.07 2472.17 2746.99 2476.78 Q2743.93 2481.36 2738.12 2481.36 Q2732.31 2481.36 2729.23 2476.78 Q2726.18 2472.17 2726.18 2463.45 Q2726.18 2454.7 2729.23 2450.11 Q2732.31 2445.51 2738.12 2445.51 Z" fill="#000000" fill-rule="nonzero" fill-opacity="1" /><path clip-path="url(#clip080)" d="M2754.64 2450.09 L2767.89 2450.09 L2767.89 2453.28 L2750.07 2453.28 L2750.07 2450.09 Q2752.23 2447.85 2755.95 2444.09 Q2759.69 2440.31 2760.65 2439.21 Q2762.48 2437.16 2763.19 2435.75 Q2763.93 2434.32 2763.93 2432.95 Q2763.93 2430.71 2762.35 2429.3 Q2760.79 2427.89 2758.27 2427.89 Q2756.48 2427.89 2754.48 2428.51 Q2752.51 2429.13 2750.25 2430.39 L2750.25 2426.56 Q2752.55 2425.64 2754.54 2425.17 Q2756.53 2424.69 2758.19 2424.69 Q2762.55 2424.69 2765.15 2426.88 Q2767.74 2429.06 2767.74 2432.71 Q2767.74 2434.44 2767.09 2436 Q2766.45 2437.54 2764.74 2439.65 Q2764.26 2440.19 2761.74 2442.81 Q2759.22 2445.4 2754.64 2450.09 Z" fill="#000000" fill-rule="nonzero" fill-opacity="1" /><path clip-path="url(#clip080)" d="M1916.99 2526.8 L1925.65 2526.8 L1946.72 2566.56 L1946.72 2526.8 L1952.96 2526.8 L1952.96 2574.32 L1944.3 2574.32 L1923.23 2534.57 L1923.23 2574.32 L1916.99 2574.32 L1916.99 2526.8 Z" fill="#000000" fill-rule="nonzero" fill-opacity="1" /><polyline clip-path="url(#clip082)" style="stroke:#222255; stroke-linecap:round; stroke-linejoin:round; stroke-width:2; stroke-opacity:0.5; fill:none" points="317.192,2393.03 3552.76,2393.03 "/>
<polyline clip-path="url(#clip082)" style="stroke:#222255; stroke-linecap:round; stroke-linejoin:round; stroke-width:2; stroke-opacity:0.5; fill:none" points="317.192,1938.26 3552.76,1938.26 "/>
<polyline clip-path="url(#clip082)" style="stroke:#222255; stroke-linecap:round; stroke-linejoin:round; stroke-width:2; stroke-opacity:0.5; fill:none" points="317.192,1483.48 3552.76,1483.48 "/>
<polyline clip-path="url(#clip082)" style="stroke:#222255; stroke-linecap:round; stroke-linejoin:round; stroke-width:2; stroke-opacity:0.5; fill:none" points="317.192,1028.7 3552.76,1028.7 "/>
<polyline clip-path="url(#clip082)" style="stroke:#222255; stroke-linecap:round; stroke-linejoin:round; stroke-width:2; stroke-opacity:0.5; fill:none" points="317.192,573.928 3552.76,573.928 "/>
<polyline clip-path="url(#clip082)" style="stroke:#222255; stroke-linecap:round; stroke-linejoin:round; stroke-width:2; stroke-opacity:0.5; fill:none" points="317.192,119.152 3552.76,119.152 "/>
<polyline clip-path="url(#clip082)" style="stroke:#222255; stroke-linecap:round; stroke-linejoin:round; stroke-width:2; stroke-opacity:0.3; fill:none" points="317.192,2273.41 3552.76,2273.41 "/>
<polyline clip-path="url(#clip082)" style="stroke:#222255; stroke-linecap:round; stroke-linejoin:round; stroke-width:2; stroke-opacity:0.3; fill:none" points="317.192,2172.27 3552.76,2172.27 "/>
<polyline clip-path="url(#clip082)" style="stroke:#222255; stroke-linecap:round; stroke-linejoin:round; stroke-width:2; stroke-opacity:0.3; fill:none" points="317.192,2084.66 3552.76,2084.66 "/>
<polyline clip-path="url(#clip082)" style="stroke:#222255; stroke-linecap:round; stroke-linejoin:round; stroke-width:2; stroke-opacity:0.3; fill:none" points="317.192,2007.38 3552.76,2007.38 "/>
<polyline clip-path="url(#clip082)" style="stroke:#222255; stroke-linecap:round; stroke-linejoin:round; stroke-width:2; stroke-opacity:0.3; fill:none" points="317.192,1818.64 3552.76,1818.64 "/>
<polyline clip-path="url(#clip082)" style="stroke:#222255; stroke-linecap:round; stroke-linejoin:round; stroke-width:2; stroke-opacity:0.3; fill:none" points="317.192,1717.5 3552.76,1717.5 "/>
<polyline clip-path="url(#clip082)" style="stroke:#222255; stroke-linecap:round; stroke-linejoin:round; stroke-width:2; stroke-opacity:0.3; fill:none" points="317.192,1629.89 3552.76,1629.89 "/>
<polyline clip-path="url(#clip082)" style="stroke:#222255; stroke-linecap:round; stroke-linejoin:round; stroke-width:2; stroke-opacity:0.3; fill:none" points="317.192,1552.61 3552.76,1552.61 "/>
<polyline clip-path="url(#clip082)" style="stroke:#222255; stroke-linecap:round; stroke-linejoin:round; stroke-width:2; stroke-opacity:0.3; fill:none" points="317.192,1363.86 3552.76,1363.86 "/>
<polyline clip-path="url(#clip082)" style="stroke:#222255; stroke-linecap:round; stroke-linejoin:round; stroke-width:2; stroke-opacity:0.3; fill:none" points="317.192,1262.72 3552.76,1262.72 "/>
<polyline clip-path="url(#clip082)" style="stroke:#222255; stroke-linecap:round; stroke-linejoin:round; stroke-width:2; stroke-opacity:0.3; fill:none" points="317.192,1175.11 3552.76,1175.11 "/>
<polyline clip-path="url(#clip082)" style="stroke:#222255; stroke-linecap:round; stroke-linejoin:round; stroke-width:2; stroke-opacity:0.3; fill:none" points="317.192,1097.83 3552.76,1097.83 "/>
<polyline clip-path="url(#clip082)" style="stroke:#222255; stroke-linecap:round; stroke-linejoin:round; stroke-width:2; stroke-opacity:0.3; fill:none" points="317.192,909.083 3552.76,909.083 "/>
<polyline clip-path="url(#clip082)" style="stroke:#222255; stroke-linecap:round; stroke-linejoin:round; stroke-width:2; stroke-opacity:0.3; fill:none" points="317.192,807.944 3552.76,807.944 "/>
<polyline clip-path="url(#clip082)" style="stroke:#222255; stroke-linecap:round; stroke-linejoin:round; stroke-width:2; stroke-opacity:0.3; fill:none" points="317.192,720.334 3552.76,720.334 "/>
<polyline clip-path="url(#clip082)" style="stroke:#222255; stroke-linecap:round; stroke-linejoin:round; stroke-width:2; stroke-opacity:0.3; fill:none" points="317.192,643.056 3552.76,643.056 "/>
<polyline clip-path="url(#clip082)" style="stroke:#222255; stroke-linecap:round; stroke-linejoin:round; stroke-width:2; stroke-opacity:0.3; fill:none" points="317.192,454.307 3552.76,454.307 "/>
<polyline clip-path="url(#clip082)" style="stroke:#222255; stroke-linecap:round; stroke-linejoin:round; stroke-width:2; stroke-opacity:0.3; fill:none" points="317.192,353.168 3552.76,353.168 "/>
<polyline clip-path="url(#clip082)" style="stroke:#222255; stroke-linecap:round; stroke-linejoin:round; stroke-width:2; stroke-opacity:0.3; fill:none" points="317.192,265.557 3552.76,265.557 "/>
<polyline clip-path="url(#clip082)" style="stroke:#222255; stroke-linecap:round; stroke-linejoin:round; stroke-width:2; stroke-opacity:0.3; fill:none" points="317.192,188.28 3552.76,188.28 "/>
<polyline clip-path="url(#clip080)" style="stroke:#222255; stroke-linecap:round; stroke-linejoin:round; stroke-width:4; stroke-opacity:0; fill:none" points="317.192,2393.03 336.089,2393.03 "/>
<polyline clip-path="url(#clip080)" style="stroke:#222255; stroke-linecap:round; stroke-linejoin:round; stroke-width:4; stroke-opacity:0; fill:none" points="317.192,1938.26 336.089,1938.26 "/>
<polyline clip-path="url(#clip080)" style="stroke:#222255; stroke-linecap:round; stroke-linejoin:round; stroke-width:4; stroke-opacity:0; fill:none" points="317.192,1483.48 336.089,1483.48 "/>
<polyline clip-path="url(#clip080)" style="stroke:#222255; stroke-linecap:round; stroke-linejoin:round; stroke-width:4; stroke-opacity:0; fill:none" points="317.192,1028.7 336.089,1028.7 "/>
<polyline clip-path="url(#clip080)" style="stroke:#222255; stroke-linecap:round; stroke-linejoin:round; stroke-width:4; stroke-opacity:0; fill:none" points="317.192,573.928 336.089,573.928 "/>
<polyline clip-path="url(#clip080)" style="stroke:#222255; stroke-linecap:round; stroke-linejoin:round; stroke-width:4; stroke-opacity:0; fill:none" points="317.192,119.152 336.089,119.152 "/>
<polyline clip-path="url(#clip080)" style="stroke:#222255; stroke-linecap:round; stroke-linejoin:round; stroke-width:4; stroke-opacity:0; fill:none" points="317.192,2273.41 326.64,2273.41 "/>
<polyline clip-path="url(#clip080)" style="stroke:#222255; stroke-linecap:round; stroke-linejoin:round; stroke-width:4; stroke-opacity:0; fill:none" points="317.192,2172.27 326.64,2172.27 "/>
<polyline clip-path="url(#clip080)" style="stroke:#222255; stroke-linecap:round; stroke-linejoin:round; stroke-width:4; stroke-opacity:0; fill:none" points="317.192,2084.66 326.64,2084.66 "/>
<polyline clip-path="url(#clip080)" style="stroke:#222255; stroke-linecap:round; stroke-linejoin:round; stroke-width:4; stroke-opacity:0; fill:none" points="317.192,2007.38 326.64,2007.38 "/>
<polyline clip-path="url(#clip080)" style="stroke:#222255; stroke-linecap:round; stroke-linejoin:round; stroke-width:4; stroke-opacity:0; fill:none" points="317.192,1818.64 326.64,1818.64 "/>
<polyline clip-path="url(#clip080)" style="stroke:#222255; stroke-linecap:round; stroke-linejoin:round; stroke-width:4; stroke-opacity:0; fill:none" points="317.192,1717.5 326.64,1717.5 "/>
<polyline clip-path="url(#clip080)" style="stroke:#222255; stroke-linecap:round; stroke-linejoin:round; stroke-width:4; stroke-opacity:0; fill:none" points="317.192,1629.89 326.64,1629.89 "/>
<polyline clip-path="url(#clip080)" style="stroke:#222255; stroke-linecap:round; stroke-linejoin:round; stroke-width:4; stroke-opacity:0; fill:none" points="317.192,1552.61 326.64,1552.61 "/>
<polyline clip-path="url(#clip080)" style="stroke:#222255; stroke-linecap:round; stroke-linejoin:round; stroke-width:4; stroke-opacity:0; fill:none" points="317.192,1363.86 326.64,1363.86 "/>
<polyline clip-path="url(#clip080)" style="stroke:#222255; stroke-linecap:round; stroke-linejoin:round; stroke-width:4; stroke-opacity:0; fill:none" points="317.192,1262.72 326.64,1262.72 "/>
<polyline clip-path="url(#clip080)" style="stroke:#222255; stroke-linecap:round; stroke-linejoin:round; stroke-width:4; stroke-opacity:0; fill:none" points="317.192,1175.11 326.64,1175.11 "/>
<polyline clip-path="url(#clip080)" style="stroke:#222255; stroke-linecap:round; stroke-linejoin:round; stroke-width:4; stroke-opacity:0; fill:none" points="317.192,1097.83 326.64,1097.83 "/>
<polyline clip-path="url(#clip080)" style="stroke:#222255; stroke-linecap:round; stroke-linejoin:round; stroke-width:4; stroke-opacity:0; fill:none" points="317.192,909.083 326.64,909.083 "/>
<polyline clip-path="url(#clip080)" style="stroke:#222255; stroke-linecap:round; stroke-linejoin:round; stroke-width:4; stroke-opacity:0; fill:none" points="317.192,807.944 326.64,807.944 "/>
<polyline clip-path="url(#clip080)" style="stroke:#222255; stroke-linecap:round; stroke-linejoin:round; stroke-width:4; stroke-opacity:0; fill:none" points="317.192,720.334 326.64,720.334 "/>
<polyline clip-path="url(#clip080)" style="stroke:#222255; stroke-linecap:round; stroke-linejoin:round; stroke-width:4; stroke-opacity:0; fill:none" points="317.192,643.056 326.64,643.056 "/>
<polyline clip-path="url(#clip080)" style="stroke:#222255; stroke-linecap:round; stroke-linejoin:round; stroke-width:4; stroke-opacity:0; fill:none" points="317.192,454.307 326.64,454.307 "/>
<polyline clip-path="url(#clip080)" style="stroke:#222255; stroke-linecap:round; stroke-linejoin:round; stroke-width:4; stroke-opacity:0; fill:none" points="317.192,353.168 326.64,353.168 "/>
<polyline clip-path="url(#clip080)" style="stroke:#222255; stroke-linecap:round; stroke-linejoin:round; stroke-width:4; stroke-opacity:0; fill:none" points="317.192,265.557 326.64,265.557 "/>
<polyline clip-path="url(#clip080)" style="stroke:#222255; stroke-linecap:round; stroke-linejoin:round; stroke-width:4; stroke-opacity:0; fill:none" points="317.192,188.28 326.64,188.28 "/>
<path clip-path="url(#clip080)" d="M117.845 2406.38 L134.164 2406.38 L134.164 2410.31 L112.22 2410.31 L112.22 2406.38 Q114.882 2403.62 119.465 2398.99 Q124.072 2394.34 125.252 2393 Q127.498 2390.48 128.377 2388.74 Q129.28 2386.98 129.28 2385.29 Q129.28 2382.54 127.336 2380.8 Q125.415 2379.06 122.313 2379.06 Q120.114 2379.06 117.66 2379.83 Q115.229 2380.59 112.452 2382.14 L112.452 2377.42 Q115.276 2376.29 117.729 2375.71 Q120.183 2375.13 122.22 2375.13 Q127.59 2375.13 130.785 2377.81 Q133.979 2380.5 133.979 2384.99 Q133.979 2387.12 133.169 2389.04 Q132.382 2390.94 130.276 2393.53 Q129.697 2394.2 126.595 2397.42 Q123.493 2400.61 117.845 2406.38 Z" fill="#000000" fill-rule="nonzero" fill-opacity="1" /><path clip-path="url(#clip080)" d="M161.039 2375.75 L173.609 2388.65 L168.956 2388.65 L158.771 2379.5 L148.586 2388.65 L143.933 2388.65 L156.502 2375.75 L161.039 2375.75 Z" fill="#000000" fill-rule="nonzero" fill-opacity="1" /><path clip-path="url(#clip080)" d="M202.868 2414.71 L202.868 2418.04 L201.433 2418.04 Q195.669 2418.04 193.701 2416.33 Q191.757 2414.62 191.757 2409.5 L191.757 2403.97 Q191.757 2400.48 190.507 2399.13 Q189.257 2397.79 185.97 2397.79 L184.558 2397.79 L184.558 2394.48 L185.97 2394.48 Q189.28 2394.48 190.507 2393.16 Q191.757 2391.82 191.757 2388.37 L191.757 2382.81 Q191.757 2377.7 193.701 2376.01 Q195.669 2374.29 201.433 2374.29 L202.868 2374.29 L202.868 2377.6 L201.294 2377.6 Q198.03 2377.6 197.035 2378.62 Q196.039 2379.64 196.039 2382.91 L196.039 2388.65 Q196.039 2392.28 194.974 2393.92 Q193.933 2395.57 191.386 2396.15 Q193.956 2396.77 194.997 2398.41 Q196.039 2400.06 196.039 2403.67 L196.039 2409.41 Q196.039 2412.67 197.035 2413.69 Q198.03 2414.71 201.294 2414.71 L202.868 2414.71 Z" fill="#000000" fill-rule="nonzero" fill-opacity="1" /><path clip-path="url(#clip080)" d="M223.863 2378.83 Q220.252 2378.83 218.423 2382.4 Q216.618 2385.94 216.618 2393.07 Q216.618 2400.17 218.423 2403.74 Q220.252 2407.28 223.863 2407.28 Q227.497 2407.28 229.303 2403.74 Q231.132 2400.17 231.132 2393.07 Q231.132 2385.94 229.303 2382.4 Q227.497 2378.83 223.863 2378.83 M223.863 2375.13 Q229.673 2375.13 232.729 2379.73 Q235.807 2384.32 235.807 2393.07 Q235.807 2401.79 232.729 2406.4 Q229.673 2410.98 223.863 2410.98 Q218.053 2410.98 214.974 2406.4 Q211.919 2401.79 211.919 2393.07 Q211.919 2384.32 214.974 2379.73 Q218.053 2375.13 223.863 2375.13 Z" fill="#000000" fill-rule="nonzero" fill-opacity="1" /><path clip-path="url(#clip080)" d="M244.881 2414.71 L246.502 2414.71 Q249.743 2414.71 250.715 2413.72 Q251.71 2412.72 251.71 2409.41 L251.71 2403.67 Q251.71 2400.06 252.752 2398.41 Q253.793 2396.77 256.363 2396.15 Q253.793 2395.57 252.752 2393.92 Q251.71 2392.28 251.71 2388.65 L251.71 2382.91 Q251.71 2379.62 250.715 2378.62 Q249.743 2377.6 246.502 2377.6 L244.881 2377.6 L244.881 2374.29 L246.34 2374.29 Q252.104 2374.29 254.025 2376.01 Q255.969 2377.7 255.969 2382.81 L255.969 2388.37 Q255.969 2391.82 257.219 2393.16 Q258.469 2394.48 261.756 2394.48 L263.192 2394.48 L263.192 2397.79 L261.756 2397.79 Q258.469 2397.79 257.219 2399.13 Q255.969 2400.48 255.969 2403.97 L255.969 2409.5 Q255.969 2414.62 254.025 2416.33 Q252.104 2418.04 246.34 2418.04 L244.881 2418.04 L244.881 2414.71 Z" fill="#000000" fill-rule="nonzero" fill-opacity="1" /><path clip-path="url(#clip080)" d="M117.845 1951.6 L134.164 1951.6 L134.164 1955.54 L112.22 1955.54 L112.22 1951.6 Q114.882 1948.85 119.465 1944.22 Q124.072 1939.56 125.252 1938.22 Q127.498 1935.7 128.377 1933.96 Q129.28 1932.2 129.28 1930.51 Q129.28 1927.76 127.336 1926.02 Q125.415 1924.29 122.313 1924.29 Q120.114 1924.29 117.66 1925.05 Q115.229 1925.81 112.452 1927.37 L112.452 1922.64 Q115.276 1921.51 117.729 1920.93 Q120.183 1920.35 122.22 1920.35 Q127.59 1920.35 130.785 1923.04 Q133.979 1925.72 133.979 1930.21 Q133.979 1932.34 133.169 1934.26 Q132.382 1936.16 130.276 1938.75 Q129.697 1939.43 126.595 1942.64 Q123.493 1945.84 117.845 1951.6 Z" fill="#000000" fill-rule="nonzero" fill-opacity="1" /><path clip-path="url(#clip080)" d="M161.039 1920.98 L173.609 1933.87 L168.956 1933.87 L158.771 1924.73 L148.586 1933.87 L143.933 1933.87 L156.502 1920.98 L161.039 1920.98 Z" fill="#000000" fill-rule="nonzero" fill-opacity="1" /><path clip-path="url(#clip080)" d="M202.868 1959.93 L202.868 1963.27 L201.433 1963.27 Q195.669 1963.27 193.701 1961.56 Q191.757 1959.84 191.757 1954.73 L191.757 1949.19 Q191.757 1945.7 190.507 1944.36 Q189.257 1943.01 185.97 1943.01 L184.558 1943.01 L184.558 1939.7 L185.97 1939.7 Q189.28 1939.7 190.507 1938.38 Q191.757 1937.04 191.757 1933.59 L191.757 1928.04 Q191.757 1922.92 193.701 1921.23 Q195.669 1919.52 201.433 1919.52 L202.868 1919.52 L202.868 1922.83 L201.294 1922.83 Q198.03 1922.83 197.035 1923.85 Q196.039 1924.87 196.039 1928.13 L196.039 1933.87 Q196.039 1937.5 194.974 1939.15 Q193.933 1940.79 191.386 1941.37 Q193.956 1942 194.997 1943.64 Q196.039 1945.28 196.039 1948.89 L196.039 1954.63 Q196.039 1957.9 197.035 1958.92 Q198.03 1959.93 201.294 1959.93 L202.868 1959.93 Z" fill="#000000" fill-rule="nonzero" fill-opacity="1" /><path clip-path="url(#clip080)" d="M214.673 1951.6 L222.312 1951.6 L222.312 1925.24 L214.002 1926.9 L214.002 1922.64 L222.266 1920.98 L226.942 1920.98 L226.942 1951.6 L234.581 1951.6 L234.581 1955.54 L214.673 1955.54 L214.673 1951.6 Z" fill="#000000" fill-rule="nonzero" fill-opacity="1" /><path clip-path="url(#clip080)" d="M244.881 1959.93 L246.502 1959.93 Q249.743 1959.93 250.715 1958.94 Q251.71 1957.94 251.71 1954.63 L251.71 1948.89 Q251.71 1945.28 252.752 1943.64 Q253.793 1942 256.363 1941.37 Q253.793 1940.79 252.752 1939.15 Q251.71 1937.5 251.71 1933.87 L251.71 1928.13 Q251.71 1924.84 250.715 1923.85 Q249.743 1922.83 246.502 1922.83 L244.881 1922.83 L244.881 1919.52 L246.34 1919.52 Q252.104 1919.52 254.025 1921.23 Q255.969 1922.92 255.969 1928.04 L255.969 1933.59 Q255.969 1937.04 257.219 1938.38 Q258.469 1939.7 261.756 1939.7 L263.192 1939.7 L263.192 1943.01 L261.756 1943.01 Q258.469 1943.01 257.219 1944.36 Q255.969 1945.7 255.969 1949.19 L255.969 1954.73 Q255.969 1959.84 254.025 1961.56 Q252.104 1963.27 246.34 1963.27 L244.881 1963.27 L244.881 1959.93 Z" fill="#000000" fill-rule="nonzero" fill-opacity="1" /><path clip-path="url(#clip080)" d="M117.845 1496.83 L134.164 1496.83 L134.164 1500.76 L112.22 1500.76 L112.22 1496.83 Q114.882 1494.07 119.465 1489.44 Q124.072 1484.79 125.252 1483.45 Q127.498 1480.92 128.377 1479.19 Q129.28 1477.43 129.28 1475.74 Q129.28 1472.98 127.336 1471.25 Q125.415 1469.51 122.313 1469.51 Q120.114 1469.51 117.66 1470.27 Q115.229 1471.04 112.452 1472.59 L112.452 1467.87 Q115.276 1466.73 117.729 1466.15 Q120.183 1465.58 122.22 1465.58 Q127.59 1465.58 130.785 1468.26 Q133.979 1470.95 133.979 1475.44 Q133.979 1477.57 133.169 1479.49 Q132.382 1481.39 130.276 1483.98 Q129.697 1484.65 126.595 1487.87 Q123.493 1491.06 117.845 1496.83 Z" fill="#000000" fill-rule="nonzero" fill-opacity="1" /><path clip-path="url(#clip080)" d="M161.039 1466.2 L173.609 1479.09 L168.956 1479.09 L158.771 1469.95 L148.586 1479.09 L143.933 1479.09 L156.502 1466.2 L161.039 1466.2 Z" fill="#000000" fill-rule="nonzero" fill-opacity="1" /><path clip-path="url(#clip080)" d="M202.868 1505.16 L202.868 1508.49 L201.433 1508.49 Q195.669 1508.49 193.701 1506.78 Q191.757 1505.07 191.757 1499.95 L191.757 1494.42 Q191.757 1490.92 190.507 1489.58 Q189.257 1488.24 185.97 1488.24 L184.558 1488.24 L184.558 1484.93 L185.97 1484.93 Q189.28 1484.93 190.507 1483.61 Q191.757 1482.27 191.757 1478.82 L191.757 1473.26 Q191.757 1468.15 193.701 1466.46 Q195.669 1464.74 201.433 1464.74 L202.868 1464.74 L202.868 1468.05 L201.294 1468.05 Q198.03 1468.05 197.035 1469.07 Q196.039 1470.09 196.039 1473.35 L196.039 1479.09 Q196.039 1482.73 194.974 1484.37 Q193.933 1486.02 191.386 1486.59 Q193.956 1487.22 194.997 1488.86 Q196.039 1490.51 196.039 1494.12 L196.039 1499.86 Q196.039 1503.12 197.035 1504.14 Q198.03 1505.16 201.294 1505.16 L202.868 1505.16 Z" fill="#000000" fill-rule="nonzero" fill-opacity="1" /><path clip-path="url(#clip080)" d="M217.891 1496.83 L234.21 1496.83 L234.21 1500.76 L212.266 1500.76 L212.266 1496.83 Q214.928 1494.07 219.511 1489.44 Q224.118 1484.79 225.298 1483.45 Q227.544 1480.92 228.423 1479.19 Q229.326 1477.43 229.326 1475.74 Q229.326 1472.98 227.382 1471.25 Q225.46 1469.51 222.358 1469.51 Q220.159 1469.51 217.706 1470.27 Q215.275 1471.04 212.497 1472.59 L212.497 1467.87 Q215.321 1466.73 217.775 1466.15 Q220.229 1465.58 222.266 1465.58 Q227.636 1465.58 230.831 1468.26 Q234.025 1470.95 234.025 1475.44 Q234.025 1477.57 233.215 1479.49 Q232.428 1481.39 230.321 1483.98 Q229.743 1484.65 226.641 1487.87 Q223.539 1491.06 217.891 1496.83 Z" fill="#000000" fill-rule="nonzero" fill-opacity="1" /><path clip-path="url(#clip080)" d="M244.881 1505.16 L246.502 1505.16 Q249.743 1505.16 250.715 1504.16 Q251.71 1503.17 251.71 1499.86 L251.71 1494.12 Q251.71 1490.51 252.752 1488.86 Q253.793 1487.22 256.363 1486.59 Q253.793 1486.02 252.752 1484.37 Q251.71 1482.73 251.71 1479.09 L251.71 1473.35 Q251.71 1470.07 250.715 1469.07 Q249.743 1468.05 246.502 1468.05 L244.881 1468.05 L244.881 1464.74 L246.34 1464.74 Q252.104 1464.74 254.025 1466.46 Q255.969 1468.15 255.969 1473.26 L255.969 1478.82 Q255.969 1482.27 257.219 1483.61 Q258.469 1484.93 261.756 1484.93 L263.192 1484.93 L263.192 1488.24 L261.756 1488.24 Q258.469 1488.24 257.219 1489.58 Q255.969 1490.92 255.969 1494.42 L255.969 1499.95 Q255.969 1505.07 254.025 1506.78 Q252.104 1508.49 246.34 1508.49 L244.881 1508.49 L244.881 1505.16 Z" fill="#000000" fill-rule="nonzero" fill-opacity="1" /><path clip-path="url(#clip080)" d="M117.845 1042.05 L134.164 1042.05 L134.164 1045.98 L112.22 1045.98 L112.22 1042.05 Q114.882 1039.29 119.465 1034.67 Q124.072 1030.01 125.252 1028.67 Q127.498 1026.15 128.377 1024.41 Q129.28 1022.65 129.28 1020.96 Q129.28 1018.21 127.336 1016.47 Q125.415 1014.73 122.313 1014.73 Q120.114 1014.73 117.66 1015.5 Q115.229 1016.26 112.452 1017.81 L112.452 1013.09 Q115.276 1011.96 117.729 1011.38 Q120.183 1010.8 122.22 1010.8 Q127.59 1010.8 130.785 1013.48 Q133.979 1016.17 133.979 1020.66 Q133.979 1022.79 133.169 1024.71 Q132.382 1026.61 130.276 1029.2 Q129.697 1029.87 126.595 1033.09 Q123.493 1036.29 117.845 1042.05 Z" fill="#000000" fill-rule="nonzero" fill-opacity="1" /><path clip-path="url(#clip080)" d="M161.039 1011.42 L173.609 1024.32 L168.956 1024.32 L158.771 1015.17 L148.586 1024.32 L143.933 1024.32 L156.502 1011.42 L161.039 1011.42 Z" fill="#000000" fill-rule="nonzero" fill-opacity="1" /><path clip-path="url(#clip080)" d="M202.868 1050.38 L202.868 1053.72 L201.433 1053.72 Q195.669 1053.72 193.701 1052 Q191.757 1050.29 191.757 1045.17 L191.757 1039.64 Q191.757 1036.15 190.507 1034.8 Q189.257 1033.46 185.97 1033.46 L184.558 1033.46 L184.558 1030.15 L185.97 1030.15 Q189.28 1030.15 190.507 1028.83 Q191.757 1027.49 191.757 1024.04 L191.757 1018.48 Q191.757 1013.37 193.701 1011.68 Q195.669 1009.97 201.433 1009.97 L202.868 1009.97 L202.868 1013.28 L201.294 1013.28 Q198.03 1013.28 197.035 1014.29 Q196.039 1015.31 196.039 1018.58 L196.039 1024.32 Q196.039 1027.95 194.974 1029.6 Q193.933 1031.24 191.386 1031.82 Q193.956 1032.44 194.997 1034.09 Q196.039 1035.73 196.039 1039.34 L196.039 1045.08 Q196.039 1048.35 197.035 1049.36 Q198.03 1050.38 201.294 1050.38 L202.868 1050.38 Z" fill="#000000" fill-rule="nonzero" fill-opacity="1" /><path clip-path="url(#clip080)" d="M228.03 1027.35 Q231.386 1028.07 233.261 1030.34 Q235.159 1032.6 235.159 1035.94 Q235.159 1041.05 231.641 1043.85 Q228.122 1046.66 221.641 1046.66 Q219.465 1046.66 217.15 1046.22 Q214.858 1045.8 212.405 1044.94 L212.405 1040.43 Q214.349 1041.56 216.664 1042.14 Q218.979 1042.72 221.502 1042.72 Q225.9 1042.72 228.192 1040.98 Q230.507 1039.25 230.507 1035.94 Q230.507 1032.88 228.354 1031.17 Q226.224 1029.43 222.405 1029.43 L218.377 1029.43 L218.377 1025.59 L222.59 1025.59 Q226.039 1025.59 227.868 1024.23 Q229.696 1022.84 229.696 1020.24 Q229.696 1017.58 227.798 1016.17 Q225.923 1014.73 222.405 1014.73 Q220.483 1014.73 218.284 1015.15 Q216.085 1015.57 213.446 1016.45 L213.446 1012.28 Q216.108 1011.54 218.423 1011.17 Q220.761 1010.8 222.821 1010.8 Q228.145 1010.8 231.247 1013.23 Q234.349 1015.64 234.349 1019.76 Q234.349 1022.63 232.706 1024.62 Q231.062 1026.59 228.03 1027.35 Z" fill="#000000" fill-rule="nonzero" fill-opacity="1" /><path clip-path="url(#clip080)" d="M244.881 1050.38 L246.502 1050.38 Q249.743 1050.38 250.715 1049.39 Q251.71 1048.39 251.71 1045.08 L251.71 1039.34 Q251.71 1035.73 252.752 1034.09 Q253.793 1032.44 256.363 1031.82 Q253.793 1031.24 252.752 1029.6 Q251.71 1027.95 251.71 1024.32 L251.71 1018.58 Q251.71 1015.29 250.715 1014.29 Q249.743 1013.28 246.502 1013.28 L244.881 1013.28 L244.881 1009.97 L246.34 1009.97 Q252.104 1009.97 254.025 1011.68 Q255.969 1013.37 255.969 1018.48 L255.969 1024.04 Q255.969 1027.49 257.219 1028.83 Q258.469 1030.15 261.756 1030.15 L263.192 1030.15 L263.192 1033.46 L261.756 1033.46 Q258.469 1033.46 257.219 1034.8 Q255.969 1036.15 255.969 1039.64 L255.969 1045.17 Q255.969 1050.29 254.025 1052 Q252.104 1053.72 246.34 1053.72 L244.881 1053.72 L244.881 1050.38 Z" fill="#000000" fill-rule="nonzero" fill-opacity="1" /><path clip-path="url(#clip080)" d="M117.845 587.273 L134.164 587.273 L134.164 591.208 L112.22 591.208 L112.22 587.273 Q114.882 584.519 119.465 579.889 Q124.072 575.236 125.252 573.894 Q127.498 571.37 128.377 569.634 Q129.28 567.875 129.28 566.185 Q129.28 563.431 127.336 561.695 Q125.415 559.958 122.313 559.958 Q120.114 559.958 117.66 560.722 Q115.229 561.486 112.452 563.037 L112.452 558.315 Q115.276 557.181 117.729 556.602 Q120.183 556.023 122.22 556.023 Q127.59 556.023 130.785 558.708 Q133.979 561.394 133.979 565.884 Q133.979 568.014 133.169 569.935 Q132.382 571.833 130.276 574.426 Q129.697 575.097 126.595 578.315 Q123.493 581.509 117.845 587.273 Z" fill="#000000" fill-rule="nonzero" fill-opacity="1" /><path clip-path="url(#clip080)" d="M161.039 556.648 L173.609 569.542 L168.956 569.542 L158.771 560.398 L148.586 569.542 L143.933 569.542 L156.502 556.648 L161.039 556.648 Z" fill="#000000" fill-rule="nonzero" fill-opacity="1" /><path clip-path="url(#clip080)" d="M202.868 595.606 L202.868 598.94 L201.433 598.94 Q195.669 598.94 193.701 597.227 Q191.757 595.514 191.757 590.398 L191.757 584.866 Q191.757 581.37 190.507 580.028 Q189.257 578.685 185.97 578.685 L184.558 578.685 L184.558 575.375 L185.97 575.375 Q189.28 575.375 190.507 574.056 Q191.757 572.713 191.757 569.264 L191.757 563.708 Q191.757 558.593 193.701 556.903 Q195.669 555.19 201.433 555.19 L202.868 555.19 L202.868 558.5 L201.294 558.5 Q198.03 558.5 197.035 559.519 Q196.039 560.537 196.039 563.801 L196.039 569.542 Q196.039 573.176 194.974 574.82 Q193.933 576.463 191.386 577.042 Q193.956 577.667 194.997 579.31 Q196.039 580.954 196.039 584.565 L196.039 590.306 Q196.039 593.569 197.035 594.588 Q198.03 595.606 201.294 595.606 L202.868 595.606 Z" fill="#000000" fill-rule="nonzero" fill-opacity="1" /><path clip-path="url(#clip080)" d="M226.71 560.722 L214.905 579.171 L226.71 579.171 L226.71 560.722 M225.483 556.648 L231.363 556.648 L231.363 579.171 L236.294 579.171 L236.294 583.06 L231.363 583.06 L231.363 591.208 L226.71 591.208 L226.71 583.06 L211.109 583.06 L211.109 578.546 L225.483 556.648 Z" fill="#000000" fill-rule="nonzero" fill-opacity="1" /><path clip-path="url(#clip080)" d="M244.881 595.606 L246.502 595.606 Q249.743 595.606 250.715 594.611 Q251.71 593.616 251.71 590.306 L251.71 584.565 Q251.71 580.954 252.752 579.31 Q253.793 577.667 256.363 577.042 Q253.793 576.463 252.752 574.82 Q251.71 573.176 251.71 569.542 L251.71 563.801 Q251.71 560.514 250.715 559.519 Q249.743 558.5 246.502 558.5 L244.881 558.5 L244.881 555.19 L246.34 555.19 Q252.104 555.19 254.025 556.903 Q255.969 558.593 255.969 563.708 L255.969 569.264 Q255.969 572.713 257.219 574.056 Q258.469 575.375 261.756 575.375 L263.192 575.375 L263.192 578.685 L261.756 578.685 Q258.469 578.685 257.219 580.028 Q255.969 581.37 255.969 584.866 L255.969 590.398 Q255.969 595.514 254.025 597.227 Q252.104 598.94 246.34 598.94 L244.881 598.94 L244.881 595.606 Z" fill="#000000" fill-rule="nonzero" fill-opacity="1" /><path clip-path="url(#clip080)" d="M117.845 132.497 L134.164 132.497 L134.164 136.432 L112.22 136.432 L112.22 132.497 Q114.882 129.742 119.465 125.113 Q124.072 120.46 125.252 119.117 Q127.498 116.594 128.377 114.858 Q129.28 113.099 129.28 111.409 Q129.28 108.654 127.336 106.918 Q125.415 105.182 122.313 105.182 Q120.114 105.182 117.66 105.946 Q115.229 106.71 112.452 108.261 L112.452 103.539 Q115.276 102.405 117.729 101.826 Q120.183 101.247 122.22 101.247 Q127.59 101.247 130.785 103.932 Q133.979 106.617 133.979 111.108 Q133.979 113.238 133.169 115.159 Q132.382 117.057 130.276 119.65 Q129.697 120.321 126.595 123.539 Q123.493 126.733 117.845 132.497 Z" fill="#000000" fill-rule="nonzero" fill-opacity="1" /><path clip-path="url(#clip080)" d="M161.039 101.872 L173.609 114.766 L168.956 114.766 L158.771 105.622 L148.586 114.766 L143.933 114.766 L156.502 101.872 L161.039 101.872 Z" fill="#000000" fill-rule="nonzero" fill-opacity="1" /><path clip-path="url(#clip080)" d="M202.868 140.83 L202.868 144.164 L201.433 144.164 Q195.669 144.164 193.701 142.451 Q191.757 140.738 191.757 135.622 L191.757 130.09 Q191.757 126.594 190.507 125.252 Q189.257 123.909 185.97 123.909 L184.558 123.909 L184.558 120.599 L185.97 120.599 Q189.28 120.599 190.507 119.279 Q191.757 117.937 191.757 114.488 L191.757 108.932 Q191.757 103.817 193.701 102.127 Q195.669 100.414 201.433 100.414 L202.868 100.414 L202.868 103.724 L201.294 103.724 Q198.03 103.724 197.035 104.742 Q196.039 105.761 196.039 109.025 L196.039 114.766 Q196.039 118.4 194.974 120.043 Q193.933 121.687 191.386 122.266 Q193.956 122.891 194.997 124.534 Q196.039 126.178 196.039 129.789 L196.039 135.529 Q196.039 138.793 197.035 139.812 Q198.03 140.83 201.294 140.83 L202.868 140.83 Z" fill="#000000" fill-rule="nonzero" fill-opacity="1" /><path clip-path="url(#clip080)" d="M213.909 101.872 L232.266 101.872 L232.266 105.807 L218.192 105.807 L218.192 114.279 Q219.21 113.932 220.229 113.77 Q221.247 113.585 222.266 113.585 Q228.053 113.585 231.432 116.756 Q234.812 119.928 234.812 125.344 Q234.812 130.923 231.34 134.025 Q227.868 137.103 221.548 137.103 Q219.372 137.103 217.104 136.733 Q214.858 136.363 212.451 135.622 L212.451 130.923 Q214.534 132.057 216.757 132.613 Q218.979 133.168 221.456 133.168 Q225.46 133.168 227.798 131.062 Q230.136 128.955 230.136 125.344 Q230.136 121.733 227.798 119.627 Q225.46 117.52 221.456 117.52 Q219.581 117.52 217.706 117.937 Q215.854 118.354 213.909 119.233 L213.909 101.872 Z" fill="#000000" fill-rule="nonzero" fill-opacity="1" /><path clip-path="url(#clip080)" d="M244.881 140.83 L246.502 140.83 Q249.743 140.83 250.715 139.835 Q251.71 138.84 251.71 135.529 L251.71 129.789 Q251.71 126.178 252.752 124.534 Q253.793 122.891 256.363 122.266 Q253.793 121.687 252.752 120.043 Q251.71 118.4 251.71 114.766 L251.71 109.025 Q251.71 105.738 250.715 104.742 Q249.743 103.724 246.502 103.724 L244.881 103.724 L244.881 100.414 L246.34 100.414 Q252.104 100.414 254.025 102.127 Q255.969 103.817 255.969 108.932 L255.969 114.488 Q255.969 117.937 257.219 119.279 Q258.469 120.599 261.756 120.599 L263.192 120.599 L263.192 123.909 L261.756 123.909 Q258.469 123.909 257.219 125.252 Q255.969 126.594 255.969 130.09 L255.969 135.622 Q255.969 140.738 254.025 142.451 Q252.104 144.164 246.34 144.164 L244.881 144.164 L244.881 140.83 Z" fill="#000000" fill-rule="nonzero" fill-opacity="1" /><path clip-path="url(#clip080)" d="M21.1282 1237.38 Q23.0606 1237.38 26.4422 1238.12 Q29.8238 1238.83 31.4341 1239.41 Q35.7175 1241.02 39.3245 1244.24 Q41.3213 1246.01 42.7706 1247.95 Q44.1876 1249.85 44.8962 1251.26 Q45.5725 1252.68 45.9267 1254.36 Q46.3132 1256.03 46.3454 1256.8 Q46.4098 1257.58 46.4098 1258.67 L56.2326 1261.18 Q58.7769 1261.7 58.9379 1261.96 Q59.0667 1262.02 59.1311 1262.18 Q59.1956 1262.31 59.1956 1262.44 L59.1956 1262.57 Q59.1956 1262.92 59.0345 1263.12 Q58.8735 1263.31 58.6803 1263.34 L58.5192 1263.34 Q58.0684 1263.34 52.2713 1261.83 Q49.3084 1261.05 46.2488 1260.38 Q45.9267 1265.53 43.6401 1268.72 Q41.3535 1271.88 36.9091 1271.88 Q34.1716 1271.88 25.7659 1268.69 Q21.7401 1267.17 20.0654 1267.17 Q19.3247 1267.17 18.8738 1267.33 Q18.3907 1267.5 18.2297 1267.82 Q18.0365 1268.14 18.0043 1268.33 Q17.9721 1268.49 17.9721 1268.82 Q17.9721 1270.72 19.8722 1272.49 Q21.7723 1274.26 26.1523 1275.48 Q26.9575 1275.74 27.1507 1275.9 Q27.344 1276.06 27.344 1276.55 Q27.3118 1277.35 26.6676 1277.35 Q26.41 1277.35 25.4116 1277.06 Q24.381 1276.77 22.8673 1276.09 Q21.3215 1275.39 19.9366 1274.42 Q18.5196 1273.45 17.5212 1271.94 Q16.5228 1270.39 16.5228 1268.62 Q16.5228 1266.21 18.1009 1264.73 Q19.6468 1263.21 21.9334 1263.21 Q22.3843 1263.21 22.8996 1263.31 Q23.4148 1263.41 23.7047 1263.5 Q23.9946 1263.57 24.542 1263.76 Q25.0573 1263.92 25.154 1263.95 Q29.4051 1265.6 32.1748 1266.43 Q34.9123 1267.27 35.7175 1267.4 Q36.4904 1267.5 37.4244 1267.5 Q43.93 1267.5 44.7995 1259.99 L1.22501 1249.04 Q0.323242 1248.85 0.130007 1248.69 Q-0.095434 1248.53 -0.095434 1248.04 Q-0.095434 1247.27 0.613095 1247.27 Q0.838536 1247.27 1.61148 1247.46 L44.9284 1258.35 Q44.9284 1257.32 44.8962 1256.67 Q44.8639 1256.03 44.5741 1254.68 Q44.252 1253.29 43.6723 1252.13 Q43.0926 1250.94 41.9332 1249.27 Q40.7416 1247.59 39.0669 1245.95 Q36.9735 1243.89 33.4631 1242.05 Q29.9526 1240.22 27.0541 1240.22 Q23.8013 1240.22 21.4503 1242.57 Q21.1282 1242.92 20.935 1243.12 Q20.7418 1243.28 20.4197 1243.44 Q20.0976 1243.57 19.679 1243.57 Q18.584 1243.57 17.5534 1242.54 Q16.5228 1241.51 16.5228 1240.28 Q16.5228 1239.19 17.5856 1238.28 Q18.6484 1237.38 21.1282 1237.38 Z" fill="#000000" fill-rule="nonzero" fill-opacity="1" /><path clip-path="url(#clip080)" d="M340.629 34.2568 Q345.664 35.3331 348.476 38.7359 Q351.323 42.1387 351.323 47.1386 Q351.323 54.8122 346.046 59.0136 Q340.768 63.2149 331.046 63.2149 Q327.782 63.2149 324.31 62.5552 Q320.872 61.9302 317.192 60.6455 L317.192 53.8747 Q320.108 55.5761 323.58 56.4441 Q327.053 57.3122 330.837 57.3122 Q337.435 57.3122 340.872 54.708 Q344.344 52.1039 344.344 47.1386 Q344.344 42.5553 341.115 39.9859 Q337.921 37.3817 332.191 37.3817 L326.15 37.3817 L326.15 31.6179 L332.469 31.6179 Q337.643 31.6179 340.386 29.5693 Q343.129 27.486 343.129 23.5971 Q343.129 19.6041 340.282 17.486 Q337.469 15.3333 332.191 15.3333 Q329.31 15.3333 326.011 15.9582 Q322.712 16.5832 318.754 17.9027 L318.754 11.6527 Q322.747 10.5416 326.219 9.98606 Q329.726 9.43051 332.816 9.43051 Q340.803 9.43051 345.455 13.0763 Q350.108 16.6874 350.108 22.8679 Q350.108 27.1735 347.643 30.1596 Q345.178 33.1109 340.629 34.2568 Z" fill="#000000" fill-rule="nonzero" fill-opacity="1" /><path clip-path="url(#clip080)" d="M364.622 53.3886 L371.948 53.3886 L371.948 62.208 L364.622 62.208 L364.622 53.3886 Z" fill="#000000" fill-rule="nonzero" fill-opacity="1" /><path clip-path="url(#clip080)" d="M408.476 34.2568 Q413.51 35.3331 416.323 38.7359 Q419.17 42.1387 419.17 47.1386 Q419.17 54.8122 413.892 59.0136 Q408.615 63.2149 398.893 63.2149 Q395.629 63.2149 392.156 62.5552 Q388.719 61.9302 385.038 60.6455 L385.038 53.8747 Q387.955 55.5761 391.427 56.4441 Q394.899 57.3122 398.684 57.3122 Q405.281 57.3122 408.719 54.708 Q412.191 52.1039 412.191 47.1386 Q412.191 42.5553 408.962 39.9859 Q405.767 37.3817 400.038 37.3817 L393.997 37.3817 L393.997 31.6179 L400.316 31.6179 Q405.49 31.6179 408.233 29.5693 Q410.976 27.486 410.976 23.5971 Q410.976 19.6041 408.129 17.486 Q405.316 15.3333 400.038 15.3333 Q397.156 15.3333 393.858 15.9582 Q390.559 16.5832 386.601 17.9027 L386.601 11.6527 Q390.594 10.5416 394.066 9.98606 Q397.573 9.43051 400.663 9.43051 Q408.649 9.43051 413.302 13.0763 Q417.955 16.6874 417.955 22.8679 Q417.955 27.1735 415.49 30.1596 Q413.024 33.1109 408.476 34.2568 Z" fill="#000000" fill-rule="nonzero" fill-opacity="1" /><path clip-path="url(#clip080)" d="M479.031 37.9026 Q481.288 38.6665 483.406 41.1664 Q485.559 43.6664 487.711 48.0414 L494.83 62.208 L487.295 62.208 L480.663 48.9095 Q478.093 43.7012 475.663 41.9998 Q473.267 40.2984 469.1 40.2984 L461.462 40.2984 L461.462 62.208 L454.448 62.208 L454.448 10.368 L470.281 10.368 Q479.17 10.368 483.545 14.0833 Q487.92 17.7985 487.92 25.2985 Q487.92 30.1943 485.628 33.4234 Q483.371 36.6526 479.031 37.9026 M461.462 16.1319 L461.462 34.5345 L470.281 34.5345 Q475.35 34.5345 477.92 32.2082 Q480.524 29.8471 480.524 25.2985 Q480.524 20.7499 477.92 18.4582 Q475.35 16.1319 470.281 16.1319 L461.462 16.1319 Z" fill="#000000" fill-rule="nonzero" fill-opacity="1" /><path clip-path="url(#clip080)" d="M533.649 41.1664 L533.649 44.2914 L504.274 44.2914 Q504.691 50.8886 508.232 54.3608 Q511.809 57.7983 518.163 57.7983 Q521.843 57.7983 525.281 56.8955 Q528.753 55.9928 532.156 54.1872 L532.156 60.2288 Q528.718 61.6872 525.107 62.4511 Q521.496 63.2149 517.781 63.2149 Q508.475 63.2149 503.024 57.7983 Q497.607 52.3817 497.607 43.1456 Q497.607 33.597 502.746 28.0068 Q507.92 22.3818 516.67 22.3818 Q524.517 22.3818 529.065 27.4512 Q533.649 32.4859 533.649 41.1664 M527.26 39.2915 Q527.19 34.0484 524.309 30.9234 Q521.461 27.7985 516.739 27.7985 Q511.392 27.7985 508.163 30.8193 Q504.968 33.8401 504.482 39.3262 L527.26 39.2915 Z" fill="#000000" fill-rule="nonzero" fill-opacity="1" /><path clip-path="url(#clip080)" d="M569.725 42.3123 Q569.725 35.3679 566.843 31.5484 Q563.996 27.729 558.822 27.729 Q553.683 27.729 550.801 31.5484 Q547.954 35.3679 547.954 42.3123 Q547.954 49.222 550.801 53.0414 Q553.683 56.8608 558.822 56.8608 Q563.996 56.8608 566.843 53.0414 Q569.725 49.222 569.725 42.3123 M576.114 57.3816 Q576.114 67.3121 571.704 72.1385 Q567.294 76.9996 558.197 76.9996 Q554.829 76.9996 551.843 76.4788 Q548.857 75.9926 546.045 74.951 L546.045 68.7357 Q548.857 70.2635 551.6 70.9927 Q554.343 71.7218 557.19 71.7218 Q563.475 71.7218 566.6 68.4232 Q569.725 65.1594 569.725 58.5275 L569.725 55.3678 Q567.746 58.8052 564.656 60.5066 Q561.565 62.208 557.26 62.208 Q550.107 62.208 545.732 56.7566 Q541.357 51.3053 541.357 42.3123 Q541.357 33.2845 545.732 27.8332 Q550.107 22.3818 557.26 22.3818 Q561.565 22.3818 564.656 24.0832 Q567.746 25.7846 569.725 29.2221 L569.725 23.3193 L576.114 23.3193 L576.114 57.3816 Z" fill="#000000" fill-rule="nonzero" fill-opacity="1" /><path clip-path="url(#clip080)" d="M588.614 46.8609 L588.614 23.3193 L595.003 23.3193 L595.003 46.6178 Q595.003 52.1386 597.155 54.9164 Q599.308 57.6594 603.614 57.6594 Q608.787 57.6594 611.773 54.3608 Q614.794 51.0622 614.794 45.3678 L614.794 23.3193 L621.183 23.3193 L621.183 62.208 L614.794 62.208 L614.794 56.2358 Q612.468 59.7775 609.378 61.5136 Q606.322 63.2149 602.259 63.2149 Q595.558 63.2149 592.086 59.0483 Q588.614 54.8817 588.614 46.8609 M604.69 22.3818 L604.69 22.3818 Z" fill="#000000" fill-rule="nonzero" fill-opacity="1" /><path clip-path="url(#clip080)" d="M634.343 8.18051 L640.732 8.18051 L640.732 62.208 L634.343 62.208 L634.343 8.18051 Z" fill="#000000" fill-rule="nonzero" fill-opacity="1" /><path clip-path="url(#clip080)" d="M671.773 42.6595 Q664.03 42.6595 661.044 44.4303 Q658.058 46.2011 658.058 50.472 Q658.058 53.8747 660.28 55.8886 Q662.537 57.8677 666.391 57.8677 Q671.704 57.8677 674.898 54.1178 Q678.127 50.3331 678.127 44.0831 L678.127 42.6595 L671.773 42.6595 M684.516 40.0206 L684.516 62.208 L678.127 62.208 L678.127 56.3053 Q675.94 59.8469 672.676 61.5483 Q669.412 63.2149 664.69 63.2149 Q658.718 63.2149 655.176 59.8816 Q651.669 56.5136 651.669 50.8886 Q651.669 44.3262 656.044 40.9928 Q660.454 37.6595 669.169 37.6595 L678.127 37.6595 L678.127 37.0345 Q678.127 32.6248 675.21 30.229 Q672.329 27.7985 667.086 27.7985 Q663.752 27.7985 660.593 28.5971 Q657.433 29.3957 654.516 30.9929 L654.516 25.0901 Q658.023 23.736 661.322 23.0763 Q664.62 22.3818 667.745 22.3818 Q676.183 22.3818 680.349 26.7568 Q684.516 31.1318 684.516 40.0206 Z" fill="#000000" fill-rule="nonzero" fill-opacity="1" /><path clip-path="url(#clip080)" d="M720.21 29.2915 Q719.134 28.6665 717.849 28.3887 Q716.599 28.0762 715.071 28.0762 Q709.655 28.0762 706.738 31.6179 Q703.856 35.1248 703.856 41.722 L703.856 62.208 L697.433 62.208 L697.433 23.3193 L703.856 23.3193 L703.856 29.361 Q705.87 25.8193 709.099 24.1179 Q712.328 22.3818 716.946 22.3818 Q717.606 22.3818 718.405 22.486 Q719.203 22.5554 720.176 22.729 L720.21 29.2915 Z" fill="#000000" fill-rule="nonzero" fill-opacity="1" /><path clip-path="url(#clip080)" d="M764.863 8.24996 Q760.21 16.236 757.953 24.0485 Q755.696 31.8609 755.696 39.8817 Q755.696 47.9025 757.953 55.7844 Q760.245 63.6316 764.863 71.5829 L759.307 71.5829 Q754.099 63.4233 751.495 55.5414 Q748.925 47.6595 748.925 39.8817 Q748.925 32.1387 751.495 24.2915 Q754.064 16.4444 759.307 8.24996 L764.863 8.24996 Z" fill="#000000" fill-rule="nonzero" fill-opacity="1" /><path clip-path="url(#clip080)" d="M809.585 38.7359 L809.585 62.208 L803.196 62.208 L803.196 38.9442 Q803.196 33.4234 801.043 30.6804 Q798.89 27.9374 794.585 27.9374 Q789.411 27.9374 786.425 31.2359 Q783.439 34.5345 783.439 40.229 L783.439 62.208 L777.015 62.208 L777.015 23.3193 L783.439 23.3193 L783.439 29.361 Q785.731 25.854 788.821 24.1179 Q791.946 22.3818 796.008 22.3818 Q802.71 22.3818 806.147 26.5485 Q809.585 30.6804 809.585 38.7359 Z" fill="#000000" fill-rule="nonzero" fill-opacity="1" /><path clip-path="url(#clip080)" d="M845.765 29.9165 L890.279 29.9165 L890.279 35.7498 L845.765 35.7498 L845.765 29.9165 M845.765 44.0831 L890.279 44.0831 L890.279 49.9858 L845.765 49.9858 L845.765 44.0831 Z" fill="#000000" fill-rule="nonzero" fill-opacity="1" /><path clip-path="url(#clip080)" d="M929.237 56.3053 L940.695 56.3053 L940.695 16.7569 L928.23 19.2568 L928.23 12.868 L940.626 10.368 L947.64 10.368 L947.64 56.3053 L959.098 56.3053 L959.098 62.208 L929.237 62.208 L929.237 56.3053 Z" fill="#000000" fill-rule="nonzero" fill-opacity="1" /><path clip-path="url(#clip080)" d="M988.264 14.986 Q982.848 14.986 980.105 20.3332 Q977.396 25.6457 977.396 36.3401 Q977.396 46.9997 980.105 52.3469 Q982.848 57.6594 988.264 57.6594 Q993.716 57.6594 996.424 52.3469 Q999.167 46.9997 999.167 36.3401 Q999.167 25.6457 996.424 20.3332 Q993.716 14.986 988.264 14.986 M988.264 9.43051 Q996.98 9.43051 1001.56 16.3402 Q1006.18 23.2152 1006.18 36.3401 Q1006.18 49.4303 1001.56 56.34 Q996.98 63.2149 988.264 63.2149 Q979.549 63.2149 974.931 56.34 Q970.348 49.4303 970.348 36.3401 Q970.348 23.2152 974.931 16.3402 Q979.549 9.43051 988.264 9.43051 Z" fill="#000000" fill-rule="nonzero" fill-opacity="1" /><path clip-path="url(#clip080)" d="M1016.6 8.24996 L1022.15 8.24996 Q1027.36 16.4444 1029.93 24.2915 Q1032.53 32.1387 1032.53 39.8817 Q1032.53 47.6595 1029.93 55.5414 Q1027.36 63.4233 1022.15 71.5829 L1016.6 71.5829 Q1021.22 63.6316 1023.47 55.7844 Q1025.76 47.9025 1025.76 39.8817 Q1025.76 31.8609 1023.47 24.0485 Q1021.22 16.236 1016.6 8.24996 Z" fill="#000000" fill-rule="nonzero" fill-opacity="1" /><polyline clip-path="url(#clip082)" style="stroke:#ee7733; stroke-linecap:round; stroke-linejoin:round; stroke-width:16; stroke-opacity:1; fill:none" points="408.764,2127.01 747.352,2057.88 970.374,2054.61 1136.95,2038.81 1269.96,2028.89 1380.69,2012.37 1475.54,1998.05 1558.5,1998.58 1632.22,2004.23 1698.56,1982.3 1758.86,1986.78 1814.13,1985.5 1865.14,1982.93 1912.5,1983.11 1956.71,1972.88 1998.15,1964.87 2037.15,1973.18 2073.98,1974.7 2108.88,1963.81 2142.02,1961.81 2173.59,1973.31 2203.73,1960.36 2232.55,1956.08 2260.17,1957.66 2286.69,1966.85 2312.18,1960.87 2336.74,1960.89 2360.41,1959.42 2383.27,1958.45 2405.36,1956.01 2426.75,1955.27 2447.46,1957 2467.55,1951.85 2487.05,1954.85 2505.99,1953.82 2524.4,1952.2 2542.31,1949.16 2559.76,1954.39 2576.75,1952.86 2593.33,1951.88 2609.49,1953.37 2625.27,1950.02 2640.69,1950.19 2655.75,1950.86 2670.48,1949.95 2684.89,1953.27 2699,1949.44 2712.81,1949.47 2726.33,1949.15 2739.59,1951.36 2752.59,1952.07 2765.34,1949.82 2777.84,1948.18 2790.12,1951.25 2802.17,1948.76 2814.01,1946.6 2825.63,1949.34 2837.06,1947.31 2848.3,1950.66 2859.34,1946.65 2870.21,1946.6 2880.9,1945.57 2891.42,1946.49 2901.78,1946.84 2911.98,1945.26 2922.02,1948.17 2931.91,1947.29 2941.66,1946.63 2951.27,1945.43 2960.74,1944.76 2970.07,1945.76 2979.28,1945.31 2988.36,1947.69 2997.31,1946.23 3006.15,1946.88 3014.87,1945.59 3023.48,1947.21 3031.98,1944.96 3040.37,1945.83 3048.66,1944.57 3056.84,1947.19 3064.92,1944.44 3072.91,1944.14 3080.8,1945.48 3088.6,1945 3096.3,1945.64 3103.92,1944.12 3111.46,1943.24 3118.9,1943.73 3126.27,1945.14 3133.55,1943.08 3140.76,1943.85 3147.88,1944.95 3154.93,1943.75 3161.91,1944.07 3168.82,1944.35 3175.65,1943.57 3182.41,1945.18 3189.11,1944.31 3195.74,1944.36 3202.3,1944.24 3208.8,1943.84 3215.23,1943.22 3221.61,1944 3227.92,1942.96 3234.17,1944.44 3240.37,1943.58 3246.5,1944.38 3252.59,1943.75 3258.61,1944.36 3264.58,1943.13 3270.5,1943.27 3276.37,1942.69 3282.18,1943.15 3287.94,1943.86 3293.66,1942.91 3299.32,1943.12 3304.94,1944.05 3310.51,1943.07 3316.03,1943.04 3321.51,1943.44 3326.95,1943.38 3332.33,1942.6 3337.68,1941.7 3342.98,1942.49 3348.24,1942.37 3353.46,1942.16 3358.64,1943.16 3363.78,1943.86 3368.88,1942.75 3373.94,1942.85 3378.96,1941.78 3383.94,1941.4 3388.89,1942.46 3393.8,1943.15 3398.67,1942.85 3403.51,1941.69 3408.31,1942.69 3413.08,1942.33 3417.82,1941.58 3422.52,1942.3 3427.18,1942.91 3431.82,1942.3 3436.42,1942.56 3440.99,1942.21 3445.53,1941.95 3450.04,1942.08 3454.52,1941.67 3458.97,1941.82 "/>
<polyline clip-path="url(#clip082)" style="stroke:#0077bb; stroke-linecap:round; stroke-linejoin:round; stroke-width:16; stroke-opacity:1; fill:none" points="599.447,1938.26 868.199,1900.69 1058.88,1815.36 1206.79,1779.31 1327.63,1769.35 1429.81,1713.98 1518.32,1663.69 1596.39,1633.29 1666.22,1585.71 1729.4,1553.46 1787.07,1543.12 1840.12,1511.76 1889.24,1470.67 1934.97,1451.22 1977.75,1419.65 2017.93,1417.7 2055.82,1383.48 2091.66,1367.63 2125.66,1348.31 2158,1323.9 2188.83,1298.5 2218.29,1286.64 2246.5,1273.01 2273.56,1258.39 2299.56,1228.74 2324.57,1227.25 2348.68,1196.59 2371.94,1195.8 2394.41,1174.11 2416.14,1145.1 2437.19,1150.69 2457.58,1129.59 2477.37,1107.26 2496.58,1105.51 2515.26,1086.74 2533.42,1067.56 2551.09,1064.01 2568.31,1052.3 2585.09,1040.99 2601.46,1029.93 2617.43,1023.34 2633.03,1013.36 2648.27,1004.96 2663.16,992.295 2677.73,972.872 2691.98,962.188 2705.94,958.482 2719.61,951.632 2733,932.793 2746.12,932.606 2758.99,918.054 2771.62,913.464 2784.01,907.159 2796.17,895.617 2808.11,885.937 2819.85,878.588 2831.37,867.949 2842.7,863.668 2853.84,847.961 2864.8,847.008 2875.58,836.243 2886.18,828.615 2896.62,821.238 2906.9,814.765 2917.02,809.513 2926.98,807.472 2936.8,795.014 2946.48,788.155 2956.02,781.645 2965.42,777.207 2974.69,765.865 2983.83,761.151 2992.85,754.959 3001.75,745.595 3010.53,744.763 3019.19,737.085 3027.74,729.791 3036.19,720.95 3044.53,717.269 3052.76,712.313 3060.89,704.464 3068.93,700.323 3076.87,691.769 3084.71,690.413 3092.46,685.098 3100.12,674.558 3107.7,670.82 3115.19,666.084 3122.6,654.311 3129.92,655.434 3137.16,644.836 3144.33,639.363 3151.42,634.38 3158.43,632.936 3165.37,629.802 3172.24,621.789 3179.04,621.242 3185.77,612.437 3192.43,604.621 3199.03,603.345 3205.56,598.199 3212.02,592.591 3218.43,591.835 3224.77,584.354 3231.05,576.781 3237.28,570.708 3243.44,568.3 3249.55,563.882 3255.61,560.567 3261.6,557.14 3267.55,546.574 3273.44,545.778 3279.28,540.901 3285.07,539.782 3290.81,533.756 3296.5,527.127 3302.14,525.271 3307.73,521.979 3313.28,517.495 3318.78,512.435 3324.23,504.284 3329.65,508.578 3335.01,501.176 3340.34,494.858 3345.62,493.809 3350.86,485.797 3356.06,488.207 3361.21,482.378 3366.33,476.594 3371.41,471.472 3376.45,468.65 3381.45,463.911 3386.42,459.92 3391.35,457.684 3396.24,451.191 3401.1,448.785 3405.92,445.311 3410.7,441.25 3415.45,438.276 3420.17,430.793 3424.86,431.986 3429.51,426.09 3434.13,423.379 3438.71,419.69 3443.27,415.285 3447.79,412.629 3452.29,410.171 3456.75,406.611 3461.18,404.459 "/>
<polyline clip-path="url(#clip082)" style="stroke:#33bbee; stroke-linecap:round; stroke-linejoin:round; stroke-width:16; stroke-opacity:1; fill:none" points="747.352,1791.85 970.374,1770.19 1136.95,1691.96 1269.96,1653.36 1380.69,1589.18 1475.54,1534.69 1558.5,1485.51 1632.22,1443.32 1698.56,1405.37 1758.86,1366.9 1814.13,1353.22 1865.14,1321.9 1912.5,1284.65 1956.71,1255.35 1998.15,1216.9 2037.15,1199.74 2073.98,1191.76 2108.88,1161.29 2142.02,1127.24 2173.59,1119.58 2203.73,1098.81 2232.55,1079.58 2260.17,1054.2 2286.69,1035.23 2312.18,1031.37 2336.74,1004.14 2360.41,988.559 2383.27,980.127 2405.36,958.494 2426.75,937.63 2447.46,933.616 2467.55,915.943 2487.05,906.099 2505.99,884.766 2524.4,875.445 2542.31,866.061 2559.76,856.625 2576.75,841.525 2593.33,826.911 2609.49,813.157 2625.27,801.668 2640.69,789.891 2655.75,778.944 2670.48,762.07 2684.89,757.073 2699,747.667 2712.81,739.648 2726.33,732.213 2739.59,720.283 2752.59,710.286 2765.34,703.331 2777.84,684.83 2790.12,690.502 2802.17,674.155 2814.01,664.251 2825.63,651.747 2837.06,648.158 2848.3,638.192 2859.34,627.465 2870.21,625.625 2880.9,614.207 2891.42,600.314 2901.78,593.711 2911.98,591.368 2922.02,585.31 2931.91,571.021 2941.66,568.402 2951.27,561.538 2960.74,550.714 2970.07,546.9 2979.28,541.32 2988.36,538.669 2997.31,528.138 3006.15,519.421 3014.87,510.322 3023.48,505.513 3031.98,500.542 3040.37,494.4 3048.66,485.923 3056.84,485.427 3064.92,478.949 3072.91,466.868 3080.8,465.507 3088.6,458.654 3096.3,452.28 3103.92,446.904 3111.46,438.506 3118.9,435.715 3126.27,423.679 3133.55,423.032 3140.76,415.177 3147.88,411.218 3154.93,404.348 3161.91,401.934 3168.82,399.281 3175.65,384.603 3182.41,384.416 3189.11,383.267 3195.74,373.364 3202.3,367.711 3208.8,363.552 3215.23,357.961 3221.61,357.925 3227.92,352.358 3234.17,343.828 3240.37,342.181 3246.5,336.356 3252.59,328.66 3258.61,329.149 3264.58,321.302 3270.5,318.8 3276.37,310.716 3282.18,306.559 3287.94,303.424 3293.66,298.98 3299.32,298.53 3304.94,292.943 3310.51,282.002 3316.03,280.25 3321.51,279.276 3326.95,268.704 3332.33,268.121 3337.68,267.729 3342.98,259.348 3348.24,256.977 3353.46,255.783 3358.64,245.683 3363.78,244.828 3368.88,241.029 3373.94,238.791 3378.96,234.747 3383.94,229.469 3388.89,224.886 3393.8,220.291 3398.67,221.523 3403.51,212.825 3408.31,211.012 3413.08,205.957 3417.82,204.429 3422.52,199.014 3427.18,194.927 3431.82,188.121 3436.42,187.581 3440.99,180.863 3445.53,180.385 3450.04,175.901 3454.52,172.252 3458.97,169.818 "/>
<path clip-path="url(#clip080)" d="M425.044 402.308 L869.109 402.308 L869.109 194.948 L425.044 194.948  Z" fill="#ffffff" fill-rule="evenodd" fill-opacity="0.9"/>
<polyline clip-path="url(#clip080)" style="stroke:#222255; stroke-linecap:round; stroke-linejoin:round; stroke-width:4; stroke-opacity:0.1; fill:none" points="425.044,402.308 869.109,402.308 869.109,194.948 425.044,194.948 425.044,402.308 "/>
<polyline clip-path="url(#clip080)" style="stroke:#ee7733; stroke-linecap:round; stroke-linejoin:round; stroke-width:16; stroke-opacity:1; fill:none" points="460.994,246.788 676.699,246.788 "/>
<path clip-path="url(#clip080)" d="M712.649 228.05 L716.932 228.05 L716.932 249.323 L729.64 238.142 L735.08 238.142 L721.33 250.272 L735.659 264.068 L730.103 264.068 L716.932 251.406 L716.932 264.068 L712.649 264.068 L712.649 228.05 Z" fill="#000000" fill-rule="nonzero" fill-opacity="1" /><path clip-path="url(#clip080)" d="M755.89 242.54 L785.566 242.54 L785.566 246.429 L755.89 246.429 L755.89 242.54 M755.89 251.985 L785.566 251.985 L785.566 255.92 L755.89 255.92 L755.89 251.985 Z" fill="#000000" fill-rule="nonzero" fill-opacity="1" /><path clip-path="url(#clip080)" d="M814.755 260.133 L831.075 260.133 L831.075 264.068 L809.13 264.068 L809.13 260.133 Q811.792 257.378 816.376 252.749 Q820.982 248.096 822.163 246.753 Q824.408 244.23 825.288 242.494 Q826.19 240.735 826.19 239.045 Q826.19 236.291 824.246 234.554 Q822.325 232.818 819.223 232.818 Q817.024 232.818 814.57 233.582 Q812.14 234.346 809.362 235.897 L809.362 231.175 Q812.186 230.041 814.64 229.462 Q817.093 228.883 819.13 228.883 Q824.501 228.883 827.695 231.568 Q830.89 234.254 830.89 238.744 Q830.89 240.874 830.079 242.795 Q829.292 244.693 827.186 247.286 Q826.607 247.957 823.505 251.175 Q820.403 254.369 814.755 260.133 Z" fill="#000000" fill-rule="nonzero" fill-opacity="1" /><polyline clip-path="url(#clip080)" style="stroke:#0077bb; stroke-linecap:round; stroke-linejoin:round; stroke-width:16; stroke-opacity:1; fill:none" points="460.994,298.628 676.699,298.628 "/>
<path clip-path="url(#clip080)" d="M712.649 279.89 L716.932 279.89 L716.932 301.163 L729.64 289.982 L735.08 289.982 L721.33 302.112 L735.659 315.908 L730.103 315.908 L716.932 303.246 L716.932 315.908 L712.649 315.908 L712.649 279.89 Z" fill="#000000" fill-rule="nonzero" fill-opacity="1" /><path clip-path="url(#clip080)" d="M755.89 294.38 L785.566 294.38 L785.566 298.269 L755.89 298.269 L755.89 294.38 M755.89 303.825 L785.566 303.825 L785.566 307.76 L755.89 307.76 L755.89 303.825 Z" fill="#000000" fill-rule="nonzero" fill-opacity="1" /><path clip-path="url(#clip080)" d="M824.894 297.274 Q828.251 297.992 830.126 300.26 Q832.024 302.529 832.024 305.862 Q832.024 310.978 828.505 313.779 Q824.987 316.579 818.505 316.579 Q816.329 316.579 814.015 316.14 Q811.723 315.723 809.269 314.866 L809.269 310.353 Q811.214 311.487 813.529 312.066 Q815.843 312.644 818.366 312.644 Q822.765 312.644 825.056 310.908 Q827.371 309.172 827.371 305.862 Q827.371 302.806 825.218 301.093 Q823.089 299.357 819.269 299.357 L815.241 299.357 L815.241 295.515 L819.454 295.515 Q822.903 295.515 824.732 294.149 Q826.561 292.76 826.561 290.168 Q826.561 287.506 824.663 286.094 Q822.788 284.658 819.269 284.658 Q817.348 284.658 815.149 285.075 Q812.95 285.492 810.311 286.371 L810.311 282.205 Q812.973 281.464 815.288 281.094 Q817.626 280.723 819.686 280.723 Q825.01 280.723 828.112 283.154 Q831.214 285.561 831.214 289.681 Q831.214 292.552 829.57 294.543 Q827.927 296.51 824.894 297.274 Z" fill="#000000" fill-rule="nonzero" fill-opacity="1" /><polyline clip-path="url(#clip080)" style="stroke:#33bbee; stroke-linecap:round; stroke-linejoin:round; stroke-width:16; stroke-opacity:1; fill:none" points="460.994,350.468 676.699,350.468 "/>
<path clip-path="url(#clip080)" d="M712.649 331.73 L716.932 331.73 L716.932 353.003 L729.64 341.822 L735.08 341.822 L721.33 353.952 L735.659 367.748 L730.103 367.748 L716.932 355.086 L716.932 367.748 L712.649 367.748 L712.649 331.73 Z" fill="#000000" fill-rule="nonzero" fill-opacity="1" /><path clip-path="url(#clip080)" d="M755.89 346.22 L785.566 346.22 L785.566 350.109 L755.89 350.109 L755.89 346.22 M755.89 355.665 L785.566 355.665 L785.566 359.6 L755.89 359.6 L755.89 355.665 Z" fill="#000000" fill-rule="nonzero" fill-opacity="1" /><path clip-path="url(#clip080)" d="M823.575 337.262 L811.769 355.711 L823.575 355.711 L823.575 337.262 M822.348 333.188 L828.228 333.188 L828.228 355.711 L833.158 355.711 L833.158 359.6 L828.228 359.6 L828.228 367.748 L823.575 367.748 L823.575 359.6 L807.973 359.6 L807.973 355.086 L822.348 333.188 Z" fill="#000000" fill-rule="nonzero" fill-opacity="1" /></svg>
