<?xml version="1.0" encoding="utf-8"?>
<svg xmlns="http://www.w3.org/2000/svg" xmlns:xlink="http://www.w3.org/1999/xlink" width="900" height="650" viewBox="0 0 3600 2600">
<defs>
  <clipPath id="clip470">
    <rect x="0" y="0" width="3600" height="2600"/>
  </clipPath>
</defs>
<path clip-path="url(#clip470)" d="M0 2600 L3600 2600 L3600 0 L0 0  Z" fill="#ffffff" fill-rule="evenodd" fill-opacity="1"/>
<defs>
  <clipPath id="clip471">
    <rect x="720" y="0" width="2521" height="2521"/>
  </clipPath>
</defs>
<defs>
  <clipPath id="clip472">
    <rect x="221" y="119" width="3333" height="2288"/>
  </clipPath>
</defs>
<path clip-path="url(#clip470)" d="M221.081 2406.34 L3552.76 2406.34 L3552.76 119.152 L221.081 119.152  Z" fill="#ffffff" fill-rule="evenodd" fill-opacity="1"/>
<polyline clip-path="url(#clip472)" style="stroke:#222255; stroke-linecap:round; stroke-linejoin:round; stroke-width:2; stroke-opacity:0.5; fill:none" points="601.109,2406.34 601.109,119.152 "/>
<polyline clip-path="url(#clip472)" style="stroke:#222255; stroke-linecap:round; stroke-linejoin:round; stroke-width:2; stroke-opacity:0.5; fill:none" points="1315.45,2406.34 1315.45,119.152 "/>
<polyline clip-path="url(#clip472)" style="stroke:#222255; stroke-linecap:round; stroke-linejoin:round; stroke-width:2; stroke-opacity:0.5; fill:none" points="2029.79,2406.34 2029.79,119.152 "/>
<polyline clip-path="url(#clip472)" style="stroke:#222255; stroke-linecap:round; stroke-linejoin:round; stroke-width:2; stroke-opacity:0.5; fill:none" points="2744.12,2406.34 2744.12,119.152 "/>
<polyline clip-path="url(#clip472)" style="stroke:#222255; stroke-linecap:round; stroke-linejoin:round; stroke-width:2; stroke-opacity:0.5; fill:none" points="3458.46,2406.34 3458.46,119.152 "/>
<polyline clip-path="url(#clip472)" style="stroke:#222255; stroke-linecap:round; stroke-linejoin:round; stroke-width:2; stroke-opacity:0.3; fill:none" points="315.374,2406.34 315.374,119.152 "/>
<polyline clip-path="url(#clip472)" style="stroke:#222255; stroke-linecap:round; stroke-linejoin:round; stroke-width:2; stroke-opacity:0.3; fill:none" points="458.241,2406.34 458.241,119.152 "/>
<polyline clip-path="url(#clip472)" style="stroke:#222255; stroke-linecap:round; stroke-linejoin:round; stroke-width:2; stroke-opacity:0.3; fill:none" points="743.977,2406.34 743.977,119.152 "/>
<polyline clip-path="url(#clip472)" style="stroke:#222255; stroke-linecap:round; stroke-linejoin:round; stroke-width:2; stroke-opacity:0.3; fill:none" points="886.844,2406.34 886.844,119.152 "/>
<polyline clip-path="url(#clip472)" style="stroke:#222255; stroke-linecap:round; stroke-linejoin:round; stroke-width:2; stroke-opacity:0.3; fill:none" points="1029.71,2406.34 1029.71,119.152 "/>
<polyline clip-path="url(#clip472)" style="stroke:#222255; stroke-linecap:round; stroke-linejoin:round; stroke-width:2; stroke-opacity:0.3; fill:none" points="1172.58,2406.34 1172.58,119.152 "/>
<polyline clip-path="url(#clip472)" style="stroke:#222255; stroke-linecap:round; stroke-linejoin:round; stroke-width:2; stroke-opacity:0.3; fill:none" points="1458.32,2406.34 1458.32,119.152 "/>
<polyline clip-path="url(#clip472)" style="stroke:#222255; stroke-linecap:round; stroke-linejoin:round; stroke-width:2; stroke-opacity:0.3; fill:none" points="1601.18,2406.34 1601.18,119.152 "/>
<polyline clip-path="url(#clip472)" style="stroke:#222255; stroke-linecap:round; stroke-linejoin:round; stroke-width:2; stroke-opacity:0.3; fill:none" points="1744.05,2406.34 1744.05,119.152 "/>
<polyline clip-path="url(#clip472)" style="stroke:#222255; stroke-linecap:round; stroke-linejoin:round; stroke-width:2; stroke-opacity:0.3; fill:none" points="1886.92,2406.34 1886.92,119.152 "/>
<polyline clip-path="url(#clip472)" style="stroke:#222255; stroke-linecap:round; stroke-linejoin:round; stroke-width:2; stroke-opacity:0.3; fill:none" points="2172.65,2406.34 2172.65,119.152 "/>
<polyline clip-path="url(#clip472)" style="stroke:#222255; stroke-linecap:round; stroke-linejoin:round; stroke-width:2; stroke-opacity:0.3; fill:none" points="2315.52,2406.34 2315.52,119.152 "/>
<polyline clip-path="url(#clip472)" style="stroke:#222255; stroke-linecap:round; stroke-linejoin:round; stroke-width:2; stroke-opacity:0.3; fill:none" points="2458.39,2406.34 2458.39,119.152 "/>
<polyline clip-path="url(#clip472)" style="stroke:#222255; stroke-linecap:round; stroke-linejoin:round; stroke-width:2; stroke-opacity:0.3; fill:none" points="2601.26,2406.34 2601.26,119.152 "/>
<polyline clip-path="url(#clip472)" style="stroke:#222255; stroke-linecap:round; stroke-linejoin:round; stroke-width:2; stroke-opacity:0.3; fill:none" points="2886.99,2406.34 2886.99,119.152 "/>
<polyline clip-path="url(#clip472)" style="stroke:#222255; stroke-linecap:round; stroke-linejoin:round; stroke-width:2; stroke-opacity:0.3; fill:none" points="3029.86,2406.34 3029.86,119.152 "/>
<polyline clip-path="url(#clip472)" style="stroke:#222255; stroke-linecap:round; stroke-linejoin:round; stroke-width:2; stroke-opacity:0.3; fill:none" points="3172.73,2406.34 3172.73,119.152 "/>
<polyline clip-path="url(#clip472)" style="stroke:#222255; stroke-linecap:round; stroke-linejoin:round; stroke-width:2; stroke-opacity:0.3; fill:none" points="3315.6,2406.34 3315.6,119.152 "/>
<polyline clip-path="url(#clip470)" style="stroke:#222255; stroke-linecap:round; stroke-linejoin:round; stroke-width:4; stroke-opacity:0; fill:none" points="601.109,2406.34 601.109,2387.44 "/>
<polyline clip-path="url(#clip470)" style="stroke:#222255; stroke-linecap:round; stroke-linejoin:round; stroke-width:4; stroke-opacity:0; fill:none" points="1315.45,2406.34 1315.45,2387.44 "/>
<polyline clip-path="url(#clip470)" style="stroke:#222255; stroke-linecap:round; stroke-linejoin:round; stroke-width:4; stroke-opacity:0; fill:none" points="2029.79,2406.34 2029.79,2387.44 "/>
<polyline clip-path="url(#clip470)" style="stroke:#222255; stroke-linecap:round; stroke-linejoin:round; stroke-width:4; stroke-opacity:0; fill:none" points="2744.12,2406.34 2744.12,2387.44 "/>
<polyline clip-path="url(#clip470)" style="stroke:#222255; stroke-linecap:round; stroke-linejoin:round; stroke-width:4; stroke-opacity:0; fill:none" points="3458.46,2406.34 3458.46,2387.44 "/>
<polyline clip-path="url(#clip470)" style="stroke:#222255; stroke-linecap:round; stroke-linejoin:round; stroke-width:4; stroke-opacity:0; fill:none" points="315.374,2406.34 315.374,2396.89 "/>
<polyline clip-path="url(#clip470)" style="stroke:#222255; stroke-linecap:round; stroke-linejoin:round; stroke-width:4; stroke-opacity:0; fill:none" points="458.241,2406.34 458.241,2396.89 "/>
<polyline clip-path="url(#clip470)" style="stroke:#222255; stroke-linecap:round; stroke-linejoin:round; stroke-width:4; stroke-opacity:0; fill:none" points="743.977,2406.34 743.977,2396.89 "/>
<polyline clip-path="url(#clip470)" style="stroke:#222255; stroke-linecap:round; stroke-linejoin:round; stroke-width:4; stroke-opacity:0; fill:none" points="886.844,2406.34 886.844,2396.89 "/>
<polyline clip-path="url(#clip470)" style="stroke:#222255; stroke-linecap:round; stroke-linejoin:round; stroke-width:4; stroke-opacity:0; fill:none" points="1029.71,2406.34 1029.71,2396.89 "/>
<polyline clip-path="url(#clip470)" style="stroke:#222255; stroke-linecap:round; stroke-linejoin:round; stroke-width:4; stroke-opacity:0; fill:none" points="1172.58,2406.34 1172.58,2396.89 "/>
<polyline clip-path="url(#clip470)" style="stroke:#222255; stroke-linecap:round; stroke-linejoin:round; stroke-width:4; stroke-opacity:0; fill:none" points="1458.32,2406.34 1458.32,2396.89 "/>
<polyline clip-path="url(#clip470)" style="stroke:#222255; stroke-linecap:round; stroke-linejoin:round; stroke-width:4; stroke-opacity:0; fill:none" points="1601.18,2406.34 1601.18,2396.89 "/>
<polyline clip-path="url(#clip470)" style="stroke:#222255; stroke-linecap:round; stroke-linejoin:round; stroke-width:4; stroke-opacity:0; fill:none" points="1744.05,2406.34 1744.05,2396.89 "/>
<polyline clip-path="url(#clip470)" style="stroke:#222255; stroke-linecap:round; stroke-linejoin:round; stroke-width:4; stroke-opacity:0; fill:none" points="1886.92,2406.34 1886.92,2396.89 "/>
<polyline clip-path="url(#clip470)" style="stroke:#222255; stroke-linecap:round; stroke-linejoin:round; stroke-width:4; stroke-opacity:0; fill:none" points="2172.65,2406.34 2172.65,2396.89 "/>
<polyline clip-path="url(#clip470)" style="stroke:#222255; stroke-linecap:round; stroke-linejoin:round; stroke-width:4; stroke-opacity:0; fill:none" points="2315.52,2406.34 2315.52,2396.89 "/>
<polyline clip-path="url(#clip470)" style="stroke:#222255; stroke-linecap:round; stroke-linejoin:round; stroke-width:4; stroke-opacity:0; fill:none" points="2458.39,2406.34 2458.39,2396.89 "/>
<polyline clip-path="url(#clip470)" style="stroke:#222255; stroke-linecap:round; stroke-linejoin:round; stroke-width:4; stroke-opacity:0; fill:none" points="2601.26,2406.34 2601.26,2396.89 "/>
<polyline clip-path="url(#clip470)" style="stroke:#222255; stroke-linecap:round; stroke-linejoin:round; stroke-width:4; stroke-opacity:0; fill:none" points="2886.99,2406.34 2886.99,2396.89 "/>
<polyline clip-path="url(#clip470)" style="stroke:#222255; stroke-linecap:round; stroke-linejoin:round; stroke-width:4; stroke-opacity:0; fill:none" points="3029.86,2406.34 3029.86,2396.89 "/>
<polyline clip-path="url(#clip470)" style="stroke:#222255; stroke-linecap:round; stroke-linejoin:round; stroke-width:4; stroke-opacity:0; fill:none" points="3172.73,2406.34 3172.73,2396.89 "/>
<polyline clip-path="url(#clip470)" style="stroke:#222255; stroke-linecap:round; stroke-linejoin:round; stroke-width:4; stroke-opacity:0; fill:none" points="3315.6,2406.34 3315.6,2396.89 "/>
<path clip-path="url(#clip470)" d="M591.387 2443.78 L609.743 2443.78 L609.743 2447.72 L595.669 2447.72 L595.669 2456.19 Q596.688 2455.84 597.706 2455.68 Q598.725 2455.49 599.743 2455.49 Q605.53 2455.49 608.91 2458.66 Q612.29 2461.84 612.29 2467.25 Q612.29 2472.83 608.817 2475.93 Q605.345 2479.01 599.026 2479.01 Q596.85 2479.01 594.581 2478.64 Q592.336 2478.27 589.929 2477.53 L589.929 2472.83 Q592.012 2473.96 594.234 2474.52 Q596.456 2475.08 598.933 2475.08 Q602.938 2475.08 605.276 2472.97 Q607.614 2470.86 607.614 2467.25 Q607.614 2463.64 605.276 2461.53 Q602.938 2459.43 598.933 2459.43 Q597.058 2459.43 595.183 2459.84 Q593.331 2460.26 591.387 2461.14 L591.387 2443.78 Z" fill="#000000" fill-rule="nonzero" fill-opacity="1" /><path clip-path="url(#clip470)" d="M1290.14 2474.4 L1297.77 2474.4 L1297.77 2448.04 L1289.46 2449.71 L1289.46 2445.45 L1297.73 2443.78 L1302.4 2443.78 L1302.4 2474.4 L1310.04 2474.4 L1310.04 2478.34 L1290.14 2478.34 L1290.14 2474.4 Z" fill="#000000" fill-rule="nonzero" fill-opacity="1" /><path clip-path="url(#clip470)" d="M1329.49 2446.86 Q1325.88 2446.86 1324.05 2450.42 Q1322.24 2453.96 1322.24 2461.09 Q1322.24 2468.2 1324.05 2471.77 Q1325.88 2475.31 1329.49 2475.31 Q1333.12 2475.31 1334.93 2471.77 Q1336.76 2468.2 1336.76 2461.09 Q1336.76 2453.96 1334.93 2450.42 Q1333.12 2446.86 1329.49 2446.86 M1329.49 2443.15 Q1335.3 2443.15 1338.35 2447.76 Q1341.43 2452.34 1341.43 2461.09 Q1341.43 2469.82 1338.35 2474.43 Q1335.3 2479.01 1329.49 2479.01 Q1323.68 2479.01 1320.6 2474.43 Q1317.54 2469.82 1317.54 2461.09 Q1317.54 2452.34 1320.6 2447.76 Q1323.68 2443.15 1329.49 2443.15 Z" fill="#000000" fill-rule="nonzero" fill-opacity="1" /><path clip-path="url(#clip470)" d="M2004.97 2474.4 L2012.61 2474.4 L2012.61 2448.04 L2004.3 2449.71 L2004.3 2445.45 L2012.56 2443.78 L2017.24 2443.78 L2017.24 2474.4 L2024.88 2474.4 L2024.88 2478.34 L2004.97 2478.34 L2004.97 2474.4 Z" fill="#000000" fill-rule="nonzero" fill-opacity="1" /><path clip-path="url(#clip470)" d="M2034.37 2443.78 L2052.73 2443.78 L2052.73 2447.72 L2038.65 2447.72 L2038.65 2456.19 Q2039.67 2455.84 2040.69 2455.68 Q2041.71 2455.49 2042.73 2455.49 Q2048.51 2455.49 2051.89 2458.66 Q2055.27 2461.84 2055.27 2467.25 Q2055.27 2472.83 2051.8 2475.93 Q2048.33 2479.01 2042.01 2479.01 Q2039.83 2479.01 2037.56 2478.64 Q2035.32 2478.27 2032.91 2477.53 L2032.91 2472.83 Q2034.99 2473.96 2037.22 2474.52 Q2039.44 2475.08 2041.92 2475.08 Q2045.92 2475.08 2048.26 2472.97 Q2050.6 2470.86 2050.6 2467.25 Q2050.6 2463.64 2048.26 2461.53 Q2045.92 2459.43 2041.92 2459.43 Q2040.04 2459.43 2038.17 2459.84 Q2036.31 2460.26 2034.37 2461.14 L2034.37 2443.78 Z" fill="#000000" fill-rule="nonzero" fill-opacity="1" /><path clip-path="url(#clip470)" d="M2722.9 2474.4 L2739.22 2474.4 L2739.22 2478.34 L2717.27 2478.34 L2717.27 2474.4 Q2719.93 2471.65 2724.52 2467.02 Q2729.12 2462.37 2730.31 2461.03 Q2732.55 2458.5 2733.43 2456.77 Q2734.33 2455.01 2734.33 2453.32 Q2734.33 2450.56 2732.39 2448.83 Q2730.47 2447.09 2727.37 2447.09 Q2725.17 2447.09 2722.71 2447.85 Q2720.28 2448.62 2717.5 2450.17 L2717.5 2445.45 Q2720.33 2444.31 2722.78 2443.73 Q2725.24 2443.15 2727.27 2443.15 Q2732.64 2443.15 2735.84 2445.84 Q2739.03 2448.53 2739.03 2453.02 Q2739.03 2455.15 2738.22 2457.07 Q2737.43 2458.96 2735.33 2461.56 Q2734.75 2462.23 2731.65 2465.45 Q2728.55 2468.64 2722.9 2474.4 Z" fill="#000000" fill-rule="nonzero" fill-opacity="1" /><path clip-path="url(#clip470)" d="M2759.03 2446.86 Q2755.42 2446.86 2753.59 2450.42 Q2751.79 2453.96 2751.79 2461.09 Q2751.79 2468.2 2753.59 2471.77 Q2755.42 2475.31 2759.03 2475.31 Q2762.67 2475.31 2764.47 2471.77 Q2766.3 2468.2 2766.3 2461.09 Q2766.3 2453.96 2764.47 2450.42 Q2762.67 2446.86 2759.03 2446.86 M2759.03 2443.15 Q2764.84 2443.15 2767.9 2447.76 Q2770.98 2452.34 2770.98 2461.09 Q2770.98 2469.82 2767.9 2474.43 Q2764.84 2479.01 2759.03 2479.01 Q2753.22 2479.01 2750.14 2474.43 Q2747.09 2469.82 2747.09 2461.09 Q2747.09 2452.34 2750.14 2447.76 Q2753.22 2443.15 2759.03 2443.15 Z" fill="#000000" fill-rule="nonzero" fill-opacity="1" /><path clip-path="url(#clip470)" d="M3437.73 2474.4 L3454.05 2474.4 L3454.05 2478.34 L3432.11 2478.34 L3432.11 2474.4 Q3434.77 2471.65 3439.35 2467.02 Q3443.96 2462.37 3445.14 2461.03 Q3447.39 2458.5 3448.27 2456.77 Q3449.17 2455.01 3449.17 2453.32 Q3449.17 2450.56 3447.22 2448.83 Q3445.3 2447.09 3442.2 2447.09 Q3440 2447.09 3437.55 2447.85 Q3435.12 2448.62 3432.34 2450.17 L3432.34 2445.45 Q3435.16 2444.31 3437.62 2443.73 Q3440.07 2443.15 3442.11 2443.15 Q3447.48 2443.15 3450.67 2445.84 Q3453.87 2448.53 3453.87 2453.02 Q3453.87 2455.15 3453.06 2457.07 Q3452.27 2458.96 3450.16 2461.56 Q3449.59 2462.23 3446.48 2465.45 Q3443.38 2468.64 3437.73 2474.4 Z" fill="#000000" fill-rule="nonzero" fill-opacity="1" /><path clip-path="url(#clip470)" d="M3463.91 2443.78 L3482.27 2443.78 L3482.27 2447.72 L3468.2 2447.72 L3468.2 2456.19 Q3469.22 2455.84 3470.23 2455.68 Q3471.25 2455.49 3472.27 2455.49 Q3478.06 2455.49 3481.44 2458.66 Q3484.82 2461.84 3484.82 2467.25 Q3484.82 2472.83 3481.35 2475.93 Q3477.87 2479.01 3471.55 2479.01 Q3469.38 2479.01 3467.11 2478.64 Q3464.86 2478.27 3462.46 2477.53 L3462.46 2472.83 Q3464.54 2473.96 3466.76 2474.52 Q3468.98 2475.08 3471.46 2475.08 Q3475.47 2475.08 3477.8 2472.97 Q3480.14 2470.86 3480.14 2467.25 Q3480.14 2463.64 3477.8 2461.53 Q3475.47 2459.43 3471.46 2459.43 Q3469.59 2459.43 3467.71 2459.84 Q3465.86 2460.26 3463.91 2461.14 L3463.91 2443.78 Z" fill="#000000" fill-rule="nonzero" fill-opacity="1" /><path clip-path="url(#clip470)" d="M1868.94 2521.68 L1877.59 2521.68 L1898.66 2561.44 L1898.66 2521.68 L1904.9 2521.68 L1904.9 2569.2 L1896.24 2569.2 L1875.17 2529.45 L1875.17 2569.2 L1868.94 2569.2 L1868.94 2521.68 Z" fill="#000000" fill-rule="nonzero" fill-opacity="1" /><polyline clip-path="url(#clip472)" style="stroke:#222255; stroke-linecap:round; stroke-linejoin:round; stroke-width:2; stroke-opacity:0.5; fill:none" points="221.081,2397.78 3552.76,2397.78 "/>
<polyline clip-path="url(#clip472)" style="stroke:#222255; stroke-linecap:round; stroke-linejoin:round; stroke-width:2; stroke-opacity:0.5; fill:none" points="221.081,1875.9 3552.76,1875.9 "/>
<polyline clip-path="url(#clip472)" style="stroke:#222255; stroke-linecap:round; stroke-linejoin:round; stroke-width:2; stroke-opacity:0.5; fill:none" points="221.081,1354.02 3552.76,1354.02 "/>
<polyline clip-path="url(#clip472)" style="stroke:#222255; stroke-linecap:round; stroke-linejoin:round; stroke-width:2; stroke-opacity:0.5; fill:none" points="221.081,832.131 3552.76,832.131 "/>
<polyline clip-path="url(#clip472)" style="stroke:#222255; stroke-linecap:round; stroke-linejoin:round; stroke-width:2; stroke-opacity:0.5; fill:none" points="221.081,310.247 3552.76,310.247 "/>
<polyline clip-path="url(#clip472)" style="stroke:#222255; stroke-linecap:round; stroke-linejoin:round; stroke-width:2; stroke-opacity:0.3; fill:none" points="221.081,2293.41 3552.76,2293.41 "/>
<polyline clip-path="url(#clip472)" style="stroke:#222255; stroke-linecap:round; stroke-linejoin:round; stroke-width:2; stroke-opacity:0.3; fill:none" points="221.081,2189.03 3552.76,2189.03 "/>
<polyline clip-path="url(#clip472)" style="stroke:#222255; stroke-linecap:round; stroke-linejoin:round; stroke-width:2; stroke-opacity:0.3; fill:none" points="221.081,2084.65 3552.76,2084.65 "/>
<polyline clip-path="url(#clip472)" style="stroke:#222255; stroke-linecap:round; stroke-linejoin:round; stroke-width:2; stroke-opacity:0.3; fill:none" points="221.081,1980.28 3552.76,1980.28 "/>
<polyline clip-path="url(#clip472)" style="stroke:#222255; stroke-linecap:round; stroke-linejoin:round; stroke-width:2; stroke-opacity:0.3; fill:none" points="221.081,1771.52 3552.76,1771.52 "/>
<polyline clip-path="url(#clip472)" style="stroke:#222255; stroke-linecap:round; stroke-linejoin:round; stroke-width:2; stroke-opacity:0.3; fill:none" points="221.081,1667.15 3552.76,1667.15 "/>
<polyline clip-path="url(#clip472)" style="stroke:#222255; stroke-linecap:round; stroke-linejoin:round; stroke-width:2; stroke-opacity:0.3; fill:none" points="221.081,1562.77 3552.76,1562.77 "/>
<polyline clip-path="url(#clip472)" style="stroke:#222255; stroke-linecap:round; stroke-linejoin:round; stroke-width:2; stroke-opacity:0.3; fill:none" points="221.081,1458.39 3552.76,1458.39 "/>
<polyline clip-path="url(#clip472)" style="stroke:#222255; stroke-linecap:round; stroke-linejoin:round; stroke-width:2; stroke-opacity:0.3; fill:none" points="221.081,1249.64 3552.76,1249.64 "/>
<polyline clip-path="url(#clip472)" style="stroke:#222255; stroke-linecap:round; stroke-linejoin:round; stroke-width:2; stroke-opacity:0.3; fill:none" points="221.081,1145.26 3552.76,1145.26 "/>
<polyline clip-path="url(#clip472)" style="stroke:#222255; stroke-linecap:round; stroke-linejoin:round; stroke-width:2; stroke-opacity:0.3; fill:none" points="221.081,1040.88 3552.76,1040.88 "/>
<polyline clip-path="url(#clip472)" style="stroke:#222255; stroke-linecap:round; stroke-linejoin:round; stroke-width:2; stroke-opacity:0.3; fill:none" points="221.081,936.508 3552.76,936.508 "/>
<polyline clip-path="url(#clip472)" style="stroke:#222255; stroke-linecap:round; stroke-linejoin:round; stroke-width:2; stroke-opacity:0.3; fill:none" points="221.081,727.754 3552.76,727.754 "/>
<polyline clip-path="url(#clip472)" style="stroke:#222255; stroke-linecap:round; stroke-linejoin:round; stroke-width:2; stroke-opacity:0.3; fill:none" points="221.081,623.378 3552.76,623.378 "/>
<polyline clip-path="url(#clip472)" style="stroke:#222255; stroke-linecap:round; stroke-linejoin:round; stroke-width:2; stroke-opacity:0.3; fill:none" points="221.081,519.001 3552.76,519.001 "/>
<polyline clip-path="url(#clip472)" style="stroke:#222255; stroke-linecap:round; stroke-linejoin:round; stroke-width:2; stroke-opacity:0.3; fill:none" points="221.081,414.624 3552.76,414.624 "/>
<polyline clip-path="url(#clip472)" style="stroke:#222255; stroke-linecap:round; stroke-linejoin:round; stroke-width:2; stroke-opacity:0.3; fill:none" points="221.081,205.87 3552.76,205.87 "/>
<polyline clip-path="url(#clip470)" style="stroke:#222255; stroke-linecap:round; stroke-linejoin:round; stroke-width:4; stroke-opacity:0; fill:none" points="221.081,2397.78 239.979,2397.78 "/>
<polyline clip-path="url(#clip470)" style="stroke:#222255; stroke-linecap:round; stroke-linejoin:round; stroke-width:4; stroke-opacity:0; fill:none" points="221.081,1875.9 239.979,1875.9 "/>
<polyline clip-path="url(#clip470)" style="stroke:#222255; stroke-linecap:round; stroke-linejoin:round; stroke-width:4; stroke-opacity:0; fill:none" points="221.081,1354.02 239.979,1354.02 "/>
<polyline clip-path="url(#clip470)" style="stroke:#222255; stroke-linecap:round; stroke-linejoin:round; stroke-width:4; stroke-opacity:0; fill:none" points="221.081,832.131 239.979,832.131 "/>
<polyline clip-path="url(#clip470)" style="stroke:#222255; stroke-linecap:round; stroke-linejoin:round; stroke-width:4; stroke-opacity:0; fill:none" points="221.081,310.247 239.979,310.247 "/>
<polyline clip-path="url(#clip470)" style="stroke:#222255; stroke-linecap:round; stroke-linejoin:round; stroke-width:4; stroke-opacity:0; fill:none" points="221.081,2293.41 230.53,2293.41 "/>
<polyline clip-path="url(#clip470)" style="stroke:#222255; stroke-linecap:round; stroke-linejoin:round; stroke-width:4; stroke-opacity:0; fill:none" points="221.081,2189.03 230.53,2189.03 "/>
<polyline clip-path="url(#clip470)" style="stroke:#222255; stroke-linecap:round; stroke-linejoin:round; stroke-width:4; stroke-opacity:0; fill:none" points="221.081,2084.65 230.53,2084.65 "/>
<polyline clip-path="url(#clip470)" style="stroke:#222255; stroke-linecap:round; stroke-linejoin:round; stroke-width:4; stroke-opacity:0; fill:none" points="221.081,1980.28 230.53,1980.28 "/>
<polyline clip-path="url(#clip470)" style="stroke:#222255; stroke-linecap:round; stroke-linejoin:round; stroke-width:4; stroke-opacity:0; fill:none" points="221.081,1771.52 230.53,1771.52 "/>
<polyline clip-path="url(#clip470)" style="stroke:#222255; stroke-linecap:round; stroke-linejoin:round; stroke-width:4; stroke-opacity:0; fill:none" points="221.081,1667.15 230.53,1667.15 "/>
<polyline clip-path="url(#clip470)" style="stroke:#222255; stroke-linecap:round; stroke-linejoin:round; stroke-width:4; stroke-opacity:0; fill:none" points="221.081,1562.77 230.53,1562.77 "/>
<polyline clip-path="url(#clip470)" style="stroke:#222255; stroke-linecap:round; stroke-linejoin:round; stroke-width:4; stroke-opacity:0; fill:none" points="221.081,1458.39 230.53,1458.39 "/>
<polyline clip-path="url(#clip470)" style="stroke:#222255; stroke-linecap:round; stroke-linejoin:round; stroke-width:4; stroke-opacity:0; fill:none" points="221.081,1249.64 230.53,1249.64 "/>
<polyline clip-path="url(#clip470)" style="stroke:#222255; stroke-linecap:round; stroke-linejoin:round; stroke-width:4; stroke-opacity:0; fill:none" points="221.081,1145.26 230.53,1145.26 "/>
<polyline clip-path="url(#clip470)" style="stroke:#222255; stroke-linecap:round; stroke-linejoin:round; stroke-width:4; stroke-opacity:0; fill:none" points="221.081,1040.88 230.53,1040.88 "/>
<polyline clip-path="url(#clip470)" style="stroke:#222255; stroke-linecap:round; stroke-linejoin:round; stroke-width:4; stroke-opacity:0; fill:none" points="221.081,936.508 230.53,936.508 "/>
<polyline clip-path="url(#clip470)" style="stroke:#222255; stroke-linecap:round; stroke-linejoin:round; stroke-width:4; stroke-opacity:0; fill:none" points="221.081,727.754 230.53,727.754 "/>
<polyline clip-path="url(#clip470)" style="stroke:#222255; stroke-linecap:round; stroke-linejoin:round; stroke-width:4; stroke-opacity:0; fill:none" points="221.081,623.378 230.53,623.378 "/>
<polyline clip-path="url(#clip470)" style="stroke:#222255; stroke-linecap:round; stroke-linejoin:round; stroke-width:4; stroke-opacity:0; fill:none" points="221.081,519.001 230.53,519.001 "/>
<polyline clip-path="url(#clip470)" style="stroke:#222255; stroke-linecap:round; stroke-linejoin:round; stroke-width:4; stroke-opacity:0; fill:none" points="221.081,414.624 230.53,414.624 "/>
<polyline clip-path="url(#clip470)" style="stroke:#222255; stroke-linecap:round; stroke-linejoin:round; stroke-width:4; stroke-opacity:0; fill:none" points="221.081,205.87 230.53,205.87 "/>
<path clip-path="url(#clip470)" d="M155.137 2383.58 Q151.526 2383.58 149.697 2387.15 Q147.891 2390.69 147.891 2397.82 Q147.891 2404.92 149.697 2408.49 Q151.526 2412.03 155.137 2412.03 Q158.771 2412.03 160.576 2408.49 Q162.405 2404.92 162.405 2397.82 Q162.405 2390.69 160.576 2387.15 Q158.771 2383.58 155.137 2383.58 M155.137 2379.88 Q160.947 2379.88 164.002 2384.48 Q167.081 2389.07 167.081 2397.82 Q167.081 2406.54 164.002 2411.15 Q160.947 2415.73 155.137 2415.73 Q149.326 2415.73 146.248 2411.15 Q143.192 2406.54 143.192 2397.82 Q143.192 2389.07 146.248 2384.48 Q149.326 2379.88 155.137 2379.88 Z" fill="#000000" fill-rule="nonzero" fill-opacity="1" /><path clip-path="url(#clip470)" d="M119.003 1889.24 L135.322 1889.24 L135.322 1893.18 L113.378 1893.18 L113.378 1889.24 Q116.04 1886.49 120.623 1881.86 Q125.229 1877.21 126.41 1875.86 Q128.655 1873.34 129.535 1871.61 Q130.438 1869.85 130.438 1868.16 Q130.438 1865.4 128.493 1863.67 Q126.572 1861.93 123.47 1861.93 Q121.271 1861.93 118.817 1862.69 Q116.387 1863.46 113.609 1865.01 L113.609 1860.29 Q116.433 1859.15 118.887 1858.57 Q121.34 1857.99 123.378 1857.99 Q128.748 1857.99 131.942 1860.68 Q135.137 1863.36 135.137 1867.86 Q135.137 1869.98 134.327 1871.91 Q133.539 1873.8 131.433 1876.4 Q130.854 1877.07 127.752 1880.29 Q124.651 1883.48 119.003 1889.24 Z" fill="#000000" fill-rule="nonzero" fill-opacity="1" /><path clip-path="url(#clip470)" d="M155.137 1861.7 Q151.526 1861.7 149.697 1865.26 Q147.891 1868.8 147.891 1875.93 Q147.891 1883.04 149.697 1886.61 Q151.526 1890.15 155.137 1890.15 Q158.771 1890.15 160.576 1886.61 Q162.405 1883.04 162.405 1875.93 Q162.405 1868.8 160.576 1865.26 Q158.771 1861.7 155.137 1861.7 M155.137 1857.99 Q160.947 1857.99 164.002 1862.6 Q167.081 1867.18 167.081 1875.93 Q167.081 1884.66 164.002 1889.27 Q160.947 1893.85 155.137 1893.85 Q149.326 1893.85 146.248 1889.27 Q143.192 1884.66 143.192 1875.93 Q143.192 1867.18 146.248 1862.6 Q149.326 1857.99 155.137 1857.99 Z" fill="#000000" fill-rule="nonzero" fill-opacity="1" /><path clip-path="url(#clip470)" d="M127.822 1340.81 L116.016 1359.26 L127.822 1359.26 L127.822 1340.81 M126.595 1336.74 L132.475 1336.74 L132.475 1359.26 L137.405 1359.26 L137.405 1363.15 L132.475 1363.15 L132.475 1371.3 L127.822 1371.3 L127.822 1363.15 L112.22 1363.15 L112.22 1358.63 L126.595 1336.74 Z" fill="#000000" fill-rule="nonzero" fill-opacity="1" /><path clip-path="url(#clip470)" d="M155.137 1339.81 Q151.526 1339.81 149.697 1343.38 Q147.891 1346.92 147.891 1354.05 Q147.891 1361.16 149.697 1364.72 Q151.526 1368.26 155.137 1368.26 Q158.771 1368.26 160.576 1364.72 Q162.405 1361.16 162.405 1354.05 Q162.405 1346.92 160.576 1343.38 Q158.771 1339.81 155.137 1339.81 M155.137 1336.11 Q160.947 1336.11 164.002 1340.72 Q167.081 1345.3 167.081 1354.05 Q167.081 1362.78 164.002 1367.38 Q160.947 1371.97 155.137 1371.97 Q149.326 1371.97 146.248 1367.38 Q143.192 1362.78 143.192 1354.05 Q143.192 1345.3 146.248 1340.72 Q149.326 1336.11 155.137 1336.11 Z" fill="#000000" fill-rule="nonzero" fill-opacity="1" /><path clip-path="url(#clip470)" d="M125.553 830.268 Q122.405 830.268 120.553 832.421 Q118.725 834.573 118.725 838.323 Q118.725 842.05 120.553 844.226 Q122.405 846.379 125.553 846.379 Q128.702 846.379 130.53 844.226 Q132.382 842.05 132.382 838.323 Q132.382 834.573 130.53 832.421 Q128.702 830.268 125.553 830.268 M134.836 815.615 L134.836 819.874 Q133.077 819.041 131.271 818.601 Q129.489 818.161 127.729 818.161 Q123.1 818.161 120.646 821.286 Q118.215 824.411 117.868 830.731 Q119.234 828.717 121.294 827.652 Q123.354 826.564 125.831 826.564 Q131.04 826.564 134.049 829.735 Q137.081 832.883 137.081 838.323 Q137.081 843.647 133.933 846.865 Q130.785 850.082 125.553 850.082 Q119.558 850.082 116.387 845.499 Q113.216 840.893 113.216 832.166 Q113.216 823.971 117.104 819.11 Q120.993 814.226 127.544 814.226 Q129.303 814.226 131.086 814.573 Q132.891 814.921 134.836 815.615 Z" fill="#000000" fill-rule="nonzero" fill-opacity="1" /><path clip-path="url(#clip470)" d="M155.137 817.93 Q151.526 817.93 149.697 821.495 Q147.891 825.036 147.891 832.166 Q147.891 839.272 149.697 842.837 Q151.526 846.379 155.137 846.379 Q158.771 846.379 160.576 842.837 Q162.405 839.272 162.405 832.166 Q162.405 825.036 160.576 821.495 Q158.771 817.93 155.137 817.93 M155.137 814.226 Q160.947 814.226 164.002 818.833 Q167.081 823.416 167.081 832.166 Q167.081 840.893 164.002 845.499 Q160.947 850.082 155.137 850.082 Q149.326 850.082 146.248 845.499 Q143.192 840.893 143.192 832.166 Q143.192 823.416 146.248 818.833 Q149.326 814.226 155.137 814.226 Z" fill="#000000" fill-rule="nonzero" fill-opacity="1" /><path clip-path="url(#clip470)" d="M124.975 311.115 Q121.641 311.115 119.72 312.898 Q117.822 314.68 117.822 317.805 Q117.822 320.93 119.72 322.712 Q121.641 324.495 124.975 324.495 Q128.308 324.495 130.229 322.712 Q132.151 320.907 132.151 317.805 Q132.151 314.68 130.229 312.898 Q128.331 311.115 124.975 311.115 M120.299 309.124 Q117.29 308.384 115.6 306.324 Q113.933 304.263 113.933 301.3 Q113.933 297.157 116.873 294.75 Q119.836 292.342 124.975 292.342 Q130.137 292.342 133.077 294.75 Q136.016 297.157 136.016 301.3 Q136.016 304.263 134.327 306.324 Q132.66 308.384 129.674 309.124 Q133.053 309.912 134.928 312.203 Q136.827 314.495 136.827 317.805 Q136.827 322.828 133.748 325.513 Q130.692 328.198 124.975 328.198 Q119.257 328.198 116.178 325.513 Q113.123 322.828 113.123 317.805 Q113.123 314.495 115.021 312.203 Q116.919 309.912 120.299 309.124 M118.586 301.74 Q118.586 304.425 120.253 305.93 Q121.942 307.435 124.975 307.435 Q127.984 307.435 129.674 305.93 Q131.387 304.425 131.387 301.74 Q131.387 299.055 129.674 297.55 Q127.984 296.046 124.975 296.046 Q121.942 296.046 120.253 297.55 Q118.586 299.055 118.586 301.74 Z" fill="#000000" fill-rule="nonzero" fill-opacity="1" /><path clip-path="url(#clip470)" d="M155.137 296.046 Q151.526 296.046 149.697 299.611 Q147.891 303.152 147.891 310.282 Q147.891 317.388 149.697 320.953 Q151.526 324.495 155.137 324.495 Q158.771 324.495 160.576 320.953 Q162.405 317.388 162.405 310.282 Q162.405 303.152 160.576 299.611 Q158.771 296.046 155.137 296.046 M155.137 292.342 Q160.947 292.342 164.002 296.949 Q167.081 301.532 167.081 310.282 Q167.081 319.009 164.002 323.615 Q160.947 328.198 155.137 328.198 Q149.326 328.198 146.248 323.615 Q143.192 319.009 143.192 310.282 Q143.192 301.532 146.248 296.949 Q149.326 292.342 155.137 292.342 Z" fill="#000000" fill-rule="nonzero" fill-opacity="1" /><path clip-path="url(#clip470)" d="M21.1282 1244.04 Q23.0606 1244.04 26.4422 1244.78 Q29.8238 1245.49 31.4341 1246.07 Q35.7175 1247.68 39.3245 1250.9 Q41.3213 1252.67 42.7706 1254.6 Q44.1876 1256.5 44.8962 1257.92 Q45.5725 1259.33 45.9267 1261.01 Q46.3132 1262.68 46.3454 1263.46 Q46.4098 1264.23 46.4098 1265.32 L56.2326 1267.84 Q58.7769 1268.35 58.9379 1268.61 Q59.0667 1268.67 59.1311 1268.83 Q59.1956 1268.96 59.1956 1269.09 L59.1956 1269.22 Q59.1956 1269.58 59.0345 1269.77 Q58.8735 1269.96 58.6803 1269.99 L58.5192 1269.99 Q58.0684 1269.99 52.2713 1268.48 Q49.3084 1267.71 46.2488 1267.03 Q45.9267 1272.18 43.6401 1275.37 Q41.3535 1278.53 36.9091 1278.53 Q34.1716 1278.53 25.7659 1275.34 Q21.7401 1273.83 20.0654 1273.83 Q19.3247 1273.83 18.8738 1273.99 Q18.3907 1274.15 18.2297 1274.47 Q18.0365 1274.79 18.0043 1274.99 Q17.9721 1275.15 17.9721 1275.47 Q17.9721 1277.37 19.8722 1279.14 Q21.7723 1280.91 26.1523 1282.14 Q26.9575 1282.39 27.1507 1282.55 Q27.344 1282.72 27.344 1283.2 Q27.3118 1284 26.6676 1284 Q26.41 1284 25.4116 1283.71 Q24.381 1283.42 22.8673 1282.75 Q21.3215 1282.04 19.9366 1281.07 Q18.5196 1280.11 17.5212 1278.59 Q16.5228 1277.05 16.5228 1275.28 Q16.5228 1272.86 18.1009 1271.38 Q19.6468 1269.87 21.9334 1269.87 Q22.3843 1269.87 22.8996 1269.96 Q23.4148 1270.06 23.7047 1270.16 Q23.9946 1270.22 24.542 1270.41 Q25.0573 1270.57 25.154 1270.61 Q29.4051 1272.25 32.1748 1273.09 Q34.9123 1273.92 35.7175 1274.05 Q36.4904 1274.15 37.4244 1274.15 Q43.93 1274.15 44.7995 1266.64 L1.22501 1255.69 Q0.323242 1255.5 0.130007 1255.34 Q-0.095434 1255.18 -0.095434 1254.7 Q-0.095434 1253.92 0.613095 1253.92 Q0.838536 1253.92 1.61148 1254.12 L44.9284 1265 Q44.9284 1263.97 44.8962 1263.33 Q44.8639 1262.68 44.5741 1261.33 Q44.252 1259.95 43.6723 1258.79 Q43.0926 1257.59 41.9332 1255.92 Q40.7416 1254.25 39.0669 1252.6 Q36.9735 1250.54 33.4631 1248.71 Q29.9526 1246.87 27.0541 1246.87 Q23.8013 1246.87 21.4503 1249.22 Q21.1282 1249.58 20.935 1249.77 Q20.7418 1249.93 20.4197 1250.09 Q20.0976 1250.22 19.679 1250.22 Q18.584 1250.22 17.5534 1249.19 Q16.5228 1248.16 16.5228 1246.93 Q16.5228 1245.84 17.5856 1244.94 Q18.6484 1244.04 21.1282 1244.04 Z" fill="#000000" fill-rule="nonzero" fill-opacity="1" /><path clip-path="url(#clip470)" d="M244.518 34.2568 Q249.553 35.3331 252.366 38.7359 Q255.213 42.1387 255.213 47.1386 Q255.213 54.8122 249.935 59.0136 Q244.657 63.2149 234.935 63.2149 Q231.671 63.2149 228.199 62.5552 Q224.762 61.9302 221.081 60.6455 L221.081 53.8747 Q223.998 55.5761 227.47 56.4441 Q230.942 57.3122 234.727 57.3122 Q241.324 57.3122 244.761 54.708 Q248.234 52.1039 248.234 47.1386 Q248.234 42.5553 245.004 39.9859 Q241.81 37.3817 236.081 37.3817 L230.039 37.3817 L230.039 31.6179 L236.359 31.6179 Q241.532 31.6179 244.275 29.5693 Q247.018 27.486 247.018 23.5971 Q247.018 19.6041 244.171 17.486 Q241.359 15.3333 236.081 15.3333 Q233.199 15.3333 229.9 15.9582 Q226.602 16.5832 222.643 17.9027 L222.643 11.6527 Q226.637 10.5416 230.109 9.98606 Q233.616 9.43051 236.706 9.43051 Q244.692 9.43051 249.345 13.0763 Q253.997 16.6874 253.997 22.8679 Q253.997 27.1735 251.532 30.1596 Q249.067 33.1109 244.518 34.2568 Z" fill="#000000" fill-rule="nonzero" fill-opacity="1" /><path clip-path="url(#clip470)" d="M268.511 53.3886 L275.838 53.3886 L275.838 62.208 L268.511 62.208 L268.511 53.3886 Z" fill="#000000" fill-rule="nonzero" fill-opacity="1" /><path clip-path="url(#clip470)" d="M310.386 16.4791 L292.678 44.1525 L310.386 44.1525 L310.386 16.4791 M308.546 10.368 L317.365 10.368 L317.365 44.1525 L324.761 44.1525 L324.761 49.9858 L317.365 49.9858 L317.365 62.208 L310.386 62.208 L310.386 49.9858 L286.983 49.9858 L286.983 43.215 L308.546 10.368 Z" fill="#000000" fill-rule="nonzero" fill-opacity="1" /><path clip-path="url(#clip470)" d="M393.684 54.8122 L393.684 40.8887 L382.226 40.8887 L382.226 35.1248 L400.629 35.1248 L400.629 57.3816 Q396.566 60.2636 391.67 61.7566 Q386.775 63.2149 381.219 63.2149 Q369.066 63.2149 362.191 56.1316 Q355.351 49.0136 355.351 36.3401 Q355.351 23.6318 362.191 16.5485 Q369.066 9.43051 381.219 9.43051 Q386.288 9.43051 390.837 10.6805 Q395.42 11.9305 399.274 14.361 L399.274 21.8263 Q395.386 18.5277 391.011 16.861 Q386.636 15.1944 381.809 15.1944 Q372.295 15.1944 367.504 20.5068 Q362.747 25.8193 362.747 36.3401 Q362.747 46.8261 367.504 52.1386 Q372.295 57.4511 381.809 57.4511 Q385.525 57.4511 388.441 56.8261 Q391.358 56.1664 393.684 54.8122 Z" fill="#000000" fill-rule="nonzero" fill-opacity="1" /><path clip-path="url(#clip470)" d="M435.698 29.2915 Q434.621 28.6665 433.337 28.3887 Q432.087 28.0762 430.559 28.0762 Q425.142 28.0762 422.226 31.6179 Q419.344 35.1248 419.344 41.722 L419.344 62.208 L412.92 62.208 L412.92 23.3193 L419.344 23.3193 L419.344 29.361 Q421.358 25.8193 424.587 24.1179 Q427.816 22.3818 432.434 22.3818 Q433.094 22.3818 433.892 22.486 Q434.691 22.5554 435.663 22.729 L435.698 29.2915 Z" fill="#000000" fill-rule="nonzero" fill-opacity="1" /><path clip-path="url(#clip470)" d="M442.399 23.3193 L448.788 23.3193 L448.788 62.208 L442.399 62.208 L442.399 23.3193 M442.399 8.18051 L448.788 8.18051 L448.788 16.2707 L442.399 16.2707 L442.399 8.18051 Z" fill="#000000" fill-rule="nonzero" fill-opacity="1" /><path clip-path="url(#clip470)" d="M487.746 29.2221 L487.746 8.18051 L494.135 8.18051 L494.135 62.208 L487.746 62.208 L487.746 56.3747 Q485.732 59.8469 482.642 61.5483 Q479.587 63.2149 475.281 63.2149 Q468.232 63.2149 463.788 57.59 Q459.378 51.965 459.378 42.7984 Q459.378 33.6318 463.788 28.0068 Q468.232 22.3818 475.281 22.3818 Q479.587 22.3818 482.642 24.0832 Q485.732 25.7499 487.746 29.2221 M465.975 42.7984 Q465.975 49.847 468.857 53.8747 Q471.774 57.8677 476.843 57.8677 Q481.913 57.8677 484.83 53.8747 Q487.746 49.847 487.746 42.7984 Q487.746 35.7498 484.83 31.7568 Q481.913 27.729 476.843 27.729 Q471.774 27.729 468.857 31.7568 Q465.975 35.7498 465.975 42.7984 Z" fill="#000000" fill-rule="nonzero" fill-opacity="1" /><path clip-path="url(#clip470)" d="M545.246 8.24996 Q540.593 16.236 538.336 24.0485 Q536.079 31.8609 536.079 39.8817 Q536.079 47.9025 538.336 55.7844 Q540.628 63.6316 545.246 71.5829 L539.69 71.5829 Q534.482 63.4233 531.878 55.5414 Q529.308 47.6595 529.308 39.8817 Q529.308 32.1387 531.878 24.2915 Q534.447 16.4444 539.69 8.24996 L545.246 8.24996 Z" fill="#000000" fill-rule="nonzero" fill-opacity="1" /><path clip-path="url(#clip470)" d="M589.968 38.7359 L589.968 62.208 L583.579 62.208 L583.579 38.9442 Q583.579 33.4234 581.426 30.6804 Q579.273 27.9374 574.968 27.9374 Q569.794 27.9374 566.808 31.2359 Q563.822 34.5345 563.822 40.229 L563.822 62.208 L557.399 62.208 L557.399 23.3193 L563.822 23.3193 L563.822 29.361 Q566.114 25.854 569.204 24.1179 Q572.329 22.3818 576.392 22.3818 Q583.093 22.3818 586.53 26.5485 Q589.968 30.6804 589.968 38.7359 Z" fill="#000000" fill-rule="nonzero" fill-opacity="1" /><path clip-path="url(#clip470)" d="M626.148 29.9165 L670.662 29.9165 L670.662 35.7498 L626.148 35.7498 L626.148 29.9165 M626.148 44.0831 L670.662 44.0831 L670.662 49.9858 L626.148 49.9858 L626.148 44.0831 Z" fill="#000000" fill-rule="nonzero" fill-opacity="1" /><path clip-path="url(#clip470)" d="M709.62 56.3053 L721.078 56.3053 L721.078 16.7569 L708.613 19.2568 L708.613 12.868 L721.009 10.368 L728.023 10.368 L728.023 56.3053 L739.481 56.3053 L739.481 62.208 L709.62 62.208 L709.62 56.3053 Z" fill="#000000" fill-rule="nonzero" fill-opacity="1" /><path clip-path="url(#clip470)" d="M768.647 14.986 Q763.231 14.986 760.488 20.3332 Q757.779 25.6457 757.779 36.3401 Q757.779 46.9997 760.488 52.3469 Q763.231 57.6594 768.647 57.6594 Q774.099 57.6594 776.807 52.3469 Q779.55 46.9997 779.55 36.3401 Q779.55 25.6457 776.807 20.3332 Q774.099 14.986 768.647 14.986 M768.647 9.43051 Q777.363 9.43051 781.946 16.3402 Q786.564 23.2152 786.564 36.3401 Q786.564 49.4303 781.946 56.34 Q777.363 63.2149 768.647 63.2149 Q759.932 63.2149 755.314 56.34 Q750.731 49.4303 750.731 36.3401 Q750.731 23.2152 755.314 16.3402 Q759.932 9.43051 768.647 9.43051 Z" fill="#000000" fill-rule="nonzero" fill-opacity="1" /><path clip-path="url(#clip470)" d="M796.981 8.24996 L802.536 8.24996 Q807.744 16.4444 810.314 24.2915 Q812.918 32.1387 812.918 39.8817 Q812.918 47.6595 810.314 55.5414 Q807.744 63.4233 802.536 71.5829 L796.981 71.5829 Q801.599 63.6316 803.856 55.7844 Q806.147 47.9025 806.147 39.8817 Q806.147 31.8609 803.856 24.0485 Q801.599 16.236 796.981 8.24996 Z" fill="#000000" fill-rule="nonzero" fill-opacity="1" /><circle clip-path="url(#clip472)" cx="315.374" cy="2341.61" r="21.6" fill="#ee7733" fill-rule="evenodd" fill-opacity="1" stroke="#000000" stroke-opacity="1" stroke-width="0"/>
<circle clip-path="url(#clip472)" cx="458.241" cy="2322.52" r="21.6" fill="#ee7733" fill-rule="evenodd" fill-opacity="1" stroke="#000000" stroke-opacity="1" stroke-width="0"/>
<circle clip-path="url(#clip472)" cx="601.109" cy="2304.37" r="21.6" fill="#ee7733" fill-rule="evenodd" fill-opacity="1" stroke="#000000" stroke-opacity="1" stroke-width="0"/>
<circle clip-path="url(#clip472)" cx="743.977" cy="2284.68" r="21.6" fill="#ee7733" fill-rule="evenodd" fill-opacity="1" stroke="#000000" stroke-opacity="1" stroke-width="0"/>
<circle clip-path="url(#clip472)" cx="886.844" cy="2266.07" r="21.6" fill="#ee7733" fill-rule="evenodd" fill-opacity="1" stroke="#000000" stroke-opacity="1" stroke-width="0"/>
<circle clip-path="url(#clip472)" cx="1029.71" cy="2246.16" r="21.6" fill="#ee7733" fill-rule="evenodd" fill-opacity="1" stroke="#000000" stroke-opacity="1" stroke-width="0"/>
<circle clip-path="url(#clip472)" cx="1172.58" cy="2227.35" r="21.6" fill="#ee7733" fill-rule="evenodd" fill-opacity="1" stroke="#000000" stroke-opacity="1" stroke-width="0"/>
<circle clip-path="url(#clip472)" cx="1315.45" cy="2207.38" r="21.6" fill="#ee7733" fill-rule="evenodd" fill-opacity="1" stroke="#000000" stroke-opacity="1" stroke-width="0"/>
<circle clip-path="url(#clip472)" cx="1458.32" cy="2188.45" r="21.6" fill="#ee7733" fill-rule="evenodd" fill-opacity="1" stroke="#000000" stroke-opacity="1" stroke-width="0"/>
<circle clip-path="url(#clip472)" cx="1601.18" cy="2168.47" r="21.6" fill="#ee7733" fill-rule="evenodd" fill-opacity="1" stroke="#000000" stroke-opacity="1" stroke-width="0"/>
<circle clip-path="url(#clip472)" cx="1744.05" cy="2149.46" r="21.6" fill="#ee7733" fill-rule="evenodd" fill-opacity="1" stroke="#000000" stroke-opacity="1" stroke-width="0"/>
<circle clip-path="url(#clip472)" cx="1886.92" cy="2129.49" r="21.6" fill="#ee7733" fill-rule="evenodd" fill-opacity="1" stroke="#000000" stroke-opacity="1" stroke-width="0"/>
<circle clip-path="url(#clip472)" cx="2029.79" cy="2110.42" r="21.6" fill="#ee7733" fill-rule="evenodd" fill-opacity="1" stroke="#000000" stroke-opacity="1" stroke-width="0"/>
<circle clip-path="url(#clip472)" cx="2172.65" cy="2090.46" r="21.6" fill="#ee7733" fill-rule="evenodd" fill-opacity="1" stroke="#000000" stroke-opacity="1" stroke-width="0"/>
<circle clip-path="url(#clip472)" cx="2315.52" cy="2071.34" r="21.6" fill="#ee7733" fill-rule="evenodd" fill-opacity="1" stroke="#000000" stroke-opacity="1" stroke-width="0"/>
<circle clip-path="url(#clip472)" cx="2458.39" cy="2051.41" r="21.6" fill="#ee7733" fill-rule="evenodd" fill-opacity="1" stroke="#000000" stroke-opacity="1" stroke-width="0"/>
<circle clip-path="url(#clip472)" cx="2601.26" cy="2032.25" r="21.6" fill="#ee7733" fill-rule="evenodd" fill-opacity="1" stroke="#000000" stroke-opacity="1" stroke-width="0"/>
<circle clip-path="url(#clip472)" cx="2744.12" cy="2012.34" r="21.6" fill="#ee7733" fill-rule="evenodd" fill-opacity="1" stroke="#000000" stroke-opacity="1" stroke-width="0"/>
<circle clip-path="url(#clip472)" cx="2886.99" cy="1993.15" r="21.6" fill="#ee7733" fill-rule="evenodd" fill-opacity="1" stroke="#000000" stroke-opacity="1" stroke-width="0"/>
<circle clip-path="url(#clip472)" cx="3029.86" cy="1973.25" r="21.6" fill="#ee7733" fill-rule="evenodd" fill-opacity="1" stroke="#000000" stroke-opacity="1" stroke-width="0"/>
<circle clip-path="url(#clip472)" cx="3172.73" cy="1954.03" r="21.6" fill="#ee7733" fill-rule="evenodd" fill-opacity="1" stroke="#000000" stroke-opacity="1" stroke-width="0"/>
<circle clip-path="url(#clip472)" cx="3315.6" cy="1934.16" r="21.6" fill="#ee7733" fill-rule="evenodd" fill-opacity="1" stroke="#000000" stroke-opacity="1" stroke-width="0"/>
<circle clip-path="url(#clip472)" cx="3458.46" cy="1914.91" r="21.6" fill="#ee7733" fill-rule="evenodd" fill-opacity="1" stroke="#000000" stroke-opacity="1" stroke-width="0"/>
<circle clip-path="url(#clip472)" cx="315.374" cy="2272.44" r="21.6" fill="#0077bb" fill-rule="evenodd" fill-opacity="1" stroke="#000000" stroke-opacity="1" stroke-width="0"/>
<circle clip-path="url(#clip472)" cx="458.241" cy="2180.88" r="21.6" fill="#0077bb" fill-rule="evenodd" fill-opacity="1" stroke="#000000" stroke-opacity="1" stroke-width="0"/>
<circle clip-path="url(#clip472)" cx="601.109" cy="2063.19" r="21.6" fill="#0077bb" fill-rule="evenodd" fill-opacity="1" stroke="#000000" stroke-opacity="1" stroke-width="0"/>
<circle clip-path="url(#clip472)" cx="743.977" cy="1921.15" r="21.6" fill="#0077bb" fill-rule="evenodd" fill-opacity="1" stroke="#000000" stroke-opacity="1" stroke-width="0"/>
<circle clip-path="url(#clip472)" cx="886.844" cy="1749.72" r="21.6" fill="#0077bb" fill-rule="evenodd" fill-opacity="1" stroke="#000000" stroke-opacity="1" stroke-width="0"/>
<circle clip-path="url(#clip472)" cx="1029.71" cy="1557.87" r="21.6" fill="#0077bb" fill-rule="evenodd" fill-opacity="1" stroke="#000000" stroke-opacity="1" stroke-width="0"/>
<circle clip-path="url(#clip472)" cx="1172.58" cy="1332.45" r="21.6" fill="#0077bb" fill-rule="evenodd" fill-opacity="1" stroke="#000000" stroke-opacity="1" stroke-width="0"/>
<circle clip-path="url(#clip472)" cx="1315.45" cy="1090.69" r="21.6" fill="#0077bb" fill-rule="evenodd" fill-opacity="1" stroke="#000000" stroke-opacity="1" stroke-width="0"/>
<circle clip-path="url(#clip472)" cx="1458.32" cy="810.234" r="21.6" fill="#0077bb" fill-rule="evenodd" fill-opacity="1" stroke="#000000" stroke-opacity="1" stroke-width="0"/>
<circle clip-path="url(#clip472)" cx="1601.18" cy="518.929" r="21.6" fill="#0077bb" fill-rule="evenodd" fill-opacity="1" stroke="#000000" stroke-opacity="1" stroke-width="0"/>
<circle clip-path="url(#clip472)" cx="1744.05" cy="183.884" r="21.6" fill="#0077bb" fill-rule="evenodd" fill-opacity="1" stroke="#000000" stroke-opacity="1" stroke-width="0"/>
<path clip-path="url(#clip470)" d="M3056.06 350.912 L3441.7 350.912 L3441.7 195.392 L3056.06 195.392  Z" fill="#ffffff" fill-rule="evenodd" fill-opacity="0.9"/>
<polyline clip-path="url(#clip470)" style="stroke:#222255; stroke-linecap:round; stroke-linejoin:round; stroke-width:4; stroke-opacity:0.1; fill:none" points="3056.06,350.912 3441.7,350.912 3441.7,195.392 3056.06,195.392 3056.06,350.912 "/>
<circle clip-path="url(#clip470)" cx="3204.13" cy="247.232" r="23.04" fill="#ee7733" fill-rule="evenodd" fill-opacity="1" stroke="#000000" stroke-opacity="1" stroke-width="0"/>
<path clip-path="url(#clip470)" d="M3357.83 260.577 L3374.15 260.577 L3374.15 264.512 L3352.2 264.512 L3352.2 260.577 Q3354.87 257.822 3359.45 253.192 Q3364.06 248.54 3365.24 247.197 Q3367.48 244.674 3368.36 242.938 Q3369.26 241.179 3369.26 239.489 Q3369.26 236.734 3367.32 234.998 Q3365.4 233.262 3362.3 233.262 Q3360.1 233.262 3357.64 234.026 Q3355.21 234.79 3352.44 236.341 L3352.44 231.618 Q3355.26 230.484 3357.71 229.905 Q3360.17 229.327 3362.2 229.327 Q3367.58 229.327 3370.77 232.012 Q3373.96 234.697 3373.96 239.188 Q3373.96 241.317 3373.15 243.239 Q3372.37 245.137 3370.26 247.729 Q3369.68 248.401 3366.58 251.618 Q3363.48 254.813 3357.83 260.577 Z" fill="#000000" fill-rule="nonzero" fill-opacity="1" /><path clip-path="url(#clip470)" d="M3400.42 242.521 L3400.42 228.493 L3404.68 228.493 L3404.68 264.512 L3400.42 264.512 L3400.42 260.623 Q3399.08 262.938 3397.02 264.072 Q3394.98 265.183 3392.11 265.183 Q3387.41 265.183 3384.45 261.433 Q3381.51 257.683 3381.51 251.572 Q3381.51 245.461 3384.45 241.711 Q3387.41 237.961 3392.11 237.961 Q3394.98 237.961 3397.02 239.095 Q3399.08 240.206 3400.42 242.521 M3385.91 251.572 Q3385.91 256.271 3387.83 258.956 Q3389.77 261.618 3393.15 261.618 Q3396.53 261.618 3398.48 258.956 Q3400.42 256.271 3400.42 251.572 Q3400.42 246.873 3398.48 244.211 Q3396.53 241.526 3393.15 241.526 Q3389.77 241.526 3387.83 244.211 Q3385.91 246.873 3385.91 251.572 Z" fill="#000000" fill-rule="nonzero" fill-opacity="1" /><circle clip-path="url(#clip470)" cx="3204.13" cy="299.072" r="23.04" fill="#0077bb" fill-rule="evenodd" fill-opacity="1" stroke="#000000" stroke-opacity="1" stroke-width="0"/>
<path clip-path="url(#clip470)" d="M3367.83 297.718 Q3371.19 298.435 3373.06 300.704 Q3374.96 302.972 3374.96 306.305 Q3374.96 311.421 3371.44 314.222 Q3367.92 317.023 3361.44 317.023 Q3359.27 317.023 3356.95 316.583 Q3354.66 316.167 3352.2 315.31 L3352.2 310.796 Q3354.15 311.93 3356.46 312.509 Q3358.78 313.088 3361.3 313.088 Q3365.7 313.088 3367.99 311.352 Q3370.31 309.616 3370.31 306.305 Q3370.31 303.25 3368.15 301.537 Q3366.02 299.801 3362.2 299.801 L3358.18 299.801 L3358.18 295.958 L3362.39 295.958 Q3365.84 295.958 3367.67 294.593 Q3369.5 293.204 3369.5 290.611 Q3369.5 287.949 3367.6 286.537 Q3365.72 285.102 3362.2 285.102 Q3360.28 285.102 3358.08 285.519 Q3355.89 285.935 3353.25 286.815 L3353.25 282.648 Q3355.91 281.907 3358.22 281.537 Q3360.56 281.167 3362.62 281.167 Q3367.95 281.167 3371.05 283.597 Q3374.15 286.005 3374.15 290.125 Q3374.15 292.995 3372.51 294.986 Q3370.86 296.954 3367.83 297.718 Z" fill="#000000" fill-rule="nonzero" fill-opacity="1" /><path clip-path="url(#clip470)" d="M3400.28 294.361 L3400.28 280.333 L3404.54 280.333 L3404.54 316.352 L3400.28 316.352 L3400.28 312.463 Q3398.94 314.778 3396.88 315.912 Q3394.84 317.023 3391.97 317.023 Q3387.27 317.023 3384.31 313.273 Q3381.37 309.523 3381.37 303.412 Q3381.37 297.301 3384.31 293.551 Q3387.27 289.801 3391.97 289.801 Q3394.84 289.801 3396.88 290.935 Q3398.94 292.046 3400.28 294.361 M3385.77 303.412 Q3385.77 308.111 3387.69 310.796 Q3389.64 313.458 3393.01 313.458 Q3396.39 313.458 3398.34 310.796 Q3400.28 308.111 3400.28 303.412 Q3400.28 298.713 3398.34 296.051 Q3396.39 293.366 3393.01 293.366 Q3389.64 293.366 3387.69 296.051 Q3385.77 298.713 3385.77 303.412 Z" fill="#000000" fill-rule="nonzero" fill-opacity="1" /></svg>
