<?xml version="1.0" encoding="utf-8"?>
<svg xmlns="http://www.w3.org/2000/svg" xmlns:xlink="http://www.w3.org/1999/xlink" width="900" height="500" viewBox="0 0 3600 2000">
<defs>
  <clipPath id="clip340">
    <rect x="0" y="0" width="3600" height="2000"/>
  </clipPath>
</defs>
<path clip-path="url(#clip340)" d="M0 2000 L3600 2000 L3600 0 L0 0  Z" fill="#ffffff" fill-rule="evenodd" fill-opacity="1"/>
<defs>
  <clipPath id="clip341">
    <rect x="720" y="0" width="2521" height="2000"/>
  </clipPath>
</defs>
<defs>
  <clipPath id="clip342">
    <rect x="253" y="106" width="3300" height="1728"/>
  </clipPath>
</defs>
<path clip-path="url(#clip340)" d="M253.622 1832.86 L3552.76 1832.86 L3552.76 106.192 L253.622 106.192  Z" fill="#ffffff" fill-rule="evenodd" fill-opacity="1"/>
<polyline clip-path="url(#clip342)" style="stroke:#222255; stroke-linecap:round; stroke-linejoin:round; stroke-width:2; stroke-opacity:0.5; fill:none" points="337.849,1832.86 337.849,106.192 "/>
<polyline clip-path="url(#clip342)" style="stroke:#222255; stroke-linecap:round; stroke-linejoin:round; stroke-width:2; stroke-opacity:0.5; fill:none" points="1099.94,1832.86 1099.94,106.192 "/>
<polyline clip-path="url(#clip342)" style="stroke:#222255; stroke-linecap:round; stroke-linejoin:round; stroke-width:2; stroke-opacity:0.5; fill:none" points="1862.04,1832.86 1862.04,106.192 "/>
<polyline clip-path="url(#clip342)" style="stroke:#222255; stroke-linecap:round; stroke-linejoin:round; stroke-width:2; stroke-opacity:0.5; fill:none" points="2624.13,1832.86 2624.13,106.192 "/>
<polyline clip-path="url(#clip342)" style="stroke:#222255; stroke-linecap:round; stroke-linejoin:round; stroke-width:2; stroke-opacity:0.5; fill:none" points="3386.22,1832.86 3386.22,106.192 "/>
<polyline clip-path="url(#clip342)" style="stroke:#222255; stroke-linecap:round; stroke-linejoin:round; stroke-width:2; stroke-opacity:0.3; fill:none" points="490.267,1832.86 490.267,106.192 "/>
<polyline clip-path="url(#clip342)" style="stroke:#222255; stroke-linecap:round; stroke-linejoin:round; stroke-width:2; stroke-opacity:0.3; fill:none" points="642.686,1832.86 642.686,106.192 "/>
<polyline clip-path="url(#clip342)" style="stroke:#222255; stroke-linecap:round; stroke-linejoin:round; stroke-width:2; stroke-opacity:0.3; fill:none" points="795.105,1832.86 795.105,106.192 "/>
<polyline clip-path="url(#clip342)" style="stroke:#222255; stroke-linecap:round; stroke-linejoin:round; stroke-width:2; stroke-opacity:0.3; fill:none" points="947.524,1832.86 947.524,106.192 "/>
<polyline clip-path="url(#clip342)" style="stroke:#222255; stroke-linecap:round; stroke-linejoin:round; stroke-width:2; stroke-opacity:0.3; fill:none" points="1252.36,1832.86 1252.36,106.192 "/>
<polyline clip-path="url(#clip342)" style="stroke:#222255; stroke-linecap:round; stroke-linejoin:round; stroke-width:2; stroke-opacity:0.3; fill:none" points="1404.78,1832.86 1404.78,106.192 "/>
<polyline clip-path="url(#clip342)" style="stroke:#222255; stroke-linecap:round; stroke-linejoin:round; stroke-width:2; stroke-opacity:0.3; fill:none" points="1557.2,1832.86 1557.2,106.192 "/>
<polyline clip-path="url(#clip342)" style="stroke:#222255; stroke-linecap:round; stroke-linejoin:round; stroke-width:2; stroke-opacity:0.3; fill:none" points="1709.62,1832.86 1709.62,106.192 "/>
<polyline clip-path="url(#clip342)" style="stroke:#222255; stroke-linecap:round; stroke-linejoin:round; stroke-width:2; stroke-opacity:0.3; fill:none" points="2014.45,1832.86 2014.45,106.192 "/>
<polyline clip-path="url(#clip342)" style="stroke:#222255; stroke-linecap:round; stroke-linejoin:round; stroke-width:2; stroke-opacity:0.3; fill:none" points="2166.87,1832.86 2166.87,106.192 "/>
<polyline clip-path="url(#clip342)" style="stroke:#222255; stroke-linecap:round; stroke-linejoin:round; stroke-width:2; stroke-opacity:0.3; fill:none" points="2319.29,1832.86 2319.29,106.192 "/>
<polyline clip-path="url(#clip342)" style="stroke:#222255; stroke-linecap:round; stroke-linejoin:round; stroke-width:2; stroke-opacity:0.3; fill:none" points="2471.71,1832.86 2471.71,106.192 "/>
<polyline clip-path="url(#clip342)" style="stroke:#222255; stroke-linecap:round; stroke-linejoin:round; stroke-width:2; stroke-opacity:0.3; fill:none" points="2776.55,1832.86 2776.55,106.192 "/>
<polyline clip-path="url(#clip342)" style="stroke:#222255; stroke-linecap:round; stroke-linejoin:round; stroke-width:2; stroke-opacity:0.3; fill:none" points="2928.97,1832.86 2928.97,106.192 "/>
<polyline clip-path="url(#clip342)" style="stroke:#222255; stroke-linecap:round; stroke-linejoin:round; stroke-width:2; stroke-opacity:0.3; fill:none" points="3081.39,1832.86 3081.39,106.192 "/>
<polyline clip-path="url(#clip342)" style="stroke:#222255; stroke-linecap:round; stroke-linejoin:round; stroke-width:2; stroke-opacity:0.3; fill:none" points="3233.8,1832.86 3233.8,106.192 "/>
<polyline clip-path="url(#clip342)" style="stroke:#222255; stroke-linecap:round; stroke-linejoin:round; stroke-width:2; stroke-opacity:0.3; fill:none" points="3538.64,1832.86 3538.64,106.192 "/>
<polyline clip-path="url(#clip340)" style="stroke:#222255; stroke-linecap:round; stroke-linejoin:round; stroke-width:4; stroke-opacity:0; fill:none" points="337.849,1832.86 337.849,1813.96 "/>
<polyline clip-path="url(#clip340)" style="stroke:#222255; stroke-linecap:round; stroke-linejoin:round; stroke-width:4; stroke-opacity:0; fill:none" points="1099.94,1832.86 1099.94,1813.96 "/>
<polyline clip-path="url(#clip340)" style="stroke:#222255; stroke-linecap:round; stroke-linejoin:round; stroke-width:4; stroke-opacity:0; fill:none" points="1862.04,1832.86 1862.04,1813.96 "/>
<polyline clip-path="url(#clip340)" style="stroke:#222255; stroke-linecap:round; stroke-linejoin:round; stroke-width:4; stroke-opacity:0; fill:none" points="2624.13,1832.86 2624.13,1813.96 "/>
<polyline clip-path="url(#clip340)" style="stroke:#222255; stroke-linecap:round; stroke-linejoin:round; stroke-width:4; stroke-opacity:0; fill:none" points="3386.22,1832.86 3386.22,1813.96 "/>
<polyline clip-path="url(#clip340)" style="stroke:#222255; stroke-linecap:round; stroke-linejoin:round; stroke-width:4; stroke-opacity:0; fill:none" points="490.267,1832.86 490.267,1823.41 "/>
<polyline clip-path="url(#clip340)" style="stroke:#222255; stroke-linecap:round; stroke-linejoin:round; stroke-width:4; stroke-opacity:0; fill:none" points="642.686,1832.86 642.686,1823.41 "/>
<polyline clip-path="url(#clip340)" style="stroke:#222255; stroke-linecap:round; stroke-linejoin:round; stroke-width:4; stroke-opacity:0; fill:none" points="795.105,1832.86 795.105,1823.41 "/>
<polyline clip-path="url(#clip340)" style="stroke:#222255; stroke-linecap:round; stroke-linejoin:round; stroke-width:4; stroke-opacity:0; fill:none" points="947.524,1832.86 947.524,1823.41 "/>
<polyline clip-path="url(#clip340)" style="stroke:#222255; stroke-linecap:round; stroke-linejoin:round; stroke-width:4; stroke-opacity:0; fill:none" points="1252.36,1832.86 1252.36,1823.41 "/>
<polyline clip-path="url(#clip340)" style="stroke:#222255; stroke-linecap:round; stroke-linejoin:round; stroke-width:4; stroke-opacity:0; fill:none" points="1404.78,1832.86 1404.78,1823.41 "/>
<polyline clip-path="url(#clip340)" style="stroke:#222255; stroke-linecap:round; stroke-linejoin:round; stroke-width:4; stroke-opacity:0; fill:none" points="1557.2,1832.86 1557.2,1823.41 "/>
<polyline clip-path="url(#clip340)" style="stroke:#222255; stroke-linecap:round; stroke-linejoin:round; stroke-width:4; stroke-opacity:0; fill:none" points="1709.62,1832.86 1709.62,1823.41 "/>
<polyline clip-path="url(#clip340)" style="stroke:#222255; stroke-linecap:round; stroke-linejoin:round; stroke-width:4; stroke-opacity:0; fill:none" points="2014.45,1832.86 2014.45,1823.41 "/>
<polyline clip-path="url(#clip340)" style="stroke:#222255; stroke-linecap:round; stroke-linejoin:round; stroke-width:4; stroke-opacity:0; fill:none" points="2166.87,1832.86 2166.87,1823.41 "/>
<polyline clip-path="url(#clip340)" style="stroke:#222255; stroke-linecap:round; stroke-linejoin:round; stroke-width:4; stroke-opacity:0; fill:none" points="2319.29,1832.86 2319.29,1823.41 "/>
<polyline clip-path="url(#clip340)" style="stroke:#222255; stroke-linecap:round; stroke-linejoin:round; stroke-width:4; stroke-opacity:0; fill:none" points="2471.71,1832.86 2471.71,1823.41 "/>
<polyline clip-path="url(#clip340)" style="stroke:#222255; stroke-linecap:round; stroke-linejoin:round; stroke-width:4; stroke-opacity:0; fill:none" points="2776.55,1832.86 2776.55,1823.41 "/>
<polyline clip-path="url(#clip340)" style="stroke:#222255; stroke-linecap:round; stroke-linejoin:round; stroke-width:4; stroke-opacity:0; fill:none" points="2928.97,1832.86 2928.97,1823.41 "/>
<polyline clip-path="url(#clip340)" style="stroke:#222255; stroke-linecap:round; stroke-linejoin:round; stroke-width:4; stroke-opacity:0; fill:none" points="3081.39,1832.86 3081.39,1823.41 "/>
<polyline clip-path="url(#clip340)" style="stroke:#222255; stroke-linecap:round; stroke-linejoin:round; stroke-width:4; stroke-opacity:0; fill:none" points="3233.8,1832.86 3233.8,1823.41 "/>
<polyline clip-path="url(#clip340)" style="stroke:#222255; stroke-linecap:round; stroke-linejoin:round; stroke-width:4; stroke-opacity:0; fill:none" points="3538.64,1832.86 3538.64,1823.41 "/>
<path clip-path="url(#clip340)" d="M337.849 1873.38 Q334.238 1873.38 332.409 1876.94 Q330.603 1880.48 330.603 1887.61 Q330.603 1894.72 332.409 1898.29 Q334.238 1901.83 337.849 1901.83 Q341.483 1901.83 343.288 1898.29 Q345.117 1894.72 345.117 1887.61 Q345.117 1880.48 343.288 1876.94 Q341.483 1873.38 337.849 1873.38 M337.849 1869.67 Q343.659 1869.67 346.714 1874.28 Q349.793 1878.86 349.793 1887.61 Q349.793 1896.34 346.714 1900.95 Q343.659 1905.53 337.849 1905.53 Q332.038 1905.53 328.96 1900.95 Q325.904 1896.34 325.904 1887.61 Q325.904 1878.86 328.96 1874.28 Q332.038 1869.67 337.849 1869.67 Z" fill="#000000" fill-rule="nonzero" fill-opacity="1" /><path clip-path="url(#clip340)" d="M1063.63 1900.92 L1079.95 1900.92 L1079.95 1904.86 L1058.01 1904.86 L1058.01 1900.92 Q1060.67 1898.17 1065.25 1893.54 Q1069.86 1888.89 1071.04 1887.55 Q1073.29 1885.02 1074.17 1883.29 Q1075.07 1881.53 1075.07 1879.84 Q1075.07 1877.08 1073.13 1875.35 Q1071.2 1873.61 1068.1 1873.61 Q1065.9 1873.61 1063.45 1874.37 Q1061.02 1875.14 1058.24 1876.69 L1058.24 1871.97 Q1061.07 1870.83 1063.52 1870.25 Q1065.97 1869.67 1068.01 1869.67 Q1073.38 1869.67 1076.57 1872.36 Q1079.77 1875.05 1079.77 1879.54 Q1079.77 1881.67 1078.96 1883.59 Q1078.17 1885.48 1076.07 1888.08 Q1075.49 1888.75 1072.38 1891.97 Q1069.28 1895.16 1063.63 1900.92 Z" fill="#000000" fill-rule="nonzero" fill-opacity="1" /><path clip-path="url(#clip340)" d="M1089.82 1870.3 L1108.17 1870.3 L1108.17 1874.24 L1094.1 1874.24 L1094.1 1882.71 Q1095.12 1882.36 1096.13 1882.2 Q1097.15 1882.01 1098.17 1882.01 Q1103.96 1882.01 1107.34 1885.18 Q1110.72 1888.36 1110.72 1893.77 Q1110.72 1899.35 1107.25 1902.45 Q1103.77 1905.53 1097.45 1905.53 Q1095.28 1905.53 1093.01 1905.16 Q1090.76 1904.79 1088.36 1904.05 L1088.36 1899.35 Q1090.44 1900.48 1092.66 1901.04 Q1094.88 1901.6 1097.36 1901.6 Q1101.37 1901.6 1103.7 1899.49 Q1106.04 1897.38 1106.04 1893.77 Q1106.04 1890.16 1103.7 1888.05 Q1101.37 1885.95 1097.36 1885.95 Q1095.49 1885.95 1093.61 1886.36 Q1091.76 1886.78 1089.82 1887.66 L1089.82 1870.3 Z" fill="#000000" fill-rule="nonzero" fill-opacity="1" /><path clip-path="url(#clip340)" d="M1129.93 1873.38 Q1126.32 1873.38 1124.49 1876.94 Q1122.69 1880.48 1122.69 1887.61 Q1122.69 1894.72 1124.49 1898.29 Q1126.32 1901.83 1129.93 1901.83 Q1133.56 1901.83 1135.37 1898.29 Q1137.2 1894.72 1137.2 1887.61 Q1137.2 1880.48 1135.37 1876.94 Q1133.56 1873.38 1129.93 1873.38 M1129.93 1869.67 Q1135.74 1869.67 1138.8 1874.28 Q1141.87 1878.86 1141.87 1887.61 Q1141.87 1896.34 1138.8 1900.95 Q1135.74 1905.53 1129.93 1905.53 Q1124.12 1905.53 1121.04 1900.95 Q1117.99 1896.34 1117.99 1887.61 Q1117.99 1878.86 1121.04 1874.28 Q1124.12 1869.67 1129.93 1869.67 Z" fill="#000000" fill-rule="nonzero" fill-opacity="1" /><path clip-path="url(#clip340)" d="M1821.65 1870.3 L1840.01 1870.3 L1840.01 1874.24 L1825.94 1874.24 L1825.94 1882.71 Q1826.96 1882.36 1827.97 1882.2 Q1828.99 1882.01 1830.01 1882.01 Q1835.8 1882.01 1839.18 1885.18 Q1842.56 1888.36 1842.56 1893.77 Q1842.56 1899.35 1839.08 1902.45 Q1835.61 1905.53 1829.29 1905.53 Q1827.12 1905.53 1824.85 1905.16 Q1822.6 1904.79 1820.2 1904.05 L1820.2 1899.35 Q1822.28 1900.48 1824.5 1901.04 Q1826.72 1901.6 1829.2 1901.6 Q1833.21 1901.6 1835.54 1899.49 Q1837.88 1897.38 1837.88 1893.77 Q1837.88 1890.16 1835.54 1888.05 Q1833.21 1885.95 1829.2 1885.95 Q1827.33 1885.95 1825.45 1886.36 Q1823.6 1886.78 1821.65 1887.66 L1821.65 1870.3 Z" fill="#000000" fill-rule="nonzero" fill-opacity="1" /><path clip-path="url(#clip340)" d="M1861.77 1873.38 Q1858.16 1873.38 1856.33 1876.94 Q1854.52 1880.48 1854.52 1887.61 Q1854.52 1894.72 1856.33 1898.29 Q1858.16 1901.83 1861.77 1901.83 Q1865.4 1901.83 1867.21 1898.29 Q1869.04 1894.72 1869.04 1887.61 Q1869.04 1880.48 1867.21 1876.94 Q1865.4 1873.38 1861.77 1873.38 M1861.77 1869.67 Q1867.58 1869.67 1870.64 1874.28 Q1873.71 1878.86 1873.71 1887.61 Q1873.71 1896.34 1870.64 1900.95 Q1867.58 1905.53 1861.77 1905.53 Q1855.96 1905.53 1852.88 1900.95 Q1849.83 1896.34 1849.83 1887.61 Q1849.83 1878.86 1852.88 1874.28 Q1855.96 1869.67 1861.77 1869.67 Z" fill="#000000" fill-rule="nonzero" fill-opacity="1" /><path clip-path="url(#clip340)" d="M1891.93 1873.38 Q1888.32 1873.38 1886.49 1876.94 Q1884.69 1880.48 1884.69 1887.61 Q1884.69 1894.72 1886.49 1898.29 Q1888.32 1901.83 1891.93 1901.83 Q1895.57 1901.83 1897.37 1898.29 Q1899.2 1894.72 1899.2 1887.61 Q1899.2 1880.48 1897.37 1876.94 Q1895.57 1873.38 1891.93 1873.38 M1891.93 1869.67 Q1897.74 1869.67 1900.8 1874.28 Q1903.88 1878.86 1903.88 1887.61 Q1903.88 1896.34 1900.8 1900.95 Q1897.74 1905.53 1891.93 1905.53 Q1886.12 1905.53 1883.04 1900.95 Q1879.99 1896.34 1879.99 1887.61 Q1879.99 1878.86 1883.04 1874.28 Q1886.12 1869.67 1891.93 1869.67 Z" fill="#000000" fill-rule="nonzero" fill-opacity="1" /><path clip-path="url(#clip340)" d="M2582.41 1870.3 L2604.63 1870.3 L2604.63 1872.29 L2592.08 1904.86 L2587.2 1904.86 L2599 1874.24 L2582.41 1874.24 L2582.41 1870.3 Z" fill="#000000" fill-rule="nonzero" fill-opacity="1" /><path clip-path="url(#clip340)" d="M2613.79 1870.3 L2632.15 1870.3 L2632.15 1874.24 L2618.08 1874.24 L2618.08 1882.71 Q2619.09 1882.36 2620.11 1882.2 Q2621.13 1882.01 2622.15 1882.01 Q2627.94 1882.01 2631.32 1885.18 Q2634.7 1888.36 2634.7 1893.77 Q2634.7 1899.35 2631.22 1902.45 Q2627.75 1905.53 2621.43 1905.53 Q2619.26 1905.53 2616.99 1905.16 Q2614.74 1904.79 2612.34 1904.05 L2612.34 1899.35 Q2614.42 1900.48 2616.64 1901.04 Q2618.86 1901.6 2621.34 1901.6 Q2625.34 1901.6 2627.68 1899.49 Q2630.02 1897.38 2630.02 1893.77 Q2630.02 1890.16 2627.68 1888.05 Q2625.34 1885.95 2621.34 1885.95 Q2619.47 1885.95 2617.59 1886.36 Q2615.74 1886.78 2613.79 1887.66 L2613.79 1870.3 Z" fill="#000000" fill-rule="nonzero" fill-opacity="1" /><path clip-path="url(#clip340)" d="M2653.91 1873.38 Q2650.3 1873.38 2648.47 1876.94 Q2646.66 1880.48 2646.66 1887.61 Q2646.66 1894.72 2648.47 1898.29 Q2650.3 1901.83 2653.91 1901.83 Q2657.54 1901.83 2659.35 1898.29 Q2661.18 1894.72 2661.18 1887.61 Q2661.18 1880.48 2659.35 1876.94 Q2657.54 1873.38 2653.91 1873.38 M2653.91 1869.67 Q2659.72 1869.67 2662.78 1874.28 Q2665.85 1878.86 2665.85 1887.61 Q2665.85 1896.34 2662.78 1900.95 Q2659.72 1905.53 2653.91 1905.53 Q2648.1 1905.53 2645.02 1900.95 Q2641.97 1896.34 2641.97 1887.61 Q2641.97 1878.86 2645.02 1874.28 Q2648.1 1869.67 2653.91 1869.67 Z" fill="#000000" fill-rule="nonzero" fill-opacity="1" /><path clip-path="url(#clip340)" d="M3330.75 1900.92 L3338.39 1900.92 L3338.39 1874.56 L3330.08 1876.23 L3330.08 1871.97 L3338.34 1870.3 L3343.02 1870.3 L3343.02 1900.92 L3350.66 1900.92 L3350.66 1904.86 L3330.75 1904.86 L3330.75 1900.92 Z" fill="#000000" fill-rule="nonzero" fill-opacity="1" /><path clip-path="url(#clip340)" d="M3370.1 1873.38 Q3366.49 1873.38 3364.66 1876.94 Q3362.86 1880.48 3362.86 1887.61 Q3362.86 1894.72 3364.66 1898.29 Q3366.49 1901.83 3370.1 1901.83 Q3373.73 1901.83 3375.54 1898.29 Q3377.37 1894.72 3377.37 1887.61 Q3377.37 1880.48 3375.54 1876.94 Q3373.73 1873.38 3370.1 1873.38 M3370.1 1869.67 Q3375.91 1869.67 3378.97 1874.28 Q3382.04 1878.86 3382.04 1887.61 Q3382.04 1896.34 3378.97 1900.95 Q3375.91 1905.53 3370.1 1905.53 Q3364.29 1905.53 3361.21 1900.95 Q3358.16 1896.34 3358.16 1887.61 Q3358.16 1878.86 3361.21 1874.28 Q3364.29 1869.67 3370.1 1869.67 Z" fill="#000000" fill-rule="nonzero" fill-opacity="1" /><path clip-path="url(#clip340)" d="M3400.26 1873.38 Q3396.65 1873.38 3394.82 1876.94 Q3393.02 1880.48 3393.02 1887.61 Q3393.02 1894.72 3394.82 1898.29 Q3396.65 1901.83 3400.26 1901.83 Q3403.9 1901.83 3405.7 1898.29 Q3407.53 1894.72 3407.53 1887.61 Q3407.53 1880.48 3405.7 1876.94 Q3403.9 1873.38 3400.26 1873.38 M3400.26 1869.67 Q3406.07 1869.67 3409.13 1874.28 Q3412.21 1878.86 3412.21 1887.61 Q3412.21 1896.34 3409.13 1900.95 Q3406.07 1905.53 3400.26 1905.53 Q3394.45 1905.53 3391.37 1900.95 Q3388.32 1896.34 3388.32 1887.61 Q3388.32 1878.86 3391.37 1874.28 Q3394.45 1869.67 3400.26 1869.67 Z" fill="#000000" fill-rule="nonzero" fill-opacity="1" /><path clip-path="url(#clip340)" d="M3430.42 1873.38 Q3426.81 1873.38 3424.98 1876.94 Q3423.18 1880.48 3423.18 1887.61 Q3423.18 1894.72 3424.98 1898.29 Q3426.81 1901.83 3430.42 1901.83 Q3434.06 1901.83 3435.86 1898.29 Q3437.69 1894.72 3437.69 1887.61 Q3437.69 1880.48 3435.86 1876.94 Q3434.06 1873.38 3430.42 1873.38 M3430.42 1869.67 Q3436.23 1869.67 3439.29 1874.28 Q3442.37 1878.86 3442.37 1887.61 Q3442.37 1896.34 3439.29 1900.95 Q3436.23 1905.53 3430.42 1905.53 Q3424.61 1905.53 3421.54 1900.95 Q3418.48 1896.34 3418.48 1887.61 Q3418.48 1878.86 3421.54 1874.28 Q3424.61 1869.67 3430.42 1869.67 Z" fill="#000000" fill-rule="nonzero" fill-opacity="1" /><path clip-path="url(#clip340)" d="M1885.21 1948.2 L1893.86 1948.2 L1914.93 1987.96 L1914.93 1948.2 L1921.17 1948.2 L1921.17 1995.72 L1912.51 1995.72 L1891.44 1955.97 L1891.44 1995.72 L1885.21 1995.72 L1885.21 1948.2 Z" fill="#000000" fill-rule="nonzero" fill-opacity="1" /><polyline clip-path="url(#clip342)" style="stroke:#222255; stroke-linecap:round; stroke-linejoin:round; stroke-width:2; stroke-opacity:0.5; fill:none" points="253.622,1832.86 3552.76,1832.86 "/>
<polyline clip-path="url(#clip342)" style="stroke:#222255; stroke-linecap:round; stroke-linejoin:round; stroke-width:2; stroke-opacity:0.5; fill:none" points="253.622,1401.19 3552.76,1401.19 "/>
<polyline clip-path="url(#clip342)" style="stroke:#222255; stroke-linecap:round; stroke-linejoin:round; stroke-width:2; stroke-opacity:0.5; fill:none" points="253.622,969.526 3552.76,969.526 "/>
<polyline clip-path="url(#clip342)" style="stroke:#222255; stroke-linecap:round; stroke-linejoin:round; stroke-width:2; stroke-opacity:0.5; fill:none" points="253.622,537.859 3552.76,537.859 "/>
<polyline clip-path="url(#clip342)" style="stroke:#222255; stroke-linecap:round; stroke-linejoin:round; stroke-width:2; stroke-opacity:0.5; fill:none" points="253.622,106.192 3552.76,106.192 "/>
<polyline clip-path="url(#clip342)" style="stroke:#222255; stroke-linecap:round; stroke-linejoin:round; stroke-width:2; stroke-opacity:0.3; fill:none" points="253.622,1746.53 3552.76,1746.53 "/>
<polyline clip-path="url(#clip342)" style="stroke:#222255; stroke-linecap:round; stroke-linejoin:round; stroke-width:2; stroke-opacity:0.3; fill:none" points="253.622,1660.19 3552.76,1660.19 "/>
<polyline clip-path="url(#clip342)" style="stroke:#222255; stroke-linecap:round; stroke-linejoin:round; stroke-width:2; stroke-opacity:0.3; fill:none" points="253.622,1573.86 3552.76,1573.86 "/>
<polyline clip-path="url(#clip342)" style="stroke:#222255; stroke-linecap:round; stroke-linejoin:round; stroke-width:2; stroke-opacity:0.3; fill:none" points="253.622,1487.53 3552.76,1487.53 "/>
<polyline clip-path="url(#clip342)" style="stroke:#222255; stroke-linecap:round; stroke-linejoin:round; stroke-width:2; stroke-opacity:0.3; fill:none" points="253.622,1314.86 3552.76,1314.86 "/>
<polyline clip-path="url(#clip342)" style="stroke:#222255; stroke-linecap:round; stroke-linejoin:round; stroke-width:2; stroke-opacity:0.3; fill:none" points="253.622,1228.53 3552.76,1228.53 "/>
<polyline clip-path="url(#clip342)" style="stroke:#222255; stroke-linecap:round; stroke-linejoin:round; stroke-width:2; stroke-opacity:0.3; fill:none" points="253.622,1142.19 3552.76,1142.19 "/>
<polyline clip-path="url(#clip342)" style="stroke:#222255; stroke-linecap:round; stroke-linejoin:round; stroke-width:2; stroke-opacity:0.3; fill:none" points="253.622,1055.86 3552.76,1055.86 "/>
<polyline clip-path="url(#clip342)" style="stroke:#222255; stroke-linecap:round; stroke-linejoin:round; stroke-width:2; stroke-opacity:0.3; fill:none" points="253.622,883.193 3552.76,883.193 "/>
<polyline clip-path="url(#clip342)" style="stroke:#222255; stroke-linecap:round; stroke-linejoin:round; stroke-width:2; stroke-opacity:0.3; fill:none" points="253.622,796.859 3552.76,796.859 "/>
<polyline clip-path="url(#clip342)" style="stroke:#222255; stroke-linecap:round; stroke-linejoin:round; stroke-width:2; stroke-opacity:0.3; fill:none" points="253.622,710.526 3552.76,710.526 "/>
<polyline clip-path="url(#clip342)" style="stroke:#222255; stroke-linecap:round; stroke-linejoin:round; stroke-width:2; stroke-opacity:0.3; fill:none" points="253.622,624.192 3552.76,624.192 "/>
<polyline clip-path="url(#clip342)" style="stroke:#222255; stroke-linecap:round; stroke-linejoin:round; stroke-width:2; stroke-opacity:0.3; fill:none" points="253.622,451.526 3552.76,451.526 "/>
<polyline clip-path="url(#clip342)" style="stroke:#222255; stroke-linecap:round; stroke-linejoin:round; stroke-width:2; stroke-opacity:0.3; fill:none" points="253.622,365.192 3552.76,365.192 "/>
<polyline clip-path="url(#clip342)" style="stroke:#222255; stroke-linecap:round; stroke-linejoin:round; stroke-width:2; stroke-opacity:0.3; fill:none" points="253.622,278.859 3552.76,278.859 "/>
<polyline clip-path="url(#clip342)" style="stroke:#222255; stroke-linecap:round; stroke-linejoin:round; stroke-width:2; stroke-opacity:0.3; fill:none" points="253.622,192.526 3552.76,192.526 "/>
<polyline clip-path="url(#clip340)" style="stroke:#222255; stroke-linecap:round; stroke-linejoin:round; stroke-width:4; stroke-opacity:0; fill:none" points="253.622,1832.86 272.52,1832.86 "/>
<polyline clip-path="url(#clip340)" style="stroke:#222255; stroke-linecap:round; stroke-linejoin:round; stroke-width:4; stroke-opacity:0; fill:none" points="253.622,1401.19 272.52,1401.19 "/>
<polyline clip-path="url(#clip340)" style="stroke:#222255; stroke-linecap:round; stroke-linejoin:round; stroke-width:4; stroke-opacity:0; fill:none" points="253.622,969.526 272.52,969.526 "/>
<polyline clip-path="url(#clip340)" style="stroke:#222255; stroke-linecap:round; stroke-linejoin:round; stroke-width:4; stroke-opacity:0; fill:none" points="253.622,537.859 272.52,537.859 "/>
<polyline clip-path="url(#clip340)" style="stroke:#222255; stroke-linecap:round; stroke-linejoin:round; stroke-width:4; stroke-opacity:0; fill:none" points="253.622,106.192 272.52,106.192 "/>
<polyline clip-path="url(#clip340)" style="stroke:#222255; stroke-linecap:round; stroke-linejoin:round; stroke-width:4; stroke-opacity:0; fill:none" points="253.622,1746.53 263.071,1746.53 "/>
<polyline clip-path="url(#clip340)" style="stroke:#222255; stroke-linecap:round; stroke-linejoin:round; stroke-width:4; stroke-opacity:0; fill:none" points="253.622,1660.19 263.071,1660.19 "/>
<polyline clip-path="url(#clip340)" style="stroke:#222255; stroke-linecap:round; stroke-linejoin:round; stroke-width:4; stroke-opacity:0; fill:none" points="253.622,1573.86 263.071,1573.86 "/>
<polyline clip-path="url(#clip340)" style="stroke:#222255; stroke-linecap:round; stroke-linejoin:round; stroke-width:4; stroke-opacity:0; fill:none" points="253.622,1487.53 263.071,1487.53 "/>
<polyline clip-path="url(#clip340)" style="stroke:#222255; stroke-linecap:round; stroke-linejoin:round; stroke-width:4; stroke-opacity:0; fill:none" points="253.622,1314.86 263.071,1314.86 "/>
<polyline clip-path="url(#clip340)" style="stroke:#222255; stroke-linecap:round; stroke-linejoin:round; stroke-width:4; stroke-opacity:0; fill:none" points="253.622,1228.53 263.071,1228.53 "/>
<polyline clip-path="url(#clip340)" style="stroke:#222255; stroke-linecap:round; stroke-linejoin:round; stroke-width:4; stroke-opacity:0; fill:none" points="253.622,1142.19 263.071,1142.19 "/>
<polyline clip-path="url(#clip340)" style="stroke:#222255; stroke-linecap:round; stroke-linejoin:round; stroke-width:4; stroke-opacity:0; fill:none" points="253.622,1055.86 263.071,1055.86 "/>
<polyline clip-path="url(#clip340)" style="stroke:#222255; stroke-linecap:round; stroke-linejoin:round; stroke-width:4; stroke-opacity:0; fill:none" points="253.622,883.193 263.071,883.193 "/>
<polyline clip-path="url(#clip340)" style="stroke:#222255; stroke-linecap:round; stroke-linejoin:round; stroke-width:4; stroke-opacity:0; fill:none" points="253.622,796.859 263.071,796.859 "/>
<polyline clip-path="url(#clip340)" style="stroke:#222255; stroke-linecap:round; stroke-linejoin:round; stroke-width:4; stroke-opacity:0; fill:none" points="253.622,710.526 263.071,710.526 "/>
<polyline clip-path="url(#clip340)" style="stroke:#222255; stroke-linecap:round; stroke-linejoin:round; stroke-width:4; stroke-opacity:0; fill:none" points="253.622,624.192 263.071,624.192 "/>
<polyline clip-path="url(#clip340)" style="stroke:#222255; stroke-linecap:round; stroke-linejoin:round; stroke-width:4; stroke-opacity:0; fill:none" points="253.622,451.526 263.071,451.526 "/>
<polyline clip-path="url(#clip340)" style="stroke:#222255; stroke-linecap:round; stroke-linejoin:round; stroke-width:4; stroke-opacity:0; fill:none" points="253.622,365.192 263.071,365.192 "/>
<polyline clip-path="url(#clip340)" style="stroke:#222255; stroke-linecap:round; stroke-linejoin:round; stroke-width:4; stroke-opacity:0; fill:none" points="253.622,278.859 263.071,278.859 "/>
<polyline clip-path="url(#clip340)" style="stroke:#222255; stroke-linecap:round; stroke-linejoin:round; stroke-width:4; stroke-opacity:0; fill:none" points="253.622,192.526 263.071,192.526 "/>
<path clip-path="url(#clip340)" d="M112.285 1818.66 Q108.673 1818.66 106.845 1822.22 Q105.039 1825.76 105.039 1832.89 Q105.039 1840 106.845 1843.57 Q108.673 1847.11 112.285 1847.11 Q115.919 1847.11 117.724 1843.57 Q119.553 1840 119.553 1832.89 Q119.553 1825.76 117.724 1822.22 Q115.919 1818.66 112.285 1818.66 M112.285 1814.95 Q118.095 1814.95 121.15 1819.56 Q124.229 1824.14 124.229 1832.89 Q124.229 1841.62 121.15 1846.23 Q118.095 1850.81 112.285 1850.81 Q106.474 1850.81 103.396 1846.23 Q100.34 1841.62 100.34 1832.89 Q100.34 1824.14 103.396 1819.56 Q106.474 1814.95 112.285 1814.95 Z" fill="#000000" fill-rule="nonzero" fill-opacity="1" /><path clip-path="url(#clip340)" d="M132.446 1844.26 L137.331 1844.26 L137.331 1850.14 L132.446 1850.14 L132.446 1844.26 Z" fill="#000000" fill-rule="nonzero" fill-opacity="1" /><path clip-path="url(#clip340)" d="M147.562 1815.58 L165.919 1815.58 L165.919 1819.52 L151.845 1819.52 L151.845 1827.99 Q152.863 1827.64 153.882 1827.48 Q154.9 1827.29 155.919 1827.29 Q161.706 1827.29 165.085 1830.46 Q168.465 1833.64 168.465 1839.05 Q168.465 1844.63 164.993 1847.73 Q161.52 1850.81 155.201 1850.81 Q153.025 1850.81 150.757 1850.44 Q148.511 1850.07 146.104 1849.33 L146.104 1844.63 Q148.187 1845.76 150.409 1846.32 Q152.632 1846.88 155.108 1846.88 Q159.113 1846.88 161.451 1844.77 Q163.789 1842.66 163.789 1839.05 Q163.789 1835.44 161.451 1833.33 Q159.113 1831.23 155.108 1831.23 Q153.233 1831.23 151.358 1831.64 Q149.507 1832.06 147.562 1832.94 L147.562 1815.58 Z" fill="#000000" fill-rule="nonzero" fill-opacity="1" /><path clip-path="url(#clip340)" d="M187.678 1818.66 Q184.067 1818.66 182.238 1822.22 Q180.432 1825.76 180.432 1832.89 Q180.432 1840 182.238 1843.57 Q184.067 1847.11 187.678 1847.11 Q191.312 1847.11 193.117 1843.57 Q194.946 1840 194.946 1832.89 Q194.946 1825.76 193.117 1822.22 Q191.312 1818.66 187.678 1818.66 M187.678 1814.95 Q193.488 1814.95 196.543 1819.56 Q199.622 1824.14 199.622 1832.89 Q199.622 1841.62 196.543 1846.23 Q193.488 1850.81 187.678 1850.81 Q181.867 1850.81 178.789 1846.23 Q175.733 1841.62 175.733 1832.89 Q175.733 1824.14 178.789 1819.56 Q181.867 1814.95 187.678 1814.95 Z" fill="#000000" fill-rule="nonzero" fill-opacity="1" /><path clip-path="url(#clip340)" d="M113.28 1386.99 Q109.669 1386.99 107.84 1390.56 Q106.035 1394.1 106.035 1401.23 Q106.035 1408.33 107.84 1411.9 Q109.669 1415.44 113.28 1415.44 Q116.914 1415.44 118.72 1411.9 Q120.548 1408.33 120.548 1401.23 Q120.548 1394.1 118.72 1390.56 Q116.914 1386.99 113.28 1386.99 M113.28 1383.29 Q119.09 1383.29 122.146 1387.89 Q125.224 1392.48 125.224 1401.23 Q125.224 1409.95 122.146 1414.56 Q119.09 1419.14 113.28 1419.14 Q107.47 1419.14 104.391 1414.56 Q101.336 1409.95 101.336 1401.23 Q101.336 1392.48 104.391 1387.89 Q107.47 1383.29 113.28 1383.29 Z" fill="#000000" fill-rule="nonzero" fill-opacity="1" /><path clip-path="url(#clip340)" d="M133.442 1412.59 L138.326 1412.59 L138.326 1418.47 L133.442 1418.47 L133.442 1412.59 Z" fill="#000000" fill-rule="nonzero" fill-opacity="1" /><path clip-path="url(#clip340)" d="M147.331 1383.91 L169.553 1383.91 L169.553 1385.9 L157.007 1418.47 L152.122 1418.47 L163.928 1387.85 L147.331 1387.85 L147.331 1383.91 Z" fill="#000000" fill-rule="nonzero" fill-opacity="1" /><path clip-path="url(#clip340)" d="M178.719 1383.91 L197.076 1383.91 L197.076 1387.85 L183.002 1387.85 L183.002 1396.32 Q184.02 1395.97 185.039 1395.81 Q186.057 1395.63 187.076 1395.63 Q192.863 1395.63 196.242 1398.8 Q199.622 1401.97 199.622 1407.39 Q199.622 1412.96 196.15 1416.07 Q192.678 1419.14 186.358 1419.14 Q184.182 1419.14 181.914 1418.77 Q179.668 1418.4 177.261 1417.66 L177.261 1412.96 Q179.344 1414.1 181.567 1414.65 Q183.789 1415.21 186.266 1415.21 Q190.27 1415.21 192.608 1413.1 Q194.946 1411 194.946 1407.39 Q194.946 1403.77 192.608 1401.67 Q190.27 1399.56 186.266 1399.56 Q184.391 1399.56 182.516 1399.98 Q180.664 1400.39 178.719 1401.27 L178.719 1383.91 Z" fill="#000000" fill-rule="nonzero" fill-opacity="1" /><path clip-path="url(#clip340)" d="M103.095 982.871 L110.734 982.871 L110.734 956.505 L102.423 958.172 L102.423 953.913 L110.687 952.246 L115.363 952.246 L115.363 982.871 L123.002 982.871 L123.002 986.806 L103.095 986.806 L103.095 982.871 Z" fill="#000000" fill-rule="nonzero" fill-opacity="1" /><path clip-path="url(#clip340)" d="M132.446 980.926 L137.331 980.926 L137.331 986.806 L132.446 986.806 L132.446 980.926 Z" fill="#000000" fill-rule="nonzero" fill-opacity="1" /><path clip-path="url(#clip340)" d="M157.516 955.325 Q153.905 955.325 152.076 958.889 Q150.27 962.431 150.27 969.561 Q150.27 976.667 152.076 980.232 Q153.905 983.774 157.516 983.774 Q161.15 983.774 162.956 980.232 Q164.784 976.667 164.784 969.561 Q164.784 962.431 162.956 958.889 Q161.15 955.325 157.516 955.325 M157.516 951.621 Q163.326 951.621 166.381 956.227 Q169.46 960.811 169.46 969.561 Q169.46 978.288 166.381 982.894 Q163.326 987.477 157.516 987.477 Q151.706 987.477 148.627 982.894 Q145.571 978.288 145.571 969.561 Q145.571 960.811 148.627 956.227 Q151.706 951.621 157.516 951.621 Z" fill="#000000" fill-rule="nonzero" fill-opacity="1" /><path clip-path="url(#clip340)" d="M187.678 955.325 Q184.067 955.325 182.238 958.889 Q180.432 962.431 180.432 969.561 Q180.432 976.667 182.238 980.232 Q184.067 983.774 187.678 983.774 Q191.312 983.774 193.117 980.232 Q194.946 976.667 194.946 969.561 Q194.946 962.431 193.117 958.889 Q191.312 955.325 187.678 955.325 M187.678 951.621 Q193.488 951.621 196.543 956.227 Q199.622 960.811 199.622 969.561 Q199.622 978.288 196.543 982.894 Q193.488 987.477 187.678 987.477 Q181.867 987.477 178.789 982.894 Q175.733 978.288 175.733 969.561 Q175.733 960.811 178.789 956.227 Q181.867 951.621 187.678 951.621 Z" fill="#000000" fill-rule="nonzero" fill-opacity="1" /><path clip-path="url(#clip340)" d="M104.09 551.204 L111.729 551.204 L111.729 524.838 L103.419 526.505 L103.419 522.246 L111.683 520.579 L116.359 520.579 L116.359 551.204 L123.997 551.204 L123.997 555.139 L104.09 555.139 L104.09 551.204 Z" fill="#000000" fill-rule="nonzero" fill-opacity="1" /><path clip-path="url(#clip340)" d="M133.442 549.259 L138.326 549.259 L138.326 555.139 L133.442 555.139 L133.442 549.259 Z" fill="#000000" fill-rule="nonzero" fill-opacity="1" /><path clip-path="url(#clip340)" d="M152.539 551.204 L168.858 551.204 L168.858 555.139 L146.914 555.139 L146.914 551.204 Q149.576 548.449 154.159 543.82 Q158.766 539.167 159.946 537.824 Q162.192 535.301 163.071 533.565 Q163.974 531.806 163.974 530.116 Q163.974 527.361 162.03 525.625 Q160.108 523.889 157.007 523.889 Q154.807 523.889 152.354 524.653 Q149.923 525.417 147.145 526.968 L147.145 522.246 Q149.97 521.111 152.423 520.533 Q154.877 519.954 156.914 519.954 Q162.284 519.954 165.479 522.639 Q168.673 525.324 168.673 529.815 Q168.673 531.945 167.863 533.866 Q167.076 535.764 164.969 538.357 Q164.391 539.028 161.289 542.246 Q158.187 545.44 152.539 551.204 Z" fill="#000000" fill-rule="nonzero" fill-opacity="1" /><path clip-path="url(#clip340)" d="M178.719 520.579 L197.076 520.579 L197.076 524.514 L183.002 524.514 L183.002 532.986 Q184.02 532.639 185.039 532.477 Q186.057 532.292 187.076 532.292 Q192.863 532.292 196.242 535.463 Q199.622 538.635 199.622 544.051 Q199.622 549.63 196.15 552.732 Q192.678 555.81 186.358 555.81 Q184.182 555.81 181.914 555.44 Q179.668 555.07 177.261 554.329 L177.261 549.63 Q179.344 550.764 181.567 551.32 Q183.789 551.875 186.266 551.875 Q190.27 551.875 192.608 549.769 Q194.946 547.662 194.946 544.051 Q194.946 540.44 192.608 538.334 Q190.27 536.227 186.266 536.227 Q184.391 536.227 182.516 536.644 Q180.664 537.06 178.719 537.94 L178.719 520.579 Z" fill="#000000" fill-rule="nonzero" fill-opacity="1" /><path clip-path="url(#clip340)" d="M103.095 119.537 L110.734 119.537 L110.734 93.1714 L102.423 94.838 L102.423 90.5788 L110.687 88.9121 L115.363 88.9121 L115.363 119.537 L123.002 119.537 L123.002 123.472 L103.095 123.472 L103.095 119.537 Z" fill="#000000" fill-rule="nonzero" fill-opacity="1" /><path clip-path="url(#clip340)" d="M132.446 117.593 L137.331 117.593 L137.331 123.472 L132.446 123.472 L132.446 117.593 Z" fill="#000000" fill-rule="nonzero" fill-opacity="1" /><path clip-path="url(#clip340)" d="M147.562 88.9121 L165.919 88.9121 L165.919 92.8473 L151.845 92.8473 L151.845 101.319 Q152.863 100.972 153.882 100.81 Q154.9 100.625 155.919 100.625 Q161.706 100.625 165.085 103.796 Q168.465 106.968 168.465 112.384 Q168.465 117.963 164.993 121.065 Q161.52 124.143 155.201 124.143 Q153.025 124.143 150.757 123.773 Q148.511 123.403 146.104 122.662 L146.104 117.963 Q148.187 119.097 150.409 119.653 Q152.632 120.208 155.108 120.208 Q159.113 120.208 161.451 118.102 Q163.789 115.995 163.789 112.384 Q163.789 108.773 161.451 106.667 Q159.113 104.56 155.108 104.56 Q153.233 104.56 151.358 104.977 Q149.507 105.394 147.562 106.273 L147.562 88.9121 Z" fill="#000000" fill-rule="nonzero" fill-opacity="1" /><path clip-path="url(#clip340)" d="M187.678 91.9908 Q184.067 91.9908 182.238 95.5556 Q180.432 99.0973 180.432 106.227 Q180.432 113.333 182.238 116.898 Q184.067 120.44 187.678 120.44 Q191.312 120.44 193.117 116.898 Q194.946 113.333 194.946 106.227 Q194.946 99.0973 193.117 95.5556 Q191.312 91.9908 187.678 91.9908 M187.678 88.2871 Q193.488 88.2871 196.543 92.8936 Q199.622 97.4769 199.622 106.227 Q199.622 114.954 196.543 119.56 Q193.488 124.143 187.678 124.143 Q181.867 124.143 178.789 119.56 Q175.733 114.954 175.733 106.227 Q175.733 97.4769 178.789 92.8936 Q181.867 88.2871 187.678 88.2871 Z" fill="#000000" fill-rule="nonzero" fill-opacity="1" /><path clip-path="url(#clip340)" d="M9.24823 950.816 Q11.1806 950.816 14.5622 951.557 Q17.9438 952.266 19.5541 952.845 Q23.8375 954.456 27.4445 957.676 Q29.4413 959.447 30.8906 961.38 Q32.3076 963.28 33.0162 964.697 Q33.6925 966.114 34.0467 967.789 Q34.4332 969.464 34.4654 970.236 Q34.5298 971.009 34.5298 972.104 L44.3526 974.616 Q46.8969 975.132 47.0579 975.389 Q47.1867 975.454 47.2511 975.615 Q47.3156 975.744 47.3156 975.872 L47.3156 976.001 Q47.3156 976.356 47.1545 976.549 Q46.9935 976.742 46.8003 976.774 L46.6392 976.774 Q46.1884 976.774 40.3913 975.261 Q37.4284 974.488 34.3688 973.811 Q34.0467 978.964 31.7601 982.153 Q29.4735 985.309 25.0291 985.309 Q22.2916 985.309 13.8859 982.12 Q9.86014 980.607 8.18544 980.607 Q7.4447 980.607 6.99382 980.768 Q6.51073 980.929 6.3497 981.251 Q6.15647 981.573 6.12426 981.766 Q6.09205 981.927 6.09205 982.249 Q6.09205 984.149 7.9922 985.921 Q9.89235 987.692 14.2723 988.916 Q15.0775 989.173 15.2707 989.335 Q15.464 989.496 15.464 989.979 Q15.4318 990.784 14.7876 990.784 Q14.53 990.784 13.5316 990.494 Q12.501 990.204 10.9873 989.528 Q9.44146 988.819 8.05661 987.853 Q6.63955 986.887 5.64117 985.373 Q4.64279 983.827 4.64279 982.056 Q4.64279 979.641 6.22088 978.159 Q7.76676 976.645 10.0534 976.645 Q10.5043 976.645 11.0196 976.742 Q11.5348 976.839 11.8247 976.935 Q12.1146 977 12.662 977.193 Q13.1773 977.354 13.274 977.386 Q17.5251 979.029 20.2948 979.866 Q23.0323 980.703 23.8375 980.832 Q24.6104 980.929 25.5444 980.929 Q32.05 980.929 32.9195 973.425 L-10.655 962.475 Q-11.5568 962.282 -11.75 962.121 Q-11.9754 961.96 -11.9754 961.476 Q-11.9754 960.704 -11.2669 960.704 Q-11.0415 960.704 -10.2685 960.897 L33.0484 971.782 Q33.0484 970.752 33.0162 970.108 Q32.9839 969.464 32.6941 968.111 Q32.372 966.726 31.7923 965.567 Q31.2126 964.375 30.0532 962.7 Q28.8616 961.026 27.1869 959.383 Q25.0935 957.322 21.5831 955.486 Q18.0726 953.65 15.1741 953.65 Q11.9213 953.65 9.57029 956.001 Q9.24823 956.356 9.05499 956.549 Q8.86176 956.71 8.5397 956.871 Q8.21764 957 7.79896 957 Q6.70397 957 5.67338 955.969 Q4.64279 954.939 4.64279 953.715 Q4.64279 952.62 5.70558 951.718 Q6.76838 950.816 9.24823 950.816 Z" fill="#000000" fill-rule="nonzero" fill-opacity="1" /><path clip-path="url(#clip340)" d="M277.059 34.2568 Q282.094 35.3331 284.907 38.7359 Q287.754 42.1387 287.754 47.1386 Q287.754 54.8122 282.476 59.0136 Q277.198 63.2149 267.476 63.2149 Q264.212 63.2149 260.74 62.5552 Q257.303 61.9302 253.622 60.6455 L253.622 53.8747 Q256.539 55.5761 260.011 56.4441 Q263.483 57.3122 267.268 57.3122 Q273.865 57.3122 277.302 54.708 Q280.775 52.1039 280.775 47.1386 Q280.775 42.5553 277.546 39.9859 Q274.351 37.3817 268.622 37.3817 L262.58 37.3817 L262.58 31.6179 L268.9 31.6179 Q274.073 31.6179 276.816 29.5693 Q279.559 27.486 279.559 23.5971 Q279.559 19.6041 276.712 17.486 Q273.9 15.3333 268.622 15.3333 Q265.74 15.3333 262.441 15.9582 Q259.143 16.5832 255.185 17.9027 L255.185 11.6527 Q259.178 10.5416 262.65 9.98606 Q266.157 9.43051 269.247 9.43051 Q277.233 9.43051 281.886 13.0763 Q286.539 16.6874 286.539 22.8679 Q286.539 27.1735 284.073 30.1596 Q281.608 33.1109 277.059 34.2568 Z" fill="#000000" fill-rule="nonzero" fill-opacity="1" /><path clip-path="url(#clip340)" d="M301.052 53.3886 L308.379 53.3886 L308.379 62.208 L301.052 62.208 L301.052 53.3886 Z" fill="#000000" fill-rule="nonzero" fill-opacity="1" /><path clip-path="url(#clip340)" d="M323.726 10.368 L351.26 10.368 L351.26 16.2707 L330.149 16.2707 L330.149 28.979 Q331.677 28.4582 333.205 28.2151 Q334.733 27.9374 336.26 27.9374 Q344.941 27.9374 350.01 32.6943 Q355.08 37.4512 355.08 45.5761 Q355.08 53.9442 349.872 58.5969 Q344.663 63.2149 335.184 63.2149 Q331.92 63.2149 328.517 62.6594 Q325.149 62.1038 321.538 60.9927 L321.538 53.9442 Q324.663 55.6455 327.997 56.4789 Q331.33 57.3122 335.045 57.3122 Q341.052 57.3122 344.559 54.1525 Q348.066 50.9928 348.066 45.5761 Q348.066 40.1595 344.559 36.9998 Q341.052 33.8401 335.045 33.8401 Q332.233 33.8401 329.42 34.4651 Q326.642 35.0901 323.726 36.4095 L323.726 10.368 Z" fill="#000000" fill-rule="nonzero" fill-opacity="1" /><path clip-path="url(#clip340)" d="M364.767 39.8817 L383.482 39.8817 L383.482 45.5761 L364.767 45.5761 L364.767 39.8817 Z" fill="#000000" fill-rule="nonzero" fill-opacity="1" /><path clip-path="url(#clip340)" d="M410.427 33.4929 Q405.705 33.4929 402.927 36.722 Q400.184 39.9512 400.184 45.5761 Q400.184 51.1664 402.927 54.4303 Q405.705 57.6594 410.427 57.6594 Q415.149 57.6594 417.892 54.4303 Q420.67 51.1664 420.67 45.5761 Q420.67 39.9512 417.892 36.722 Q415.149 33.4929 410.427 33.4929 M424.35 11.5138 L424.35 17.9027 Q421.711 16.6527 419.003 15.993 Q416.329 15.3333 413.691 15.3333 Q406.746 15.3333 403.066 20.0207 Q399.42 24.7082 398.899 34.1873 Q400.948 31.1665 404.038 29.5693 Q407.128 27.9374 410.843 27.9374 Q418.656 27.9374 423.17 32.6943 Q427.718 37.4165 427.718 45.5761 Q427.718 53.5622 422.996 58.3886 Q418.274 63.2149 410.427 63.2149 Q401.434 63.2149 396.677 56.34 Q391.92 49.4303 391.92 36.3401 Q391.92 24.0485 397.753 16.7569 Q403.587 9.43051 413.413 9.43051 Q416.052 9.43051 418.725 9.95134 Q421.434 10.4722 424.35 11.5138 Z" fill="#000000" fill-rule="nonzero" fill-opacity="1" /><path clip-path="url(#clip340)" d="M454.593 10.368 L498.447 10.368 L498.447 16.2707 L480.044 16.2707 L480.044 62.208 L472.996 62.208 L472.996 16.2707 L454.593 16.2707 L454.593 10.368 Z" fill="#000000" fill-rule="nonzero" fill-opacity="1" /><path clip-path="url(#clip340)" d="M517.023 29.2915 Q515.947 28.6665 514.662 28.3887 Q513.412 28.0762 511.885 28.0762 Q506.468 28.0762 503.551 31.6179 Q500.669 35.1248 500.669 41.722 L500.669 62.208 L494.246 62.208 L494.246 23.3193 L500.669 23.3193 L500.669 29.361 Q502.683 25.8193 505.912 24.1179 Q509.141 22.3818 513.76 22.3818 Q514.419 22.3818 515.218 22.486 Q516.016 22.5554 516.989 22.729 L517.023 29.2915 Z" fill="#000000" fill-rule="nonzero" fill-opacity="1" /><path clip-path="url(#clip340)" d="M555.426 41.1664 L555.426 44.2914 L526.051 44.2914 Q526.468 50.8886 530.009 54.3608 Q533.586 57.7983 539.94 57.7983 Q543.62 57.7983 547.058 56.8955 Q550.53 55.9928 553.933 54.1872 L553.933 60.2288 Q550.495 61.6872 546.884 62.4511 Q543.273 63.2149 539.558 63.2149 Q530.252 63.2149 524.801 57.7983 Q519.384 52.3817 519.384 43.1456 Q519.384 33.597 524.523 28.0068 Q529.697 22.3818 538.447 22.3818 Q546.294 22.3818 550.843 27.4512 Q555.426 32.4859 555.426 41.1664 M549.037 39.2915 Q548.968 34.0484 546.086 30.9234 Q543.239 27.7985 538.516 27.7985 Q533.169 27.7985 529.94 30.8193 Q526.746 33.8401 526.259 39.3262 L549.037 39.2915 Z" fill="#000000" fill-rule="nonzero" fill-opacity="1" /><path clip-path="url(#clip340)" d="M599.176 41.1664 L599.176 44.2914 L569.801 44.2914 Q570.218 50.8886 573.759 54.3608 Q577.336 57.7983 583.69 57.7983 Q587.37 57.7983 590.808 56.8955 Q594.28 55.9928 597.683 54.1872 L597.683 60.2288 Q594.245 61.6872 590.634 62.4511 Q587.023 63.2149 583.308 63.2149 Q574.002 63.2149 568.551 57.7983 Q563.134 52.3817 563.134 43.1456 Q563.134 33.597 568.273 28.0068 Q573.447 22.3818 582.197 22.3818 Q590.044 22.3818 594.592 27.4512 Q599.176 32.4859 599.176 41.1664 M592.787 39.2915 Q592.717 34.0484 589.836 30.9234 Q586.988 27.7985 582.266 27.7985 Q576.919 27.7985 573.69 30.8193 Q570.495 33.8401 570.009 39.3262 L592.787 39.2915 Z" fill="#000000" fill-rule="nonzero" fill-opacity="1" /><path clip-path="url(#clip340)" d="M634.453 24.4651 L634.453 30.5068 Q631.745 29.1179 628.828 28.4235 Q625.912 27.729 622.787 27.729 Q618.03 27.729 615.634 29.1873 Q613.273 30.6457 613.273 33.5623 Q613.273 35.7845 614.974 37.0692 Q616.676 38.3192 621.815 39.4651 L624.002 39.9512 Q630.808 41.4095 633.655 44.0831 Q636.537 46.722 636.537 51.4789 Q636.537 56.8955 632.231 60.0552 Q627.96 63.2149 620.46 63.2149 Q617.335 63.2149 613.933 62.5899 Q610.565 61.9997 606.815 60.7844 L606.815 54.1872 Q610.356 56.0275 613.794 56.965 Q617.231 57.8677 620.599 57.8677 Q625.113 57.8677 627.544 56.34 Q629.974 54.7775 629.974 51.965 Q629.974 49.3608 628.203 47.972 Q626.467 46.5831 620.53 45.2984 L618.308 44.7775 Q612.37 43.5275 609.731 40.9581 Q607.092 38.354 607.092 33.8401 Q607.092 28.354 610.981 25.3679 Q614.87 22.3818 622.023 22.3818 Q625.564 22.3818 628.689 22.9027 Q631.814 23.4235 634.453 24.4651 Z" fill="#000000" fill-rule="nonzero" fill-opacity="1" /><path clip-path="url(#clip340)" d="M684.661 8.24996 Q680.009 16.236 677.752 24.0485 Q675.495 31.8609 675.495 39.8817 Q675.495 47.9025 677.752 55.7844 Q680.043 63.6316 684.661 71.5829 L679.106 71.5829 Q673.898 63.4233 671.293 55.5414 Q668.724 47.6595 668.724 39.8817 Q668.724 32.1387 671.293 24.2915 Q673.863 16.4444 679.106 8.24996 L684.661 8.24996 Z" fill="#000000" fill-rule="nonzero" fill-opacity="1" /><path clip-path="url(#clip340)" d="M729.383 38.7359 L729.383 62.208 L722.995 62.208 L722.995 38.9442 Q722.995 33.4234 720.842 30.6804 Q718.689 27.9374 714.383 27.9374 Q709.21 27.9374 706.224 31.2359 Q703.238 34.5345 703.238 40.229 L703.238 62.208 L696.814 62.208 L696.814 23.3193 L703.238 23.3193 L703.238 29.361 Q705.529 25.854 708.62 24.1179 Q711.745 22.3818 715.807 22.3818 Q722.508 22.3818 725.946 26.5485 Q729.383 30.6804 729.383 38.7359 Z" fill="#000000" fill-rule="nonzero" fill-opacity="1" /><path clip-path="url(#clip340)" d="M765.564 29.9165 L810.077 29.9165 L810.077 35.7498 L765.564 35.7498 L765.564 29.9165 M765.564 44.0831 L810.077 44.0831 L810.077 49.9858 L765.564 49.9858 L765.564 44.0831 Z" fill="#000000" fill-rule="nonzero" fill-opacity="1" /><path clip-path="url(#clip340)" d="M849.036 56.3053 L860.494 56.3053 L860.494 16.7569 L848.029 19.2568 L848.029 12.868 L860.424 10.368 L867.438 10.368 L867.438 56.3053 L878.896 56.3053 L878.896 62.208 L849.036 62.208 L849.036 56.3053 Z" fill="#000000" fill-rule="nonzero" fill-opacity="1" /><path clip-path="url(#clip340)" d="M891.153 8.24996 L896.709 8.24996 Q901.917 16.4444 904.487 24.2915 Q907.091 32.1387 907.091 39.8817 Q907.091 47.6595 904.487 55.5414 Q901.917 63.4233 896.709 71.5829 L891.153 71.5829 Q895.771 63.6316 898.028 55.7844 Q900.32 47.9025 900.32 39.8817 Q900.32 31.8609 898.028 24.0485 Q895.771 16.236 891.153 8.24996 Z" fill="#000000" fill-rule="nonzero" fill-opacity="1" /><circle clip-path="url(#clip342)" cx="346.994" cy="969.526" r="10.8" fill="#ee7733" fill-rule="evenodd" fill-opacity="1" stroke="#000000" stroke-opacity="1" stroke-width="0"/>
<circle clip-path="url(#clip342)" cx="407.961" cy="969.526" r="10.8" fill="#ee7733" fill-rule="evenodd" fill-opacity="1" stroke="#000000" stroke-opacity="1" stroke-width="0"/>
<circle clip-path="url(#clip342)" cx="468.929" cy="969.526" r="10.8" fill="#ee7733" fill-rule="evenodd" fill-opacity="1" stroke="#000000" stroke-opacity="1" stroke-width="0"/>
<circle clip-path="url(#clip342)" cx="529.896" cy="969.526" r="10.8" fill="#ee7733" fill-rule="evenodd" fill-opacity="1" stroke="#000000" stroke-opacity="1" stroke-width="0"/>
<circle clip-path="url(#clip342)" cx="590.864" cy="969.526" r="10.8" fill="#ee7733" fill-rule="evenodd" fill-opacity="1" stroke="#000000" stroke-opacity="1" stroke-width="0"/>
<circle clip-path="url(#clip342)" cx="651.831" cy="969.526" r="10.8" fill="#ee7733" fill-rule="evenodd" fill-opacity="1" stroke="#000000" stroke-opacity="1" stroke-width="0"/>
<circle clip-path="url(#clip342)" cx="712.799" cy="969.526" r="10.8" fill="#ee7733" fill-rule="evenodd" fill-opacity="1" stroke="#000000" stroke-opacity="1" stroke-width="0"/>
<circle clip-path="url(#clip342)" cx="773.766" cy="969.526" r="10.8" fill="#ee7733" fill-rule="evenodd" fill-opacity="1" stroke="#000000" stroke-opacity="1" stroke-width="0"/>
<circle clip-path="url(#clip342)" cx="834.734" cy="969.526" r="10.8" fill="#ee7733" fill-rule="evenodd" fill-opacity="1" stroke="#000000" stroke-opacity="1" stroke-width="0"/>
<circle clip-path="url(#clip342)" cx="895.701" cy="969.526" r="10.8" fill="#ee7733" fill-rule="evenodd" fill-opacity="1" stroke="#000000" stroke-opacity="1" stroke-width="0"/>
<circle clip-path="url(#clip342)" cx="956.669" cy="969.526" r="10.8" fill="#ee7733" fill-rule="evenodd" fill-opacity="1" stroke="#000000" stroke-opacity="1" stroke-width="0"/>
<circle clip-path="url(#clip342)" cx="1017.64" cy="969.526" r="10.8" fill="#ee7733" fill-rule="evenodd" fill-opacity="1" stroke="#000000" stroke-opacity="1" stroke-width="0"/>
<circle clip-path="url(#clip342)" cx="1078.6" cy="969.526" r="10.8" fill="#ee7733" fill-rule="evenodd" fill-opacity="1" stroke="#000000" stroke-opacity="1" stroke-width="0"/>
<circle clip-path="url(#clip342)" cx="1139.57" cy="969.526" r="10.8" fill="#ee7733" fill-rule="evenodd" fill-opacity="1" stroke="#000000" stroke-opacity="1" stroke-width="0"/>
<circle clip-path="url(#clip342)" cx="1200.54" cy="969.526" r="10.8" fill="#ee7733" fill-rule="evenodd" fill-opacity="1" stroke="#000000" stroke-opacity="1" stroke-width="0"/>
<circle clip-path="url(#clip342)" cx="1261.51" cy="969.526" r="10.8" fill="#ee7733" fill-rule="evenodd" fill-opacity="1" stroke="#000000" stroke-opacity="1" stroke-width="0"/>
<circle clip-path="url(#clip342)" cx="1322.47" cy="969.526" r="10.8" fill="#ee7733" fill-rule="evenodd" fill-opacity="1" stroke="#000000" stroke-opacity="1" stroke-width="0"/>
<circle clip-path="url(#clip342)" cx="1383.44" cy="969.526" r="10.8" fill="#ee7733" fill-rule="evenodd" fill-opacity="1" stroke="#000000" stroke-opacity="1" stroke-width="0"/>
<circle clip-path="url(#clip342)" cx="1444.41" cy="969.526" r="10.8" fill="#ee7733" fill-rule="evenodd" fill-opacity="1" stroke="#000000" stroke-opacity="1" stroke-width="0"/>
<circle clip-path="url(#clip342)" cx="1505.38" cy="969.526" r="10.8" fill="#ee7733" fill-rule="evenodd" fill-opacity="1" stroke="#000000" stroke-opacity="1" stroke-width="0"/>
<circle clip-path="url(#clip342)" cx="1566.34" cy="969.526" r="10.8" fill="#ee7733" fill-rule="evenodd" fill-opacity="1" stroke="#000000" stroke-opacity="1" stroke-width="0"/>
<circle clip-path="url(#clip342)" cx="1627.31" cy="969.526" r="10.8" fill="#ee7733" fill-rule="evenodd" fill-opacity="1" stroke="#000000" stroke-opacity="1" stroke-width="0"/>
<circle clip-path="url(#clip342)" cx="1688.28" cy="969.526" r="10.8" fill="#ee7733" fill-rule="evenodd" fill-opacity="1" stroke="#000000" stroke-opacity="1" stroke-width="0"/>
<circle clip-path="url(#clip342)" cx="1749.25" cy="969.526" r="10.8" fill="#ee7733" fill-rule="evenodd" fill-opacity="1" stroke="#000000" stroke-opacity="1" stroke-width="0"/>
<circle clip-path="url(#clip342)" cx="1810.21" cy="969.526" r="10.8" fill="#ee7733" fill-rule="evenodd" fill-opacity="1" stroke="#000000" stroke-opacity="1" stroke-width="0"/>
<circle clip-path="url(#clip342)" cx="1871.18" cy="969.526" r="10.8" fill="#ee7733" fill-rule="evenodd" fill-opacity="1" stroke="#000000" stroke-opacity="1" stroke-width="0"/>
<circle clip-path="url(#clip342)" cx="1932.15" cy="969.526" r="10.8" fill="#ee7733" fill-rule="evenodd" fill-opacity="1" stroke="#000000" stroke-opacity="1" stroke-width="0"/>
<circle clip-path="url(#clip342)" cx="1993.12" cy="969.526" r="10.8" fill="#ee7733" fill-rule="evenodd" fill-opacity="1" stroke="#000000" stroke-opacity="1" stroke-width="0"/>
<circle clip-path="url(#clip342)" cx="2054.08" cy="969.526" r="10.8" fill="#ee7733" fill-rule="evenodd" fill-opacity="1" stroke="#000000" stroke-opacity="1" stroke-width="0"/>
<circle clip-path="url(#clip342)" cx="2115.05" cy="969.526" r="10.8" fill="#ee7733" fill-rule="evenodd" fill-opacity="1" stroke="#000000" stroke-opacity="1" stroke-width="0"/>
<circle clip-path="url(#clip342)" cx="2176.02" cy="969.526" r="10.8" fill="#ee7733" fill-rule="evenodd" fill-opacity="1" stroke="#000000" stroke-opacity="1" stroke-width="0"/>
<circle clip-path="url(#clip342)" cx="2236.99" cy="969.526" r="10.8" fill="#ee7733" fill-rule="evenodd" fill-opacity="1" stroke="#000000" stroke-opacity="1" stroke-width="0"/>
<circle clip-path="url(#clip342)" cx="2297.95" cy="969.526" r="10.8" fill="#ee7733" fill-rule="evenodd" fill-opacity="1" stroke="#000000" stroke-opacity="1" stroke-width="0"/>
<circle clip-path="url(#clip342)" cx="2358.92" cy="969.526" r="10.8" fill="#ee7733" fill-rule="evenodd" fill-opacity="1" stroke="#000000" stroke-opacity="1" stroke-width="0"/>
<circle clip-path="url(#clip342)" cx="2419.89" cy="969.526" r="10.8" fill="#ee7733" fill-rule="evenodd" fill-opacity="1" stroke="#000000" stroke-opacity="1" stroke-width="0"/>
<circle clip-path="url(#clip342)" cx="2480.86" cy="969.526" r="10.8" fill="#ee7733" fill-rule="evenodd" fill-opacity="1" stroke="#000000" stroke-opacity="1" stroke-width="0"/>
<circle clip-path="url(#clip342)" cx="2541.82" cy="969.526" r="10.8" fill="#ee7733" fill-rule="evenodd" fill-opacity="1" stroke="#000000" stroke-opacity="1" stroke-width="0"/>
<circle clip-path="url(#clip342)" cx="2602.79" cy="969.526" r="10.8" fill="#ee7733" fill-rule="evenodd" fill-opacity="1" stroke="#000000" stroke-opacity="1" stroke-width="0"/>
<circle clip-path="url(#clip342)" cx="2663.76" cy="969.526" r="10.8" fill="#ee7733" fill-rule="evenodd" fill-opacity="1" stroke="#000000" stroke-opacity="1" stroke-width="0"/>
<circle clip-path="url(#clip342)" cx="2724.73" cy="969.526" r="10.8" fill="#ee7733" fill-rule="evenodd" fill-opacity="1" stroke="#000000" stroke-opacity="1" stroke-width="0"/>
<circle clip-path="url(#clip342)" cx="2785.69" cy="969.526" r="10.8" fill="#ee7733" fill-rule="evenodd" fill-opacity="1" stroke="#000000" stroke-opacity="1" stroke-width="0"/>
<circle clip-path="url(#clip342)" cx="2846.66" cy="969.526" r="10.8" fill="#ee7733" fill-rule="evenodd" fill-opacity="1" stroke="#000000" stroke-opacity="1" stroke-width="0"/>
<circle clip-path="url(#clip342)" cx="2907.63" cy="969.526" r="10.8" fill="#ee7733" fill-rule="evenodd" fill-opacity="1" stroke="#000000" stroke-opacity="1" stroke-width="0"/>
<circle clip-path="url(#clip342)" cx="2968.6" cy="969.526" r="10.8" fill="#ee7733" fill-rule="evenodd" fill-opacity="1" stroke="#000000" stroke-opacity="1" stroke-width="0"/>
<circle clip-path="url(#clip342)" cx="3029.56" cy="969.526" r="10.8" fill="#ee7733" fill-rule="evenodd" fill-opacity="1" stroke="#000000" stroke-opacity="1" stroke-width="0"/>
<circle clip-path="url(#clip342)" cx="3090.53" cy="969.526" r="10.8" fill="#ee7733" fill-rule="evenodd" fill-opacity="1" stroke="#000000" stroke-opacity="1" stroke-width="0"/>
<circle clip-path="url(#clip342)" cx="3151.5" cy="969.526" r="10.8" fill="#ee7733" fill-rule="evenodd" fill-opacity="1" stroke="#000000" stroke-opacity="1" stroke-width="0"/>
<circle clip-path="url(#clip342)" cx="3212.47" cy="969.526" r="10.8" fill="#ee7733" fill-rule="evenodd" fill-opacity="1" stroke="#000000" stroke-opacity="1" stroke-width="0"/>
<circle clip-path="url(#clip342)" cx="3273.43" cy="969.526" r="10.8" fill="#ee7733" fill-rule="evenodd" fill-opacity="1" stroke="#000000" stroke-opacity="1" stroke-width="0"/>
<circle clip-path="url(#clip342)" cx="3334.4" cy="969.526" r="10.8" fill="#ee7733" fill-rule="evenodd" fill-opacity="1" stroke="#000000" stroke-opacity="1" stroke-width="0"/>
<circle clip-path="url(#clip342)" cx="3395.37" cy="969.526" r="10.8" fill="#ee7733" fill-rule="evenodd" fill-opacity="1" stroke="#000000" stroke-opacity="1" stroke-width="0"/>
<circle clip-path="url(#clip342)" cx="3456.34" cy="969.526" r="10.8" fill="#ee7733" fill-rule="evenodd" fill-opacity="1" stroke="#000000" stroke-opacity="1" stroke-width="0"/>
<circle clip-path="url(#clip342)" cx="350.042" cy="969.526" r="28.8" fill="#0077bb" fill-rule="evenodd" fill-opacity="0.75" stroke="#000000" stroke-opacity="0.75" stroke-width="0"/>
<circle clip-path="url(#clip342)" cx="362.236" cy="969.526" r="28.8" fill="#0077bb" fill-rule="evenodd" fill-opacity="0.75" stroke="#000000" stroke-opacity="0.75" stroke-width="0"/>
<circle clip-path="url(#clip342)" cx="386.623" cy="969.526" r="28.8" fill="#0077bb" fill-rule="evenodd" fill-opacity="0.75" stroke="#000000" stroke-opacity="0.75" stroke-width="0"/>
<circle clip-path="url(#clip342)" cx="435.397" cy="969.526" r="28.8" fill="#0077bb" fill-rule="evenodd" fill-opacity="0.75" stroke="#000000" stroke-opacity="0.75" stroke-width="0"/>
<circle clip-path="url(#clip342)" cx="532.945" cy="969.526" r="28.8" fill="#0077bb" fill-rule="evenodd" fill-opacity="0.75" stroke="#000000" stroke-opacity="0.75" stroke-width="0"/>
<circle clip-path="url(#clip342)" cx="728.041" cy="969.526" r="28.8" fill="#0077bb" fill-rule="evenodd" fill-opacity="0.75" stroke="#000000" stroke-opacity="0.75" stroke-width="0"/>
<circle clip-path="url(#clip342)" cx="1118.23" cy="969.526" r="28.8" fill="#0077bb" fill-rule="evenodd" fill-opacity="0.75" stroke="#000000" stroke-opacity="0.75" stroke-width="0"/>
<circle clip-path="url(#clip342)" cx="1898.62" cy="969.526" r="28.8" fill="#0077bb" fill-rule="evenodd" fill-opacity="0.75" stroke="#000000" stroke-opacity="0.75" stroke-width="0"/>
<circle clip-path="url(#clip342)" cx="3459.38" cy="969.526" r="28.8" fill="#0077bb" fill-rule="evenodd" fill-opacity="0.75" stroke="#000000" stroke-opacity="0.75" stroke-width="0"/>
<path clip-path="url(#clip340)" d="M363.593 319.268 L873.807 319.268 L873.807 163.748 L363.593 163.748  Z" fill="#ffffff" fill-rule="evenodd" fill-opacity="0.9"/>
<polyline clip-path="url(#clip340)" style="stroke:#222255; stroke-linecap:round; stroke-linejoin:round; stroke-width:4; stroke-opacity:0.1; fill:none" points="363.593,319.268 873.807,319.268 873.807,163.748 363.593,163.748 363.593,319.268 "/>
<circle clip-path="url(#clip340)" cx="510.221" cy="215.588" r="23.04" fill="#ee7733" fill-rule="evenodd" fill-opacity="1" stroke="#000000" stroke-opacity="1" stroke-width="0"/>
<path clip-path="url(#clip340)" d="M656.85 198.308 L661.549 198.308 L661.549 219.303 Q661.549 224.859 663.562 227.312 Q665.576 229.743 670.09 229.743 Q674.581 229.743 676.595 227.312 Q678.609 224.859 678.609 219.303 L678.609 198.308 L683.308 198.308 L683.308 219.882 Q683.308 226.641 679.951 230.09 Q676.618 233.539 670.09 233.539 Q663.539 233.539 660.183 230.09 Q656.85 226.641 656.85 219.882 L656.85 198.308 Z" fill="#000000" fill-rule="nonzero" fill-opacity="1" /><path clip-path="url(#clip340)" d="M713.446 217.22 L713.446 232.868 L709.187 232.868 L709.187 217.359 Q709.187 213.678 707.752 211.849 Q706.317 210.021 703.446 210.021 Q699.997 210.021 698.007 212.22 Q696.016 214.419 696.016 218.215 L696.016 232.868 L691.734 232.868 L691.734 206.942 L696.016 206.942 L696.016 210.97 Q697.544 208.632 699.604 207.474 Q701.687 206.317 704.396 206.317 Q708.863 206.317 711.155 209.095 Q713.446 211.849 713.446 217.22 Z" fill="#000000" fill-rule="nonzero" fill-opacity="1" /><path clip-path="url(#clip340)" d="M721.942 206.942 L726.201 206.942 L726.201 232.868 L721.942 232.868 L721.942 206.942 M721.942 196.849 L726.201 196.849 L726.201 202.243 L721.942 202.243 L721.942 196.849 Z" fill="#000000" fill-rule="nonzero" fill-opacity="1" /><path clip-path="url(#clip340)" d="M748.238 196.849 L748.238 200.391 L744.164 200.391 Q741.872 200.391 740.969 201.317 Q740.09 202.243 740.09 204.65 L740.09 206.942 L747.104 206.942 L747.104 210.252 L740.09 210.252 L740.09 232.868 L735.807 232.868 L735.807 210.252 L731.733 210.252 L731.733 206.942 L735.807 206.942 L735.807 205.136 Q735.807 200.808 737.821 198.84 Q739.835 196.849 744.21 196.849 L748.238 196.849 Z" fill="#000000" fill-rule="nonzero" fill-opacity="1" /><path clip-path="url(#clip340)" d="M761.849 209.928 Q758.423 209.928 756.432 212.613 Q754.442 215.275 754.442 219.928 Q754.442 224.581 756.409 227.266 Q758.4 229.928 761.849 229.928 Q765.252 229.928 767.242 227.243 Q769.233 224.558 769.233 219.928 Q769.233 215.322 767.242 212.636 Q765.252 209.928 761.849 209.928 M761.849 206.317 Q767.404 206.317 770.576 209.928 Q773.747 213.539 773.747 219.928 Q773.747 226.294 770.576 229.928 Q767.404 233.539 761.849 233.539 Q756.27 233.539 753.099 229.928 Q749.951 226.294 749.951 219.928 Q749.951 213.539 753.099 209.928 Q756.27 206.317 761.849 206.317 Z" fill="#000000" fill-rule="nonzero" fill-opacity="1" /><path clip-path="url(#clip340)" d="M795.83 210.923 Q795.113 210.507 794.256 210.322 Q793.423 210.113 792.404 210.113 Q788.793 210.113 786.849 212.474 Q784.928 214.812 784.928 219.21 L784.928 232.868 L780.645 232.868 L780.645 206.942 L784.928 206.942 L784.928 210.97 Q786.27 208.609 788.423 207.474 Q790.576 206.317 793.654 206.317 Q794.094 206.317 794.627 206.386 Q795.159 206.433 795.807 206.548 L795.83 210.923 Z" fill="#000000" fill-rule="nonzero" fill-opacity="1" /><path clip-path="url(#clip340)" d="M819.65 211.919 Q821.247 209.048 823.469 207.683 Q825.691 206.317 828.7 206.317 Q832.751 206.317 834.95 209.164 Q837.149 211.988 837.149 217.22 L837.149 232.868 L832.867 232.868 L832.867 217.359 Q832.867 213.632 831.548 211.826 Q830.228 210.021 827.52 210.021 Q824.21 210.021 822.288 212.22 Q820.367 214.419 820.367 218.215 L820.367 232.868 L816.085 232.868 L816.085 217.359 Q816.085 213.609 814.765 211.826 Q813.446 210.021 810.691 210.021 Q807.427 210.021 805.506 212.243 Q803.585 214.442 803.585 218.215 L803.585 232.868 L799.302 232.868 L799.302 206.942 L803.585 206.942 L803.585 210.97 Q805.043 208.585 807.08 207.451 Q809.117 206.317 811.918 206.317 Q814.742 206.317 816.71 207.752 Q818.7 209.187 819.65 211.919 Z" fill="#000000" fill-rule="nonzero" fill-opacity="1" /><circle clip-path="url(#clip340)" cx="510.221" cy="267.428" r="23.04" fill="#0077bb" fill-rule="evenodd" fill-opacity="0.75" stroke="#000000" stroke-opacity="0.75" stroke-width="0"/>
<path clip-path="url(#clip340)" d="M661.525 268.203 L661.525 280.865 L669.025 280.865 Q672.798 280.865 674.604 279.314 Q676.433 277.74 676.433 274.523 Q676.433 271.282 674.604 269.754 Q672.798 268.203 669.025 268.203 L661.525 268.203 M661.525 253.99 L661.525 264.407 L668.447 264.407 Q671.873 264.407 673.539 263.134 Q675.229 261.837 675.229 259.199 Q675.229 256.583 673.539 255.287 Q671.873 253.99 668.447 253.99 L661.525 253.99 M656.85 250.148 L668.794 250.148 Q674.141 250.148 677.035 252.37 Q679.928 254.592 679.928 258.689 Q679.928 261.861 678.447 263.736 Q676.965 265.611 674.095 266.074 Q677.544 266.814 679.442 269.175 Q681.363 271.513 681.363 275.032 Q681.363 279.661 678.215 282.185 Q675.067 284.708 669.257 284.708 L656.85 284.708 L656.85 250.148 Z" fill="#000000" fill-rule="nonzero" fill-opacity="1" /><path clip-path="url(#clip340)" d="M689.187 258.782 L693.447 258.782 L693.447 284.708 L689.187 284.708 L689.187 258.782 M689.187 248.689 L693.447 248.689 L693.447 254.083 L689.187 254.083 L689.187 248.689 Z" fill="#000000" fill-rule="nonzero" fill-opacity="1" /><path clip-path="url(#clip340)" d="M723.909 269.06 L723.909 284.708 L719.65 284.708 L719.65 269.199 Q719.65 265.518 718.215 263.689 Q716.78 261.861 713.909 261.861 Q710.46 261.861 708.47 264.06 Q706.479 266.259 706.479 270.055 L706.479 284.708 L702.196 284.708 L702.196 258.782 L706.479 258.782 L706.479 262.81 Q708.007 260.472 710.067 259.314 Q712.15 258.157 714.858 258.157 Q719.326 258.157 721.618 260.935 Q723.909 263.689 723.909 269.06 Z" fill="#000000" fill-rule="nonzero" fill-opacity="1" /><path clip-path="url(#clip340)" d="M744.187 271.675 Q739.025 271.675 737.034 272.856 Q735.044 274.036 735.044 276.884 Q735.044 279.152 736.525 280.495 Q738.03 281.814 740.599 281.814 Q744.141 281.814 746.27 279.314 Q748.423 276.791 748.423 272.624 L748.423 271.675 L744.187 271.675 M752.682 269.916 L752.682 284.708 L748.423 284.708 L748.423 280.773 Q746.965 283.134 744.789 284.268 Q742.613 285.379 739.465 285.379 Q735.483 285.379 733.122 283.157 Q730.784 280.911 730.784 277.161 Q730.784 272.786 733.701 270.564 Q736.641 268.342 742.451 268.342 L748.423 268.342 L748.423 267.925 Q748.423 264.986 746.479 263.388 Q744.557 261.768 741.062 261.768 Q738.84 261.768 736.733 262.3 Q734.627 262.833 732.682 263.898 L732.682 259.962 Q735.02 259.06 737.219 258.62 Q739.419 258.157 741.502 258.157 Q747.127 258.157 749.905 261.074 Q752.682 263.99 752.682 269.916 Z" fill="#000000" fill-rule="nonzero" fill-opacity="1" /><path clip-path="url(#clip340)" d="M776.478 262.763 Q775.761 262.347 774.904 262.162 Q774.071 261.953 773.053 261.953 Q769.441 261.953 767.497 264.314 Q765.576 266.652 765.576 271.05 L765.576 284.708 L761.293 284.708 L761.293 258.782 L765.576 258.782 L765.576 262.81 Q766.918 260.449 769.071 259.314 Q771.224 258.157 774.303 258.157 Q774.742 258.157 775.275 258.226 Q775.807 258.273 776.455 258.388 L776.478 262.763 Z" fill="#000000" fill-rule="nonzero" fill-opacity="1" /><path clip-path="url(#clip340)" d="M791.733 287.115 Q789.927 291.745 788.215 293.157 Q786.502 294.569 783.631 294.569 L780.228 294.569 L780.228 291.004 L782.728 291.004 Q784.488 291.004 785.46 290.171 Q786.432 289.337 787.613 286.235 L788.377 284.291 L777.891 258.782 L782.404 258.782 L790.506 279.06 L798.608 258.782 L803.122 258.782 L791.733 287.115 Z" fill="#000000" fill-rule="nonzero" fill-opacity="1" /></svg>
