<?xml version="1.0" encoding="utf-8"?>
<svg xmlns="http://www.w3.org/2000/svg" xmlns:xlink="http://www.w3.org/1999/xlink" width="900" height="650" viewBox="0 0 3600 2600">
<defs>
  <clipPath id="clip210">
    <rect x="0" y="0" width="3600" height="2600"/>
  </clipPath>
</defs>
<path clip-path="url(#clip210)" d="M0 2600 L3600 2600 L3600 0 L0 0  Z" fill="#595959" fill-rule="evenodd" fill-opacity="1"/>
<defs>
  <clipPath id="clip211">
    <rect x="720" y="0" width="2521" height="2521"/>
  </clipPath>
</defs>
<defs>
  <clipPath id="clip212">
    <rect x="299" y="133" width="3255" height="2229"/>
  </clipPath>
</defs>
<path clip-path="url(#clip210)" d="M299.14 2361.63 L3552.76 2361.63 L3552.76 133.192 L299.14 133.192  Z" fill="#595959" fill-rule="evenodd" fill-opacity="1"/>
<polyline clip-path="url(#clip212)" style="stroke:#ffffff; stroke-linecap:round; stroke-linejoin:round; stroke-width:2; stroke-opacity:0.5; fill:none" points="842.067,2361.63 842.067,133.192 "/>
<polyline clip-path="url(#clip212)" style="stroke:#ffffff; stroke-linecap:round; stroke-linejoin:round; stroke-width:2; stroke-opacity:0.5; fill:none" points="1975.01,2361.63 1975.01,133.192 "/>
<polyline clip-path="url(#clip212)" style="stroke:#ffffff; stroke-linecap:round; stroke-linejoin:round; stroke-width:2; stroke-opacity:0.5; fill:none" points="3107.95,2361.63 3107.95,133.192 "/>
<polyline clip-path="url(#clip212)" style="stroke:#ffffff; stroke-linecap:round; stroke-linejoin:round; stroke-width:2; stroke-opacity:0.3; fill:none" points="391.223,2361.63 391.223,133.192 "/>
<polyline clip-path="url(#clip212)" style="stroke:#ffffff; stroke-linecap:round; stroke-linejoin:round; stroke-width:2; stroke-opacity:0.3; fill:none" points="501.017,2361.63 501.017,133.192 "/>
<polyline clip-path="url(#clip212)" style="stroke:#ffffff; stroke-linecap:round; stroke-linejoin:round; stroke-width:2; stroke-opacity:0.3; fill:none" points="590.724,2361.63 590.724,133.192 "/>
<polyline clip-path="url(#clip212)" style="stroke:#ffffff; stroke-linecap:round; stroke-linejoin:round; stroke-width:2; stroke-opacity:0.3; fill:none" points="666.571,2361.63 666.571,133.192 "/>
<polyline clip-path="url(#clip212)" style="stroke:#ffffff; stroke-linecap:round; stroke-linejoin:round; stroke-width:2; stroke-opacity:0.3; fill:none" points="732.273,2361.63 732.273,133.192 "/>
<polyline clip-path="url(#clip212)" style="stroke:#ffffff; stroke-linecap:round; stroke-linejoin:round; stroke-width:2; stroke-opacity:0.3; fill:none" points="790.226,2361.63 790.226,133.192 "/>
<polyline clip-path="url(#clip212)" style="stroke:#ffffff; stroke-linecap:round; stroke-linejoin:round; stroke-width:2; stroke-opacity:0.3; fill:none" points="1183.12,2361.63 1183.12,133.192 "/>
<polyline clip-path="url(#clip212)" style="stroke:#ffffff; stroke-linecap:round; stroke-linejoin:round; stroke-width:2; stroke-opacity:0.3; fill:none" points="1382.62,2361.63 1382.62,133.192 "/>
<polyline clip-path="url(#clip212)" style="stroke:#ffffff; stroke-linecap:round; stroke-linejoin:round; stroke-width:2; stroke-opacity:0.3; fill:none" points="1524.17,2361.63 1524.17,133.192 "/>
<polyline clip-path="url(#clip212)" style="stroke:#ffffff; stroke-linecap:round; stroke-linejoin:round; stroke-width:2; stroke-opacity:0.3; fill:none" points="1633.96,2361.63 1633.96,133.192 "/>
<polyline clip-path="url(#clip212)" style="stroke:#ffffff; stroke-linecap:round; stroke-linejoin:round; stroke-width:2; stroke-opacity:0.3; fill:none" points="1723.67,2361.63 1723.67,133.192 "/>
<polyline clip-path="url(#clip212)" style="stroke:#ffffff; stroke-linecap:round; stroke-linejoin:round; stroke-width:2; stroke-opacity:0.3; fill:none" points="1799.51,2361.63 1799.51,133.192 "/>
<polyline clip-path="url(#clip212)" style="stroke:#ffffff; stroke-linecap:round; stroke-linejoin:round; stroke-width:2; stroke-opacity:0.3; fill:none" points="1865.22,2361.63 1865.22,133.192 "/>
<polyline clip-path="url(#clip212)" style="stroke:#ffffff; stroke-linecap:round; stroke-linejoin:round; stroke-width:2; stroke-opacity:0.3; fill:none" points="1923.17,2361.63 1923.17,133.192 "/>
<polyline clip-path="url(#clip212)" style="stroke:#ffffff; stroke-linecap:round; stroke-linejoin:round; stroke-width:2; stroke-opacity:0.3; fill:none" points="2316.06,2361.63 2316.06,133.192 "/>
<polyline clip-path="url(#clip212)" style="stroke:#ffffff; stroke-linecap:round; stroke-linejoin:round; stroke-width:2; stroke-opacity:0.3; fill:none" points="2515.56,2361.63 2515.56,133.192 "/>
<polyline clip-path="url(#clip212)" style="stroke:#ffffff; stroke-linecap:round; stroke-linejoin:round; stroke-width:2; stroke-opacity:0.3; fill:none" points="2657.11,2361.63 2657.11,133.192 "/>
<polyline clip-path="url(#clip212)" style="stroke:#ffffff; stroke-linecap:round; stroke-linejoin:round; stroke-width:2; stroke-opacity:0.3; fill:none" points="2766.9,2361.63 2766.9,133.192 "/>
<polyline clip-path="url(#clip212)" style="stroke:#ffffff; stroke-linecap:round; stroke-linejoin:round; stroke-width:2; stroke-opacity:0.3; fill:none" points="2856.61,2361.63 2856.61,133.192 "/>
<polyline clip-path="url(#clip212)" style="stroke:#ffffff; stroke-linecap:round; stroke-linejoin:round; stroke-width:2; stroke-opacity:0.3; fill:none" points="2932.46,2361.63 2932.46,133.192 "/>
<polyline clip-path="url(#clip212)" style="stroke:#ffffff; stroke-linecap:round; stroke-linejoin:round; stroke-width:2; stroke-opacity:0.3; fill:none" points="2998.16,2361.63 2998.16,133.192 "/>
<polyline clip-path="url(#clip212)" style="stroke:#ffffff; stroke-linecap:round; stroke-linejoin:round; stroke-width:2; stroke-opacity:0.3; fill:none" points="3056.11,2361.63 3056.11,133.192 "/>
<polyline clip-path="url(#clip212)" style="stroke:#ffffff; stroke-linecap:round; stroke-linejoin:round; stroke-width:2; stroke-opacity:0.3; fill:none" points="3449,2361.63 3449,133.192 "/>
<polyline clip-path="url(#clip210)" style="stroke:#ffffff; stroke-linecap:round; stroke-linejoin:round; stroke-width:4; stroke-opacity:1; fill:none" points="299.14,2361.63 3552.76,2361.63 "/>
<polyline clip-path="url(#clip210)" style="stroke:#ffffff; stroke-linecap:round; stroke-linejoin:round; stroke-width:4; stroke-opacity:1; fill:none" points="842.067,2361.63 842.067,2342.73 "/>
<polyline clip-path="url(#clip210)" style="stroke:#ffffff; stroke-linecap:round; stroke-linejoin:round; stroke-width:4; stroke-opacity:1; fill:none" points="1975.01,2361.63 1975.01,2342.73 "/>
<polyline clip-path="url(#clip210)" style="stroke:#ffffff; stroke-linecap:round; stroke-linejoin:round; stroke-width:4; stroke-opacity:1; fill:none" points="3107.95,2361.63 3107.95,2342.73 "/>
<polyline clip-path="url(#clip210)" style="stroke:#ffffff; stroke-linecap:round; stroke-linejoin:round; stroke-width:4; stroke-opacity:1; fill:none" points="391.223,2361.63 391.223,2352.18 "/>
<polyline clip-path="url(#clip210)" style="stroke:#ffffff; stroke-linecap:round; stroke-linejoin:round; stroke-width:4; stroke-opacity:1; fill:none" points="501.017,2361.63 501.017,2352.18 "/>
<polyline clip-path="url(#clip210)" style="stroke:#ffffff; stroke-linecap:round; stroke-linejoin:round; stroke-width:4; stroke-opacity:1; fill:none" points="590.724,2361.63 590.724,2352.18 "/>
<polyline clip-path="url(#clip210)" style="stroke:#ffffff; stroke-linecap:round; stroke-linejoin:round; stroke-width:4; stroke-opacity:1; fill:none" points="666.571,2361.63 666.571,2352.18 "/>
<polyline clip-path="url(#clip210)" style="stroke:#ffffff; stroke-linecap:round; stroke-linejoin:round; stroke-width:4; stroke-opacity:1; fill:none" points="732.273,2361.63 732.273,2352.18 "/>
<polyline clip-path="url(#clip210)" style="stroke:#ffffff; stroke-linecap:round; stroke-linejoin:round; stroke-width:4; stroke-opacity:1; fill:none" points="790.226,2361.63 790.226,2352.18 "/>
<polyline clip-path="url(#clip210)" style="stroke:#ffffff; stroke-linecap:round; stroke-linejoin:round; stroke-width:4; stroke-opacity:1; fill:none" points="1183.12,2361.63 1183.12,2352.18 "/>
<polyline clip-path="url(#clip210)" style="stroke:#ffffff; stroke-linecap:round; stroke-linejoin:round; stroke-width:4; stroke-opacity:1; fill:none" points="1382.62,2361.63 1382.62,2352.18 "/>
<polyline clip-path="url(#clip210)" style="stroke:#ffffff; stroke-linecap:round; stroke-linejoin:round; stroke-width:4; stroke-opacity:1; fill:none" points="1524.17,2361.63 1524.17,2352.18 "/>
<polyline clip-path="url(#clip210)" style="stroke:#ffffff; stroke-linecap:round; stroke-linejoin:round; stroke-width:4; stroke-opacity:1; fill:none" points="1633.96,2361.63 1633.96,2352.18 "/>
<polyline clip-path="url(#clip210)" style="stroke:#ffffff; stroke-linecap:round; stroke-linejoin:round; stroke-width:4; stroke-opacity:1; fill:none" points="1723.67,2361.63 1723.67,2352.18 "/>
<polyline clip-path="url(#clip210)" style="stroke:#ffffff; stroke-linecap:round; stroke-linejoin:round; stroke-width:4; stroke-opacity:1; fill:none" points="1799.51,2361.63 1799.51,2352.18 "/>
<polyline clip-path="url(#clip210)" style="stroke:#ffffff; stroke-linecap:round; stroke-linejoin:round; stroke-width:4; stroke-opacity:1; fill:none" points="1865.22,2361.63 1865.22,2352.18 "/>
<polyline clip-path="url(#clip210)" style="stroke:#ffffff; stroke-linecap:round; stroke-linejoin:round; stroke-width:4; stroke-opacity:1; fill:none" points="1923.17,2361.63 1923.17,2352.18 "/>
<polyline clip-path="url(#clip210)" style="stroke:#ffffff; stroke-linecap:round; stroke-linejoin:round; stroke-width:4; stroke-opacity:1; fill:none" points="2316.06,2361.63 2316.06,2352.18 "/>
<polyline clip-path="url(#clip210)" style="stroke:#ffffff; stroke-linecap:round; stroke-linejoin:round; stroke-width:4; stroke-opacity:1; fill:none" points="2515.56,2361.63 2515.56,2352.18 "/>
<polyline clip-path="url(#clip210)" style="stroke:#ffffff; stroke-linecap:round; stroke-linejoin:round; stroke-width:4; stroke-opacity:1; fill:none" points="2657.11,2361.63 2657.11,2352.18 "/>
<polyline clip-path="url(#clip210)" style="stroke:#ffffff; stroke-linecap:round; stroke-linejoin:round; stroke-width:4; stroke-opacity:1; fill:none" points="2766.9,2361.63 2766.9,2352.18 "/>
<polyline clip-path="url(#clip210)" style="stroke:#ffffff; stroke-linecap:round; stroke-linejoin:round; stroke-width:4; stroke-opacity:1; fill:none" points="2856.61,2361.63 2856.61,2352.18 "/>
<polyline clip-path="url(#clip210)" style="stroke:#ffffff; stroke-linecap:round; stroke-linejoin:round; stroke-width:4; stroke-opacity:1; fill:none" points="2932.46,2361.63 2932.46,2352.18 "/>
<polyline clip-path="url(#clip210)" style="stroke:#ffffff; stroke-linecap:round; stroke-linejoin:round; stroke-width:4; stroke-opacity:1; fill:none" points="2998.16,2361.63 2998.16,2352.18 "/>
<polyline clip-path="url(#clip210)" style="stroke:#ffffff; stroke-linecap:round; stroke-linejoin:round; stroke-width:4; stroke-opacity:1; fill:none" points="3056.11,2361.63 3056.11,2352.18 "/>
<polyline clip-path="url(#clip210)" style="stroke:#ffffff; stroke-linecap:round; stroke-linejoin:round; stroke-width:4; stroke-opacity:1; fill:none" points="3449,2361.63 3449,2352.18 "/>
<g clip-path="url(#clip210)">
<text style="fill:#ffffff; fill-opacity:1; font-family:Times New Roman,TimesNewRoman,Times,Baskerville,Georgia,serif; font-size:65px; text-anchor:start;" transform="rotate(0, 796.183, 2464)" x="796.183" y="2464">10</text>
</g>
<g clip-path="url(#clip210)">
<text style="fill:#ffffff; fill-opacity:1; font-family:Times New Roman,TimesNewRoman,Times,Baskerville,Georgia,serif; font-size:53px; text-anchor:start;" transform="rotate(0, 861.44, 2429.74)" x="861.44" y="2429.74">1</text>
</g>
<g clip-path="url(#clip210)">
<text style="fill:#ffffff; fill-opacity:1; font-family:Times New Roman,TimesNewRoman,Times,Baskerville,Georgia,serif; font-size:65px; text-anchor:start;" transform="rotate(0, 1929.13, 2464)" x="1929.13" y="2464">10</text>
</g>
<g clip-path="url(#clip210)">
<text style="fill:#ffffff; fill-opacity:1; font-family:Times New Roman,TimesNewRoman,Times,Baskerville,Georgia,serif; font-size:53px; text-anchor:start;" transform="rotate(0, 1994.38, 2429.74)" x="1994.38" y="2429.74">2</text>
</g>
<g clip-path="url(#clip210)">
<text style="fill:#ffffff; fill-opacity:1; font-family:Times New Roman,TimesNewRoman,Times,Baskerville,Georgia,serif; font-size:65px; text-anchor:start;" transform="rotate(0, 3062.07, 2464)" x="3062.07" y="2464">10</text>
</g>
<g clip-path="url(#clip210)">
<text style="fill:#ffffff; fill-opacity:1; font-family:Times New Roman,TimesNewRoman,Times,Baskerville,Georgia,serif; font-size:53px; text-anchor:start;" transform="rotate(0, 3127.33, 2429.74)" x="3127.33" y="2429.74">3</text>
</g>
<path clip-path="url(#clip210)" d="M1524.66 2564.08 L1524.66 2561.31 L1526.07 2561.31 Q1530.94 2561.31 1532.35 2560.61 Q1533.8 2559.86 1533.93 2557.49 L1533.93 2509.22 Q1533.84 2506.81 1532.43 2506.15 Q1531.03 2505.45 1525.98 2505.45 L1524.66 2505.45 L1524.66 2502.64 Q1531.6 2502.9 1538.49 2502.9 Q1544.86 2502.9 1551.19 2502.64 L1551.19 2505.45 L1550.18 2505.45 Q1544.77 2505.45 1543.33 2506.15 Q1541.92 2506.85 1541.92 2509.66 L1541.92 2538.16 L1569.32 2511.99 Q1571.48 2509.84 1571.52 2508.39 Q1571.52 2505.8 1567.52 2505.45 L1567.52 2502.64 Q1572.93 2502.9 1578.24 2502.9 Q1582.46 2502.9 1586.63 2502.64 L1586.63 2505.45 Q1584.91 2505.53 1583.51 2505.8 Q1582.1 2506.06 1580.96 2506.32 Q1579.86 2506.59 1578.28 2507.69 Q1576.7 2508.74 1575.65 2509.49 Q1574.64 2510.19 1572.4 2512.25 Q1570.16 2514.32 1568.67 2515.72 Q1567.17 2517.13 1563.66 2520.55 Q1560.19 2523.98 1557.64 2526.31 L1557.64 2526.39 L1578.15 2556.52 Q1580.3 2559.6 1582.06 2560.47 Q1583.82 2561.31 1587.51 2561.31 L1587.86 2561.31 L1587.86 2564.08 Q1582.63 2563.81 1577.19 2563.81 Q1570.91 2563.81 1564.67 2564.08 L1564.67 2561.31 Q1569.81 2561.31 1569.81 2558.59 Q1569.81 2557.4 1568.36 2555.16 Q1564.93 2550.02 1561.99 2545.72 Q1559.09 2541.41 1557.6 2539.26 Q1556.11 2537.11 1554.96 2535.44 Q1553.87 2533.77 1553.34 2532.98 Q1552.81 2532.15 1552.33 2531.45 Q1550.79 2532.89 1549.25 2534.39 Q1547.76 2535.84 1546.84 2536.67 Q1545.96 2537.46 1545.04 2538.34 Q1544.16 2539.17 1543.72 2539.57 Q1543.28 2539.97 1542.84 2540.49 Q1542.45 2540.98 1542.32 2541.19 Q1542.18 2541.41 1542.05 2541.77 Q1541.92 2542.12 1541.92 2542.38 Q1541.92 2542.6 1541.92 2543.13 L1541.92 2557.05 Q1541.92 2559.82 1543.33 2560.56 Q1544.77 2561.31 1550.26 2561.31 L1551.19 2561.31 L1551.19 2564.08 Q1544.34 2563.81 1537.31 2563.81 Q1535.99 2563.81 1524.66 2564.08 Z" fill="#ffffff" fill-rule="nonzero" fill-opacity="1" /><path clip-path="url(#clip210)" d="M1599.88 2559.24 Q1593.95 2553.36 1593.95 2544.84 Q1593.95 2536.28 1599.75 2530.04 Q1605.59 2523.76 1613.94 2523.76 Q1622.11 2523.76 1627.95 2530 Q1633.83 2536.19 1633.83 2544.84 Q1633.83 2553.32 1627.9 2559.2 Q1622.02 2565.09 1613.85 2565.09 Q1605.86 2565.09 1599.88 2559.24 M1601.42 2544.09 Q1601.42 2552.83 1603.7 2556.79 Q1607.22 2562.8 1613.94 2562.8 Q1617.27 2562.8 1620.04 2561 Q1622.85 2559.2 1624.39 2556.17 Q1626.37 2552.22 1626.37 2544.09 Q1626.37 2535.44 1623.99 2531.62 Q1620.48 2525.78 1613.85 2525.78 Q1610.95 2525.78 1608.1 2527.32 Q1605.28 2528.81 1603.57 2531.8 Q1601.42 2535.75 1601.42 2544.09 Z" fill="#ffffff" fill-rule="nonzero" fill-opacity="1" /><path clip-path="url(#clip210)" d="M1638.5 2558.41 Q1638.5 2556.7 1639.55 2555.6 Q1640.65 2554.46 1642.36 2554.46 Q1643.55 2554.46 1644.78 2555.38 Q1646.05 2556.26 1646.05 2558.23 Q1646.05 2561.48 1642.27 2562.01 Q1644.07 2563.29 1645.79 2563.29 Q1649.83 2563.29 1651.94 2557.18 Q1654.04 2551.03 1654.61 2536.63 Q1654.7 2535 1654.7 2531.23 Q1654.7 2528.81 1653.25 2528.11 Q1651.8 2527.36 1647.76 2527.36 L1647.41 2527.36 L1647.41 2525.38 L1684.35 2525.38 L1684.35 2527.36 L1683.73 2527.36 Q1679.78 2527.36 1678.59 2528.15 Q1677.45 2528.9 1677.36 2531.53 L1677.36 2557.88 Q1677.45 2560.47 1678.55 2561.26 Q1679.69 2562.01 1683.64 2562.01 L1684.35 2562.01 L1684.35 2564.08 Q1679.03 2563.81 1673.94 2563.81 L1673.59 2563.81 Q1669.37 2563.81 1664.14 2564.08 L1664.14 2562.01 L1664.76 2562.01 Q1668.8 2562.01 1669.9 2561.26 Q1671.04 2560.47 1671.04 2557.8 L1671.04 2532.59 Q1671.04 2529.16 1670.51 2528.28 Q1669.99 2527.36 1667.61 2527.36 L1660.98 2527.36 Q1659.88 2527.36 1659.27 2527.4 Q1658.66 2527.45 1658.13 2527.89 Q1657.65 2528.28 1657.43 2528.5 Q1657.21 2528.72 1657.07 2529.69 Q1656.94 2530.61 1656.94 2531.27 Q1656.94 2531.88 1656.9 2533.51 Q1656.85 2535.13 1656.85 2536.28 Q1656.24 2552.75 1653.65 2559.16 Q1651.1 2565.52 1645.88 2565.52 Q1642.63 2565.52 1640.56 2563.59 Q1638.5 2561.66 1638.5 2558.41 Z" fill="#ffffff" fill-rule="nonzero" fill-opacity="1" /><path clip-path="url(#clip210)" d="M1687.91 2564.08 L1687.91 2562.01 L1688.66 2562.01 Q1692.61 2562.01 1693.75 2561.26 Q1694.94 2560.47 1694.94 2557.88 L1694.94 2531.53 Q1694.85 2528.94 1693.67 2528.15 Q1692.52 2527.36 1688.57 2527.36 L1687.91 2527.36 L1687.91 2525.38 Q1691.25 2525.56 1697.93 2525.56 Q1704.78 2525.56 1708.16 2525.38 L1708.16 2527.36 L1707.72 2527.36 Q1703.85 2527.36 1702.58 2528.06 Q1701.31 2528.72 1701.22 2531.23 L1701.22 2554.63 Q1701.83 2553.84 1718.39 2533.11 Q1719.84 2531.23 1719.84 2530.44 Q1719.84 2529.07 1718.87 2528.37 Q1717.95 2527.67 1716.99 2527.58 Q1716.06 2527.45 1714.17 2527.36 L1712.94 2527.36 L1712.94 2525.38 Q1716.28 2525.56 1722.83 2525.56 Q1729.77 2525.56 1733.15 2525.38 L1733.15 2527.36 L1732.53 2527.36 Q1728.49 2527.36 1727.35 2528.15 Q1726.25 2528.9 1726.16 2531.53 L1726.16 2557.88 Q1726.25 2560.47 1727.35 2561.26 Q1728.49 2562.01 1732.44 2562.01 L1733.15 2562.01 L1733.15 2564.08 Q1727.92 2563.81 1722.74 2563.81 L1722.39 2563.81 Q1718.17 2563.81 1712.94 2564.08 L1712.94 2562.01 L1713.3 2562.01 Q1717.25 2562.01 1718.48 2561.31 Q1719.75 2560.56 1719.84 2558.06 L1719.84 2534.74 Q1718.21 2536.98 1702.67 2556.35 Q1701.22 2558.23 1701.22 2558.94 Q1701.22 2559.46 1701.31 2559.9 Q1701.39 2560.3 1701.66 2560.61 Q1701.97 2560.91 1702.19 2561.18 Q1702.4 2561.4 1702.84 2561.53 Q1703.28 2561.66 1703.55 2561.75 Q1703.85 2561.84 1704.43 2561.88 Q1705 2561.92 1705.22 2561.97 Q1705.48 2562.01 1706.14 2562.01 Q1706.8 2562.01 1706.88 2562.01 L1708.16 2562.01 L1708.16 2564.08 Q1702.93 2563.81 1697.71 2563.81 L1697.35 2563.81 Q1693.14 2563.81 1687.91 2564.08 Z" fill="#ffffff" fill-rule="nonzero" fill-opacity="1" /><path clip-path="url(#clip210)" d="M1737.33 2527.36 L1737.33 2525.38 Q1740.66 2525.56 1747.34 2525.56 Q1754.19 2525.56 1757.57 2525.38 L1757.57 2527.36 L1757.22 2527.36 Q1752.92 2527.36 1751.78 2528.15 Q1750.63 2528.9 1750.63 2531.8 L1750.63 2537.99 Q1750.63 2545.02 1756.56 2545.02 L1758.01 2545.02 Q1764.69 2544.84 1769.25 2542.86 L1769.25 2531.71 Q1769.25 2528.94 1768.07 2528.15 Q1766.93 2527.36 1762.62 2527.36 L1762.36 2527.36 L1762.36 2525.38 Q1765.7 2525.56 1772.24 2525.56 Q1779.18 2525.56 1782.56 2525.38 L1782.56 2527.36 L1781.95 2527.36 Q1777.91 2527.36 1776.76 2528.15 Q1775.67 2528.9 1775.58 2531.53 L1775.58 2557.88 Q1775.67 2560.47 1776.76 2561.26 Q1777.91 2562.01 1781.86 2562.01 L1782.56 2562.01 L1782.56 2564.08 Q1777.34 2563.81 1772.15 2563.81 L1771.8 2563.81 Q1767.59 2563.81 1762.36 2564.08 L1762.36 2562.01 L1762.62 2562.01 Q1767.02 2562.01 1768.11 2561.22 Q1769.25 2560.39 1769.25 2557.49 L1769.25 2544.75 Q1764.47 2546.99 1756.47 2546.99 Q1751.82 2546.99 1748.39 2545.19 Q1744.97 2543.39 1744.44 2539.79 Q1744.35 2539.35 1744.35 2537.11 L1744.35 2531.71 Q1744.35 2528.81 1743.04 2528.11 Q1741.72 2527.36 1737.33 2527.36 Z" fill="#ffffff" fill-rule="nonzero" fill-opacity="1" /><path clip-path="url(#clip210)" d="M1786.74 2544.27 Q1786.74 2535.79 1792.19 2529.78 Q1797.63 2523.76 1805.45 2523.76 Q1813.36 2523.76 1817.44 2528.9 Q1821.57 2534.04 1821.57 2541.41 Q1821.57 2542.78 1821.22 2543.04 Q1820.87 2543.3 1819.33 2543.3 L1794.21 2543.3 Q1794.21 2552.48 1796.93 2556.79 Q1800.71 2562.8 1807.08 2562.8 Q1807.95 2562.8 1809.01 2562.63 Q1810.06 2562.45 1812.21 2561.7 Q1814.37 2560.91 1816.25 2558.85 Q1818.14 2556.79 1819.24 2553.54 Q1819.5 2552.26 1820.38 2552.31 Q1821.57 2552.31 1821.57 2553.36 Q1821.57 2554.15 1820.69 2555.95 Q1819.86 2557.71 1818.23 2559.82 Q1816.61 2561.92 1813.44 2563.5 Q1810.33 2565.09 1806.55 2565.09 Q1798.64 2565.09 1792.67 2559.11 Q1786.74 2553.1 1786.74 2544.27 M1794.3 2541.41 L1815.64 2541.41 Q1815.64 2539.53 1815.29 2537.42 Q1814.98 2535.31 1814.01 2532.41 Q1813.09 2529.47 1810.9 2527.62 Q1808.7 2525.78 1805.45 2525.78 Q1804 2525.78 1802.42 2526.39 Q1800.88 2527.01 1798.99 2528.5 Q1797.11 2530 1795.79 2533.38 Q1794.47 2536.76 1794.3 2541.41 Z" fill="#ffffff" fill-rule="nonzero" fill-opacity="1" /><path clip-path="url(#clip210)" d="M1831.99 2559.16 Q1826.28 2553.18 1826.28 2544.66 Q1826.28 2536.1 1831.9 2529.95 Q1837.53 2523.76 1845.78 2523.76 Q1851.27 2523.76 1855.4 2526.39 Q1859.53 2528.99 1859.53 2533.42 Q1859.53 2535.4 1858.34 2536.54 Q1857.2 2537.64 1855.4 2537.64 Q1853.51 2537.64 1852.37 2536.5 Q1851.27 2535.31 1851.27 2533.51 Q1851.27 2532.72 1851.53 2531.93 Q1851.8 2531.14 1852.76 2530.3 Q1853.77 2529.47 1855.49 2529.34 Q1852.24 2526 1845.87 2526.04 Q1841.3 2526.04 1837.53 2530.35 Q1833.75 2534.65 1833.75 2544.49 Q1833.75 2549.63 1834.98 2553.4 Q1836.25 2557.14 1838.32 2559.07 Q1840.38 2561 1842.4 2561.92 Q1844.42 2562.8 1846.4 2562.8 Q1855.22 2562.8 1858.21 2553.36 Q1858.47 2552.48 1859.35 2552.48 Q1860.54 2552.48 1860.54 2553.36 Q1860.54 2553.8 1860.19 2554.94 Q1859.84 2556.08 1858.74 2557.88 Q1857.64 2559.68 1856.06 2561.26 Q1854.52 2562.8 1851.75 2563.94 Q1849.03 2565.09 1845.61 2565.09 Q1837.7 2565.09 1831.99 2559.16 Z" fill="#ffffff" fill-rule="nonzero" fill-opacity="1" /><path clip-path="url(#clip210)" d="M1865.82 2539.88 L1866.83 2525.38 L1905.22 2525.38 L1906.23 2539.88 L1903.99 2539.88 Q1903.72 2535.92 1903.37 2534.04 Q1903.06 2532.15 1902.01 2530.35 Q1901 2528.55 1899.07 2527.98 Q1897.14 2527.36 1893.8 2527.36 L1893.01 2527.36 Q1890.33 2527.36 1889.71 2528.24 Q1889.14 2529.07 1889.14 2532.59 Q1889.14 2533.11 1889.19 2534.12 Q1889.23 2535.13 1889.23 2535.57 L1889.23 2557.4 Q1889.32 2560.39 1890.77 2561.22 Q1892.26 2562.01 1897.93 2562.01 L1899.11 2562.01 L1899.11 2564.08 Q1892.17 2563.81 1885.45 2563.81 Q1880.49 2563.81 1873.03 2564.08 L1873.03 2562.01 L1874.12 2562.01 Q1879.7 2562.01 1881.28 2561.22 Q1882.91 2560.39 1882.91 2557.4 L1882.91 2530.79 Q1882.82 2528.46 1881.94 2527.93 Q1881.11 2527.36 1878.25 2527.36 Q1874.91 2527.36 1872.98 2527.98 Q1871.05 2528.55 1870 2530.35 Q1868.99 2532.15 1868.68 2534.04 Q1868.37 2535.92 1868.06 2539.88 L1865.82 2539.88 Z" fill="#ffffff" fill-rule="nonzero" fill-opacity="1" /><path clip-path="url(#clip210)" d="M1910.37 2564.08 L1910.37 2562.01 L1911.11 2562.01 Q1915.07 2562.01 1916.21 2561.26 Q1917.39 2560.47 1917.39 2557.88 L1917.39 2531.53 Q1917.3 2528.94 1916.12 2528.15 Q1914.98 2527.36 1911.02 2527.36 L1910.37 2527.36 L1910.37 2525.38 L1931.62 2525.38 Q1940.19 2525.38 1944.01 2528.33 Q1947.87 2531.23 1947.87 2534.48 Q1947.87 2537.64 1944.4 2539.75 Q1940.98 2541.85 1937.2 2542.78 L1937.2 2542.86 Q1942.51 2544.14 1946.16 2546.82 Q1949.85 2549.5 1949.85 2553.01 Q1949.85 2557.05 1946.38 2560.17 Q1942.95 2563.29 1937.64 2563.9 Q1936.36 2564.08 1933.95 2564.08 L1910.37 2564.08 M1923.67 2557.88 Q1923.67 2558.89 1923.72 2559.55 Q1923.76 2560.21 1924.02 2560.65 Q1924.33 2561.09 1924.42 2561.4 Q1924.51 2561.66 1925.12 2561.79 Q1925.78 2561.92 1925.91 2561.97 Q1926.04 2562.01 1926.92 2562.01 Q1927.85 2562.01 1928.02 2562.01 L1932.06 2562.01 Q1937.64 2562.01 1940.1 2559.07 Q1942.56 2556.08 1942.56 2552.83 Q1942.56 2549.58 1940.36 2546.68 Q1938.17 2543.74 1933.2 2543.74 L1923.67 2543.74 L1923.67 2557.88 M1923.67 2541.77 L1929.91 2541.77 Q1934.7 2541.77 1937.73 2539.75 Q1940.8 2537.73 1940.8 2534.48 Q1940.8 2531.97 1938.65 2529.69 Q1936.54 2527.36 1932.32 2527.36 L1927.76 2527.36 Q1926.4 2527.36 1925.82 2527.4 Q1925.3 2527.45 1924.68 2527.84 Q1924.07 2528.2 1923.85 2529.03 Q1923.67 2529.82 1923.67 2531.36 L1923.67 2541.77 Z" fill="#ffffff" fill-rule="nonzero" fill-opacity="1" /><path clip-path="url(#clip210)" d="M1960.84 2559.24 Q1954.91 2553.36 1954.91 2544.84 Q1954.91 2536.28 1960.71 2530.04 Q1966.55 2523.76 1974.89 2523.76 Q1983.06 2523.76 1988.9 2530 Q1994.79 2536.19 1994.79 2544.84 Q1994.79 2553.32 1988.86 2559.2 Q1982.97 2565.09 1974.8 2565.09 Q1966.81 2565.09 1960.84 2559.24 M1962.37 2544.09 Q1962.37 2552.83 1964.66 2556.79 Q1968.17 2562.8 1974.89 2562.8 Q1978.23 2562.8 1981 2561 Q1983.81 2559.2 1985.34 2556.17 Q1987.32 2552.22 1987.32 2544.09 Q1987.32 2535.44 1984.95 2531.62 Q1981.43 2525.78 1974.8 2525.78 Q1971.9 2525.78 1969.05 2527.32 Q1966.24 2528.81 1964.53 2531.8 Q1962.37 2535.75 1962.37 2544.09 Z" fill="#ffffff" fill-rule="nonzero" fill-opacity="1" /><path clip-path="url(#clip210)" d="M2023.22 2564.08 L2023.22 2562.01 L2023.97 2562.01 Q2027.92 2562.01 2029.06 2561.26 Q2030.25 2560.47 2030.25 2557.88 L2030.25 2531.53 Q2030.16 2528.94 2028.97 2528.15 Q2027.83 2527.36 2023.88 2527.36 L2023.22 2527.36 L2023.22 2525.38 L2044.48 2525.38 Q2053.04 2525.38 2056.86 2528.33 Q2060.73 2531.23 2060.73 2534.48 Q2060.73 2537.64 2057.26 2539.75 Q2053.83 2541.85 2050.05 2542.78 L2050.05 2542.86 Q2055.37 2544.14 2059.01 2546.82 Q2062.7 2549.5 2062.7 2553.01 Q2062.7 2557.05 2059.23 2560.17 Q2055.81 2563.29 2050.49 2563.9 Q2049.22 2564.08 2046.8 2564.08 L2023.22 2564.08 M2036.53 2557.88 Q2036.53 2558.89 2036.57 2559.55 Q2036.62 2560.21 2036.88 2560.65 Q2037.19 2561.09 2037.27 2561.4 Q2037.36 2561.66 2037.98 2561.79 Q2038.64 2561.92 2038.77 2561.97 Q2038.9 2562.01 2039.78 2562.01 Q2040.7 2562.01 2040.88 2562.01 L2044.92 2562.01 Q2050.49 2562.01 2052.95 2559.07 Q2055.41 2556.08 2055.41 2552.83 Q2055.41 2549.58 2053.22 2546.68 Q2051.02 2543.74 2046.06 2543.74 L2036.53 2543.74 L2036.53 2557.88 M2036.53 2541.77 L2042.76 2541.77 Q2047.55 2541.77 2050.58 2539.75 Q2053.66 2537.73 2053.66 2534.48 Q2053.66 2531.97 2051.5 2529.69 Q2049.4 2527.36 2045.18 2527.36 L2040.61 2527.36 Q2039.25 2527.36 2038.68 2527.4 Q2038.15 2527.45 2037.54 2527.84 Q2036.92 2528.2 2036.7 2529.03 Q2036.53 2529.82 2036.53 2531.36 L2036.53 2541.77 Z" fill="#ffffff" fill-rule="nonzero" fill-opacity="1" /><path clip-path="url(#clip210)" d="M2067.76 2544.27 Q2067.76 2535.79 2073.21 2529.78 Q2078.65 2523.76 2086.47 2523.76 Q2094.38 2523.76 2098.46 2528.9 Q2102.59 2534.04 2102.59 2541.41 Q2102.59 2542.78 2102.24 2543.04 Q2101.89 2543.3 2100.35 2543.3 L2075.23 2543.3 Q2075.23 2552.48 2077.95 2556.79 Q2081.73 2562.8 2088.1 2562.8 Q2088.98 2562.8 2090.03 2562.63 Q2091.08 2562.45 2093.24 2561.7 Q2095.39 2560.91 2097.28 2558.85 Q2099.16 2556.79 2100.26 2553.54 Q2100.53 2552.26 2101.4 2552.31 Q2102.59 2552.31 2102.59 2553.36 Q2102.59 2554.15 2101.71 2555.95 Q2100.88 2557.71 2099.25 2559.82 Q2097.63 2561.92 2094.47 2563.5 Q2091.35 2565.09 2087.57 2565.09 Q2079.67 2565.09 2073.69 2559.11 Q2067.76 2553.1 2067.76 2544.27 M2075.32 2541.41 L2096.66 2541.41 Q2096.66 2539.53 2096.31 2537.42 Q2096 2535.31 2095.04 2532.41 Q2094.11 2529.47 2091.92 2527.62 Q2089.72 2525.78 2086.47 2525.78 Q2085.02 2525.78 2083.44 2526.39 Q2081.9 2527.01 2080.02 2528.5 Q2078.13 2530 2076.81 2533.38 Q2075.49 2536.76 2075.32 2541.41 Z" fill="#ffffff" fill-rule="nonzero" fill-opacity="1" /><path clip-path="url(#clip210)" d="M2107.3 2578.83 L2108.23 2578.83 Q2112.44 2578.83 2113.36 2578 Q2114.33 2577.21 2114.33 2574.22 L2114.33 2533.33 Q2114.33 2529.91 2113.23 2529.16 Q2112.18 2528.37 2108.58 2528.2 L2107.3 2528.2 L2107.3 2525.38 L2120.35 2524.42 L2120.35 2530.26 Q2125.22 2524.42 2132.86 2524.42 Q2140.51 2524.42 2146.13 2530.26 Q2151.75 2536.1 2151.75 2544.66 Q2151.75 2553.49 2145.6 2559.29 Q2139.5 2565.09 2131.77 2565.09 Q2125.4 2565.09 2120.61 2559.6 L2120.61 2574.7 Q2120.61 2577.38 2121.75 2578.09 Q2122.89 2578.83 2127.02 2578.83 L2127.55 2578.83 L2127.55 2581.6 Q2122.32 2581.34 2117.14 2581.34 L2116.75 2581.34 Q2112.53 2581.34 2107.3 2581.6 L2107.3 2578.83 M2120.61 2553.71 Q2120.61 2557.14 2123.95 2560.08 Q2127.29 2562.98 2131.15 2562.98 Q2136.73 2562.98 2140.51 2557.66 Q2144.28 2552.31 2144.28 2544.75 Q2144.28 2537.29 2140.77 2531.97 Q2137.26 2526.66 2132.03 2526.66 Q2127.81 2526.66 2124.56 2529.25 Q2121.36 2531.8 2120.7 2533.95 Q2120.61 2534.21 2120.61 2535.75 L2120.61 2553.71 Z" fill="#ffffff" fill-rule="nonzero" fill-opacity="1" /><path clip-path="url(#clip210)" d="M2156.72 2564.08 L2156.72 2562.01 L2157.47 2562.01 Q2161.42 2562.01 2162.56 2561.26 Q2163.75 2560.47 2163.75 2557.88 L2163.75 2531.53 Q2163.66 2528.94 2162.47 2528.15 Q2161.33 2527.36 2157.38 2527.36 L2156.72 2527.36 L2156.72 2525.38 Q2160.06 2525.56 2166.73 2525.56 Q2173.58 2525.56 2176.96 2525.38 L2176.96 2527.36 L2176.53 2527.36 Q2172.05 2527.36 2171.04 2528.33 Q2170.03 2529.25 2170.03 2532.67 L2170.03 2558.06 Q2170.03 2559.42 2170.07 2559.99 Q2170.11 2560.56 2170.55 2561.18 Q2171.04 2561.75 2171.87 2561.88 Q2172.75 2562.01 2174.46 2562.01 L2183.73 2562.01 Q2185.79 2562.01 2186.54 2561.44 Q2187.33 2560.83 2187.42 2558.59 L2187.42 2531.53 Q2187.33 2528.94 2186.19 2528.15 Q2185.05 2527.36 2181.09 2527.36 L2180.48 2527.36 L2180.48 2525.38 Q2183.82 2525.56 2190.36 2525.56 Q2197.3 2525.56 2200.72 2525.38 L2200.72 2527.36 L2200.15 2527.36 Q2195.67 2527.36 2194.66 2528.33 Q2193.7 2529.25 2193.7 2532.67 L2193.7 2558.06 Q2193.7 2560.56 2194.36 2561.31 Q2195.06 2562.01 2198.18 2562.01 L2207.44 2562.01 Q2209.51 2562.01 2210.25 2561.44 Q2211.04 2560.83 2211.13 2558.59 L2211.13 2531.53 Q2211.04 2528.94 2209.9 2528.15 Q2208.8 2527.36 2204.85 2527.36 L2204.11 2527.36 L2204.11 2525.38 Q2207.44 2525.56 2214.12 2525.56 Q2221.06 2525.56 2224.44 2525.38 L2224.44 2527.36 L2223.74 2527.36 Q2219.78 2527.36 2218.64 2528.15 Q2217.54 2528.9 2217.46 2531.53 L2217.46 2557.88 Q2217.54 2560.47 2218.64 2561.26 Q2219.78 2562.01 2223.74 2562.01 L2224.44 2562.01 L2224.44 2564.08 L2156.72 2564.08 Z" fill="#ffffff" fill-rule="nonzero" fill-opacity="1" /><path clip-path="url(#clip210)" d="M2228.41 2564.08 L2228.41 2562.01 L2229.15 2562.01 Q2233.1 2562.01 2234.25 2561.26 Q2235.43 2560.47 2235.43 2557.88 L2235.43 2531.53 Q2235.34 2528.94 2234.16 2528.15 Q2233.02 2527.36 2229.06 2527.36 L2228.41 2527.36 L2228.41 2525.38 Q2231.74 2525.56 2238.42 2525.56 Q2245.27 2525.56 2248.65 2525.38 L2248.65 2527.36 L2248.21 2527.36 Q2244.35 2527.36 2243.07 2528.06 Q2241.8 2528.72 2241.71 2531.23 L2241.71 2554.63 Q2242.33 2553.84 2258.88 2533.11 Q2260.33 2531.23 2260.33 2530.44 Q2260.33 2529.07 2259.37 2528.37 Q2258.44 2527.67 2257.48 2527.58 Q2256.56 2527.45 2254.67 2527.36 L2253.44 2527.36 L2253.44 2525.38 Q2256.78 2525.56 2263.32 2525.56 Q2270.26 2525.56 2273.64 2525.38 L2273.64 2527.36 L2273.03 2527.36 Q2268.98 2527.36 2267.84 2528.15 Q2266.74 2528.9 2266.66 2531.53 L2266.66 2557.88 Q2266.74 2560.47 2267.84 2561.26 Q2268.98 2562.01 2272.94 2562.01 L2273.64 2562.01 L2273.64 2564.08 Q2268.41 2563.81 2263.23 2563.81 L2262.88 2563.81 Q2258.66 2563.81 2253.44 2564.08 L2253.44 2562.01 L2253.79 2562.01 Q2257.74 2562.01 2258.97 2561.31 Q2260.25 2560.56 2260.33 2558.06 L2260.33 2534.74 Q2258.71 2536.98 2243.16 2556.35 Q2241.71 2558.23 2241.71 2558.94 Q2241.71 2559.46 2241.8 2559.9 Q2241.89 2560.3 2242.15 2560.61 Q2242.46 2560.91 2242.68 2561.18 Q2242.9 2561.4 2243.34 2561.53 Q2243.78 2561.66 2244.04 2561.75 Q2244.35 2561.84 2244.92 2561.88 Q2245.49 2561.92 2245.71 2561.97 Q2245.97 2562.01 2246.63 2562.01 Q2247.29 2562.01 2247.38 2562.01 L2248.65 2562.01 L2248.65 2564.08 Q2243.42 2563.81 2238.2 2563.81 L2237.85 2563.81 Q2233.63 2563.81 2228.41 2564.08 Z" fill="#ffffff" fill-rule="nonzero" fill-opacity="1" /><path clip-path="url(#clip210)" d="M2277.82 2564.08 L2277.82 2562.01 L2278.57 2562.01 Q2282.52 2562.01 2283.66 2561.26 Q2284.85 2560.47 2284.85 2557.88 L2284.85 2531.53 Q2284.76 2528.94 2283.57 2528.15 Q2282.43 2527.36 2278.48 2527.36 L2277.82 2527.36 L2277.82 2525.38 Q2281.16 2525.56 2287.83 2525.56 Q2294.68 2525.56 2298.07 2525.38 L2298.07 2527.36 L2297.8 2527.36 Q2293.76 2527.36 2292.44 2528.11 Q2291.13 2528.81 2291.13 2531.53 L2291.13 2541.77 L2309.75 2541.77 L2309.75 2531.53 Q2309.75 2528.85 2308.47 2528.11 Q2307.24 2527.36 2303.2 2527.36 L2302.85 2527.36 L2302.85 2525.38 Q2306.19 2525.56 2312.73 2525.56 Q2319.67 2525.56 2323.05 2525.38 L2323.05 2527.36 L2322.44 2527.36 Q2318.4 2527.36 2317.26 2528.15 Q2316.16 2528.9 2316.07 2531.53 L2316.07 2557.88 Q2316.16 2560.47 2317.26 2561.26 Q2318.4 2562.01 2322.35 2562.01 L2323.05 2562.01 L2323.05 2564.08 Q2317.83 2563.81 2312.65 2563.81 L2312.3 2563.81 Q2308.08 2563.81 2302.85 2564.08 L2302.85 2562.01 L2303.29 2562.01 Q2307.33 2562.01 2308.56 2561.26 Q2309.84 2560.47 2309.84 2557.71 Q2309.84 2557.44 2309.79 2556.92 Q2309.75 2556.35 2309.75 2556.08 L2309.75 2543.74 L2291.13 2543.74 L2291.13 2557.71 Q2291.13 2560.47 2292.36 2561.26 Q2293.59 2562.01 2297.63 2562.01 L2298.07 2562.01 L2298.07 2564.08 Q2292.84 2563.81 2287.61 2563.81 L2287.26 2563.81 Q2283.05 2563.81 2277.82 2564.08 Z" fill="#ffffff" fill-rule="nonzero" fill-opacity="1" /><polyline clip-path="url(#clip212)" style="stroke:#ffffff; stroke-linecap:round; stroke-linejoin:round; stroke-width:2; stroke-opacity:0.5; fill:none" points="299.14,2123.91 3552.76,2123.91 "/>
<polyline clip-path="url(#clip212)" style="stroke:#ffffff; stroke-linecap:round; stroke-linejoin:round; stroke-width:2; stroke-opacity:0.5; fill:none" points="299.14,1730.96 3552.76,1730.96 "/>
<polyline clip-path="url(#clip212)" style="stroke:#ffffff; stroke-linecap:round; stroke-linejoin:round; stroke-width:2; stroke-opacity:0.5; fill:none" points="299.14,1338 3552.76,1338 "/>
<polyline clip-path="url(#clip212)" style="stroke:#ffffff; stroke-linecap:round; stroke-linejoin:round; stroke-width:2; stroke-opacity:0.5; fill:none" points="299.14,945.046 3552.76,945.046 "/>
<polyline clip-path="url(#clip212)" style="stroke:#ffffff; stroke-linecap:round; stroke-linejoin:round; stroke-width:2; stroke-opacity:0.5; fill:none" points="299.14,552.091 3552.76,552.091 "/>
<polyline clip-path="url(#clip212)" style="stroke:#ffffff; stroke-linecap:round; stroke-linejoin:round; stroke-width:2; stroke-opacity:0.5; fill:none" points="299.14,159.136 3552.76,159.136 "/>
<polyline clip-path="url(#clip212)" style="stroke:#ffffff; stroke-linecap:round; stroke-linejoin:round; stroke-width:2; stroke-opacity:0.3; fill:none" points="299.14,2359.68 3552.76,2359.68 "/>
<polyline clip-path="url(#clip212)" style="stroke:#ffffff; stroke-linecap:round; stroke-linejoin:round; stroke-width:2; stroke-opacity:0.3; fill:none" points="299.14,2281.09 3552.76,2281.09 "/>
<polyline clip-path="url(#clip212)" style="stroke:#ffffff; stroke-linecap:round; stroke-linejoin:round; stroke-width:2; stroke-opacity:0.3; fill:none" points="299.14,2202.5 3552.76,2202.5 "/>
<polyline clip-path="url(#clip212)" style="stroke:#ffffff; stroke-linecap:round; stroke-linejoin:round; stroke-width:2; stroke-opacity:0.3; fill:none" points="299.14,2045.32 3552.76,2045.32 "/>
<polyline clip-path="url(#clip212)" style="stroke:#ffffff; stroke-linecap:round; stroke-linejoin:round; stroke-width:2; stroke-opacity:0.3; fill:none" points="299.14,1966.73 3552.76,1966.73 "/>
<polyline clip-path="url(#clip212)" style="stroke:#ffffff; stroke-linecap:round; stroke-linejoin:round; stroke-width:2; stroke-opacity:0.3; fill:none" points="299.14,1888.14 3552.76,1888.14 "/>
<polyline clip-path="url(#clip212)" style="stroke:#ffffff; stroke-linecap:round; stroke-linejoin:round; stroke-width:2; stroke-opacity:0.3; fill:none" points="299.14,1809.55 3552.76,1809.55 "/>
<polyline clip-path="url(#clip212)" style="stroke:#ffffff; stroke-linecap:round; stroke-linejoin:round; stroke-width:2; stroke-opacity:0.3; fill:none" points="299.14,1652.37 3552.76,1652.37 "/>
<polyline clip-path="url(#clip212)" style="stroke:#ffffff; stroke-linecap:round; stroke-linejoin:round; stroke-width:2; stroke-opacity:0.3; fill:none" points="299.14,1573.77 3552.76,1573.77 "/>
<polyline clip-path="url(#clip212)" style="stroke:#ffffff; stroke-linecap:round; stroke-linejoin:round; stroke-width:2; stroke-opacity:0.3; fill:none" points="299.14,1495.18 3552.76,1495.18 "/>
<polyline clip-path="url(#clip212)" style="stroke:#ffffff; stroke-linecap:round; stroke-linejoin:round; stroke-width:2; stroke-opacity:0.3; fill:none" points="299.14,1416.59 3552.76,1416.59 "/>
<polyline clip-path="url(#clip212)" style="stroke:#ffffff; stroke-linecap:round; stroke-linejoin:round; stroke-width:2; stroke-opacity:0.3; fill:none" points="299.14,1259.41 3552.76,1259.41 "/>
<polyline clip-path="url(#clip212)" style="stroke:#ffffff; stroke-linecap:round; stroke-linejoin:round; stroke-width:2; stroke-opacity:0.3; fill:none" points="299.14,1180.82 3552.76,1180.82 "/>
<polyline clip-path="url(#clip212)" style="stroke:#ffffff; stroke-linecap:round; stroke-linejoin:round; stroke-width:2; stroke-opacity:0.3; fill:none" points="299.14,1102.23 3552.76,1102.23 "/>
<polyline clip-path="url(#clip212)" style="stroke:#ffffff; stroke-linecap:round; stroke-linejoin:round; stroke-width:2; stroke-opacity:0.3; fill:none" points="299.14,1023.64 3552.76,1023.64 "/>
<polyline clip-path="url(#clip212)" style="stroke:#ffffff; stroke-linecap:round; stroke-linejoin:round; stroke-width:2; stroke-opacity:0.3; fill:none" points="299.14,866.455 3552.76,866.455 "/>
<polyline clip-path="url(#clip212)" style="stroke:#ffffff; stroke-linecap:round; stroke-linejoin:round; stroke-width:2; stroke-opacity:0.3; fill:none" points="299.14,787.864 3552.76,787.864 "/>
<polyline clip-path="url(#clip212)" style="stroke:#ffffff; stroke-linecap:round; stroke-linejoin:round; stroke-width:2; stroke-opacity:0.3; fill:none" points="299.14,709.273 3552.76,709.273 "/>
<polyline clip-path="url(#clip212)" style="stroke:#ffffff; stroke-linecap:round; stroke-linejoin:round; stroke-width:2; stroke-opacity:0.3; fill:none" points="299.14,630.682 3552.76,630.682 "/>
<polyline clip-path="url(#clip212)" style="stroke:#ffffff; stroke-linecap:round; stroke-linejoin:round; stroke-width:2; stroke-opacity:0.3; fill:none" points="299.14,473.5 3552.76,473.5 "/>
<polyline clip-path="url(#clip212)" style="stroke:#ffffff; stroke-linecap:round; stroke-linejoin:round; stroke-width:2; stroke-opacity:0.3; fill:none" points="299.14,394.909 3552.76,394.909 "/>
<polyline clip-path="url(#clip212)" style="stroke:#ffffff; stroke-linecap:round; stroke-linejoin:round; stroke-width:2; stroke-opacity:0.3; fill:none" points="299.14,316.318 3552.76,316.318 "/>
<polyline clip-path="url(#clip212)" style="stroke:#ffffff; stroke-linecap:round; stroke-linejoin:round; stroke-width:2; stroke-opacity:0.3; fill:none" points="299.14,237.727 3552.76,237.727 "/>
<polyline clip-path="url(#clip210)" style="stroke:#ffffff; stroke-linecap:round; stroke-linejoin:round; stroke-width:4; stroke-opacity:1; fill:none" points="299.14,2361.63 299.14,133.192 "/>
<polyline clip-path="url(#clip210)" style="stroke:#ffffff; stroke-linecap:round; stroke-linejoin:round; stroke-width:4; stroke-opacity:1; fill:none" points="299.14,2123.91 318.037,2123.91 "/>
<polyline clip-path="url(#clip210)" style="stroke:#ffffff; stroke-linecap:round; stroke-linejoin:round; stroke-width:4; stroke-opacity:1; fill:none" points="299.14,1730.96 318.037,1730.96 "/>
<polyline clip-path="url(#clip210)" style="stroke:#ffffff; stroke-linecap:round; stroke-linejoin:round; stroke-width:4; stroke-opacity:1; fill:none" points="299.14,1338 318.037,1338 "/>
<polyline clip-path="url(#clip210)" style="stroke:#ffffff; stroke-linecap:round; stroke-linejoin:round; stroke-width:4; stroke-opacity:1; fill:none" points="299.14,945.046 318.037,945.046 "/>
<polyline clip-path="url(#clip210)" style="stroke:#ffffff; stroke-linecap:round; stroke-linejoin:round; stroke-width:4; stroke-opacity:1; fill:none" points="299.14,552.091 318.037,552.091 "/>
<polyline clip-path="url(#clip210)" style="stroke:#ffffff; stroke-linecap:round; stroke-linejoin:round; stroke-width:4; stroke-opacity:1; fill:none" points="299.14,159.136 318.037,159.136 "/>
<polyline clip-path="url(#clip210)" style="stroke:#ffffff; stroke-linecap:round; stroke-linejoin:round; stroke-width:4; stroke-opacity:1; fill:none" points="299.14,2359.68 308.588,2359.68 "/>
<polyline clip-path="url(#clip210)" style="stroke:#ffffff; stroke-linecap:round; stroke-linejoin:round; stroke-width:4; stroke-opacity:1; fill:none" points="299.14,2281.09 308.588,2281.09 "/>
<polyline clip-path="url(#clip210)" style="stroke:#ffffff; stroke-linecap:round; stroke-linejoin:round; stroke-width:4; stroke-opacity:1; fill:none" points="299.14,2202.5 308.588,2202.5 "/>
<polyline clip-path="url(#clip210)" style="stroke:#ffffff; stroke-linecap:round; stroke-linejoin:round; stroke-width:4; stroke-opacity:1; fill:none" points="299.14,2045.32 308.588,2045.32 "/>
<polyline clip-path="url(#clip210)" style="stroke:#ffffff; stroke-linecap:round; stroke-linejoin:round; stroke-width:4; stroke-opacity:1; fill:none" points="299.14,1966.73 308.588,1966.73 "/>
<polyline clip-path="url(#clip210)" style="stroke:#ffffff; stroke-linecap:round; stroke-linejoin:round; stroke-width:4; stroke-opacity:1; fill:none" points="299.14,1888.14 308.588,1888.14 "/>
<polyline clip-path="url(#clip210)" style="stroke:#ffffff; stroke-linecap:round; stroke-linejoin:round; stroke-width:4; stroke-opacity:1; fill:none" points="299.14,1809.55 308.588,1809.55 "/>
<polyline clip-path="url(#clip210)" style="stroke:#ffffff; stroke-linecap:round; stroke-linejoin:round; stroke-width:4; stroke-opacity:1; fill:none" points="299.14,1652.37 308.588,1652.37 "/>
<polyline clip-path="url(#clip210)" style="stroke:#ffffff; stroke-linecap:round; stroke-linejoin:round; stroke-width:4; stroke-opacity:1; fill:none" points="299.14,1573.77 308.588,1573.77 "/>
<polyline clip-path="url(#clip210)" style="stroke:#ffffff; stroke-linecap:round; stroke-linejoin:round; stroke-width:4; stroke-opacity:1; fill:none" points="299.14,1495.18 308.588,1495.18 "/>
<polyline clip-path="url(#clip210)" style="stroke:#ffffff; stroke-linecap:round; stroke-linejoin:round; stroke-width:4; stroke-opacity:1; fill:none" points="299.14,1416.59 308.588,1416.59 "/>
<polyline clip-path="url(#clip210)" style="stroke:#ffffff; stroke-linecap:round; stroke-linejoin:round; stroke-width:4; stroke-opacity:1; fill:none" points="299.14,1259.41 308.588,1259.41 "/>
<polyline clip-path="url(#clip210)" style="stroke:#ffffff; stroke-linecap:round; stroke-linejoin:round; stroke-width:4; stroke-opacity:1; fill:none" points="299.14,1180.82 308.588,1180.82 "/>
<polyline clip-path="url(#clip210)" style="stroke:#ffffff; stroke-linecap:round; stroke-linejoin:round; stroke-width:4; stroke-opacity:1; fill:none" points="299.14,1102.23 308.588,1102.23 "/>
<polyline clip-path="url(#clip210)" style="stroke:#ffffff; stroke-linecap:round; stroke-linejoin:round; stroke-width:4; stroke-opacity:1; fill:none" points="299.14,1023.64 308.588,1023.64 "/>
<polyline clip-path="url(#clip210)" style="stroke:#ffffff; stroke-linecap:round; stroke-linejoin:round; stroke-width:4; stroke-opacity:1; fill:none" points="299.14,866.455 308.588,866.455 "/>
<polyline clip-path="url(#clip210)" style="stroke:#ffffff; stroke-linecap:round; stroke-linejoin:round; stroke-width:4; stroke-opacity:1; fill:none" points="299.14,787.864 308.588,787.864 "/>
<polyline clip-path="url(#clip210)" style="stroke:#ffffff; stroke-linecap:round; stroke-linejoin:round; stroke-width:4; stroke-opacity:1; fill:none" points="299.14,709.273 308.588,709.273 "/>
<polyline clip-path="url(#clip210)" style="stroke:#ffffff; stroke-linecap:round; stroke-linejoin:round; stroke-width:4; stroke-opacity:1; fill:none" points="299.14,630.682 308.588,630.682 "/>
<polyline clip-path="url(#clip210)" style="stroke:#ffffff; stroke-linecap:round; stroke-linejoin:round; stroke-width:4; stroke-opacity:1; fill:none" points="299.14,473.5 308.588,473.5 "/>
<polyline clip-path="url(#clip210)" style="stroke:#ffffff; stroke-linecap:round; stroke-linejoin:round; stroke-width:4; stroke-opacity:1; fill:none" points="299.14,394.909 308.588,394.909 "/>
<polyline clip-path="url(#clip210)" style="stroke:#ffffff; stroke-linecap:round; stroke-linejoin:round; stroke-width:4; stroke-opacity:1; fill:none" points="299.14,316.318 308.588,316.318 "/>
<polyline clip-path="url(#clip210)" style="stroke:#ffffff; stroke-linecap:round; stroke-linejoin:round; stroke-width:4; stroke-opacity:1; fill:none" points="299.14,237.727 308.588,237.727 "/>
<g clip-path="url(#clip210)">
<text style="fill:#ffffff; fill-opacity:1; font-family:Times New Roman,TimesNewRoman,Times,Baskerville,Georgia,serif; font-size:65px; text-anchor:middle;" transform="rotate(0, 188.04, 2145.41)" x="188.04" y="2145.41">1.06</text>
</g>
<g clip-path="url(#clip210)">
<text style="fill:#ffffff; fill-opacity:1; font-family:Times New Roman,TimesNewRoman,Times,Baskerville,Georgia,serif; font-size:65px; text-anchor:middle;" transform="rotate(0, 188.04, 1752.46)" x="188.04" y="1752.46">1.07</text>
</g>
<g clip-path="url(#clip210)">
<text style="fill:#ffffff; fill-opacity:1; font-family:Times New Roman,TimesNewRoman,Times,Baskerville,Georgia,serif; font-size:65px; text-anchor:middle;" transform="rotate(0, 188.04, 1359.5)" x="188.04" y="1359.5">1.08</text>
</g>
<g clip-path="url(#clip210)">
<text style="fill:#ffffff; fill-opacity:1; font-family:Times New Roman,TimesNewRoman,Times,Baskerville,Georgia,serif; font-size:65px; text-anchor:middle;" transform="rotate(0, 188.04, 966.546)" x="188.04" y="966.546">1.09</text>
</g>
<g clip-path="url(#clip210)">
<text style="fill:#ffffff; fill-opacity:1; font-family:Times New Roman,TimesNewRoman,Times,Baskerville,Georgia,serif; font-size:65px; text-anchor:middle;" transform="rotate(0, 188.04, 573.591)" x="188.04" y="573.591">1.10</text>
</g>
<g clip-path="url(#clip210)">
<text style="fill:#ffffff; fill-opacity:1; font-family:Times New Roman,TimesNewRoman,Times,Baskerville,Georgia,serif; font-size:65px; text-anchor:middle;" transform="rotate(0, 188.04, 180.636)" x="188.04" y="180.636">1.11</text>
</g>
<path clip-path="url(#clip210)" d="M26.3571 1221.9 Q28.9921 1221.9 33.6034 1222.91 Q38.2147 1223.88 40.4105 1224.67 Q46.2515 1226.86 51.1702 1231.25 Q53.8931 1233.67 55.8693 1236.31 Q57.8017 1238.9 58.7679 1240.83 Q59.6901 1242.76 60.1732 1245.04 Q60.7002 1247.33 60.7441 1248.38 Q60.832 1249.44 60.832 1250.93 L74.2267 1254.35 Q77.6961 1255.06 77.9157 1255.41 Q78.0914 1255.5 78.1792 1255.72 Q78.2671 1255.89 78.2671 1256.07 L78.2671 1256.24 Q78.2671 1256.73 78.0475 1256.99 Q77.8279 1257.25 77.5644 1257.3 L77.3448 1257.3 Q76.73 1257.3 68.8249 1255.23 Q64.7845 1254.18 60.6124 1253.26 Q60.1732 1260.28 57.0551 1264.63 Q53.937 1268.94 47.8764 1268.94 Q44.1435 1268.94 32.6811 1264.59 Q27.1915 1262.52 24.9078 1262.52 Q23.8977 1262.52 23.2829 1262.74 Q22.6241 1262.96 22.4045 1263.4 Q22.141 1263.84 22.0971 1264.1 Q22.0532 1264.32 22.0532 1264.76 Q22.0532 1267.35 24.6443 1269.77 Q27.2354 1272.19 33.2081 1273.85 Q34.3061 1274.21 34.5696 1274.43 Q34.8331 1274.64 34.8331 1275.3 Q34.7891 1276.4 33.9108 1276.4 Q33.5595 1276.4 32.198 1276.01 Q30.7927 1275.61 28.7286 1274.69 Q26.6206 1273.72 24.7321 1272.4 Q22.7998 1271.09 21.4383 1269.02 Q20.0769 1266.92 20.0769 1264.5 Q20.0769 1261.21 22.2289 1259.19 Q24.3369 1257.12 27.455 1257.12 Q28.0698 1257.12 28.7725 1257.25 Q29.4752 1257.39 29.8704 1257.52 Q30.2657 1257.6 31.0123 1257.87 Q31.7149 1258.09 31.8467 1258.13 Q37.6437 1260.37 41.4206 1261.51 Q45.1536 1262.66 46.2515 1262.83 Q47.3055 1262.96 48.5791 1262.96 Q57.4504 1262.96 58.6361 1252.73 L-0.783699 1237.8 Q-2.01338 1237.53 -2.27688 1237.32 Q-2.5843 1237.1 -2.5843 1236.44 Q-2.5843 1235.38 -1.61812 1235.38 Q-1.3107 1235.38 -0.256694 1235.65 L58.8118 1250.49 Q58.8118 1249.08 58.7679 1248.21 Q58.7239 1247.33 58.3287 1245.48 Q57.8895 1243.6 57.099 1242.01 Q56.3085 1240.39 54.7275 1238.11 Q53.1026 1235.82 50.8189 1233.58 Q47.9643 1230.77 43.1773 1228.27 Q38.3903 1225.76 34.4378 1225.76 Q30.0022 1225.76 26.7962 1228.97 Q26.3571 1229.45 26.0936 1229.72 Q25.8301 1229.94 25.3909 1230.16 Q24.9517 1230.33 24.3808 1230.33 Q22.8876 1230.33 21.4823 1228.93 Q20.0769 1227.52 20.0769 1225.85 Q20.0769 1224.36 21.5262 1223.13 Q22.9754 1221.9 26.3571 1221.9 Z" fill="#ffffff" fill-rule="nonzero" fill-opacity="1" /><path clip-path="url(#clip210)" d="M363.346 30.5898 Q363.346 34.6741 360.536 38.3631 Q357.769 42.0082 353.553 44.3358 Q349.337 46.6195 344.55 47.4979 Q351.006 48.2445 354.739 51.7578 Q358.515 55.2712 358.515 60.1899 Q358.515 63.4837 356.583 66.9531 Q354.695 70.3787 351.445 73.1894 Q348.239 76 343.496 77.8006 Q338.797 79.6012 333.658 79.6012 L301.555 79.6012 Q300.545 79.6012 300.15 79.5573 Q299.754 79.5134 299.447 79.2938 Q299.14 79.0742 299.14 78.5912 Q299.14 77.7128 299.447 77.3176 Q299.798 76.9223 300.194 76.8784 Q300.589 76.8345 301.555 76.8345 Q303.751 76.8345 305.068 76.7027 Q306.386 76.571 307.22 76.3953 Q308.099 76.1757 308.538 75.5609 Q309.021 74.946 309.24 74.419 Q309.46 73.8481 309.767 72.5745 L321.801 24.2657 Q322.152 22.8165 322.152 22.5969 Q322.152 21.7625 321.625 21.5429 Q321.142 21.2794 319.737 21.1476 L316.311 20.9719 Q315.257 20.9719 314.818 20.928 Q314.423 20.8841 314.115 20.6645 Q313.808 20.4449 313.808 19.9619 Q313.808 18.7322 314.335 18.4687 Q314.906 18.1612 316.399 18.1612 L346.614 18.1612 Q354.387 18.1612 358.867 21.7625 Q363.346 25.3197 363.346 30.5898 M355.178 30.2384 Q355.178 28.5696 354.739 27.0764 Q354.299 25.5832 353.245 24.134 Q352.235 22.6847 350.215 21.8503 Q348.195 20.9719 345.384 20.9719 L333.746 20.9719 Q330.892 20.9719 330.189 21.4989 Q329.53 21.982 328.915 24.3975 L323.338 46.6634 L336.469 46.6634 Q340.466 46.6634 343.979 45.2142 Q347.536 43.7649 349.952 41.4373 Q352.367 39.0658 353.772 36.1233 Q355.178 33.1809 355.178 30.2384 M350.127 59.1798 Q350.127 57.8623 349.908 56.5887 Q349.688 55.3151 348.985 53.8219 Q348.283 52.3287 347.185 51.2308 Q346.087 50.1329 344.155 49.3863 Q342.266 48.6397 339.807 48.6397 L322.811 48.6397 L316.575 73.7603 Q316.135 75.3852 316.135 75.8244 Q316.135 76.3075 316.355 76.4831 Q316.619 76.6149 317.321 76.7027 Q318.112 76.8345 319.297 76.8345 L331.506 76.8345 Q335.371 76.8345 338.885 75.3413 Q342.398 73.8042 344.813 71.3448 Q347.273 68.8855 348.678 65.6795 Q350.127 62.4736 350.127 59.1798 Z" fill="#ffffff" fill-rule="nonzero" fill-opacity="1" /><path clip-path="url(#clip210)" d="M392.586 23.3874 Q392.586 25.3197 391.005 26.769 Q389.468 28.1743 387.799 28.1743 Q386.262 28.1743 385.295 27.2521 Q384.373 26.2859 384.373 24.9245 Q384.373 23.1239 385.91 21.6307 Q387.447 20.1375 389.248 20.1375 Q390.741 20.1375 391.663 21.0598 Q392.586 21.982 392.586 23.3874 M393.376 66.7335 Q393.376 67.0849 392.981 68.4902 Q392.586 69.8517 391.619 71.9597 Q390.697 74.0238 389.424 75.9561 Q388.15 77.8885 386.042 79.2499 Q383.978 80.6113 381.606 80.6113 Q378.4 80.6113 376.292 78.5033 Q374.228 76.3953 374.228 73.2333 Q374.228 71.5205 376.292 66.0309 Q382.265 50.0451 382.485 49.3863 Q383.495 46.883 383.495 44.6872 Q383.495 43.6771 383.275 43.0622 Q383.056 42.4035 382.616 42.1839 Q382.177 41.9204 381.914 41.8765 Q381.694 41.8326 381.255 41.8326 Q378.664 41.8326 376.248 44.4676 Q373.833 47.1026 372.164 52.9875 Q371.813 54.0854 371.593 54.3489 Q371.374 54.6124 370.715 54.6124 Q369.617 54.5685 369.617 53.6902 Q369.617 53.4267 369.924 52.4166 Q370.232 51.3626 370.803 49.7816 Q371.374 48.1566 372.384 46.4878 Q373.394 44.775 374.624 43.2818 Q375.897 41.7886 377.698 40.8225 Q379.498 39.8563 381.519 39.8563 Q384.812 39.8563 386.832 42.0082 Q388.897 44.1162 388.897 47.2344 Q388.897 48.9471 387.711 51.9774 Q386.262 55.9299 385.735 57.2035 L382.221 66.6457 Q380.948 70.0712 380.552 71.1253 Q380.201 72.1353 379.894 73.365 Q379.63 74.5508 379.63 75.6487 Q379.63 77.1858 380.113 77.8885 Q380.64 78.5912 381.782 78.5912 Q384.944 78.5912 387.272 75.473 Q389.599 72.311 390.961 67.4801 Q391.005 67.3484 391.049 67.1288 Q391.4 66.0309 391.751 65.8991 Q391.927 65.8552 392.278 65.8552 Q393.376 65.8552 393.376 66.7335 Z" fill="#ffffff" fill-rule="nonzero" fill-opacity="1" /><path clip-path="url(#clip210)" d="M449.795 66.7335 Q449.795 67.0849 449.4 68.4463 Q449.005 69.8077 448.039 71.9158 Q447.116 74.0238 445.843 75.9561 Q444.569 77.8446 442.461 79.2499 Q440.397 80.6113 438.025 80.6113 Q434.863 80.6113 432.755 78.5033 Q430.647 76.3953 430.647 73.2333 Q430.647 71.4766 431.57 69.0611 Q437.411 53.4706 437.411 48.1127 Q437.411 41.8326 432.536 41.8326 Q430.12 41.8326 427.837 42.7548 Q425.597 43.6332 424.06 44.8628 Q422.523 46.0925 421.117 47.8053 Q419.756 49.4741 419.053 50.616 Q418.395 51.7139 417.868 52.8118 L416.726 57.2914 Q416.462 58.521 415.189 63.308 L413.212 71.4327 Q411.807 77.4932 411.5 78.0642 Q411.06 79.2938 410.094 79.9526 Q409.128 80.6113 408.162 80.6113 Q407.064 80.6113 406.317 79.9526 Q405.571 79.2938 405.571 78.152 Q405.571 77.9763 405.702 77.3176 Q405.834 76.6588 406.054 75.7365 Q406.273 74.8143 406.361 74.2873 L411.587 53.5145 Q412.554 49.7376 412.773 48.5519 Q413.037 47.3222 413.037 45.9608 Q413.037 41.8326 410.226 41.8326 Q407.942 41.8326 406.449 44.5554 Q404.956 47.2783 403.682 52.5483 Q403.287 53.9976 403.024 54.305 Q402.804 54.6124 402.145 54.6124 Q401.047 54.5685 401.047 53.6902 Q401.047 53.4706 401.399 52.0213 Q401.75 50.5721 402.409 48.508 Q403.111 46.3999 403.77 44.9946 Q404.341 43.9406 404.648 43.4575 Q405 42.9305 405.834 41.9204 Q406.713 40.8664 407.854 40.3833 Q409.04 39.8563 410.489 39.8563 Q413.739 39.8563 416.111 41.9643 Q418.482 44.0284 418.79 47.6735 Q424.631 39.8563 432.799 39.8563 Q437.63 39.8563 440.397 42.4035 Q443.164 44.9507 443.164 49.4741 Q443.164 50.5281 442.944 51.8896 Q442.769 53.2071 442.329 54.8759 Q441.934 56.5448 441.583 57.8184 Q441.231 59.092 440.529 61.1561 Q439.826 63.1763 439.519 64.0546 Q439.211 64.9329 438.465 66.997 Q437.762 69.0172 437.674 69.2368 Q436.049 73.3211 436.049 75.6487 Q436.049 77.1858 436.532 77.8885 Q437.059 78.5912 438.201 78.5912 Q441.275 78.5912 443.559 75.5609 Q445.887 72.4867 447.38 67.4801 Q447.731 66.3822 447.907 66.1187 Q448.126 65.8552 448.741 65.8552 Q449.795 65.8552 449.795 66.7335 Z" fill="#ffffff" fill-rule="nonzero" fill-opacity="1" /><path clip-path="url(#clip210)" d="M497.818 66.7335 Q496.633 72.3988 495.095 75.6487 Q492.636 80.6113 488.464 80.6113 Q485.302 80.6113 483.062 78.679 Q480.822 76.7466 480.295 73.8481 Q474.542 80.6113 468.569 80.6113 Q463.299 80.6113 459.962 76.6149 Q456.624 72.5745 456.624 66.2065 Q456.624 59.7946 459.786 53.6463 Q462.992 47.4979 468.042 43.6771 Q473.093 39.8563 478.275 39.8563 Q483.765 39.8563 486.575 45.6094 Q486.795 44.0284 487.805 42.8427 Q488.815 41.6569 490.352 41.6569 Q491.538 41.6569 492.241 42.3156 Q492.943 42.9305 492.943 44.0723 Q492.943 44.6433 492.329 47.1465 L489.079 59.7068 L487.102 67.8315 Q486.356 70.8178 486.136 71.9158 Q485.961 73.0137 485.961 74.463 Q485.961 78.5912 488.64 78.5912 Q489.957 78.5912 491.011 77.7567 Q492.065 76.9223 492.9 75.1656 Q493.734 73.4089 494.261 71.784 Q494.788 70.1152 495.491 67.4801 Q495.71 66.4261 495.886 66.1626 Q496.105 65.8552 496.72 65.8552 Q497.818 65.8552 497.818 66.7335 M485.478 49.7376 Q485.478 49.3424 485.17 48.2445 Q484.863 47.1465 484.16 45.6094 Q483.457 44.0723 481.92 42.9744 Q480.427 41.8326 478.407 41.8326 Q475.684 41.8326 472.829 44.1602 Q470.019 46.4878 467.955 50.4403 Q466.374 53.6023 464.661 60.2338 Q462.992 66.8653 462.992 70.1591 Q462.992 72.1793 463.431 73.9799 Q463.914 75.7365 465.276 77.1858 Q466.637 78.5912 468.745 78.5912 Q473.883 78.5912 478.934 72.2232 Q479.9 71.1253 480.12 70.6861 Q480.383 70.203 480.735 68.8855 L485.214 51.2747 Q485.478 49.9572 485.478 49.7376 Z" fill="#ffffff" fill-rule="nonzero" fill-opacity="1" /><path clip-path="url(#clip210)" d="M538.2 45.6973 Q538.2 48.0249 536.663 49.518 Q535.17 51.0112 533.238 51.0112 Q531.569 51.0112 530.69 50.0451 Q529.812 49.0789 529.812 47.8492 Q529.812 46.0925 531.174 44.6433 Q532.535 43.194 534.511 42.8866 Q533.062 41.8326 530.734 41.8326 Q526.914 41.8326 523.532 44.775 Q522.039 46.1364 520.414 48.6397 Q518.789 51.0991 518.482 52.1531 L515.627 63.8789 Q515.363 65.1964 513.738 71.5205 Q512.157 77.8006 512.026 78.0642 Q511.587 79.2938 510.62 79.9526 Q509.654 80.6113 508.688 80.6113 Q507.59 80.6113 506.843 79.9526 Q506.097 79.2938 506.097 78.152 Q506.097 77.9763 506.229 77.3176 Q506.36 76.6588 506.58 75.7365 Q506.8 74.8143 506.887 74.2873 L512.114 53.5145 Q513.08 49.7376 513.299 48.5519 Q513.563 47.3222 513.563 45.9608 Q513.563 43.5892 512.816 42.7109 Q512.07 41.8326 510.752 41.8326 Q508.468 41.8326 506.975 44.5554 Q505.482 47.2783 504.208 52.5483 Q503.813 53.9976 503.55 54.305 Q503.33 54.6124 502.671 54.6124 Q501.573 54.5685 501.573 53.6902 Q501.573 53.4706 501.925 52.0652 Q502.276 50.616 502.935 48.508 Q503.638 46.356 504.384 44.9946 Q504.823 44.0723 505.219 43.4575 Q505.614 42.8427 506.404 41.8765 Q507.195 40.9103 508.381 40.3833 Q509.566 39.8563 511.016 39.8563 Q514.178 39.8563 516.417 41.7886 Q518.701 43.721 519.228 46.7513 Q520.326 45.1703 521.687 43.8088 Q523.049 42.4035 525.552 41.1299 Q528.055 39.8563 530.734 39.8563 Q534.072 39.8563 536.136 41.5691 Q538.2 43.2379 538.2 45.6973 Z" fill="#ffffff" fill-rule="nonzero" fill-opacity="1" /><path clip-path="url(#clip210)" d="M587.042 43.2818 Q587.042 43.8967 586.647 45.3459 L578.039 79.6891 Q576.151 87.3307 570.002 92.6885 Q563.898 98.0464 556.959 98.0464 Q552.787 98.0464 550.108 95.8067 Q547.429 93.6108 547.429 90.2292 Q547.429 87.2428 549.01 85.7936 Q550.591 84.3882 552.479 84.3882 Q553.094 84.3882 553.753 84.5639 Q554.412 84.7395 555.114 85.4861 Q555.817 86.2327 555.817 87.5063 Q555.817 89.5704 554.016 91.1954 Q553.138 91.942 552.304 92.1176 Q551.513 92.2933 550.152 92.2933 Q550.679 93.523 551.645 94.3574 Q552.611 95.1918 553.709 95.4992 Q554.807 95.8506 555.51 95.9384 Q556.256 96.0702 556.959 96.0702 Q562.58 96.0702 566.884 90.4049 Q568.158 88.6921 569.08 86.9793 Q570.046 85.3105 570.749 83.2464 Q571.452 81.2262 571.759 80.1283 Q572.11 79.0303 572.725 76.5271 Q568.641 80.6113 563.634 80.6113 Q561.526 80.6113 559.638 80.0404 Q557.793 79.4695 556.168 78.2837 Q554.544 77.0541 553.577 74.9021 Q552.655 72.7502 552.655 69.8956 Q552.655 66.8653 553.841 62.7371 Q555.027 58.6089 557.881 51.0112 Q559.418 46.7513 559.418 44.6872 Q559.418 43.6771 559.199 43.0622 Q558.979 42.4035 558.54 42.1839 Q558.101 41.9204 557.837 41.8765 Q557.618 41.8326 557.179 41.8326 Q554.587 41.8326 552.172 44.4676 Q549.757 47.1026 548.088 52.9875 Q547.736 54.0854 547.517 54.3489 Q547.297 54.6124 546.638 54.6124 Q545.54 54.5685 545.54 53.6902 Q545.54 53.3388 545.936 51.9774 Q546.331 50.5721 547.253 48.508 Q548.219 46.3999 549.537 44.5115 Q550.854 42.5791 552.919 41.2177 Q555.027 39.8563 557.442 39.8563 Q560.736 39.8563 562.756 42.0082 Q564.82 44.1162 564.82 47.2344 Q564.82 48.508 564.469 49.6498 Q564.161 50.7477 563.019 53.6902 Q558.408 65.5478 558.408 71.3448 Q558.408 72.7502 558.628 73.9359 Q558.891 75.0778 559.462 76.2196 Q560.033 77.3176 561.175 77.9763 Q562.361 78.5912 563.986 78.5912 Q566.05 78.5912 567.982 77.625 Q569.958 76.6149 571.188 75.2535 Q572.462 73.892 573.208 72.7502 Q573.999 71.5644 574.174 70.9496 L578.215 54.7881 L580.015 47.5857 Q580.85 43.6771 581.245 42.7109 Q581.772 41.7886 582.694 41.3056 Q583.617 40.8225 584.407 40.8225 Q585.505 40.8225 586.252 41.4812 Q587.042 42.14 587.042 43.2818 Z" fill="#ffffff" fill-rule="nonzero" fill-opacity="1" /><path clip-path="url(#clip210)" d="M640.562 41.8326 Q640.562 43.0622 639.991 43.3697 Q639.421 43.6332 637.84 43.6332 L629.407 43.6332 L622.732 70.1591 Q622.205 72.4867 622.205 74.463 Q622.205 76.6588 622.864 77.625 Q623.566 78.5912 625.016 78.5912 Q627.87 78.5912 630.945 76 Q634.063 73.4089 636.698 67.0849 Q637.049 66.2505 637.225 66.0748 Q637.444 65.8552 638.015 65.8552 Q639.113 65.8552 639.113 66.7335 Q639.113 67.041 638.498 68.4463 Q637.927 69.8517 636.654 71.9158 Q635.424 73.9799 633.799 75.9122 Q632.218 77.8446 629.803 79.2499 Q627.387 80.6113 624.796 80.6113 Q621.151 80.6113 618.823 78.2837 Q616.54 75.9561 616.54 72.311 Q616.54 71.1253 617.462 67.3484 Q618.384 63.5276 623.391 43.6332 L615.442 43.6332 Q614.344 43.6332 613.905 43.5892 Q613.509 43.5453 613.202 43.3257 Q612.939 43.0622 612.939 42.5352 Q612.939 41.7008 613.29 41.3495 Q613.641 40.9542 614.08 40.9103 Q614.563 40.8225 615.661 40.8225 L624.093 40.8225 L627.607 26.5494 Q627.958 25.1441 628.837 24.3536 Q629.759 23.5191 630.286 23.4313 Q630.813 23.2995 631.208 23.2995 Q632.394 23.2995 633.096 23.9583 Q633.799 24.5731 633.799 25.715 Q633.799 26.3298 630.11 40.8225 L638.015 40.8225 Q639.025 40.8225 639.421 40.8664 Q639.86 40.9103 640.211 41.1299 Q640.562 41.3495 640.562 41.8326 Z" fill="#ffffff" fill-rule="nonzero" fill-opacity="1" /><path clip-path="url(#clip210)" d="M680.631 45.6973 Q680.631 48.0249 679.094 49.518 Q677.601 51.0112 675.668 51.0112 Q674 51.0112 673.121 50.0451 Q672.243 49.0789 672.243 47.8492 Q672.243 46.0925 673.604 44.6433 Q674.966 43.194 676.942 42.8866 Q675.493 41.8326 673.165 41.8326 Q669.344 41.8326 665.963 44.775 Q664.47 46.1364 662.845 48.6397 Q661.22 51.0991 660.912 52.1531 L658.058 63.8789 Q657.794 65.1964 656.169 71.5205 Q654.588 77.8006 654.457 78.0642 Q654.017 79.2938 653.051 79.9526 Q652.085 80.6113 651.119 80.6113 Q650.021 80.6113 649.274 79.9526 Q648.528 79.2938 648.528 78.152 Q648.528 77.9763 648.659 77.3176 Q648.791 76.6588 649.011 75.7365 Q649.23 74.8143 649.318 74.2873 L654.544 53.5145 Q655.511 49.7376 655.73 48.5519 Q655.994 47.3222 655.994 45.9608 Q655.994 43.5892 655.247 42.7109 Q654.5 41.8326 653.183 41.8326 Q650.899 41.8326 649.406 44.5554 Q647.913 47.2783 646.639 52.5483 Q646.244 53.9976 645.981 54.305 Q645.761 54.6124 645.102 54.6124 Q644.004 54.5685 644.004 53.6902 Q644.004 53.4706 644.356 52.0652 Q644.707 50.616 645.366 48.508 Q646.068 46.356 646.815 44.9946 Q647.254 44.0723 647.649 43.4575 Q648.045 42.8427 648.835 41.8765 Q649.626 40.9103 650.811 40.3833 Q651.997 39.8563 653.446 39.8563 Q656.608 39.8563 658.848 41.7886 Q661.132 43.721 661.659 46.7513 Q662.757 45.1703 664.118 43.8088 Q665.48 42.4035 667.983 41.1299 Q670.486 39.8563 673.165 39.8563 Q676.503 39.8563 678.567 41.5691 Q680.631 43.2379 680.631 45.6973 Z" fill="#ffffff" fill-rule="nonzero" fill-opacity="1" /><path clip-path="url(#clip210)" d="M720.308 69.1929 Q720.659 69.5882 720.659 69.9834 Q720.659 70.3787 719.781 71.5205 Q718.946 72.6624 717.146 74.1994 Q715.345 75.7365 713.018 77.1858 Q710.69 78.6351 707.264 79.6012 Q703.839 80.6113 700.238 80.6113 Q693.782 80.6113 689.917 76 Q686.096 71.3888 686.096 64.3181 Q686.096 59.7946 687.59 55.7982 Q689.083 51.7578 691.498 48.9032 Q693.957 46.0486 697.032 43.9845 Q700.15 41.8765 703.4 40.8664 Q706.65 39.8563 709.68 39.8563 Q714.115 39.8563 716.707 42.0961 Q719.298 44.3358 719.298 47.4979 Q719.298 48.2445 719.078 49.1667 Q718.902 50.089 718.288 51.5382 Q717.717 52.9875 716.223 54.4368 Q714.73 55.8421 712.534 56.7644 Q707.66 58.8285 698.788 58.8285 L694.001 58.8285 Q692.596 64.4938 692.596 68.1828 Q692.596 69.6321 692.86 71.1253 Q693.123 72.5745 693.826 74.419 Q694.572 76.2636 696.241 77.4493 Q697.954 78.5912 700.413 78.5912 Q701.204 78.5912 702.038 78.5472 Q702.917 78.5033 705.112 78.0202 Q707.352 77.5371 709.328 76.7027 Q711.305 75.8683 713.808 74.0677 Q716.355 72.2232 718.375 69.7199 Q719.078 68.7976 719.561 68.7976 Q719.956 68.7976 720.308 69.1929 M716.311 47.4979 Q716.311 45.0824 714.511 43.4575 Q712.754 41.8326 709.68 41.8326 Q708.714 41.8326 707.528 42.0521 Q706.342 42.2717 704.366 43.194 Q702.433 44.1162 700.721 45.6533 Q699.008 47.1465 697.295 50.089 Q695.582 52.9875 694.572 56.8522 L698.261 56.8522 Q699.535 56.8522 700.457 56.8522 Q701.379 56.8083 703.4 56.6326 Q705.464 56.4569 706.957 56.1495 Q708.45 55.7982 710.339 55.0955 Q712.227 54.3928 713.413 53.4706 Q714.642 52.5044 715.477 50.9673 Q716.311 49.4302 716.311 47.4979 Z" fill="#ffffff" fill-rule="nonzero" fill-opacity="1" /><path clip-path="url(#clip210)" d="M761.806 69.1929 Q762.157 69.5882 762.157 69.9834 Q762.157 70.3787 761.279 71.5205 Q760.444 72.6624 758.644 74.1994 Q756.843 75.7365 754.516 77.1858 Q752.188 78.6351 748.762 79.6012 Q745.337 80.6113 741.736 80.6113 Q735.28 80.6113 731.415 76 Q727.594 71.3888 727.594 64.3181 Q727.594 59.7946 729.088 55.7982 Q730.581 51.7578 732.996 48.9032 Q735.456 46.0486 738.53 43.9845 Q741.648 41.8765 744.898 40.8664 Q748.148 39.8563 751.178 39.8563 Q755.613 39.8563 758.205 42.0961 Q760.796 44.3358 760.796 47.4979 Q760.796 48.2445 760.576 49.1667 Q760.4 50.089 759.786 51.5382 Q759.215 52.9875 757.722 54.4368 Q756.228 55.8421 754.032 56.7644 Q749.158 58.8285 740.286 58.8285 L735.499 58.8285 Q734.094 64.4938 734.094 68.1828 Q734.094 69.6321 734.358 71.1253 Q734.621 72.5745 735.324 74.419 Q736.07 76.2636 737.739 77.4493 Q739.452 78.5912 741.911 78.5912 Q742.702 78.5912 743.536 78.5472 Q744.415 78.5033 746.61 78.0202 Q748.85 77.5371 750.827 76.7027 Q752.803 75.8683 755.306 74.0677 Q757.853 72.2232 759.873 69.7199 Q760.576 68.7976 761.059 68.7976 Q761.454 68.7976 761.806 69.1929 M757.809 47.4979 Q757.809 45.0824 756.009 43.4575 Q754.252 41.8326 751.178 41.8326 Q750.212 41.8326 749.026 42.0521 Q747.84 42.2717 745.864 43.194 Q743.932 44.1162 742.219 45.6533 Q740.506 47.1465 738.793 50.089 Q737.08 52.9875 736.07 56.8522 L739.759 56.8522 Q741.033 56.8522 741.955 56.8522 Q742.878 56.8083 744.898 56.6326 Q746.962 56.4569 748.455 56.1495 Q749.948 55.7982 751.837 55.0955 Q753.725 54.3928 754.911 53.4706 Q756.14 52.5044 756.975 50.9673 Q757.809 49.4302 757.809 47.4979 Z" fill="#ffffff" fill-rule="nonzero" fill-opacity="1" /><path clip-path="url(#clip210)" d="M802.206 47.5857 Q802.206 50.0451 800.976 51.3626 Q799.747 52.6362 798.078 52.6362 Q796.716 52.6362 795.97 51.8457 Q795.267 51.0551 795.267 50.0011 Q795.267 48.464 796.497 47.2344 Q797.77 46.0047 799.615 45.9608 Q799 44.3358 797.375 43.3697 Q795.75 42.3596 794.301 42.0961 Q792.895 41.8326 791.49 41.8326 Q788.723 41.8326 786.615 42.7109 Q784.507 43.5892 783.453 44.9507 Q782.399 46.2682 781.916 47.5418 Q781.433 48.8154 781.433 49.9133 Q781.433 50.8795 781.653 51.67 Q781.916 52.4166 782.531 52.9875 Q783.146 53.5145 783.585 53.8658 Q784.068 54.2172 785.122 54.5246 Q786.176 54.832 786.615 54.9638 Q787.055 55.0516 788.284 55.3151 Q790.831 55.8421 791.973 56.1495 Q793.115 56.413 794.608 57.1596 Q796.145 57.9062 797.287 59.092 Q800.054 61.8587 800.054 65.6795 Q800.054 67.0849 799.571 68.7976 Q799.132 70.5104 797.858 72.6624 Q796.585 74.8143 794.652 76.5271 Q792.72 78.2398 789.382 79.4256 Q786.088 80.6113 781.96 80.6113 Q776.207 80.6113 772.65 78.1959 Q769.092 75.7365 769.092 71.8718 Q769.092 69.0611 770.63 67.5241 Q772.167 65.943 774.143 65.943 Q775.636 65.943 776.558 66.7775 Q777.481 67.568 777.481 69.0611 Q777.481 71.0813 775.856 72.6184 Q774.231 74.1555 771.815 73.8481 Q773.879 78.5912 782.048 78.5912 Q785.122 78.5912 787.494 77.8006 Q789.909 76.9662 791.227 75.8244 Q792.588 74.6386 793.466 73.1894 Q794.345 71.7401 794.608 70.6422 Q794.916 69.5442 794.916 68.7098 Q794.916 67.2605 794.345 66.1626 Q793.774 65.0647 792.983 64.4499 Q792.237 63.7911 790.787 63.2641 Q789.382 62.6932 788.372 62.4736 Q787.362 62.254 785.561 61.9027 Q784.727 61.727 784.2 61.6392 Q783.673 61.5074 782.575 61.1561 Q781.521 60.7608 780.774 60.3656 Q780.072 59.9703 779.149 59.2676 Q778.227 58.565 777.656 57.7305 Q777.085 56.8961 776.69 55.6664 Q776.295 54.4368 776.295 52.9875 Q776.295 51.67 776.69 50.089 Q777.129 48.508 778.227 46.6634 Q779.369 44.8189 780.994 43.3257 Q782.619 41.8326 785.342 40.8664 Q788.109 39.8563 791.49 39.8563 Q796.409 39.8563 799.307 42.14 Q802.206 44.3797 802.206 47.5857 Z" fill="#ffffff" fill-rule="nonzero" fill-opacity="1" /><circle clip-path="url(#clip212)" cx="391.223" cy="2298.56" r="28.8" fill="#7aad73" fill-rule="evenodd" fill-opacity="1" stroke="none"/>
<circle clip-path="url(#clip212)" cx="732.273" cy="433.285" r="28.8" fill="#7aad73" fill-rule="evenodd" fill-opacity="1" stroke="none"/>
<circle clip-path="url(#clip212)" cx="1073.32" cy="792.924" r="28.8" fill="#7aad73" fill-rule="evenodd" fill-opacity="1" stroke="none"/>
<circle clip-path="url(#clip212)" cx="1414.37" cy="734.243" r="28.8" fill="#7aad73" fill-rule="evenodd" fill-opacity="1" stroke="none"/>
<circle clip-path="url(#clip212)" cx="1755.42" cy="705.935" r="28.8" fill="#7aad73" fill-rule="evenodd" fill-opacity="1" stroke="none"/>
<circle clip-path="url(#clip212)" cx="2096.47" cy="573.212" r="28.8" fill="#7aad73" fill-rule="evenodd" fill-opacity="1" stroke="none"/>
<circle clip-path="url(#clip212)" cx="2437.52" cy="458.636" r="28.8" fill="#7aad73" fill-rule="evenodd" fill-opacity="1" stroke="none"/>
<circle clip-path="url(#clip212)" cx="2778.57" cy="345.162" r="28.8" fill="#7aad73" fill-rule="evenodd" fill-opacity="1" stroke="none"/>
<circle clip-path="url(#clip212)" cx="3119.62" cy="260.824" r="28.8" fill="#7aad73" fill-rule="evenodd" fill-opacity="1" stroke="none"/>
<circle clip-path="url(#clip212)" cx="3460.67" cy="196.261" r="28.8" fill="#7aad73" fill-rule="evenodd" fill-opacity="1" stroke="none"/>
</svg>
