<?xml version="1.0" encoding="utf-8"?>
<svg xmlns="http://www.w3.org/2000/svg" xmlns:xlink="http://www.w3.org/1999/xlink" width="600" height="400" viewBox="0 0 2400 1600">
<defs>
  <clipPath id="clip440">
    <rect x="0" y="0" width="2400" height="1600"/>
  </clipPath>
</defs>
<path clip-path="url(#clip440)" d="M0 1600 L2400 1600 L2400 0 L0 0  Z" fill="#ffffff" fill-rule="evenodd" fill-opacity="1"/>
<defs>
  <clipPath id="clip441">
    <rect x="480" y="0" width="1681" height="1600"/>
  </clipPath>
</defs>
<path clip-path="url(#clip440)" d="M219.519 1423.18 L2352.76 1423.18 L2352.76 97.5521 L219.519 97.5521  Z" fill="#ffffff" fill-rule="evenodd" fill-opacity="1"/>
<defs>
  <clipPath id="clip442">
    <rect x="219" y="97" width="2134" height="1327"/>
  </clipPath>
</defs>
<polyline clip-path="url(#clip442)" style="stroke:#000000; stroke-linecap:round; stroke-linejoin:round; stroke-width:2; stroke-opacity:0.1; fill:none" points="597.655,1423.18 597.655,97.5521 "/>
<polyline clip-path="url(#clip442)" style="stroke:#000000; stroke-linecap:round; stroke-linejoin:round; stroke-width:2; stroke-opacity:0.1; fill:none" points="1021.34,1423.18 1021.34,97.5521 "/>
<polyline clip-path="url(#clip442)" style="stroke:#000000; stroke-linecap:round; stroke-linejoin:round; stroke-width:2; stroke-opacity:0.1; fill:none" points="1445.02,1423.18 1445.02,97.5521 "/>
<polyline clip-path="url(#clip442)" style="stroke:#000000; stroke-linecap:round; stroke-linejoin:round; stroke-width:2; stroke-opacity:0.1; fill:none" points="1868.7,1423.18 1868.7,97.5521 "/>
<polyline clip-path="url(#clip442)" style="stroke:#000000; stroke-linecap:round; stroke-linejoin:round; stroke-width:2; stroke-opacity:0.1; fill:none" points="2292.38,1423.18 2292.38,97.5521 "/>
<polyline clip-path="url(#clip440)" style="stroke:#000000; stroke-linecap:round; stroke-linejoin:round; stroke-width:4; stroke-opacity:1; fill:none" points="219.519,1423.18 2352.76,1423.18 "/>
<polyline clip-path="url(#clip440)" style="stroke:#000000; stroke-linecap:round; stroke-linejoin:round; stroke-width:4; stroke-opacity:1; fill:none" points="597.655,1423.18 597.655,1404.28 "/>
<polyline clip-path="url(#clip440)" style="stroke:#000000; stroke-linecap:round; stroke-linejoin:round; stroke-width:4; stroke-opacity:1; fill:none" points="1021.34,1423.18 1021.34,1404.28 "/>
<polyline clip-path="url(#clip440)" style="stroke:#000000; stroke-linecap:round; stroke-linejoin:round; stroke-width:4; stroke-opacity:1; fill:none" points="1445.02,1423.18 1445.02,1404.28 "/>
<polyline clip-path="url(#clip440)" style="stroke:#000000; stroke-linecap:round; stroke-linejoin:round; stroke-width:4; stroke-opacity:1; fill:none" points="1868.7,1423.18 1868.7,1404.28 "/>
<polyline clip-path="url(#clip440)" style="stroke:#000000; stroke-linecap:round; stroke-linejoin:round; stroke-width:4; stroke-opacity:1; fill:none" points="2292.38,1423.18 2292.38,1404.28 "/>
<path clip-path="url(#clip440)" d="M561.347 1481.64 L577.667 1481.64 L577.667 1485.58 L555.722 1485.58 L555.722 1481.64 Q558.384 1478.89 562.968 1474.26 Q567.574 1469.61 568.755 1468.27 Q571 1465.74 571.88 1464.01 Q572.782 1462.25 572.782 1460.56 Q572.782 1457.8 570.838 1456.07 Q568.917 1454.33 565.815 1454.33 Q563.616 1454.33 561.162 1455.09 Q558.731 1455.86 555.954 1457.41 L555.954 1452.69 Q558.778 1451.55 561.231 1450.97 Q563.685 1450.39 565.722 1450.39 Q571.093 1450.39 574.287 1453.08 Q577.481 1455.77 577.481 1460.26 Q577.481 1462.39 576.671 1464.31 Q575.884 1466.2 573.778 1468.8 Q573.199 1469.47 570.097 1472.69 Q566.995 1475.88 561.347 1481.64 Z" fill="#000000" fill-rule="nonzero" fill-opacity="1" /><path clip-path="url(#clip440)" d="M597.481 1454.1 Q593.87 1454.1 592.041 1457.66 Q590.236 1461.2 590.236 1468.33 Q590.236 1475.44 592.041 1479.01 Q593.87 1482.55 597.481 1482.55 Q601.116 1482.55 602.921 1479.01 Q604.75 1475.44 604.75 1468.33 Q604.75 1461.2 602.921 1457.66 Q601.116 1454.1 597.481 1454.1 M597.481 1450.39 Q603.291 1450.39 606.347 1455 Q609.426 1459.58 609.426 1468.33 Q609.426 1477.06 606.347 1481.67 Q603.291 1486.25 597.481 1486.25 Q591.671 1486.25 588.592 1481.67 Q585.537 1477.06 585.537 1468.33 Q585.537 1459.58 588.592 1455 Q591.671 1450.39 597.481 1450.39 Z" fill="#000000" fill-rule="nonzero" fill-opacity="1" /><path clip-path="url(#clip440)" d="M627.643 1454.1 Q624.032 1454.1 622.203 1457.66 Q620.398 1461.2 620.398 1468.33 Q620.398 1475.44 622.203 1479.01 Q624.032 1482.55 627.643 1482.55 Q631.277 1482.55 633.083 1479.01 Q634.912 1475.44 634.912 1468.33 Q634.912 1461.2 633.083 1457.66 Q631.277 1454.1 627.643 1454.1 M627.643 1450.39 Q633.453 1450.39 636.509 1455 Q639.588 1459.58 639.588 1468.33 Q639.588 1477.06 636.509 1481.67 Q633.453 1486.25 627.643 1486.25 Q621.833 1486.25 618.754 1481.67 Q615.699 1477.06 615.699 1468.33 Q615.699 1459.58 618.754 1455 Q621.833 1450.39 627.643 1450.39 Z" fill="#000000" fill-rule="nonzero" fill-opacity="1" /><path clip-path="url(#clip440)" d="M994.427 1455.09 L982.621 1473.54 L994.427 1473.54 L994.427 1455.09 M993.2 1451.02 L999.08 1451.02 L999.08 1473.54 L1004.01 1473.54 L1004.01 1477.43 L999.08 1477.43 L999.08 1485.58 L994.427 1485.58 L994.427 1477.43 L978.825 1477.43 L978.825 1472.92 L993.2 1451.02 Z" fill="#000000" fill-rule="nonzero" fill-opacity="1" /><path clip-path="url(#clip440)" d="M1021.74 1454.1 Q1018.13 1454.1 1016.3 1457.66 Q1014.5 1461.2 1014.5 1468.33 Q1014.5 1475.44 1016.3 1479.01 Q1018.13 1482.55 1021.74 1482.55 Q1025.38 1482.55 1027.18 1479.01 Q1029.01 1475.44 1029.01 1468.33 Q1029.01 1461.2 1027.18 1457.66 Q1025.38 1454.1 1021.74 1454.1 M1021.74 1450.39 Q1027.55 1450.39 1030.61 1455 Q1033.69 1459.58 1033.69 1468.33 Q1033.69 1477.06 1030.61 1481.67 Q1027.55 1486.25 1021.74 1486.25 Q1015.93 1486.25 1012.85 1481.67 Q1009.8 1477.06 1009.8 1468.33 Q1009.8 1459.58 1012.85 1455 Q1015.93 1450.39 1021.74 1450.39 Z" fill="#000000" fill-rule="nonzero" fill-opacity="1" /><path clip-path="url(#clip440)" d="M1051.9 1454.1 Q1048.29 1454.1 1046.46 1457.66 Q1044.66 1461.2 1044.66 1468.33 Q1044.66 1475.44 1046.46 1479.01 Q1048.29 1482.55 1051.9 1482.55 Q1055.54 1482.55 1057.34 1479.01 Q1059.17 1475.44 1059.17 1468.33 Q1059.17 1461.2 1057.34 1457.66 Q1055.54 1454.1 1051.9 1454.1 M1051.9 1450.39 Q1057.71 1450.39 1060.77 1455 Q1063.85 1459.58 1063.85 1468.33 Q1063.85 1477.06 1060.77 1481.67 Q1057.71 1486.25 1051.9 1486.25 Q1046.09 1486.25 1043.01 1481.67 Q1039.96 1477.06 1039.96 1468.33 Q1039.96 1459.58 1043.01 1455 Q1046.09 1450.39 1051.9 1450.39 Z" fill="#000000" fill-rule="nonzero" fill-opacity="1" /><path clip-path="url(#clip440)" d="M1415.34 1466.44 Q1412.19 1466.44 1410.34 1468.59 Q1408.51 1470.74 1408.51 1474.49 Q1408.51 1478.22 1410.34 1480.39 Q1412.19 1482.55 1415.34 1482.55 Q1418.49 1482.55 1420.32 1480.39 Q1422.17 1478.22 1422.17 1474.49 Q1422.17 1470.74 1420.32 1468.59 Q1418.49 1466.44 1415.34 1466.44 M1424.62 1451.78 L1424.62 1456.04 Q1422.87 1455.21 1421.06 1454.77 Q1419.28 1454.33 1417.52 1454.33 Q1412.89 1454.33 1410.43 1457.45 Q1408 1460.58 1407.66 1466.9 Q1409.02 1464.89 1411.08 1463.82 Q1413.14 1462.73 1415.62 1462.73 Q1420.83 1462.73 1423.84 1465.9 Q1426.87 1469.05 1426.87 1474.49 Q1426.87 1479.82 1423.72 1483.03 Q1420.57 1486.25 1415.34 1486.25 Q1409.35 1486.25 1406.18 1481.67 Q1403 1477.06 1403 1468.33 Q1403 1460.14 1406.89 1455.28 Q1410.78 1450.39 1417.33 1450.39 Q1419.09 1450.39 1420.87 1450.74 Q1422.68 1451.09 1424.62 1451.78 Z" fill="#000000" fill-rule="nonzero" fill-opacity="1" /><path clip-path="url(#clip440)" d="M1444.93 1454.1 Q1441.31 1454.1 1439.49 1457.66 Q1437.68 1461.2 1437.68 1468.33 Q1437.68 1475.44 1439.49 1479.01 Q1441.31 1482.55 1444.93 1482.55 Q1448.56 1482.55 1450.37 1479.01 Q1452.19 1475.44 1452.19 1468.33 Q1452.19 1461.2 1450.37 1457.66 Q1448.56 1454.1 1444.93 1454.1 M1444.93 1450.39 Q1450.74 1450.39 1453.79 1455 Q1456.87 1459.58 1456.87 1468.33 Q1456.87 1477.06 1453.79 1481.67 Q1450.74 1486.25 1444.93 1486.25 Q1439.12 1486.25 1436.04 1481.67 Q1432.98 1477.06 1432.98 1468.33 Q1432.98 1459.58 1436.04 1455 Q1439.12 1450.39 1444.93 1450.39 Z" fill="#000000" fill-rule="nonzero" fill-opacity="1" /><path clip-path="url(#clip440)" d="M1475.09 1454.1 Q1471.48 1454.1 1469.65 1457.66 Q1467.84 1461.2 1467.84 1468.33 Q1467.84 1475.44 1469.65 1479.01 Q1471.48 1482.55 1475.09 1482.55 Q1478.72 1482.55 1480.53 1479.01 Q1482.36 1475.44 1482.36 1468.33 Q1482.36 1461.2 1480.53 1457.66 Q1478.72 1454.1 1475.09 1454.1 M1475.09 1450.39 Q1480.9 1450.39 1483.95 1455 Q1487.03 1459.58 1487.03 1468.33 Q1487.03 1477.06 1483.95 1481.67 Q1480.9 1486.25 1475.09 1486.25 Q1469.28 1486.25 1466.2 1481.67 Q1463.14 1477.06 1463.14 1468.33 Q1463.14 1459.58 1466.2 1455 Q1469.28 1450.39 1475.09 1450.39 Z" fill="#000000" fill-rule="nonzero" fill-opacity="1" /><path clip-path="url(#clip440)" d="M1838.49 1469.17 Q1835.16 1469.17 1833.24 1470.95 Q1831.34 1472.73 1831.34 1475.86 Q1831.34 1478.98 1833.24 1480.77 Q1835.16 1482.55 1838.49 1482.55 Q1841.82 1482.55 1843.75 1480.77 Q1845.67 1478.96 1845.67 1475.86 Q1845.67 1472.73 1843.75 1470.95 Q1841.85 1469.17 1838.49 1469.17 M1833.82 1467.18 Q1830.81 1466.44 1829.12 1464.38 Q1827.45 1462.32 1827.45 1459.35 Q1827.45 1455.21 1830.39 1452.8 Q1833.35 1450.39 1838.49 1450.39 Q1843.65 1450.39 1846.59 1452.8 Q1849.53 1455.21 1849.53 1459.35 Q1849.53 1462.32 1847.84 1464.38 Q1846.18 1466.44 1843.19 1467.18 Q1846.57 1467.96 1848.45 1470.26 Q1850.34 1472.55 1850.34 1475.86 Q1850.34 1480.88 1847.26 1483.57 Q1844.21 1486.25 1838.49 1486.25 Q1832.77 1486.25 1829.7 1483.57 Q1826.64 1480.88 1826.64 1475.86 Q1826.64 1472.55 1828.54 1470.26 Q1830.44 1467.96 1833.82 1467.18 M1832.1 1459.79 Q1832.1 1462.48 1833.77 1463.98 Q1835.46 1465.49 1838.49 1465.49 Q1841.5 1465.49 1843.19 1463.98 Q1844.9 1462.48 1844.9 1459.79 Q1844.9 1457.11 1843.19 1455.6 Q1841.5 1454.1 1838.49 1454.1 Q1835.46 1454.1 1833.77 1455.6 Q1832.1 1457.11 1832.1 1459.79 Z" fill="#000000" fill-rule="nonzero" fill-opacity="1" /><path clip-path="url(#clip440)" d="M1868.65 1454.1 Q1865.04 1454.1 1863.21 1457.66 Q1861.41 1461.2 1861.41 1468.33 Q1861.41 1475.44 1863.21 1479.01 Q1865.04 1482.55 1868.65 1482.55 Q1872.29 1482.55 1874.09 1479.01 Q1875.92 1475.44 1875.92 1468.33 Q1875.92 1461.2 1874.09 1457.66 Q1872.29 1454.1 1868.65 1454.1 M1868.65 1450.39 Q1874.46 1450.39 1877.52 1455 Q1880.6 1459.58 1880.6 1468.33 Q1880.6 1477.06 1877.52 1481.67 Q1874.46 1486.25 1868.65 1486.25 Q1862.84 1486.25 1859.76 1481.67 Q1856.71 1477.06 1856.71 1468.33 Q1856.71 1459.58 1859.76 1455 Q1862.84 1450.39 1868.65 1450.39 Z" fill="#000000" fill-rule="nonzero" fill-opacity="1" /><path clip-path="url(#clip440)" d="M1898.82 1454.1 Q1895.2 1454.1 1893.38 1457.66 Q1891.57 1461.2 1891.57 1468.33 Q1891.57 1475.44 1893.38 1479.01 Q1895.2 1482.55 1898.82 1482.55 Q1902.45 1482.55 1904.26 1479.01 Q1906.08 1475.44 1906.08 1468.33 Q1906.08 1461.2 1904.26 1457.66 Q1902.45 1454.1 1898.82 1454.1 M1898.82 1450.39 Q1904.63 1450.39 1907.68 1455 Q1910.76 1459.58 1910.76 1468.33 Q1910.76 1477.06 1907.68 1481.67 Q1904.63 1486.25 1898.82 1486.25 Q1893.01 1486.25 1889.93 1481.67 Q1886.87 1477.06 1886.87 1468.33 Q1886.87 1459.58 1889.93 1455 Q1893.01 1450.39 1898.82 1450.39 Z" fill="#000000" fill-rule="nonzero" fill-opacity="1" /><path clip-path="url(#clip440)" d="M2236.91 1481.64 L2244.55 1481.64 L2244.55 1455.28 L2236.24 1456.95 L2236.24 1452.69 L2244.5 1451.02 L2249.18 1451.02 L2249.18 1481.64 L2256.81 1481.64 L2256.81 1485.58 L2236.91 1485.58 L2236.91 1481.64 Z" fill="#000000" fill-rule="nonzero" fill-opacity="1" /><path clip-path="url(#clip440)" d="M2276.26 1454.1 Q2272.65 1454.1 2270.82 1457.66 Q2269.01 1461.2 2269.01 1468.33 Q2269.01 1475.44 2270.82 1479.01 Q2272.65 1482.55 2276.26 1482.55 Q2279.89 1482.55 2281.7 1479.01 Q2283.53 1475.44 2283.53 1468.33 Q2283.53 1461.2 2281.7 1457.66 Q2279.89 1454.1 2276.26 1454.1 M2276.26 1450.39 Q2282.07 1450.39 2285.12 1455 Q2288.2 1459.58 2288.2 1468.33 Q2288.2 1477.06 2285.12 1481.67 Q2282.07 1486.25 2276.26 1486.25 Q2270.45 1486.25 2267.37 1481.67 Q2264.31 1477.06 2264.31 1468.33 Q2264.31 1459.58 2267.37 1455 Q2270.45 1450.39 2276.26 1450.39 Z" fill="#000000" fill-rule="nonzero" fill-opacity="1" /><path clip-path="url(#clip440)" d="M2306.42 1454.1 Q2302.81 1454.1 2300.98 1457.66 Q2299.18 1461.2 2299.18 1468.33 Q2299.18 1475.44 2300.98 1479.01 Q2302.81 1482.55 2306.42 1482.55 Q2310.05 1482.55 2311.86 1479.01 Q2313.69 1475.44 2313.69 1468.33 Q2313.69 1461.2 2311.86 1457.66 Q2310.05 1454.1 2306.42 1454.1 M2306.42 1450.39 Q2312.23 1450.39 2315.29 1455 Q2318.36 1459.58 2318.36 1468.33 Q2318.36 1477.06 2315.29 1481.67 Q2312.23 1486.25 2306.42 1486.25 Q2300.61 1486.25 2297.53 1481.67 Q2294.48 1477.06 2294.48 1468.33 Q2294.48 1459.58 2297.53 1455 Q2300.61 1450.39 2306.42 1450.39 Z" fill="#000000" fill-rule="nonzero" fill-opacity="1" /><path clip-path="url(#clip440)" d="M2336.58 1454.1 Q2332.97 1454.1 2331.14 1457.66 Q2329.34 1461.2 2329.34 1468.33 Q2329.34 1475.44 2331.14 1479.01 Q2332.97 1482.55 2336.58 1482.55 Q2340.22 1482.55 2342.02 1479.01 Q2343.85 1475.44 2343.85 1468.33 Q2343.85 1461.2 2342.02 1457.66 Q2340.22 1454.1 2336.58 1454.1 M2336.58 1450.39 Q2342.39 1450.39 2345.45 1455 Q2348.53 1459.58 2348.53 1468.33 Q2348.53 1477.06 2345.45 1481.67 Q2342.39 1486.25 2336.58 1486.25 Q2330.77 1486.25 2327.69 1481.67 Q2324.64 1477.06 2324.64 1468.33 Q2324.64 1459.58 2327.69 1455 Q2330.77 1450.39 2336.58 1450.39 Z" fill="#000000" fill-rule="nonzero" fill-opacity="1" /><path clip-path="url(#clip440)" d="M983.846 1520.52 L990.275 1520.52 L990.275 1544.01 L1013.26 1520.52 L1021.5 1520.52 L1003.13 1539.3 L1022.45 1568.04 L1015.45 1568.04 L998.965 1543.57 L990.275 1552.45 L990.275 1568.04 L983.846 1568.04 L983.846 1520.52 Z" fill="#000000" fill-rule="nonzero" fill-opacity="1" /><path clip-path="url(#clip440)" d="M1043.68 1536.5 Q1038.97 1536.5 1036.24 1540.19 Q1033.5 1543.85 1033.5 1550.25 Q1033.5 1556.65 1036.2 1560.34 Q1038.94 1564 1043.68 1564 Q1048.36 1564 1051.1 1560.31 Q1053.84 1556.62 1053.84 1550.25 Q1053.84 1543.92 1051.1 1540.23 Q1048.36 1536.5 1043.68 1536.5 M1043.68 1531.54 Q1051.32 1531.54 1055.68 1536.5 Q1060.04 1541.47 1060.04 1550.25 Q1060.04 1559 1055.68 1564 Q1051.32 1568.97 1043.68 1568.97 Q1036.01 1568.97 1031.65 1564 Q1027.32 1559 1027.32 1550.25 Q1027.32 1541.47 1031.65 1536.5 Q1036.01 1531.54 1043.68 1531.54 Z" fill="#000000" fill-rule="nonzero" fill-opacity="1" /><path clip-path="url(#clip440)" d="M1066.03 1568.04 L1066.03 1563.17 Q1071.82 1562.28 1073.6 1558.27 Q1075.77 1552.64 1075.77 1538.22 L1075.77 1532.4 L1099.86 1532.4 L1099.86 1568.04 L1094 1568.04 L1094 1537.07 L1081.62 1537.07 L1081.62 1540.61 Q1081.62 1554.36 1078.82 1560.53 Q1075.83 1567.12 1066.03 1568.04 Z" fill="#000000" fill-rule="nonzero" fill-opacity="1" /><path clip-path="url(#clip440)" d="M1141.72 1532.4 L1141.72 1568.04 L1135.89 1568.04 L1135.89 1539.43 L1118.7 1568.04 L1111.19 1568.04 L1111.19 1532.4 L1117.02 1532.4 L1117.02 1560.95 L1134.17 1532.4 L1141.72 1532.4 Z" fill="#000000" fill-rule="nonzero" fill-opacity="1" /><path clip-path="url(#clip440)" d="M1174.37 1568.04 L1174.37 1553.05 L1163.45 1553.05 Q1158.58 1553.05 1155.34 1550.03 Q1152.41 1547.29 1152.41 1541.44 L1152.41 1532.4 L1158.27 1532.4 L1158.27 1540.89 Q1158.27 1544.62 1159.92 1546.5 Q1161.61 1548.37 1164.92 1548.37 L1174.37 1548.37 L1174.37 1532.4 L1180.23 1532.4 L1180.23 1568.04 L1174.37 1568.04 Z" fill="#000000" fill-rule="nonzero" fill-opacity="1" /><path clip-path="url(#clip440)" d="M1222.78 1548.76 L1222.78 1551.62 L1195.86 1551.62 Q1196.24 1557.67 1199.48 1560.85 Q1202.76 1564 1208.59 1564 Q1211.96 1564 1215.11 1563.17 Q1218.29 1562.35 1221.41 1560.69 L1221.41 1566.23 Q1218.26 1567.57 1214.95 1568.27 Q1211.64 1568.97 1208.24 1568.97 Q1199.71 1568.97 1194.71 1564 Q1189.74 1559.04 1189.74 1550.57 Q1189.74 1541.82 1194.46 1536.69 Q1199.2 1531.54 1207.22 1531.54 Q1214.41 1531.54 1218.58 1536.18 Q1222.78 1540.8 1222.78 1548.76 M1216.93 1547.04 Q1216.86 1542.23 1214.22 1539.37 Q1211.61 1536.5 1207.28 1536.5 Q1202.38 1536.5 1199.42 1539.27 Q1196.49 1542.04 1196.05 1547.07 L1216.93 1547.04 Z" fill="#000000" fill-rule="nonzero" fill-opacity="1" /><path clip-path="url(#clip440)" d="M1258.05 1533.76 L1258.05 1539.24 Q1255.57 1537.87 1253.05 1537.2 Q1250.57 1536.5 1248.02 1536.5 Q1242.33 1536.5 1239.17 1540.13 Q1236.02 1543.73 1236.02 1550.25 Q1236.02 1556.78 1239.17 1560.4 Q1242.33 1564 1248.02 1564 Q1250.57 1564 1253.05 1563.33 Q1255.57 1562.63 1258.05 1561.26 L1258.05 1566.68 Q1255.6 1567.82 1252.96 1568.39 Q1250.35 1568.97 1247.39 1568.97 Q1239.33 1568.97 1234.59 1563.91 Q1229.85 1558.85 1229.85 1550.25 Q1229.85 1541.53 1234.62 1536.53 Q1239.43 1531.54 1247.77 1531.54 Q1250.47 1531.54 1253.05 1532.11 Q1255.63 1532.65 1258.05 1533.76 Z" fill="#000000" fill-rule="nonzero" fill-opacity="1" /><path clip-path="url(#clip440)" d="M1264 1532.4 L1298.15 1532.4 L1298.15 1537.07 L1283.96 1537.07 L1283.96 1568.04 L1278.2 1568.04 L1278.2 1537.07 L1264 1537.07 L1264 1532.4 Z" fill="#000000" fill-rule="nonzero" fill-opacity="1" /><path clip-path="url(#clip440)" d="M1311.84 1551.62 L1311.84 1563.37 L1320.18 1563.37 Q1324.19 1563.37 1326.29 1561.87 Q1328.39 1560.34 1328.39 1557.48 Q1328.39 1554.61 1326.29 1553.12 Q1324.19 1551.62 1320.18 1551.62 L1311.84 1551.62 M1311.84 1537.07 L1311.84 1546.94 L1319.54 1546.94 Q1322.85 1546.94 1324.95 1545.64 Q1327.05 1544.3 1327.05 1541.94 Q1327.05 1539.59 1324.95 1538.35 Q1322.85 1537.07 1319.54 1537.07 L1311.84 1537.07 M1305.98 1532.4 L1319.92 1532.4 Q1326.19 1532.4 1329.57 1534.69 Q1332.94 1536.98 1332.94 1541.21 Q1332.94 1544.49 1331.22 1546.43 Q1329.5 1548.34 1326.13 1548.82 Q1330.17 1549.58 1332.4 1552 Q1334.63 1554.42 1334.63 1558.05 Q1334.63 1562.82 1330.94 1565.43 Q1327.28 1568.04 1320.46 1568.04 L1305.98 1568.04 L1305.98 1532.4 Z" fill="#000000" fill-rule="nonzero" fill-opacity="1" /><path clip-path="url(#clip440)" d="M1358.44 1536.5 Q1353.73 1536.5 1350.99 1540.19 Q1348.25 1543.85 1348.25 1550.25 Q1348.25 1556.65 1350.96 1560.34 Q1353.69 1564 1358.44 1564 Q1363.11 1564 1365.85 1560.31 Q1368.59 1556.62 1368.59 1550.25 Q1368.59 1543.92 1365.85 1540.23 Q1363.11 1536.5 1358.44 1536.5 M1358.44 1531.54 Q1366.07 1531.54 1370.44 1536.5 Q1374.8 1541.47 1374.8 1550.25 Q1374.8 1559 1370.44 1564 Q1366.07 1568.97 1358.44 1568.97 Q1350.77 1568.97 1346.4 1564 Q1342.08 1559 1342.08 1550.25 Q1342.08 1541.47 1346.4 1536.5 Q1350.77 1531.54 1358.44 1531.54 Z" fill="#000000" fill-rule="nonzero" fill-opacity="1" /><path clip-path="url(#clip440)" d="M1420.06 1571.35 Q1417.57 1577.72 1415.22 1579.66 Q1412.86 1581.6 1408.92 1581.6 L1404.24 1581.6 L1404.24 1576.7 L1407.67 1576.7 Q1410.09 1576.7 1411.43 1575.56 Q1412.77 1574.41 1414.39 1570.14 L1415.44 1567.47 L1401.02 1532.4 L1407.23 1532.4 L1418.37 1560.28 L1429.51 1532.4 L1435.72 1532.4 L1420.06 1571.35 Z" fill="#000000" fill-rule="nonzero" fill-opacity="1" /><path clip-path="url(#clip440)" d="M1460.13 1548.82 Q1464.07 1549.58 1466.27 1551.91 Q1468.47 1554.23 1468.47 1557.67 Q1468.47 1563.17 1464.36 1566.07 Q1460.26 1568.97 1452.68 1568.97 Q1450.13 1568.97 1447.43 1568.52 Q1444.75 1568.08 1441.89 1567.18 L1441.89 1561.74 Q1444.15 1562.92 1446.86 1563.52 Q1449.56 1564.1 1452.52 1564.1 Q1457.33 1564.1 1460 1562.31 Q1462.71 1560.53 1462.71 1557.67 Q1462.71 1554.87 1460.32 1553.18 Q1457.93 1551.46 1453.57 1551.46 L1448.86 1551.46 L1448.86 1546.62 L1453.79 1546.62 Q1457.49 1546.62 1459.62 1545.22 Q1461.78 1543.79 1461.78 1541.56 Q1461.78 1539.53 1459.56 1538.06 Q1457.36 1536.6 1453.57 1536.6 Q1451.31 1536.6 1448.73 1537.01 Q1446.19 1537.42 1443.1 1538.35 L1443.1 1533.03 Q1446.22 1532.27 1448.92 1531.89 Q1451.63 1531.5 1454.05 1531.5 Q1460.29 1531.5 1463.88 1534.02 Q1467.51 1536.5 1467.51 1540.99 Q1467.51 1543.95 1465.6 1546.02 Q1463.69 1548.06 1460.13 1548.82 Z" fill="#000000" fill-rule="nonzero" fill-opacity="1" /><path clip-path="url(#clip440)" d="M1474.74 1568.04 L1474.74 1563.17 Q1480.53 1562.28 1482.31 1558.27 Q1484.48 1552.64 1484.48 1538.22 L1484.48 1532.4 L1508.57 1532.4 L1508.57 1568.04 L1502.71 1568.04 L1502.71 1537.07 L1490.33 1537.07 L1490.33 1540.61 Q1490.33 1554.36 1487.53 1560.53 Q1484.54 1567.12 1474.74 1568.04 Z" fill="#000000" fill-rule="nonzero" fill-opacity="1" /><path clip-path="url(#clip440)" d="M1533.94 1536.5 Q1529.23 1536.5 1526.49 1540.19 Q1523.75 1543.85 1523.75 1550.25 Q1523.75 1556.65 1526.46 1560.34 Q1529.2 1564 1533.94 1564 Q1538.62 1564 1541.35 1560.31 Q1544.09 1556.62 1544.09 1550.25 Q1544.09 1543.92 1541.35 1540.23 Q1538.62 1536.5 1533.94 1536.5 M1533.94 1531.54 Q1541.58 1531.54 1545.94 1536.5 Q1550.3 1541.47 1550.3 1550.25 Q1550.3 1559 1545.94 1564 Q1541.58 1568.97 1533.94 1568.97 Q1526.27 1568.97 1521.91 1564 Q1517.58 1559 1517.58 1550.25 Q1517.58 1541.47 1521.91 1536.5 Q1526.27 1531.54 1533.94 1531.54 Z" fill="#000000" fill-rule="nonzero" fill-opacity="1" /><path clip-path="url(#clip440)" d="M1565.64 1551.62 L1565.64 1563.37 L1573.98 1563.37 Q1577.99 1563.37 1580.09 1561.87 Q1582.19 1560.34 1582.19 1557.48 Q1582.19 1554.61 1580.09 1553.12 Q1577.99 1551.62 1573.98 1551.62 L1565.64 1551.62 M1565.64 1537.07 L1565.64 1546.94 L1573.34 1546.94 Q1576.65 1546.94 1578.75 1545.64 Q1580.85 1544.3 1580.85 1541.94 Q1580.85 1539.59 1578.75 1538.35 Q1576.65 1537.07 1573.34 1537.07 L1565.64 1537.07 M1559.78 1532.4 L1573.72 1532.4 Q1579.99 1532.4 1583.37 1534.69 Q1586.74 1536.98 1586.74 1541.21 Q1586.74 1544.49 1585.02 1546.43 Q1583.3 1548.34 1579.93 1548.82 Q1583.97 1549.58 1586.2 1552 Q1588.43 1554.42 1588.43 1558.05 Q1588.43 1562.82 1584.74 1565.43 Q1581.08 1568.04 1574.27 1568.04 L1559.78 1568.04 L1559.78 1532.4 Z" fill="#000000" fill-rule="nonzero" fill-opacity="1" /><polyline clip-path="url(#clip442)" style="stroke:#000000; stroke-linecap:round; stroke-linejoin:round; stroke-width:2; stroke-opacity:0.1; fill:none" points="219.519,1420.57 2352.76,1420.57 "/>
<polyline clip-path="url(#clip442)" style="stroke:#000000; stroke-linecap:round; stroke-linejoin:round; stroke-width:2; stroke-opacity:0.1; fill:none" points="219.519,1000.6 2352.76,1000.6 "/>
<polyline clip-path="url(#clip442)" style="stroke:#000000; stroke-linecap:round; stroke-linejoin:round; stroke-width:2; stroke-opacity:0.1; fill:none" points="219.519,580.631 2352.76,580.631 "/>
<polyline clip-path="url(#clip442)" style="stroke:#000000; stroke-linecap:round; stroke-linejoin:round; stroke-width:2; stroke-opacity:0.1; fill:none" points="219.519,160.66 2352.76,160.66 "/>
<polyline clip-path="url(#clip440)" style="stroke:#000000; stroke-linecap:round; stroke-linejoin:round; stroke-width:4; stroke-opacity:1; fill:none" points="219.519,1423.18 219.519,97.5521 "/>
<polyline clip-path="url(#clip440)" style="stroke:#000000; stroke-linecap:round; stroke-linejoin:round; stroke-width:4; stroke-opacity:1; fill:none" points="219.519,1420.57 238.417,1420.57 "/>
<polyline clip-path="url(#clip440)" style="stroke:#000000; stroke-linecap:round; stroke-linejoin:round; stroke-width:4; stroke-opacity:1; fill:none" points="219.519,1000.6 238.417,1000.6 "/>
<polyline clip-path="url(#clip440)" style="stroke:#000000; stroke-linecap:round; stroke-linejoin:round; stroke-width:4; stroke-opacity:1; fill:none" points="219.519,580.631 238.417,580.631 "/>
<polyline clip-path="url(#clip440)" style="stroke:#000000; stroke-linecap:round; stroke-linejoin:round; stroke-width:4; stroke-opacity:1; fill:none" points="219.519,160.66 238.417,160.66 "/>
<path clip-path="url(#clip440)" d="M119.885 1433.92 L136.204 1433.92 L136.204 1437.85 L114.26 1437.85 L114.26 1433.92 Q116.922 1431.16 121.505 1426.53 Q126.112 1421.88 127.292 1420.54 Q129.538 1418.02 130.417 1416.28 Q131.32 1414.52 131.32 1412.83 Q131.32 1410.08 129.376 1408.34 Q127.455 1406.6 124.353 1406.6 Q122.154 1406.6 119.7 1407.37 Q117.269 1408.13 114.492 1409.68 L114.492 1404.96 Q117.316 1403.83 119.769 1403.25 Q122.223 1402.67 124.26 1402.67 Q129.63 1402.67 132.825 1405.35 Q136.019 1408.04 136.019 1412.53 Q136.019 1414.66 135.209 1416.58 Q134.422 1418.48 132.316 1421.07 Q131.737 1421.74 128.635 1424.96 Q125.533 1428.16 119.885 1433.92 Z" fill="#000000" fill-rule="nonzero" fill-opacity="1" /><path clip-path="url(#clip440)" d="M146.019 1431.97 L150.903 1431.97 L150.903 1437.85 L146.019 1437.85 L146.019 1431.97 Z" fill="#000000" fill-rule="nonzero" fill-opacity="1" /><path clip-path="url(#clip440)" d="M173.936 1407.37 L162.13 1425.82 L173.936 1425.82 L173.936 1407.37 M172.709 1403.29 L178.589 1403.29 L178.589 1425.82 L183.519 1425.82 L183.519 1429.71 L178.589 1429.71 L178.589 1437.85 L173.936 1437.85 L173.936 1429.71 L158.334 1429.71 L158.334 1425.19 L172.709 1403.29 Z" fill="#000000" fill-rule="nonzero" fill-opacity="1" /><path clip-path="url(#clip440)" d="M121.367 1013.95 L137.686 1013.95 L137.686 1017.88 L115.742 1017.88 L115.742 1013.95 Q118.404 1011.19 122.987 1006.56 Q127.593 1001.91 128.774 1000.57 Q131.019 998.045 131.899 996.309 Q132.802 994.549 132.802 992.86 Q132.802 990.105 130.857 988.369 Q128.936 986.633 125.834 986.633 Q123.635 986.633 121.181 987.397 Q118.751 988.161 115.973 989.711 L115.973 984.989 Q118.797 983.855 121.251 983.276 Q123.705 982.698 125.742 982.698 Q131.112 982.698 134.306 985.383 Q137.501 988.068 137.501 992.559 Q137.501 994.688 136.691 996.61 Q135.904 998.508 133.797 1001.1 Q133.218 1001.77 130.117 1004.99 Q127.015 1008.18 121.367 1013.95 Z" fill="#000000" fill-rule="nonzero" fill-opacity="1" /><path clip-path="url(#clip440)" d="M147.501 1012 L152.385 1012 L152.385 1017.88 L147.501 1017.88 L147.501 1012 Z" fill="#000000" fill-rule="nonzero" fill-opacity="1" /><path clip-path="url(#clip440)" d="M162.616 983.323 L180.973 983.323 L180.973 987.258 L166.899 987.258 L166.899 995.73 Q167.917 995.383 168.936 995.221 Q169.954 995.036 170.973 995.036 Q176.76 995.036 180.139 998.207 Q183.519 1001.38 183.519 1006.79 Q183.519 1012.37 180.047 1015.48 Q176.575 1018.55 170.255 1018.55 Q168.079 1018.55 165.811 1018.18 Q163.565 1017.81 161.158 1017.07 L161.158 1012.37 Q163.241 1013.51 165.464 1014.06 Q167.686 1014.62 170.163 1014.62 Q174.167 1014.62 176.505 1012.51 Q178.843 1010.41 178.843 1006.79 Q178.843 1003.18 176.505 1001.08 Q174.167 998.971 170.163 998.971 Q168.288 998.971 166.413 999.387 Q164.561 999.804 162.616 1000.68 L162.616 983.323 Z" fill="#000000" fill-rule="nonzero" fill-opacity="1" /><path clip-path="url(#clip440)" d="M120.209 593.976 L136.529 593.976 L136.529 597.911 L114.584 597.911 L114.584 593.976 Q117.246 591.221 121.83 586.592 Q126.436 581.939 127.617 580.596 Q129.862 578.073 130.742 576.337 Q131.644 574.578 131.644 572.888 Q131.644 570.133 129.7 568.397 Q127.779 566.661 124.677 566.661 Q122.478 566.661 120.024 567.425 Q117.593 568.189 114.816 569.74 L114.816 565.018 Q117.64 563.883 120.093 563.305 Q122.547 562.726 124.584 562.726 Q129.955 562.726 133.149 565.411 Q136.343 568.096 136.343 572.587 Q136.343 574.717 135.533 576.638 Q134.746 578.536 132.64 581.129 Q132.061 581.8 128.959 585.018 Q125.857 588.212 120.209 593.976 Z" fill="#000000" fill-rule="nonzero" fill-opacity="1" /><path clip-path="url(#clip440)" d="M146.343 592.031 L151.228 592.031 L151.228 597.911 L146.343 597.911 L146.343 592.031 Z" fill="#000000" fill-rule="nonzero" fill-opacity="1" /><path clip-path="url(#clip440)" d="M171.991 578.768 Q168.843 578.768 166.991 580.92 Q165.163 583.073 165.163 586.823 Q165.163 590.55 166.991 592.726 Q168.843 594.879 171.991 594.879 Q175.139 594.879 176.968 592.726 Q178.82 590.55 178.82 586.823 Q178.82 583.073 176.968 580.92 Q175.139 578.768 171.991 578.768 M181.274 564.115 L181.274 568.374 Q179.514 567.541 177.709 567.101 Q175.926 566.661 174.167 566.661 Q169.538 566.661 167.084 569.786 Q164.653 572.911 164.306 579.231 Q165.672 577.217 167.732 576.152 Q169.792 575.064 172.269 575.064 Q177.477 575.064 180.487 578.235 Q183.519 581.383 183.519 586.823 Q183.519 592.147 180.371 595.365 Q177.223 598.582 171.991 598.582 Q165.996 598.582 162.825 593.999 Q159.653 589.393 159.653 580.666 Q159.653 572.471 163.542 567.61 Q167.431 562.726 173.982 562.726 Q175.741 562.726 177.524 563.073 Q179.329 563.421 181.274 564.115 Z" fill="#000000" fill-rule="nonzero" fill-opacity="1" /><path clip-path="url(#clip440)" d="M121.274 174.004 L137.593 174.004 L137.593 177.94 L115.649 177.94 L115.649 174.004 Q118.311 171.25 122.894 166.62 Q127.501 161.967 128.681 160.625 Q130.927 158.102 131.806 156.366 Q132.709 154.606 132.709 152.917 Q132.709 150.162 130.765 148.426 Q128.843 146.69 125.742 146.69 Q123.543 146.69 121.089 147.454 Q118.658 148.217 115.881 149.768 L115.881 145.046 Q118.705 143.912 121.158 143.333 Q123.612 142.755 125.649 142.755 Q131.019 142.755 134.214 145.44 Q137.408 148.125 137.408 152.616 Q137.408 154.745 136.598 156.667 Q135.811 158.565 133.704 161.157 Q133.126 161.829 130.024 165.046 Q126.922 168.241 121.274 174.004 Z" fill="#000000" fill-rule="nonzero" fill-opacity="1" /><path clip-path="url(#clip440)" d="M147.408 172.06 L152.292 172.06 L152.292 177.94 L147.408 177.94 L147.408 172.06 Z" fill="#000000" fill-rule="nonzero" fill-opacity="1" /><path clip-path="url(#clip440)" d="M161.297 143.38 L183.519 143.38 L183.519 145.37 L170.973 177.94 L166.089 177.94 L177.894 147.315 L161.297 147.315 L161.297 143.38 Z" fill="#000000" fill-rule="nonzero" fill-opacity="1" /><path clip-path="url(#clip440)" d="M33.7671 840.24 L14.479 840.24 L14.479 834.383 L64.0042 834.383 L64.0042 840.24 L58.657 840.24 Q61.8398 842.086 63.3994 844.918 Q64.9272 847.719 64.9272 851.666 Q64.9272 858.127 59.771 862.201 Q54.6147 866.244 46.212 866.244 Q37.8093 866.244 32.6531 862.201 Q27.4968 858.127 27.4968 851.666 Q27.4968 847.719 29.0564 844.918 Q30.5842 842.086 33.7671 840.24 M46.212 860.196 Q52.6732 860.196 56.3653 857.554 Q60.0256 854.881 60.0256 850.234 Q60.0256 845.587 56.3653 842.913 Q52.6732 840.24 46.212 840.24 Q39.7508 840.24 36.0905 842.913 Q32.3984 845.587 32.3984 850.234 Q32.3984 854.881 36.0905 857.554 Q39.7508 860.196 46.212 860.196 Z" fill="#000000" fill-rule="nonzero" fill-opacity="1" /><path clip-path="url(#clip440)" d="M14.479 804.273 L19.3487 804.273 L19.3487 809.875 Q19.3487 813.026 20.6219 814.268 Q21.895 815.477 25.2052 815.477 L28.3562 815.477 L28.3562 805.833 L32.9077 805.833 L32.9077 815.477 L64.0042 815.477 L64.0042 821.365 L32.9077 821.365 L32.9077 826.967 L28.3562 826.967 L28.3562 821.365 L25.8736 821.365 Q19.9216 821.365 17.2162 818.596 Q14.479 815.827 14.479 809.812 L14.479 804.273 Z" fill="#000000" fill-rule="nonzero" fill-opacity="1" /><path clip-path="url(#clip440)" d="M29.4065 776.646 L34.9447 776.646 Q33.6716 779.129 33.035 781.803 Q32.3984 784.476 32.3984 787.341 Q32.3984 791.701 33.7352 793.897 Q35.072 796.062 37.7456 796.062 Q39.7826 796.062 40.9603 794.502 Q42.1061 792.942 43.1565 788.232 L43.6021 786.227 Q44.9389 779.988 47.3897 777.378 Q49.8086 774.737 54.1691 774.737 Q59.1344 774.737 62.0308 778.683 Q64.9272 782.598 64.9272 789.473 Q64.9272 792.338 64.3543 795.457 Q63.8132 798.544 62.6992 801.982 L56.6518 801.982 Q58.3387 798.735 59.198 795.584 Q60.0256 792.433 60.0256 789.346 Q60.0256 785.208 58.6251 782.98 Q57.1929 780.752 54.6147 780.752 Q52.2276 780.752 50.9545 782.375 Q49.6813 783.967 48.5037 789.41 L48.0262 791.447 Q46.8804 796.889 44.5251 799.308 Q42.138 801.727 38.0002 801.727 Q32.9713 801.727 30.2341 798.162 Q27.4968 794.598 27.4968 788.041 Q27.4968 784.794 27.9743 781.93 Q28.4517 779.065 29.4065 776.646 Z" fill="#000000" fill-rule="nonzero" fill-opacity="1" /><path clip-path="url(#clip440)" d="M16.4842 755.003 L16.4842 749.592 L70.0516 766.143 L70.0516 771.554 L16.4842 755.003 Z" fill="#000000" fill-rule="nonzero" fill-opacity="1" /><path clip-path="url(#clip440)" d="M46.212 717.859 Q39.7508 717.859 36.0905 720.533 Q32.3984 723.174 32.3984 727.821 Q32.3984 732.468 36.0905 735.142 Q39.7508 737.784 46.212 737.784 Q52.6732 737.784 56.3653 735.142 Q60.0256 732.468 60.0256 727.821 Q60.0256 723.174 56.3653 720.533 Q52.6732 717.859 46.212 717.859 M33.7671 737.784 Q30.5842 735.938 29.0564 733.137 Q27.4968 730.304 27.4968 726.389 Q27.4968 719.896 32.6531 715.854 Q37.8093 711.78 46.212 711.78 Q54.6147 711.78 59.771 715.854 Q64.9272 719.896 64.9272 726.389 Q64.9272 730.304 63.3994 733.137 Q61.8398 735.938 58.657 737.784 L64.0042 737.784 L64.0042 743.672 L14.479 743.672 L14.479 737.784 L33.7671 737.784 Z" fill="#000000" fill-rule="nonzero" fill-opacity="1" /><path clip-path="url(#clip440)" d="M14.479 684.025 L19.3487 684.025 L19.3487 689.627 Q19.3487 692.778 20.6219 694.019 Q21.895 695.229 25.2052 695.229 L28.3562 695.229 L28.3562 685.585 L32.9077 685.585 L32.9077 695.229 L64.0042 695.229 L64.0042 701.117 L32.9077 701.117 L32.9077 706.719 L28.3562 706.719 L28.3562 701.117 L25.8736 701.117 Q19.9216 701.117 17.2162 698.348 Q14.479 695.579 14.479 689.563 L14.479 684.025 Z" fill="#000000" fill-rule="nonzero" fill-opacity="1" /><path clip-path="url(#clip440)" d="M29.4065 656.398 L34.9447 656.398 Q33.6716 658.881 33.035 661.554 Q32.3984 664.228 32.3984 667.092 Q32.3984 671.453 33.7352 673.649 Q35.072 675.813 37.7456 675.813 Q39.7826 675.813 40.9603 674.254 Q42.1061 672.694 43.1565 667.984 L43.6021 665.978 Q44.9389 659.74 47.3897 657.13 Q49.8086 654.488 54.1691 654.488 Q59.1344 654.488 62.0308 658.435 Q64.9272 662.35 64.9272 669.225 Q64.9272 672.09 64.3543 675.209 Q63.8132 678.296 62.6992 681.734 L56.6518 681.734 Q58.3387 678.487 59.198 675.336 Q60.0256 672.185 60.0256 669.098 Q60.0256 664.96 58.6251 662.732 Q57.1929 660.504 54.6147 660.504 Q52.2276 660.504 50.9545 662.127 Q49.6813 663.719 48.5037 669.161 L48.0262 671.198 Q46.8804 676.641 44.5251 679.06 Q42.138 681.479 38.0002 681.479 Q32.9713 681.479 30.2341 677.914 Q27.4968 674.349 27.4968 667.793 Q27.4968 664.546 27.9743 661.682 Q28.4517 658.817 29.4065 656.398 Z" fill="#000000" fill-rule="nonzero" fill-opacity="1" /><path clip-path="url(#clip440)" d="M290.101 10.0833 Q285.009 10.0833 281.999 13.8796 Q279.013 17.6758 279.013 24.2267 Q279.013 30.7545 281.999 34.5507 Q285.009 38.347 290.101 38.347 Q295.194 38.347 298.157 34.5507 Q301.143 30.7545 301.143 24.2267 Q301.143 17.6758 298.157 13.8796 Q295.194 10.0833 290.101 10.0833 M290.101 6.287 Q297.37 6.287 301.721 11.1712 Q306.073 16.0323 306.073 24.2267 Q306.073 32.398 301.721 37.2822 Q297.37 42.1433 290.101 42.1433 Q282.81 42.1433 278.435 37.2822 Q274.083 32.4211 274.083 24.2267 Q274.083 16.0323 278.435 11.1712 Q282.81 6.287 290.101 6.287 Z" fill="#000000" fill-rule="nonzero" fill-opacity="1" /><path clip-path="url(#clip440)" d="M310.124 15.5462 L334.962 15.5462 L334.962 18.949 L324.638 18.949 L324.638 41.472 L320.448 41.472 L320.448 18.949 L310.124 18.949 L310.124 15.5462 Z" fill="#000000" fill-rule="nonzero" fill-opacity="1" /><path clip-path="url(#clip440)" d="M340.656 15.5462 L344.939 15.5462 L344.939 26.1249 L358.758 26.1249 L358.758 15.5462 L363.041 15.5462 L363.041 41.472 L358.758 41.472 L358.758 29.5276 L344.939 29.5276 L344.939 41.472 L340.656 41.472 L340.656 15.5462 Z" fill="#000000" fill-rule="nonzero" fill-opacity="1" /><path clip-path="url(#clip440)" d="M381.86 18.5323 Q378.434 18.5323 376.443 21.2175 Q374.453 23.8795 374.453 28.5323 Q374.453 33.185 376.42 35.8702 Q378.411 38.5322 381.86 38.5322 Q385.263 38.5322 387.253 35.847 Q389.244 33.1619 389.244 28.5323 Q389.244 23.9258 387.253 21.2406 Q385.263 18.5323 381.86 18.5323 M381.86 14.9212 Q387.415 14.9212 390.587 18.5323 Q393.758 22.1434 393.758 28.5323 Q393.758 34.898 390.587 38.5322 Q387.415 42.1433 381.86 42.1433 Q376.281 42.1433 373.11 38.5322 Q369.962 34.898 369.962 28.5323 Q369.962 22.1434 373.11 18.5323 Q376.281 14.9212 381.86 14.9212 Z" fill="#000000" fill-rule="nonzero" fill-opacity="1" /><path clip-path="url(#clip440)" d="M420.17 38.0692 L431.142 38.0692 L431.142 15.5462 L435.424 15.5462 L435.424 41.472 L400.656 41.472 L400.656 15.5462 L404.938 15.5462 L404.938 38.0692 L415.888 38.0692 L415.888 15.5462 L420.17 15.5462 L420.17 38.0692 Z" fill="#000000" fill-rule="nonzero" fill-opacity="1" /><path clip-path="url(#clip440)" d="M466.373 27.4443 L466.373 29.5276 L446.79 29.5276 Q447.068 33.9257 449.429 36.2405 Q451.813 38.5322 456.049 38.5322 Q458.503 38.5322 460.795 37.9304 Q463.109 37.3285 465.378 36.1248 L465.378 40.1526 Q463.086 41.1248 460.679 41.634 Q458.272 42.1433 455.795 42.1433 Q449.591 42.1433 445.957 38.5322 Q442.346 34.9211 442.346 28.7637 Q442.346 22.398 445.772 18.6712 Q449.221 14.9212 455.054 14.9212 Q460.285 14.9212 463.318 18.3008 Q466.373 21.6573 466.373 27.4443 M462.114 26.1943 Q462.068 22.699 460.147 20.6156 Q458.248 18.5323 455.1 18.5323 Q451.535 18.5323 449.383 20.5462 Q447.253 22.5601 446.929 26.2175 L462.114 26.1943 Z" fill="#000000" fill-rule="nonzero" fill-opacity="1" /><path clip-path="url(#clip440)" d="M473.202 15.5462 L477.484 15.5462 L477.484 26.1249 L491.304 26.1249 L491.304 15.5462 L495.586 15.5462 L495.586 41.472 L491.304 41.472 L491.304 29.5276 L477.484 29.5276 L477.484 41.472 L473.202 41.472 L473.202 15.5462 Z" fill="#000000" fill-rule="nonzero" fill-opacity="1" /><path clip-path="url(#clip440)" d="M526.396 15.5462 L526.396 41.472 L522.16 41.472 L522.16 20.6619 L509.66 41.472 L504.197 41.472 L504.197 15.5462 L508.433 15.5462 L508.433 36.31 L520.91 15.5462 L526.396 15.5462 Z" fill="#000000" fill-rule="nonzero" fill-opacity="1" /><path clip-path="url(#clip440)" d="M557.345 27.4443 L557.345 29.5276 L537.762 29.5276 Q538.04 33.9257 540.401 36.2405 Q542.785 38.5322 547.021 38.5322 Q549.475 38.5322 551.766 37.9304 Q554.081 37.3285 556.35 36.1248 L556.35 40.1526 Q554.058 41.1248 551.651 41.634 Q549.243 42.1433 546.766 42.1433 Q540.563 42.1433 536.929 38.5322 Q533.317 34.9211 533.317 28.7637 Q533.317 22.398 536.743 18.6712 Q540.192 14.9212 546.026 14.9212 Q551.257 14.9212 554.29 18.3008 Q557.345 21.6573 557.345 27.4443 M553.086 26.1943 Q553.04 22.699 551.118 20.6156 Q549.22 18.5323 546.072 18.5323 Q542.507 18.5323 540.354 20.5462 Q538.225 22.5601 537.901 26.2175 L553.086 26.1943 Z" fill="#000000" fill-rule="nonzero" fill-opacity="1" /><path clip-path="url(#clip440)" d="M576.326 15.5462 L601.164 15.5462 L601.164 18.949 L590.84 18.949 L590.84 41.472 L586.65 41.472 L586.65 18.949 L576.326 18.949 L576.326 15.5462 Z" fill="#000000" fill-rule="nonzero" fill-opacity="1" /><path clip-path="url(#clip440)" d="M611.141 37.5831 L611.141 51.3331 L606.859 51.3331 L606.859 15.5462 L611.141 15.5462 L611.141 19.4814 Q612.484 17.1666 614.521 16.0555 Q616.581 14.9212 619.428 14.9212 Q624.15 14.9212 627.09 18.6712 Q630.053 22.4212 630.053 28.5323 Q630.053 34.6433 627.09 38.3933 Q624.15 42.1433 619.428 42.1433 Q616.581 42.1433 614.521 41.0322 Q612.484 39.8979 611.141 37.5831 M625.632 28.5323 Q625.632 23.8332 623.687 21.1712 Q621.766 18.486 618.386 18.486 Q615.007 18.486 613.062 21.1712 Q611.141 23.8332 611.141 28.5323 Q611.141 33.2313 613.062 35.9165 Q615.007 38.5785 618.386 38.5785 Q621.766 38.5785 623.687 35.9165 Q625.632 33.2313 625.632 28.5323 Z" fill="#000000" fill-rule="nonzero" fill-opacity="1" /><path clip-path="url(#clip440)" d="M647.9 43.8794 Q646.095 48.509 644.382 49.921 Q642.669 51.3331 639.798 51.3331 L636.396 51.3331 L636.396 47.7683 L638.896 47.7683 Q640.655 47.7683 641.627 46.9349 Q642.599 46.1016 643.78 42.9998 L644.544 41.0553 L634.058 15.5462 L638.572 15.5462 L646.673 35.8239 L654.775 15.5462 L659.289 15.5462 L647.9 43.8794 Z" fill="#000000" fill-rule="nonzero" fill-opacity="1" /><path clip-path="url(#clip440)" d="M670.956 38.0692 L683.317 38.0692 L683.317 18.949 L674.358 18.949 L674.358 22.1897 Q674.358 31.7267 671.627 36.8192 L670.956 38.0692 M664.775 38.0692 Q666.882 37.1433 667.807 35.1757 Q670.076 30.2915 670.076 20.4536 L670.076 15.5462 L687.599 15.5462 L687.599 38.0692 L691.002 38.0692 L691.002 48.0229 L687.599 48.0229 L687.599 41.472 L666.581 41.472 L666.581 48.0229 L663.178 48.0229 L663.178 38.0692 L664.775 38.0692 Z" fill="#000000" fill-rule="nonzero" fill-opacity="1" /><path clip-path="url(#clip440)" d="M707.992 18.5323 Q704.567 18.5323 702.576 21.2175 Q700.585 23.8795 700.585 28.5323 Q700.585 33.185 702.553 35.8702 Q704.543 38.5322 707.992 38.5322 Q711.395 38.5322 713.386 35.847 Q715.377 33.1619 715.377 28.5323 Q715.377 23.9258 713.386 21.2406 Q711.395 18.5323 707.992 18.5323 M707.992 14.9212 Q713.548 14.9212 716.719 18.5323 Q719.891 22.1434 719.891 28.5323 Q719.891 34.898 716.719 38.5322 Q713.548 42.1433 707.992 42.1433 Q702.414 42.1433 699.242 38.5322 Q696.094 34.898 696.094 28.5323 Q696.094 22.1434 699.242 18.5323 Q702.414 14.9212 707.992 14.9212 Z" fill="#000000" fill-rule="nonzero" fill-opacity="1" /><path clip-path="url(#clip440)" d="M749.126 27.4443 L749.126 29.5276 L729.543 29.5276 Q729.821 33.9257 732.182 36.2405 Q734.566 38.5322 738.802 38.5322 Q741.256 38.5322 743.548 37.9304 Q745.863 37.3285 748.131 36.1248 L748.131 40.1526 Q745.839 41.1248 743.432 41.634 Q741.025 42.1433 738.548 42.1433 Q732.344 42.1433 728.71 38.5322 Q725.099 34.9211 725.099 28.7637 Q725.099 22.398 728.525 18.6712 Q731.974 14.9212 737.807 14.9212 Q743.039 14.9212 746.071 18.3008 Q749.126 21.6573 749.126 27.4443 M744.867 26.1943 Q744.821 22.699 742.9 20.6156 Q741.002 18.5323 737.853 18.5323 Q734.289 18.5323 732.136 20.5462 Q730.006 22.5601 729.682 26.2175 L744.867 26.1943 M739.983 5.54627 L744.682 5.54627 L744.682 10.2222 L739.983 10.2222 L739.983 5.54627 M730.932 5.54627 L735.631 5.54627 L735.631 10.2222 L730.932 10.2222 L730.932 5.54627 Z" fill="#000000" fill-rule="nonzero" fill-opacity="1" /><path clip-path="url(#clip440)" d="M755.955 15.5462 L762.182 15.5462 L769.543 32.9072 L776.927 15.5462 L783.108 15.5462 L783.108 41.472 L778.825 41.472 L778.825 19.6203 L771.673 36.4952 L767.413 36.4952 L760.238 19.6203 L760.238 41.472 L755.955 41.472 L755.955 15.5462 Z" fill="#000000" fill-rule="nonzero" fill-opacity="1" /><path clip-path="url(#clip440)" d="M791.719 15.5462 L795.955 15.5462 L795.955 27.7221 L807.969 15.5462 L813.2 15.5462 L803.293 25.5693 L814.473 41.472 L809.705 41.472 L800.515 28.3934 L795.955 33.023 L795.955 41.472 L791.719 41.472 L791.719 15.5462 Z" fill="#000000" fill-rule="nonzero" fill-opacity="1" /><path clip-path="url(#clip440)" d="M830.561 18.5323 Q827.135 18.5323 825.145 21.2175 Q823.154 23.8795 823.154 28.5323 Q823.154 33.185 825.121 35.8702 Q827.112 38.5322 830.561 38.5322 Q833.964 38.5322 835.955 35.847 Q837.945 33.1619 837.945 28.5323 Q837.945 23.9258 835.955 21.2406 Q833.964 18.5323 830.561 18.5323 M830.561 14.9212 Q836.117 14.9212 839.288 18.5323 Q842.459 22.1434 842.459 28.5323 Q842.459 34.898 839.288 38.5322 Q836.117 42.1433 830.561 42.1433 Q824.983 42.1433 821.811 38.5322 Q818.663 34.898 818.663 28.5323 Q818.663 22.1434 821.811 18.5323 Q824.983 14.9212 830.561 14.9212 Z" fill="#000000" fill-rule="nonzero" fill-opacity="1" /><path clip-path="url(#clip440)" d="M868.177 16.5416 L868.177 20.523 Q866.371 19.5277 864.543 19.0416 Q862.737 18.5323 860.885 18.5323 Q856.742 18.5323 854.45 21.1712 Q852.158 23.7869 852.158 28.5323 Q852.158 33.2776 854.45 35.9165 Q856.742 38.5322 860.885 38.5322 Q862.737 38.5322 864.543 38.0461 Q866.371 37.5368 868.177 36.5415 L868.177 40.4766 Q866.394 41.31 864.473 41.7266 Q862.575 42.1433 860.422 42.1433 Q854.566 42.1433 851.117 38.4628 Q847.668 34.7822 847.668 28.5323 Q847.668 22.1897 851.14 18.5555 Q854.635 14.9212 860.7 14.9212 Q862.668 14.9212 864.543 15.3379 Q866.418 15.7314 868.177 16.5416 Z" fill="#000000" fill-rule="nonzero" fill-opacity="1" /><path clip-path="url(#clip440)" d="M872.505 15.5462 L897.343 15.5462 L897.343 18.949 L887.019 18.949 L887.019 41.472 L882.829 41.472 L882.829 18.949 L872.505 18.949 L872.505 15.5462 Z" fill="#000000" fill-rule="nonzero" fill-opacity="1" /><path clip-path="url(#clip440)" d="M925.237 15.5462 L925.237 41.472 L921.001 41.472 L921.001 20.6619 L908.501 41.472 L903.038 41.472 L903.038 15.5462 L907.274 15.5462 L907.274 36.31 L919.751 15.5462 L925.237 15.5462 Z" fill="#000000" fill-rule="nonzero" fill-opacity="1" /><path clip-path="url(#clip440)" d="M966.139 19.4814 L966.139 5.45367 L970.398 5.45367 L970.398 41.472 L966.139 41.472 L966.139 37.5831 Q964.797 39.8979 962.736 41.0322 Q960.699 42.1433 957.829 42.1433 Q953.13 42.1433 950.167 38.3933 Q947.227 34.6433 947.227 28.5323 Q947.227 22.4212 950.167 18.6712 Q953.13 14.9212 957.829 14.9212 Q960.699 14.9212 962.736 16.0555 Q964.797 17.1666 966.139 19.4814 M951.625 28.5323 Q951.625 33.2313 953.547 35.9165 Q955.491 38.5785 958.871 38.5785 Q962.25 38.5785 964.195 35.9165 Q966.139 33.2313 966.139 28.5323 Q966.139 23.8332 964.195 21.1712 Q962.25 18.486 958.871 18.486 Q955.491 18.486 953.547 21.1712 Q951.625 23.8332 951.625 28.5323 Z" fill="#000000" fill-rule="nonzero" fill-opacity="1" /><path clip-path="url(#clip440)" d="M992.296 5.45367 L992.296 8.99532 L988.222 8.99532 Q985.931 8.99532 985.028 9.92124 Q984.148 10.8472 984.148 13.2546 L984.148 15.5462 L991.162 15.5462 L991.162 18.8564 L984.148 18.8564 L984.148 41.472 L979.866 41.472 L979.866 18.8564 L975.792 18.8564 L975.792 15.5462 L979.866 15.5462 L979.866 13.7407 Q979.866 9.41199 981.88 7.4444 Q983.894 5.45367 988.269 5.45367 L992.296 5.45367 Z" fill="#000000" fill-rule="nonzero" fill-opacity="1" /><path clip-path="url(#clip440)" d="M1012.39 16.3101 L1012.39 20.3379 Q1010.58 19.4119 1008.64 18.949 Q1006.69 18.486 1004.61 18.486 Q1001.44 18.486 999.843 19.4582 Q998.269 20.4304 998.269 22.3749 Q998.269 23.8564 999.403 24.7128 Q1000.54 25.5462 1003.96 26.31 L1005.42 26.6341 Q1009.96 27.6063 1011.86 29.3887 Q1013.78 31.148 1013.78 34.3193 Q1013.78 37.9304 1010.91 40.0368 Q1008.06 42.1433 1003.06 42.1433 Q1000.98 42.1433 998.708 41.7266 Q996.463 41.3331 993.963 40.5229 L993.963 36.1248 Q996.324 37.3517 998.616 37.9766 Q1000.91 38.5785 1003.15 38.5785 Q1006.16 38.5785 1007.78 37.56 Q1009.4 36.5183 1009.4 34.6433 Q1009.4 32.9072 1008.22 31.9813 Q1007.06 31.0554 1003.11 30.1989 L1001.63 29.8517 Q997.667 29.0184 995.908 27.3054 Q994.148 25.5693 994.148 22.5601 Q994.148 18.9027 996.741 16.9119 Q999.333 14.9212 1004.1 14.9212 Q1006.46 14.9212 1008.55 15.2684 Q1010.63 15.6157 1012.39 16.3101 Z" fill="#000000" fill-rule="nonzero" fill-opacity="1" /><path clip-path="url(#clip440)" d="M1035.47 15.5462 L1039.7 15.5462 L1039.7 27.7221 L1051.72 15.5462 L1056.95 15.5462 L1047.04 25.5693 L1058.22 41.472 L1053.45 41.472 L1044.26 28.3934 L1039.7 33.023 L1039.7 41.472 L1035.47 41.472 L1035.47 15.5462 Z" fill="#000000" fill-rule="nonzero" fill-opacity="1" /><path clip-path="url(#clip440)" d="M1097.94 28.5323 Q1097.94 23.8332 1096 21.1712 Q1094.08 18.486 1090.7 18.486 Q1087.32 18.486 1085.37 21.1712 Q1083.45 23.8332 1083.45 28.5323 Q1083.45 33.2313 1085.37 35.9165 Q1087.32 38.5785 1090.7 38.5785 Q1094.08 38.5785 1096 35.9165 Q1097.94 33.2313 1097.94 28.5323 M1083.45 19.4814 Q1084.8 17.1666 1086.83 16.0555 Q1088.89 14.9212 1091.74 14.9212 Q1096.46 14.9212 1099.4 18.6712 Q1102.37 22.4212 1102.37 28.5323 Q1102.37 34.6433 1099.4 38.3933 Q1096.46 42.1433 1091.74 42.1433 Q1088.89 42.1433 1086.83 41.0322 Q1084.8 39.8979 1083.45 37.5831 L1083.45 41.472 L1079.17 41.472 L1079.17 5.45367 L1083.45 5.45367 L1083.45 19.4814 Z" fill="#000000" fill-rule="nonzero" fill-opacity="1" /><path clip-path="url(#clip440)" d="M1122.55 5.45367 L1122.55 8.99532 L1118.48 8.99532 Q1116.18 8.99532 1115.28 9.92124 Q1114.4 10.8472 1114.4 13.2546 L1114.4 15.5462 L1121.42 15.5462 L1121.42 18.8564 L1114.4 18.8564 L1114.4 41.472 L1110.12 41.472 L1110.12 18.8564 L1106.05 18.8564 L1106.05 15.5462 L1110.12 15.5462 L1110.12 13.7407 Q1110.12 9.41199 1112.13 7.4444 Q1114.15 5.45367 1118.52 5.45367 L1122.55 5.45367 Z" fill="#000000" fill-rule="nonzero" fill-opacity="1" /><path clip-path="url(#clip440)" d="M1142.64 16.3101 L1142.64 20.3379 Q1140.84 19.4119 1138.89 18.949 Q1136.95 18.486 1134.87 18.486 Q1131.69 18.486 1130.1 19.4582 Q1128.52 20.4304 1128.52 22.3749 Q1128.52 23.8564 1129.66 24.7128 Q1130.79 25.5462 1134.22 26.31 L1135.68 26.6341 Q1140.21 27.6063 1142.11 29.3887 Q1144.03 31.148 1144.03 34.3193 Q1144.03 37.9304 1141.16 40.0368 Q1138.31 42.1433 1133.31 42.1433 Q1131.23 42.1433 1128.96 41.7266 Q1126.72 41.3331 1124.22 40.5229 L1124.22 36.1248 Q1126.58 37.3517 1128.87 37.9766 Q1131.16 38.5785 1133.41 38.5785 Q1136.42 38.5785 1138.04 37.56 Q1139.66 36.5183 1139.66 34.6433 Q1139.66 32.9072 1138.48 31.9813 Q1137.32 31.0554 1133.36 30.1989 L1131.88 29.8517 Q1127.92 29.0184 1126.16 27.3054 Q1124.4 25.5693 1124.4 22.5601 Q1124.4 18.9027 1126.99 16.9119 Q1129.59 14.9212 1134.36 14.9212 Q1136.72 14.9212 1138.8 15.2684 Q1140.88 15.6157 1142.64 16.3101 Z" fill="#000000" fill-rule="nonzero" fill-opacity="1" /><path clip-path="url(#clip440)" d="M1184.54 16.5416 L1184.54 20.523 Q1182.74 19.5277 1180.91 19.0416 Q1179.1 18.5323 1177.25 18.5323 Q1173.11 18.5323 1170.81 21.1712 Q1168.52 23.7869 1168.52 28.5323 Q1168.52 33.2776 1170.81 35.9165 Q1173.11 38.5322 1177.25 38.5322 Q1179.1 38.5322 1180.91 38.0461 Q1182.74 37.5368 1184.54 36.5415 L1184.54 40.4766 Q1182.76 41.31 1180.84 41.7266 Q1178.94 42.1433 1176.79 42.1433 Q1170.93 42.1433 1167.48 38.4628 Q1164.03 34.7822 1164.03 28.5323 Q1164.03 22.1897 1167.5 18.5555 Q1171 14.9212 1177.06 14.9212 Q1179.03 14.9212 1180.91 15.3379 Q1182.78 15.7314 1184.54 16.5416 Z" fill="#000000" fill-rule="nonzero" fill-opacity="1" /><path clip-path="url(#clip440)" d="M1211.14 37.5831 L1211.14 51.3331 L1206.86 51.3331 L1206.86 15.5462 L1211.14 15.5462 L1211.14 19.4814 Q1212.48 17.1666 1214.52 16.0555 Q1216.58 14.9212 1219.42 14.9212 Q1224.15 14.9212 1227.09 18.6712 Q1230.05 22.4212 1230.05 28.5323 Q1230.05 34.6433 1227.09 38.3933 Q1224.15 42.1433 1219.42 42.1433 Q1216.58 42.1433 1214.52 41.0322 Q1212.48 39.8979 1211.14 37.5831 M1225.63 28.5323 Q1225.63 23.8332 1223.68 21.1712 Q1221.76 18.486 1218.38 18.486 Q1215 18.486 1213.06 21.1712 Q1211.14 23.8332 1211.14 28.5323 Q1211.14 33.2313 1213.06 35.9165 Q1215 38.5785 1218.38 38.5785 Q1221.76 38.5785 1223.68 35.9165 Q1225.63 33.2313 1225.63 28.5323 Z" fill="#000000" fill-rule="nonzero" fill-opacity="1" /><path clip-path="url(#clip440)" d="M1247.16 18.5323 Q1243.73 18.5323 1241.74 21.2175 Q1239.75 23.8795 1239.75 28.5323 Q1239.75 33.185 1241.72 35.8702 Q1243.71 38.5322 1247.16 38.5322 Q1250.56 38.5322 1252.55 35.847 Q1254.54 33.1619 1254.54 28.5323 Q1254.54 23.9258 1252.55 21.2406 Q1250.56 18.5323 1247.16 18.5323 M1247.16 14.9212 Q1252.71 14.9212 1255.88 18.5323 Q1259.05 22.1434 1259.05 28.5323 Q1259.05 34.898 1255.88 38.5322 Q1252.71 42.1433 1247.16 42.1433 Q1241.58 42.1433 1238.41 38.5322 Q1235.26 34.898 1235.26 28.5323 Q1235.26 22.1434 1238.41 18.5323 Q1241.58 14.9212 1247.16 14.9212 Z" fill="#000000" fill-rule="nonzero" fill-opacity="1" /><path clip-path="url(#clip440)" d="M1284.77 16.5416 L1284.77 20.523 Q1282.97 19.5277 1281.14 19.0416 Q1279.33 18.5323 1277.48 18.5323 Q1273.34 18.5323 1271.04 21.1712 Q1268.75 23.7869 1268.75 28.5323 Q1268.75 33.2776 1271.04 35.9165 Q1273.34 38.5322 1277.48 38.5322 Q1279.33 38.5322 1281.14 38.0461 Q1282.97 37.5368 1284.77 36.5415 L1284.77 40.4766 Q1282.99 41.31 1281.07 41.7266 Q1279.17 42.1433 1277.02 42.1433 Q1271.16 42.1433 1267.71 38.4628 Q1264.26 34.7822 1264.26 28.5323 Q1264.26 22.1897 1267.73 18.5555 Q1271.23 14.9212 1277.29 14.9212 Q1279.26 14.9212 1281.14 15.3379 Q1283.01 15.7314 1284.77 16.5416 Z" fill="#000000" fill-rule="nonzero" fill-opacity="1" /><path clip-path="url(#clip440)" d="M1289.1 15.5462 L1313.94 15.5462 L1313.94 18.949 L1303.61 18.949 L1303.61 41.472 L1299.42 41.472 L1299.42 18.949 L1289.1 18.949 L1289.1 15.5462 Z" fill="#000000" fill-rule="nonzero" fill-opacity="1" /><path clip-path="url(#clip440)" d="M1329.84 18.5323 Q1326.42 18.5323 1324.42 21.2175 Q1322.43 23.8795 1322.43 28.5323 Q1322.43 33.185 1324.4 35.8702 Q1326.39 38.5322 1329.84 38.5322 Q1333.24 38.5322 1335.23 35.847 Q1337.23 33.1619 1337.23 28.5323 Q1337.23 23.9258 1335.23 21.2406 Q1333.24 18.5323 1329.84 18.5323 M1329.84 14.9212 Q1335.4 14.9212 1338.57 18.5323 Q1341.74 22.1434 1341.74 28.5323 Q1341.74 34.898 1338.57 38.5322 Q1335.4 42.1433 1329.84 42.1433 Q1324.26 42.1433 1321.09 38.5322 Q1317.94 34.898 1317.94 28.5323 Q1317.94 22.1434 1321.09 18.5323 Q1324.26 14.9212 1329.84 14.9212 Z" fill="#000000" fill-rule="nonzero" fill-opacity="1" /><path clip-path="url(#clip440)" d="M1348.64 15.5462 L1354.86 15.5462 L1362.23 32.9072 L1369.61 15.5462 L1375.79 15.5462 L1375.79 41.472 L1371.51 41.472 L1371.51 19.6203 L1364.35 36.4952 L1360.1 36.4952 L1352.92 19.6203 L1352.92 41.472 L1348.64 41.472 L1348.64 15.5462 Z" fill="#000000" fill-rule="nonzero" fill-opacity="1" /><path clip-path="url(#clip440)" d="M1403.75 37.5831 L1403.75 51.3331 L1399.47 51.3331 L1399.47 15.5462 L1403.75 15.5462 L1403.75 19.4814 Q1405.1 17.1666 1407.13 16.0555 Q1409.19 14.9212 1412.04 14.9212 Q1416.76 14.9212 1419.7 18.6712 Q1422.66 22.4212 1422.66 28.5323 Q1422.66 34.6433 1419.7 38.3933 Q1416.76 42.1433 1412.04 42.1433 Q1409.19 42.1433 1407.13 41.0322 Q1405.1 39.8979 1403.75 37.5831 M1418.24 28.5323 Q1418.24 23.8332 1416.3 21.1712 Q1414.38 18.486 1411 18.486 Q1407.62 18.486 1405.67 21.1712 Q1403.75 23.8332 1403.75 28.5323 Q1403.75 33.2313 1405.67 35.9165 Q1407.62 38.5785 1411 38.5785 Q1414.38 38.5785 1416.3 35.9165 Q1418.24 33.2313 1418.24 28.5323 Z" fill="#000000" fill-rule="nonzero" fill-opacity="1" /><path clip-path="url(#clip440)" d="M1441.51 28.4397 Q1436.35 28.4397 1434.35 29.6202 Q1432.36 30.8008 1432.36 33.648 Q1432.36 35.9165 1433.85 37.2591 Q1435.35 38.5785 1437.92 38.5785 Q1441.46 38.5785 1443.59 36.0785 Q1445.74 33.5554 1445.74 29.3887 L1445.74 28.4397 L1441.51 28.4397 M1450 26.6804 L1450 41.472 L1445.74 41.472 L1445.74 37.5368 Q1444.28 39.8979 1442.11 41.0322 Q1439.93 42.1433 1436.78 42.1433 Q1432.8 42.1433 1430.44 39.9211 Q1428.1 37.6757 1428.1 33.9257 Q1428.1 29.5508 1431.02 27.3286 Q1433.96 25.1063 1439.77 25.1063 L1445.74 25.1063 L1445.74 24.6897 Q1445.74 21.7499 1443.8 20.1527 Q1441.88 18.5323 1438.38 18.5323 Q1436.16 18.5323 1434.05 19.0647 Q1431.95 19.5971 1430 20.6619 L1430 16.7268 Q1432.34 15.824 1434.54 15.3842 Q1436.74 14.9212 1438.82 14.9212 Q1444.45 14.9212 1447.22 17.8379 Q1450 20.7545 1450 26.6804 Z" fill="#000000" fill-rule="nonzero" fill-opacity="1" /><path clip-path="url(#clip440)" d="M1470.65 27.4906 Q1473.52 28.0461 1475.12 29.736 Q1476.72 31.4258 1476.72 33.9257 Q1476.72 37.9304 1473.73 40.0368 Q1470.74 42.1433 1465.23 42.1433 Q1463.38 42.1433 1461.41 41.8192 Q1459.47 41.4951 1457.39 40.847 L1457.39 36.8887 Q1459.03 37.7452 1461 38.185 Q1462.97 38.6016 1465.12 38.6016 Q1468.61 38.6016 1470.56 37.3054 Q1472.53 36.0091 1472.53 33.9257 Q1472.53 31.8887 1470.79 30.6619 Q1469.05 29.4119 1465.88 29.4119 L1462.46 29.4119 L1462.46 25.8934 L1466.04 25.8934 Q1468.73 25.8934 1470.28 24.8749 Q1471.85 23.8332 1471.85 22.2128 Q1471.85 20.7314 1470.23 19.6666 Q1468.64 18.6018 1465.88 18.6018 Q1464.24 18.6018 1462.36 18.9027 Q1460.51 19.2036 1458.27 19.8749 L1458.27 16.0092 Q1460.53 15.4536 1462.5 15.1758 Q1464.47 14.8981 1466.23 14.8981 Q1470.77 14.8981 1473.38 16.7268 Q1476.02 18.5323 1476.02 21.7962 Q1476.02 23.9489 1474.63 25.4536 Q1473.24 26.935 1470.65 27.4906 Z" fill="#000000" fill-rule="nonzero" fill-opacity="1" /><path clip-path="url(#clip440)" d="M1483.82 15.5462 L1490.05 15.5462 L1497.41 32.9072 L1504.79 15.5462 L1510.97 15.5462 L1510.97 41.472 L1506.69 41.472 L1506.69 19.6203 L1499.54 36.4952 L1495.28 36.4952 L1488.1 19.6203 L1488.1 41.472 L1483.82 41.472 L1483.82 15.5462 Z" fill="#000000" fill-rule="nonzero" fill-opacity="1" /><path clip-path="url(#clip440)" d="M1541.92 27.4443 L1541.92 29.5276 L1522.34 29.5276 Q1522.62 33.9257 1524.98 36.2405 Q1527.36 38.5322 1531.6 38.5322 Q1534.05 38.5322 1536.34 37.9304 Q1538.66 37.3285 1540.93 36.1248 L1540.93 40.1526 Q1538.64 41.1248 1536.23 41.634 Q1533.82 42.1433 1531.34 42.1433 Q1525.14 42.1433 1521.51 38.5322 Q1517.9 34.9211 1517.9 28.7637 Q1517.9 22.398 1521.32 18.6712 Q1524.77 14.9212 1530.6 14.9212 Q1535.84 14.9212 1538.87 18.3008 Q1541.92 21.6573 1541.92 27.4443 M1537.66 26.1943 Q1537.62 22.699 1535.7 20.6156 Q1533.8 18.5323 1530.65 18.5323 Q1527.09 18.5323 1524.93 20.5462 Q1522.8 22.5601 1522.48 26.2175 L1537.66 26.1943 Z" fill="#000000" fill-rule="nonzero" fill-opacity="1" /><path clip-path="url(#clip440)" d="M1553.03 37.5831 L1553.03 51.3331 L1548.75 51.3331 L1548.75 15.5462 L1553.03 15.5462 L1553.03 19.4814 Q1554.38 17.1666 1556.41 16.0555 Q1558.47 14.9212 1561.32 14.9212 Q1566.04 14.9212 1568.98 18.6712 Q1571.95 22.4212 1571.95 28.5323 Q1571.95 34.6433 1568.98 38.3933 Q1566.04 42.1433 1561.32 42.1433 Q1558.47 42.1433 1556.41 41.0322 Q1554.38 39.8979 1553.03 37.5831 M1567.52 28.5323 Q1567.52 23.8332 1565.58 21.1712 Q1563.66 18.486 1560.28 18.486 Q1556.9 18.486 1554.96 21.1712 Q1553.03 23.8332 1553.03 28.5323 Q1553.03 33.2313 1554.96 35.9165 Q1556.9 38.5785 1560.28 38.5785 Q1563.66 38.5785 1565.58 35.9165 Q1567.52 33.2313 1567.52 28.5323 Z" fill="#000000" fill-rule="nonzero" fill-opacity="1" /><path clip-path="url(#clip440)" d="M1590.79 28.4397 Q1585.63 28.4397 1583.64 29.6202 Q1581.65 30.8008 1581.65 33.648 Q1581.65 35.9165 1583.13 37.2591 Q1584.63 38.5785 1587.2 38.5785 Q1590.74 38.5785 1592.87 36.0785 Q1595.02 33.5554 1595.02 29.3887 L1595.02 28.4397 L1590.79 28.4397 M1599.28 26.6804 L1599.28 41.472 L1595.02 41.472 L1595.02 37.5368 Q1593.57 39.8979 1591.39 41.0322 Q1589.21 42.1433 1586.07 42.1433 Q1582.08 42.1433 1579.72 39.9211 Q1577.39 37.6757 1577.39 33.9257 Q1577.39 29.5508 1580.3 27.3286 Q1583.24 25.1063 1589.05 25.1063 L1595.02 25.1063 L1595.02 24.6897 Q1595.02 21.7499 1593.08 20.1527 Q1591.16 18.5323 1587.66 18.5323 Q1585.44 18.5323 1583.33 19.0647 Q1581.23 19.5971 1579.28 20.6619 L1579.28 16.7268 Q1581.62 15.824 1583.82 15.3842 Q1586.02 14.9212 1588.1 14.9212 Q1593.73 14.9212 1596.51 17.8379 Q1599.28 20.7545 1599.28 26.6804 Z" fill="#000000" fill-rule="nonzero" fill-opacity="1" /><path clip-path="url(#clip440)" d="M1622.96 41.472 L1622.96 15.5462 L1641.25 15.5462 L1641.25 18.949 L1627.25 18.949 L1627.25 41.472 L1622.96 41.472 Z" fill="#000000" fill-rule="nonzero" fill-opacity="1" /><path clip-path="url(#clip440)" d="M1652.15 37.5831 L1652.15 51.3331 L1647.87 51.3331 L1647.87 15.5462 L1652.15 15.5462 L1652.15 19.4814 Q1653.5 17.1666 1655.53 16.0555 Q1657.59 14.9212 1660.44 14.9212 Q1665.16 14.9212 1668.1 18.6712 Q1671.07 22.4212 1671.07 28.5323 Q1671.07 34.6433 1668.1 38.3933 Q1665.16 42.1433 1660.44 42.1433 Q1657.59 42.1433 1655.53 41.0322 Q1653.5 39.8979 1652.15 37.5831 M1666.64 28.5323 Q1666.64 23.8332 1664.7 21.1712 Q1662.78 18.486 1659.4 18.486 Q1656.02 18.486 1654.08 21.1712 Q1652.15 23.8332 1652.15 28.5323 Q1652.15 33.2313 1654.08 35.9165 Q1656.02 38.5785 1659.4 38.5785 Q1662.78 38.5785 1664.7 35.9165 Q1666.64 33.2313 1666.64 28.5323 Z" fill="#000000" fill-rule="nonzero" fill-opacity="1" /><path clip-path="url(#clip440)" d="M1689.91 28.4397 Q1684.75 28.4397 1682.76 29.6202 Q1680.76 30.8008 1680.76 33.648 Q1680.76 35.9165 1682.25 37.2591 Q1683.75 38.5785 1686.32 38.5785 Q1689.86 38.5785 1691.99 36.0785 Q1694.14 33.5554 1694.14 29.3887 L1694.14 28.4397 L1689.91 28.4397 M1698.4 26.6804 L1698.4 41.472 L1694.14 41.472 L1694.14 37.5368 Q1692.69 39.8979 1690.51 41.0322 Q1688.33 42.1433 1685.19 42.1433 Q1681.2 42.1433 1678.84 39.9211 Q1676.51 37.6757 1676.51 33.9257 Q1676.51 29.5508 1679.42 27.3286 Q1682.36 25.1063 1688.17 25.1063 L1694.14 25.1063 L1694.14 24.6897 Q1694.14 21.7499 1692.2 20.1527 Q1690.28 18.5323 1686.78 18.5323 Q1684.56 18.5323 1682.45 19.0647 Q1680.35 19.5971 1678.4 20.6619 L1678.4 16.7268 Q1680.74 15.824 1682.94 15.3842 Q1685.14 14.9212 1687.22 14.9212 Q1692.85 14.9212 1695.63 17.8379 Q1698.4 20.7545 1698.4 26.6804 Z" fill="#000000" fill-rule="nonzero" fill-opacity="1" /><path clip-path="url(#clip440)" d="M1709.72 28.5323 Q1709.72 33.972 1711.39 36.2868 Q1713.08 38.5785 1715.93 38.5785 Q1718.2 38.5785 1720.83 34.6896 L1720.83 22.3749 Q1718.2 18.486 1715.93 18.486 Q1713.08 18.486 1711.39 20.8008 Q1709.72 23.0925 1709.72 28.5323 M1720.83 51.3331 L1720.83 38.1618 Q1719.51 40.3377 1717.99 41.2405 Q1716.48 42.1433 1714.56 42.1433 Q1710.7 42.1433 1707.99 38.5785 Q1705.3 34.9906 1705.3 28.6248 Q1705.3 22.2591 1707.99 18.6018 Q1710.7 14.9212 1714.56 14.9212 Q1716.48 14.9212 1717.99 15.8008 Q1719.51 16.6805 1720.83 18.8564 L1720.83 6.912 L1725.12 6.912 L1725.12 18.8564 Q1726.44 16.6805 1727.94 15.8008 Q1729.47 14.9212 1731.39 14.9212 Q1735.26 14.9212 1737.94 18.6018 Q1740.65 22.2591 1740.65 28.6248 Q1740.65 34.9906 1737.94 38.5785 Q1735.26 42.1433 1731.39 42.1433 Q1729.47 42.1433 1727.94 41.2405 Q1726.44 40.3377 1725.12 38.1618 L1725.12 51.3331 L1720.83 51.3331 M1736.23 28.5323 Q1736.23 23.0925 1734.54 20.8008 Q1732.87 18.486 1730.02 18.486 Q1727.76 18.486 1725.12 22.3749 L1725.12 34.6896 Q1727.76 38.5785 1730.02 38.5785 Q1732.87 38.5785 1734.54 36.2868 Q1736.23 33.972 1736.23 28.5323 Z" fill="#000000" fill-rule="nonzero" fill-opacity="1" /><path clip-path="url(#clip440)" d="M1759.49 28.4397 Q1754.33 28.4397 1752.34 29.6202 Q1750.35 30.8008 1750.35 33.648 Q1750.35 35.9165 1751.83 37.2591 Q1753.33 38.5785 1755.9 38.5785 Q1759.45 38.5785 1761.57 36.0785 Q1763.73 33.5554 1763.73 29.3887 L1763.73 28.4397 L1759.49 28.4397 M1767.99 26.6804 L1767.99 41.472 L1763.73 41.472 L1763.73 37.5368 Q1762.27 39.8979 1760.09 41.0322 Q1757.92 42.1433 1754.77 42.1433 Q1750.79 42.1433 1748.43 39.9211 Q1746.09 37.6757 1746.09 33.9257 Q1746.09 29.5508 1749.01 27.3286 Q1751.95 25.1063 1757.76 25.1063 L1763.73 25.1063 L1763.73 24.6897 Q1763.73 21.7499 1761.78 20.1527 Q1759.86 18.5323 1756.37 18.5323 Q1754.14 18.5323 1752.04 19.0647 Q1749.93 19.5971 1747.99 20.6619 L1747.99 16.7268 Q1750.32 15.824 1752.52 15.3842 Q1754.72 14.9212 1756.81 14.9212 Q1762.43 14.9212 1765.21 17.8379 Q1767.99 20.7545 1767.99 26.6804 Z" fill="#000000" fill-rule="nonzero" fill-opacity="1" /><path clip-path="url(#clip440)" d="M1802.06 5.49997 Q1798.96 10.824 1797.45 16.0323 Q1795.95 21.2406 1795.95 26.5878 Q1795.95 31.935 1797.45 37.1896 Q1798.98 42.4211 1802.06 47.722 L1798.36 47.722 Q1794.88 42.2822 1793.15 37.0276 Q1791.44 31.773 1791.44 26.5878 Q1791.44 21.4258 1793.15 16.1944 Q1794.86 10.9629 1798.36 5.49997 L1802.06 5.49997 Z" fill="#000000" fill-rule="nonzero" fill-opacity="1" /><path clip-path="url(#clip440)" d="M1821.11 43.8794 Q1819.31 48.509 1817.59 49.921 Q1815.88 51.3331 1813.01 51.3331 L1809.61 51.3331 L1809.61 47.7683 L1812.11 47.7683 Q1813.87 47.7683 1814.84 46.9349 Q1815.81 46.1016 1816.99 42.9998 L1817.75 41.0553 L1807.27 15.5462 L1811.78 15.5462 L1819.88 35.8239 L1827.99 15.5462 L1832.5 15.5462 L1821.11 43.8794 Z" fill="#000000" fill-rule="nonzero" fill-opacity="1" /><path clip-path="url(#clip440)" d="M1857.04 16.5416 L1857.04 20.523 Q1855.23 19.5277 1853.4 19.0416 Q1851.6 18.5323 1849.75 18.5323 Q1845.6 18.5323 1843.31 21.1712 Q1841.02 23.7869 1841.02 28.5323 Q1841.02 33.2776 1843.31 35.9165 Q1845.6 38.5322 1849.75 38.5322 Q1851.6 38.5322 1853.4 38.0461 Q1855.23 37.5368 1857.04 36.5415 L1857.04 40.4766 Q1855.25 41.31 1853.33 41.7266 Q1851.44 42.1433 1849.28 42.1433 Q1843.43 42.1433 1839.98 38.4628 Q1836.53 34.7822 1836.53 28.5323 Q1836.53 22.1897 1840 18.5555 Q1843.5 14.9212 1849.56 14.9212 Q1851.53 14.9212 1853.4 15.3379 Q1855.28 15.7314 1857.04 16.5416 Z" fill="#000000" fill-rule="nonzero" fill-opacity="1" /><path clip-path="url(#clip440)" d="M1868.56 37.5831 L1868.56 51.3331 L1864.28 51.3331 L1864.28 15.5462 L1868.56 15.5462 L1868.56 19.4814 Q1869.91 17.1666 1871.94 16.0555 Q1874 14.9212 1876.85 14.9212 Q1881.57 14.9212 1884.51 18.6712 Q1887.48 22.4212 1887.48 28.5323 Q1887.48 34.6433 1884.51 38.3933 Q1881.57 42.1433 1876.85 42.1433 Q1874 42.1433 1871.94 41.0322 Q1869.91 39.8979 1868.56 37.5831 M1883.06 28.5323 Q1883.06 23.8332 1881.11 21.1712 Q1879.19 18.486 1875.81 18.486 Q1872.43 18.486 1870.49 21.1712 Q1868.56 23.8332 1868.56 28.5323 Q1868.56 33.2313 1870.49 35.9165 Q1872.43 38.5785 1875.81 38.5785 Q1879.19 38.5785 1881.11 35.9165 Q1883.06 33.2313 1883.06 28.5323 Z" fill="#000000" fill-rule="nonzero" fill-opacity="1" /><path clip-path="url(#clip440)" d="M1916.71 27.4443 L1916.71 29.5276 L1897.13 29.5276 Q1897.41 33.9257 1899.77 36.2405 Q1902.15 38.5322 1906.39 38.5322 Q1908.84 38.5322 1911.13 37.9304 Q1913.45 37.3285 1915.72 36.1248 L1915.72 40.1526 Q1913.43 41.1248 1911.02 41.634 Q1908.61 42.1433 1906.13 42.1433 Q1899.93 42.1433 1896.3 38.5322 Q1892.69 34.9211 1892.69 28.7637 Q1892.69 22.398 1896.11 18.6712 Q1899.56 14.9212 1905.39 14.9212 Q1910.62 14.9212 1913.66 18.3008 Q1916.71 21.6573 1916.71 27.4443 M1912.45 26.1943 Q1912.41 22.699 1910.49 20.6156 Q1908.59 18.5323 1905.44 18.5323 Q1901.87 18.5323 1899.72 20.5462 Q1897.59 22.5601 1897.27 26.2175 L1912.45 26.1943 Z" fill="#000000" fill-rule="nonzero" fill-opacity="1" /><path clip-path="url(#clip440)" d="M1929.49 38.0692 L1941.85 38.0692 L1941.85 18.949 L1932.89 18.949 L1932.89 22.1897 Q1932.89 31.7267 1930.16 36.8192 L1929.49 38.0692 M1923.31 38.0692 Q1925.42 37.1433 1926.34 35.1757 Q1928.61 30.2915 1928.61 20.4536 L1928.61 15.5462 L1946.13 15.5462 L1946.13 38.0692 L1949.54 38.0692 L1949.54 48.0229 L1946.13 48.0229 L1946.13 41.472 L1925.12 41.472 L1925.12 48.0229 L1921.71 48.0229 L1921.71 38.0692 L1923.31 38.0692 Z" fill="#000000" fill-rule="nonzero" fill-opacity="1" /><path clip-path="url(#clip440)" d="M1956.32 15.5462 L1960.6 15.5462 L1960.6 26.1249 L1974.42 26.1249 L1974.42 15.5462 L1978.7 15.5462 L1978.7 41.472 L1974.42 41.472 L1974.42 29.5276 L1960.6 29.5276 L1960.6 41.472 L1956.32 41.472 L1956.32 15.5462 Z" fill="#000000" fill-rule="nonzero" fill-opacity="1" /><path clip-path="url(#clip440)" d="M2009.65 27.4443 L2009.65 29.5276 L1990.07 29.5276 Q1990.35 33.9257 1992.71 36.2405 Q1995.09 38.5322 1999.33 38.5322 Q2001.78 38.5322 2004.07 37.9304 Q2006.39 37.3285 2008.66 36.1248 L2008.66 40.1526 Q2006.37 41.1248 2003.96 41.634 Q2001.55 42.1433 1999.07 42.1433 Q1992.87 42.1433 1989.24 38.5322 Q1985.62 34.9211 1985.62 28.7637 Q1985.62 22.398 1989.05 18.6712 Q1992.5 14.9212 1998.33 14.9212 Q2003.56 14.9212 2006.6 18.3008 Q2009.65 21.6573 2009.65 27.4443 M2005.39 26.1943 Q2005.35 22.699 2003.43 20.6156 Q2001.53 18.5323 1998.38 18.5323 Q1994.81 18.5323 1992.66 20.5462 Q1990.53 22.5601 1990.21 26.2175 L2005.39 26.1943 Z" fill="#000000" fill-rule="nonzero" fill-opacity="1" /><path clip-path="url(#clip440)" d="M2016.48 15.5462 L2020.76 15.5462 L2020.76 26.1249 L2034.58 26.1249 L2034.58 15.5462 L2038.86 15.5462 L2038.86 41.472 L2034.58 41.472 L2034.58 29.5276 L2020.76 29.5276 L2020.76 41.472 L2016.48 41.472 L2016.48 15.5462 Z" fill="#000000" fill-rule="nonzero" fill-opacity="1" /><path clip-path="url(#clip440)" d="M2069.67 15.5462 L2069.67 41.472 L2065.44 41.472 L2065.44 20.6619 L2052.94 41.472 L2047.48 41.472 L2047.48 15.5462 L2051.71 15.5462 L2051.71 36.31 L2064.19 15.5462 L2069.67 15.5462 Z" fill="#000000" fill-rule="nonzero" fill-opacity="1" /><path clip-path="url(#clip440)" d="M2100.62 27.4443 L2100.62 29.5276 L2081.04 29.5276 Q2081.32 33.9257 2083.68 36.2405 Q2086.06 38.5322 2090.3 38.5322 Q2092.75 38.5322 2095.05 37.9304 Q2097.36 37.3285 2099.63 36.1248 L2099.63 40.1526 Q2097.34 41.1248 2094.93 41.634 Q2092.52 42.1433 2090.05 42.1433 Q2083.84 42.1433 2080.21 38.5322 Q2076.6 34.9211 2076.6 28.7637 Q2076.6 22.398 2080.02 18.6712 Q2083.47 14.9212 2089.3 14.9212 Q2094.54 14.9212 2097.57 18.3008 Q2100.62 21.6573 2100.62 27.4443 M2096.36 26.1943 Q2096.32 22.699 2094.4 20.6156 Q2092.5 18.5323 2089.35 18.5323 Q2085.79 18.5323 2083.63 20.5462 Q2081.5 22.5601 2081.18 26.2175 L2096.36 26.1943 Z" fill="#000000" fill-rule="nonzero" fill-opacity="1" /><path clip-path="url(#clip440)" d="M2144.91 15.5462 L2144.91 41.472 L2140.62 41.472 L2140.62 18.949 L2126.8 18.949 L2126.8 41.472 L2122.52 41.472 L2122.52 15.5462 L2144.91 15.5462 Z" fill="#000000" fill-rule="nonzero" fill-opacity="1" /><path clip-path="url(#clip440)" d="M2163.73 18.5323 Q2160.3 18.5323 2158.31 21.2175 Q2156.32 23.8795 2156.32 28.5323 Q2156.32 33.185 2158.29 35.8702 Q2160.28 38.5322 2163.73 38.5322 Q2167.13 38.5322 2169.12 35.847 Q2171.11 33.1619 2171.11 28.5323 Q2171.11 23.9258 2169.12 21.2406 Q2167.13 18.5323 2163.73 18.5323 M2163.73 14.9212 Q2169.28 14.9212 2172.45 18.5323 Q2175.62 22.1434 2175.62 28.5323 Q2175.62 34.898 2172.45 38.5322 Q2169.28 42.1433 2163.73 42.1433 Q2158.15 42.1433 2154.98 38.5322 Q2151.83 34.898 2151.83 28.5323 Q2151.83 22.1434 2154.98 18.5323 Q2158.15 14.9212 2163.73 14.9212 Z" fill="#000000" fill-rule="nonzero" fill-opacity="1" /><path clip-path="url(#clip440)" d="M2198.4 6.912 L2216.76 6.912 L2216.76 10.8472 L2202.68 10.8472 L2202.68 19.3193 Q2203.7 18.9721 2204.72 18.8101 Q2205.74 18.6249 2206.76 18.6249 Q2212.54 18.6249 2215.92 21.7962 Q2219.3 24.9675 2219.3 30.3841 Q2219.3 35.9628 2215.83 39.0646 Q2212.36 42.1433 2206.04 42.1433 Q2203.86 42.1433 2201.6 41.7729 Q2199.35 41.4026 2196.94 40.6618 L2196.94 35.9628 Q2199.03 37.097 2201.25 37.6526 Q2203.47 38.2081 2205.95 38.2081 Q2209.95 38.2081 2212.29 36.1017 Q2214.63 33.9952 2214.63 30.3841 Q2214.63 26.773 2212.29 24.6665 Q2209.95 22.5601 2205.95 22.5601 Q2204.07 22.5601 2202.2 22.9767 Q2200.35 23.3934 2198.4 24.273 L2198.4 6.912 Z" fill="#000000" fill-rule="nonzero" fill-opacity="1" /><path clip-path="url(#clip440)" d="M2238.52 9.99069 Q2234.91 9.99069 2233.08 13.5555 Q2231.27 17.0971 2231.27 24.2267 Q2231.27 31.3332 2233.08 34.898 Q2234.91 38.4396 2238.52 38.4396 Q2242.15 38.4396 2243.96 34.898 Q2245.79 31.3332 2245.79 24.2267 Q2245.79 17.0971 2243.96 13.5555 Q2242.15 9.99069 2238.52 9.99069 M2238.52 6.287 Q2244.33 6.287 2247.38 10.8935 Q2250.46 15.4768 2250.46 24.2267 Q2250.46 32.9535 2247.38 37.56 Q2244.33 42.1433 2238.52 42.1433 Q2232.71 42.1433 2229.63 37.56 Q2226.57 32.9535 2226.57 24.2267 Q2226.57 15.4768 2229.63 10.8935 Q2232.71 6.287 2238.52 6.287 Z" fill="#000000" fill-rule="nonzero" fill-opacity="1" /><path clip-path="url(#clip440)" d="M2268.68 9.99069 Q2265.07 9.99069 2263.24 13.5555 Q2261.43 17.0971 2261.43 24.2267 Q2261.43 31.3332 2263.24 34.898 Q2265.07 38.4396 2268.68 38.4396 Q2272.31 38.4396 2274.12 34.898 Q2275.95 31.3332 2275.95 24.2267 Q2275.95 17.0971 2274.12 13.5555 Q2272.31 9.99069 2268.68 9.99069 M2268.68 6.287 Q2274.49 6.287 2277.54 10.8935 Q2280.62 15.4768 2280.62 24.2267 Q2280.62 32.9535 2277.54 37.56 Q2274.49 42.1433 2268.68 42.1433 Q2262.87 42.1433 2259.79 37.56 Q2256.73 32.9535 2256.73 24.2267 Q2256.73 15.4768 2259.79 10.8935 Q2262.87 6.287 2268.68 6.287 Z" fill="#000000" fill-rule="nonzero" fill-opacity="1" /><path clip-path="url(#clip440)" d="M2287.57 5.49997 L2291.27 5.49997 Q2294.74 10.9629 2296.46 16.1944 Q2298.19 21.4258 2298.19 26.5878 Q2298.19 31.773 2296.46 37.0276 Q2294.74 42.2822 2291.27 47.722 L2287.57 47.722 Q2290.65 42.4211 2292.15 37.1896 Q2293.68 31.935 2293.68 26.5878 Q2293.68 21.2406 2292.15 16.0323 Q2290.65 10.824 2287.57 5.49997 Z" fill="#000000" fill-rule="nonzero" fill-opacity="1" /><polyline clip-path="url(#clip442)" style="stroke:#009af9; stroke-linecap:round; stroke-linejoin:round; stroke-width:4; stroke-opacity:1; fill:none" points="279.894,1148.93 282.012,1242.75 284.13,1219.41 286.249,1385.66 288.367,1031.94 290.486,1308.2 292.604,1233.55 294.723,1192.46 296.841,1158.69 298.959,1254.73 301.078,1163.18 303.196,1132.28 305.315,1217.47 307.433,1004.07 309.551,1083.25 311.67,1220.24 313.788,1168.12 315.907,1324.44 318.025,1148.63 320.143,1125.51 322.262,1137.4 324.38,1080.55 326.499,1203.81 328.617,1099.16 330.735,1201.46 332.854,1125.1 334.972,1168.92 337.091,1210.09 339.209,1115.02 341.328,1146.27 343.446,1245.96 345.564,1367.5 347.683,971.93 349.801,1043.19 351.92,1153.53 354.038,974.517 356.156,959.686 358.275,1071.35 360.393,927.506 362.512,1135.46 364.63,1219.61 366.748,990.911 368.867,1036.14 370.985,1078.14 373.104,1156.68 375.222,1065.97 377.34,1141.45 379.459,938.135 381.577,1138.04 383.696,992.545 385.814,923.189 387.932,1212.98 390.051,1336.58 392.169,984.45 394.288,813.519 396.406,606.98 398.525,1211.52 400.643,1022.98 402.761,1143.1 404.88,1057.19 406.998,968.787 409.117,648.473 411.235,876.52 413.353,853.216 415.472,926.564 417.59,829.383 419.709,1092.87 421.827,1190.65 423.945,1081.49 426.064,837.401 428.182,991.242 430.301,1063.1 432.419,940.152 434.537,900.609 436.656,996.061 438.774,828.075 440.893,943.6 443.011,886.802 445.129,659.871 447.248,942.837 449.366,792.028 451.485,868.683 453.603,945.504 455.722,859.567 457.84,1000.6 459.958,881.397 462.077,1002.13 464.195,944.987 466.314,785.434 468.432,930.607 470.55,1176.09 472.669,851.058 474.787,775.782 476.906,904.076 479.024,1165.79 481.142,996.194 483.261,1023.78 485.379,702.827 487.498,542.596 489.616,1017.07 491.734,1026.41 493.853,943.031 495.971,852.517 498.09,812.51 500.208,970.647 502.327,1037.86 504.445,895.989 506.563,968.946 508.682,837.669 510.8,895.837 512.919,881.451 515.037,964.708 517.155,871.611 519.274,972.644 521.392,728.148 523.511,880.306 525.629,731.857 527.747,1201.56 529.866,1126.51 531.984,862.395 534.103,811.868 536.221,837.916 538.339,943.533 540.458,1033.74 542.576,807.512 544.695,999.106 546.813,987.359 548.931,757.905 551.05,864.288 553.168,935.537 555.287,698.454 557.405,758.6 559.524,668.1 561.642,747.172 563.76,700.623 565.879,826.225 567.997,881.909 570.116,797.295 572.234,702.353 574.352,911.835 576.471,659.05 578.589,822.549 580.708,869.631 582.826,772.836 584.944,864.248 587.063,911.021 589.181,896.942 591.3,805.057 593.418,778.691 595.536,796.733 597.655,929.298 599.773,869.362 601.892,914.026 604.01,648.895 606.129,955.366 608.247,909.43 610.365,1042.92 612.484,890.693 614.602,805.371 616.721,802.447 618.839,786.029 620.957,1012.43 623.076,788.612 625.194,987.542 627.313,851.748 629.431,907.213 631.549,1144.82 633.668,929.721 635.786,699.394 637.905,933.431 640.023,917.656 642.141,772.976 644.26,1004.87 646.378,829.567 648.497,656.937 650.615,817.627 652.733,774.641 654.852,804.655 656.97,795.198 659.089,780.536 661.207,867.483 663.326,995.04 665.444,844.463 667.562,852.444 669.681,701.86 671.799,1004.88 673.918,725.429 676.036,958.21 678.154,801.429 680.273,761.818 682.391,740.121 684.51,759.497 686.628,909.92 688.746,796.192 690.865,741.557 692.983,800.478 695.102,784.462 697.22,764.98 699.338,725.842 701.457,835.965 703.575,828.483 705.694,792.483 707.812,931.501 709.93,729.606 712.049,826.565 714.167,540.716 716.286,866.143 718.404,800.684 720.523,631.397 722.641,877.082 724.759,670.751 726.878,841.283 728.996,982.536 731.115,612.063 733.233,731.684 735.351,849.706 737.47,888.893 739.588,919.516 741.707,837.548 743.825,811.727 745.943,589.29 748.062,1040.17 750.18,1004.78 752.299,658.032 754.417,780.536 756.535,375.61 758.654,827.375 760.772,837.768 762.891,783.57 765.009,761.56 767.128,675.273 769.246,678.643 771.364,670.99 773.483,778.757 775.601,894.406 777.72,597.338 779.838,667.869 781.956,705.936 784.075,787.574 786.193,748.289 788.312,754.471 790.43,744.249 792.548,473.854 794.667,825.733 796.785,893.168 798.904,711.113 801.022,786.389 803.14,715.541 805.259,1039.59 807.377,584.606 809.496,681.673 811.614,545.965 813.732,645.554 815.851,701.426 817.969,766.356 820.088,753.477 822.206,858.57 824.325,713.491 826.443,868.596 828.561,865.348 830.68,777.744 832.798,570.409 834.917,763.545 837.035,856.254 839.153,864.105 841.272,519.708 843.39,693.138 845.509,635.957 847.627,558.307 849.745,638.558 851.864,874.006 853.982,680.333 856.101,497.584 858.219,735.462 860.337,906.088 862.456,918.577 864.574,695.068 866.693,809.213 868.811,705.067 870.93,924.024 873.048,948.449 875.166,874.337 877.285,693.24 879.403,1003.37 881.522,774.722 883.64,805.914 885.758,777.389 887.877,573.938 889.995,671.13 892.114,711.015 894.232,773.369 896.35,773.921 898.469,645.327 900.587,937.051 902.706,758.153 904.824,724.919 906.942,909.421 909.061,792.262 911.179,830.049 913.298,733.998 915.416,753.07 917.534,699.428 919.653,571.022 921.771,629.877 923.89,538.061 926.008,890.367 928.127,608.962 930.245,785.657 932.363,589.909 934.482,371.343 936.6,635.957 938.719,775.225 940.837,816.694 942.955,717.798 945.074,509.982 947.192,773.999 949.311,698.256 951.429,727.894 953.547,701.809 955.666,769.464 957.784,746.409 959.903,803.227 962.021,742.095 964.139,740.726 966.258,544.841 968.376,551.032 970.495,634.698 972.613,798.875 974.731,695.519 976.85,821.95 978.968,746.566 981.087,639.411 983.205,494.425 985.324,645.541 987.442,661.827 989.56,575.513 991.679,665.238 993.797,633.022 995.916,537.874 998.034,724.306 1000.15,465.125 1002.27,806.521 1004.39,478.077 1006.51,667.031 1008.63,656.839 1010.74,637.428 1012.86,635.826 1014.98,634.698 1017.1,759.897 1019.22,868.107 1021.34,519.185 1023.45,775.57 1025.57,828.661 1027.69,854.798 1029.81,801.986 1031.93,646.942 1034.05,709.601 1036.17,758.311 1038.28,751.512 1040.4,708.425 1042.52,583.91 1044.64,867.257 1046.76,733.298 1048.88,595.319 1050.99,712.492 1053.11,601.023 1055.23,679.828 1057.35,628.738 1059.47,737.435 1061.59,843.214 1063.7,666.002 1065.82,758.363 1067.94,790.483 1070.06,698.715 1072.18,749.258 1074.3,734.982 1076.42,786.494 1078.53,658.015 1080.65,441.726 1082.77,572.396 1084.89,618.81 1087.01,710.875 1089.13,755.867 1091.24,579.519 1093.36,827.796 1095.48,651.74 1097.6,639.108 1099.72,678.979 1101.84,685.289 1103.95,573.582 1106.07,684.481 1108.19,421.426 1110.31,800.292 1112.43,723.212 1114.55,525.337 1116.66,493.273 1118.78,610.727 1120.9,571.893 1123.02,711.805 1125.14,717.643 1127.26,726.016 1129.38,573.627 1131.49,480.429 1133.61,770.807 1135.73,726.367 1137.85,511.485 1139.97,709.48 1142.09,809.227 1144.2,610.056 1146.32,510.545 1148.44,705.671 1150.56,618.567 1152.68,907.712 1154.8,446.868 1156.91,877.69 1159.03,644.627 1161.15,879.682 1163.27,809.22 1165.39,725.669 1167.51,399.456 1169.63,794.212 1171.74,683.244 1173.86,621.81 1175.98,756.182 1178.1,597.354 1180.22,398.508 1182.34,605.288 1184.45,671.837 1186.57,637.828 1188.69,741.607 1190.81,749.36 1192.93,732.564 1195.05,498.166 1197.16,760.544 1199.28,704.418 1201.4,637.53 1203.52,480.728 1205.64,483.403 1207.76,655.53 1209.87,653.692 1211.99,820.465 1214.11,656.649 1216.23,613.508 1218.35,696.449 1220.47,554.366 1222.59,776.22 1224.7,573.174 1226.82,713.282 1228.94,594.135 1231.06,593.366 1233.18,687.58 1235.3,753.251 1237.41,617.359 1239.53,643.87 1241.65,729.989 1243.77,648.85 1245.89,620.502 1248.01,410.815 1250.12,573.672 1252.24,806.271 1254.36,797.647 1256.48,808.028 1258.6,745.232 1260.72,817.376 1262.83,628.922 1264.95,611.74 1267.07,773.229 1269.19,579.03 1271.31,589.073 1273.43,783.91 1275.55,740.29 1277.66,877.69 1279.78,747.794 1281.9,757.16 1284.02,648.863 1286.14,676.321 1288.26,683.416 1290.37,670.404 1292.49,729.354 1294.61,797.642 1296.73,506.286 1298.85,664.25 1300.97,576.9 1303.08,667.25 1305.2,697.246 1307.32,572.806 1309.44,763.25 1311.56,600.948 1313.68,379.066 1315.8,605.712 1317.91,518.094 1320.03,889.411 1322.15,585.881 1324.27,453.626 1326.39,742.179 1328.51,654.958 1330.62,839.075 1332.74,762.012 1334.86,732.961 1336.98,859.229 1339.1,701.354 1341.22,382.997 1343.33,574.276 1345.45,732.73 1347.57,678.046 1349.69,432.001 1351.81,797.391 1353.93,452.232 1356.04,509.591 1358.16,708.847 1360.28,562 1362.4,826.581 1364.52,656.167 1366.64,777.771 1368.76,854.28 1370.87,1046.58 1372.99,727.492 1375.11,519.554 1377.23,921.89 1379.35,655.53 1381.47,444.482 1383.58,707.326 1385.7,734.782 1387.82,635.863 1389.94,640.101 1392.06,682.287 1394.18,518.472 1396.29,418.841 1398.41,706.545 1400.53,590.104 1402.65,520.598 1404.77,698.78 1406.89,707.269 1409.01,666.264 1411.12,490.543 1413.24,758.612 1415.36,770.411 1417.48,760.435 1419.6,589.901 1421.72,557.705 1423.83,586.471 1425.95,654.529 1428.07,614.023 1430.19,592.476 1432.31,598.066 1434.43,561.22 1436.54,744.776 1438.66,811.564 1440.78,579.565 1442.9,671.366 1445.02,622.07 1447.14,615.826 1449.25,403.993 1451.37,602.776 1453.49,549.522 1455.61,695.785 1457.73,660.085 1459.85,672.214 1461.97,626.269 1464.08,637.292 1466.2,489.184 1468.32,587.921 1470.44,519.032 1472.56,599.709 1474.68,736.827 1476.79,483.246 1478.91,833.701 1481.03,614.599 1483.15,557.846 1485.27,692.996 1487.39,521.087 1489.5,681.817 1491.62,457.468 1493.74,518.84 1495.86,602.195 1497.98,502.461 1500.1,487.937 1502.22,551.168 1504.33,681.897 1506.45,403.857 1508.57,432.931 1510.69,574.413 1512.81,449.669 1514.93,537.204 1517.04,770.428 1519.16,716.7 1521.28,528.234 1523.4,597.269 1525.52,627.945 1527.64,638.648 1529.75,700.256 1531.87,444.952 1533.99,785.757 1536.11,817.512 1538.23,497.374 1540.35,531.827 1542.46,715.92 1544.58,728.043 1546.7,817.617 1548.82,854.101 1550.94,611.74 1553.06,597.388 1555.18,453.669 1557.29,569.928 1559.41,726.045 1561.53,769.863 1563.65,639.73 1565.77,658.944 1567.89,512.356 1570,558.055 1572.12,452.585 1574.24,365.396 1576.36,517.426 1578.48,645.044 1580.6,575.525 1582.71,682.208 1584.83,535.365 1586.95,607.205 1589.07,666.909 1591.19,609.19 1593.31,642.701 1595.43,575.956 1597.54,489.757 1599.66,727.927 1601.78,492.324 1603.9,623.502 1606.02,969.521 1608.14,551.277 1610.25,627.66 1612.37,594.682 1614.49,771.55 1616.61,625.674 1618.73,493.561 1620.85,560.732 1622.96,589.238 1625.08,666.36 1627.2,646.752 1629.32,546.993 1631.44,813.864 1633.56,597.73 1635.67,536.998 1637.79,551.544 1639.91,644.165 1642.03,581.675 1644.15,599.273 1646.27,696.947 1648.39,448.413 1650.5,548.443 1652.62,607.526 1654.74,702.795 1656.86,653.362 1658.98,640.59 1661.1,514.852 1663.21,652.334 1665.33,710.169 1667.45,502.438 1669.57,720.37 1671.69,524.427 1673.81,652.105 1675.92,539.907 1678.04,597.522 1680.16,792.124 1682.28,551.456 1684.4,699.182 1686.52,578.031 1688.63,607.823 1690.75,511.733 1692.87,553.769 1694.99,515.825 1697.11,521.509 1699.23,512.626 1701.35,638.294 1703.46,636.593 1705.58,566.684 1707.7,774.271 1709.82,535.807 1711.94,543.092 1714.06,416.373 1716.17,628.128 1718.29,651.684 1720.41,634.333 1722.53,517.572 1724.65,647.439 1726.77,522.138 1728.88,402.493 1731,498.214 1733.12,572.111 1735.24,455.522 1737.36,736.549 1739.48,595.23 1741.6,529.631 1743.71,487.998 1745.83,497.856 1747.95,638.12 1750.07,569.472 1752.19,687.21 1754.31,588.866 1756.42,643.64 1758.54,550.363 1760.66,697.346 1762.78,705.029 1764.9,471.534 1767.02,703.5 1769.13,546.787 1771.25,556.329 1773.37,727.263 1775.49,586.174 1777.61,834.889 1779.73,603.469 1781.84,718.418 1783.96,506.368 1786.08,537.492 1788.2,542.219 1790.32,435.692 1792.44,523.651 1794.56,549.446 1796.67,572.427 1798.79,679.272 1800.91,373.741 1803.03,640.846 1805.15,589.733 1807.27,451.528 1809.38,781.251 1811.5,518.773 1813.62,628.27 1815.74,746.149 1817.86,690.624 1819.98,657.406 1822.09,493.917 1824.21,555.642 1826.33,777.213 1828.45,473.09 1830.57,731.01 1832.69,600.689 1834.81,625.131 1836.92,499.048 1839.04,544.334 1841.16,480.502 1843.28,467.265 1845.4,661.997 1847.52,755.292 1849.63,710.706 1851.75,555.254 1853.87,460.639 1855.99,518.544 1858.11,821.864 1860.23,559.264 1862.34,668.783 1864.46,698.154 1866.58,743.426 1868.7,655.438 1870.82,634.663 1872.94,820.824 1875.05,549.02 1877.17,648.952 1879.29,787.119 1881.41,648.127 1883.53,450.941 1885.65,602.921 1887.77,589.238 1889.88,491.352 1892,495.222 1894.12,364.398 1896.24,575.042 1898.36,678.429 1900.48,515.423 1902.59,682.147 1904.71,642.886 1906.83,639.868 1908.95,425.596 1911.07,560.047 1913.19,591.604 1915.3,506.295 1917.42,445.705 1919.54,428.379 1921.66,559.055 1923.78,392.42 1925.9,626.931 1928.02,455.447 1930.13,638.645 1932.25,664.477 1934.37,703.968 1936.49,471.769 1938.61,556.69 1940.73,472.495 1942.84,605.232 1944.96,484.738 1947.08,503.767 1949.2,680.707 1951.32,631.206 1953.44,626.248 1955.55,688.963 1957.67,715.812 1959.79,582.645 1961.91,581.13 1964.03,557.354 1966.15,694.244 1968.26,408.801 1970.38,542.36 1972.5,583.153 1974.62,588.313 1976.74,555.408 1978.86,413.952 1980.98,378.943 1983.09,900.609 1985.21,569.267 1987.33,649.585 1989.45,477.561 1991.57,508.507 1993.69,561.564 1995.8,565.067 1997.92,533.275 2000.04,437.728 2002.16,493.126 2004.28,434.665 2006.4,519.818 2008.51,691.622 2010.63,556.162 2012.75,477.543 2014.87,609.061 2016.99,514.266 2019.11,473.774 2021.23,568.169 2023.34,469.648 2025.46,485.114 2027.58,445.497 2029.7,677.924 2031.82,478.774 2033.94,613.852 2036.05,544.868 2038.17,625.583 2040.29,554.949 2042.41,520.456 2044.53,491.66 2046.65,635.957 2048.76,546.512 2050.88,558.724 2053,360.609 2055.12,731.582 2057.24,547.014 2059.36,512.147 2061.47,554.954 2063.59,767.562 2065.71,587.556 2067.83,582.13 2069.95,591.955 2072.07,444.357 2074.19,406.832 2076.3,437.78 2078.42,589.29 2080.54,653.691 2082.66,754.345 2084.78,660.884 2086.9,513.535 2089.01,531.459 2091.13,618.923 2093.25,480.614 2095.37,445.875 2097.49,549.373 2099.61,381.238 2101.72,677.452 2103.84,563.852 2105.96,431.712 2108.08,513.18 2110.2,461.856 2112.32,754.497 2114.44,561.845 2116.55,753.704 2118.67,633.961 2120.79,422.058 2122.91,483.502 2125.03,438.028 2127.15,524.269 2129.26,607.581 2131.38,585.543 2133.5,598.14 2135.62,484.695 2137.74,548.671 2139.86,486.687 2141.97,693.882 2144.09,527.253 2146.21,735.549 2148.33,728.512 2150.45,458.086 2152.57,569.393 2154.68,460.855 2156.8,287.947 2158.92,574.723 2161.04,504.496 2163.16,469.374 2165.28,537.219 2167.4,534.386 2169.51,659.984 2171.63,577.133 2173.75,636.305 2175.87,355.943 2177.99,766.485 2180.11,514.502 2182.22,523.592 2184.34,496.336 2186.46,541.726 2188.58,553.585 2190.7,374.598 2192.82,595.497 2194.93,661.678 2197.05,573.064 2199.17,514.266 2201.29,360.552 2203.41,521.904 2205.53,489.429 2207.64,487.689 2209.76,377.956 2211.88,611.184 2214,479.641 2216.12,337.622 2218.24,548.174 2220.36,334.121 2222.47,625.672 2224.59,567.77 2226.71,439.572 2228.83,549.089 2230.95,417.169 2233.07,767.556 2235.18,531.311 2237.3,557.313 2239.42,747.235 2241.54,549.652 2243.66,702.016 2245.78,415.272 2247.89,246.906 2250.01,440.891 2252.13,492.139 2254.25,533.143 2256.37,488.956 2258.49,503.632 2260.61,458.056 2262.72,135.07 2264.84,674.175 2266.96,604.544 2269.08,837.009 2271.2,499.82 2273.32,443.748 2275.43,594.336 2277.55,618.92 2279.67,470.285 2281.79,579.121 2283.91,324.291 2286.03,656.64 2288.14,487.359 2290.26,722.805 2292.38,399.751 "/>
</svg>
