<?xml version="1.0" encoding="utf-8"?>
<svg xmlns="http://www.w3.org/2000/svg" xmlns:xlink="http://www.w3.org/1999/xlink" width="600" height="400" viewBox="0 0 2400 1600">
<defs>
  <clipPath id="clip400">
    <rect x="0" y="0" width="2400" height="1600"/>
  </clipPath>
</defs>
<path clip-path="url(#clip400)" d="M0 1600 L2400 1600 L2400 0 L0 0  Z" fill="#ffffff" fill-rule="evenodd" fill-opacity="1"/>
<defs>
  <clipPath id="clip401">
    <rect x="480" y="0" width="1681" height="1600"/>
  </clipPath>
</defs>
<path clip-path="url(#clip400)" d="M279.357 1423.18 L2352.76 1423.18 L2352.76 97.5521 L279.357 97.5521  Z" fill="#ffffff" fill-rule="evenodd" fill-opacity="1"/>
<defs>
  <clipPath id="clip402">
    <rect x="279" y="97" width="2074" height="1327"/>
  </clipPath>
</defs>
<polyline clip-path="url(#clip402)" style="stroke:#000000; stroke-linecap:round; stroke-linejoin:round; stroke-width:2; stroke-opacity:0.1; fill:none" points="318.28,1423.18 318.28,97.5521 "/>
<polyline clip-path="url(#clip402)" style="stroke:#000000; stroke-linecap:round; stroke-linejoin:round; stroke-width:2; stroke-opacity:0.1; fill:none" points="812.229,1423.18 812.229,97.5521 "/>
<polyline clip-path="url(#clip402)" style="stroke:#000000; stroke-linecap:round; stroke-linejoin:round; stroke-width:2; stroke-opacity:0.1; fill:none" points="1306.18,1423.18 1306.18,97.5521 "/>
<polyline clip-path="url(#clip402)" style="stroke:#000000; stroke-linecap:round; stroke-linejoin:round; stroke-width:2; stroke-opacity:0.1; fill:none" points="1800.13,1423.18 1800.13,97.5521 "/>
<polyline clip-path="url(#clip402)" style="stroke:#000000; stroke-linecap:round; stroke-linejoin:round; stroke-width:2; stroke-opacity:0.1; fill:none" points="2294.07,1423.18 2294.07,97.5521 "/>
<polyline clip-path="url(#clip400)" style="stroke:#000000; stroke-linecap:round; stroke-linejoin:round; stroke-width:4; stroke-opacity:1; fill:none" points="279.357,1423.18 2352.76,1423.18 "/>
<polyline clip-path="url(#clip400)" style="stroke:#000000; stroke-linecap:round; stroke-linejoin:round; stroke-width:4; stroke-opacity:1; fill:none" points="318.28,1423.18 318.28,1404.28 "/>
<polyline clip-path="url(#clip400)" style="stroke:#000000; stroke-linecap:round; stroke-linejoin:round; stroke-width:4; stroke-opacity:1; fill:none" points="812.229,1423.18 812.229,1404.28 "/>
<polyline clip-path="url(#clip400)" style="stroke:#000000; stroke-linecap:round; stroke-linejoin:round; stroke-width:4; stroke-opacity:1; fill:none" points="1306.18,1423.18 1306.18,1404.28 "/>
<polyline clip-path="url(#clip400)" style="stroke:#000000; stroke-linecap:round; stroke-linejoin:round; stroke-width:4; stroke-opacity:1; fill:none" points="1800.13,1423.18 1800.13,1404.28 "/>
<polyline clip-path="url(#clip400)" style="stroke:#000000; stroke-linecap:round; stroke-linejoin:round; stroke-width:4; stroke-opacity:1; fill:none" points="2294.07,1423.18 2294.07,1404.28 "/>
<path clip-path="url(#clip400)" d="M318.28 1454.1 Q314.669 1454.1 312.84 1457.66 Q311.035 1461.2 311.035 1468.33 Q311.035 1475.44 312.84 1479.01 Q314.669 1482.55 318.28 1482.55 Q321.914 1482.55 323.72 1479.01 Q325.548 1475.44 325.548 1468.33 Q325.548 1461.2 323.72 1457.66 Q321.914 1454.1 318.28 1454.1 M318.28 1450.39 Q324.09 1450.39 327.146 1455 Q330.224 1459.58 330.224 1468.33 Q330.224 1477.06 327.146 1481.67 Q324.09 1486.25 318.28 1486.25 Q312.47 1486.25 309.391 1481.67 Q306.335 1477.06 306.335 1468.33 Q306.335 1459.58 309.391 1455 Q312.47 1450.39 318.28 1450.39 Z" fill="#000000" fill-rule="nonzero" fill-opacity="1" /><path clip-path="url(#clip400)" d="M760.84 1481.64 L777.159 1481.64 L777.159 1485.58 L755.215 1485.58 L755.215 1481.64 Q757.877 1478.89 762.46 1474.26 Q767.067 1469.61 768.247 1468.27 Q770.493 1465.74 771.372 1464.01 Q772.275 1462.25 772.275 1460.56 Q772.275 1457.8 770.331 1456.07 Q768.409 1454.33 765.308 1454.33 Q763.108 1454.33 760.655 1455.09 Q758.224 1455.86 755.446 1457.41 L755.446 1452.69 Q758.271 1451.55 760.724 1450.97 Q763.178 1450.39 765.215 1450.39 Q770.585 1450.39 773.78 1453.08 Q776.974 1455.77 776.974 1460.26 Q776.974 1462.39 776.164 1464.31 Q775.377 1466.2 773.27 1468.8 Q772.692 1469.47 769.59 1472.69 Q766.488 1475.88 760.84 1481.64 Z" fill="#000000" fill-rule="nonzero" fill-opacity="1" /><path clip-path="url(#clip400)" d="M787.02 1451.02 L805.377 1451.02 L805.377 1454.96 L791.303 1454.96 L791.303 1463.43 Q792.321 1463.08 793.34 1462.92 Q794.358 1462.73 795.377 1462.73 Q801.164 1462.73 804.543 1465.9 Q807.923 1469.08 807.923 1474.49 Q807.923 1480.07 804.451 1483.17 Q800.979 1486.25 794.659 1486.25 Q792.483 1486.25 790.215 1485.88 Q787.969 1485.51 785.562 1484.77 L785.562 1480.07 Q787.645 1481.2 789.868 1481.76 Q792.09 1482.32 794.567 1482.32 Q798.571 1482.32 800.909 1480.21 Q803.247 1478.1 803.247 1474.49 Q803.247 1470.88 800.909 1468.77 Q798.571 1466.67 794.567 1466.67 Q792.692 1466.67 790.817 1467.08 Q788.965 1467.5 787.02 1468.38 L787.02 1451.02 Z" fill="#000000" fill-rule="nonzero" fill-opacity="1" /><path clip-path="url(#clip400)" d="M827.136 1454.1 Q823.525 1454.1 821.696 1457.66 Q819.891 1461.2 819.891 1468.33 Q819.891 1475.44 821.696 1479.01 Q823.525 1482.55 827.136 1482.55 Q830.77 1482.55 832.576 1479.01 Q834.404 1475.44 834.404 1468.33 Q834.404 1461.2 832.576 1457.66 Q830.77 1454.1 827.136 1454.1 M827.136 1450.39 Q832.946 1450.39 836.002 1455 Q839.08 1459.58 839.08 1468.33 Q839.08 1477.06 836.002 1481.67 Q832.946 1486.25 827.136 1486.25 Q821.326 1486.25 818.247 1481.67 Q815.192 1477.06 815.192 1468.33 Q815.192 1459.58 818.247 1455 Q821.326 1450.39 827.136 1450.39 Z" fill="#000000" fill-rule="nonzero" fill-opacity="1" /><path clip-path="url(#clip400)" d="M857.298 1454.1 Q853.687 1454.1 851.858 1457.66 Q850.052 1461.2 850.052 1468.33 Q850.052 1475.44 851.858 1479.01 Q853.687 1482.55 857.298 1482.55 Q860.932 1482.55 862.738 1479.01 Q864.566 1475.44 864.566 1468.33 Q864.566 1461.2 862.738 1457.66 Q860.932 1454.1 857.298 1454.1 M857.298 1450.39 Q863.108 1450.39 866.163 1455 Q869.242 1459.58 869.242 1468.33 Q869.242 1477.06 866.163 1481.67 Q863.108 1486.25 857.298 1486.25 Q851.488 1486.25 848.409 1481.67 Q845.353 1477.06 845.353 1468.33 Q845.353 1459.58 848.409 1455 Q851.488 1450.39 857.298 1450.39 Z" fill="#000000" fill-rule="nonzero" fill-opacity="1" /><path clip-path="url(#clip400)" d="M1250.71 1451.02 L1269.07 1451.02 L1269.07 1454.96 L1255 1454.96 L1255 1463.43 Q1256.02 1463.08 1257.03 1462.92 Q1258.05 1462.73 1259.07 1462.73 Q1264.86 1462.73 1268.24 1465.9 Q1271.62 1469.08 1271.62 1474.49 Q1271.62 1480.07 1268.15 1483.17 Q1264.67 1486.25 1258.35 1486.25 Q1256.18 1486.25 1253.91 1485.88 Q1251.66 1485.51 1249.26 1484.77 L1249.26 1480.07 Q1251.34 1481.2 1253.56 1481.76 Q1255.78 1482.32 1258.26 1482.32 Q1262.27 1482.32 1264.6 1480.21 Q1266.94 1478.1 1266.94 1474.49 Q1266.94 1470.88 1264.6 1468.77 Q1262.27 1466.67 1258.26 1466.67 Q1256.39 1466.67 1254.51 1467.08 Q1252.66 1467.5 1250.71 1468.38 L1250.71 1451.02 Z" fill="#000000" fill-rule="nonzero" fill-opacity="1" /><path clip-path="url(#clip400)" d="M1290.83 1454.1 Q1287.22 1454.1 1285.39 1457.66 Q1283.58 1461.2 1283.58 1468.33 Q1283.58 1475.44 1285.39 1479.01 Q1287.22 1482.55 1290.83 1482.55 Q1294.46 1482.55 1296.27 1479.01 Q1298.1 1475.44 1298.1 1468.33 Q1298.1 1461.2 1296.27 1457.66 Q1294.46 1454.1 1290.83 1454.1 M1290.83 1450.39 Q1296.64 1450.39 1299.7 1455 Q1302.77 1459.58 1302.77 1468.33 Q1302.77 1477.06 1299.7 1481.67 Q1296.64 1486.25 1290.83 1486.25 Q1285.02 1486.25 1281.94 1481.67 Q1278.89 1477.06 1278.89 1468.33 Q1278.89 1459.58 1281.94 1455 Q1285.02 1450.39 1290.83 1450.39 Z" fill="#000000" fill-rule="nonzero" fill-opacity="1" /><path clip-path="url(#clip400)" d="M1320.99 1454.1 Q1317.38 1454.1 1315.55 1457.66 Q1313.75 1461.2 1313.75 1468.33 Q1313.75 1475.44 1315.55 1479.01 Q1317.38 1482.55 1320.99 1482.55 Q1324.63 1482.55 1326.43 1479.01 Q1328.26 1475.44 1328.26 1468.33 Q1328.26 1461.2 1326.43 1457.66 Q1324.63 1454.1 1320.99 1454.1 M1320.99 1450.39 Q1326.8 1450.39 1329.86 1455 Q1332.94 1459.58 1332.94 1468.33 Q1332.94 1477.06 1329.86 1481.67 Q1326.8 1486.25 1320.99 1486.25 Q1315.18 1486.25 1312.1 1481.67 Q1309.05 1477.06 1309.05 1468.33 Q1309.05 1459.58 1312.1 1455 Q1315.18 1450.39 1320.99 1450.39 Z" fill="#000000" fill-rule="nonzero" fill-opacity="1" /><path clip-path="url(#clip400)" d="M1351.15 1454.1 Q1347.54 1454.1 1345.71 1457.66 Q1343.91 1461.2 1343.91 1468.33 Q1343.91 1475.44 1345.71 1479.01 Q1347.54 1482.55 1351.15 1482.55 Q1354.79 1482.55 1356.59 1479.01 Q1358.42 1475.44 1358.42 1468.33 Q1358.42 1461.2 1356.59 1457.66 Q1354.79 1454.1 1351.15 1454.1 M1351.15 1450.39 Q1356.96 1450.39 1360.02 1455 Q1363.1 1459.58 1363.1 1468.33 Q1363.1 1477.06 1360.02 1481.67 Q1356.96 1486.25 1351.15 1486.25 Q1345.34 1486.25 1342.27 1481.67 Q1339.21 1477.06 1339.21 1468.33 Q1339.21 1459.58 1342.27 1455 Q1345.34 1450.39 1351.15 1450.39 Z" fill="#000000" fill-rule="nonzero" fill-opacity="1" /><path clip-path="url(#clip400)" d="M1743.32 1451.02 L1765.54 1451.02 L1765.54 1453.01 L1753 1485.58 L1748.11 1485.58 L1759.92 1454.96 L1743.32 1454.96 L1743.32 1451.02 Z" fill="#000000" fill-rule="nonzero" fill-opacity="1" /><path clip-path="url(#clip400)" d="M1774.71 1451.02 L1793.07 1451.02 L1793.07 1454.96 L1778.99 1454.96 L1778.99 1463.43 Q1780.01 1463.08 1781.03 1462.92 Q1782.05 1462.73 1783.07 1462.73 Q1788.85 1462.73 1792.23 1465.9 Q1795.61 1469.08 1795.61 1474.49 Q1795.61 1480.07 1792.14 1483.17 Q1788.67 1486.25 1782.35 1486.25 Q1780.17 1486.25 1777.9 1485.88 Q1775.66 1485.51 1773.25 1484.77 L1773.25 1480.07 Q1775.33 1481.2 1777.56 1481.76 Q1779.78 1482.32 1782.26 1482.32 Q1786.26 1482.32 1788.6 1480.21 Q1790.94 1478.1 1790.94 1474.49 Q1790.94 1470.88 1788.6 1468.77 Q1786.26 1466.67 1782.26 1466.67 Q1780.38 1466.67 1778.51 1467.08 Q1776.65 1467.5 1774.71 1468.38 L1774.71 1451.02 Z" fill="#000000" fill-rule="nonzero" fill-opacity="1" /><path clip-path="url(#clip400)" d="M1814.83 1454.1 Q1811.21 1454.1 1809.39 1457.66 Q1807.58 1461.2 1807.58 1468.33 Q1807.58 1475.44 1809.39 1479.01 Q1811.21 1482.55 1814.83 1482.55 Q1818.46 1482.55 1820.26 1479.01 Q1822.09 1475.44 1822.09 1468.33 Q1822.09 1461.2 1820.26 1457.66 Q1818.46 1454.1 1814.83 1454.1 M1814.83 1450.39 Q1820.64 1450.39 1823.69 1455 Q1826.77 1459.58 1826.77 1468.33 Q1826.77 1477.06 1823.69 1481.67 Q1820.64 1486.25 1814.83 1486.25 Q1809.01 1486.25 1805.94 1481.67 Q1802.88 1477.06 1802.88 1468.33 Q1802.88 1459.58 1805.94 1455 Q1809.01 1450.39 1814.83 1450.39 Z" fill="#000000" fill-rule="nonzero" fill-opacity="1" /><path clip-path="url(#clip400)" d="M1844.99 1454.1 Q1841.38 1454.1 1839.55 1457.66 Q1837.74 1461.2 1837.74 1468.33 Q1837.74 1475.44 1839.55 1479.01 Q1841.38 1482.55 1844.99 1482.55 Q1848.62 1482.55 1850.43 1479.01 Q1852.26 1475.44 1852.26 1468.33 Q1852.26 1461.2 1850.43 1457.66 Q1848.62 1454.1 1844.99 1454.1 M1844.99 1450.39 Q1850.8 1450.39 1853.85 1455 Q1856.93 1459.58 1856.93 1468.33 Q1856.93 1477.06 1853.85 1481.67 Q1850.8 1486.25 1844.99 1486.25 Q1839.18 1486.25 1836.1 1481.67 Q1833.04 1477.06 1833.04 1468.33 Q1833.04 1459.58 1836.1 1455 Q1839.18 1450.39 1844.99 1450.39 Z" fill="#000000" fill-rule="nonzero" fill-opacity="1" /><path clip-path="url(#clip400)" d="M2223.52 1481.64 L2231.16 1481.64 L2231.16 1455.28 L2222.85 1456.95 L2222.85 1452.69 L2231.11 1451.02 L2235.79 1451.02 L2235.79 1481.64 L2243.43 1481.64 L2243.43 1485.58 L2223.52 1485.58 L2223.52 1481.64 Z" fill="#000000" fill-rule="nonzero" fill-opacity="1" /><path clip-path="url(#clip400)" d="M2262.87 1454.1 Q2259.26 1454.1 2257.43 1457.66 Q2255.63 1461.2 2255.63 1468.33 Q2255.63 1475.44 2257.43 1479.01 Q2259.26 1482.55 2262.87 1482.55 Q2266.51 1482.55 2268.31 1479.01 Q2270.14 1475.44 2270.14 1468.33 Q2270.14 1461.2 2268.31 1457.66 Q2266.51 1454.1 2262.87 1454.1 M2262.87 1450.39 Q2268.68 1450.39 2271.74 1455 Q2274.82 1459.58 2274.82 1468.33 Q2274.82 1477.06 2271.74 1481.67 Q2268.68 1486.25 2262.87 1486.25 Q2257.06 1486.25 2253.98 1481.67 Q2250.93 1477.06 2250.93 1468.33 Q2250.93 1459.58 2253.98 1455 Q2257.06 1450.39 2262.87 1450.39 Z" fill="#000000" fill-rule="nonzero" fill-opacity="1" /><path clip-path="url(#clip400)" d="M2293.03 1454.1 Q2289.42 1454.1 2287.59 1457.66 Q2285.79 1461.2 2285.79 1468.33 Q2285.79 1475.44 2287.59 1479.01 Q2289.42 1482.55 2293.03 1482.55 Q2296.67 1482.55 2298.47 1479.01 Q2300.3 1475.44 2300.3 1468.33 Q2300.3 1461.2 2298.47 1457.66 Q2296.67 1454.1 2293.03 1454.1 M2293.03 1450.39 Q2298.84 1450.39 2301.9 1455 Q2304.98 1459.58 2304.98 1468.33 Q2304.98 1477.06 2301.9 1481.67 Q2298.84 1486.25 2293.03 1486.25 Q2287.22 1486.25 2284.14 1481.67 Q2281.09 1477.06 2281.09 1468.33 Q2281.09 1459.58 2284.14 1455 Q2287.22 1450.39 2293.03 1450.39 Z" fill="#000000" fill-rule="nonzero" fill-opacity="1" /><path clip-path="url(#clip400)" d="M2323.2 1454.1 Q2319.58 1454.1 2317.76 1457.66 Q2315.95 1461.2 2315.95 1468.33 Q2315.95 1475.44 2317.76 1479.01 Q2319.58 1482.55 2323.2 1482.55 Q2326.83 1482.55 2328.63 1479.01 Q2330.46 1475.44 2330.46 1468.33 Q2330.46 1461.2 2328.63 1457.66 Q2326.83 1454.1 2323.2 1454.1 M2323.2 1450.39 Q2329.01 1450.39 2332.06 1455 Q2335.14 1459.58 2335.14 1468.33 Q2335.14 1477.06 2332.06 1481.67 Q2329.01 1486.25 2323.2 1486.25 Q2317.38 1486.25 2314.31 1481.67 Q2311.25 1477.06 2311.25 1468.33 Q2311.25 1459.58 2314.31 1455 Q2317.38 1450.39 2323.2 1450.39 Z" fill="#000000" fill-rule="nonzero" fill-opacity="1" /><path clip-path="url(#clip400)" d="M2353.36 1454.1 Q2349.75 1454.1 2347.92 1457.66 Q2346.11 1461.2 2346.11 1468.33 Q2346.11 1475.44 2347.92 1479.01 Q2349.75 1482.55 2353.36 1482.55 Q2356.99 1482.55 2358.8 1479.01 Q2360.63 1475.44 2360.63 1468.33 Q2360.63 1461.2 2358.8 1457.66 Q2356.99 1454.1 2353.36 1454.1 M2353.36 1450.39 Q2359.17 1450.39 2362.22 1455 Q2365.3 1459.58 2365.3 1468.33 Q2365.3 1477.06 2362.22 1481.67 Q2359.17 1486.25 2353.36 1486.25 Q2347.55 1486.25 2344.47 1481.67 Q2341.41 1477.06 2341.41 1468.33 Q2341.41 1459.58 2344.47 1455 Q2347.55 1450.39 2353.36 1450.39 Z" fill="#000000" fill-rule="nonzero" fill-opacity="1" /><path clip-path="url(#clip400)" d="M616.02 1568.04 L616.02 1548.56 L602.747 1548.56 Q596.827 1548.56 593.294 1544.87 Q589.761 1541.15 589.761 1533.57 L589.761 1520.52 L596.159 1520.52 L596.159 1533.06 Q596.159 1538.13 598.132 1540.64 Q600.105 1543.15 604.052 1543.15 L616.02 1543.15 L616.02 1520.52 L622.481 1520.52 L622.481 1568.04 L616.02 1568.04 Z" fill="#000000" fill-rule="nonzero" fill-opacity="1" /><path clip-path="url(#clip400)" d="M665.322 1532.4 L665.322 1568.04 L659.497 1568.04 L659.497 1539.43 L642.31 1568.04 L634.798 1568.04 L634.798 1532.4 L640.623 1532.4 L640.623 1560.95 L657.779 1532.4 L665.322 1532.4 Z" fill="#000000" fill-rule="nonzero" fill-opacity="1" /><path clip-path="url(#clip400)" d="M703.039 1533.76 L703.039 1539.24 Q700.556 1537.87 698.042 1537.2 Q695.559 1536.5 693.013 1536.5 Q687.315 1536.5 684.164 1540.13 Q681.013 1543.73 681.013 1550.25 Q681.013 1556.78 684.164 1560.4 Q687.315 1564 693.013 1564 Q695.559 1564 698.042 1563.33 Q700.556 1562.63 703.039 1561.26 L703.039 1566.68 Q700.588 1567.82 697.946 1568.39 Q695.336 1568.97 692.376 1568.97 Q684.324 1568.97 679.581 1563.91 Q674.839 1558.85 674.839 1550.25 Q674.839 1541.53 679.613 1536.53 Q684.419 1531.54 692.758 1531.54 Q695.464 1531.54 698.042 1532.11 Q700.62 1532.65 703.039 1533.76 Z" fill="#000000" fill-rule="nonzero" fill-opacity="1" /><path clip-path="url(#clip400)" d="M709.5 1568.04 L709.5 1563.17 Q715.293 1562.28 717.075 1558.27 Q719.239 1552.64 719.239 1538.22 L719.239 1532.4 L743.334 1532.4 L743.334 1568.04 L737.477 1568.04 L737.477 1537.07 L725.096 1537.07 L725.096 1540.61 Q725.096 1554.36 722.295 1560.53 Q719.303 1567.12 709.5 1568.04 Z" fill="#000000" fill-rule="nonzero" fill-opacity="1" /><path clip-path="url(#clip400)" d="M768.701 1536.5 Q763.99 1536.5 761.253 1540.19 Q758.516 1543.85 758.516 1550.25 Q758.516 1556.65 761.221 1560.34 Q763.959 1564 768.701 1564 Q773.38 1564 776.117 1560.31 Q778.854 1556.62 778.854 1550.25 Q778.854 1543.92 776.117 1540.23 Q773.38 1536.5 768.701 1536.5 M768.701 1531.54 Q776.34 1531.54 780.7 1536.5 Q785.061 1541.47 785.061 1550.25 Q785.061 1559 780.7 1564 Q776.34 1568.97 768.701 1568.97 Q761.03 1568.97 756.67 1564 Q752.341 1559 752.341 1550.25 Q752.341 1541.47 756.67 1536.5 Q761.03 1531.54 768.701 1531.54 Z" fill="#000000" fill-rule="nonzero" fill-opacity="1" /><path clip-path="url(#clip400)" d="M846.044 1532.4 L846.044 1568.04 L840.156 1568.04 L840.156 1537.07 L821.154 1537.07 L821.154 1568.04 L815.266 1568.04 L815.266 1532.4 L846.044 1532.4 Z" fill="#000000" fill-rule="nonzero" fill-opacity="1" /><path clip-path="url(#clip400)" d="M871.921 1536.5 Q867.21 1536.5 864.473 1540.19 Q861.736 1543.85 861.736 1550.25 Q861.736 1556.65 864.441 1560.34 Q867.178 1564 871.921 1564 Q876.6 1564 879.337 1560.31 Q882.074 1556.62 882.074 1550.25 Q882.074 1543.92 879.337 1540.23 Q876.6 1536.5 871.921 1536.5 M871.921 1531.54 Q879.56 1531.54 883.92 1536.5 Q888.281 1541.47 888.281 1550.25 Q888.281 1559 883.92 1564 Q879.56 1568.97 871.921 1568.97 Q864.25 1568.97 859.89 1564 Q855.561 1559 855.561 1550.25 Q855.561 1541.47 859.89 1536.5 Q864.25 1531.54 871.921 1531.54 Z" fill="#000000" fill-rule="nonzero" fill-opacity="1" /><path clip-path="url(#clip400)" d="M903.622 1551.62 L903.622 1563.37 L911.961 1563.37 Q915.972 1563.37 918.072 1561.87 Q920.173 1560.34 920.173 1557.48 Q920.173 1554.61 918.072 1553.12 Q915.972 1551.62 911.961 1551.62 L903.622 1551.62 M903.622 1537.07 L903.622 1546.94 L911.325 1546.94 Q914.635 1546.94 916.736 1545.64 Q918.836 1544.3 918.836 1541.94 Q918.836 1539.59 916.736 1538.35 Q914.635 1537.07 911.325 1537.07 L903.622 1537.07 M897.766 1532.4 L911.707 1532.4 Q917.977 1532.4 921.351 1534.69 Q924.724 1536.98 924.724 1541.21 Q924.724 1544.49 923.006 1546.43 Q921.287 1548.34 917.913 1548.82 Q921.955 1549.58 924.183 1552 Q926.411 1554.42 926.411 1558.05 Q926.411 1562.82 922.719 1565.43 Q919.059 1568.04 912.248 1568.04 L897.766 1568.04 L897.766 1532.4 Z" fill="#000000" fill-rule="nonzero" fill-opacity="1" /><path clip-path="url(#clip400)" d="M932.172 1532.4 L966.324 1532.4 L966.324 1537.07 L952.129 1537.07 L952.129 1568.04 L946.368 1568.04 L946.368 1537.07 L932.172 1537.07 L932.172 1532.4 Z" fill="#000000" fill-rule="nonzero" fill-opacity="1" /><path clip-path="url(#clip400)" d="M988.191 1536.5 Q983.48 1536.5 980.743 1540.19 Q978.005 1543.85 978.005 1550.25 Q978.005 1556.65 980.711 1560.34 Q983.448 1564 988.191 1564 Q992.869 1564 995.607 1560.31 Q998.344 1556.62 998.344 1550.25 Q998.344 1543.92 995.607 1540.23 Q992.869 1536.5 988.191 1536.5 M988.191 1531.54 Q995.829 1531.54 1000.19 1536.5 Q1004.55 1541.47 1004.55 1550.25 Q1004.55 1559 1000.19 1564 Q995.829 1568.97 988.191 1568.97 Q980.52 1568.97 976.159 1564 Q971.831 1559 971.831 1550.25 Q971.831 1541.47 976.159 1536.5 Q980.52 1531.54 988.191 1531.54 Z" fill="#000000" fill-rule="nonzero" fill-opacity="1" /><path clip-path="url(#clip400)" d="M1019.92 1562.7 L1019.92 1581.6 L1014.04 1581.6 L1014.04 1532.4 L1019.92 1532.4 L1019.92 1537.81 Q1021.77 1534.62 1024.57 1533.1 Q1027.4 1531.54 1031.32 1531.54 Q1037.81 1531.54 1041.85 1536.69 Q1045.93 1541.85 1045.93 1550.25 Q1045.93 1558.65 1041.85 1563.81 Q1037.81 1568.97 1031.32 1568.97 Q1027.4 1568.97 1024.57 1567.44 Q1021.77 1565.88 1019.92 1562.7 M1039.85 1550.25 Q1039.85 1543.79 1037.17 1540.13 Q1034.53 1536.44 1029.89 1536.44 Q1025.24 1536.44 1022.57 1540.13 Q1019.92 1543.79 1019.92 1550.25 Q1019.92 1556.71 1022.57 1560.4 Q1025.24 1564.07 1029.89 1564.07 Q1034.53 1564.07 1037.17 1560.4 Q1039.85 1556.71 1039.85 1550.25 Z" fill="#000000" fill-rule="nonzero" fill-opacity="1" /><path clip-path="url(#clip400)" d="M1086.13 1548.76 L1086.13 1551.62 L1059.2 1551.62 Q1059.58 1557.67 1062.83 1560.85 Q1066.11 1564 1071.93 1564 Q1075.31 1564 1078.46 1563.17 Q1081.64 1562.35 1084.76 1560.69 L1084.76 1566.23 Q1081.61 1567.57 1078.3 1568.27 Q1074.99 1568.97 1071.58 1568.97 Q1063.05 1568.97 1058.05 1564 Q1053.09 1559.04 1053.09 1550.57 Q1053.09 1541.82 1057.8 1536.69 Q1062.54 1531.54 1070.56 1531.54 Q1077.76 1531.54 1081.93 1536.18 Q1086.13 1540.8 1086.13 1548.76 M1080.27 1547.04 Q1080.21 1542.23 1077.57 1539.37 Q1074.96 1536.5 1070.63 1536.5 Q1065.72 1536.5 1062.76 1539.27 Q1059.84 1542.04 1059.39 1547.07 L1080.27 1547.04 Z" fill="#000000" fill-rule="nonzero" fill-opacity="1" /><path clip-path="url(#clip400)" d="M1095.52 1532.4 L1101.4 1532.4 L1101.4 1546.94 L1120.41 1546.94 L1120.41 1532.4 L1126.29 1532.4 L1126.29 1568.04 L1120.41 1568.04 L1120.41 1551.62 L1101.4 1551.62 L1101.4 1568.04 L1095.52 1568.04 L1095.52 1532.4 Z" fill="#000000" fill-rule="nonzero" fill-opacity="1" /><path clip-path="url(#clip400)" d="M1168.66 1532.4 L1168.66 1568.04 L1162.83 1568.04 L1162.83 1539.43 L1145.65 1568.04 L1138.13 1568.04 L1138.13 1532.4 L1143.96 1532.4 L1143.96 1560.95 L1161.11 1532.4 L1168.66 1532.4 Z" fill="#000000" fill-rule="nonzero" fill-opacity="1" /><path clip-path="url(#clip400)" d="M1211.02 1532.4 L1211.02 1568.04 L1205.2 1568.04 L1205.2 1539.43 L1188.01 1568.04 L1180.5 1568.04 L1180.5 1532.4 L1186.32 1532.4 L1186.32 1560.95 L1203.48 1532.4 L1211.02 1532.4 M1185.81 1518.52 L1189.57 1518.52 Q1189.92 1520.91 1191.45 1522.12 Q1193.01 1523.29 1195.78 1523.29 Q1198.51 1523.29 1200.04 1522.12 Q1201.57 1520.94 1201.98 1518.52 L1205.74 1518.52 Q1205.42 1523.07 1202.91 1525.36 Q1200.39 1527.65 1195.78 1527.65 Q1191.16 1527.65 1188.65 1525.36 Q1186.13 1523.07 1185.81 1518.52 Z" fill="#000000" fill-rule="nonzero" fill-opacity="1" /><path clip-path="url(#clip400)" d="M1224.58 1559.96 L1231.3 1559.96 L1231.3 1565.43 L1226.08 1575.62 L1221.97 1575.62 L1224.58 1565.43 L1224.58 1559.96 Z" fill="#000000" fill-rule="nonzero" fill-opacity="1" /><path clip-path="url(#clip400)" d="M1295.08 1532.4 L1295.08 1568.04 L1289.19 1568.04 L1289.19 1537.07 L1270.19 1537.07 L1270.19 1568.04 L1264.3 1568.04 L1264.3 1532.4 L1295.08 1532.4 Z" fill="#000000" fill-rule="nonzero" fill-opacity="1" /><path clip-path="url(#clip400)" d="M1320.96 1536.5 Q1316.25 1536.5 1313.51 1540.19 Q1310.77 1543.85 1310.77 1550.25 Q1310.77 1556.65 1313.48 1560.34 Q1316.22 1564 1320.96 1564 Q1325.64 1564 1328.37 1560.31 Q1331.11 1556.62 1331.11 1550.25 Q1331.11 1543.92 1328.37 1540.23 Q1325.64 1536.5 1320.96 1536.5 M1320.96 1531.54 Q1328.6 1531.54 1332.96 1536.5 Q1337.32 1541.47 1337.32 1550.25 Q1337.32 1559 1332.96 1564 Q1328.6 1568.97 1320.96 1568.97 Q1313.29 1568.97 1308.93 1564 Q1304.6 1559 1304.6 1550.25 Q1304.6 1541.47 1308.93 1536.5 Q1313.29 1531.54 1320.96 1531.54 Z" fill="#000000" fill-rule="nonzero" fill-opacity="1" /><path clip-path="url(#clip400)" d="M1367.52 1532.4 L1373.35 1532.4 L1373.35 1549.14 L1389.87 1532.4 L1397.06 1532.4 L1383.44 1546.18 L1398.81 1568.04 L1392.25 1568.04 L1379.62 1550.06 L1373.35 1556.43 L1373.35 1568.04 L1367.52 1568.04 L1367.52 1532.4 Z" fill="#000000" fill-rule="nonzero" fill-opacity="1" /><path clip-path="url(#clip400)" d="M1420.93 1536.5 Q1416.22 1536.5 1413.48 1540.19 Q1410.75 1543.85 1410.75 1550.25 Q1410.75 1556.65 1413.45 1560.34 Q1416.19 1564 1420.93 1564 Q1425.61 1564 1428.35 1560.31 Q1431.08 1556.62 1431.08 1550.25 Q1431.08 1543.92 1428.35 1540.23 Q1425.61 1536.5 1420.93 1536.5 M1420.93 1531.54 Q1428.57 1531.54 1432.93 1536.5 Q1437.29 1541.47 1437.29 1550.25 Q1437.29 1559 1432.93 1564 Q1428.57 1568.97 1420.93 1568.97 Q1413.26 1568.97 1408.9 1564 Q1404.57 1559 1404.57 1550.25 Q1404.57 1541.47 1408.9 1536.5 Q1413.26 1531.54 1420.93 1531.54 Z" fill="#000000" fill-rule="nonzero" fill-opacity="1" /><path clip-path="url(#clip400)" d="M1442.77 1532.4 L1476.92 1532.4 L1476.92 1537.07 L1462.72 1537.07 L1462.72 1568.04 L1456.96 1568.04 L1456.96 1537.07 L1442.77 1537.07 L1442.77 1532.4 Z" fill="#000000" fill-rule="nonzero" fill-opacity="1" /><path clip-path="url(#clip400)" d="M1498.78 1536.5 Q1494.07 1536.5 1491.34 1540.19 Q1488.6 1543.85 1488.6 1550.25 Q1488.6 1556.65 1491.3 1560.34 Q1494.04 1564 1498.78 1564 Q1503.46 1564 1506.2 1560.31 Q1508.94 1556.62 1508.94 1550.25 Q1508.94 1543.92 1506.2 1540.23 Q1503.46 1536.5 1498.78 1536.5 M1498.78 1531.54 Q1506.42 1531.54 1510.78 1536.5 Q1515.14 1541.47 1515.14 1550.25 Q1515.14 1559 1510.78 1564 Q1506.42 1568.97 1498.78 1568.97 Q1491.11 1568.97 1486.75 1564 Q1482.42 1559 1482.42 1550.25 Q1482.42 1541.47 1486.75 1536.5 Q1491.11 1531.54 1498.78 1531.54 Z" fill="#000000" fill-rule="nonzero" fill-opacity="1" /><path clip-path="url(#clip400)" d="M1530.52 1562.7 L1530.52 1581.6 L1524.63 1581.6 L1524.63 1532.4 L1530.52 1532.4 L1530.52 1537.81 Q1532.36 1534.62 1535.16 1533.1 Q1538 1531.54 1541.91 1531.54 Q1548.4 1531.54 1552.45 1536.69 Q1556.52 1541.85 1556.52 1550.25 Q1556.52 1558.65 1552.45 1563.81 Q1548.4 1568.97 1541.91 1568.97 Q1538 1568.97 1535.16 1567.44 Q1532.36 1565.88 1530.52 1562.7 M1550.44 1550.25 Q1550.44 1543.79 1547.77 1540.13 Q1545.13 1536.44 1540.48 1536.44 Q1535.83 1536.44 1533.16 1540.13 Q1530.52 1543.79 1530.52 1550.25 Q1530.52 1556.71 1533.16 1560.4 Q1535.83 1564.07 1540.48 1564.07 Q1545.13 1564.07 1547.77 1560.4 Q1550.44 1556.71 1550.44 1550.25 Z" fill="#000000" fill-rule="nonzero" fill-opacity="1" /><path clip-path="url(#clip400)" d="M1599.9 1532.4 L1605.76 1532.4 L1605.76 1568.04 L1599.9 1568.04 L1599.9 1532.4 M1602.83 1531.54 L1602.83 1531.54 M1588.41 1557.48 Q1588.41 1554.61 1586.31 1553.12 Q1584.24 1551.62 1580.23 1551.62 L1571.89 1551.62 L1571.89 1563.37 L1580.23 1563.37 Q1584.24 1563.37 1586.31 1561.87 Q1588.41 1560.34 1588.41 1557.48 M1566.01 1532.4 L1571.89 1532.4 L1571.89 1546.94 L1580.49 1546.94 Q1587.3 1546.94 1590.96 1549.55 Q1594.65 1552.13 1594.65 1557.48 Q1594.65 1562.82 1590.96 1565.43 Q1587.3 1568.04 1580.49 1568.04 L1566.01 1568.04 L1566.01 1532.4 Z" fill="#000000" fill-rule="nonzero" fill-opacity="1" /><path clip-path="url(#clip400)" d="M1617.47 1532.4 L1626.03 1532.4 L1636.16 1556.27 L1646.31 1532.4 L1654.81 1532.4 L1654.81 1568.04 L1648.92 1568.04 L1648.92 1538 L1639.08 1561.2 L1633.23 1561.2 L1623.36 1538 L1623.36 1568.04 L1617.47 1568.04 L1617.47 1532.4 Z" fill="#000000" fill-rule="nonzero" fill-opacity="1" /><path clip-path="url(#clip400)" d="M1702.42 1571.35 Q1699.94 1577.72 1697.58 1579.66 Q1695.23 1581.6 1691.28 1581.6 L1686.6 1581.6 L1686.6 1576.7 L1690.04 1576.7 Q1692.46 1576.7 1693.8 1575.56 Q1695.13 1574.41 1696.76 1570.14 L1697.81 1567.47 L1683.39 1532.4 L1689.6 1532.4 L1700.74 1560.28 L1711.88 1532.4 L1718.08 1532.4 L1702.42 1571.35 Z" fill="#000000" fill-rule="nonzero" fill-opacity="1" /><path clip-path="url(#clip400)" d="M1751.82 1533.76 L1751.82 1539.24 Q1749.34 1537.87 1746.82 1537.2 Q1744.34 1536.5 1741.79 1536.5 Q1736.1 1536.5 1732.95 1540.13 Q1729.8 1543.73 1729.8 1550.25 Q1729.8 1556.78 1732.95 1560.4 Q1736.1 1564 1741.79 1564 Q1744.34 1564 1746.82 1563.33 Q1749.34 1562.63 1751.82 1561.26 L1751.82 1566.68 Q1749.37 1567.82 1746.73 1568.39 Q1744.12 1568.97 1741.16 1568.97 Q1733.11 1568.97 1728.36 1563.91 Q1723.62 1558.85 1723.62 1550.25 Q1723.62 1541.53 1728.39 1536.53 Q1733.2 1531.54 1741.54 1531.54 Q1744.25 1531.54 1746.82 1532.11 Q1749.4 1532.65 1751.82 1533.76 Z" fill="#000000" fill-rule="nonzero" fill-opacity="1" /><path clip-path="url(#clip400)" d="M1767.67 1562.7 L1767.67 1581.6 L1761.78 1581.6 L1761.78 1532.4 L1767.67 1532.4 L1767.67 1537.81 Q1769.52 1534.62 1772.32 1533.1 Q1775.15 1531.54 1779.07 1531.54 Q1785.56 1531.54 1789.6 1536.69 Q1793.68 1541.85 1793.68 1550.25 Q1793.68 1558.65 1789.6 1563.81 Q1785.56 1568.97 1779.07 1568.97 Q1775.15 1568.97 1772.32 1567.44 Q1769.52 1565.88 1767.67 1562.7 M1787.6 1550.25 Q1787.6 1543.79 1784.92 1540.13 Q1782.28 1536.44 1777.63 1536.44 Q1772.99 1536.44 1770.31 1540.13 Q1767.67 1543.79 1767.67 1550.25 Q1767.67 1556.71 1770.31 1560.4 Q1772.99 1564.07 1777.63 1564.07 Q1782.28 1564.07 1784.92 1560.4 Q1787.6 1556.71 1787.6 1550.25 Z" fill="#000000" fill-rule="nonzero" fill-opacity="1" /><path clip-path="url(#clip400)" d="M1833.87 1548.76 L1833.87 1551.62 L1806.95 1551.62 Q1807.33 1557.67 1810.58 1560.85 Q1813.85 1564 1819.68 1564 Q1823.05 1564 1826.2 1563.17 Q1829.39 1562.35 1832.51 1560.69 L1832.51 1566.23 Q1829.36 1567.57 1826.04 1568.27 Q1822.73 1568.97 1819.33 1568.97 Q1810.8 1568.97 1805.8 1564 Q1800.84 1559.04 1800.84 1550.57 Q1800.84 1541.82 1805.55 1536.69 Q1810.29 1531.54 1818.31 1531.54 Q1825.5 1531.54 1829.67 1536.18 Q1833.87 1540.8 1833.87 1548.76 M1828.02 1547.04 Q1827.95 1542.23 1825.31 1539.37 Q1822.7 1536.5 1818.37 1536.5 Q1813.47 1536.5 1810.51 1539.27 Q1807.58 1542.04 1807.14 1547.07 L1828.02 1547.04 Z" fill="#000000" fill-rule="nonzero" fill-opacity="1" /><path clip-path="url(#clip400)" d="M1851.44 1563.37 L1868.44 1563.37 L1868.44 1537.07 L1856.12 1537.07 L1856.12 1541.53 Q1856.12 1554.64 1852.37 1561.65 L1851.44 1563.37 M1842.95 1563.37 Q1845.84 1562.09 1847.12 1559.39 Q1850.23 1552.67 1850.23 1539.14 L1850.23 1532.4 L1874.33 1532.4 L1874.33 1563.37 L1879.01 1563.37 L1879.01 1577.05 L1874.33 1577.05 L1874.33 1568.04 L1845.43 1568.04 L1845.43 1577.05 L1840.75 1577.05 L1840.75 1563.37 L1842.95 1563.37 Z" fill="#000000" fill-rule="nonzero" fill-opacity="1" /><path clip-path="url(#clip400)" d="M1888.33 1532.4 L1894.22 1532.4 L1894.22 1546.94 L1913.22 1546.94 L1913.22 1532.4 L1919.11 1532.4 L1919.11 1568.04 L1913.22 1568.04 L1913.22 1551.62 L1894.22 1551.62 L1894.22 1568.04 L1888.33 1568.04 L1888.33 1532.4 Z" fill="#000000" fill-rule="nonzero" fill-opacity="1" /><path clip-path="url(#clip400)" d="M1937.06 1542.68 Q1937.06 1545.32 1939.1 1546.81 Q1941.14 1548.31 1944.92 1548.31 L1952.82 1548.31 L1952.82 1537.07 L1944.92 1537.07 Q1941.14 1537.07 1939.1 1538.54 Q1937.06 1540 1937.06 1542.68 M1928.72 1568.04 L1939.61 1552.42 Q1935.92 1551.59 1933.47 1549.42 Q1931.02 1547.23 1931.02 1542.68 Q1931.02 1537.52 1934.42 1534.97 Q1937.86 1532.4 1944.77 1532.4 L1958.71 1532.4 L1958.71 1568.04 L1952.82 1568.04 L1952.82 1552.99 L1945.53 1552.99 L1935.03 1568.04 L1928.72 1568.04 Z" fill="#000000" fill-rule="nonzero" fill-opacity="1" /><path clip-path="url(#clip400)" d="M1966.66 1568.04 L1966.66 1563.17 Q1972.46 1562.28 1974.24 1558.27 Q1976.4 1552.64 1976.4 1538.22 L1976.4 1532.4 L2000.5 1532.4 L2000.5 1568.04 L1994.64 1568.04 L1994.64 1537.07 L1982.26 1537.07 L1982.26 1540.61 Q1982.26 1554.36 1979.46 1560.53 Q1976.47 1567.12 1966.66 1568.04 Z" fill="#000000" fill-rule="nonzero" fill-opacity="1" /><path clip-path="url(#clip400)" d="M2042.35 1532.4 L2042.35 1568.04 L2036.53 1568.04 L2036.53 1539.43 L2019.34 1568.04 L2011.83 1568.04 L2011.83 1532.4 L2017.65 1532.4 L2017.65 1560.95 L2034.81 1532.4 L2042.35 1532.4 Z" fill="#000000" fill-rule="nonzero" fill-opacity="1" /><polyline clip-path="url(#clip402)" style="stroke:#000000; stroke-linecap:round; stroke-linejoin:round; stroke-width:2; stroke-opacity:0.1; fill:none" points="279.357,1225.34 2352.76,1225.34 "/>
<polyline clip-path="url(#clip402)" style="stroke:#000000; stroke-linecap:round; stroke-linejoin:round; stroke-width:2; stroke-opacity:0.1; fill:none" points="279.357,967.43 2352.76,967.43 "/>
<polyline clip-path="url(#clip402)" style="stroke:#000000; stroke-linecap:round; stroke-linejoin:round; stroke-width:2; stroke-opacity:0.1; fill:none" points="279.357,709.52 2352.76,709.52 "/>
<polyline clip-path="url(#clip402)" style="stroke:#000000; stroke-linecap:round; stroke-linejoin:round; stroke-width:2; stroke-opacity:0.1; fill:none" points="279.357,451.61 2352.76,451.61 "/>
<polyline clip-path="url(#clip402)" style="stroke:#000000; stroke-linecap:round; stroke-linejoin:round; stroke-width:2; stroke-opacity:0.1; fill:none" points="279.357,193.7 2352.76,193.7 "/>
<polyline clip-path="url(#clip400)" style="stroke:#000000; stroke-linecap:round; stroke-linejoin:round; stroke-width:4; stroke-opacity:1; fill:none" points="279.357,1423.18 279.357,97.5521 "/>
<polyline clip-path="url(#clip400)" style="stroke:#000000; stroke-linecap:round; stroke-linejoin:round; stroke-width:4; stroke-opacity:1; fill:none" points="279.357,1225.34 298.254,1225.34 "/>
<polyline clip-path="url(#clip400)" style="stroke:#000000; stroke-linecap:round; stroke-linejoin:round; stroke-width:4; stroke-opacity:1; fill:none" points="279.357,967.43 298.254,967.43 "/>
<polyline clip-path="url(#clip400)" style="stroke:#000000; stroke-linecap:round; stroke-linejoin:round; stroke-width:4; stroke-opacity:1; fill:none" points="279.357,709.52 298.254,709.52 "/>
<polyline clip-path="url(#clip400)" style="stroke:#000000; stroke-linecap:round; stroke-linejoin:round; stroke-width:4; stroke-opacity:1; fill:none" points="279.357,451.61 298.254,451.61 "/>
<polyline clip-path="url(#clip400)" style="stroke:#000000; stroke-linecap:round; stroke-linejoin:round; stroke-width:4; stroke-opacity:1; fill:none" points="279.357,193.7 298.254,193.7 "/>
<path clip-path="url(#clip400)" d="M120.88 1238.68 L137.2 1238.68 L137.2 1242.62 L115.256 1242.62 L115.256 1238.68 Q117.918 1235.93 122.501 1231.3 Q127.107 1226.65 128.288 1225.3 Q130.533 1222.78 131.413 1221.05 Q132.316 1219.29 132.316 1217.6 Q132.316 1214.84 130.371 1213.11 Q128.45 1211.37 125.348 1211.37 Q123.149 1211.37 120.695 1212.13 Q118.265 1212.9 115.487 1214.45 L115.487 1209.73 Q118.311 1208.59 120.765 1208.01 Q123.218 1207.43 125.255 1207.43 Q130.626 1207.43 133.82 1210.12 Q137.015 1212.8 137.015 1217.3 Q137.015 1219.43 136.204 1221.35 Q135.417 1223.24 133.311 1225.84 Q132.732 1226.51 129.63 1229.73 Q126.529 1232.92 120.88 1238.68 Z" fill="#000000" fill-rule="nonzero" fill-opacity="1" /><path clip-path="url(#clip400)" d="M147.015 1236.74 L151.899 1236.74 L151.899 1242.62 L147.015 1242.62 L147.015 1236.74 Z" fill="#000000" fill-rule="nonzero" fill-opacity="1" /><path clip-path="url(#clip400)" d="M174.931 1212.13 L163.126 1230.58 L174.931 1230.58 L174.931 1212.13 M173.704 1208.06 L179.584 1208.06 L179.584 1230.58 L184.514 1230.58 L184.514 1234.47 L179.584 1234.47 L179.584 1242.62 L174.931 1242.62 L174.931 1234.47 L159.329 1234.47 L159.329 1229.96 L173.704 1208.06 Z" fill="#000000" fill-rule="nonzero" fill-opacity="1" /><path clip-path="url(#clip400)" d="M191.065 1208.06 L213.287 1208.06 L213.287 1210.05 L200.741 1242.62 L195.857 1242.62 L207.662 1211.99 L191.065 1211.99 L191.065 1208.06 Z" fill="#000000" fill-rule="nonzero" fill-opacity="1" /><path clip-path="url(#clip400)" d="M222.454 1208.06 L240.81 1208.06 L240.81 1211.99 L226.736 1211.99 L226.736 1220.47 Q227.755 1220.12 228.773 1219.96 Q229.792 1219.77 230.81 1219.77 Q236.597 1219.77 239.977 1222.94 Q243.357 1226.12 243.357 1231.53 Q243.357 1237.11 239.884 1240.21 Q236.412 1243.29 230.093 1243.29 Q227.917 1243.29 225.648 1242.92 Q223.403 1242.55 220.996 1241.81 L220.996 1237.11 Q223.079 1238.24 225.301 1238.8 Q227.523 1239.36 230 1239.36 Q234.005 1239.36 236.343 1237.25 Q238.681 1235.14 238.681 1231.53 Q238.681 1227.92 236.343 1225.81 Q234.005 1223.71 230 1223.71 Q228.125 1223.71 226.25 1224.12 Q224.398 1224.54 222.454 1225.42 L222.454 1208.06 Z" fill="#000000" fill-rule="nonzero" fill-opacity="1" /><path clip-path="url(#clip400)" d="M119.885 980.774 L136.204 980.774 L136.204 984.71 L114.26 984.71 L114.26 980.774 Q116.922 978.02 121.505 973.39 Q126.112 968.737 127.292 967.395 Q129.538 964.872 130.417 963.136 Q131.32 961.376 131.32 959.687 Q131.32 956.932 129.376 955.196 Q127.455 953.46 124.353 953.46 Q122.154 953.46 119.7 954.224 Q117.269 954.988 114.492 956.538 L114.492 951.816 Q117.316 950.682 119.769 950.103 Q122.223 949.525 124.26 949.525 Q129.63 949.525 132.825 952.21 Q136.019 954.895 136.019 959.386 Q136.019 961.515 135.209 963.437 Q134.422 965.335 132.316 967.927 Q131.737 968.599 128.635 971.816 Q125.533 975.011 119.885 980.774 Z" fill="#000000" fill-rule="nonzero" fill-opacity="1" /><path clip-path="url(#clip400)" d="M146.019 978.83 L150.903 978.83 L150.903 984.71 L146.019 984.71 L146.019 978.83 Z" fill="#000000" fill-rule="nonzero" fill-opacity="1" /><path clip-path="url(#clip400)" d="M161.135 950.15 L179.491 950.15 L179.491 954.085 L165.417 954.085 L165.417 962.557 Q166.436 962.21 167.454 962.048 Q168.473 961.863 169.491 961.863 Q175.278 961.863 178.658 965.034 Q182.038 968.205 182.038 973.622 Q182.038 979.2 178.565 982.302 Q175.093 985.381 168.774 985.381 Q166.598 985.381 164.329 985.011 Q162.084 984.64 159.677 983.899 L159.677 979.2 Q161.76 980.335 163.982 980.89 Q166.204 981.446 168.681 981.446 Q172.686 981.446 175.024 979.339 Q177.362 977.233 177.362 973.622 Q177.362 970.011 175.024 967.904 Q172.686 965.798 168.681 965.798 Q166.806 965.798 164.931 966.214 Q163.079 966.631 161.135 967.511 L161.135 950.15 Z" fill="#000000" fill-rule="nonzero" fill-opacity="1" /><path clip-path="url(#clip400)" d="M201.25 953.228 Q197.639 953.228 195.811 956.793 Q194.005 960.335 194.005 967.464 Q194.005 974.571 195.811 978.136 Q197.639 981.677 201.25 981.677 Q204.885 981.677 206.69 978.136 Q208.519 974.571 208.519 967.464 Q208.519 960.335 206.69 956.793 Q204.885 953.228 201.25 953.228 M201.25 949.525 Q207.061 949.525 210.116 954.131 Q213.195 958.714 213.195 967.464 Q213.195 976.191 210.116 980.798 Q207.061 985.381 201.25 985.381 Q195.44 985.381 192.362 980.798 Q189.306 976.191 189.306 967.464 Q189.306 958.714 192.362 954.131 Q195.44 949.525 201.25 949.525 Z" fill="#000000" fill-rule="nonzero" fill-opacity="1" /><path clip-path="url(#clip400)" d="M231.412 953.228 Q227.801 953.228 225.973 956.793 Q224.167 960.335 224.167 967.464 Q224.167 974.571 225.973 978.136 Q227.801 981.677 231.412 981.677 Q235.047 981.677 236.852 978.136 Q238.681 974.571 238.681 967.464 Q238.681 960.335 236.852 956.793 Q235.047 953.228 231.412 953.228 M231.412 949.525 Q237.222 949.525 240.278 954.131 Q243.357 958.714 243.357 967.464 Q243.357 976.191 240.278 980.798 Q237.222 985.381 231.412 985.381 Q225.602 985.381 222.523 980.798 Q219.468 976.191 219.468 967.464 Q219.468 958.714 222.523 954.131 Q225.602 949.525 231.412 949.525 Z" fill="#000000" fill-rule="nonzero" fill-opacity="1" /><path clip-path="url(#clip400)" d="M120.88 722.864 L137.2 722.864 L137.2 726.8 L115.256 726.8 L115.256 722.864 Q117.918 720.11 122.501 715.48 Q127.107 710.827 128.288 709.485 Q130.533 706.962 131.413 705.226 Q132.316 703.466 132.316 701.777 Q132.316 699.022 130.371 697.286 Q128.45 695.55 125.348 695.55 Q123.149 695.55 120.695 696.314 Q118.265 697.078 115.487 698.628 L115.487 693.906 Q118.311 692.772 120.765 692.193 Q123.218 691.615 125.255 691.615 Q130.626 691.615 133.82 694.3 Q137.015 696.985 137.015 701.476 Q137.015 703.605 136.204 705.527 Q135.417 707.425 133.311 710.017 Q132.732 710.689 129.63 713.906 Q126.529 717.101 120.88 722.864 Z" fill="#000000" fill-rule="nonzero" fill-opacity="1" /><path clip-path="url(#clip400)" d="M147.015 720.92 L151.899 720.92 L151.899 726.8 L147.015 726.8 L147.015 720.92 Z" fill="#000000" fill-rule="nonzero" fill-opacity="1" /><path clip-path="url(#clip400)" d="M162.13 692.24 L180.487 692.24 L180.487 696.175 L166.413 696.175 L166.413 704.647 Q167.431 704.3 168.45 704.138 Q169.468 703.953 170.487 703.953 Q176.274 703.953 179.653 707.124 Q183.033 710.295 183.033 715.712 Q183.033 721.29 179.561 724.392 Q176.089 727.471 169.769 727.471 Q167.593 727.471 165.325 727.101 Q163.079 726.73 160.672 725.989 L160.672 721.29 Q162.755 722.425 164.977 722.98 Q167.2 723.536 169.677 723.536 Q173.681 723.536 176.019 721.429 Q178.357 719.323 178.357 715.712 Q178.357 712.101 176.019 709.994 Q173.681 707.888 169.677 707.888 Q167.802 707.888 165.927 708.304 Q164.075 708.721 162.13 709.601 L162.13 692.24 Z" fill="#000000" fill-rule="nonzero" fill-opacity="1" /><path clip-path="url(#clip400)" d="M196.274 722.864 L212.593 722.864 L212.593 726.8 L190.649 726.8 L190.649 722.864 Q193.311 720.11 197.894 715.48 Q202.5 710.827 203.681 709.485 Q205.926 706.962 206.806 705.226 Q207.709 703.466 207.709 701.777 Q207.709 699.022 205.764 697.286 Q203.843 695.55 200.741 695.55 Q198.542 695.55 196.088 696.314 Q193.658 697.078 190.88 698.628 L190.88 693.906 Q193.704 692.772 196.158 692.193 Q198.612 691.615 200.649 691.615 Q206.019 691.615 209.213 694.3 Q212.408 696.985 212.408 701.476 Q212.408 703.605 211.598 705.527 Q210.811 707.425 208.704 710.017 Q208.125 710.689 205.024 713.906 Q201.922 717.101 196.274 722.864 Z" fill="#000000" fill-rule="nonzero" fill-opacity="1" /><path clip-path="url(#clip400)" d="M222.454 692.24 L240.81 692.24 L240.81 696.175 L226.736 696.175 L226.736 704.647 Q227.755 704.3 228.773 704.138 Q229.792 703.953 230.81 703.953 Q236.597 703.953 239.977 707.124 Q243.357 710.295 243.357 715.712 Q243.357 721.29 239.884 724.392 Q236.412 727.471 230.093 727.471 Q227.917 727.471 225.648 727.101 Q223.403 726.73 220.996 725.989 L220.996 721.29 Q223.079 722.425 225.301 722.98 Q227.523 723.536 230 723.536 Q234.005 723.536 236.343 721.429 Q238.681 719.323 238.681 715.712 Q238.681 712.101 236.343 709.994 Q234.005 707.888 230 707.888 Q228.125 707.888 226.25 708.304 Q224.398 708.721 222.454 709.601 L222.454 692.24 Z" fill="#000000" fill-rule="nonzero" fill-opacity="1" /><path clip-path="url(#clip400)" d="M119.885 464.954 L136.204 464.954 L136.204 468.89 L114.26 468.89 L114.26 464.954 Q116.922 462.2 121.505 457.57 Q126.112 452.917 127.292 451.575 Q129.538 449.052 130.417 447.316 Q131.32 445.556 131.32 443.867 Q131.32 441.112 129.376 439.376 Q127.455 437.64 124.353 437.64 Q122.154 437.64 119.7 438.404 Q117.269 439.168 114.492 440.718 L114.492 435.996 Q117.316 434.862 119.769 434.283 Q122.223 433.705 124.26 433.705 Q129.63 433.705 132.825 436.39 Q136.019 439.075 136.019 443.566 Q136.019 445.695 135.209 447.617 Q134.422 449.515 132.316 452.107 Q131.737 452.779 128.635 455.996 Q125.533 459.191 119.885 464.954 Z" fill="#000000" fill-rule="nonzero" fill-opacity="1" /><path clip-path="url(#clip400)" d="M146.019 463.01 L150.903 463.01 L150.903 468.89 L146.019 468.89 L146.019 463.01 Z" fill="#000000" fill-rule="nonzero" fill-opacity="1" /><path clip-path="url(#clip400)" d="M161.135 434.33 L179.491 434.33 L179.491 438.265 L165.417 438.265 L165.417 446.737 Q166.436 446.39 167.454 446.228 Q168.473 446.043 169.491 446.043 Q175.278 446.043 178.658 449.214 Q182.038 452.385 182.038 457.802 Q182.038 463.38 178.565 466.482 Q175.093 469.561 168.774 469.561 Q166.598 469.561 164.329 469.191 Q162.084 468.82 159.677 468.079 L159.677 463.38 Q161.76 464.515 163.982 465.07 Q166.204 465.626 168.681 465.626 Q172.686 465.626 175.024 463.519 Q177.362 461.413 177.362 457.802 Q177.362 454.191 175.024 452.084 Q172.686 449.978 168.681 449.978 Q166.806 449.978 164.931 450.394 Q163.079 450.811 161.135 451.691 L161.135 434.33 Z" fill="#000000" fill-rule="nonzero" fill-opacity="1" /><path clip-path="url(#clip400)" d="M191.297 434.33 L209.653 434.33 L209.653 438.265 L195.579 438.265 L195.579 446.737 Q196.598 446.39 197.616 446.228 Q198.635 446.043 199.653 446.043 Q205.44 446.043 208.82 449.214 Q212.199 452.385 212.199 457.802 Q212.199 463.38 208.727 466.482 Q205.255 469.561 198.936 469.561 Q196.76 469.561 194.491 469.191 Q192.246 468.82 189.838 468.079 L189.838 463.38 Q191.922 464.515 194.144 465.07 Q196.366 465.626 198.843 465.626 Q202.848 465.626 205.186 463.519 Q207.524 461.413 207.524 457.802 Q207.524 454.191 205.186 452.084 Q202.848 449.978 198.843 449.978 Q196.968 449.978 195.093 450.394 Q193.241 450.811 191.297 451.691 L191.297 434.33 Z" fill="#000000" fill-rule="nonzero" fill-opacity="1" /><path clip-path="url(#clip400)" d="M231.412 437.408 Q227.801 437.408 225.973 440.973 Q224.167 444.515 224.167 451.644 Q224.167 458.751 225.973 462.316 Q227.801 465.857 231.412 465.857 Q235.047 465.857 236.852 462.316 Q238.681 458.751 238.681 451.644 Q238.681 444.515 236.852 440.973 Q235.047 437.408 231.412 437.408 M231.412 433.705 Q237.222 433.705 240.278 438.311 Q243.357 442.894 243.357 451.644 Q243.357 460.371 240.278 464.978 Q237.222 469.561 231.412 469.561 Q225.602 469.561 222.523 464.978 Q219.468 460.371 219.468 451.644 Q219.468 442.894 222.523 438.311 Q225.602 433.705 231.412 433.705 Z" fill="#000000" fill-rule="nonzero" fill-opacity="1" /><path clip-path="url(#clip400)" d="M120.88 207.044 L137.2 207.044 L137.2 210.98 L115.256 210.98 L115.256 207.044 Q117.918 204.29 122.501 199.66 Q127.107 195.007 128.288 193.665 Q130.533 191.142 131.413 189.406 Q132.316 187.646 132.316 185.957 Q132.316 183.202 130.371 181.466 Q128.45 179.73 125.348 179.73 Q123.149 179.73 120.695 180.494 Q118.265 181.258 115.487 182.808 L115.487 178.086 Q118.311 176.952 120.765 176.373 Q123.218 175.795 125.255 175.795 Q130.626 175.795 133.82 178.48 Q137.015 181.165 137.015 185.656 Q137.015 187.785 136.204 189.707 Q135.417 191.605 133.311 194.197 Q132.732 194.869 129.63 198.086 Q126.529 201.281 120.88 207.044 Z" fill="#000000" fill-rule="nonzero" fill-opacity="1" /><path clip-path="url(#clip400)" d="M147.015 205.1 L151.899 205.1 L151.899 210.98 L147.015 210.98 L147.015 205.1 Z" fill="#000000" fill-rule="nonzero" fill-opacity="1" /><path clip-path="url(#clip400)" d="M162.13 176.42 L180.487 176.42 L180.487 180.355 L166.413 180.355 L166.413 188.827 Q167.431 188.48 168.45 188.318 Q169.468 188.133 170.487 188.133 Q176.274 188.133 179.653 191.304 Q183.033 194.475 183.033 199.892 Q183.033 205.47 179.561 208.572 Q176.089 211.651 169.769 211.651 Q167.593 211.651 165.325 211.281 Q163.079 210.91 160.672 210.169 L160.672 205.47 Q162.755 206.605 164.977 207.16 Q167.2 207.716 169.677 207.716 Q173.681 207.716 176.019 205.609 Q178.357 203.503 178.357 199.892 Q178.357 196.281 176.019 194.174 Q173.681 192.068 169.677 192.068 Q167.802 192.068 165.927 192.484 Q164.075 192.901 162.13 193.781 L162.13 176.42 Z" fill="#000000" fill-rule="nonzero" fill-opacity="1" /><path clip-path="url(#clip400)" d="M191.065 176.42 L213.287 176.42 L213.287 178.41 L200.741 210.98 L195.857 210.98 L207.662 180.355 L191.065 180.355 L191.065 176.42 Z" fill="#000000" fill-rule="nonzero" fill-opacity="1" /><path clip-path="url(#clip400)" d="M222.454 176.42 L240.81 176.42 L240.81 180.355 L226.736 180.355 L226.736 188.827 Q227.755 188.48 228.773 188.318 Q229.792 188.133 230.81 188.133 Q236.597 188.133 239.977 191.304 Q243.357 194.475 243.357 199.892 Q243.357 205.47 239.884 208.572 Q236.412 211.651 230.093 211.651 Q227.917 211.651 225.648 211.281 Q223.403 210.91 220.996 210.169 L220.996 205.47 Q223.079 206.605 225.301 207.16 Q227.523 207.716 230 207.716 Q234.005 207.716 236.343 205.609 Q238.681 203.503 238.681 199.892 Q238.681 196.281 236.343 194.174 Q234.005 192.068 230 192.068 Q228.125 192.068 226.25 192.484 Q224.398 192.901 222.454 193.781 L222.454 176.42 Z" fill="#000000" fill-rule="nonzero" fill-opacity="1" /><path clip-path="url(#clip400)" d="M33.7671 840.24 L14.479 840.24 L14.479 834.383 L64.0042 834.383 L64.0042 840.24 L58.657 840.24 Q61.8398 842.086 63.3994 844.918 Q64.9272 847.719 64.9272 851.666 Q64.9272 858.127 59.771 862.201 Q54.6147 866.244 46.212 866.244 Q37.8093 866.244 32.6531 862.201 Q27.4968 858.127 27.4968 851.666 Q27.4968 847.719 29.0564 844.918 Q30.5842 842.086 33.7671 840.24 M46.212 860.196 Q52.6732 860.196 56.3653 857.554 Q60.0256 854.881 60.0256 850.234 Q60.0256 845.587 56.3653 842.913 Q52.6732 840.24 46.212 840.24 Q39.7508 840.24 36.0905 842.913 Q32.3984 845.587 32.3984 850.234 Q32.3984 854.881 36.0905 857.554 Q39.7508 860.196 46.212 860.196 Z" fill="#000000" fill-rule="nonzero" fill-opacity="1" /><path clip-path="url(#clip400)" d="M14.479 804.273 L19.3487 804.273 L19.3487 809.875 Q19.3487 813.026 20.6219 814.268 Q21.895 815.477 25.2052 815.477 L28.3562 815.477 L28.3562 805.833 L32.9077 805.833 L32.9077 815.477 L64.0042 815.477 L64.0042 821.365 L32.9077 821.365 L32.9077 826.967 L28.3562 826.967 L28.3562 821.365 L25.8736 821.365 Q19.9216 821.365 17.2162 818.596 Q14.479 815.827 14.479 809.812 L14.479 804.273 Z" fill="#000000" fill-rule="nonzero" fill-opacity="1" /><path clip-path="url(#clip400)" d="M29.4065 776.646 L34.9447 776.646 Q33.6716 779.129 33.035 781.803 Q32.3984 784.476 32.3984 787.341 Q32.3984 791.701 33.7352 793.897 Q35.072 796.062 37.7456 796.062 Q39.7826 796.062 40.9603 794.502 Q42.1061 792.942 43.1565 788.232 L43.6021 786.227 Q44.9389 779.988 47.3897 777.378 Q49.8086 774.737 54.1691 774.737 Q59.1344 774.737 62.0308 778.683 Q64.9272 782.598 64.9272 789.473 Q64.9272 792.338 64.3543 795.457 Q63.8132 798.544 62.6992 801.982 L56.6518 801.982 Q58.3387 798.735 59.198 795.584 Q60.0256 792.433 60.0256 789.346 Q60.0256 785.208 58.6251 782.98 Q57.1929 780.752 54.6147 780.752 Q52.2276 780.752 50.9545 782.375 Q49.6813 783.967 48.5037 789.41 L48.0262 791.447 Q46.8804 796.889 44.5251 799.308 Q42.138 801.727 38.0002 801.727 Q32.9713 801.727 30.2341 798.162 Q27.4968 794.598 27.4968 788.041 Q27.4968 784.794 27.9743 781.93 Q28.4517 779.065 29.4065 776.646 Z" fill="#000000" fill-rule="nonzero" fill-opacity="1" /><path clip-path="url(#clip400)" d="M16.4842 755.003 L16.4842 749.592 L70.0516 766.143 L70.0516 771.554 L16.4842 755.003 Z" fill="#000000" fill-rule="nonzero" fill-opacity="1" /><path clip-path="url(#clip400)" d="M46.212 717.859 Q39.7508 717.859 36.0905 720.533 Q32.3984 723.174 32.3984 727.821 Q32.3984 732.468 36.0905 735.142 Q39.7508 737.784 46.212 737.784 Q52.6732 737.784 56.3653 735.142 Q60.0256 732.468 60.0256 727.821 Q60.0256 723.174 56.3653 720.533 Q52.6732 717.859 46.212 717.859 M33.7671 737.784 Q30.5842 735.938 29.0564 733.137 Q27.4968 730.304 27.4968 726.389 Q27.4968 719.896 32.6531 715.854 Q37.8093 711.78 46.212 711.78 Q54.6147 711.78 59.771 715.854 Q64.9272 719.896 64.9272 726.389 Q64.9272 730.304 63.3994 733.137 Q61.8398 735.938 58.657 737.784 L64.0042 737.784 L64.0042 743.672 L14.479 743.672 L14.479 737.784 L33.7671 737.784 Z" fill="#000000" fill-rule="nonzero" fill-opacity="1" /><path clip-path="url(#clip400)" d="M14.479 684.025 L19.3487 684.025 L19.3487 689.627 Q19.3487 692.778 20.6219 694.019 Q21.895 695.229 25.2052 695.229 L28.3562 695.229 L28.3562 685.585 L32.9077 685.585 L32.9077 695.229 L64.0042 695.229 L64.0042 701.117 L32.9077 701.117 L32.9077 706.719 L28.3562 706.719 L28.3562 701.117 L25.8736 701.117 Q19.9216 701.117 17.2162 698.348 Q14.479 695.579 14.479 689.563 L14.479 684.025 Z" fill="#000000" fill-rule="nonzero" fill-opacity="1" /><path clip-path="url(#clip400)" d="M29.4065 656.398 L34.9447 656.398 Q33.6716 658.881 33.035 661.554 Q32.3984 664.228 32.3984 667.092 Q32.3984 671.453 33.7352 673.649 Q35.072 675.813 37.7456 675.813 Q39.7826 675.813 40.9603 674.254 Q42.1061 672.694 43.1565 667.984 L43.6021 665.978 Q44.9389 659.74 47.3897 657.13 Q49.8086 654.488 54.1691 654.488 Q59.1344 654.488 62.0308 658.435 Q64.9272 662.35 64.9272 669.225 Q64.9272 672.09 64.3543 675.209 Q63.8132 678.296 62.6992 681.734 L56.6518 681.734 Q58.3387 678.487 59.198 675.336 Q60.0256 672.185 60.0256 669.098 Q60.0256 664.96 58.6251 662.732 Q57.1929 660.504 54.6147 660.504 Q52.2276 660.504 50.9545 662.127 Q49.6813 663.719 48.5037 669.161 L48.0262 671.198 Q46.8804 676.641 44.5251 679.06 Q42.138 681.479 38.0002 681.479 Q32.9713 681.479 30.2341 677.914 Q27.4968 674.349 27.4968 667.793 Q27.4968 664.546 27.9743 661.682 Q28.4517 658.817 29.4065 656.398 Z" fill="#000000" fill-rule="nonzero" fill-opacity="1" /><path clip-path="url(#clip400)" d="M334.372 10.0833 Q329.279 10.0833 326.27 13.8796 Q323.284 17.6758 323.284 24.2267 Q323.284 30.7545 326.27 34.5507 Q329.279 38.347 334.372 38.347 Q339.464 38.347 342.427 34.5507 Q345.413 30.7545 345.413 24.2267 Q345.413 17.6758 342.427 13.8796 Q339.464 10.0833 334.372 10.0833 M334.372 6.287 Q341.64 6.287 345.992 11.1712 Q350.344 16.0323 350.344 24.2267 Q350.344 32.398 345.992 37.2822 Q341.64 42.1433 334.372 42.1433 Q327.08 42.1433 322.705 37.2822 Q318.353 32.4211 318.353 24.2267 Q318.353 16.0323 322.705 11.1712 Q327.08 6.287 334.372 6.287 Z" fill="#000000" fill-rule="nonzero" fill-opacity="1" /><path clip-path="url(#clip400)" d="M354.395 15.5462 L379.233 15.5462 L379.233 18.949 L368.909 18.949 L368.909 41.472 L364.719 41.472 L364.719 18.949 L354.395 18.949 L354.395 15.5462 Z" fill="#000000" fill-rule="nonzero" fill-opacity="1" /><path clip-path="url(#clip400)" d="M384.927 15.5462 L389.209 15.5462 L389.209 26.1249 L403.029 26.1249 L403.029 15.5462 L407.311 15.5462 L407.311 41.472 L403.029 41.472 L403.029 29.5276 L389.209 29.5276 L389.209 41.472 L384.927 41.472 L384.927 15.5462 Z" fill="#000000" fill-rule="nonzero" fill-opacity="1" /><path clip-path="url(#clip400)" d="M426.131 18.5323 Q422.705 18.5323 420.714 21.2175 Q418.723 23.8795 418.723 28.5323 Q418.723 33.185 420.691 35.8702 Q422.681 38.5322 426.131 38.5322 Q429.533 38.5322 431.524 35.847 Q433.515 33.1619 433.515 28.5323 Q433.515 23.9258 431.524 21.2406 Q429.533 18.5323 426.131 18.5323 M426.131 14.9212 Q431.686 14.9212 434.857 18.5323 Q438.029 22.1434 438.029 28.5323 Q438.029 34.898 434.857 38.5322 Q431.686 42.1433 426.131 42.1433 Q420.552 42.1433 417.381 38.5322 Q414.232 34.898 414.232 28.5323 Q414.232 22.1434 417.381 18.5323 Q420.552 14.9212 426.131 14.9212 Z" fill="#000000" fill-rule="nonzero" fill-opacity="1" /><path clip-path="url(#clip400)" d="M464.44 38.0692 L475.413 38.0692 L475.413 15.5462 L479.695 15.5462 L479.695 41.472 L444.927 41.472 L444.927 15.5462 L449.209 15.5462 L449.209 38.0692 L460.158 38.0692 L460.158 15.5462 L464.44 15.5462 L464.44 38.0692 Z" fill="#000000" fill-rule="nonzero" fill-opacity="1" /><path clip-path="url(#clip400)" d="M510.644 27.4443 L510.644 29.5276 L491.061 29.5276 Q491.338 33.9257 493.7 36.2405 Q496.084 38.5322 500.32 38.5322 Q502.774 38.5322 505.065 37.9304 Q507.38 37.3285 509.649 36.1248 L509.649 40.1526 Q507.357 41.1248 504.95 41.634 Q502.542 42.1433 500.065 42.1433 Q493.862 42.1433 490.227 38.5322 Q486.616 34.9211 486.616 28.7637 Q486.616 22.398 490.042 18.6712 Q493.491 14.9212 499.325 14.9212 Q504.556 14.9212 507.588 18.3008 Q510.644 21.6573 510.644 27.4443 M506.385 26.1943 Q506.338 22.699 504.417 20.6156 Q502.519 18.5323 499.371 18.5323 Q495.806 18.5323 493.653 20.5462 Q491.524 22.5601 491.2 26.2175 L506.385 26.1943 Z" fill="#000000" fill-rule="nonzero" fill-opacity="1" /><path clip-path="url(#clip400)" d="M517.473 15.5462 L521.755 15.5462 L521.755 26.1249 L535.574 26.1249 L535.574 15.5462 L539.857 15.5462 L539.857 41.472 L535.574 41.472 L535.574 29.5276 L521.755 29.5276 L521.755 41.472 L517.473 41.472 L517.473 15.5462 Z" fill="#000000" fill-rule="nonzero" fill-opacity="1" /><path clip-path="url(#clip400)" d="M570.667 15.5462 L570.667 41.472 L566.431 41.472 L566.431 20.6619 L553.931 41.472 L548.468 41.472 L548.468 15.5462 L552.704 15.5462 L552.704 36.31 L565.181 15.5462 L570.667 15.5462 Z" fill="#000000" fill-rule="nonzero" fill-opacity="1" /><path clip-path="url(#clip400)" d="M601.616 27.4443 L601.616 29.5276 L582.032 29.5276 Q582.31 33.9257 584.671 36.2405 Q587.056 38.5322 591.292 38.5322 Q593.745 38.5322 596.037 37.9304 Q598.352 37.3285 600.62 36.1248 L600.62 40.1526 Q598.329 41.1248 595.921 41.634 Q593.514 42.1433 591.037 42.1433 Q584.833 42.1433 581.199 38.5322 Q577.588 34.9211 577.588 28.7637 Q577.588 22.398 581.014 18.6712 Q584.463 14.9212 590.296 14.9212 Q595.528 14.9212 598.56 18.3008 Q601.616 21.6573 601.616 27.4443 M597.356 26.1943 Q597.31 22.699 595.389 20.6156 Q593.491 18.5323 590.343 18.5323 Q586.778 18.5323 584.625 20.5462 Q582.495 22.5601 582.171 26.2175 L597.356 26.1943 Z" fill="#000000" fill-rule="nonzero" fill-opacity="1" /><path clip-path="url(#clip400)" d="M620.597 15.5462 L645.435 15.5462 L645.435 18.949 L635.111 18.949 L635.111 41.472 L630.921 41.472 L630.921 18.949 L620.597 18.949 L620.597 15.5462 Z" fill="#000000" fill-rule="nonzero" fill-opacity="1" /><path clip-path="url(#clip400)" d="M655.412 37.5831 L655.412 51.3331 L651.129 51.3331 L651.129 15.5462 L655.412 15.5462 L655.412 19.4814 Q656.754 17.1666 658.791 16.0555 Q660.851 14.9212 663.699 14.9212 Q668.421 14.9212 671.361 18.6712 Q674.324 22.4212 674.324 28.5323 Q674.324 34.6433 671.361 38.3933 Q668.421 42.1433 663.699 42.1433 Q660.851 42.1433 658.791 41.0322 Q656.754 39.8979 655.412 37.5831 M669.902 28.5323 Q669.902 23.8332 667.958 21.1712 Q666.037 18.486 662.657 18.486 Q659.277 18.486 657.333 21.1712 Q655.412 23.8332 655.412 28.5323 Q655.412 33.2313 657.333 35.9165 Q659.277 38.5785 662.657 38.5785 Q666.037 38.5785 667.958 35.9165 Q669.902 33.2313 669.902 28.5323 Z" fill="#000000" fill-rule="nonzero" fill-opacity="1" /><path clip-path="url(#clip400)" d="M692.171 43.8794 Q690.365 48.509 688.652 49.921 Q686.939 51.3331 684.069 51.3331 L680.666 51.3331 L680.666 47.7683 L683.166 47.7683 Q684.925 47.7683 685.898 46.9349 Q686.87 46.1016 688.05 42.9998 L688.814 41.0553 L678.328 15.5462 L682.842 15.5462 L690.944 35.8239 L699.046 15.5462 L703.56 15.5462 L692.171 43.8794 Z" fill="#000000" fill-rule="nonzero" fill-opacity="1" /><path clip-path="url(#clip400)" d="M715.226 38.0692 L727.587 38.0692 L727.587 18.949 L718.629 18.949 L718.629 22.1897 Q718.629 31.7267 715.897 36.8192 L715.226 38.0692 M709.046 38.0692 Q711.152 37.1433 712.078 35.1757 Q714.347 30.2915 714.347 20.4536 L714.347 15.5462 L731.87 15.5462 L731.87 38.0692 L735.272 38.0692 L735.272 48.0229 L731.87 48.0229 L731.87 41.472 L710.851 41.472 L710.851 48.0229 L707.448 48.0229 L707.448 38.0692 L709.046 38.0692 Z" fill="#000000" fill-rule="nonzero" fill-opacity="1" /><path clip-path="url(#clip400)" d="M752.263 18.5323 Q748.837 18.5323 746.846 21.2175 Q744.856 23.8795 744.856 28.5323 Q744.856 33.185 746.823 35.8702 Q748.814 38.5322 752.263 38.5322 Q755.666 38.5322 757.657 35.847 Q759.647 33.1619 759.647 28.5323 Q759.647 23.9258 757.657 21.2406 Q755.666 18.5323 752.263 18.5323 M752.263 14.9212 Q757.819 14.9212 760.99 18.5323 Q764.161 22.1434 764.161 28.5323 Q764.161 34.898 760.99 38.5322 Q757.819 42.1433 752.263 42.1433 Q746.684 42.1433 743.513 38.5322 Q740.365 34.898 740.365 28.5323 Q740.365 22.1434 743.513 18.5323 Q746.684 14.9212 752.263 14.9212 Z" fill="#000000" fill-rule="nonzero" fill-opacity="1" /><path clip-path="url(#clip400)" d="M793.397 27.4443 L793.397 29.5276 L773.814 29.5276 Q774.092 33.9257 776.453 36.2405 Q778.837 38.5322 783.073 38.5322 Q785.527 38.5322 787.818 37.9304 Q790.133 37.3285 792.402 36.1248 L792.402 40.1526 Q790.11 41.1248 787.703 41.634 Q785.295 42.1433 782.818 42.1433 Q776.615 42.1433 772.981 38.5322 Q769.369 34.9211 769.369 28.7637 Q769.369 22.398 772.795 18.6712 Q776.244 14.9212 782.078 14.9212 Q787.309 14.9212 790.342 18.3008 Q793.397 21.6573 793.397 27.4443 M789.138 26.1943 Q789.092 22.699 787.17 20.6156 Q785.272 18.5323 782.124 18.5323 Q778.559 18.5323 776.406 20.5462 Q774.277 22.5601 773.953 26.2175 L789.138 26.1943 M784.254 5.54627 L788.953 5.54627 L788.953 10.2222 L784.254 10.2222 L784.254 5.54627 M775.203 5.54627 L779.902 5.54627 L779.902 10.2222 L775.203 10.2222 L775.203 5.54627 Z" fill="#000000" fill-rule="nonzero" fill-opacity="1" /><path clip-path="url(#clip400)" d="M800.226 15.5462 L806.453 15.5462 L813.814 32.9072 L821.198 15.5462 L827.378 15.5462 L827.378 41.472 L823.096 41.472 L823.096 19.6203 L815.943 36.4952 L811.684 36.4952 L804.508 19.6203 L804.508 41.472 L800.226 41.472 L800.226 15.5462 Z" fill="#000000" fill-rule="nonzero" fill-opacity="1" /><path clip-path="url(#clip400)" d="M835.989 15.5462 L840.226 15.5462 L840.226 27.7221 L852.239 15.5462 L857.471 15.5462 L847.563 25.5693 L858.744 41.472 L853.975 41.472 L844.786 28.3934 L840.226 33.023 L840.226 41.472 L835.989 41.472 L835.989 15.5462 Z" fill="#000000" fill-rule="nonzero" fill-opacity="1" /><path clip-path="url(#clip400)" d="M874.832 18.5323 Q871.406 18.5323 869.415 21.2175 Q867.424 23.8795 867.424 28.5323 Q867.424 33.185 869.392 35.8702 Q871.383 38.5322 874.832 38.5322 Q878.235 38.5322 880.225 35.847 Q882.216 33.1619 882.216 28.5323 Q882.216 23.9258 880.225 21.2406 Q878.235 18.5323 874.832 18.5323 M874.832 14.9212 Q880.387 14.9212 883.559 18.5323 Q886.73 22.1434 886.73 28.5323 Q886.73 34.898 883.559 38.5322 Q880.387 42.1433 874.832 42.1433 Q869.253 42.1433 866.082 38.5322 Q862.934 34.898 862.934 28.5323 Q862.934 22.1434 866.082 18.5323 Q869.253 14.9212 874.832 14.9212 Z" fill="#000000" fill-rule="nonzero" fill-opacity="1" /><path clip-path="url(#clip400)" d="M912.447 16.5416 L912.447 20.523 Q910.642 19.5277 908.813 19.0416 Q907.008 18.5323 905.156 18.5323 Q901.012 18.5323 898.721 21.1712 Q896.429 23.7869 896.429 28.5323 Q896.429 33.2776 898.721 35.9165 Q901.012 38.5322 905.156 38.5322 Q907.008 38.5322 908.813 38.0461 Q910.642 37.5368 912.447 36.5415 L912.447 40.4766 Q910.665 41.31 908.744 41.7266 Q906.846 42.1433 904.693 42.1433 Q898.836 42.1433 895.387 38.4628 Q891.938 34.7822 891.938 28.5323 Q891.938 22.1897 895.41 18.5555 Q898.906 14.9212 904.971 14.9212 Q906.938 14.9212 908.813 15.3379 Q910.688 15.7314 912.447 16.5416 Z" fill="#000000" fill-rule="nonzero" fill-opacity="1" /><path clip-path="url(#clip400)" d="M916.776 15.5462 L941.614 15.5462 L941.614 18.949 L931.29 18.949 L931.29 41.472 L927.1 41.472 L927.1 18.949 L916.776 18.949 L916.776 15.5462 Z" fill="#000000" fill-rule="nonzero" fill-opacity="1" /><path clip-path="url(#clip400)" d="M969.507 15.5462 L969.507 41.472 L965.271 41.472 L965.271 20.6619 L952.771 41.472 L947.308 41.472 L947.308 15.5462 L951.544 15.5462 L951.544 36.31 L964.021 15.5462 L969.507 15.5462 Z" fill="#000000" fill-rule="nonzero" fill-opacity="1" /><path clip-path="url(#clip400)" d="M1010.41 19.4814 L1010.41 5.45367 L1014.67 5.45367 L1014.67 41.472 L1010.41 41.472 L1010.41 37.5831 Q1009.07 39.8979 1007.01 41.0322 Q1004.97 42.1433 1002.1 42.1433 Q997.401 42.1433 994.438 38.3933 Q991.498 34.6433 991.498 28.5323 Q991.498 22.4212 994.438 18.6712 Q997.401 14.9212 1002.1 14.9212 Q1004.97 14.9212 1007.01 16.0555 Q1009.07 17.1666 1010.41 19.4814 M995.896 28.5323 Q995.896 33.2313 997.817 35.9165 Q999.762 38.5785 1003.14 38.5785 Q1006.52 38.5785 1008.47 35.9165 Q1010.41 33.2313 1010.41 28.5323 Q1010.41 23.8332 1008.47 21.1712 Q1006.52 18.486 1003.14 18.486 Q999.762 18.486 997.817 21.1712 Q995.896 23.8332 995.896 28.5323 Z" fill="#000000" fill-rule="nonzero" fill-opacity="1" /><path clip-path="url(#clip400)" d="M1036.57 5.45367 L1036.57 8.99532 L1032.49 8.99532 Q1030.2 8.99532 1029.3 9.92124 Q1028.42 10.8472 1028.42 13.2546 L1028.42 15.5462 L1035.43 15.5462 L1035.43 18.8564 L1028.42 18.8564 L1028.42 41.472 L1024.14 41.472 L1024.14 18.8564 L1020.06 18.8564 L1020.06 15.5462 L1024.14 15.5462 L1024.14 13.7407 Q1024.14 9.41199 1026.15 7.4444 Q1028.16 5.45367 1032.54 5.45367 L1036.57 5.45367 Z" fill="#000000" fill-rule="nonzero" fill-opacity="1" /><path clip-path="url(#clip400)" d="M1056.66 16.3101 L1056.66 20.3379 Q1054.85 19.4119 1052.91 18.949 Q1050.97 18.486 1048.88 18.486 Q1045.71 18.486 1044.11 19.4582 Q1042.54 20.4304 1042.54 22.3749 Q1042.54 23.8564 1043.67 24.7128 Q1044.81 25.5462 1048.23 26.31 L1049.69 26.6341 Q1054.23 27.6063 1056.13 29.3887 Q1058.05 31.148 1058.05 34.3193 Q1058.05 37.9304 1055.18 40.0368 Q1052.33 42.1433 1047.33 42.1433 Q1045.25 42.1433 1042.98 41.7266 Q1040.73 41.3331 1038.23 40.5229 L1038.23 36.1248 Q1040.59 37.3517 1042.89 37.9766 Q1045.18 38.5785 1047.42 38.5785 Q1050.43 38.5785 1052.05 37.56 Q1053.67 36.5183 1053.67 34.6433 Q1053.67 32.9072 1052.49 31.9813 Q1051.34 31.0554 1047.38 30.1989 L1045.9 29.8517 Q1041.94 29.0184 1040.18 27.3054 Q1038.42 25.5693 1038.42 22.5601 Q1038.42 18.9027 1041.01 16.9119 Q1043.6 14.9212 1048.37 14.9212 Q1050.73 14.9212 1052.82 15.2684 Q1054.9 15.6157 1056.66 16.3101 Z" fill="#000000" fill-rule="nonzero" fill-opacity="1" /><path clip-path="url(#clip400)" d="M1079.74 15.5462 L1083.97 15.5462 L1083.97 27.7221 L1095.99 15.5462 L1101.22 15.5462 L1091.31 25.5693 L1102.49 41.472 L1097.72 41.472 L1088.53 28.3934 L1083.97 33.023 L1083.97 41.472 L1079.74 41.472 L1079.74 15.5462 Z" fill="#000000" fill-rule="nonzero" fill-opacity="1" /><path clip-path="url(#clip400)" d="M1142.21 28.5323 Q1142.21 23.8332 1140.27 21.1712 Q1138.35 18.486 1134.97 18.486 Q1131.59 18.486 1129.65 21.1712 Q1127.72 23.8332 1127.72 28.5323 Q1127.72 33.2313 1129.65 35.9165 Q1131.59 38.5785 1134.97 38.5785 Q1138.35 38.5785 1140.27 35.9165 Q1142.21 33.2313 1142.21 28.5323 M1127.72 19.4814 Q1129.07 17.1666 1131.1 16.0555 Q1133.16 14.9212 1136.01 14.9212 Q1140.73 14.9212 1143.67 18.6712 Q1146.64 22.4212 1146.64 28.5323 Q1146.64 34.6433 1143.67 38.3933 Q1140.73 42.1433 1136.01 42.1433 Q1133.16 42.1433 1131.1 41.0322 Q1129.07 39.8979 1127.72 37.5831 L1127.72 41.472 L1123.44 41.472 L1123.44 5.45367 L1127.72 5.45367 L1127.72 19.4814 Z" fill="#000000" fill-rule="nonzero" fill-opacity="1" /><path clip-path="url(#clip400)" d="M1166.82 5.45367 L1166.82 8.99532 L1162.75 8.99532 Q1160.46 8.99532 1159.55 9.92124 Q1158.67 10.8472 1158.67 13.2546 L1158.67 15.5462 L1165.69 15.5462 L1165.69 18.8564 L1158.67 18.8564 L1158.67 41.472 L1154.39 41.472 L1154.39 18.8564 L1150.32 18.8564 L1150.32 15.5462 L1154.39 15.5462 L1154.39 13.7407 Q1154.39 9.41199 1156.4 7.4444 Q1158.42 5.45367 1162.79 5.45367 L1166.82 5.45367 Z" fill="#000000" fill-rule="nonzero" fill-opacity="1" /><path clip-path="url(#clip400)" d="M1186.91 16.3101 L1186.91 20.3379 Q1185.11 19.4119 1183.16 18.949 Q1181.22 18.486 1179.14 18.486 Q1175.96 18.486 1174.37 19.4582 Q1172.79 20.4304 1172.79 22.3749 Q1172.79 23.8564 1173.93 24.7128 Q1175.06 25.5462 1178.49 26.31 L1179.95 26.6341 Q1184.48 27.6063 1186.38 29.3887 Q1188.3 31.148 1188.3 34.3193 Q1188.3 37.9304 1185.43 40.0368 Q1182.58 42.1433 1177.58 42.1433 Q1175.5 42.1433 1173.23 41.7266 Q1170.99 41.3331 1168.49 40.5229 L1168.49 36.1248 Q1170.85 37.3517 1173.14 37.9766 Q1175.43 38.5785 1177.68 38.5785 Q1180.69 38.5785 1182.31 37.56 Q1183.93 36.5183 1183.93 34.6433 Q1183.93 32.9072 1182.75 31.9813 Q1181.59 31.0554 1177.63 30.1989 L1176.15 29.8517 Q1172.19 29.0184 1170.43 27.3054 Q1168.67 25.5693 1168.67 22.5601 Q1168.67 18.9027 1171.27 16.9119 Q1173.86 14.9212 1178.63 14.9212 Q1180.99 14.9212 1183.07 15.2684 Q1185.15 15.6157 1186.91 16.3101 Z" fill="#000000" fill-rule="nonzero" fill-opacity="1" /><path clip-path="url(#clip400)" d="M1228.81 16.5416 L1228.81 20.523 Q1227.01 19.5277 1225.18 19.0416 Q1223.37 18.5323 1221.52 18.5323 Q1217.38 18.5323 1215.08 21.1712 Q1212.79 23.7869 1212.79 28.5323 Q1212.79 33.2776 1215.08 35.9165 Q1217.38 38.5322 1221.52 38.5322 Q1223.37 38.5322 1225.18 38.0461 Q1227.01 37.5368 1228.81 36.5415 L1228.81 40.4766 Q1227.03 41.31 1225.11 41.7266 Q1223.21 42.1433 1221.06 42.1433 Q1215.2 42.1433 1211.75 38.4628 Q1208.3 34.7822 1208.3 28.5323 Q1208.3 22.1897 1211.77 18.5555 Q1215.27 14.9212 1221.33 14.9212 Q1223.3 14.9212 1225.18 15.3379 Q1227.05 15.7314 1228.81 16.5416 Z" fill="#000000" fill-rule="nonzero" fill-opacity="1" /><path clip-path="url(#clip400)" d="M1255.41 37.5831 L1255.41 51.3331 L1251.13 51.3331 L1251.13 15.5462 L1255.41 15.5462 L1255.41 19.4814 Q1256.75 17.1666 1258.79 16.0555 Q1260.85 14.9212 1263.7 14.9212 Q1268.42 14.9212 1271.36 18.6712 Q1274.32 22.4212 1274.32 28.5323 Q1274.32 34.6433 1271.36 38.3933 Q1268.42 42.1433 1263.7 42.1433 Q1260.85 42.1433 1258.79 41.0322 Q1256.75 39.8979 1255.41 37.5831 M1269.9 28.5323 Q1269.9 23.8332 1267.95 21.1712 Q1266.03 18.486 1262.65 18.486 Q1259.27 18.486 1257.33 21.1712 Q1255.41 23.8332 1255.41 28.5323 Q1255.41 33.2313 1257.33 35.9165 Q1259.27 38.5785 1262.65 38.5785 Q1266.03 38.5785 1267.95 35.9165 Q1269.9 33.2313 1269.9 28.5323 Z" fill="#000000" fill-rule="nonzero" fill-opacity="1" /><path clip-path="url(#clip400)" d="M1291.43 18.5323 Q1288 18.5323 1286.01 21.2175 Q1284.02 23.8795 1284.02 28.5323 Q1284.02 33.185 1285.99 35.8702 Q1287.98 38.5322 1291.43 38.5322 Q1294.83 38.5322 1296.82 35.847 Q1298.81 33.1619 1298.81 28.5323 Q1298.81 23.9258 1296.82 21.2406 Q1294.83 18.5323 1291.43 18.5323 M1291.43 14.9212 Q1296.98 14.9212 1300.15 18.5323 Q1303.32 22.1434 1303.32 28.5323 Q1303.32 34.898 1300.15 38.5322 Q1296.98 42.1433 1291.43 42.1433 Q1285.85 42.1433 1282.68 38.5322 Q1279.53 34.898 1279.53 28.5323 Q1279.53 22.1434 1282.68 18.5323 Q1285.85 14.9212 1291.43 14.9212 Z" fill="#000000" fill-rule="nonzero" fill-opacity="1" /><path clip-path="url(#clip400)" d="M1329.04 16.5416 L1329.04 20.523 Q1327.24 19.5277 1325.41 19.0416 Q1323.6 18.5323 1321.75 18.5323 Q1317.61 18.5323 1315.32 21.1712 Q1313.02 23.7869 1313.02 28.5323 Q1313.02 33.2776 1315.32 35.9165 Q1317.61 38.5322 1321.75 38.5322 Q1323.6 38.5322 1325.41 38.0461 Q1327.24 37.5368 1329.04 36.5415 L1329.04 40.4766 Q1327.26 41.31 1325.34 41.7266 Q1323.44 42.1433 1321.29 42.1433 Q1315.43 42.1433 1311.98 38.4628 Q1308.53 34.7822 1308.53 28.5323 Q1308.53 22.1897 1312.01 18.5555 Q1315.5 14.9212 1321.57 14.9212 Q1323.53 14.9212 1325.41 15.3379 Q1327.28 15.7314 1329.04 16.5416 Z" fill="#000000" fill-rule="nonzero" fill-opacity="1" /><path clip-path="url(#clip400)" d="M1333.37 15.5462 L1358.21 15.5462 L1358.21 18.949 L1347.88 18.949 L1347.88 41.472 L1343.7 41.472 L1343.7 18.949 L1333.37 18.949 L1333.37 15.5462 Z" fill="#000000" fill-rule="nonzero" fill-opacity="1" /><path clip-path="url(#clip400)" d="M1374.11 18.5323 Q1370.69 18.5323 1368.69 21.2175 Q1366.7 23.8795 1366.7 28.5323 Q1366.7 33.185 1368.67 35.8702 Q1370.66 38.5322 1374.11 38.5322 Q1377.51 38.5322 1379.51 35.847 Q1381.5 33.1619 1381.5 28.5323 Q1381.5 23.9258 1379.51 21.2406 Q1377.51 18.5323 1374.11 18.5323 M1374.11 14.9212 Q1379.67 14.9212 1382.84 18.5323 Q1386.01 22.1434 1386.01 28.5323 Q1386.01 34.898 1382.84 38.5322 Q1379.67 42.1433 1374.11 42.1433 Q1368.53 42.1433 1365.36 38.5322 Q1362.21 34.898 1362.21 28.5323 Q1362.21 22.1434 1365.36 18.5323 Q1368.53 14.9212 1374.11 14.9212 Z" fill="#000000" fill-rule="nonzero" fill-opacity="1" /><path clip-path="url(#clip400)" d="M1392.91 15.5462 L1399.13 15.5462 L1406.5 32.9072 L1413.88 15.5462 L1420.06 15.5462 L1420.06 41.472 L1415.78 41.472 L1415.78 19.6203 L1408.63 36.4952 L1404.37 36.4952 L1397.19 19.6203 L1397.19 41.472 L1392.91 41.472 L1392.91 15.5462 Z" fill="#000000" fill-rule="nonzero" fill-opacity="1" /><path clip-path="url(#clip400)" d="M1462.56 16.5416 L1462.56 20.523 Q1460.75 19.5277 1458.93 19.0416 Q1457.12 18.5323 1455.27 18.5323 Q1451.13 18.5323 1448.83 21.1712 Q1446.54 23.7869 1446.54 28.5323 Q1446.54 33.2776 1448.83 35.9165 Q1451.13 38.5322 1455.27 38.5322 Q1457.12 38.5322 1458.93 38.0461 Q1460.75 37.5368 1462.56 36.5415 L1462.56 40.4766 Q1460.78 41.31 1458.86 41.7266 Q1456.96 42.1433 1454.81 42.1433 Q1448.95 42.1433 1445.5 38.4628 Q1442.05 34.7822 1442.05 28.5323 Q1442.05 22.1897 1445.52 18.5555 Q1449.02 14.9212 1455.08 14.9212 Q1457.05 14.9212 1458.93 15.3379 Q1460.8 15.7314 1462.56 16.5416 Z" fill="#000000" fill-rule="nonzero" fill-opacity="1" /><path clip-path="url(#clip400)" d="M1467.26 41.472 L1467.26 37.9304 Q1471.47 37.2822 1472.77 34.3656 Q1474.34 30.2684 1474.34 19.7823 L1474.34 15.5462 L1491.87 15.5462 L1491.87 41.472 L1487.61 41.472 L1487.61 18.949 L1478.6 18.949 L1478.6 21.5184 Q1478.6 31.5183 1476.56 36.0091 Q1474.39 40.8007 1467.26 41.472 Z" fill="#000000" fill-rule="nonzero" fill-opacity="1" /><path clip-path="url(#clip400)" d="M1511.06 43.8794 Q1509.25 48.509 1507.54 49.921 Q1505.82 51.3331 1502.95 51.3331 L1499.55 51.3331 L1499.55 47.7683 L1502.05 47.7683 Q1503.81 47.7683 1504.78 46.9349 Q1505.75 46.1016 1506.93 42.9998 L1507.7 41.0553 L1497.21 15.5462 L1501.73 15.5462 L1509.83 35.8239 L1517.93 15.5462 L1522.44 15.5462 L1511.06 43.8794 Z" fill="#000000" fill-rule="nonzero" fill-opacity="1" /><path clip-path="url(#clip400)" d="M1543.3 41.472 L1543.3 30.5693 L1535.36 30.5693 Q1531.82 30.5693 1529.46 28.3702 Q1527.33 26.3795 1527.33 22.1203 L1527.33 15.5462 L1531.59 15.5462 L1531.59 21.7267 Q1531.59 24.4351 1532.79 25.8008 Q1534.02 27.1665 1536.43 27.1665 L1543.3 27.1665 L1543.3 15.5462 L1547.56 15.5462 L1547.56 41.472 L1543.3 41.472 Z" fill="#000000" fill-rule="nonzero" fill-opacity="1" /><path clip-path="url(#clip400)" d="M1568.12 28.4397 Q1562.95 28.4397 1560.96 29.6202 Q1558.97 30.8008 1558.97 33.648 Q1558.97 35.9165 1560.45 37.2591 Q1561.96 38.5785 1564.53 38.5785 Q1568.07 38.5785 1570.2 36.0785 Q1572.35 33.5554 1572.35 29.3887 L1572.35 28.4397 L1568.12 28.4397 M1576.61 26.6804 L1576.61 41.472 L1572.35 41.472 L1572.35 37.5368 Q1570.89 39.8979 1568.72 41.0322 Q1566.54 42.1433 1563.39 42.1433 Q1559.41 42.1433 1557.05 39.9211 Q1554.71 37.6757 1554.71 33.9257 Q1554.71 29.5508 1557.63 27.3286 Q1560.57 25.1063 1566.38 25.1063 L1572.35 25.1063 L1572.35 24.6897 Q1572.35 21.7499 1570.41 20.1527 Q1568.49 18.5323 1564.99 18.5323 Q1562.77 18.5323 1560.66 19.0647 Q1558.55 19.5971 1556.61 20.6619 L1556.61 16.7268 Q1558.95 15.824 1561.15 15.3842 Q1563.35 14.9212 1565.43 14.9212 Q1571.05 14.9212 1573.83 17.8379 Q1576.61 20.7545 1576.61 26.6804 Z" fill="#000000" fill-rule="nonzero" fill-opacity="1" /><path clip-path="url(#clip400)" d="M1607.42 15.5462 L1607.42 41.472 L1603.18 41.472 L1603.18 20.6619 L1590.68 41.472 L1585.22 41.472 L1585.22 15.5462 L1589.46 15.5462 L1589.46 36.31 L1601.93 15.5462 L1607.42 15.5462 M1589.09 5.45367 L1591.82 5.45367 Q1592.07 7.18978 1593.18 8.0694 Q1594.32 8.92588 1596.33 8.92588 Q1598.32 8.92588 1599.43 8.0694 Q1600.55 7.21292 1600.85 5.45367 L1603.58 5.45367 Q1603.35 8.76384 1601.52 10.4305 Q1599.69 12.0972 1596.33 12.0972 Q1592.98 12.0972 1591.15 10.4305 Q1589.32 8.76384 1589.09 5.45367 Z" fill="#000000" fill-rule="nonzero" fill-opacity="1" /><path clip-path="url(#clip400)" d="M1616.03 15.5462 L1620.31 15.5462 L1620.31 26.1249 L1634.13 26.1249 L1634.13 15.5462 L1638.42 15.5462 L1638.42 41.472 L1634.13 41.472 L1634.13 29.5276 L1620.31 29.5276 L1620.31 41.472 L1616.03 41.472 L1616.03 15.5462 Z" fill="#000000" fill-rule="nonzero" fill-opacity="1" /><path clip-path="url(#clip400)" d="M1671.68 15.5462 L1675.94 15.5462 L1675.94 41.472 L1671.68 41.472 L1671.68 15.5462 M1673.81 14.9212 L1673.81 14.9212 M1663.32 33.7869 Q1663.32 31.7035 1661.8 30.6156 Q1660.29 29.5276 1657.37 29.5276 L1651.31 29.5276 L1651.31 38.0692 L1657.37 38.0692 Q1660.29 38.0692 1661.8 36.9813 Q1663.32 35.8702 1663.32 33.7869 M1647.03 15.5462 L1651.31 15.5462 L1651.31 26.1249 L1657.56 26.1249 Q1662.51 26.1249 1665.17 28.023 Q1667.86 29.898 1667.86 33.7869 Q1667.86 37.6757 1665.17 39.5739 Q1662.51 41.472 1657.56 41.472 L1647.03 41.472 L1647.03 15.5462 Z" fill="#000000" fill-rule="nonzero" fill-opacity="1" /><path clip-path="url(#clip400)" d="M1706.17 15.5462 L1696.79 28.1619 L1706.66 41.472 L1701.63 41.472 L1694.09 31.2869 L1686.54 41.472 L1681.52 41.472 L1691.59 27.9073 L1682.37 15.5462 L1687.4 15.5462 L1694.27 24.7823 L1701.15 15.5462 L1706.17 15.5462 Z" fill="#000000" fill-rule="nonzero" fill-opacity="1" /><path clip-path="url(#clip400)" d="M1749.97 15.5462 L1749.97 41.472 L1745.68 41.472 L1745.68 18.949 L1731.86 18.949 L1731.86 41.472 L1727.58 41.472 L1727.58 15.5462 L1749.97 15.5462 Z" fill="#000000" fill-rule="nonzero" fill-opacity="1" /><path clip-path="url(#clip400)" d="M1768.79 18.5323 Q1765.36 18.5323 1763.37 21.2175 Q1761.38 23.8795 1761.38 28.5323 Q1761.38 33.185 1763.35 35.8702 Q1765.34 38.5322 1768.79 38.5322 Q1772.19 38.5322 1774.18 35.847 Q1776.17 33.1619 1776.17 28.5323 Q1776.17 23.9258 1774.18 21.2406 Q1772.19 18.5323 1768.79 18.5323 M1768.79 14.9212 Q1774.34 14.9212 1777.51 18.5323 Q1780.68 22.1434 1780.68 28.5323 Q1780.68 34.898 1777.51 38.5322 Q1774.34 42.1433 1768.79 42.1433 Q1763.21 42.1433 1760.04 38.5322 Q1756.89 34.898 1756.89 28.5323 Q1756.89 22.1434 1760.04 18.5323 Q1763.21 14.9212 1768.79 14.9212 Z" fill="#000000" fill-rule="nonzero" fill-opacity="1" /><path clip-path="url(#clip400)" d="M1791.84 29.5276 L1791.84 38.0692 L1797.91 38.0692 Q1800.82 38.0692 1802.35 36.9813 Q1803.88 35.8702 1803.88 33.7869 Q1803.88 31.7035 1802.35 30.6156 Q1800.82 29.5276 1797.91 29.5276 L1791.84 29.5276 M1791.84 18.949 L1791.84 26.1249 L1797.44 26.1249 Q1799.85 26.1249 1801.38 25.1758 Q1802.91 24.2036 1802.91 22.4906 Q1802.91 20.7777 1801.38 19.8749 Q1799.85 18.949 1797.44 18.949 L1791.84 18.949 M1787.58 15.5462 L1797.72 15.5462 Q1802.28 15.5462 1804.73 17.2129 Q1807.19 18.8795 1807.19 21.9582 Q1807.19 24.3425 1805.94 25.7545 Q1804.69 27.1434 1802.23 27.4906 Q1805.17 28.0461 1806.79 29.8054 Q1808.41 31.5646 1808.41 34.2035 Q1808.41 37.6757 1805.73 39.5739 Q1803.07 41.472 1798.11 41.472 L1787.58 41.472 L1787.58 15.5462 Z" fill="#000000" fill-rule="nonzero" fill-opacity="1" /><path clip-path="url(#clip400)" d="M1812.6 15.5462 L1837.44 15.5462 L1837.44 18.949 L1827.12 18.949 L1827.12 41.472 L1822.93 41.472 L1822.93 18.949 L1812.6 18.949 L1812.6 15.5462 Z" fill="#000000" fill-rule="nonzero" fill-opacity="1" /><path clip-path="url(#clip400)" d="M1853.35 18.5323 Q1849.92 18.5323 1847.93 21.2175 Q1845.94 23.8795 1845.94 28.5323 Q1845.94 33.185 1847.91 35.8702 Q1849.9 38.5322 1853.35 38.5322 Q1856.75 38.5322 1858.74 35.847 Q1860.73 33.1619 1860.73 28.5323 Q1860.73 23.9258 1858.74 21.2406 Q1856.75 18.5323 1853.35 18.5323 M1853.35 14.9212 Q1858.9 14.9212 1862.07 18.5323 Q1865.24 22.1434 1865.24 28.5323 Q1865.24 34.898 1862.07 38.5322 Q1858.9 42.1433 1853.35 42.1433 Q1847.77 42.1433 1844.6 38.5322 Q1841.45 34.898 1841.45 28.5323 Q1841.45 22.1434 1844.6 18.5323 Q1847.77 14.9212 1853.35 14.9212 Z" fill="#000000" fill-rule="nonzero" fill-opacity="1" /><path clip-path="url(#clip400)" d="M1876.42 37.5831 L1876.42 51.3331 L1872.14 51.3331 L1872.14 15.5462 L1876.42 15.5462 L1876.42 19.4814 Q1877.77 17.1666 1879.8 16.0555 Q1881.86 14.9212 1884.71 14.9212 Q1889.43 14.9212 1892.37 18.6712 Q1895.34 22.4212 1895.34 28.5323 Q1895.34 34.6433 1892.37 38.3933 Q1889.43 42.1433 1884.71 42.1433 Q1881.86 42.1433 1879.8 41.0322 Q1877.77 39.8979 1876.42 37.5831 M1890.91 28.5323 Q1890.91 23.8332 1888.97 21.1712 Q1887.05 18.486 1883.67 18.486 Q1880.29 18.486 1878.34 21.1712 Q1876.42 23.8332 1876.42 28.5323 Q1876.42 33.2313 1878.34 35.9165 Q1880.29 38.5785 1883.67 38.5785 Q1887.05 38.5785 1888.97 35.9165 Q1890.91 33.2313 1890.91 28.5323 Z" fill="#000000" fill-rule="nonzero" fill-opacity="1" /><path clip-path="url(#clip400)" d="M1924.57 27.4443 L1924.57 29.5276 L1904.99 29.5276 Q1905.27 33.9257 1907.63 36.2405 Q1910.01 38.5322 1914.25 38.5322 Q1916.7 38.5322 1918.99 37.9304 Q1921.31 37.3285 1923.58 36.1248 L1923.58 40.1526 Q1921.28 41.1248 1918.88 41.634 Q1916.47 42.1433 1913.99 42.1433 Q1907.79 42.1433 1904.15 38.5322 Q1900.54 34.9211 1900.54 28.7637 Q1900.54 22.398 1903.97 18.6712 Q1907.42 14.9212 1913.25 14.9212 Q1918.48 14.9212 1921.52 18.3008 Q1924.57 21.6573 1924.57 27.4443 M1920.31 26.1943 Q1920.27 22.699 1918.34 20.6156 Q1916.45 18.5323 1913.3 18.5323 Q1909.73 18.5323 1907.58 20.5462 Q1905.45 22.5601 1905.13 26.2175 L1920.31 26.1943 Z" fill="#000000" fill-rule="nonzero" fill-opacity="1" /><path clip-path="url(#clip400)" d="M1931.4 15.5462 L1935.68 15.5462 L1935.68 26.1249 L1949.5 26.1249 L1949.5 15.5462 L1953.78 15.5462 L1953.78 41.472 L1949.5 41.472 L1949.5 29.5276 L1935.68 29.5276 L1935.68 41.472 L1931.4 41.472 L1931.4 15.5462 Z" fill="#000000" fill-rule="nonzero" fill-opacity="1" /><path clip-path="url(#clip400)" d="M1984.59 15.5462 L1984.59 41.472 L1980.36 41.472 L1980.36 20.6619 L1967.86 41.472 L1962.4 41.472 L1962.4 15.5462 L1966.63 15.5462 L1966.63 36.31 L1979.11 15.5462 L1984.59 15.5462 Z" fill="#000000" fill-rule="nonzero" fill-opacity="1" /><path clip-path="url(#clip400)" d="M2015.4 15.5462 L2015.4 41.472 L2011.17 41.472 L2011.17 20.6619 L1998.67 41.472 L1993.21 41.472 L1993.21 15.5462 L1997.44 15.5462 L1997.44 36.31 L2009.92 15.5462 L2015.4 15.5462 M1997.07 5.45367 L1999.8 5.45367 Q2000.06 7.18978 2001.17 8.0694 Q2002.3 8.92588 2004.32 8.92588 Q2006.31 8.92588 2007.42 8.0694 Q2008.53 7.21292 2008.83 5.45367 L2011.56 5.45367 Q2011.33 8.76384 2009.5 10.4305 Q2007.67 12.0972 2004.32 12.0972 Q2000.96 12.0972 1999.13 10.4305 Q1997.3 8.76384 1997.07 5.45367 Z" fill="#000000" fill-rule="nonzero" fill-opacity="1" /><path clip-path="url(#clip400)" d="M2049.48 5.49997 Q2046.38 10.824 2044.87 16.0323 Q2043.37 21.2406 2043.37 26.5878 Q2043.37 31.935 2044.87 37.1896 Q2046.4 42.4211 2049.48 47.722 L2045.77 47.722 Q2042.3 42.2822 2040.57 37.0276 Q2038.85 31.773 2038.85 26.5878 Q2038.85 21.4258 2040.57 16.1944 Q2042.28 10.9629 2045.77 5.49997 L2049.48 5.49997 Z" fill="#000000" fill-rule="nonzero" fill-opacity="1" /><path clip-path="url(#clip400)" d="M2062.37 37.5368 L2078.69 37.5368 L2078.69 41.472 L2056.75 41.472 L2056.75 37.5368 Q2059.41 34.7822 2063.99 30.1526 Q2068.6 25.4999 2069.78 24.1573 Q2072.02 21.6341 2072.9 19.898 Q2073.81 18.1388 2073.81 16.449 Q2073.81 13.6944 2071.86 11.9583 Q2069.94 10.2222 2066.84 10.2222 Q2064.64 10.2222 2062.19 10.9861 Q2059.76 11.7499 2056.98 13.3009 L2056.98 8.57866 Q2059.8 7.4444 2062.26 6.8657 Q2064.71 6.287 2066.75 6.287 Q2072.12 6.287 2075.31 8.97217 Q2078.51 11.6573 2078.51 16.1481 Q2078.51 18.2777 2077.7 20.199 Q2076.91 22.0971 2074.8 24.6897 Q2074.22 25.361 2071.12 28.5786 Q2068.02 31.773 2062.37 37.5368 Z" fill="#000000" fill-rule="nonzero" fill-opacity="1" /><path clip-path="url(#clip400)" d="M2098.51 9.99069 Q2094.89 9.99069 2093.07 13.5555 Q2091.26 17.0971 2091.26 24.2267 Q2091.26 31.3332 2093.07 34.898 Q2094.89 38.4396 2098.51 38.4396 Q2102.14 38.4396 2103.95 34.898 Q2105.77 31.3332 2105.77 24.2267 Q2105.77 17.0971 2103.95 13.5555 Q2102.14 9.99069 2098.51 9.99069 M2098.51 6.287 Q2104.32 6.287 2107.37 10.8935 Q2110.45 15.4768 2110.45 24.2267 Q2110.45 32.9535 2107.37 37.56 Q2104.32 42.1433 2098.51 42.1433 Q2092.7 42.1433 2089.62 37.56 Q2086.56 32.9535 2086.56 24.2267 Q2086.56 15.4768 2089.62 10.8935 Q2092.7 6.287 2098.51 6.287 Z" fill="#000000" fill-rule="nonzero" fill-opacity="1" /><path clip-path="url(#clip400)" d="M2128.67 9.99069 Q2125.06 9.99069 2123.23 13.5555 Q2121.42 17.0971 2121.42 24.2267 Q2121.42 31.3332 2123.23 34.898 Q2125.06 38.4396 2128.67 38.4396 Q2132.3 38.4396 2134.11 34.898 Q2135.94 31.3332 2135.94 24.2267 Q2135.94 17.0971 2134.11 13.5555 Q2132.3 9.99069 2128.67 9.99069 M2128.67 6.287 Q2134.48 6.287 2137.53 10.8935 Q2140.61 15.4768 2140.61 24.2267 Q2140.61 32.9535 2137.53 37.56 Q2134.48 42.1433 2128.67 42.1433 Q2122.86 42.1433 2119.78 37.56 Q2116.72 32.9535 2116.72 24.2267 Q2116.72 15.4768 2119.78 10.8935 Q2122.86 6.287 2128.67 6.287 Z" fill="#000000" fill-rule="nonzero" fill-opacity="1" /><path clip-path="url(#clip400)" d="M2174.08 43.8794 Q2172.28 48.509 2170.57 49.921 Q2168.85 51.3331 2165.98 51.3331 L2162.58 51.3331 L2162.58 47.7683 L2165.08 47.7683 Q2166.84 47.7683 2167.81 46.9349 Q2168.78 46.1016 2169.96 42.9998 L2170.73 41.0553 L2160.24 15.5462 L2164.76 15.5462 L2172.86 35.8239 L2180.96 15.5462 L2185.47 15.5462 L2174.08 43.8794 Z" fill="#000000" fill-rule="nonzero" fill-opacity="1" /><path clip-path="url(#clip400)" d="M2203.23 27.4906 Q2206.1 28.0461 2207.7 29.736 Q2209.29 31.4258 2209.29 33.9257 Q2209.29 37.9304 2206.31 40.0368 Q2203.32 42.1433 2197.81 42.1433 Q2195.96 42.1433 2193.99 41.8192 Q2192.05 41.4951 2189.96 40.847 L2189.96 36.8887 Q2191.61 37.7452 2193.57 38.185 Q2195.54 38.6016 2197.7 38.6016 Q2201.19 38.6016 2203.13 37.3054 Q2205.1 36.0091 2205.1 33.9257 Q2205.1 31.8887 2203.37 30.6619 Q2201.63 29.4119 2198.46 29.4119 L2195.03 29.4119 L2195.03 25.8934 L2198.62 25.8934 Q2201.31 25.8934 2202.86 24.8749 Q2204.43 23.8332 2204.43 22.2128 Q2204.43 20.7314 2202.81 19.6666 Q2201.21 18.6018 2198.46 18.6018 Q2196.82 18.6018 2194.94 18.9027 Q2193.09 19.2036 2190.84 19.8749 L2190.84 16.0092 Q2193.11 15.4536 2195.08 15.1758 Q2197.05 14.8981 2198.81 14.8981 Q2203.34 14.8981 2205.96 16.7268 Q2208.6 18.5323 2208.6 21.7962 Q2208.6 23.9489 2207.21 25.4536 Q2205.82 26.935 2203.23 27.4906 Z" fill="#000000" fill-rule="nonzero" fill-opacity="1" /><path clip-path="url(#clip400)" d="M2213.85 41.472 L2213.85 37.9304 Q2218.07 37.2822 2219.36 34.3656 Q2220.94 30.2684 2220.94 19.7823 L2220.94 15.5462 L2238.46 15.5462 L2238.46 41.472 L2234.2 41.472 L2234.2 18.949 L2225.19 18.949 L2225.19 21.5184 Q2225.19 31.5183 2223.16 36.0091 Q2220.98 40.8007 2213.85 41.472 Z" fill="#000000" fill-rule="nonzero" fill-opacity="1" /><path clip-path="url(#clip400)" d="M2256.91 18.5323 Q2253.48 18.5323 2251.49 21.2175 Q2249.5 23.8795 2249.5 28.5323 Q2249.5 33.185 2251.47 35.8702 Q2253.46 38.5322 2256.91 38.5322 Q2260.31 38.5322 2262.3 35.847 Q2264.29 33.1619 2264.29 28.5323 Q2264.29 23.9258 2262.3 21.2406 Q2260.31 18.5323 2256.91 18.5323 M2256.91 14.9212 Q2262.46 14.9212 2265.63 18.5323 Q2268.81 22.1434 2268.81 28.5323 Q2268.81 34.898 2265.63 38.5322 Q2262.46 42.1433 2256.91 42.1433 Q2251.33 42.1433 2248.16 38.5322 Q2245.01 34.898 2245.01 28.5323 Q2245.01 22.1434 2248.16 18.5323 Q2251.33 14.9212 2256.91 14.9212 Z" fill="#000000" fill-rule="nonzero" fill-opacity="1" /><path clip-path="url(#clip400)" d="M2279.96 29.5276 L2279.96 38.0692 L2286.03 38.0692 Q2288.94 38.0692 2290.47 36.9813 Q2292 35.8702 2292 33.7869 Q2292 31.7035 2290.47 30.6156 Q2288.94 29.5276 2286.03 29.5276 L2279.96 29.5276 M2279.96 18.949 L2279.96 26.1249 L2285.56 26.1249 Q2287.97 26.1249 2289.5 25.1758 Q2291.03 24.2036 2291.03 22.4906 Q2291.03 20.7777 2289.5 19.8749 Q2287.97 18.949 2285.56 18.949 L2279.96 18.949 M2275.7 15.5462 L2285.84 15.5462 Q2290.4 15.5462 2292.86 17.2129 Q2295.31 18.8795 2295.31 21.9582 Q2295.31 24.3425 2294.06 25.7545 Q2292.81 27.1434 2290.36 27.4906 Q2293.3 28.0461 2294.92 29.8054 Q2296.54 31.5646 2296.54 34.2035 Q2296.54 37.6757 2293.85 39.5739 Q2291.19 41.472 2286.24 41.472 L2275.7 41.472 L2275.7 15.5462 Z" fill="#000000" fill-rule="nonzero" fill-opacity="1" /><path clip-path="url(#clip400)" d="M2303.13 5.49997 L2306.84 5.49997 Q2310.31 10.9629 2312.02 16.1944 Q2313.76 21.4258 2313.76 26.5878 Q2313.76 31.773 2312.02 37.0276 Q2310.31 42.2822 2306.84 47.722 L2303.13 47.722 Q2306.21 42.4211 2307.72 37.1896 Q2309.25 31.935 2309.25 26.5878 Q2309.25 21.2406 2307.72 16.0323 Q2306.21 10.824 2303.13 5.49997 Z" fill="#000000" fill-rule="nonzero" fill-opacity="1" /><polyline clip-path="url(#clip402)" style="stroke:#009af9; stroke-linecap:round; stroke-linejoin:round; stroke-width:4; stroke-opacity:1; fill:none" points="338.038,1385.66 357.796,775.028 377.554,135.07 397.312,244.74 417.07,383.955 436.828,700.731 456.585,513.877 476.343,1005.61 496.101,943.438 515.859,705.271 535.617,658.791 555.375,661.892 575.133,481.692 594.891,718.749 614.649,514.956 634.407,813.753 654.165,462.058 673.923,607.922 693.681,528.07 713.439,837.916 733.197,745.922 752.955,509.124 772.713,750.292 792.471,763.915 812.229,548.5 831.987,557.293 851.744,757.855 871.502,718.795 891.26,601.565 911.018,625.772 930.776,613.298 950.534,952.947 970.292,672.175 990.05,677.347 1009.81,487.874 1029.57,788.564 1049.32,742.95 1069.08,780.074 1088.84,631.248 1108.6,676.852 1128.36,670.171 1148.11,592.884 1167.87,715.474 1187.63,546.285 1207.39,700.227 1227.15,656.091 1246.9,623.601 1266.66,631.481 1286.42,546.375 1306.18,648.321 1325.94,610.924 1345.69,608.487 1365.45,385.875 1385.21,614.844 1404.97,624.817 1424.73,458.193 1444.48,541.035 1464.24,578.558 1484,702.664 1503.76,631.745 1523.51,508.458 1543.27,677.257 1563.03,629.434 1582.79,596.152 1602.55,684.151 1622.3,659.591 1642.06,580.565 1661.82,751.199 1681.58,604.08 1701.34,636.99 1721.09,602.601 1740.85,842.655 1760.61,538.98 1780.37,725.768 1800.13,656.439 1819.88,640.414 1839.64,555.689 1859.4,581.028 1879.16,693.856 1898.92,584.989 1918.67,696.859 1938.43,596.673 1958.19,686.01 1977.95,630.358 1997.71,546.762 2017.46,615.391 2037.22,508.047 2056.98,799.665 2076.74,676.716 2096.5,593.122 2116.25,646.155 2136.01,647.429 2155.77,651.883 2175.53,622.174 2195.29,669.429 2215.04,661.295 2234.8,636.633 2254.56,560.417 2274.32,725.994 2294.07,630.118 "/>
</svg>
