<?xml version="1.0" encoding="utf-8"?>
<svg xmlns="http://www.w3.org/2000/svg" xmlns:xlink="http://www.w3.org/1999/xlink" width="900" height="650" viewBox="0 0 3600 2600">
<defs>
  <clipPath id="clip080">
    <rect x="0" y="0" width="3600" height="2600"/>
  </clipPath>
</defs>
<path clip-path="url(#clip080)" d="M0 2600 L3600 2600 L3600 0 L0 0  Z" fill="#7f7f7f" fill-rule="evenodd" fill-opacity="1"/>
<defs>
  <clipPath id="clip081">
    <rect x="720" y="0" width="2521" height="2521"/>
  </clipPath>
</defs>
<defs>
  <clipPath id="clip082">
    <rect x="233" y="133" width="3320" height="2261"/>
  </clipPath>
</defs>
<path clip-path="url(#clip080)" d="M233.743 2393.03 L3552.76 2393.03 L3552.76 133.192 L233.743 133.192  Z" fill="#7f7f7f" fill-rule="evenodd" fill-opacity="1"/>
<polyline clip-path="url(#clip082)" style="stroke:#ffffff; stroke-linecap:round; stroke-linejoin:round; stroke-width:2; stroke-opacity:0.5; fill:none" points="548.764,2393.03 548.764,133.192 "/>
<polyline clip-path="url(#clip082)" style="stroke:#ffffff; stroke-linecap:round; stroke-linejoin:round; stroke-width:2; stroke-opacity:0.5; fill:none" points="2582.44,2393.03 2582.44,133.192 "/>
<polyline clip-path="url(#clip082)" style="stroke:#ffffff; stroke-linecap:round; stroke-linejoin:round; stroke-width:2; stroke-opacity:0.3; fill:none" points="233.743,2393.03 233.743,133.192 "/>
<polyline clip-path="url(#clip082)" style="stroke:#ffffff; stroke-linecap:round; stroke-linejoin:round; stroke-width:2; stroke-opacity:0.3; fill:none" points="351.68,2393.03 351.68,133.192 "/>
<polyline clip-path="url(#clip082)" style="stroke:#ffffff; stroke-linecap:round; stroke-linejoin:round; stroke-width:2; stroke-opacity:0.3; fill:none" points="455.708,2393.03 455.708,133.192 "/>
<polyline clip-path="url(#clip082)" style="stroke:#ffffff; stroke-linecap:round; stroke-linejoin:round; stroke-width:2; stroke-opacity:0.3; fill:none" points="1160.96,2393.03 1160.96,133.192 "/>
<polyline clip-path="url(#clip082)" style="stroke:#ffffff; stroke-linecap:round; stroke-linejoin:round; stroke-width:2; stroke-opacity:0.3; fill:none" points="1519.08,2393.03 1519.08,133.192 "/>
<polyline clip-path="url(#clip082)" style="stroke:#ffffff; stroke-linecap:round; stroke-linejoin:round; stroke-width:2; stroke-opacity:0.3; fill:none" points="1773.16,2393.03 1773.16,133.192 "/>
<polyline clip-path="url(#clip082)" style="stroke:#ffffff; stroke-linecap:round; stroke-linejoin:round; stroke-width:2; stroke-opacity:0.3; fill:none" points="1970.25,2393.03 1970.25,133.192 "/>
<polyline clip-path="url(#clip082)" style="stroke:#ffffff; stroke-linecap:round; stroke-linejoin:round; stroke-width:2; stroke-opacity:0.3; fill:none" points="2131.27,2393.03 2131.27,133.192 "/>
<polyline clip-path="url(#clip082)" style="stroke:#ffffff; stroke-linecap:round; stroke-linejoin:round; stroke-width:2; stroke-opacity:0.3; fill:none" points="2267.42,2393.03 2267.42,133.192 "/>
<polyline clip-path="url(#clip082)" style="stroke:#ffffff; stroke-linecap:round; stroke-linejoin:round; stroke-width:2; stroke-opacity:0.3; fill:none" points="2385.36,2393.03 2385.36,133.192 "/>
<polyline clip-path="url(#clip082)" style="stroke:#ffffff; stroke-linecap:round; stroke-linejoin:round; stroke-width:2; stroke-opacity:0.3; fill:none" points="2489.39,2393.03 2489.39,133.192 "/>
<polyline clip-path="url(#clip082)" style="stroke:#ffffff; stroke-linecap:round; stroke-linejoin:round; stroke-width:2; stroke-opacity:0.3; fill:none" points="3194.64,2393.03 3194.64,133.192 "/>
<polyline clip-path="url(#clip082)" style="stroke:#ffffff; stroke-linecap:round; stroke-linejoin:round; stroke-width:2; stroke-opacity:0.3; fill:none" points="3552.76,2393.03 3552.76,133.192 "/>
<polyline clip-path="url(#clip080)" style="stroke:#ffffff; stroke-linecap:round; stroke-linejoin:round; stroke-width:4; stroke-opacity:1; fill:none" points="233.743,2393.03 3552.76,2393.03 "/>
<polyline clip-path="url(#clip080)" style="stroke:#ffffff; stroke-linecap:round; stroke-linejoin:round; stroke-width:4; stroke-opacity:1; fill:none" points="548.764,2393.03 548.764,2374.14 "/>
<polyline clip-path="url(#clip080)" style="stroke:#ffffff; stroke-linecap:round; stroke-linejoin:round; stroke-width:4; stroke-opacity:1; fill:none" points="2582.44,2393.03 2582.44,2374.14 "/>
<polyline clip-path="url(#clip080)" style="stroke:#ffffff; stroke-linecap:round; stroke-linejoin:round; stroke-width:4; stroke-opacity:1; fill:none" points="233.743,2393.03 233.743,2383.58 "/>
<polyline clip-path="url(#clip080)" style="stroke:#ffffff; stroke-linecap:round; stroke-linejoin:round; stroke-width:4; stroke-opacity:1; fill:none" points="351.68,2393.03 351.68,2383.58 "/>
<polyline clip-path="url(#clip080)" style="stroke:#ffffff; stroke-linecap:round; stroke-linejoin:round; stroke-width:4; stroke-opacity:1; fill:none" points="455.708,2393.03 455.708,2383.58 "/>
<polyline clip-path="url(#clip080)" style="stroke:#ffffff; stroke-linecap:round; stroke-linejoin:round; stroke-width:4; stroke-opacity:1; fill:none" points="1160.96,2393.03 1160.96,2383.58 "/>
<polyline clip-path="url(#clip080)" style="stroke:#ffffff; stroke-linecap:round; stroke-linejoin:round; stroke-width:4; stroke-opacity:1; fill:none" points="1519.08,2393.03 1519.08,2383.58 "/>
<polyline clip-path="url(#clip080)" style="stroke:#ffffff; stroke-linecap:round; stroke-linejoin:round; stroke-width:4; stroke-opacity:1; fill:none" points="1773.16,2393.03 1773.16,2383.58 "/>
<polyline clip-path="url(#clip080)" style="stroke:#ffffff; stroke-linecap:round; stroke-linejoin:round; stroke-width:4; stroke-opacity:1; fill:none" points="1970.25,2393.03 1970.25,2383.58 "/>
<polyline clip-path="url(#clip080)" style="stroke:#ffffff; stroke-linecap:round; stroke-linejoin:round; stroke-width:4; stroke-opacity:1; fill:none" points="2131.27,2393.03 2131.27,2383.58 "/>
<polyline clip-path="url(#clip080)" style="stroke:#ffffff; stroke-linecap:round; stroke-linejoin:round; stroke-width:4; stroke-opacity:1; fill:none" points="2267.42,2393.03 2267.42,2383.58 "/>
<polyline clip-path="url(#clip080)" style="stroke:#ffffff; stroke-linecap:round; stroke-linejoin:round; stroke-width:4; stroke-opacity:1; fill:none" points="2385.36,2393.03 2385.36,2383.58 "/>
<polyline clip-path="url(#clip080)" style="stroke:#ffffff; stroke-linecap:round; stroke-linejoin:round; stroke-width:4; stroke-opacity:1; fill:none" points="2489.39,2393.03 2489.39,2383.58 "/>
<polyline clip-path="url(#clip080)" style="stroke:#ffffff; stroke-linecap:round; stroke-linejoin:round; stroke-width:4; stroke-opacity:1; fill:none" points="3194.64,2393.03 3194.64,2383.58 "/>
<polyline clip-path="url(#clip080)" style="stroke:#ffffff; stroke-linecap:round; stroke-linejoin:round; stroke-width:4; stroke-opacity:1; fill:none" points="3552.76,2393.03 3552.76,2383.58 "/>
<path clip-path="url(#clip080)" d="M515.092 2476.76 L522.73 2476.76 L522.73 2450.39 L514.42 2452.06 L514.42 2447.8 L522.684 2446.13 L527.36 2446.13 L527.36 2476.76 L534.999 2476.76 L534.999 2480.69 L515.092 2480.69 L515.092 2476.76 Z" fill="#ffffff" fill-rule="nonzero" fill-opacity="1" /><path clip-path="url(#clip080)" d="M554.443 2449.21 Q550.832 2449.21 549.003 2452.78 Q547.198 2456.32 547.198 2463.45 Q547.198 2470.55 549.003 2474.12 Q550.832 2477.66 554.443 2477.66 Q558.077 2477.66 559.883 2474.12 Q561.712 2470.55 561.712 2463.45 Q561.712 2456.32 559.883 2452.78 Q558.077 2449.21 554.443 2449.21 M554.443 2445.51 Q560.253 2445.51 563.309 2450.11 Q566.388 2454.7 566.388 2463.45 Q566.388 2472.17 563.309 2476.78 Q560.253 2481.36 554.443 2481.36 Q548.633 2481.36 545.554 2476.78 Q542.499 2472.17 542.499 2463.45 Q542.499 2454.7 545.554 2450.11 Q548.633 2445.51 554.443 2445.51 Z" fill="#ffffff" fill-rule="nonzero" fill-opacity="1" /><path clip-path="url(#clip080)" d="M566.933 2450.09 L573.14 2450.09 L573.14 2428.66 L566.388 2430.02 L566.388 2426.56 L573.102 2425.2 L576.901 2425.2 L576.901 2450.09 L583.108 2450.09 L583.108 2453.28 L566.933 2453.28 L566.933 2450.09 Z" fill="#ffffff" fill-rule="nonzero" fill-opacity="1" /><path clip-path="url(#clip080)" d="M2548.22 2476.76 L2555.86 2476.76 L2555.86 2450.39 L2547.55 2452.06 L2547.55 2447.8 L2555.81 2446.13 L2560.49 2446.13 L2560.49 2476.76 L2568.12 2476.76 L2568.12 2480.69 L2548.22 2480.69 L2548.22 2476.76 Z" fill="#ffffff" fill-rule="nonzero" fill-opacity="1" /><path clip-path="url(#clip080)" d="M2587.57 2449.21 Q2583.96 2449.21 2582.13 2452.78 Q2580.32 2456.32 2580.32 2463.45 Q2580.32 2470.55 2582.13 2474.12 Q2583.96 2477.66 2587.57 2477.66 Q2591.2 2477.66 2593.01 2474.12 Q2594.84 2470.55 2594.84 2463.45 Q2594.84 2456.32 2593.01 2452.78 Q2591.2 2449.21 2587.57 2449.21 M2587.57 2445.51 Q2593.38 2445.51 2596.43 2450.11 Q2599.51 2454.7 2599.51 2463.45 Q2599.51 2472.17 2596.43 2476.78 Q2593.38 2481.36 2587.57 2481.36 Q2581.76 2481.36 2578.68 2476.78 Q2575.62 2472.17 2575.62 2463.45 Q2575.62 2454.7 2578.68 2450.11 Q2581.76 2445.51 2587.57 2445.51 Z" fill="#ffffff" fill-rule="nonzero" fill-opacity="1" /><path clip-path="url(#clip080)" d="M2604.08 2450.09 L2617.34 2450.09 L2617.34 2453.28 L2599.51 2453.28 L2599.51 2450.09 Q2601.68 2447.85 2605.4 2444.09 Q2609.14 2440.31 2610.1 2439.21 Q2611.93 2437.16 2612.64 2435.75 Q2613.37 2434.32 2613.37 2432.95 Q2613.37 2430.71 2611.79 2429.3 Q2610.23 2427.89 2607.71 2427.89 Q2605.93 2427.89 2603.93 2428.51 Q2601.96 2429.13 2599.7 2430.39 L2599.7 2426.56 Q2602 2425.64 2603.99 2425.17 Q2605.98 2424.69 2607.64 2424.69 Q2612 2424.69 2614.6 2426.88 Q2617.19 2429.06 2617.19 2432.71 Q2617.19 2434.44 2616.53 2436 Q2615.89 2437.54 2614.18 2439.65 Q2613.71 2440.19 2611.19 2442.81 Q2608.67 2445.4 2604.08 2450.09 Z" fill="#ffffff" fill-rule="nonzero" fill-opacity="1" /><path clip-path="url(#clip080)" d="M1922.55 2523.81 Q1922.55 2525.13 1921.43 2525.13 Q1917.79 2525.26 1916.31 2526.48 Q1914.86 2527.67 1914.31 2529.99 L1905.1 2566.74 Q1904.78 2567.9 1904.58 2568.03 Q1904.39 2568.12 1904.04 2568.12 Q1903.59 2568.12 1903.33 2567.9 Q1903.1 2567.67 1902.78 2566.87 L1886.36 2528.03 Q1886.23 2527.77 1886.07 2527.41 Q1885.9 2527.06 1885.78 2526.83 L1877.05 2561.65 Q1876.79 2562.65 1876.79 2563.16 Q1876.79 2564.42 1877.66 2565.22 Q1878.56 2566 1881.14 2566.09 Q1882.46 2566.09 1882.46 2566.8 Q1882.46 2568.12 1881.27 2568.12 Q1880.17 2568.12 1877.89 2568.03 Q1875.6 2567.93 1874.47 2567.93 Q1873.38 2567.93 1871.15 2568.03 Q1868.93 2568.12 1867.87 2568.12 Q1867.03 2568.12 1867.03 2567.38 Q1867.03 2566.8 1867.26 2566.51 Q1867.48 2566.19 1867.68 2566.16 Q1867.87 2566.09 1868.16 2566.09 Q1870.09 2566.03 1871.41 2565.64 Q1872.73 2565.26 1873.47 2564.52 Q1874.25 2563.77 1874.6 2563.03 Q1874.99 2562.26 1875.28 2561.13 L1884.1 2525.71 Q1884.1 2525.13 1879.62 2525.13 Q1878.85 2525.13 1878.53 2525.1 Q1878.24 2525.06 1878.01 2524.9 Q1877.79 2524.74 1877.79 2524.39 Q1877.79 2523.49 1878.18 2523.29 Q1878.56 2523.07 1879.69 2523.07 L1888.55 2523.07 Q1889.67 2523.07 1889.96 2523.26 Q1890.25 2523.42 1890.64 2524.32 L1905.23 2558.75 L1912.6 2529.41 Q1912.8 2528.83 1912.8 2528.03 Q1912.8 2526.74 1911.83 2525.96 Q1910.9 2525.16 1908.32 2525.13 Q1907.13 2525.13 1907.13 2524.39 Q1907.13 2523.77 1907.35 2523.49 Q1907.61 2523.16 1907.8 2523.13 Q1908.03 2523.07 1908.32 2523.07 Q1909.41 2523.07 1911.67 2523.16 Q1913.92 2523.26 1915.05 2523.26 Q1916.15 2523.26 1918.37 2523.16 Q1920.62 2523.07 1921.72 2523.07 Q1922.1 2523.07 1922.3 2523.26 Q1922.52 2523.42 1922.55 2523.61 L1922.55 2523.81 Z" fill="#ffffff" fill-rule="nonzero" fill-opacity="1" /><polyline clip-path="url(#clip082)" style="stroke:#ffffff; stroke-linecap:round; stroke-linejoin:round; stroke-width:2; stroke-opacity:0.5; fill:none" points="233.743,2285.42 3552.76,2285.42 "/>
<polyline clip-path="url(#clip082)" style="stroke:#ffffff; stroke-linecap:round; stroke-linejoin:round; stroke-width:2; stroke-opacity:0.5; fill:none" points="233.743,1747.36 3552.76,1747.36 "/>
<polyline clip-path="url(#clip082)" style="stroke:#ffffff; stroke-linecap:round; stroke-linejoin:round; stroke-width:2; stroke-opacity:0.5; fill:none" points="233.743,1209.31 3552.76,1209.31 "/>
<polyline clip-path="url(#clip082)" style="stroke:#ffffff; stroke-linecap:round; stroke-linejoin:round; stroke-width:2; stroke-opacity:0.5; fill:none" points="233.743,671.249 3552.76,671.249 "/>
<polyline clip-path="url(#clip082)" style="stroke:#ffffff; stroke-linecap:round; stroke-linejoin:round; stroke-width:2; stroke-opacity:0.5; fill:none" points="233.743,133.192 3552.76,133.192 "/>
<polyline clip-path="url(#clip082)" style="stroke:#ffffff; stroke-linecap:round; stroke-linejoin:round; stroke-width:2; stroke-opacity:0.3; fill:none" points="233.743,2393.03 3552.76,2393.03 "/>
<polyline clip-path="url(#clip082)" style="stroke:#ffffff; stroke-linecap:round; stroke-linejoin:round; stroke-width:2; stroke-opacity:0.3; fill:none" points="233.743,2177.81 3552.76,2177.81 "/>
<polyline clip-path="url(#clip082)" style="stroke:#ffffff; stroke-linecap:round; stroke-linejoin:round; stroke-width:2; stroke-opacity:0.3; fill:none" points="233.743,2070.2 3552.76,2070.2 "/>
<polyline clip-path="url(#clip082)" style="stroke:#ffffff; stroke-linecap:round; stroke-linejoin:round; stroke-width:2; stroke-opacity:0.3; fill:none" points="233.743,1962.59 3552.76,1962.59 "/>
<polyline clip-path="url(#clip082)" style="stroke:#ffffff; stroke-linecap:round; stroke-linejoin:round; stroke-width:2; stroke-opacity:0.3; fill:none" points="233.743,1854.98 3552.76,1854.98 "/>
<polyline clip-path="url(#clip082)" style="stroke:#ffffff; stroke-linecap:round; stroke-linejoin:round; stroke-width:2; stroke-opacity:0.3; fill:none" points="233.743,1639.75 3552.76,1639.75 "/>
<polyline clip-path="url(#clip082)" style="stroke:#ffffff; stroke-linecap:round; stroke-linejoin:round; stroke-width:2; stroke-opacity:0.3; fill:none" points="233.743,1532.14 3552.76,1532.14 "/>
<polyline clip-path="url(#clip082)" style="stroke:#ffffff; stroke-linecap:round; stroke-linejoin:round; stroke-width:2; stroke-opacity:0.3; fill:none" points="233.743,1424.53 3552.76,1424.53 "/>
<polyline clip-path="url(#clip082)" style="stroke:#ffffff; stroke-linecap:round; stroke-linejoin:round; stroke-width:2; stroke-opacity:0.3; fill:none" points="233.743,1316.92 3552.76,1316.92 "/>
<polyline clip-path="url(#clip082)" style="stroke:#ffffff; stroke-linecap:round; stroke-linejoin:round; stroke-width:2; stroke-opacity:0.3; fill:none" points="233.743,1101.7 3552.76,1101.7 "/>
<polyline clip-path="url(#clip082)" style="stroke:#ffffff; stroke-linecap:round; stroke-linejoin:round; stroke-width:2; stroke-opacity:0.3; fill:none" points="233.743,994.084 3552.76,994.084 "/>
<polyline clip-path="url(#clip082)" style="stroke:#ffffff; stroke-linecap:round; stroke-linejoin:round; stroke-width:2; stroke-opacity:0.3; fill:none" points="233.743,886.472 3552.76,886.472 "/>
<polyline clip-path="url(#clip082)" style="stroke:#ffffff; stroke-linecap:round; stroke-linejoin:round; stroke-width:2; stroke-opacity:0.3; fill:none" points="233.743,778.861 3552.76,778.861 "/>
<polyline clip-path="url(#clip082)" style="stroke:#ffffff; stroke-linecap:round; stroke-linejoin:round; stroke-width:2; stroke-opacity:0.3; fill:none" points="233.743,563.638 3552.76,563.638 "/>
<polyline clip-path="url(#clip082)" style="stroke:#ffffff; stroke-linecap:round; stroke-linejoin:round; stroke-width:2; stroke-opacity:0.3; fill:none" points="233.743,456.027 3552.76,456.027 "/>
<polyline clip-path="url(#clip082)" style="stroke:#ffffff; stroke-linecap:round; stroke-linejoin:round; stroke-width:2; stroke-opacity:0.3; fill:none" points="233.743,348.415 3552.76,348.415 "/>
<polyline clip-path="url(#clip082)" style="stroke:#ffffff; stroke-linecap:round; stroke-linejoin:round; stroke-width:2; stroke-opacity:0.3; fill:none" points="233.743,240.804 3552.76,240.804 "/>
<polyline clip-path="url(#clip080)" style="stroke:#ffffff; stroke-linecap:round; stroke-linejoin:round; stroke-width:4; stroke-opacity:1; fill:none" points="233.743,2393.03 233.743,133.192 "/>
<polyline clip-path="url(#clip080)" style="stroke:#ffffff; stroke-linecap:round; stroke-linejoin:round; stroke-width:4; stroke-opacity:1; fill:none" points="233.743,2285.42 252.641,2285.42 "/>
<polyline clip-path="url(#clip080)" style="stroke:#ffffff; stroke-linecap:round; stroke-linejoin:round; stroke-width:4; stroke-opacity:1; fill:none" points="233.743,1747.36 252.641,1747.36 "/>
<polyline clip-path="url(#clip080)" style="stroke:#ffffff; stroke-linecap:round; stroke-linejoin:round; stroke-width:4; stroke-opacity:1; fill:none" points="233.743,1209.31 252.641,1209.31 "/>
<polyline clip-path="url(#clip080)" style="stroke:#ffffff; stroke-linecap:round; stroke-linejoin:round; stroke-width:4; stroke-opacity:1; fill:none" points="233.743,671.249 252.641,671.249 "/>
<polyline clip-path="url(#clip080)" style="stroke:#ffffff; stroke-linecap:round; stroke-linejoin:round; stroke-width:4; stroke-opacity:1; fill:none" points="233.743,133.192 252.641,133.192 "/>
<polyline clip-path="url(#clip080)" style="stroke:#ffffff; stroke-linecap:round; stroke-linejoin:round; stroke-width:4; stroke-opacity:1; fill:none" points="233.743,2393.03 243.192,2393.03 "/>
<polyline clip-path="url(#clip080)" style="stroke:#ffffff; stroke-linecap:round; stroke-linejoin:round; stroke-width:4; stroke-opacity:1; fill:none" points="233.743,2177.81 243.192,2177.81 "/>
<polyline clip-path="url(#clip080)" style="stroke:#ffffff; stroke-linecap:round; stroke-linejoin:round; stroke-width:4; stroke-opacity:1; fill:none" points="233.743,2070.2 243.192,2070.2 "/>
<polyline clip-path="url(#clip080)" style="stroke:#ffffff; stroke-linecap:round; stroke-linejoin:round; stroke-width:4; stroke-opacity:1; fill:none" points="233.743,1962.59 243.192,1962.59 "/>
<polyline clip-path="url(#clip080)" style="stroke:#ffffff; stroke-linecap:round; stroke-linejoin:round; stroke-width:4; stroke-opacity:1; fill:none" points="233.743,1854.98 243.192,1854.98 "/>
<polyline clip-path="url(#clip080)" style="stroke:#ffffff; stroke-linecap:round; stroke-linejoin:round; stroke-width:4; stroke-opacity:1; fill:none" points="233.743,1639.75 243.192,1639.75 "/>
<polyline clip-path="url(#clip080)" style="stroke:#ffffff; stroke-linecap:round; stroke-linejoin:round; stroke-width:4; stroke-opacity:1; fill:none" points="233.743,1532.14 243.192,1532.14 "/>
<polyline clip-path="url(#clip080)" style="stroke:#ffffff; stroke-linecap:round; stroke-linejoin:round; stroke-width:4; stroke-opacity:1; fill:none" points="233.743,1424.53 243.192,1424.53 "/>
<polyline clip-path="url(#clip080)" style="stroke:#ffffff; stroke-linecap:round; stroke-linejoin:round; stroke-width:4; stroke-opacity:1; fill:none" points="233.743,1316.92 243.192,1316.92 "/>
<polyline clip-path="url(#clip080)" style="stroke:#ffffff; stroke-linecap:round; stroke-linejoin:round; stroke-width:4; stroke-opacity:1; fill:none" points="233.743,1101.7 243.192,1101.7 "/>
<polyline clip-path="url(#clip080)" style="stroke:#ffffff; stroke-linecap:round; stroke-linejoin:round; stroke-width:4; stroke-opacity:1; fill:none" points="233.743,994.084 243.192,994.084 "/>
<polyline clip-path="url(#clip080)" style="stroke:#ffffff; stroke-linecap:round; stroke-linejoin:round; stroke-width:4; stroke-opacity:1; fill:none" points="233.743,886.472 243.192,886.472 "/>
<polyline clip-path="url(#clip080)" style="stroke:#ffffff; stroke-linecap:round; stroke-linejoin:round; stroke-width:4; stroke-opacity:1; fill:none" points="233.743,778.861 243.192,778.861 "/>
<polyline clip-path="url(#clip080)" style="stroke:#ffffff; stroke-linecap:round; stroke-linejoin:round; stroke-width:4; stroke-opacity:1; fill:none" points="233.743,563.638 243.192,563.638 "/>
<polyline clip-path="url(#clip080)" style="stroke:#ffffff; stroke-linecap:round; stroke-linejoin:round; stroke-width:4; stroke-opacity:1; fill:none" points="233.743,456.027 243.192,456.027 "/>
<polyline clip-path="url(#clip080)" style="stroke:#ffffff; stroke-linecap:round; stroke-linejoin:round; stroke-width:4; stroke-opacity:1; fill:none" points="233.743,348.415 243.192,348.415 "/>
<polyline clip-path="url(#clip080)" style="stroke:#ffffff; stroke-linecap:round; stroke-linejoin:round; stroke-width:4; stroke-opacity:1; fill:none" points="233.743,240.804 243.192,240.804 "/>
<path clip-path="url(#clip080)" d="M114.604 2298.77 L122.243 2298.77 L122.243 2272.4 L113.933 2274.07 L113.933 2269.81 L122.197 2268.14 L126.873 2268.14 L126.873 2298.77 L134.512 2298.77 L134.512 2302.7 L114.604 2302.7 L114.604 2298.77 Z" fill="#ffffff" fill-rule="nonzero" fill-opacity="1" /><path clip-path="url(#clip080)" d="M143.956 2296.82 L148.84 2296.82 L148.84 2302.7 L143.956 2302.7 L143.956 2296.82 Z" fill="#ffffff" fill-rule="nonzero" fill-opacity="1" /><path clip-path="url(#clip080)" d="M159.836 2298.77 L167.474 2298.77 L167.474 2272.4 L159.164 2274.07 L159.164 2269.81 L167.428 2268.14 L172.104 2268.14 L172.104 2298.77 L179.743 2298.77 L179.743 2302.7 L159.836 2302.7 L159.836 2298.77 Z" fill="#ffffff" fill-rule="nonzero" fill-opacity="1" /><path clip-path="url(#clip080)" d="M114.975 1760.71 L122.614 1760.71 L122.614 1734.34 L114.303 1736.01 L114.303 1731.75 L122.567 1730.08 L127.243 1730.08 L127.243 1760.71 L134.882 1760.71 L134.882 1764.64 L114.975 1764.64 L114.975 1760.71 Z" fill="#ffffff" fill-rule="nonzero" fill-opacity="1" /><path clip-path="url(#clip080)" d="M144.326 1758.76 L149.211 1758.76 L149.211 1764.64 L144.326 1764.64 L144.326 1758.76 Z" fill="#ffffff" fill-rule="nonzero" fill-opacity="1" /><path clip-path="url(#clip080)" d="M163.424 1760.71 L179.743 1760.71 L179.743 1764.64 L157.799 1764.64 L157.799 1760.71 Q160.461 1757.95 165.044 1753.32 Q169.65 1748.67 170.831 1747.33 Q173.076 1744.81 173.956 1743.07 Q174.859 1741.31 174.859 1739.62 Q174.859 1736.87 172.914 1735.13 Q170.993 1733.39 167.891 1733.39 Q165.692 1733.39 163.238 1734.16 Q160.808 1734.92 158.03 1736.47 L158.03 1731.75 Q160.854 1730.62 163.308 1730.04 Q165.762 1729.46 167.799 1729.46 Q173.169 1729.46 176.363 1732.14 Q179.558 1734.83 179.558 1739.32 Q179.558 1741.45 178.748 1743.37 Q177.961 1745.27 175.854 1747.86 Q175.275 1748.53 172.174 1751.75 Q169.072 1754.95 163.424 1760.71 Z" fill="#ffffff" fill-rule="nonzero" fill-opacity="1" /><path clip-path="url(#clip080)" d="M114.026 1222.65 L121.665 1222.65 L121.665 1196.29 L113.354 1197.95 L113.354 1193.69 L121.618 1192.03 L126.294 1192.03 L126.294 1222.65 L133.933 1222.65 L133.933 1226.59 L114.026 1226.59 L114.026 1222.65 Z" fill="#ffffff" fill-rule="nonzero" fill-opacity="1" /><path clip-path="url(#clip080)" d="M143.377 1220.71 L148.262 1220.71 L148.262 1226.59 L143.377 1226.59 L143.377 1220.71 Z" fill="#ffffff" fill-rule="nonzero" fill-opacity="1" /><path clip-path="url(#clip080)" d="M172.613 1207.95 Q175.97 1208.67 177.845 1210.94 Q179.743 1213.21 179.743 1216.54 Q179.743 1221.66 176.224 1224.46 Q172.706 1227.26 166.224 1227.26 Q164.049 1227.26 161.734 1226.82 Q159.442 1226.4 156.988 1225.55 L156.988 1221.03 Q158.933 1222.17 161.248 1222.74 Q163.562 1223.32 166.086 1223.32 Q170.484 1223.32 172.775 1221.59 Q175.09 1219.85 175.09 1216.54 Q175.09 1213.49 172.937 1211.77 Q170.808 1210.04 166.988 1210.04 L162.961 1210.04 L162.961 1206.19 L167.174 1206.19 Q170.623 1206.19 172.451 1204.83 Q174.28 1203.44 174.28 1200.85 Q174.28 1198.18 172.382 1196.77 Q170.507 1195.34 166.988 1195.34 Q165.067 1195.34 162.868 1195.75 Q160.669 1196.17 158.03 1197.05 L158.03 1192.88 Q160.692 1192.14 163.007 1191.77 Q165.345 1191.4 167.405 1191.4 Q172.729 1191.4 175.831 1193.83 Q178.933 1196.24 178.933 1200.36 Q178.933 1203.23 177.289 1205.22 Q175.646 1207.19 172.613 1207.95 Z" fill="#ffffff" fill-rule="nonzero" fill-opacity="1" /><path clip-path="url(#clip080)" d="M112.891 684.594 L120.53 684.594 L120.53 658.229 L112.22 659.895 L112.22 655.636 L120.484 653.969 L125.16 653.969 L125.16 684.594 L132.799 684.594 L132.799 688.529 L112.891 688.529 L112.891 684.594 Z" fill="#ffffff" fill-rule="nonzero" fill-opacity="1" /><path clip-path="url(#clip080)" d="M142.243 682.65 L147.127 682.65 L147.127 688.529 L142.243 688.529 L142.243 682.65 Z" fill="#ffffff" fill-rule="nonzero" fill-opacity="1" /><path clip-path="url(#clip080)" d="M170.16 658.044 L158.354 676.493 L170.16 676.493 L170.16 658.044 M168.933 653.969 L174.812 653.969 L174.812 676.493 L179.743 676.493 L179.743 680.381 L174.812 680.381 L174.812 688.529 L170.16 688.529 L170.16 680.381 L154.558 680.381 L154.558 675.868 L168.933 653.969 Z" fill="#ffffff" fill-rule="nonzero" fill-opacity="1" /><path clip-path="url(#clip080)" d="M114.373 146.537 L122.012 146.537 L122.012 120.171 L113.702 121.838 L113.702 117.579 L121.965 115.912 L126.641 115.912 L126.641 146.537 L134.28 146.537 L134.28 150.472 L114.373 150.472 L114.373 146.537 Z" fill="#ffffff" fill-rule="nonzero" fill-opacity="1" /><path clip-path="url(#clip080)" d="M143.725 144.593 L148.609 144.593 L148.609 150.472 L143.725 150.472 L143.725 144.593 Z" fill="#ffffff" fill-rule="nonzero" fill-opacity="1" /><path clip-path="url(#clip080)" d="M158.84 115.912 L177.197 115.912 L177.197 119.847 L163.123 119.847 L163.123 128.319 Q164.141 127.972 165.16 127.81 Q166.178 127.625 167.197 127.625 Q172.984 127.625 176.363 130.796 Q179.743 133.968 179.743 139.384 Q179.743 144.963 176.271 148.065 Q172.799 151.143 166.479 151.143 Q164.303 151.143 162.035 150.773 Q159.789 150.403 157.382 149.662 L157.382 144.963 Q159.465 146.097 161.687 146.653 Q163.91 147.208 166.387 147.208 Q170.391 147.208 172.729 145.102 Q175.067 142.995 175.067 139.384 Q175.067 135.773 172.729 133.667 Q170.391 131.56 166.387 131.56 Q164.512 131.56 162.637 131.977 Q160.785 132.394 158.84 133.273 L158.84 115.912 Z" fill="#ffffff" fill-rule="nonzero" fill-opacity="1" /><path clip-path="url(#clip080)" d="M21.1282 1244.4 Q23.0606 1244.4 26.4422 1245.14 Q29.8238 1245.85 31.4341 1246.43 Q35.7175 1248.04 39.3245 1251.26 Q41.3213 1253.03 42.7706 1254.97 Q44.1876 1256.87 44.8962 1258.28 Q45.5725 1259.7 45.9267 1261.38 Q46.3132 1263.05 46.3454 1263.82 Q46.4098 1264.6 46.4098 1265.69 L56.2326 1268.2 Q58.7769 1268.72 58.9379 1268.98 Q59.0667 1269.04 59.1311 1269.2 Q59.1956 1269.33 59.1956 1269.46 L59.1956 1269.59 Q59.1956 1269.94 59.0345 1270.14 Q58.8735 1270.33 58.6803 1270.36 L58.5192 1270.36 Q58.0684 1270.36 52.2713 1268.85 Q49.3084 1268.07 46.2488 1267.4 Q45.9267 1272.55 43.6401 1275.74 Q41.3535 1278.9 36.9091 1278.9 Q34.1716 1278.9 25.7659 1275.71 Q21.7401 1274.19 20.0654 1274.19 Q19.3247 1274.19 18.8738 1274.35 Q18.3907 1274.52 18.2297 1274.84 Q18.0365 1275.16 18.0043 1275.35 Q17.9721 1275.51 17.9721 1275.84 Q17.9721 1277.74 19.8722 1279.51 Q21.7723 1281.28 26.1523 1282.5 Q26.9575 1282.76 27.1507 1282.92 Q27.344 1283.08 27.344 1283.57 Q27.3118 1284.37 26.6676 1284.37 Q26.41 1284.37 25.4116 1284.08 Q24.381 1283.79 22.8673 1283.11 Q21.3215 1282.41 19.9366 1281.44 Q18.5196 1280.47 17.5212 1278.96 Q16.5228 1277.41 16.5228 1275.64 Q16.5228 1273.23 18.1009 1271.75 Q19.6468 1270.23 21.9334 1270.23 Q22.3843 1270.23 22.8996 1270.33 Q23.4148 1270.43 23.7047 1270.52 Q23.9946 1270.59 24.542 1270.78 Q25.0573 1270.94 25.154 1270.97 Q29.4051 1272.62 32.1748 1273.45 Q34.9123 1274.29 35.7175 1274.42 Q36.4904 1274.52 37.4244 1274.52 Q43.93 1274.52 44.7995 1267.01 L1.22501 1256.06 Q0.323242 1255.87 0.130007 1255.71 Q-0.095434 1255.55 -0.095434 1255.06 Q-0.095434 1254.29 0.613095 1254.29 Q0.838536 1254.29 1.61148 1254.48 L44.9284 1265.37 Q44.9284 1264.34 44.8962 1263.69 Q44.8639 1263.05 44.5741 1261.7 Q44.252 1260.31 43.6723 1259.15 Q43.0926 1257.96 41.9332 1256.29 Q40.7416 1254.61 39.0669 1252.97 Q36.9735 1250.91 33.4631 1249.07 Q29.9526 1247.24 27.0541 1247.24 Q23.8013 1247.24 21.4503 1249.59 Q21.1282 1249.94 20.935 1250.14 Q20.7418 1250.3 20.4197 1250.46 Q20.0976 1250.59 19.679 1250.59 Q18.584 1250.59 17.5534 1249.56 Q16.5228 1248.53 16.5228 1247.3 Q16.5228 1246.21 17.5856 1245.3 Q18.6484 1244.4 21.1282 1244.4 Z" fill="#ffffff" fill-rule="nonzero" fill-opacity="1" /><path clip-path="url(#clip080)" d="M233.743 68.945 Q233.743 66.266 235.28 64.9924 Q236.817 63.7188 238.793 63.7188 Q240.858 63.7188 242.307 65.0803 Q243.8 66.3978 243.8 68.7254 Q243.8 71.2287 242.043 72.634 Q240.331 74.0394 237.871 73.688 Q240.023 77.2892 243.976 78.9142 Q247.972 80.5391 251.661 80.5391 Q255.526 80.5391 258.644 77.2014 Q261.806 73.8637 261.806 65.6951 Q261.806 58.7562 259.083 54.7598 Q256.404 50.7633 251.09 50.7633 L247.138 50.7633 Q245.776 50.7633 245.381 50.6316 Q244.986 50.4998 244.986 49.7532 Q244.986 48.8749 246.347 48.6992 Q247.709 48.6992 249.861 48.4357 Q255.087 48.26 257.853 43.7366 Q260.357 39.5205 260.357 33.5039 Q260.357 28.0143 257.722 25.7306 Q255.131 23.403 251.749 23.403 Q248.587 23.403 245.117 24.7205 Q241.648 26.038 239.76 28.9804 Q245.337 28.9804 245.337 33.5039 Q245.337 35.4802 244.063 36.7977 Q242.834 38.0713 240.77 38.0713 Q238.793 38.0713 237.476 36.8416 Q236.158 35.568 236.158 33.4161 Q236.158 28.2778 240.726 24.7205 Q245.337 21.1632 252.1 21.1632 Q258.776 21.1632 263.694 24.6766 Q268.657 28.1899 268.657 33.5917 Q268.657 38.9057 265.144 43.2535 Q261.63 47.6013 256.053 49.4019 Q262.904 50.7633 266.988 55.4185 Q271.072 60.0298 271.072 65.6951 Q271.072 72.7218 265.539 77.9041 Q260.005 83.0424 251.925 83.0424 Q244.459 83.0424 239.101 79.002 Q233.743 74.9616 233.743 68.945 Z" fill="#ffffff" fill-rule="nonzero" fill-opacity="1" /><path clip-path="url(#clip080)" d="M279.647 79.6168 Q278.286 78.1676 278.286 76.2791 Q278.286 74.3907 279.647 73.0293 Q281.009 71.6239 283.073 71.6239 Q285.049 71.6239 286.367 72.9414 Q287.728 74.215 287.728 76.323 Q287.728 78.3872 286.279 79.7486 Q284.873 81.0661 283.073 81.0661 Q281.009 81.0661 279.647 79.6168 Z" fill="#ffffff" fill-rule="nonzero" fill-opacity="1" /><path clip-path="url(#clip080)" d="M293.849 29.727 L293.849 26.9163 Q304.653 26.9163 310.23 21.1632 Q311.767 21.1632 312.031 21.5145 Q312.295 21.8659 312.295 23.4908 L312.295 73.9515 Q312.295 76.6305 313.612 77.4649 Q314.93 78.2993 320.683 78.2993 L323.537 78.2993 L323.537 81.0661 Q320.375 80.8026 308.957 80.8026 Q297.538 80.8026 294.42 81.0661 L294.42 78.2993 L297.275 78.2993 Q302.94 78.2993 304.302 77.5088 Q305.663 76.6744 305.663 73.9515 L305.663 27.3555 Q300.964 29.727 293.849 29.727 Z" fill="#ffffff" fill-rule="nonzero" fill-opacity="1" /><path clip-path="url(#clip080)" d="M330.566 79.6168 Q329.205 78.1676 329.205 76.2791 Q329.205 74.3907 330.566 73.0293 Q331.928 71.6239 333.992 71.6239 Q335.968 71.6239 337.286 72.9414 Q338.647 74.215 338.647 76.323 Q338.647 78.3872 337.198 79.7486 Q335.792 81.0661 333.992 81.0661 Q331.928 81.0661 330.566 79.6168 Z" fill="#ffffff" fill-rule="nonzero" fill-opacity="1" /><path clip-path="url(#clip080)" d="M344.768 29.727 L344.768 26.9163 Q355.572 26.9163 361.149 21.1632 Q362.686 21.1632 362.95 21.5145 Q363.213 21.8659 363.213 23.4908 L363.213 73.9515 Q363.213 76.6305 364.531 77.4649 Q365.848 78.2993 371.602 78.2993 L374.456 78.2993 L374.456 81.0661 Q371.294 80.8026 359.876 80.8026 Q348.457 80.8026 345.339 81.0661 L345.339 78.2993 L348.194 78.2993 Q353.859 78.2993 355.22 77.5088 Q356.582 76.6744 356.582 73.9515 L356.582 27.3555 Q351.883 29.727 344.768 29.727 Z" fill="#ffffff" fill-rule="nonzero" fill-opacity="1" /><path clip-path="url(#clip080)" d="M481.81 42.3751 Q481.81 49.6215 478.692 56.736 Q475.618 63.8067 470.611 69.1646 Q465.648 74.4785 458.929 77.7723 Q452.21 81.0661 445.359 81.0661 L415.583 81.0661 Q414.529 81.0661 414.09 81.0222 Q413.695 80.9783 413.387 80.7587 Q413.08 80.4952 413.08 79.9682 Q413.08 79.1337 413.431 78.7824 Q413.782 78.3872 414.178 78.3432 Q414.573 78.2993 415.583 78.2993 Q417.779 78.2993 419.096 78.1676 Q420.414 78.0358 421.248 77.8601 Q422.127 77.6406 422.566 77.0257 Q423.049 76.4109 423.269 75.8839 Q423.488 75.313 423.796 74.0394 L435.829 25.7306 Q436.18 24.2813 436.18 24.0617 Q436.18 23.3151 435.741 23.0516 Q435.346 22.7442 434.204 22.6125 Q432.008 22.4368 430.339 22.4368 Q429.241 22.4368 428.802 22.3929 Q428.407 22.349 428.055 22.1294 Q427.748 21.8659 427.748 21.3389 Q427.748 20.5044 428.099 20.1531 Q428.495 19.7578 428.934 19.7139 Q429.373 19.6261 430.427 19.6261 L460.642 19.6261 Q467.186 19.6261 472.06 22.7003 Q476.935 25.7306 479.351 30.8689 Q481.81 35.9632 481.81 42.3751 M473.949 39.0814 Q473.949 30.6932 469.381 26.565 Q464.858 22.4368 457.699 22.4368 L448.082 22.4368 Q445.227 22.4368 444.524 22.9638 Q443.822 23.4469 443.207 25.8623 L430.866 75.2251 Q430.427 76.8501 430.427 77.2892 Q430.427 77.7723 430.647 77.948 Q430.91 78.0797 431.613 78.1676 Q432.403 78.2993 433.589 78.2993 L443.734 78.2993 Q447.642 78.2993 451.2 77.2453 Q454.801 76.1474 457.392 74.4346 Q459.983 72.6779 461.652 71.1847 Q463.321 69.6477 464.507 68.1106 Q467.186 64.6411 469.162 60.1176 Q471.182 55.5942 472.104 51.466 Q473.07 47.2939 473.51 44.2197 Q473.949 41.1015 473.949 39.0814 Z" fill="#ffffff" fill-rule="nonzero" fill-opacity="1" /><path clip-path="url(#clip080)" d="M525.686 56.5164 Q525.686 61.3034 523.578 66.0465 Q521.47 70.7456 518.088 74.2589 Q514.75 77.7284 510.359 79.9242 Q505.967 82.0762 501.575 82.0762 Q495.295 82.0762 491.211 77.8162 Q487.171 73.5124 487.171 66.837 Q487.171 60.6007 490.64 54.6719 Q494.153 48.6992 499.775 45.0102 Q505.396 41.3211 511.281 41.3211 Q517.473 41.3211 521.558 45.4933 Q525.686 49.6654 525.686 56.5164 M519.098 53.0031 Q519.098 48.7431 517.034 46.0203 Q514.97 43.2974 511.193 43.2974 Q510.095 43.2974 508.822 43.6487 Q507.548 43.9562 505.879 44.7906 Q504.254 45.625 502.41 47.3817 Q500.609 49.0945 499.028 51.5538 Q496.964 54.8037 495.383 60.7764 Q493.846 66.7052 493.846 70.2625 Q493.846 75.1812 496.13 77.6406 Q498.413 80.056 501.663 80.056 Q504.825 80.056 508.163 77.8601 Q511.545 75.6204 513.872 71.7996 Q516.2 67.8471 517.649 62.05 Q519.098 56.209 519.098 53.0031 Z" fill="#ffffff" fill-rule="nonzero" fill-opacity="1" /><path clip-path="url(#clip080)" d="M565.192 47.1621 Q565.192 49.4897 563.655 50.9829 Q562.162 52.4761 560.229 52.4761 Q558.56 52.4761 557.682 51.5099 Q556.804 50.5437 556.804 49.314 Q556.804 47.5574 558.165 46.1081 Q559.527 44.6588 561.503 44.3514 Q560.054 43.2974 557.726 43.2974 Q553.905 43.2974 550.524 46.2398 Q549.03 47.6013 547.405 50.1045 Q545.781 52.5639 545.473 53.6179 L542.618 65.3438 Q542.355 66.6613 540.73 72.9854 Q539.149 79.2655 539.017 79.529 Q538.578 80.7587 537.612 81.4174 Q536.646 82.0762 535.68 82.0762 Q534.582 82.0762 533.835 81.4174 Q533.088 80.7587 533.088 79.6168 Q533.088 79.4412 533.22 78.7824 Q533.352 78.1236 533.572 77.2014 Q533.791 76.2791 533.879 75.7521 L539.105 54.9793 Q540.071 51.2025 540.291 50.0167 Q540.554 48.787 540.554 47.4256 Q540.554 45.0541 539.808 44.1757 Q539.061 43.2974 537.744 43.2974 Q535.46 43.2974 533.967 46.0203 Q532.474 48.7431 531.2 54.0132 Q530.805 55.4624 530.541 55.7699 Q530.322 56.0773 529.663 56.0773 Q528.565 56.0334 528.565 55.155 Q528.565 54.9354 528.916 53.5301 Q529.268 52.0808 529.926 49.9728 Q530.629 47.8209 531.376 46.4594 Q531.815 45.5372 532.21 44.9223 Q532.605 44.3075 533.396 43.3413 Q534.186 42.3751 535.372 41.8481 Q536.558 41.3211 538.007 41.3211 Q541.169 41.3211 543.409 43.2535 Q545.693 45.1858 546.22 48.2161 Q547.318 46.6351 548.679 45.2737 Q550.04 43.8683 552.544 42.5947 Q555.047 41.3211 557.726 41.3211 Q561.064 41.3211 563.128 43.0339 Q565.192 44.7027 565.192 47.1621 Z" fill="#ffffff" fill-rule="nonzero" fill-opacity="1" /><path clip-path="url(#clip080)" d="M610.41 56.5164 Q610.41 61.3034 608.302 66.0465 Q606.194 70.7456 602.812 74.2589 Q599.475 77.7284 595.083 79.9242 Q590.691 82.0762 586.299 82.0762 Q580.019 82.0762 575.935 77.8162 Q571.895 73.5124 571.895 66.837 Q571.895 60.6007 575.364 54.6719 Q578.877 48.6992 584.499 45.0102 Q590.12 41.3211 596.005 41.3211 Q602.197 41.3211 606.282 45.4933 Q610.41 49.6654 610.41 56.5164 M603.822 53.0031 Q603.822 48.7431 601.758 46.0203 Q599.694 43.2974 595.917 43.2974 Q594.819 43.2974 593.546 43.6487 Q592.272 43.9562 590.603 44.7906 Q588.978 45.625 587.134 47.3817 Q585.333 49.0945 583.752 51.5538 Q581.688 54.8037 580.107 60.7764 Q578.57 66.7052 578.57 70.2625 Q578.57 75.1812 580.854 77.6406 Q583.137 80.056 586.387 80.056 Q589.549 80.056 592.887 77.8601 Q596.269 75.6204 598.596 71.7996 Q600.924 67.8471 602.373 62.05 Q603.822 56.209 603.822 53.0031 Z" fill="#ffffff" fill-rule="nonzero" fill-opacity="1" /><path clip-path="url(#clip080)" d="M653.131 45.5372 Q653.131 45.5811 652.868 47.1621 L642.855 87.0827 Q642.328 89.1908 640.834 91.2988 Q639.385 93.4507 637.057 95.2952 Q634.774 97.1837 631.26 98.3255 Q627.791 99.5113 623.795 99.5113 Q617.427 99.5113 614.616 98.1498 Q611.849 96.8323 611.849 94.0216 Q611.849 91.5623 613.386 90.1569 Q614.923 88.7955 616.68 88.7955 Q618.349 88.7955 619.227 89.7617 Q620.105 90.7279 620.105 91.9575 Q620.105 93.319 619.183 94.6804 Q618.261 96.0857 616.416 96.6127 Q619.359 97.535 623.619 97.535 Q632.622 97.535 636.487 88.005 Q636.574 87.8732 636.574 87.8293 L639.561 75.9278 L639.429 75.84 Q638.682 76.7183 637.497 77.7284 Q636.355 78.6946 633.895 79.8803 Q631.436 81.0661 629.021 81.0661 Q623.97 81.0661 620.501 77.2014 Q617.075 73.2928 617.075 66.837 Q617.075 62.1378 618.964 57.4387 Q620.896 52.6957 623.882 49.2262 Q626.913 45.7128 630.777 43.517 Q634.686 41.3211 638.463 41.3211 Q641.098 41.3211 643.338 42.9021 Q645.577 44.4392 646.807 46.9864 Q647.027 44.8784 648.212 44.0001 Q649.442 43.1217 650.496 43.1217 Q651.682 43.1217 652.385 43.7805 Q653.131 44.3953 653.131 45.5372 M645.753 51.0268 Q645.753 50.7633 645.577 50.0606 Q645.402 49.314 644.875 48.1283 Q644.392 46.9425 643.645 45.8885 Q642.898 44.8345 641.537 44.0879 Q640.219 43.2974 638.551 43.2974 Q635.828 43.2974 633.105 45.5811 Q630.382 47.8209 628.494 51.2903 Q626.737 54.628 625.068 61.0838 Q623.443 67.5396 623.443 70.8334 Q623.443 74.0833 624.849 76.5866 Q626.254 79.0898 629.284 79.0898 Q632.798 79.0898 636.574 75.84 Q640.483 72.4583 641.142 69.5598 L645.49 52.3882 Q645.753 51.3342 645.753 51.0268 Z" fill="#ffffff" fill-rule="nonzero" fill-opacity="1" /><path clip-path="url(#clip080)" d="M700.379 56.5164 Q700.379 61.3034 698.271 66.0465 Q696.163 70.7456 692.782 74.2589 Q689.444 77.7284 685.052 79.9242 Q680.661 82.0762 676.269 82.0762 Q669.989 82.0762 665.904 77.8162 Q661.864 73.5124 661.864 66.837 Q661.864 60.6007 665.334 54.6719 Q668.847 48.6992 674.468 45.0102 Q680.09 41.3211 685.975 41.3211 Q692.167 41.3211 696.251 45.4933 Q700.379 49.6654 700.379 56.5164 M693.792 53.0031 Q693.792 48.7431 691.728 46.0203 Q689.664 43.2974 685.887 43.2974 Q684.789 43.2974 683.515 43.6487 Q682.242 43.9562 680.573 44.7906 Q678.948 45.625 677.103 47.3817 Q675.303 49.0945 673.722 51.5538 Q671.658 54.8037 670.077 60.7764 Q668.539 66.7052 668.539 70.2625 Q668.539 75.1812 670.823 77.6406 Q673.107 80.056 676.357 80.056 Q679.519 80.056 682.856 77.8601 Q686.238 75.6204 688.566 71.7996 Q690.893 67.8471 692.343 62.05 Q693.792 56.209 693.792 53.0031 Z" fill="#ffffff" fill-rule="nonzero" fill-opacity="1" /><path clip-path="url(#clip080)" d="M741.053 47.6013 Q741.053 48.7431 740.745 50.9829 Q740.438 53.2227 739.691 56.4725 Q738.945 59.7224 737.847 63.1479 Q736.793 66.5735 735.124 69.999 Q733.455 73.3806 731.479 76.0595 Q729.502 78.7385 726.736 80.4073 Q723.969 82.0762 720.851 82.0762 Q719.401 82.0762 717.996 81.8566 Q716.591 81.637 714.834 80.9343 Q713.077 80.2317 711.804 79.0898 Q710.53 77.9041 709.652 75.796 Q708.773 73.688 708.773 70.9212 Q708.773 68.0666 709.827 64.2459 Q710.925 60.3811 713.912 52.4761 Q715.449 48.3918 715.449 46.152 Q715.449 45.1419 715.229 44.5271 Q715.01 43.8683 714.571 43.6487 Q714.131 43.3852 713.868 43.3413 Q713.648 43.2974 713.209 43.2974 Q710.794 43.2974 708.334 45.8007 Q705.875 48.3039 704.118 54.4523 Q703.767 55.5503 703.547 55.8138 Q703.328 56.0773 702.669 56.0773 Q701.571 56.0334 701.571 55.155 Q701.571 54.8915 701.878 53.8814 Q702.186 52.8274 702.757 51.2464 Q703.328 49.6215 704.338 47.9526 Q705.348 46.2398 706.578 44.7467 Q707.851 43.2535 709.652 42.2873 Q711.452 41.3211 713.473 41.3211 Q716.766 41.3211 718.787 43.4731 Q720.851 45.5811 720.851 48.6992 Q720.851 50.412 719.753 53.1787 Q717.908 58.1853 717.074 60.6007 Q716.239 63.0162 715.361 66.4417 Q714.527 69.8672 714.527 72.2388 Q714.527 75.84 716.195 77.948 Q717.864 80.056 721.202 80.056 Q724.188 80.056 726.867 77.9041 Q729.59 75.7082 731.391 72.5901 Q733.191 69.4281 734.553 65.9147 Q735.914 62.3574 736.529 59.6785 Q737.188 56.9556 737.188 55.682 Q737.188 51.2464 734.158 48.3479 Q733.323 47.5134 733.016 46.9864 Q732.708 46.4594 732.708 45.625 Q732.708 44.0879 734.07 42.7265 Q735.475 41.3211 737.1 41.3211 Q738.593 41.3211 739.823 42.8143 Q741.053 44.3075 741.053 47.6013 Z" fill="#ffffff" fill-rule="nonzero" fill-opacity="1" /><path clip-path="url(#clip080)" d="M775.989 43.2974 Q775.989 44.5271 775.418 44.8345 Q774.848 45.098 773.267 45.098 L764.834 45.098 L758.159 71.6239 Q757.632 73.9515 757.632 75.9278 Q757.632 78.1236 758.291 79.0898 Q758.993 80.056 760.443 80.056 Q763.297 80.056 766.372 77.4649 Q769.49 74.8738 772.125 68.5497 Q772.476 67.7153 772.652 67.5396 Q772.871 67.32 773.442 67.32 Q774.54 67.32 774.54 68.1984 Q774.54 68.5058 773.925 69.9112 Q773.354 71.3165 772.081 73.3806 Q770.851 75.4447 769.226 77.3771 Q767.645 79.3094 765.23 80.7148 Q762.814 82.0762 760.223 82.0762 Q756.578 82.0762 754.25 79.7486 Q751.967 77.421 751.967 73.7759 Q751.967 72.5901 752.889 68.8132 Q753.811 64.9924 758.818 45.098 L750.869 45.098 Q749.771 45.098 749.332 45.0541 Q748.936 45.0102 748.629 44.7906 Q748.366 44.5271 748.366 44.0001 Q748.366 43.1657 748.717 42.8143 Q749.068 42.4191 749.507 42.3751 Q749.99 42.2873 751.088 42.2873 L759.52 42.2873 L763.034 28.0143 Q763.385 26.6089 764.264 25.8184 Q765.186 24.984 765.713 24.8961 Q766.24 24.7644 766.635 24.7644 Q767.821 24.7644 768.523 25.4231 Q769.226 26.038 769.226 27.1798 Q769.226 27.7947 765.537 42.2873 L773.442 42.2873 Q774.452 42.2873 774.848 42.3312 Q775.287 42.3751 775.638 42.5947 Q775.989 42.8143 775.989 43.2974 Z" fill="#ffffff" fill-rule="nonzero" fill-opacity="1" /><path clip-path="url(#clip080)" d="M814.345 49.0505 Q814.345 51.5099 813.115 52.8274 Q811.885 54.101 810.217 54.101 Q808.855 54.101 808.109 53.3105 Q807.406 52.52 807.406 51.466 Q807.406 49.9289 808.636 48.6992 Q809.909 47.4695 811.754 47.4256 Q811.139 45.8007 809.514 44.8345 Q807.889 43.8244 806.44 43.5609 Q805.034 43.2974 803.629 43.2974 Q800.862 43.2974 798.754 44.1757 Q796.646 45.0541 795.592 46.4155 Q794.538 47.733 794.055 49.0066 Q793.572 50.2802 793.572 51.3781 Q793.572 52.3443 793.792 53.1348 Q794.055 53.8814 794.67 54.4523 Q795.285 54.9793 795.724 55.3307 Q796.207 55.682 797.261 55.9894 Q798.315 56.2969 798.754 56.4286 Q799.193 56.5164 800.423 56.7799 Q802.97 57.307 804.112 57.6144 Q805.254 57.8779 806.747 58.6245 Q808.284 59.3711 809.426 60.5568 Q812.193 63.3236 812.193 67.1444 Q812.193 68.5497 811.71 70.2625 Q811.271 71.9753 809.997 74.1272 Q808.723 76.2791 806.791 77.9919 Q804.859 79.7047 801.521 80.8904 Q798.227 82.0762 794.099 82.0762 Q788.346 82.0762 784.789 79.6607 Q781.231 77.2014 781.231 73.3367 Q781.231 70.526 782.768 68.9889 Q784.305 67.4079 786.282 67.4079 Q787.775 67.4079 788.697 68.2423 Q789.619 69.0328 789.619 70.526 Q789.619 72.5462 787.995 74.0833 Q786.37 75.6204 783.954 75.313 Q786.018 80.056 794.187 80.056 Q797.261 80.056 799.633 79.2655 Q802.048 78.4311 803.366 77.2892 Q804.727 76.1035 805.605 74.6542 Q806.484 73.2049 806.747 72.107 Q807.055 71.0091 807.055 70.1747 Q807.055 68.7254 806.484 67.6275 Q805.913 66.5295 805.122 65.9147 Q804.376 65.2559 802.926 64.7289 Q801.521 64.158 800.511 63.9384 Q799.501 63.7188 797.7 63.3675 Q796.866 63.1918 796.339 63.104 Q795.812 62.9723 794.714 62.6209 Q793.66 62.2257 792.913 61.8304 Q792.211 61.4352 791.288 60.7325 Q790.366 60.0298 789.795 59.1954 Q789.224 58.361 788.829 57.1313 Q788.434 55.9016 788.434 54.4523 Q788.434 53.1348 788.829 51.5538 Q789.268 49.9728 790.366 48.1283 Q791.508 46.2838 793.133 44.7906 Q794.758 43.2974 797.481 42.3312 Q800.247 41.3211 803.629 41.3211 Q808.548 41.3211 811.446 43.6048 Q814.345 45.8446 814.345 49.0505 Z" fill="#ffffff" fill-rule="nonzero" fill-opacity="1" /><path clip-path="url(#clip080)" d="M856.842 70.6577 Q857.193 71.053 857.193 71.4483 Q857.193 71.8435 856.315 72.9854 Q855.48 74.1272 853.68 75.6643 Q851.879 77.2014 849.552 78.6507 Q847.224 80.0999 843.798 81.0661 Q840.373 82.0762 836.772 82.0762 Q830.316 82.0762 826.451 77.4649 Q822.63 72.8536 822.63 65.7829 Q822.63 61.2595 824.124 57.263 Q825.617 53.2227 828.032 50.3681 Q830.491 47.5134 833.566 45.4493 Q836.684 43.3413 839.934 42.3312 Q843.184 41.3211 846.214 41.3211 Q850.649 41.3211 853.241 43.5609 Q855.832 45.8007 855.832 48.9627 Q855.832 49.7093 855.612 50.6316 Q855.436 51.5538 854.822 53.0031 Q854.251 54.4523 852.757 55.9016 Q851.264 57.307 849.068 58.2292 Q844.194 60.2933 835.322 60.2933 L830.535 60.2933 Q829.13 65.9586 829.13 69.6477 Q829.13 71.0969 829.394 72.5901 Q829.657 74.0394 830.36 75.8839 Q831.106 77.7284 832.775 78.9142 Q834.488 80.056 836.947 80.056 Q837.738 80.056 838.572 80.0121 Q839.451 79.9682 841.646 79.4851 Q843.886 79.002 845.862 78.1676 Q847.839 77.3331 850.342 75.5325 Q852.889 73.688 854.909 71.1847 Q855.612 70.2625 856.095 70.2625 Q856.49 70.2625 856.842 70.6577 M852.845 48.9627 Q852.845 46.5473 851.045 44.9223 Q849.288 43.2974 846.214 43.2974 Q845.248 43.2974 844.062 43.517 Q842.876 43.7366 840.9 44.6588 Q838.967 45.5811 837.255 47.1182 Q835.542 48.6114 833.829 51.5538 Q832.116 54.4523 831.106 58.317 L834.795 58.317 Q836.069 58.317 836.991 58.317 Q837.913 58.2731 839.934 58.0975 Q841.998 57.9218 843.491 57.6144 Q844.984 57.263 846.873 56.5604 Q848.761 55.8577 849.947 54.9354 Q851.176 53.9693 852.011 52.4322 Q852.845 50.8951 852.845 48.9627 Z" fill="#ffffff" fill-rule="nonzero" fill-opacity="1" /><path clip-path="url(#clip080)" d="M900.122 47.6013 Q900.122 48.7431 899.815 50.9829 Q899.507 53.2227 898.761 56.4725 Q898.014 59.7224 896.916 63.1479 Q895.862 66.5735 894.194 69.999 Q892.525 73.3806 890.548 76.0595 Q888.572 78.7385 885.805 80.4073 Q883.039 82.0762 879.92 82.0762 Q878.471 82.0762 877.066 81.8566 Q875.661 81.637 873.904 80.9343 Q872.147 80.2317 870.874 79.0898 Q869.6 77.9041 868.722 75.796 Q867.843 73.688 867.843 70.9212 Q867.843 68.0666 868.897 64.2459 Q869.995 60.3811 872.982 52.4761 Q874.519 48.3918 874.519 46.152 Q874.519 45.1419 874.299 44.5271 Q874.079 43.8683 873.64 43.6487 Q873.201 43.3852 872.938 43.3413 Q872.718 43.2974 872.279 43.2974 Q869.863 43.2974 867.404 45.8007 Q864.945 48.3039 863.188 54.4523 Q862.837 55.5503 862.617 55.8138 Q862.398 56.0773 861.739 56.0773 Q860.641 56.0334 860.641 55.155 Q860.641 54.8915 860.948 53.8814 Q861.256 52.8274 861.827 51.2464 Q862.398 49.6215 863.408 47.9526 Q864.418 46.2398 865.647 44.7467 Q866.921 43.2535 868.722 42.2873 Q870.522 41.3211 872.542 41.3211 Q875.836 41.3211 877.856 43.4731 Q879.92 45.5811 879.92 48.6992 Q879.92 50.412 878.823 53.1787 Q876.978 58.1853 876.144 60.6007 Q875.309 63.0162 874.431 66.4417 Q873.596 69.8672 873.596 72.2388 Q873.596 75.84 875.265 77.948 Q876.934 80.056 880.272 80.056 Q883.258 80.056 885.937 77.9041 Q888.66 75.7082 890.461 72.5901 Q892.261 69.4281 893.623 65.9147 Q894.984 62.3574 895.599 59.6785 Q896.258 56.9556 896.258 55.682 Q896.258 51.2464 893.227 48.3479 Q892.393 47.5134 892.086 46.9864 Q891.778 46.4594 891.778 45.625 Q891.778 44.0879 893.14 42.7265 Q894.545 41.3211 896.17 41.3211 Q897.663 41.3211 898.893 42.8143 Q900.122 44.3075 900.122 47.6013 Z" fill="#ffffff" fill-rule="nonzero" fill-opacity="1" /><path clip-path="url(#clip080)" d="M903.835 69.5598 Q903.835 66.2221 905.241 64.0263 Q906.646 61.8304 910.203 58.1414 L918.416 49.4019 Q914.727 40.0475 914.727 31.1324 Q914.727 24.457 918.504 20.5923 Q922.281 16.6836 926.936 16.6836 Q929.176 16.6836 930.844 17.9133 Q932.513 19.0991 933.26 20.9875 Q934.05 22.876 934.402 24.6766 Q934.797 26.4772 934.797 28.2778 Q934.797 31.0445 932.777 34.6018 Q930.8 38.1591 928.956 40.4867 Q927.111 42.7704 923.818 46.4594 Q926.321 53.047 931.24 60.3372 Q936.202 67.5835 938.749 70.4382 Q944.503 63.3236 951.617 50.8511 Q952.144 49.2262 952.144 49.0505 Q952.144 47.3378 950.475 46.2398 Q948.806 45.098 945.732 45.098 L945.732 42.2873 Q949.333 42.5508 956.712 42.5508 Q960.488 42.5508 965.451 42.2873 L965.451 45.098 Q962.465 45.098 960.488 45.625 Q958.512 46.152 956.975 47.6013 Q955.482 49.0505 954.56 50.2802 Q953.681 51.466 952.056 54.2767 Q944.415 67.4079 940.155 72.2388 Q946.918 80.2317 952.583 80.2756 Q956.185 80.2756 959.303 77.6845 Q962.465 75.0495 962.64 70.1747 L964.924 70.1747 Q964.836 75.84 961.147 79.4412 Q957.458 83.0424 952.232 83.0424 Q944.239 83.0424 936.378 76.1913 Q928.736 83.0424 920.129 83.0424 Q913.365 83.0424 908.578 79.1777 Q903.835 75.313 903.835 69.5598 M911.301 66.6613 Q911.301 69.5598 912.048 72.4583 Q912.838 75.313 915.122 77.8162 Q917.406 80.2756 920.831 80.2756 Q928.209 80.2756 934.665 74.4785 Q931.152 70.9652 926.409 63.9823 Q922.281 58.0535 919.206 51.466 Q914.902 55.5942 913.102 58.6684 Q911.301 61.6987 911.301 66.6613 M920.392 29.0683 Q920.392 36.2707 923.071 44.2636 Q932.513 34.0309 932.513 28.1899 Q932.513 27.7508 932.469 27.092 Q932.425 26.3893 932.162 24.7644 Q931.898 23.1395 931.371 21.9537 Q930.888 20.724 929.746 19.7139 Q928.649 18.6599 927.111 18.6599 Q924.432 18.6599 922.412 21.251 Q920.392 23.8421 920.392 29.0683 Z" fill="#ffffff" fill-rule="nonzero" fill-opacity="1" /><path clip-path="url(#clip080)" d="M1063.16 20.6362 Q1063.16 21.9098 1062.59 22.1733 Q1062.06 22.4368 1060.31 22.4368 Q1058.24 22.4368 1056.97 22.6125 Q1055.69 22.7442 1054.9 22.9638 Q1054.11 23.1395 1053.63 23.7543 Q1053.19 24.3691 1053.02 24.8961 Q1052.84 25.3792 1052.53 26.565 L1040.59 74.4785 Q1040.15 76.1035 1040.15 76.6744 Q1040.15 77.2453 1040.5 77.5966 Q1040.89 77.948 1041.86 78.1236 Q1042.83 78.2554 1043.57 78.2993 Q1044.36 78.2993 1045.99 78.2993 Q1048.01 78.2993 1048.32 78.6507 Q1048.49 78.8702 1048.49 79.2655 Q1048.49 80.0999 1048.14 80.5391 Q1047.79 80.9343 1047.48 81.0222 Q1047.22 81.0661 1046.78 81.0661 Q1044.93 81.0661 1041.16 80.9343 Q1037.38 80.8026 1035.54 80.8026 L1024.38 81.0661 Q1023.06 81.0661 1023.06 79.9682 Q1023.06 79.1337 1023.42 78.7824 Q1023.77 78.3872 1024.16 78.3432 Q1024.56 78.2993 1025.57 78.2993 Q1029.17 78.2993 1030.71 77.9041 Q1032.29 77.5088 1032.73 76.8061 Q1033.21 76.0595 1033.74 74.0394 L1046.6 22.5246 L1046.52 22.5246 L1010.2 79.4412 L1009.93 79.8364 Q1009.67 80.1878 1009.58 80.3195 Q1009.49 80.4073 1009.23 80.6708 Q1009.01 80.8904 1008.75 80.9783 Q1008.53 81.0661 1008.22 81.0661 Q1007.69 81.0661 1007.39 80.7148 Q1007.12 80.3634 1007.03 80.0999 Q1006.99 79.7925 1006.86 79.002 L999.129 23.2273 L999.041 23.2273 L986.788 72.2388 Q986.437 73.6002 986.437 74.3029 Q986.437 76.1035 987.711 77.2014 Q989.028 78.2554 992.541 78.2993 Q994.166 78.2993 994.166 79.2655 Q994.166 81.0661 992.541 81.0661 Q991.048 81.0661 987.93 80.9343 Q984.812 80.8026 983.275 80.8026 Q981.782 80.8026 978.751 80.9343 Q975.765 81.0661 974.316 81.0661 Q973.042 81.0661 973.042 79.9682 Q973.042 78.2993 974.667 78.2993 Q977.302 78.2115 979.103 77.6845 Q980.903 77.1575 981.913 76.1474 Q982.968 75.1373 983.451 74.1272 Q983.978 73.0732 984.373 71.5361 L995.791 25.7306 Q996.143 24.2813 996.143 24.0617 Q996.143 23.3151 995.703 23.0516 Q995.308 22.7442 994.166 22.6125 Q991.971 22.4368 990.302 22.4368 Q989.204 22.4368 988.765 22.3929 Q988.369 22.349 988.018 22.1294 Q987.711 21.8659 987.711 21.3389 Q987.711 20.5044 988.062 20.1531 Q988.457 19.7578 988.896 19.7139 Q989.335 19.6261 990.389 19.6261 L1002.73 19.6261 Q1004.53 19.6261 1004.93 19.9335 Q1005.32 20.197 1005.5 21.6902 L1012.52 72.5901 L1045.37 21.3389 Q1046.21 20.0653 1046.65 19.8457 Q1047.09 19.6261 1048.84 19.6261 L1060.74 19.6261 Q1061.71 19.6261 1062.11 19.67 Q1062.5 19.7139 1062.81 19.9335 Q1063.16 20.1531 1063.16 20.6362 Z" fill="#ffffff" fill-rule="nonzero" fill-opacity="1" /><path clip-path="url(#clip080)" d="M1104.08 70.6577 Q1104.43 71.053 1104.43 71.4483 Q1104.43 71.8435 1103.56 72.9854 Q1102.72 74.1272 1100.92 75.6643 Q1099.12 77.2014 1096.79 78.6507 Q1094.46 80.0999 1091.04 81.0661 Q1087.61 82.0762 1084.01 82.0762 Q1077.56 82.0762 1073.69 77.4649 Q1069.87 72.8536 1069.87 65.7829 Q1069.87 61.2595 1071.36 57.263 Q1072.86 53.2227 1075.27 50.3681 Q1077.73 47.5134 1080.81 45.4493 Q1083.92 43.3413 1087.17 42.3312 Q1090.42 41.3211 1093.45 41.3211 Q1097.89 41.3211 1100.48 43.5609 Q1103.07 45.8007 1103.07 48.9627 Q1103.07 49.7093 1102.85 50.6316 Q1102.68 51.5538 1102.06 53.0031 Q1101.49 54.4523 1100 55.9016 Q1098.51 57.307 1096.31 58.2292 Q1091.43 60.2933 1082.56 60.2933 L1077.78 60.2933 Q1076.37 65.9586 1076.37 69.6477 Q1076.37 71.0969 1076.63 72.5901 Q1076.9 74.0394 1077.6 75.8839 Q1078.35 77.7284 1080.02 78.9142 Q1081.73 80.056 1084.19 80.056 Q1084.98 80.056 1085.81 80.0121 Q1086.69 79.9682 1088.89 79.4851 Q1091.13 79.002 1093.1 78.1676 Q1095.08 77.3331 1097.58 75.5325 Q1100.13 73.688 1102.15 71.1847 Q1102.85 70.2625 1103.34 70.2625 Q1103.73 70.2625 1104.08 70.6577 M1100.09 48.9627 Q1100.09 46.5473 1098.29 44.9223 Q1096.53 43.2974 1093.45 43.2974 Q1092.49 43.2974 1091.3 43.517 Q1090.12 43.7366 1088.14 44.6588 Q1086.21 45.5811 1084.5 47.1182 Q1082.78 48.6114 1081.07 51.5538 Q1079.36 54.4523 1078.35 58.317 L1082.04 58.317 Q1083.31 58.317 1084.23 58.317 Q1085.15 58.2731 1087.17 58.0975 Q1089.24 57.9218 1090.73 57.6144 Q1092.23 57.263 1094.11 56.5604 Q1096 55.8577 1097.19 54.9354 Q1098.42 53.9693 1099.25 52.4322 Q1100.09 50.8951 1100.09 48.9627 Z" fill="#ffffff" fill-rule="nonzero" fill-opacity="1" /><path clip-path="url(#clip080)" d="M1158.32 68.1984 Q1158.32 68.5497 1157.92 69.9112 Q1157.53 71.2726 1156.56 73.3806 Q1155.64 75.4886 1154.36 77.421 Q1153.09 79.3094 1150.98 80.7148 Q1148.92 82.0762 1146.55 82.0762 Q1143.39 82.0762 1141.28 79.9682 Q1139.17 77.8601 1139.17 74.6981 Q1139.17 72.9414 1140.09 70.526 Q1145.93 54.9354 1145.93 49.5775 Q1145.93 43.2974 1141.06 43.2974 Q1138.64 43.2974 1136.36 44.2197 Q1134.12 45.098 1132.58 46.3277 Q1131.04 47.5574 1129.64 49.2701 Q1128.28 50.939 1127.58 52.0808 Q1126.92 53.1787 1126.39 54.2767 L1125.25 58.7562 Q1124.98 59.9859 1123.71 64.7729 L1121.73 72.8975 Q1120.33 78.9581 1120.02 79.529 Q1119.58 80.7587 1118.62 81.4174 Q1117.65 82.0762 1116.68 82.0762 Q1115.59 82.0762 1114.84 81.4174 Q1114.09 80.7587 1114.09 79.6168 Q1114.09 79.4412 1114.22 78.7824 Q1114.36 78.1236 1114.58 77.2014 Q1114.8 76.2791 1114.88 75.7521 L1120.11 54.9793 Q1121.08 51.2025 1121.3 50.0167 Q1121.56 48.787 1121.56 47.4256 Q1121.56 43.2974 1118.75 43.2974 Q1116.46 43.2974 1114.97 46.0203 Q1113.48 48.7431 1112.2 54.0132 Q1111.81 55.4624 1111.55 55.7699 Q1111.33 56.0773 1110.67 56.0773 Q1109.57 56.0334 1109.57 55.155 Q1109.57 54.9354 1109.92 53.4862 Q1110.27 52.0369 1110.93 49.9728 Q1111.63 47.8648 1112.29 46.4594 Q1112.86 45.4054 1113.17 44.9223 Q1113.52 44.3953 1114.36 43.3852 Q1115.23 42.3312 1116.38 41.8481 Q1117.56 41.3211 1119.01 41.3211 Q1122.26 41.3211 1124.63 43.4292 Q1127 45.4933 1127.31 49.1384 Q1133.15 41.3211 1141.32 41.3211 Q1146.15 41.3211 1148.92 43.8683 Q1151.69 46.4155 1151.69 50.939 Q1151.69 51.993 1151.47 53.3544 Q1151.29 54.6719 1150.85 56.3408 Q1150.46 58.0096 1150.1 59.2832 Q1149.75 60.5568 1149.05 62.6209 Q1148.35 64.6411 1148.04 65.5194 Q1147.73 66.3978 1146.99 68.4619 Q1146.28 70.4821 1146.2 70.7017 Q1144.57 74.786 1144.57 77.1136 Q1144.57 78.6507 1145.05 79.3533 Q1145.58 80.056 1146.72 80.056 Q1149.8 80.056 1152.08 77.0257 Q1154.41 73.9515 1155.9 68.945 Q1156.25 67.8471 1156.43 67.5835 Q1156.65 67.32 1157.26 67.32 Q1158.32 67.32 1158.32 68.1984 Z" fill="#ffffff" fill-rule="nonzero" fill-opacity="1" /><path clip-path="url(#clip080)" d="M1207.97 19.6261 L1195.01 71.6239 Q1194.48 73.9515 1194.48 75.9278 Q1194.48 80.056 1197.16 80.056 Q1198.48 80.056 1199.53 79.2216 Q1200.59 78.3872 1201.42 76.6305 Q1202.26 74.8738 1202.78 73.2489 Q1203.31 71.58 1204.01 68.945 Q1204.23 67.891 1204.41 67.6275 Q1204.63 67.32 1205.24 67.32 Q1206.34 67.32 1206.34 68.1984 Q1205.15 73.8637 1203.62 77.1136 Q1201.16 82.0762 1196.99 82.0762 Q1193.82 82.0762 1191.58 80.1438 Q1189.34 78.2115 1188.82 75.313 Q1183.06 82.0762 1177.09 82.0762 Q1171.82 82.0762 1168.48 78.0797 Q1165.15 74.0394 1165.15 67.6714 Q1165.15 61.2595 1168.31 55.1111 Q1171.51 48.9627 1176.56 45.1419 Q1181.61 41.3211 1186.8 41.3211 Q1192.29 41.3211 1195.1 47.0743 L1200.5 25.7306 L1200.76 23.9739 Q1200.76 23.4469 1200.54 23.1834 Q1200.37 22.876 1199.31 22.6564 Q1198.3 22.4368 1196.28 22.4368 Q1195.45 22.4368 1195.05 22.3929 Q1194.7 22.349 1194.39 22.1294 Q1194.09 21.8659 1194.09 21.3389 Q1194.09 19.8018 1195.36 19.6261 Q1203.79 18.6599 1206.78 18.6599 Q1207.31 18.6599 1207.61 18.9234 Q1207.92 19.143 1207.92 19.4065 L1207.97 19.6261 M1194 51.2025 Q1194 50.8072 1193.69 49.7093 Q1193.38 48.6114 1192.68 47.0743 Q1191.98 45.5372 1190.44 44.4392 Q1188.95 43.2974 1186.93 43.2974 Q1184.21 43.2974 1181.35 45.625 Q1178.54 47.9526 1176.48 51.9052 Q1174.9 55.0672 1173.18 61.6987 Q1171.51 68.3301 1171.51 71.6239 Q1171.51 73.6441 1171.95 75.4447 Q1172.44 77.2014 1173.8 78.6507 Q1175.16 80.056 1177.27 80.056 Q1182.41 80.056 1187.46 73.688 Q1188.42 72.5901 1188.64 72.1509 Q1188.91 71.6678 1189.26 70.3503 L1193.74 52.7396 Q1194 51.4221 1194 51.2025 Z" fill="#ffffff" fill-rule="nonzero" fill-opacity="1" /><path clip-path="url(#clip080)" d="M1246 70.6577 Q1246.35 71.053 1246.35 71.4483 Q1246.35 71.8435 1245.47 72.9854 Q1244.64 74.1272 1242.84 75.6643 Q1241.04 77.2014 1238.71 78.6507 Q1236.38 80.0999 1232.96 81.0661 Q1229.53 82.0762 1225.93 82.0762 Q1219.47 82.0762 1215.61 77.4649 Q1211.79 72.8536 1211.79 65.7829 Q1211.79 61.2595 1213.28 57.263 Q1214.78 53.2227 1217.19 50.3681 Q1219.65 47.5134 1222.72 45.4493 Q1225.84 43.3413 1229.09 42.3312 Q1232.34 41.3211 1235.37 41.3211 Q1239.81 41.3211 1242.4 43.5609 Q1244.99 45.8007 1244.99 48.9627 Q1244.99 49.7093 1244.77 50.6316 Q1244.6 51.5538 1243.98 53.0031 Q1243.41 54.4523 1241.92 55.9016 Q1240.42 57.307 1238.23 58.2292 Q1233.35 60.2933 1224.48 60.2933 L1219.69 60.2933 Q1218.29 65.9586 1218.29 69.6477 Q1218.29 71.0969 1218.55 72.5901 Q1218.82 74.0394 1219.52 75.8839 Q1220.26 77.7284 1221.93 78.9142 Q1223.65 80.056 1226.11 80.056 Q1226.9 80.056 1227.73 80.0121 Q1228.61 79.9682 1230.81 79.4851 Q1233.04 79.002 1235.02 78.1676 Q1237 77.3331 1239.5 75.5325 Q1242.05 73.688 1244.07 71.1847 Q1244.77 70.2625 1245.25 70.2625 Q1245.65 70.2625 1246 70.6577 M1242 48.9627 Q1242 46.5473 1240.2 44.9223 Q1238.45 43.2974 1235.37 43.2974 Q1234.41 43.2974 1233.22 43.517 Q1232.03 43.7366 1230.06 44.6588 Q1228.13 45.5811 1226.41 47.1182 Q1224.7 48.6114 1222.99 51.5538 Q1221.28 54.4523 1220.26 58.317 L1223.95 58.317 Q1225.23 58.317 1226.15 58.317 Q1227.07 58.2731 1229.09 58.0975 Q1231.16 57.9218 1232.65 57.6144 Q1234.14 57.263 1236.03 56.5604 Q1237.92 55.8577 1239.11 54.9354 Q1240.34 53.9693 1241.17 52.4322 Q1242 50.8951 1242 48.9627 Z" fill="#ffffff" fill-rule="nonzero" fill-opacity="1" /><path clip-path="url(#clip080)" d="M1286.4 49.0505 Q1286.4 51.5099 1285.17 52.8274 Q1283.94 54.101 1282.27 54.101 Q1280.91 54.101 1280.16 53.3105 Q1279.46 52.52 1279.46 51.466 Q1279.46 49.9289 1280.69 48.6992 Q1281.96 47.4695 1283.81 47.4256 Q1283.19 45.8007 1281.57 44.8345 Q1279.94 43.8244 1278.5 43.5609 Q1277.09 43.2974 1275.68 43.2974 Q1272.92 43.2974 1270.81 44.1757 Q1268.7 45.0541 1267.65 46.4155 Q1266.59 47.733 1266.11 49.0066 Q1265.63 50.2802 1265.63 51.3781 Q1265.63 52.3443 1265.85 53.1348 Q1266.11 53.8814 1266.73 54.4523 Q1267.34 54.9793 1267.78 55.3307 Q1268.26 55.682 1269.32 55.9894 Q1270.37 56.2969 1270.81 56.4286 Q1271.25 56.5164 1272.48 56.7799 Q1275.03 57.307 1276.17 57.6144 Q1277.31 57.8779 1278.8 58.6245 Q1280.34 59.3711 1281.48 60.5568 Q1284.25 63.3236 1284.25 67.1444 Q1284.25 68.5497 1283.77 70.2625 Q1283.33 71.9753 1282.05 74.1272 Q1280.78 76.2791 1278.85 77.9919 Q1276.91 79.7047 1273.58 80.8904 Q1270.28 82.0762 1266.15 82.0762 Q1260.4 82.0762 1256.84 79.6607 Q1253.29 77.2014 1253.29 73.3367 Q1253.29 70.526 1254.82 68.9889 Q1256.36 67.4079 1258.34 67.4079 Q1259.83 67.4079 1260.75 68.2423 Q1261.68 69.0328 1261.68 70.526 Q1261.68 72.5462 1260.05 74.0833 Q1258.43 75.6204 1256.01 75.313 Q1258.07 80.056 1266.24 80.056 Q1269.32 80.056 1271.69 79.2655 Q1274.1 78.4311 1275.42 77.2892 Q1276.78 76.1035 1277.66 74.6542 Q1278.54 73.2049 1278.8 72.107 Q1279.11 71.0091 1279.11 70.1747 Q1279.11 68.7254 1278.54 67.6275 Q1277.97 66.5295 1277.18 65.9147 Q1276.43 65.2559 1274.98 64.7289 Q1273.58 64.158 1272.57 63.9384 Q1271.56 63.7188 1269.76 63.3675 Q1268.92 63.1918 1268.39 63.104 Q1267.87 62.9723 1266.77 62.6209 Q1265.72 62.2257 1264.97 61.8304 Q1264.27 61.4352 1263.34 60.7325 Q1262.42 60.0298 1261.85 59.1954 Q1261.28 58.361 1260.88 57.1313 Q1260.49 55.9016 1260.49 54.4523 Q1260.49 53.1348 1260.88 51.5538 Q1261.32 49.9728 1262.42 48.1283 Q1263.56 46.2838 1265.19 44.7906 Q1266.81 43.2974 1269.54 42.3312 Q1272.3 41.3211 1275.68 41.3211 Q1280.6 41.3211 1283.5 43.6048 Q1286.4 45.8446 1286.4 49.0505 Z" fill="#ffffff" fill-rule="nonzero" fill-opacity="1" /><circle clip-path="url(#clip082)" cx="351.68" cy="2089.76" r="14.4" fill="#ddd8fe" fill-rule="evenodd" fill-opacity="1" stroke="#ffffff" stroke-opacity="1" stroke-width="5.2"/>
<circle clip-path="url(#clip082)" cx="455.708" cy="2081.33" r="14.4" fill="#ddd8fe" fill-rule="evenodd" fill-opacity="1" stroke="#ffffff" stroke-opacity="1" stroke-width="5.2"/>
<circle clip-path="url(#clip082)" cx="548.764" cy="2334.34" r="14.4" fill="#ddd8fe" fill-rule="evenodd" fill-opacity="1" stroke="#ffffff" stroke-opacity="1" stroke-width="5.2"/>
<circle clip-path="url(#clip082)" cx="709.793" cy="2248.46" r="14.4" fill="#ddd8fe" fill-rule="evenodd" fill-opacity="1" stroke="#ffffff" stroke-opacity="1" stroke-width="5.2"/>
<circle clip-path="url(#clip082)" cx="780.488" cy="2317.92" r="14.4" fill="#ddd8fe" fill-rule="evenodd" fill-opacity="1" stroke="#ffffff" stroke-opacity="1" stroke-width="5.2"/>
<circle clip-path="url(#clip082)" cx="906.877" cy="1865.92" r="14.4" fill="#ddd8fe" fill-rule="evenodd" fill-opacity="1" stroke="#ffffff" stroke-opacity="1" stroke-width="5.2"/>
<circle clip-path="url(#clip082)" cx="963.879" cy="975.369" r="14.4" fill="#ddd8fe" fill-rule="evenodd" fill-opacity="1" stroke="#ffffff" stroke-opacity="1" stroke-width="5.2"/>
<circle clip-path="url(#clip082)" cx="1067.91" cy="2099.17" r="14.4" fill="#ddd8fe" fill-rule="evenodd" fill-opacity="1" stroke="#ffffff" stroke-opacity="1" stroke-width="5.2"/>
<circle clip-path="url(#clip082)" cx="1160.96" cy="1228.3" r="14.4" fill="#ddd8fe" fill-rule="evenodd" fill-opacity="1" stroke="#ffffff" stroke-opacity="1" stroke-width="5.2"/>
<circle clip-path="url(#clip082)" cx="1284.4" cy="1625.95" r="14.4" fill="#ddd8fe" fill-rule="evenodd" fill-opacity="1" stroke="#ffffff" stroke-opacity="1" stroke-width="5.2"/>
<circle clip-path="url(#clip082)" cx="1392.69" cy="976.197" r="14.4" fill="#ddd8fe" fill-rule="evenodd" fill-opacity="1" stroke="#ffffff" stroke-opacity="1" stroke-width="5.2"/>
<circle clip-path="url(#clip082)" cx="1489.13" cy="1404.65" r="14.4" fill="#ddd8fe" fill-rule="evenodd" fill-opacity="1" stroke="#ffffff" stroke-opacity="1" stroke-width="5.2"/>
<circle clip-path="url(#clip082)" cx="1576.08" cy="506.082" r="14.4" fill="#ddd8fe" fill-rule="evenodd" fill-opacity="1" stroke="#ffffff" stroke-opacity="1" stroke-width="5.2"/>
<circle clip-path="url(#clip082)" cx="1680.11" cy="908.572" r="14.4" fill="#ddd8fe" fill-rule="evenodd" fill-opacity="1" stroke="#ffffff" stroke-opacity="1" stroke-width="5.2"/>
<circle clip-path="url(#clip082)" cx="1773.16" cy="1303.34" r="14.4" fill="#ddd8fe" fill-rule="evenodd" fill-opacity="1" stroke="#ffffff" stroke-opacity="1" stroke-width="5.2"/>
<circle clip-path="url(#clip082)" cx="1877.19" cy="900.944" r="14.4" fill="#ddd8fe" fill-rule="evenodd" fill-opacity="1" stroke="#ffffff" stroke-opacity="1" stroke-width="5.2"/>
<circle clip-path="url(#clip082)" cx="1987.74" cy="921.802" r="14.4" fill="#ddd8fe" fill-rule="evenodd" fill-opacity="1" stroke="#ffffff" stroke-opacity="1" stroke-width="5.2"/>
<circle clip-path="url(#clip082)" cx="2085.97" cy="1086.16" r="14.4" fill="#ddd8fe" fill-rule="evenodd" fill-opacity="1" stroke="#ffffff" stroke-opacity="1" stroke-width="5.2"/>
<circle clip-path="url(#clip082)" cx="2188.28" cy="792.215" r="14.4" fill="#ddd8fe" fill-rule="evenodd" fill-opacity="1" stroke="#ffffff" stroke-opacity="1" stroke-width="5.2"/>
<circle clip-path="url(#clip082)" cx="2279.95" cy="1242.02" r="14.4" fill="#ddd8fe" fill-rule="evenodd" fill-opacity="1" stroke="#ffffff" stroke-opacity="1" stroke-width="5.2"/>
<circle clip-path="url(#clip082)" cx="2385.36" cy="719.548" r="14.4" fill="#ddd8fe" fill-rule="evenodd" fill-opacity="1" stroke="#ffffff" stroke-opacity="1" stroke-width="5.2"/>
<circle clip-path="url(#clip082)" cx="2489.39" cy="500.059" r="14.4" fill="#ddd8fe" fill-rule="evenodd" fill-opacity="1" stroke="#ffffff" stroke-opacity="1" stroke-width="5.2"/>
<circle clip-path="url(#clip082)" cx="2690.39" cy="540.537" r="14.4" fill="#ddd8fe" fill-rule="evenodd" fill-opacity="1" stroke="#ffffff" stroke-opacity="1" stroke-width="5.2"/>
<circle clip-path="url(#clip082)" cx="2892.15" cy="583.876" r="14.4" fill="#ddd8fe" fill-rule="evenodd" fill-opacity="1" stroke="#ffffff" stroke-opacity="1" stroke-width="5.2"/>
<circle clip-path="url(#clip082)" cx="2992.02" cy="462.692" r="14.4" fill="#ddd8fe" fill-rule="evenodd" fill-opacity="1" stroke="#ffffff" stroke-opacity="1" stroke-width="5.2"/>
<circle clip-path="url(#clip082)" cx="3194.64" cy="350.226" r="14.4" fill="#ddd8fe" fill-rule="evenodd" fill-opacity="1" stroke="#ffffff" stroke-opacity="1" stroke-width="5.2"/>
<circle clip-path="url(#clip082)" cx="351.68" cy="2047.08" r="14.4" fill="#92a3dd" fill-rule="evenodd" fill-opacity="1" stroke="#ffffff" stroke-opacity="1" stroke-width="5.2"/>
<circle clip-path="url(#clip082)" cx="351.68" cy="2328.95" r="14.4" fill="#92a3dd" fill-rule="evenodd" fill-opacity="1" stroke="#ffffff" stroke-opacity="1" stroke-width="5.2"/>
<circle clip-path="url(#clip082)" cx="455.708" cy="2193.1" r="14.4" fill="#92a3dd" fill-rule="evenodd" fill-opacity="1" stroke="#ffffff" stroke-opacity="1" stroke-width="5.2"/>
<circle clip-path="url(#clip082)" cx="548.764" cy="1900.03" r="14.4" fill="#92a3dd" fill-rule="evenodd" fill-opacity="1" stroke="#ffffff" stroke-opacity="1" stroke-width="5.2"/>
<circle clip-path="url(#clip082)" cx="709.793" cy="1463.07" r="14.4" fill="#92a3dd" fill-rule="evenodd" fill-opacity="1" stroke="#ffffff" stroke-opacity="1" stroke-width="5.2"/>
<circle clip-path="url(#clip082)" cx="780.488" cy="1686.05" r="14.4" fill="#92a3dd" fill-rule="evenodd" fill-opacity="1" stroke="#ffffff" stroke-opacity="1" stroke-width="5.2"/>
<circle clip-path="url(#clip082)" cx="906.877" cy="1543.07" r="14.4" fill="#92a3dd" fill-rule="evenodd" fill-opacity="1" stroke="#ffffff" stroke-opacity="1" stroke-width="5.2"/>
<circle clip-path="url(#clip082)" cx="963.879" cy="1785.79" r="14.4" fill="#92a3dd" fill-rule="evenodd" fill-opacity="1" stroke="#ffffff" stroke-opacity="1" stroke-width="5.2"/>
<circle clip-path="url(#clip082)" cx="1067.91" cy="1435.23" r="14.4" fill="#92a3dd" fill-rule="evenodd" fill-opacity="1" stroke="#ffffff" stroke-opacity="1" stroke-width="5.2"/>
<circle clip-path="url(#clip082)" cx="1160.96" cy="1502.82" r="14.4" fill="#92a3dd" fill-rule="evenodd" fill-opacity="1" stroke="#ffffff" stroke-opacity="1" stroke-width="5.2"/>
<circle clip-path="url(#clip082)" cx="1284.4" cy="1383.34" r="14.4" fill="#92a3dd" fill-rule="evenodd" fill-opacity="1" stroke="#ffffff" stroke-opacity="1" stroke-width="5.2"/>
<circle clip-path="url(#clip082)" cx="1392.69" cy="1255.52" r="14.4" fill="#92a3dd" fill-rule="evenodd" fill-opacity="1" stroke="#ffffff" stroke-opacity="1" stroke-width="5.2"/>
<circle clip-path="url(#clip082)" cx="1489.13" cy="905.418" r="14.4" fill="#92a3dd" fill-rule="evenodd" fill-opacity="1" stroke="#ffffff" stroke-opacity="1" stroke-width="5.2"/>
<circle clip-path="url(#clip082)" cx="1576.08" cy="1174.96" r="14.4" fill="#92a3dd" fill-rule="evenodd" fill-opacity="1" stroke="#ffffff" stroke-opacity="1" stroke-width="5.2"/>
<circle clip-path="url(#clip082)" cx="1680.11" cy="932.989" r="14.4" fill="#92a3dd" fill-rule="evenodd" fill-opacity="1" stroke="#ffffff" stroke-opacity="1" stroke-width="5.2"/>
<circle clip-path="url(#clip082)" cx="1773.16" cy="1025.68" r="14.4" fill="#92a3dd" fill-rule="evenodd" fill-opacity="1" stroke="#ffffff" stroke-opacity="1" stroke-width="5.2"/>
<circle clip-path="url(#clip082)" cx="1877.19" cy="1008.08" r="14.4" fill="#92a3dd" fill-rule="evenodd" fill-opacity="1" stroke="#ffffff" stroke-opacity="1" stroke-width="5.2"/>
<circle clip-path="url(#clip082)" cx="1987.74" cy="771.412" r="14.4" fill="#92a3dd" fill-rule="evenodd" fill-opacity="1" stroke="#ffffff" stroke-opacity="1" stroke-width="5.2"/>
<circle clip-path="url(#clip082)" cx="2085.97" cy="828.555" r="14.4" fill="#92a3dd" fill-rule="evenodd" fill-opacity="1" stroke="#ffffff" stroke-opacity="1" stroke-width="5.2"/>
<circle clip-path="url(#clip082)" cx="2188.28" cy="663.306" r="14.4" fill="#92a3dd" fill-rule="evenodd" fill-opacity="1" stroke="#ffffff" stroke-opacity="1" stroke-width="5.2"/>
<circle clip-path="url(#clip082)" cx="2279.95" cy="718.232" r="14.4" fill="#92a3dd" fill-rule="evenodd" fill-opacity="1" stroke="#ffffff" stroke-opacity="1" stroke-width="5.2"/>
<circle clip-path="url(#clip082)" cx="2385.36" cy="455.094" r="14.4" fill="#92a3dd" fill-rule="evenodd" fill-opacity="1" stroke="#ffffff" stroke-opacity="1" stroke-width="5.2"/>
<circle clip-path="url(#clip082)" cx="2489.39" cy="722.12" r="14.4" fill="#92a3dd" fill-rule="evenodd" fill-opacity="1" stroke="#ffffff" stroke-opacity="1" stroke-width="5.2"/>
<circle clip-path="url(#clip082)" cx="2582.44" cy="693.693" r="14.4" fill="#92a3dd" fill-rule="evenodd" fill-opacity="1" stroke="#ffffff" stroke-opacity="1" stroke-width="5.2"/>
<circle clip-path="url(#clip082)" cx="2690.39" cy="555.038" r="14.4" fill="#92a3dd" fill-rule="evenodd" fill-opacity="1" stroke="#ffffff" stroke-opacity="1" stroke-width="5.2"/>
<circle clip-path="url(#clip082)" cx="2786.57" cy="534.111" r="14.4" fill="#92a3dd" fill-rule="evenodd" fill-opacity="1" stroke="#ffffff" stroke-opacity="1" stroke-width="5.2"/>
<circle clip-path="url(#clip082)" cx="2892.15" cy="527.294" r="14.4" fill="#92a3dd" fill-rule="evenodd" fill-opacity="1" stroke="#ffffff" stroke-opacity="1" stroke-width="5.2"/>
<circle clip-path="url(#clip082)" cx="2992.02" cy="604.849" r="14.4" fill="#92a3dd" fill-rule="evenodd" fill-opacity="1" stroke="#ffffff" stroke-opacity="1" stroke-width="5.2"/>
<circle clip-path="url(#clip082)" cx="3091.72" cy="457.101" r="14.4" fill="#92a3dd" fill-rule="evenodd" fill-opacity="1" stroke="#ffffff" stroke-opacity="1" stroke-width="5.2"/>
<circle clip-path="url(#clip082)" cx="3194.64" cy="606.655" r="14.4" fill="#92a3dd" fill-rule="evenodd" fill-opacity="1" stroke="#ffffff" stroke-opacity="1" stroke-width="5.2"/>
<polyline clip-path="url(#clip082)" style="stroke:#496aab; stroke-linecap:round; stroke-linejoin:round; stroke-width:8; stroke-opacity:1; fill:none" points="351.68,2180.9 351.68,2133.86 455.708,2192.36 548.764,1926.62 709.793,1799.9 780.488,1808.54 906.877,1718.65 963.879,1667.37 1067.91,1373.47 1160.96,1319.91 1284.4,1364.89 1392.69,1151.33 1489.13,1000.19 1576.08,1128.04 1680.11,1006.62 1773.16,1009.35 1877.19,995.009 1987.74,902.111 2085.97,725.165 2188.28,769.971 2279.95,743.014 2385.36,705.942 2489.39,678.011 2582.44,620.21 2690.39,557.86 2786.57,571.674 2892.15,537.261 2992.02,457.284 3091.72,470.895 3194.64,385.043 "/>
<polyline clip-path="url(#clip082)" style="stroke:#263b64; stroke-linecap:round; stroke-linejoin:round; stroke-width:12; stroke-opacity:1; fill:none" points="351.68,2197.63 351.68,2209.59 455.708,2063.36 548.764,1985.77 709.793,1850.12 780.488,1748.53 906.877,1683.51 963.879,1561.12 1067.91,1469.11 1160.96,1353.81 1284.4,1268.13 1392.69,1268.31 1489.13,1184.21 1576.08,1059.46 1680.11,1065.39 1773.16,996.024 1877.19,898.398 1987.74,908.19 2085.97,864.557 2188.28,822.35 2279.95,649.772 2385.36,700.757 2489.39,648.868 2582.44,621.377 2690.39,556.598 2786.57,500.99 2892.15,558.035 2992.02,491.085 3091.72,423.813 3194.64,494.547 "/>
<polyline clip-path="url(#clip082)" style="stroke:#111825; stroke-linecap:round; stroke-linejoin:round; stroke-width:20; stroke-opacity:1; fill:none" points="351.68,2214.14 351.68,2213.45 455.708,2082.94 548.764,1955 709.793,1810.56 780.488,1734.48 906.877,1607.58 963.879,1577.77 1067.91,1440.17 1160.96,1390.01 1284.4,1389.56 1392.69,1235.76 1489.13,1161.76 1576.08,1151.14 1680.11,1101.56 1773.16,938.31 1877.19,893.724 1987.74,859.523 2085.97,793.513 2188.28,820.732 2279.95,766.871 2385.36,743.626 2489.39,655.12 2582.44,627.588 2690.39,594.128 2786.57,540.921 2892.15,562.411 2992.02,473.739 3091.72,476.591 3194.64,417.527 "/>
<path clip-path="url(#clip080)" d="M2844.2 2317.71 L3442.12 2317.71 L3442.12 1812.27 L2844.2 1812.27  Z" fill="#7f7f7f" fill-rule="evenodd" fill-opacity="1"/>
<polyline clip-path="url(#clip080)" style="stroke:#ffffff; stroke-linecap:round; stroke-linejoin:round; stroke-width:4; stroke-opacity:1; fill:none" points="2844.2,2317.71 3442.12,2317.71 3442.12,1812.27 2844.2,1812.27 2844.2,2317.71 "/>
<circle clip-path="url(#clip080)" cx="2991.71" cy="1896.51" r="33.28" fill="#ddd8fe" fill-rule="evenodd" fill-opacity="1" stroke="#ffffff" stroke-opacity="1" stroke-width="12.0178"/>
<path clip-path="url(#clip080)" d="M3181.47 1910.63 Q3181.47 1910.93 3181.13 1912.11 Q3180.78 1913.29 3179.95 1915.12 Q3179.15 1916.95 3178.04 1918.62 Q3176.94 1920.26 3175.11 1921.48 Q3173.32 1922.66 3171.27 1922.66 Q3168.53 1922.66 3166.7 1920.83 Q3164.87 1919 3164.87 1916.26 Q3164.87 1914.74 3165.67 1912.65 Q3170.74 1899.14 3170.74 1894.49 Q3170.74 1889.05 3166.51 1889.05 Q3164.42 1889.05 3162.44 1889.85 Q3160.5 1890.61 3159.16 1891.68 Q3157.83 1892.74 3156.61 1894.23 Q3155.43 1895.67 3154.83 1896.66 Q3154.25 1897.61 3153.8 1898.56 L3152.81 1902.45 Q3152.58 1903.51 3151.48 1907.66 L3149.76 1914.7 Q3148.55 1919.96 3148.28 1920.45 Q3147.9 1921.52 3147.06 1922.09 Q3146.22 1922.66 3145.39 1922.66 Q3144.44 1922.66 3143.79 1922.09 Q3143.14 1921.52 3143.14 1920.53 Q3143.14 1920.37 3143.26 1919.8 Q3143.37 1919.23 3143.56 1918.43 Q3143.75 1917.63 3143.83 1917.18 L3148.36 1899.17 Q3149.19 1895.9 3149.38 1894.87 Q3149.61 1893.81 3149.61 1892.63 Q3149.61 1889.05 3147.18 1889.05 Q3145.2 1889.05 3143.9 1891.41 Q3142.61 1893.77 3141.5 1898.34 Q3141.16 1899.59 3140.93 1899.86 Q3140.74 1900.13 3140.17 1900.13 Q3139.22 1900.09 3139.22 1899.33 Q3139.22 1899.14 3139.53 1897.88 Q3139.83 1896.62 3140.4 1894.83 Q3141.01 1893.01 3141.58 1891.79 Q3142.08 1890.88 3142.34 1890.46 Q3142.65 1890 3143.37 1889.13 Q3144.13 1888.21 3145.12 1887.79 Q3146.15 1887.34 3147.4 1887.34 Q3150.22 1887.34 3152.28 1889.16 Q3154.33 1890.95 3154.6 1894.11 Q3159.66 1887.34 3166.74 1887.34 Q3170.93 1887.34 3173.32 1889.54 Q3175.72 1891.75 3175.72 1895.67 Q3175.72 1896.59 3175.53 1897.77 Q3175.38 1898.91 3175 1900.35 Q3174.66 1901.8 3174.35 1902.9 Q3174.05 1904.01 3173.44 1905.8 Q3172.83 1907.55 3172.56 1908.31 Q3172.3 1909.07 3171.65 1910.86 Q3171.04 1912.61 3170.96 1912.8 Q3169.56 1916.34 3169.56 1918.36 Q3169.56 1919.69 3169.97 1920.3 Q3170.43 1920.91 3171.42 1920.91 Q3174.08 1920.91 3176.06 1918.28 Q3178.08 1915.62 3179.38 1911.28 Q3179.68 1910.33 3179.83 1910.1 Q3180.02 1909.87 3180.56 1909.87 Q3181.47 1909.87 3181.47 1910.63 Z" fill="#ffffff" fill-rule="nonzero" fill-opacity="1" /><path clip-path="url(#clip080)" d="M3207.14 1909.95 Q3207.21 1908.99 3208.7 1908.99 L3256.47 1908.99 Q3258.71 1908.99 3258.75 1909.87 Q3258.75 1910.82 3256.62 1910.78 L3209.23 1910.78 Q3207.14 1910.82 3207.14 1909.95 M3207.14 1894.72 Q3207.14 1893.77 3208.78 1893.81 L3256.39 1893.81 Q3258.71 1893.81 3258.75 1894.72 Q3258.75 1895.6 3256.77 1895.6 L3208.7 1895.6 Q3207.14 1895.6 3207.14 1894.72 Z" fill="#ffffff" fill-rule="nonzero" fill-opacity="1" /><path clip-path="url(#clip080)" d="M3288.82 1877.29 L3288.82 1874.85 Q3298.18 1874.85 3303.01 1869.87 Q3304.34 1869.87 3304.57 1870.17 Q3304.8 1870.48 3304.8 1871.88 L3304.8 1915.62 Q3304.8 1917.94 3305.94 1918.66 Q3307.09 1919.38 3312.07 1919.38 L3314.55 1919.38 L3314.55 1921.78 Q3311.8 1921.55 3301.91 1921.55 Q3292.01 1921.55 3289.31 1921.78 L3289.31 1919.38 L3291.78 1919.38 Q3296.69 1919.38 3297.87 1918.7 Q3299.05 1917.98 3299.05 1915.62 L3299.05 1875.23 Q3294.98 1877.29 3288.82 1877.29 Z" fill="#ffffff" fill-rule="nonzero" fill-opacity="1" /><circle clip-path="url(#clip080)" cx="2991.71" cy="1980.75" r="33.28" fill="#92a3dd" fill-rule="evenodd" fill-opacity="1" stroke="#ffffff" stroke-opacity="1" stroke-width="12.0178"/>
<path clip-path="url(#clip080)" d="M3181.47 1994.46 Q3181.47 1994.76 3181.13 1995.94 Q3180.78 1997.12 3179.95 1998.95 Q3179.15 2000.78 3178.04 2002.45 Q3176.94 2004.09 3175.11 2005.31 Q3173.32 2006.49 3171.27 2006.49 Q3168.53 2006.49 3166.7 2004.66 Q3164.87 2002.83 3164.87 2000.09 Q3164.87 1998.57 3165.67 1996.48 Q3170.74 1982.97 3170.74 1978.32 Q3170.74 1972.88 3166.51 1972.88 Q3164.42 1972.88 3162.44 1973.68 Q3160.5 1974.44 3159.16 1975.51 Q3157.83 1976.57 3156.61 1978.06 Q3155.43 1979.5 3154.83 1980.49 Q3154.25 1981.44 3153.8 1982.39 L3152.81 1986.28 Q3152.58 1987.34 3151.48 1991.49 L3149.76 1998.53 Q3148.55 2003.79 3148.28 2004.28 Q3147.9 2005.35 3147.06 2005.92 Q3146.22 2006.49 3145.39 2006.49 Q3144.44 2006.49 3143.79 2005.92 Q3143.14 2005.35 3143.14 2004.36 Q3143.14 2004.2 3143.26 2003.63 Q3143.37 2003.06 3143.56 2002.26 Q3143.75 2001.46 3143.83 2001.01 L3148.36 1983 Q3149.19 1979.73 3149.38 1978.7 Q3149.61 1977.64 3149.61 1976.46 Q3149.61 1972.88 3147.18 1972.88 Q3145.2 1972.88 3143.9 1975.24 Q3142.61 1977.6 3141.5 1982.17 Q3141.16 1983.42 3140.93 1983.69 Q3140.74 1983.96 3140.17 1983.96 Q3139.22 1983.92 3139.22 1983.16 Q3139.22 1982.97 3139.53 1981.71 Q3139.83 1980.45 3140.4 1978.66 Q3141.01 1976.84 3141.58 1975.62 Q3142.08 1974.71 3142.34 1974.29 Q3142.65 1973.83 3143.37 1972.96 Q3144.13 1972.04 3145.12 1971.62 Q3146.15 1971.17 3147.4 1971.17 Q3150.22 1971.17 3152.28 1972.99 Q3154.33 1974.78 3154.6 1977.94 Q3159.66 1971.17 3166.74 1971.17 Q3170.93 1971.17 3173.32 1973.37 Q3175.72 1975.58 3175.72 1979.5 Q3175.72 1980.42 3175.53 1981.6 Q3175.38 1982.74 3175 1984.18 Q3174.66 1985.63 3174.35 1986.73 Q3174.05 1987.84 3173.44 1989.63 Q3172.83 1991.38 3172.56 1992.14 Q3172.3 1992.9 3171.65 1994.69 Q3171.04 1996.44 3170.96 1996.63 Q3169.56 2000.17 3169.56 2002.19 Q3169.56 2003.52 3169.97 2004.13 Q3170.43 2004.74 3171.42 2004.74 Q3174.08 2004.74 3176.06 2002.11 Q3178.08 1999.45 3179.38 1995.11 Q3179.68 1994.16 3179.83 1993.93 Q3180.02 1993.7 3180.56 1993.7 Q3181.47 1993.7 3181.47 1994.46 Z" fill="#ffffff" fill-rule="nonzero" fill-opacity="1" /><path clip-path="url(#clip080)" d="M3207.14 1993.78 Q3207.21 1992.82 3208.7 1992.82 L3256.47 1992.82 Q3258.71 1992.82 3258.75 1993.7 Q3258.75 1994.65 3256.62 1994.61 L3209.23 1994.61 Q3207.14 1994.65 3207.14 1993.78 M3207.14 1978.55 Q3207.14 1977.6 3208.78 1977.64 L3256.39 1977.64 Q3258.71 1977.64 3258.75 1978.55 Q3258.75 1979.43 3256.77 1979.43 L3208.7 1979.43 Q3207.14 1979.43 3207.14 1978.55 Z" fill="#ffffff" fill-rule="nonzero" fill-opacity="1" /><path clip-path="url(#clip080)" d="M3288.82 1961.12 L3288.82 1958.68 Q3298.18 1958.68 3303.01 1953.7 Q3304.34 1953.7 3304.57 1954 Q3304.8 1954.31 3304.8 1955.71 L3304.8 1999.45 Q3304.8 2001.77 3305.94 2002.49 Q3307.09 2003.21 3312.07 2003.21 L3314.55 2003.21 L3314.55 2005.61 Q3311.8 2005.38 3301.91 2005.38 Q3292.01 2005.38 3289.31 2005.61 L3289.31 2003.21 L3291.78 2003.21 Q3296.69 2003.21 3297.87 2002.53 Q3299.05 2001.81 3299.05 1999.45 L3299.05 1959.06 Q3294.98 1961.12 3288.82 1961.12 Z" fill="#ffffff" fill-rule="nonzero" fill-opacity="1" /><path clip-path="url(#clip080)" d="M3318.42 1980.68 Q3318.42 1969.23 3321.31 1962.98 Q3325.35 1953.7 3334.86 1953.7 Q3336.88 1953.7 3338.97 1954.27 Q3341.11 1954.8 3343.77 1956.89 Q3346.47 1958.99 3348.11 1962.41 Q3351.23 1969.04 3351.23 1980.68 Q3351.23 1992.06 3348.34 1998.27 Q3344.11 2007.32 3334.79 2007.32 Q3331.29 2007.32 3327.71 2005.54 Q3324.17 2003.75 3321.92 1999.45 Q3318.42 1993.01 3318.42 1980.68 M3324.89 1979.73 Q3324.89 1991.49 3325.73 1996.17 Q3326.68 2001.24 3329.27 2003.44 Q3331.9 2005.61 3334.79 2005.61 Q3337.91 2005.61 3340.5 2003.29 Q3343.12 2000.93 3343.92 1995.87 Q3344.8 1990.88 3344.76 1979.73 Q3344.76 1968.88 3344 1964.54 Q3342.97 1959.48 3340.23 1957.46 Q3337.53 1955.41 3334.79 1955.41 Q3333.76 1955.41 3332.66 1955.71 Q3331.59 1956.02 3330.03 1956.89 Q3328.47 1957.77 3327.25 1959.94 Q3326.07 1962.11 3325.5 1965.38 Q3324.89 1969.61 3324.89 1979.73 Z" fill="#ffffff" fill-rule="nonzero" fill-opacity="1" /><polyline clip-path="url(#clip080)" style="stroke:#496aab; stroke-linecap:round; stroke-linejoin:round; stroke-width:13; stroke-opacity:1; fill:none" points="2881.08,2064.99 3102.34,2064.99 "/>
<path clip-path="url(#clip080)" d="M3181.47 2078.7 Q3181.47 2079 3181.13 2080.18 Q3180.78 2081.36 3179.95 2083.19 Q3179.15 2085.02 3178.04 2086.69 Q3176.94 2088.33 3175.11 2089.55 Q3173.32 2090.73 3171.27 2090.73 Q3168.53 2090.73 3166.7 2088.9 Q3164.87 2087.07 3164.87 2084.33 Q3164.87 2082.81 3165.67 2080.72 Q3170.74 2067.21 3170.74 2062.56 Q3170.74 2057.12 3166.51 2057.12 Q3164.42 2057.12 3162.44 2057.92 Q3160.5 2058.68 3159.16 2059.75 Q3157.83 2060.81 3156.61 2062.3 Q3155.43 2063.74 3154.83 2064.73 Q3154.25 2065.68 3153.8 2066.63 L3152.81 2070.52 Q3152.58 2071.58 3151.48 2075.73 L3149.76 2082.77 Q3148.55 2088.03 3148.28 2088.52 Q3147.9 2089.59 3147.06 2090.16 Q3146.22 2090.73 3145.39 2090.73 Q3144.44 2090.73 3143.79 2090.16 Q3143.14 2089.59 3143.14 2088.6 Q3143.14 2088.44 3143.26 2087.87 Q3143.37 2087.3 3143.56 2086.5 Q3143.75 2085.7 3143.83 2085.25 L3148.36 2067.24 Q3149.19 2063.97 3149.38 2062.94 Q3149.61 2061.88 3149.61 2060.7 Q3149.61 2057.12 3147.18 2057.12 Q3145.2 2057.12 3143.9 2059.48 Q3142.61 2061.84 3141.5 2066.41 Q3141.16 2067.66 3140.93 2067.93 Q3140.74 2068.2 3140.17 2068.2 Q3139.22 2068.16 3139.22 2067.4 Q3139.22 2067.21 3139.53 2065.95 Q3139.83 2064.69 3140.4 2062.9 Q3141.01 2061.08 3141.58 2059.86 Q3142.08 2058.95 3142.34 2058.53 Q3142.65 2058.07 3143.37 2057.2 Q3144.13 2056.28 3145.12 2055.86 Q3146.15 2055.41 3147.4 2055.41 Q3150.22 2055.41 3152.28 2057.23 Q3154.33 2059.02 3154.6 2062.18 Q3159.66 2055.41 3166.74 2055.41 Q3170.93 2055.41 3173.32 2057.61 Q3175.72 2059.82 3175.72 2063.74 Q3175.72 2064.66 3175.53 2065.84 Q3175.38 2066.98 3175 2068.42 Q3174.66 2069.87 3174.35 2070.97 Q3174.05 2072.08 3173.44 2073.87 Q3172.83 2075.62 3172.56 2076.38 Q3172.3 2077.14 3171.65 2078.93 Q3171.04 2080.68 3170.96 2080.87 Q3169.56 2084.41 3169.56 2086.43 Q3169.56 2087.76 3169.97 2088.37 Q3170.43 2088.98 3171.42 2088.98 Q3174.08 2088.98 3176.06 2086.35 Q3178.08 2083.69 3179.38 2079.35 Q3179.68 2078.4 3179.83 2078.17 Q3180.02 2077.94 3180.56 2077.94 Q3181.47 2077.94 3181.47 2078.7 Z" fill="#ffffff" fill-rule="nonzero" fill-opacity="1" /><path clip-path="url(#clip080)" d="M3207.14 2078.02 Q3207.21 2077.06 3208.7 2077.06 L3256.47 2077.06 Q3258.71 2077.06 3258.75 2077.94 Q3258.75 2078.89 3256.62 2078.85 L3209.23 2078.85 Q3207.14 2078.89 3207.14 2078.02 M3207.14 2062.79 Q3207.14 2061.84 3208.78 2061.88 L3256.39 2061.88 Q3258.71 2061.88 3258.75 2062.79 Q3258.75 2063.67 3256.77 2063.67 L3208.7 2063.67 Q3207.14 2063.67 3207.14 2062.79 Z" fill="#ffffff" fill-rule="nonzero" fill-opacity="1" /><path clip-path="url(#clip080)" d="M3288.82 2077.29 Q3288.82 2074.97 3290.07 2074.09 Q3291.33 2073.18 3292.66 2073.18 Q3294.45 2073.18 3295.48 2074.32 Q3296.54 2075.43 3296.54 2076.99 Q3296.54 2078.55 3295.48 2079.69 Q3294.45 2080.79 3292.66 2080.79 Q3291.78 2080.79 3291.33 2080.64 Q3292.36 2084.22 3295.48 2086.81 Q3298.64 2089.4 3302.78 2089.4 Q3308 2089.4 3311.12 2084.33 Q3312.98 2081.06 3312.98 2073.64 Q3312.98 2067.09 3311.58 2063.82 Q3309.41 2058.83 3304.95 2058.83 Q3298.64 2058.83 3294.91 2064.27 Q3294.45 2064.96 3293.92 2065 Q3293.15 2065 3292.96 2064.58 Q3292.81 2064.12 3292.81 2062.94 L3292.81 2039.88 Q3292.81 2038.01 3293.57 2038.01 Q3293.88 2038.01 3294.52 2038.24 Q3299.43 2040.41 3304.88 2040.45 Q3310.47 2040.45 3315.5 2038.16 Q3315.88 2037.94 3316.11 2037.94 Q3316.87 2037.94 3316.9 2038.81 Q3316.9 2039.12 3316.26 2040.03 Q3315.65 2040.91 3314.32 2042.09 Q3312.98 2043.23 3311.27 2044.33 Q3309.56 2045.43 3307.05 2046.2 Q3304.57 2046.92 3301.83 2046.92 Q3298.56 2046.92 3295.21 2045.89 L3295.21 2061.08 Q3299.24 2057.12 3305.11 2057.12 Q3311.35 2057.12 3315.65 2062.14 Q3319.95 2067.17 3319.95 2074.17 Q3319.95 2081.52 3314.85 2086.54 Q3309.79 2091.56 3302.94 2091.56 Q3296.69 2091.56 3292.74 2087.11 Q3288.82 2082.66 3288.82 2077.29 Z" fill="#ffffff" fill-rule="nonzero" fill-opacity="1" /><path clip-path="url(#clip080)" d="M3327.73 2064.92 Q3327.73 2053.47 3330.62 2047.22 Q3334.66 2037.94 3344.17 2037.94 Q3346.19 2037.94 3348.28 2038.51 Q3350.41 2039.04 3353.08 2041.13 Q3355.78 2043.23 3357.42 2046.65 Q3360.54 2053.28 3360.54 2064.92 Q3360.54 2076.3 3357.65 2082.51 Q3353.42 2091.56 3344.1 2091.56 Q3340.59 2091.56 3337.02 2089.78 Q3333.48 2087.99 3331.23 2083.69 Q3327.73 2077.25 3327.73 2064.92 M3334.2 2063.97 Q3334.2 2075.73 3335.04 2080.41 Q3335.99 2085.48 3338.58 2087.68 Q3341.2 2089.85 3344.1 2089.85 Q3347.22 2089.85 3349.8 2087.53 Q3352.43 2085.17 3353.23 2080.11 Q3354.11 2075.12 3354.07 2063.97 Q3354.07 2053.12 3353.31 2048.78 Q3352.28 2043.72 3349.54 2041.7 Q3346.84 2039.65 3344.1 2039.65 Q3343.07 2039.65 3341.96 2039.95 Q3340.9 2040.26 3339.34 2041.13 Q3337.78 2042.01 3336.56 2044.18 Q3335.38 2046.35 3334.81 2049.62 Q3334.2 2053.85 3334.2 2063.97 Z" fill="#ffffff" fill-rule="nonzero" fill-opacity="1" /><polyline clip-path="url(#clip080)" style="stroke:#263b64; stroke-linecap:round; stroke-linejoin:round; stroke-width:19.5; stroke-opacity:1; fill:none" points="2881.08,2149.23 3102.34,2149.23 "/>
<path clip-path="url(#clip080)" d="M3181.47 2162.94 Q3181.47 2163.24 3181.13 2164.42 Q3180.78 2165.6 3179.95 2167.43 Q3179.15 2169.26 3178.04 2170.93 Q3176.94 2172.57 3175.11 2173.79 Q3173.32 2174.97 3171.27 2174.97 Q3168.53 2174.97 3166.7 2173.14 Q3164.87 2171.31 3164.87 2168.57 Q3164.87 2167.05 3165.67 2164.96 Q3170.74 2151.45 3170.74 2146.8 Q3170.74 2141.36 3166.51 2141.36 Q3164.42 2141.36 3162.44 2142.16 Q3160.5 2142.92 3159.16 2143.99 Q3157.83 2145.05 3156.61 2146.54 Q3155.43 2147.98 3154.83 2148.97 Q3154.25 2149.92 3153.8 2150.87 L3152.81 2154.76 Q3152.58 2155.82 3151.48 2159.97 L3149.76 2167.01 Q3148.55 2172.27 3148.28 2172.76 Q3147.9 2173.83 3147.06 2174.4 Q3146.22 2174.97 3145.39 2174.97 Q3144.44 2174.97 3143.79 2174.4 Q3143.14 2173.83 3143.14 2172.84 Q3143.14 2172.68 3143.26 2172.11 Q3143.37 2171.54 3143.56 2170.74 Q3143.75 2169.94 3143.83 2169.49 L3148.36 2151.48 Q3149.19 2148.21 3149.38 2147.18 Q3149.61 2146.12 3149.61 2144.94 Q3149.61 2141.36 3147.18 2141.36 Q3145.2 2141.36 3143.9 2143.72 Q3142.61 2146.08 3141.5 2150.65 Q3141.16 2151.9 3140.93 2152.17 Q3140.74 2152.44 3140.17 2152.44 Q3139.22 2152.4 3139.22 2151.64 Q3139.22 2151.45 3139.53 2150.19 Q3139.83 2148.93 3140.4 2147.14 Q3141.01 2145.32 3141.58 2144.1 Q3142.08 2143.19 3142.34 2142.77 Q3142.65 2142.31 3143.37 2141.44 Q3144.13 2140.52 3145.12 2140.1 Q3146.15 2139.65 3147.4 2139.65 Q3150.22 2139.65 3152.28 2141.47 Q3154.33 2143.26 3154.6 2146.42 Q3159.66 2139.65 3166.74 2139.65 Q3170.93 2139.65 3173.32 2141.85 Q3175.72 2144.06 3175.72 2147.98 Q3175.72 2148.9 3175.53 2150.08 Q3175.38 2151.22 3175 2152.66 Q3174.66 2154.11 3174.35 2155.21 Q3174.05 2156.32 3173.44 2158.11 Q3172.83 2159.86 3172.56 2160.62 Q3172.3 2161.38 3171.65 2163.17 Q3171.04 2164.92 3170.96 2165.11 Q3169.56 2168.65 3169.56 2170.67 Q3169.56 2172 3169.97 2172.61 Q3170.43 2173.22 3171.42 2173.22 Q3174.08 2173.22 3176.06 2170.59 Q3178.08 2167.93 3179.38 2163.59 Q3179.68 2162.64 3179.83 2162.41 Q3180.02 2162.18 3180.56 2162.18 Q3181.47 2162.18 3181.47 2162.94 Z" fill="#ffffff" fill-rule="nonzero" fill-opacity="1" /><path clip-path="url(#clip080)" d="M3207.14 2162.26 Q3207.21 2161.3 3208.7 2161.3 L3256.47 2161.3 Q3258.71 2161.3 3258.75 2162.18 Q3258.75 2163.13 3256.62 2163.09 L3209.23 2163.09 Q3207.14 2163.13 3207.14 2162.26 M3207.14 2147.03 Q3207.14 2146.08 3208.78 2146.12 L3256.39 2146.12 Q3258.71 2146.12 3258.75 2147.03 Q3258.75 2147.91 3256.77 2147.91 L3208.7 2147.91 Q3207.14 2147.91 3207.14 2147.03 Z" fill="#ffffff" fill-rule="nonzero" fill-opacity="1" /><path clip-path="url(#clip080)" d="M3288.82 2129.6 L3288.82 2127.16 Q3298.18 2127.16 3303.01 2122.18 Q3304.34 2122.18 3304.57 2122.48 Q3304.8 2122.79 3304.8 2124.19 L3304.8 2167.93 Q3304.8 2170.25 3305.94 2170.97 Q3307.09 2171.69 3312.07 2171.69 L3314.55 2171.69 L3314.55 2174.09 Q3311.8 2173.86 3301.91 2173.86 Q3292.01 2173.86 3289.31 2174.09 L3289.31 2171.69 L3291.78 2171.69 Q3296.69 2171.69 3297.87 2171.01 Q3299.05 2170.29 3299.05 2167.93 L3299.05 2127.54 Q3294.98 2129.6 3288.82 2129.6 Z" fill="#ffffff" fill-rule="nonzero" fill-opacity="1" /><path clip-path="url(#clip080)" d="M3318.42 2149.16 Q3318.42 2137.71 3321.31 2131.46 Q3325.35 2122.18 3334.86 2122.18 Q3336.88 2122.18 3338.97 2122.75 Q3341.11 2123.28 3343.77 2125.37 Q3346.47 2127.47 3348.11 2130.89 Q3351.23 2137.52 3351.23 2149.16 Q3351.23 2160.54 3348.34 2166.75 Q3344.11 2175.8 3334.79 2175.8 Q3331.29 2175.8 3327.71 2174.02 Q3324.17 2172.23 3321.92 2167.93 Q3318.42 2161.49 3318.42 2149.16 M3324.89 2148.21 Q3324.89 2159.97 3325.73 2164.65 Q3326.68 2169.72 3329.27 2171.92 Q3331.9 2174.09 3334.79 2174.09 Q3337.91 2174.09 3340.5 2171.77 Q3343.12 2169.41 3343.92 2164.35 Q3344.8 2159.36 3344.76 2148.21 Q3344.76 2137.36 3344 2133.02 Q3342.97 2127.96 3340.23 2125.94 Q3337.53 2123.89 3334.79 2123.89 Q3333.76 2123.89 3332.66 2124.19 Q3331.59 2124.5 3330.03 2125.37 Q3328.47 2126.25 3327.25 2128.42 Q3326.07 2130.59 3325.5 2133.86 Q3324.89 2138.09 3324.89 2148.21 Z" fill="#ffffff" fill-rule="nonzero" fill-opacity="1" /><path clip-path="url(#clip080)" d="M3357.34 2149.16 Q3357.34 2137.71 3360.23 2131.46 Q3364.26 2122.18 3373.78 2122.18 Q3375.79 2122.18 3377.89 2122.75 Q3380.02 2123.28 3382.68 2125.37 Q3385.39 2127.47 3387.02 2130.89 Q3390.14 2137.52 3390.14 2149.16 Q3390.14 2160.54 3387.25 2166.75 Q3383.03 2175.8 3373.7 2175.8 Q3370.2 2175.8 3366.62 2174.02 Q3363.08 2172.23 3360.84 2167.93 Q3357.34 2161.49 3357.34 2149.16 M3363.81 2148.21 Q3363.81 2159.97 3364.64 2164.65 Q3365.59 2169.72 3368.18 2171.92 Q3370.81 2174.09 3373.7 2174.09 Q3376.82 2174.09 3379.41 2171.77 Q3382.04 2169.41 3382.84 2164.35 Q3383.71 2159.36 3383.67 2148.21 Q3383.67 2137.36 3382.91 2133.02 Q3381.88 2127.96 3379.14 2125.94 Q3376.44 2123.89 3373.7 2123.89 Q3372.67 2123.89 3371.57 2124.19 Q3370.5 2124.5 3368.94 2125.37 Q3367.38 2126.25 3366.17 2128.42 Q3364.99 2130.59 3364.41 2133.86 Q3363.81 2138.09 3363.81 2148.21 Z" fill="#ffffff" fill-rule="nonzero" fill-opacity="1" /><polyline clip-path="url(#clip080)" style="stroke:#111825; stroke-linecap:round; stroke-linejoin:round; stroke-width:32.5; stroke-opacity:1; fill:none" points="2881.08,2233.47 3102.34,2233.47 "/>
<path clip-path="url(#clip080)" d="M3181.47 2247.18 Q3181.47 2247.48 3181.13 2248.66 Q3180.78 2249.84 3179.95 2251.67 Q3179.15 2253.5 3178.04 2255.17 Q3176.94 2256.81 3175.11 2258.03 Q3173.32 2259.21 3171.27 2259.21 Q3168.53 2259.21 3166.7 2257.38 Q3164.87 2255.55 3164.87 2252.81 Q3164.87 2251.29 3165.67 2249.2 Q3170.74 2235.69 3170.74 2231.04 Q3170.74 2225.6 3166.51 2225.6 Q3164.42 2225.6 3162.44 2226.4 Q3160.5 2227.16 3159.16 2228.23 Q3157.83 2229.29 3156.61 2230.78 Q3155.43 2232.22 3154.83 2233.21 Q3154.25 2234.16 3153.8 2235.11 L3152.81 2239 Q3152.58 2240.06 3151.48 2244.21 L3149.76 2251.25 Q3148.55 2256.51 3148.28 2257 Q3147.9 2258.07 3147.06 2258.64 Q3146.22 2259.21 3145.39 2259.21 Q3144.44 2259.21 3143.79 2258.64 Q3143.14 2258.07 3143.14 2257.08 Q3143.14 2256.92 3143.26 2256.35 Q3143.37 2255.78 3143.56 2254.98 Q3143.75 2254.18 3143.83 2253.73 L3148.36 2235.72 Q3149.19 2232.45 3149.38 2231.42 Q3149.61 2230.36 3149.61 2229.18 Q3149.61 2225.6 3147.18 2225.6 Q3145.2 2225.6 3143.9 2227.96 Q3142.61 2230.32 3141.5 2234.89 Q3141.16 2236.14 3140.93 2236.41 Q3140.74 2236.68 3140.17 2236.68 Q3139.22 2236.64 3139.22 2235.88 Q3139.22 2235.69 3139.53 2234.43 Q3139.83 2233.17 3140.4 2231.38 Q3141.01 2229.56 3141.58 2228.34 Q3142.08 2227.43 3142.34 2227.01 Q3142.65 2226.55 3143.37 2225.68 Q3144.13 2224.76 3145.12 2224.34 Q3146.15 2223.89 3147.4 2223.89 Q3150.22 2223.89 3152.28 2225.71 Q3154.33 2227.5 3154.6 2230.66 Q3159.66 2223.89 3166.74 2223.89 Q3170.93 2223.89 3173.32 2226.09 Q3175.72 2228.3 3175.72 2232.22 Q3175.72 2233.14 3175.53 2234.32 Q3175.38 2235.46 3175 2236.9 Q3174.66 2238.35 3174.35 2239.45 Q3174.05 2240.56 3173.44 2242.35 Q3172.83 2244.1 3172.56 2244.86 Q3172.3 2245.62 3171.65 2247.41 Q3171.04 2249.16 3170.96 2249.35 Q3169.56 2252.89 3169.56 2254.91 Q3169.56 2256.24 3169.97 2256.85 Q3170.43 2257.46 3171.42 2257.46 Q3174.08 2257.46 3176.06 2254.83 Q3178.08 2252.17 3179.38 2247.83 Q3179.68 2246.88 3179.83 2246.65 Q3180.02 2246.42 3180.56 2246.42 Q3181.47 2246.42 3181.47 2247.18 Z" fill="#ffffff" fill-rule="nonzero" fill-opacity="1" /><path clip-path="url(#clip080)" d="M3207.14 2246.5 Q3207.21 2245.54 3208.7 2245.54 L3256.47 2245.54 Q3258.71 2245.54 3258.75 2246.42 Q3258.75 2247.37 3256.62 2247.33 L3209.23 2247.33 Q3207.14 2247.37 3207.14 2246.5 M3207.14 2231.27 Q3207.14 2230.32 3208.78 2230.36 L3256.39 2230.36 Q3258.71 2230.36 3258.75 2231.27 Q3258.75 2232.15 3256.77 2232.15 L3208.7 2232.15 Q3207.14 2232.15 3207.14 2231.27 Z" fill="#ffffff" fill-rule="nonzero" fill-opacity="1" /><path clip-path="url(#clip080)" d="M3288.82 2258.33 Q3288.82 2256.92 3288.93 2256.51 Q3289.08 2256.09 3289.69 2255.44 L3304.65 2238.77 Q3312.83 2229.56 3312.83 2221.53 Q3312.83 2216.31 3310.09 2212.58 Q3307.39 2208.85 3302.4 2208.85 Q3298.98 2208.85 3296.09 2210.95 Q3293.19 2213.04 3291.86 2216.77 Q3292.09 2216.69 3292.89 2216.69 Q3294.83 2216.69 3295.89 2217.91 Q3297 2219.13 3297 2220.77 Q3297 2222.86 3295.63 2223.89 Q3294.3 2224.88 3292.96 2224.88 Q3292.43 2224.88 3291.71 2224.76 Q3291.02 2224.65 3289.92 2223.58 Q3288.82 2222.48 3288.82 2220.54 Q3288.82 2215.09 3292.93 2210.76 Q3297.07 2206.42 3303.39 2206.42 Q3310.55 2206.42 3315.23 2210.68 Q3319.95 2214.9 3319.95 2221.53 Q3319.95 2223.85 3319.23 2225.98 Q3318.54 2228.07 3317.59 2229.71 Q3316.68 2231.35 3314.16 2233.97 Q3311.65 2236.6 3309.64 2238.46 Q3307.62 2240.33 3303.09 2244.29 L3294.83 2252.32 L3308.87 2252.32 Q3315.72 2252.32 3316.26 2251.71 Q3317.02 2250.61 3317.97 2244.78 L3319.95 2244.78 L3317.74 2258.33 L3288.82 2258.33 Z" fill="#ffffff" fill-rule="nonzero" fill-opacity="1" /><path clip-path="url(#clip080)" d="M3327.73 2233.4 Q3327.73 2221.95 3330.62 2215.7 Q3334.66 2206.42 3344.17 2206.42 Q3346.19 2206.42 3348.28 2206.99 Q3350.41 2207.52 3353.08 2209.61 Q3355.78 2211.71 3357.42 2215.13 Q3360.54 2221.76 3360.54 2233.4 Q3360.54 2244.78 3357.65 2250.99 Q3353.42 2260.04 3344.1 2260.04 Q3340.59 2260.04 3337.02 2258.26 Q3333.48 2256.47 3331.23 2252.17 Q3327.73 2245.73 3327.73 2233.4 M3334.2 2232.45 Q3334.2 2244.21 3335.04 2248.89 Q3335.99 2253.96 3338.58 2256.16 Q3341.2 2258.33 3344.1 2258.33 Q3347.22 2258.33 3349.8 2256.01 Q3352.43 2253.65 3353.23 2248.59 Q3354.11 2243.6 3354.07 2232.45 Q3354.07 2221.6 3353.31 2217.26 Q3352.28 2212.2 3349.54 2210.18 Q3346.84 2208.13 3344.1 2208.13 Q3343.07 2208.13 3341.96 2208.43 Q3340.9 2208.74 3339.34 2209.61 Q3337.78 2210.49 3336.56 2212.66 Q3335.38 2214.83 3334.81 2218.1 Q3334.2 2222.33 3334.2 2232.45 Z" fill="#ffffff" fill-rule="nonzero" fill-opacity="1" /><path clip-path="url(#clip080)" d="M3366.64 2233.4 Q3366.64 2221.95 3369.54 2215.7 Q3373.57 2206.42 3383.09 2206.42 Q3385.1 2206.42 3387.2 2206.99 Q3389.33 2207.52 3391.99 2209.61 Q3394.69 2211.71 3396.33 2215.13 Q3399.45 2221.76 3399.45 2233.4 Q3399.45 2244.78 3396.56 2250.99 Q3392.33 2260.04 3383.01 2260.04 Q3379.51 2260.04 3375.93 2258.26 Q3372.39 2256.47 3370.14 2252.17 Q3366.64 2245.73 3366.64 2233.4 M3373.11 2232.45 Q3373.11 2244.21 3373.95 2248.89 Q3374.9 2253.96 3377.49 2256.16 Q3380.12 2258.33 3383.01 2258.33 Q3386.13 2258.33 3388.72 2256.01 Q3391.34 2253.65 3392.14 2248.59 Q3393.02 2243.6 3392.98 2232.45 Q3392.98 2221.6 3392.22 2217.26 Q3391.19 2212.2 3388.45 2210.18 Q3385.75 2208.13 3383.01 2208.13 Q3381.98 2208.13 3380.88 2208.43 Q3379.81 2208.74 3378.25 2209.61 Q3376.69 2210.49 3375.47 2212.66 Q3374.29 2214.83 3373.72 2218.1 Q3373.11 2222.33 3373.11 2232.45 Z" fill="#ffffff" fill-rule="nonzero" fill-opacity="1" /></svg>
