<?xml version="1.0" encoding="utf-8"?>
<svg xmlns="http://www.w3.org/2000/svg" xmlns:xlink="http://www.w3.org/1999/xlink" width="900" height="650" viewBox="0 0 3600 2600">
<defs>
  <clipPath id="clip040">
    <rect x="0" y="0" width="3600" height="2600"/>
  </clipPath>
</defs>
<path clip-path="url(#clip040)" d="M0 2600 L3600 2600 L3600 0 L0 0  Z" fill="#7f7f7f" fill-rule="evenodd" fill-opacity="1"/>
<defs>
  <clipPath id="clip041">
    <rect x="720" y="0" width="2521" height="2521"/>
  </clipPath>
</defs>
<defs>
  <clipPath id="clip042">
    <rect x="237" y="133" width="3316" height="2274"/>
  </clipPath>
</defs>
<path clip-path="url(#clip040)" d="M233.743 2393.03 L3552.76 2393.03 L3552.76 133.192 L233.743 133.192  Z" fill="#7f7f7f" fill-rule="evenodd" fill-opacity="1"/>
<defs>
  <clipPath id="clip043">
    <rect x="233" y="133" width="3320" height="2261"/>
  </clipPath>
</defs>
<polyline clip-path="url(#clip043)" style="stroke:#ffffff; stroke-linecap:round; stroke-linejoin:round; stroke-width:2; stroke-opacity:0.5; fill:none" points="451.681,2393.03 451.681,133.192 "/>
<polyline clip-path="url(#clip043)" style="stroke:#ffffff; stroke-linecap:round; stroke-linejoin:round; stroke-width:2; stroke-opacity:0.5; fill:none" points="1858.63,2393.03 1858.63,133.192 "/>
<polyline clip-path="url(#clip043)" style="stroke:#ffffff; stroke-linecap:round; stroke-linejoin:round; stroke-width:2; stroke-opacity:0.5; fill:none" points="3265.57,2393.03 3265.57,133.192 "/>
<polyline clip-path="url(#clip043)" style="stroke:#ffffff; stroke-linecap:round; stroke-linejoin:round; stroke-width:2; stroke-opacity:0.3; fill:none" points="233.743,2393.03 233.743,133.192 "/>
<polyline clip-path="url(#clip043)" style="stroke:#ffffff; stroke-linecap:round; stroke-linejoin:round; stroke-width:2; stroke-opacity:0.3; fill:none" points="315.334,2393.03 315.334,133.192 "/>
<polyline clip-path="url(#clip043)" style="stroke:#ffffff; stroke-linecap:round; stroke-linejoin:round; stroke-width:2; stroke-opacity:0.3; fill:none" points="387.303,2393.03 387.303,133.192 "/>
<polyline clip-path="url(#clip043)" style="stroke:#ffffff; stroke-linecap:round; stroke-linejoin:round; stroke-width:2; stroke-opacity:0.3; fill:none" points="875.214,2393.03 875.214,133.192 "/>
<polyline clip-path="url(#clip043)" style="stroke:#ffffff; stroke-linecap:round; stroke-linejoin:round; stroke-width:2; stroke-opacity:0.3; fill:none" points="1122.96,2393.03 1122.96,133.192 "/>
<polyline clip-path="url(#clip043)" style="stroke:#ffffff; stroke-linecap:round; stroke-linejoin:round; stroke-width:2; stroke-opacity:0.3; fill:none" points="1298.75,2393.03 1298.75,133.192 "/>
<polyline clip-path="url(#clip043)" style="stroke:#ffffff; stroke-linecap:round; stroke-linejoin:round; stroke-width:2; stroke-opacity:0.3; fill:none" points="1435.09,2393.03 1435.09,133.192 "/>
<polyline clip-path="url(#clip043)" style="stroke:#ffffff; stroke-linecap:round; stroke-linejoin:round; stroke-width:2; stroke-opacity:0.3; fill:none" points="1546.5,2393.03 1546.5,133.192 "/>
<polyline clip-path="url(#clip043)" style="stroke:#ffffff; stroke-linecap:round; stroke-linejoin:round; stroke-width:2; stroke-opacity:0.3; fill:none" points="1640.69,2393.03 1640.69,133.192 "/>
<polyline clip-path="url(#clip043)" style="stroke:#ffffff; stroke-linecap:round; stroke-linejoin:round; stroke-width:2; stroke-opacity:0.3; fill:none" points="1722.28,2393.03 1722.28,133.192 "/>
<polyline clip-path="url(#clip043)" style="stroke:#ffffff; stroke-linecap:round; stroke-linejoin:round; stroke-width:2; stroke-opacity:0.3; fill:none" points="1794.25,2393.03 1794.25,133.192 "/>
<polyline clip-path="url(#clip043)" style="stroke:#ffffff; stroke-linecap:round; stroke-linejoin:round; stroke-width:2; stroke-opacity:0.3; fill:none" points="2282.16,2393.03 2282.16,133.192 "/>
<polyline clip-path="url(#clip043)" style="stroke:#ffffff; stroke-linecap:round; stroke-linejoin:round; stroke-width:2; stroke-opacity:0.3; fill:none" points="2529.91,2393.03 2529.91,133.192 "/>
<polyline clip-path="url(#clip043)" style="stroke:#ffffff; stroke-linecap:round; stroke-linejoin:round; stroke-width:2; stroke-opacity:0.3; fill:none" points="2705.69,2393.03 2705.69,133.192 "/>
<polyline clip-path="url(#clip043)" style="stroke:#ffffff; stroke-linecap:round; stroke-linejoin:round; stroke-width:2; stroke-opacity:0.3; fill:none" points="2842.04,2393.03 2842.04,133.192 "/>
<polyline clip-path="url(#clip043)" style="stroke:#ffffff; stroke-linecap:round; stroke-linejoin:round; stroke-width:2; stroke-opacity:0.3; fill:none" points="2953.44,2393.03 2953.44,133.192 "/>
<polyline clip-path="url(#clip043)" style="stroke:#ffffff; stroke-linecap:round; stroke-linejoin:round; stroke-width:2; stroke-opacity:0.3; fill:none" points="3047.63,2393.03 3047.63,133.192 "/>
<polyline clip-path="url(#clip043)" style="stroke:#ffffff; stroke-linecap:round; stroke-linejoin:round; stroke-width:2; stroke-opacity:0.3; fill:none" points="3129.22,2393.03 3129.22,133.192 "/>
<polyline clip-path="url(#clip043)" style="stroke:#ffffff; stroke-linecap:round; stroke-linejoin:round; stroke-width:2; stroke-opacity:0.3; fill:none" points="3201.19,2393.03 3201.19,133.192 "/>
<polyline clip-path="url(#clip040)" style="stroke:#ffffff; stroke-linecap:round; stroke-linejoin:round; stroke-width:4; stroke-opacity:1; fill:none" points="233.743,2393.03 3552.76,2393.03 "/>
<polyline clip-path="url(#clip040)" style="stroke:#ffffff; stroke-linecap:round; stroke-linejoin:round; stroke-width:4; stroke-opacity:1; fill:none" points="451.681,2393.03 451.681,2374.14 "/>
<polyline clip-path="url(#clip040)" style="stroke:#ffffff; stroke-linecap:round; stroke-linejoin:round; stroke-width:4; stroke-opacity:1; fill:none" points="1858.63,2393.03 1858.63,2374.14 "/>
<polyline clip-path="url(#clip040)" style="stroke:#ffffff; stroke-linecap:round; stroke-linejoin:round; stroke-width:4; stroke-opacity:1; fill:none" points="3265.57,2393.03 3265.57,2374.14 "/>
<polyline clip-path="url(#clip040)" style="stroke:#ffffff; stroke-linecap:round; stroke-linejoin:round; stroke-width:4; stroke-opacity:1; fill:none" points="233.743,2393.03 233.743,2383.58 "/>
<polyline clip-path="url(#clip040)" style="stroke:#ffffff; stroke-linecap:round; stroke-linejoin:round; stroke-width:4; stroke-opacity:1; fill:none" points="315.334,2393.03 315.334,2383.58 "/>
<polyline clip-path="url(#clip040)" style="stroke:#ffffff; stroke-linecap:round; stroke-linejoin:round; stroke-width:4; stroke-opacity:1; fill:none" points="387.303,2393.03 387.303,2383.58 "/>
<polyline clip-path="url(#clip040)" style="stroke:#ffffff; stroke-linecap:round; stroke-linejoin:round; stroke-width:4; stroke-opacity:1; fill:none" points="875.214,2393.03 875.214,2383.58 "/>
<polyline clip-path="url(#clip040)" style="stroke:#ffffff; stroke-linecap:round; stroke-linejoin:round; stroke-width:4; stroke-opacity:1; fill:none" points="1122.96,2393.03 1122.96,2383.58 "/>
<polyline clip-path="url(#clip040)" style="stroke:#ffffff; stroke-linecap:round; stroke-linejoin:round; stroke-width:4; stroke-opacity:1; fill:none" points="1298.75,2393.03 1298.75,2383.58 "/>
<polyline clip-path="url(#clip040)" style="stroke:#ffffff; stroke-linecap:round; stroke-linejoin:round; stroke-width:4; stroke-opacity:1; fill:none" points="1435.09,2393.03 1435.09,2383.58 "/>
<polyline clip-path="url(#clip040)" style="stroke:#ffffff; stroke-linecap:round; stroke-linejoin:round; stroke-width:4; stroke-opacity:1; fill:none" points="1546.5,2393.03 1546.5,2383.58 "/>
<polyline clip-path="url(#clip040)" style="stroke:#ffffff; stroke-linecap:round; stroke-linejoin:round; stroke-width:4; stroke-opacity:1; fill:none" points="1640.69,2393.03 1640.69,2383.58 "/>
<polyline clip-path="url(#clip040)" style="stroke:#ffffff; stroke-linecap:round; stroke-linejoin:round; stroke-width:4; stroke-opacity:1; fill:none" points="1722.28,2393.03 1722.28,2383.58 "/>
<polyline clip-path="url(#clip040)" style="stroke:#ffffff; stroke-linecap:round; stroke-linejoin:round; stroke-width:4; stroke-opacity:1; fill:none" points="1794.25,2393.03 1794.25,2383.58 "/>
<polyline clip-path="url(#clip040)" style="stroke:#ffffff; stroke-linecap:round; stroke-linejoin:round; stroke-width:4; stroke-opacity:1; fill:none" points="2282.16,2393.03 2282.16,2383.58 "/>
<polyline clip-path="url(#clip040)" style="stroke:#ffffff; stroke-linecap:round; stroke-linejoin:round; stroke-width:4; stroke-opacity:1; fill:none" points="2529.91,2393.03 2529.91,2383.58 "/>
<polyline clip-path="url(#clip040)" style="stroke:#ffffff; stroke-linecap:round; stroke-linejoin:round; stroke-width:4; stroke-opacity:1; fill:none" points="2705.69,2393.03 2705.69,2383.58 "/>
<polyline clip-path="url(#clip040)" style="stroke:#ffffff; stroke-linecap:round; stroke-linejoin:round; stroke-width:4; stroke-opacity:1; fill:none" points="2842.04,2393.03 2842.04,2383.58 "/>
<polyline clip-path="url(#clip040)" style="stroke:#ffffff; stroke-linecap:round; stroke-linejoin:round; stroke-width:4; stroke-opacity:1; fill:none" points="2953.44,2393.03 2953.44,2383.58 "/>
<polyline clip-path="url(#clip040)" style="stroke:#ffffff; stroke-linecap:round; stroke-linejoin:round; stroke-width:4; stroke-opacity:1; fill:none" points="3047.63,2393.03 3047.63,2383.58 "/>
<polyline clip-path="url(#clip040)" style="stroke:#ffffff; stroke-linecap:round; stroke-linejoin:round; stroke-width:4; stroke-opacity:1; fill:none" points="3129.22,2393.03 3129.22,2383.58 "/>
<polyline clip-path="url(#clip040)" style="stroke:#ffffff; stroke-linecap:round; stroke-linejoin:round; stroke-width:4; stroke-opacity:1; fill:none" points="3201.19,2393.03 3201.19,2383.58 "/>
<path clip-path="url(#clip040)" d="M418.009 2476.76 L425.648 2476.76 L425.648 2450.39 L417.338 2452.06 L417.338 2447.8 L425.602 2446.13 L430.277 2446.13 L430.277 2476.76 L437.916 2476.76 L437.916 2480.69 L418.009 2480.69 L418.009 2476.76 Z" fill="#ffffff" fill-rule="nonzero" fill-opacity="1" /><path clip-path="url(#clip040)" d="M457.361 2449.21 Q453.75 2449.21 451.921 2452.78 Q450.115 2456.32 450.115 2463.45 Q450.115 2470.55 451.921 2474.12 Q453.75 2477.66 457.361 2477.66 Q460.995 2477.66 462.8 2474.12 Q464.629 2470.55 464.629 2463.45 Q464.629 2456.32 462.8 2452.78 Q460.995 2449.21 457.361 2449.21 M457.361 2445.51 Q463.171 2445.51 466.226 2450.11 Q469.305 2454.7 469.305 2463.45 Q469.305 2472.17 466.226 2476.78 Q463.171 2481.36 457.361 2481.36 Q451.55 2481.36 448.472 2476.78 Q445.416 2472.17 445.416 2463.45 Q445.416 2454.7 448.472 2450.11 Q451.55 2445.51 457.361 2445.51 Z" fill="#ffffff" fill-rule="nonzero" fill-opacity="1" /><path clip-path="url(#clip040)" d="M469.85 2450.09 L476.057 2450.09 L476.057 2428.66 L469.305 2430.02 L469.305 2426.56 L476.019 2425.2 L479.819 2425.2 L479.819 2450.09 L486.025 2450.09 L486.025 2453.28 L469.85 2453.28 L469.85 2450.09 Z" fill="#ffffff" fill-rule="nonzero" fill-opacity="1" /><path clip-path="url(#clip040)" d="M1824.4 2476.76 L1832.04 2476.76 L1832.04 2450.39 L1823.73 2452.06 L1823.73 2447.8 L1831.99 2446.13 L1836.67 2446.13 L1836.67 2476.76 L1844.31 2476.76 L1844.31 2480.69 L1824.4 2480.69 L1824.4 2476.76 Z" fill="#ffffff" fill-rule="nonzero" fill-opacity="1" /><path clip-path="url(#clip040)" d="M1863.75 2449.21 Q1860.14 2449.21 1858.31 2452.78 Q1856.5 2456.32 1856.5 2463.45 Q1856.5 2470.55 1858.31 2474.12 Q1860.14 2477.66 1863.75 2477.66 Q1867.38 2477.66 1869.19 2474.12 Q1871.02 2470.55 1871.02 2463.45 Q1871.02 2456.32 1869.19 2452.78 Q1867.38 2449.21 1863.75 2449.21 M1863.75 2445.51 Q1869.56 2445.51 1872.62 2450.11 Q1875.69 2454.7 1875.69 2463.45 Q1875.69 2472.17 1872.62 2476.78 Q1869.56 2481.36 1863.75 2481.36 Q1857.94 2481.36 1854.86 2476.78 Q1851.81 2472.17 1851.81 2463.45 Q1851.81 2454.7 1854.86 2450.11 Q1857.94 2445.51 1863.75 2445.51 Z" fill="#ffffff" fill-rule="nonzero" fill-opacity="1" /><path clip-path="url(#clip040)" d="M1880.26 2450.09 L1893.52 2450.09 L1893.52 2453.28 L1875.69 2453.28 L1875.69 2450.09 Q1877.86 2447.85 1881.58 2444.09 Q1885.32 2440.31 1886.28 2439.21 Q1888.11 2437.16 1888.82 2435.75 Q1889.56 2434.32 1889.56 2432.95 Q1889.56 2430.71 1887.98 2429.3 Q1886.42 2427.89 1883.89 2427.89 Q1882.11 2427.89 1880.11 2428.51 Q1878.14 2429.13 1875.88 2430.39 L1875.88 2426.56 Q1878.18 2425.64 1880.17 2425.17 Q1882.16 2424.69 1883.82 2424.69 Q1888.18 2424.69 1890.78 2426.88 Q1893.37 2429.06 1893.37 2432.71 Q1893.37 2434.44 1892.72 2436 Q1892.08 2437.54 1890.36 2439.65 Q1889.89 2440.19 1887.37 2442.81 Q1884.85 2445.4 1880.26 2450.09 Z" fill="#ffffff" fill-rule="nonzero" fill-opacity="1" /><path clip-path="url(#clip040)" d="M3231.01 2476.76 L3238.65 2476.76 L3238.65 2450.39 L3230.34 2452.06 L3230.34 2447.8 L3238.61 2446.13 L3243.28 2446.13 L3243.28 2476.76 L3250.92 2476.76 L3250.92 2480.69 L3231.01 2480.69 L3231.01 2476.76 Z" fill="#ffffff" fill-rule="nonzero" fill-opacity="1" /><path clip-path="url(#clip040)" d="M3270.37 2449.21 Q3266.75 2449.21 3264.93 2452.78 Q3263.12 2456.32 3263.12 2463.45 Q3263.12 2470.55 3264.93 2474.12 Q3266.75 2477.66 3270.37 2477.66 Q3274 2477.66 3275.81 2474.12 Q3277.63 2470.55 3277.63 2463.45 Q3277.63 2456.32 3275.81 2452.78 Q3274 2449.21 3270.37 2449.21 M3270.37 2445.51 Q3276.18 2445.51 3279.23 2450.11 Q3282.31 2454.7 3282.31 2463.45 Q3282.31 2472.17 3279.23 2476.78 Q3276.18 2481.36 3270.37 2481.36 Q3264.56 2481.36 3261.48 2476.78 Q3258.42 2472.17 3258.42 2463.45 Q3258.42 2454.7 3261.48 2450.11 Q3264.56 2445.51 3270.37 2445.51 Z" fill="#ffffff" fill-rule="nonzero" fill-opacity="1" /><path clip-path="url(#clip040)" d="M3295.01 2438.14 Q3297.73 2438.73 3299.26 2440.57 Q3300.8 2442.41 3300.8 2445.12 Q3300.8 2449.28 3297.94 2451.55 Q3295.08 2453.83 3289.81 2453.83 Q3288.05 2453.83 3286.17 2453.47 Q3284.3 2453.13 3282.31 2452.44 L3282.31 2448.77 Q3283.89 2449.69 3285.77 2450.16 Q3287.65 2450.63 3289.7 2450.63 Q3293.27 2450.63 3295.14 2449.22 Q3297.02 2447.81 3297.02 2445.12 Q3297.02 2442.64 3295.27 2441.25 Q3293.54 2439.84 3290.44 2439.84 L3287.16 2439.84 L3287.16 2436.71 L3290.59 2436.71 Q3293.39 2436.71 3294.87 2435.6 Q3296.36 2434.47 3296.36 2432.37 Q3296.36 2430.21 3294.82 2429.06 Q3293.29 2427.89 3290.44 2427.89 Q3288.87 2427.89 3287.09 2428.23 Q3285.3 2428.57 3283.16 2429.28 L3283.16 2425.9 Q3285.32 2425.3 3287.2 2425 Q3289.1 2424.69 3290.77 2424.69 Q3295.1 2424.69 3297.62 2426.67 Q3300.14 2428.63 3300.14 2431.97 Q3300.14 2434.31 3298.8 2435.92 Q3297.47 2437.52 3295.01 2438.14 Z" fill="#ffffff" fill-rule="nonzero" fill-opacity="1" /><path clip-path="url(#clip040)" d="M1922.55 2523.81 Q1922.55 2525.13 1921.43 2525.13 Q1917.79 2525.26 1916.31 2526.48 Q1914.86 2527.67 1914.31 2529.99 L1905.1 2566.74 Q1904.78 2567.9 1904.58 2568.03 Q1904.39 2568.12 1904.04 2568.12 Q1903.59 2568.12 1903.33 2567.9 Q1903.1 2567.67 1902.78 2566.87 L1886.36 2528.03 Q1886.23 2527.77 1886.07 2527.41 Q1885.9 2527.06 1885.78 2526.83 L1877.05 2561.65 Q1876.79 2562.65 1876.79 2563.16 Q1876.79 2564.42 1877.66 2565.22 Q1878.56 2566 1881.14 2566.09 Q1882.46 2566.09 1882.46 2566.8 Q1882.46 2568.12 1881.27 2568.12 Q1880.17 2568.12 1877.89 2568.03 Q1875.6 2567.93 1874.47 2567.93 Q1873.38 2567.93 1871.15 2568.03 Q1868.93 2568.12 1867.87 2568.12 Q1867.03 2568.12 1867.03 2567.38 Q1867.03 2566.8 1867.26 2566.51 Q1867.48 2566.19 1867.68 2566.16 Q1867.87 2566.09 1868.16 2566.09 Q1870.09 2566.03 1871.41 2565.64 Q1872.73 2565.26 1873.47 2564.52 Q1874.25 2563.77 1874.6 2563.03 Q1874.99 2562.26 1875.28 2561.13 L1884.1 2525.71 Q1884.1 2525.13 1879.62 2525.13 Q1878.85 2525.13 1878.53 2525.1 Q1878.24 2525.06 1878.01 2524.9 Q1877.79 2524.74 1877.79 2524.39 Q1877.79 2523.49 1878.18 2523.29 Q1878.56 2523.07 1879.69 2523.07 L1888.55 2523.07 Q1889.67 2523.07 1889.96 2523.26 Q1890.25 2523.42 1890.64 2524.32 L1905.23 2558.75 L1912.6 2529.41 Q1912.8 2528.83 1912.8 2528.03 Q1912.8 2526.74 1911.83 2525.96 Q1910.9 2525.16 1908.32 2525.13 Q1907.13 2525.13 1907.13 2524.39 Q1907.13 2523.77 1907.35 2523.49 Q1907.61 2523.16 1907.8 2523.13 Q1908.03 2523.07 1908.32 2523.07 Q1909.41 2523.07 1911.67 2523.16 Q1913.92 2523.26 1915.05 2523.26 Q1916.15 2523.26 1918.37 2523.16 Q1920.62 2523.07 1921.72 2523.07 Q1922.1 2523.07 1922.3 2523.26 Q1922.52 2523.42 1922.55 2523.61 L1922.55 2523.81 Z" fill="#ffffff" fill-rule="nonzero" fill-opacity="1" /><polyline clip-path="url(#clip043)" style="stroke:#ffffff; stroke-linecap:round; stroke-linejoin:round; stroke-width:2; stroke-opacity:0.5; fill:none" points="233.743,2285.42 3552.76,2285.42 "/>
<polyline clip-path="url(#clip043)" style="stroke:#ffffff; stroke-linecap:round; stroke-linejoin:round; stroke-width:2; stroke-opacity:0.5; fill:none" points="233.743,1747.36 3552.76,1747.36 "/>
<polyline clip-path="url(#clip043)" style="stroke:#ffffff; stroke-linecap:round; stroke-linejoin:round; stroke-width:2; stroke-opacity:0.5; fill:none" points="233.743,1209.31 3552.76,1209.31 "/>
<polyline clip-path="url(#clip043)" style="stroke:#ffffff; stroke-linecap:round; stroke-linejoin:round; stroke-width:2; stroke-opacity:0.5; fill:none" points="233.743,671.249 3552.76,671.249 "/>
<polyline clip-path="url(#clip043)" style="stroke:#ffffff; stroke-linecap:round; stroke-linejoin:round; stroke-width:2; stroke-opacity:0.5; fill:none" points="233.743,133.192 3552.76,133.192 "/>
<polyline clip-path="url(#clip043)" style="stroke:#ffffff; stroke-linecap:round; stroke-linejoin:round; stroke-width:2; stroke-opacity:0.3; fill:none" points="233.743,2393.03 3552.76,2393.03 "/>
<polyline clip-path="url(#clip043)" style="stroke:#ffffff; stroke-linecap:round; stroke-linejoin:round; stroke-width:2; stroke-opacity:0.3; fill:none" points="233.743,2177.81 3552.76,2177.81 "/>
<polyline clip-path="url(#clip043)" style="stroke:#ffffff; stroke-linecap:round; stroke-linejoin:round; stroke-width:2; stroke-opacity:0.3; fill:none" points="233.743,2070.2 3552.76,2070.2 "/>
<polyline clip-path="url(#clip043)" style="stroke:#ffffff; stroke-linecap:round; stroke-linejoin:round; stroke-width:2; stroke-opacity:0.3; fill:none" points="233.743,1962.59 3552.76,1962.59 "/>
<polyline clip-path="url(#clip043)" style="stroke:#ffffff; stroke-linecap:round; stroke-linejoin:round; stroke-width:2; stroke-opacity:0.3; fill:none" points="233.743,1854.98 3552.76,1854.98 "/>
<polyline clip-path="url(#clip043)" style="stroke:#ffffff; stroke-linecap:round; stroke-linejoin:round; stroke-width:2; stroke-opacity:0.3; fill:none" points="233.743,1639.75 3552.76,1639.75 "/>
<polyline clip-path="url(#clip043)" style="stroke:#ffffff; stroke-linecap:round; stroke-linejoin:round; stroke-width:2; stroke-opacity:0.3; fill:none" points="233.743,1532.14 3552.76,1532.14 "/>
<polyline clip-path="url(#clip043)" style="stroke:#ffffff; stroke-linecap:round; stroke-linejoin:round; stroke-width:2; stroke-opacity:0.3; fill:none" points="233.743,1424.53 3552.76,1424.53 "/>
<polyline clip-path="url(#clip043)" style="stroke:#ffffff; stroke-linecap:round; stroke-linejoin:round; stroke-width:2; stroke-opacity:0.3; fill:none" points="233.743,1316.92 3552.76,1316.92 "/>
<polyline clip-path="url(#clip043)" style="stroke:#ffffff; stroke-linecap:round; stroke-linejoin:round; stroke-width:2; stroke-opacity:0.3; fill:none" points="233.743,1101.7 3552.76,1101.7 "/>
<polyline clip-path="url(#clip043)" style="stroke:#ffffff; stroke-linecap:round; stroke-linejoin:round; stroke-width:2; stroke-opacity:0.3; fill:none" points="233.743,994.084 3552.76,994.084 "/>
<polyline clip-path="url(#clip043)" style="stroke:#ffffff; stroke-linecap:round; stroke-linejoin:round; stroke-width:2; stroke-opacity:0.3; fill:none" points="233.743,886.472 3552.76,886.472 "/>
<polyline clip-path="url(#clip043)" style="stroke:#ffffff; stroke-linecap:round; stroke-linejoin:round; stroke-width:2; stroke-opacity:0.3; fill:none" points="233.743,778.861 3552.76,778.861 "/>
<polyline clip-path="url(#clip043)" style="stroke:#ffffff; stroke-linecap:round; stroke-linejoin:round; stroke-width:2; stroke-opacity:0.3; fill:none" points="233.743,563.638 3552.76,563.638 "/>
<polyline clip-path="url(#clip043)" style="stroke:#ffffff; stroke-linecap:round; stroke-linejoin:round; stroke-width:2; stroke-opacity:0.3; fill:none" points="233.743,456.027 3552.76,456.027 "/>
<polyline clip-path="url(#clip043)" style="stroke:#ffffff; stroke-linecap:round; stroke-linejoin:round; stroke-width:2; stroke-opacity:0.3; fill:none" points="233.743,348.415 3552.76,348.415 "/>
<polyline clip-path="url(#clip043)" style="stroke:#ffffff; stroke-linecap:round; stroke-linejoin:round; stroke-width:2; stroke-opacity:0.3; fill:none" points="233.743,240.804 3552.76,240.804 "/>
<polyline clip-path="url(#clip040)" style="stroke:#ffffff; stroke-linecap:round; stroke-linejoin:round; stroke-width:4; stroke-opacity:1; fill:none" points="233.743,2393.03 233.743,133.192 "/>
<polyline clip-path="url(#clip040)" style="stroke:#ffffff; stroke-linecap:round; stroke-linejoin:round; stroke-width:4; stroke-opacity:1; fill:none" points="233.743,2285.42 252.641,2285.42 "/>
<polyline clip-path="url(#clip040)" style="stroke:#ffffff; stroke-linecap:round; stroke-linejoin:round; stroke-width:4; stroke-opacity:1; fill:none" points="233.743,1747.36 252.641,1747.36 "/>
<polyline clip-path="url(#clip040)" style="stroke:#ffffff; stroke-linecap:round; stroke-linejoin:round; stroke-width:4; stroke-opacity:1; fill:none" points="233.743,1209.31 252.641,1209.31 "/>
<polyline clip-path="url(#clip040)" style="stroke:#ffffff; stroke-linecap:round; stroke-linejoin:round; stroke-width:4; stroke-opacity:1; fill:none" points="233.743,671.249 252.641,671.249 "/>
<polyline clip-path="url(#clip040)" style="stroke:#ffffff; stroke-linecap:round; stroke-linejoin:round; stroke-width:4; stroke-opacity:1; fill:none" points="233.743,133.192 252.641,133.192 "/>
<polyline clip-path="url(#clip040)" style="stroke:#ffffff; stroke-linecap:round; stroke-linejoin:round; stroke-width:4; stroke-opacity:1; fill:none" points="233.743,2393.03 243.192,2393.03 "/>
<polyline clip-path="url(#clip040)" style="stroke:#ffffff; stroke-linecap:round; stroke-linejoin:round; stroke-width:4; stroke-opacity:1; fill:none" points="233.743,2177.81 243.192,2177.81 "/>
<polyline clip-path="url(#clip040)" style="stroke:#ffffff; stroke-linecap:round; stroke-linejoin:round; stroke-width:4; stroke-opacity:1; fill:none" points="233.743,2070.2 243.192,2070.2 "/>
<polyline clip-path="url(#clip040)" style="stroke:#ffffff; stroke-linecap:round; stroke-linejoin:round; stroke-width:4; stroke-opacity:1; fill:none" points="233.743,1962.59 243.192,1962.59 "/>
<polyline clip-path="url(#clip040)" style="stroke:#ffffff; stroke-linecap:round; stroke-linejoin:round; stroke-width:4; stroke-opacity:1; fill:none" points="233.743,1854.98 243.192,1854.98 "/>
<polyline clip-path="url(#clip040)" style="stroke:#ffffff; stroke-linecap:round; stroke-linejoin:round; stroke-width:4; stroke-opacity:1; fill:none" points="233.743,1639.75 243.192,1639.75 "/>
<polyline clip-path="url(#clip040)" style="stroke:#ffffff; stroke-linecap:round; stroke-linejoin:round; stroke-width:4; stroke-opacity:1; fill:none" points="233.743,1532.14 243.192,1532.14 "/>
<polyline clip-path="url(#clip040)" style="stroke:#ffffff; stroke-linecap:round; stroke-linejoin:round; stroke-width:4; stroke-opacity:1; fill:none" points="233.743,1424.53 243.192,1424.53 "/>
<polyline clip-path="url(#clip040)" style="stroke:#ffffff; stroke-linecap:round; stroke-linejoin:round; stroke-width:4; stroke-opacity:1; fill:none" points="233.743,1316.92 243.192,1316.92 "/>
<polyline clip-path="url(#clip040)" style="stroke:#ffffff; stroke-linecap:round; stroke-linejoin:round; stroke-width:4; stroke-opacity:1; fill:none" points="233.743,1101.7 243.192,1101.7 "/>
<polyline clip-path="url(#clip040)" style="stroke:#ffffff; stroke-linecap:round; stroke-linejoin:round; stroke-width:4; stroke-opacity:1; fill:none" points="233.743,994.084 243.192,994.084 "/>
<polyline clip-path="url(#clip040)" style="stroke:#ffffff; stroke-linecap:round; stroke-linejoin:round; stroke-width:4; stroke-opacity:1; fill:none" points="233.743,886.472 243.192,886.472 "/>
<polyline clip-path="url(#clip040)" style="stroke:#ffffff; stroke-linecap:round; stroke-linejoin:round; stroke-width:4; stroke-opacity:1; fill:none" points="233.743,778.861 243.192,778.861 "/>
<polyline clip-path="url(#clip040)" style="stroke:#ffffff; stroke-linecap:round; stroke-linejoin:round; stroke-width:4; stroke-opacity:1; fill:none" points="233.743,563.638 243.192,563.638 "/>
<polyline clip-path="url(#clip040)" style="stroke:#ffffff; stroke-linecap:round; stroke-linejoin:round; stroke-width:4; stroke-opacity:1; fill:none" points="233.743,456.027 243.192,456.027 "/>
<polyline clip-path="url(#clip040)" style="stroke:#ffffff; stroke-linecap:round; stroke-linejoin:round; stroke-width:4; stroke-opacity:1; fill:none" points="233.743,348.415 243.192,348.415 "/>
<polyline clip-path="url(#clip040)" style="stroke:#ffffff; stroke-linecap:round; stroke-linejoin:round; stroke-width:4; stroke-opacity:1; fill:none" points="233.743,240.804 243.192,240.804 "/>
<path clip-path="url(#clip040)" d="M114.604 2298.77 L122.243 2298.77 L122.243 2272.4 L113.933 2274.07 L113.933 2269.81 L122.197 2268.14 L126.873 2268.14 L126.873 2298.77 L134.512 2298.77 L134.512 2302.7 L114.604 2302.7 L114.604 2298.77 Z" fill="#ffffff" fill-rule="nonzero" fill-opacity="1" /><path clip-path="url(#clip040)" d="M143.956 2296.82 L148.84 2296.82 L148.84 2302.7 L143.956 2302.7 L143.956 2296.82 Z" fill="#ffffff" fill-rule="nonzero" fill-opacity="1" /><path clip-path="url(#clip040)" d="M159.836 2298.77 L167.474 2298.77 L167.474 2272.4 L159.164 2274.07 L159.164 2269.81 L167.428 2268.14 L172.104 2268.14 L172.104 2298.77 L179.743 2298.77 L179.743 2302.7 L159.836 2302.7 L159.836 2298.77 Z" fill="#ffffff" fill-rule="nonzero" fill-opacity="1" /><path clip-path="url(#clip040)" d="M114.975 1760.71 L122.614 1760.71 L122.614 1734.34 L114.303 1736.01 L114.303 1731.75 L122.567 1730.08 L127.243 1730.08 L127.243 1760.71 L134.882 1760.71 L134.882 1764.64 L114.975 1764.64 L114.975 1760.71 Z" fill="#ffffff" fill-rule="nonzero" fill-opacity="1" /><path clip-path="url(#clip040)" d="M144.326 1758.76 L149.211 1758.76 L149.211 1764.64 L144.326 1764.64 L144.326 1758.76 Z" fill="#ffffff" fill-rule="nonzero" fill-opacity="1" /><path clip-path="url(#clip040)" d="M163.424 1760.71 L179.743 1760.71 L179.743 1764.64 L157.799 1764.64 L157.799 1760.71 Q160.461 1757.95 165.044 1753.32 Q169.65 1748.67 170.831 1747.33 Q173.076 1744.81 173.956 1743.07 Q174.859 1741.31 174.859 1739.62 Q174.859 1736.87 172.914 1735.13 Q170.993 1733.39 167.891 1733.39 Q165.692 1733.39 163.238 1734.16 Q160.808 1734.92 158.03 1736.47 L158.03 1731.75 Q160.854 1730.62 163.308 1730.04 Q165.762 1729.46 167.799 1729.46 Q173.169 1729.46 176.363 1732.14 Q179.558 1734.83 179.558 1739.32 Q179.558 1741.45 178.748 1743.37 Q177.961 1745.27 175.854 1747.86 Q175.275 1748.53 172.174 1751.75 Q169.072 1754.95 163.424 1760.71 Z" fill="#ffffff" fill-rule="nonzero" fill-opacity="1" /><path clip-path="url(#clip040)" d="M114.026 1222.65 L121.665 1222.65 L121.665 1196.29 L113.354 1197.95 L113.354 1193.69 L121.618 1192.03 L126.294 1192.03 L126.294 1222.65 L133.933 1222.65 L133.933 1226.59 L114.026 1226.59 L114.026 1222.65 Z" fill="#ffffff" fill-rule="nonzero" fill-opacity="1" /><path clip-path="url(#clip040)" d="M143.377 1220.71 L148.262 1220.71 L148.262 1226.59 L143.377 1226.59 L143.377 1220.71 Z" fill="#ffffff" fill-rule="nonzero" fill-opacity="1" /><path clip-path="url(#clip040)" d="M172.613 1207.95 Q175.97 1208.67 177.845 1210.94 Q179.743 1213.21 179.743 1216.54 Q179.743 1221.66 176.224 1224.46 Q172.706 1227.26 166.224 1227.26 Q164.049 1227.26 161.734 1226.82 Q159.442 1226.4 156.988 1225.55 L156.988 1221.03 Q158.933 1222.17 161.248 1222.74 Q163.562 1223.32 166.086 1223.32 Q170.484 1223.32 172.775 1221.59 Q175.09 1219.85 175.09 1216.54 Q175.09 1213.49 172.937 1211.77 Q170.808 1210.04 166.988 1210.04 L162.961 1210.04 L162.961 1206.19 L167.174 1206.19 Q170.623 1206.19 172.451 1204.83 Q174.28 1203.44 174.28 1200.85 Q174.28 1198.18 172.382 1196.77 Q170.507 1195.34 166.988 1195.34 Q165.067 1195.34 162.868 1195.75 Q160.669 1196.17 158.03 1197.05 L158.03 1192.88 Q160.692 1192.14 163.007 1191.77 Q165.345 1191.4 167.405 1191.4 Q172.729 1191.4 175.831 1193.83 Q178.933 1196.24 178.933 1200.36 Q178.933 1203.23 177.289 1205.22 Q175.646 1207.19 172.613 1207.95 Z" fill="#ffffff" fill-rule="nonzero" fill-opacity="1" /><path clip-path="url(#clip040)" d="M112.891 684.594 L120.53 684.594 L120.53 658.229 L112.22 659.895 L112.22 655.636 L120.484 653.969 L125.16 653.969 L125.16 684.594 L132.799 684.594 L132.799 688.529 L112.891 688.529 L112.891 684.594 Z" fill="#ffffff" fill-rule="nonzero" fill-opacity="1" /><path clip-path="url(#clip040)" d="M142.243 682.65 L147.127 682.65 L147.127 688.529 L142.243 688.529 L142.243 682.65 Z" fill="#ffffff" fill-rule="nonzero" fill-opacity="1" /><path clip-path="url(#clip040)" d="M170.16 658.044 L158.354 676.493 L170.16 676.493 L170.16 658.044 M168.933 653.969 L174.812 653.969 L174.812 676.493 L179.743 676.493 L179.743 680.381 L174.812 680.381 L174.812 688.529 L170.16 688.529 L170.16 680.381 L154.558 680.381 L154.558 675.868 L168.933 653.969 Z" fill="#ffffff" fill-rule="nonzero" fill-opacity="1" /><path clip-path="url(#clip040)" d="M114.373 146.537 L122.012 146.537 L122.012 120.171 L113.702 121.838 L113.702 117.579 L121.965 115.912 L126.641 115.912 L126.641 146.537 L134.28 146.537 L134.28 150.472 L114.373 150.472 L114.373 146.537 Z" fill="#ffffff" fill-rule="nonzero" fill-opacity="1" /><path clip-path="url(#clip040)" d="M143.725 144.593 L148.609 144.593 L148.609 150.472 L143.725 150.472 L143.725 144.593 Z" fill="#ffffff" fill-rule="nonzero" fill-opacity="1" /><path clip-path="url(#clip040)" d="M158.84 115.912 L177.197 115.912 L177.197 119.847 L163.123 119.847 L163.123 128.319 Q164.141 127.972 165.16 127.81 Q166.178 127.625 167.197 127.625 Q172.984 127.625 176.363 130.796 Q179.743 133.968 179.743 139.384 Q179.743 144.963 176.271 148.065 Q172.799 151.143 166.479 151.143 Q164.303 151.143 162.035 150.773 Q159.789 150.403 157.382 149.662 L157.382 144.963 Q159.465 146.097 161.687 146.653 Q163.91 147.208 166.387 147.208 Q170.391 147.208 172.729 145.102 Q175.067 142.995 175.067 139.384 Q175.067 135.773 172.729 133.667 Q170.391 131.56 166.387 131.56 Q164.512 131.56 162.637 131.977 Q160.785 132.394 158.84 133.273 L158.84 115.912 Z" fill="#ffffff" fill-rule="nonzero" fill-opacity="1" /><path clip-path="url(#clip040)" d="M21.1282 1244.4 Q23.0606 1244.4 26.4422 1245.14 Q29.8238 1245.85 31.4341 1246.43 Q35.7175 1248.04 39.3245 1251.26 Q41.3213 1253.03 42.7706 1254.97 Q44.1876 1256.87 44.8962 1258.28 Q45.5725 1259.7 45.9267 1261.38 Q46.3132 1263.05 46.3454 1263.82 Q46.4098 1264.6 46.4098 1265.69 L56.2326 1268.2 Q58.7769 1268.72 58.9379 1268.98 Q59.0667 1269.04 59.1311 1269.2 Q59.1956 1269.33 59.1956 1269.46 L59.1956 1269.59 Q59.1956 1269.94 59.0345 1270.14 Q58.8735 1270.33 58.6803 1270.36 L58.5192 1270.36 Q58.0684 1270.36 52.2713 1268.85 Q49.3084 1268.07 46.2488 1267.4 Q45.9267 1272.55 43.6401 1275.74 Q41.3535 1278.9 36.9091 1278.9 Q34.1716 1278.9 25.7659 1275.71 Q21.7401 1274.19 20.0654 1274.19 Q19.3247 1274.19 18.8738 1274.35 Q18.3907 1274.52 18.2297 1274.84 Q18.0365 1275.16 18.0043 1275.35 Q17.9721 1275.51 17.9721 1275.84 Q17.9721 1277.74 19.8722 1279.51 Q21.7723 1281.28 26.1523 1282.5 Q26.9575 1282.76 27.1507 1282.92 Q27.344 1283.08 27.344 1283.57 Q27.3118 1284.37 26.6676 1284.37 Q26.41 1284.37 25.4116 1284.08 Q24.381 1283.79 22.8673 1283.11 Q21.3215 1282.41 19.9366 1281.44 Q18.5196 1280.47 17.5212 1278.96 Q16.5228 1277.41 16.5228 1275.64 Q16.5228 1273.23 18.1009 1271.75 Q19.6468 1270.23 21.9334 1270.23 Q22.3843 1270.23 22.8996 1270.33 Q23.4148 1270.43 23.7047 1270.52 Q23.9946 1270.59 24.542 1270.78 Q25.0573 1270.94 25.154 1270.97 Q29.4051 1272.62 32.1748 1273.45 Q34.9123 1274.29 35.7175 1274.42 Q36.4904 1274.52 37.4244 1274.52 Q43.93 1274.52 44.7995 1267.01 L1.22501 1256.06 Q0.323242 1255.87 0.130007 1255.71 Q-0.095434 1255.55 -0.095434 1255.06 Q-0.095434 1254.29 0.613095 1254.29 Q0.838536 1254.29 1.61148 1254.48 L44.9284 1265.37 Q44.9284 1264.34 44.8962 1263.69 Q44.8639 1263.05 44.5741 1261.7 Q44.252 1260.31 43.6723 1259.15 Q43.0926 1257.96 41.9332 1256.29 Q40.7416 1254.61 39.0669 1252.97 Q36.9735 1250.91 33.4631 1249.07 Q29.9526 1247.24 27.0541 1247.24 Q23.8013 1247.24 21.4503 1249.59 Q21.1282 1249.94 20.935 1250.14 Q20.7418 1250.3 20.4197 1250.46 Q20.0976 1250.59 19.679 1250.59 Q18.584 1250.59 17.5534 1249.56 Q16.5228 1248.53 16.5228 1247.3 Q16.5228 1246.21 17.5856 1245.3 Q18.6484 1244.4 21.1282 1244.4 Z" fill="#ffffff" fill-rule="nonzero" fill-opacity="1" /><path clip-path="url(#clip040)" d="M233.743 68.4762 Q233.743 65.7973 235.28 64.5237 Q236.817 63.2501 238.793 63.2501 Q240.858 63.2501 242.307 64.6115 Q243.8 65.929 243.8 68.2566 Q243.8 70.7599 242.043 72.1653 Q240.331 73.5706 237.871 73.2193 Q240.023 76.8205 243.976 78.4454 Q247.972 80.0703 251.661 80.0703 Q255.526 80.0703 258.644 76.7326 Q261.806 73.3949 261.806 65.2264 Q261.806 58.2875 259.083 54.291 Q256.404 50.2946 251.09 50.2946 L247.138 50.2946 Q245.776 50.2946 245.381 50.1628 Q244.986 50.0311 244.986 49.2845 Q244.986 48.4061 246.347 48.2305 Q247.709 48.2305 249.861 47.967 Q255.087 47.7913 257.853 43.2678 Q260.357 39.0518 260.357 33.0351 Q260.357 27.5455 257.722 25.2618 Q255.131 22.9342 251.749 22.9342 Q248.587 22.9342 245.117 24.2517 Q241.648 25.5692 239.76 28.5117 Q245.337 28.5117 245.337 33.0351 Q245.337 35.0114 244.063 36.3289 Q242.834 37.6025 240.77 37.6025 Q238.793 37.6025 237.476 36.3728 Q236.158 35.0992 236.158 32.9473 Q236.158 27.809 240.726 24.2517 Q245.337 20.6944 252.1 20.6944 Q258.776 20.6944 263.694 24.2078 Q268.657 27.7212 268.657 33.123 Q268.657 38.4369 265.144 42.7847 Q261.63 47.1325 256.053 48.9331 Q262.904 50.2946 266.988 54.9498 Q271.072 59.5611 271.072 65.2264 Q271.072 72.2531 265.539 77.4353 Q260.005 82.5736 251.925 82.5736 Q244.459 82.5736 239.101 78.5332 Q233.743 74.4929 233.743 68.4762 Z" fill="#ffffff" fill-rule="nonzero" fill-opacity="1" /><path clip-path="url(#clip040)" d="M279.647 79.1481 Q278.286 77.6988 278.286 75.8104 Q278.286 73.9219 279.647 72.5605 Q281.009 71.1552 283.073 71.1552 Q285.049 71.1552 286.367 72.4727 Q287.728 73.7463 287.728 75.8543 Q287.728 77.9184 286.279 79.2798 Q284.873 80.5973 283.073 80.5973 Q281.009 80.5973 279.647 79.1481 Z" fill="#ffffff" fill-rule="nonzero" fill-opacity="1" /><path clip-path="url(#clip040)" d="M293.849 29.2583 L293.849 26.4476 Q304.653 26.4476 310.23 20.6944 Q311.767 20.6944 312.031 21.0458 Q312.295 21.3971 312.295 23.022 L312.295 73.4828 Q312.295 76.1617 313.612 76.9961 Q314.93 77.8306 320.683 77.8306 L323.537 77.8306 L323.537 80.5973 Q320.375 80.3338 308.957 80.3338 Q297.538 80.3338 294.42 80.5973 L294.42 77.8306 L297.275 77.8306 Q302.94 77.8306 304.302 77.0401 Q305.663 76.2056 305.663 73.4828 L305.663 26.8868 Q300.964 29.2583 293.849 29.2583 Z" fill="#ffffff" fill-rule="nonzero" fill-opacity="1" /><path clip-path="url(#clip040)" d="M330.566 79.1481 Q329.205 77.6988 329.205 75.8104 Q329.205 73.9219 330.566 72.5605 Q331.928 71.1552 333.992 71.1552 Q335.968 71.1552 337.286 72.4727 Q338.647 73.7463 338.647 75.8543 Q338.647 77.9184 337.198 79.2798 Q335.792 80.5973 333.992 80.5973 Q331.928 80.5973 330.566 79.1481 Z" fill="#ffffff" fill-rule="nonzero" fill-opacity="1" /><path clip-path="url(#clip040)" d="M353.956 80.5973 Q353.956 78.9724 354.087 78.4893 Q354.263 78.0062 354.966 77.2596 L372.225 58.024 Q381.667 47.396 381.667 38.1295 Q381.667 32.1129 378.505 27.809 Q375.387 23.5051 369.634 23.5051 Q365.682 23.5051 362.344 25.9206 Q359.006 28.336 357.469 32.6399 Q357.733 32.5521 358.655 32.5521 Q360.895 32.5521 362.124 33.9574 Q363.398 35.3627 363.398 37.2512 Q363.398 39.6666 361.817 40.8524 Q360.28 41.9942 358.743 41.9942 Q358.128 41.9942 357.293 41.8625 Q356.503 41.7307 355.229 40.501 Q353.956 39.2275 353.956 36.9877 Q353.956 30.7075 358.699 25.701 Q363.486 20.6944 370.776 20.6944 Q379.032 20.6944 384.434 25.6132 Q389.88 30.488 389.88 38.1295 Q389.88 40.8085 389.045 43.2678 Q388.255 45.6833 387.157 47.5717 Q386.103 49.4601 383.204 52.4904 Q380.306 55.5207 377.978 57.6726 Q375.651 59.8246 370.425 64.3919 L360.895 73.6584 L377.1 73.6584 Q385.005 73.6584 385.62 72.9558 Q386.498 71.6822 387.596 64.9629 L389.88 64.9629 L387.333 80.5973 L353.956 80.5973 Z" fill="#ffffff" fill-rule="nonzero" fill-opacity="1" /><path clip-path="url(#clip040)" d="M490.997 41.9064 Q490.997 49.1527 487.879 56.2673 Q484.805 63.3379 479.799 68.6958 Q474.836 74.0098 468.117 77.3036 Q461.397 80.5973 454.546 80.5973 L424.771 80.5973 Q423.717 80.5973 423.277 80.5534 Q422.882 80.5095 422.575 80.2899 Q422.267 80.0264 422.267 79.4994 Q422.267 78.665 422.619 78.3137 Q422.97 77.9184 423.365 77.8745 Q423.76 77.8306 424.771 77.8306 Q426.966 77.8306 428.284 77.6988 Q429.601 77.5671 430.436 77.3914 Q431.314 77.1718 431.753 76.557 Q432.236 75.9421 432.456 75.4151 Q432.676 74.8442 432.983 73.5706 L445.016 25.2618 Q445.368 23.8126 445.368 23.593 Q445.368 22.8464 444.928 22.5829 Q444.533 22.2755 443.391 22.1437 Q441.196 21.968 439.527 21.968 Q438.429 21.968 437.99 21.9241 Q437.594 21.8802 437.243 21.6606 Q436.936 21.3971 436.936 20.8701 Q436.936 20.0357 437.287 19.6843 Q437.682 19.2891 438.121 19.2452 Q438.56 19.1573 439.614 19.1573 L469.829 19.1573 Q476.373 19.1573 481.248 22.2315 Q486.123 25.2618 488.538 30.4001 Q490.997 35.4945 490.997 41.9064 M483.136 38.6126 Q483.136 30.2244 478.569 26.0962 Q474.045 21.968 466.887 21.968 L457.269 21.968 Q454.415 21.968 453.712 22.495 Q453.009 22.9781 452.394 25.3936 L440.054 74.7564 Q439.614 76.3813 439.614 76.8205 Q439.614 77.3036 439.834 77.4792 Q440.098 77.611 440.8 77.6988 Q441.591 77.8306 442.777 77.8306 L452.921 77.8306 Q456.83 77.8306 460.387 76.7766 Q463.988 75.6786 466.58 73.9659 Q469.171 72.2092 470.84 70.716 Q472.508 69.1789 473.694 67.6418 Q476.373 64.1724 478.349 59.6489 Q480.37 55.1254 481.292 50.9972 Q482.258 46.8251 482.697 43.7509 Q483.136 40.6328 483.136 38.6126 Z" fill="#ffffff" fill-rule="nonzero" fill-opacity="1" /><path clip-path="url(#clip040)" d="M534.873 56.0477 Q534.873 60.8347 532.765 65.5777 Q530.657 70.2768 527.276 73.7902 Q523.938 77.2596 519.546 79.4555 Q515.155 81.6074 510.763 81.6074 Q504.483 81.6074 500.398 77.3475 Q496.358 73.0436 496.358 66.3682 Q496.358 60.132 499.827 54.2032 Q503.341 48.2305 508.962 44.5414 Q514.584 40.8524 520.469 40.8524 Q526.661 40.8524 530.745 45.0245 Q534.873 49.1966 534.873 56.0477 M528.286 52.5343 Q528.286 48.2744 526.222 45.5515 Q524.158 42.8287 520.381 42.8287 Q519.283 42.8287 518.009 43.18 Q516.736 43.4874 515.067 44.3218 Q513.442 45.1563 511.597 46.9129 Q509.797 48.6257 508.216 51.0851 Q506.152 54.3349 504.571 60.3077 Q503.033 66.2365 503.033 69.7937 Q503.033 74.7125 505.317 77.1718 Q507.601 79.5873 510.851 79.5873 Q514.013 79.5873 517.35 77.3914 Q520.732 75.1516 523.06 71.3308 Q525.387 67.3783 526.836 61.5812 Q528.286 55.7403 528.286 52.5343 Z" fill="#ffffff" fill-rule="nonzero" fill-opacity="1" /><path clip-path="url(#clip040)" d="M574.379 46.6934 Q574.379 49.021 572.842 50.5141 Q571.349 52.0073 569.417 52.0073 Q567.748 52.0073 566.87 51.0411 Q565.991 50.075 565.991 48.8453 Q565.991 47.0886 567.353 45.6393 Q568.714 44.1901 570.69 43.8827 Q569.241 42.8287 566.913 42.8287 Q563.093 42.8287 559.711 45.7711 Q558.218 47.1325 556.593 49.6358 Q554.968 52.0952 554.661 53.1492 L551.806 64.875 Q551.542 66.1925 549.918 72.5166 Q548.337 78.7967 548.205 79.0602 Q547.766 80.2899 546.799 80.9487 Q545.833 81.6074 544.867 81.6074 Q543.769 81.6074 543.023 80.9487 Q542.276 80.2899 542.276 79.1481 Q542.276 78.9724 542.408 78.3137 Q542.539 77.6549 542.759 76.7326 Q542.979 75.8104 543.066 75.2834 L548.293 54.5106 Q549.259 50.7337 549.478 49.548 Q549.742 48.3183 549.742 46.9569 Q549.742 44.5853 548.995 43.707 Q548.249 42.8287 546.931 42.8287 Q544.647 42.8287 543.154 45.5515 Q541.661 48.2744 540.388 53.5444 Q539.992 54.9937 539.729 55.3011 Q539.509 55.6085 538.85 55.6085 Q537.753 55.5646 537.753 54.6863 Q537.753 54.4667 538.104 53.0613 Q538.455 51.6121 539.114 49.504 Q539.817 47.3521 540.563 45.9907 Q541.002 45.0684 541.398 44.4536 Q541.793 43.8387 542.583 42.8726 Q543.374 41.9064 544.56 41.3794 Q545.745 40.8524 547.195 40.8524 Q550.357 40.8524 552.596 42.7847 Q554.88 44.7171 555.407 47.7474 Q556.505 46.1664 557.867 44.8049 Q559.228 43.3996 561.731 42.126 Q564.235 40.8524 566.913 40.8524 Q570.251 40.8524 572.315 42.5651 Q574.379 44.234 574.379 46.6934 Z" fill="#ffffff" fill-rule="nonzero" fill-opacity="1" /><path clip-path="url(#clip040)" d="M619.597 56.0477 Q619.597 60.8347 617.489 65.5777 Q615.381 70.2768 612 73.7902 Q608.662 77.2596 604.27 79.4555 Q599.879 81.6074 595.487 81.6074 Q589.207 81.6074 585.122 77.3475 Q581.082 73.0436 581.082 66.3682 Q581.082 60.132 584.552 54.2032 Q588.065 48.2305 593.686 44.5414 Q599.308 40.8524 605.193 40.8524 Q611.385 40.8524 615.469 45.0245 Q619.597 49.1966 619.597 56.0477 M613.01 52.5343 Q613.01 48.2744 610.946 45.5515 Q608.882 42.8287 605.105 42.8287 Q604.007 42.8287 602.733 43.18 Q601.46 43.4874 599.791 44.3218 Q598.166 45.1563 596.321 46.9129 Q594.521 48.6257 592.94 51.0851 Q590.876 54.3349 589.295 60.3077 Q587.757 66.2365 587.757 69.7937 Q587.757 74.7125 590.041 77.1718 Q592.325 79.5873 595.575 79.5873 Q598.737 79.5873 602.074 77.3914 Q605.456 75.1516 607.784 71.3308 Q610.111 67.3783 611.561 61.5812 Q613.01 55.7403 613.01 52.5343 Z" fill="#ffffff" fill-rule="nonzero" fill-opacity="1" /><path clip-path="url(#clip040)" d="M662.319 45.0684 Q662.319 45.1123 662.055 46.6934 L652.042 86.614 Q651.515 88.722 650.022 90.83 Q648.573 92.982 646.245 94.8265 Q643.961 96.7149 640.448 97.8568 Q636.978 99.0425 632.982 99.0425 Q626.614 99.0425 623.803 97.6811 Q621.037 96.3636 621.037 93.5529 Q621.037 91.0935 622.574 89.6882 Q624.111 88.3268 625.867 88.3268 Q627.536 88.3268 628.415 89.2929 Q629.293 90.2591 629.293 91.4888 Q629.293 92.8502 628.371 94.2116 Q627.448 95.617 625.604 96.144 Q628.546 97.0663 632.806 97.0663 Q641.809 97.0663 645.674 87.5362 Q645.762 87.4045 645.762 87.3606 L648.748 75.459 L648.616 75.3712 Q647.87 76.2496 646.684 77.2596 Q645.542 78.2258 643.083 79.4116 Q640.624 80.5973 638.208 80.5973 Q633.158 80.5973 629.688 76.7326 Q626.263 72.824 626.263 66.3682 Q626.263 61.6691 628.151 56.97 Q630.083 52.2269 633.07 48.7575 Q636.1 45.2441 639.965 43.0482 Q643.873 40.8524 647.65 40.8524 Q650.285 40.8524 652.525 42.4334 Q654.765 43.9705 655.995 46.5177 Q656.214 44.4097 657.4 43.5313 Q658.63 42.653 659.684 42.653 Q660.869 42.653 661.572 43.3117 Q662.319 43.9266 662.319 45.0684 M654.941 50.5581 Q654.941 50.2946 654.765 49.5919 Q654.589 48.8453 654.062 47.6595 Q653.579 46.4738 652.833 45.4198 Q652.086 44.3657 650.725 43.6192 Q649.407 42.8287 647.738 42.8287 Q645.015 42.8287 642.292 45.1123 Q639.57 47.3521 637.681 50.8216 Q635.924 54.1593 634.256 60.6151 Q632.631 67.0709 632.631 70.3647 Q632.631 73.6145 634.036 76.1178 Q635.441 78.6211 638.472 78.6211 Q641.985 78.6211 645.762 75.3712 Q649.67 71.9896 650.329 69.0911 L654.677 51.9195 Q654.941 50.8655 654.941 50.5581 Z" fill="#ffffff" fill-rule="nonzero" fill-opacity="1" /><path clip-path="url(#clip040)" d="M709.567 56.0477 Q709.567 60.8347 707.459 65.5777 Q705.351 70.2768 701.969 73.7902 Q698.632 77.2596 694.24 79.4555 Q689.848 81.6074 685.456 81.6074 Q679.176 81.6074 675.092 77.3475 Q671.052 73.0436 671.052 66.3682 Q671.052 60.132 674.521 54.2032 Q678.034 48.2305 683.656 44.5414 Q689.277 40.8524 695.162 40.8524 Q701.354 40.8524 705.439 45.0245 Q709.567 49.1966 709.567 56.0477 M702.979 52.5343 Q702.979 48.2744 700.915 45.5515 Q698.851 42.8287 695.074 42.8287 Q693.976 42.8287 692.703 43.18 Q691.429 43.4874 689.76 44.3218 Q688.135 45.1563 686.291 46.9129 Q684.49 48.6257 682.909 51.0851 Q680.845 54.3349 679.264 60.3077 Q677.727 66.2365 677.727 69.7937 Q677.727 74.7125 680.011 77.1718 Q682.294 79.5873 685.544 79.5873 Q688.706 79.5873 692.044 77.3914 Q695.426 75.1516 697.753 71.3308 Q700.081 67.3783 701.53 61.5812 Q702.979 55.7403 702.979 52.5343 Z" fill="#ffffff" fill-rule="nonzero" fill-opacity="1" /><path clip-path="url(#clip040)" d="M750.24 47.1325 Q750.24 48.2744 749.933 50.5141 Q749.625 52.7539 748.879 56.0038 Q748.132 59.2536 747.034 62.6792 Q745.98 66.1047 744.311 69.5302 Q742.642 72.9119 740.666 75.5908 Q738.69 78.2697 735.923 79.9386 Q733.156 81.6074 730.038 81.6074 Q728.589 81.6074 727.184 81.3879 Q725.778 81.1683 724.022 80.4656 Q722.265 79.7629 720.991 78.6211 Q719.718 77.4353 718.839 75.3273 Q717.961 73.2193 717.961 70.4525 Q717.961 67.5979 719.015 63.7771 Q720.113 59.9124 723.099 52.0073 Q724.636 47.923 724.636 45.6833 Q724.636 44.6732 724.417 44.0583 Q724.197 43.3996 723.758 43.18 Q723.319 42.9165 723.055 42.8726 Q722.836 42.8287 722.397 42.8287 Q719.981 42.8287 717.522 45.3319 Q715.062 47.8352 713.306 53.9836 Q712.954 55.0815 712.735 55.345 Q712.515 55.6085 711.856 55.6085 Q710.759 55.5646 710.759 54.6863 Q710.759 54.4228 711.066 53.4127 Q711.373 52.3587 711.944 50.7776 Q712.515 49.1527 713.525 47.4839 Q714.535 45.7711 715.765 44.2779 Q717.039 42.7847 718.839 41.8186 Q720.64 40.8524 722.66 40.8524 Q725.954 40.8524 727.974 43.0043 Q730.038 45.1123 730.038 48.2305 Q730.038 49.9432 728.94 52.71 Q727.096 57.7165 726.261 60.132 Q725.427 62.5474 724.549 65.973 Q723.714 69.3985 723.714 71.77 Q723.714 75.3712 725.383 77.4792 Q727.052 79.5873 730.39 79.5873 Q733.376 79.5873 736.055 77.4353 Q738.778 75.2395 740.578 72.1213 Q742.379 68.9593 743.74 65.4459 Q745.102 61.8887 745.717 59.2097 Q746.375 56.4869 746.375 55.2133 Q746.375 50.7776 743.345 47.8791 Q742.511 47.0447 742.203 46.5177 Q741.896 45.9907 741.896 45.1563 Q741.896 43.6192 743.257 42.2577 Q744.663 40.8524 746.287 40.8524 Q747.781 40.8524 749.01 42.3456 Q750.24 43.8387 750.24 47.1325 Z" fill="#ffffff" fill-rule="nonzero" fill-opacity="1" /><path clip-path="url(#clip040)" d="M785.177 42.8287 Q785.177 44.0583 784.606 44.3657 Q784.035 44.6293 782.454 44.6293 L774.022 44.6293 L767.347 71.1552 Q766.82 73.4828 766.82 75.459 Q766.82 77.6549 767.478 78.6211 Q768.181 79.5873 769.63 79.5873 Q772.485 79.5873 775.559 76.9961 Q778.677 74.405 781.312 68.081 Q781.664 67.2466 781.839 67.0709 Q782.059 66.8513 782.63 66.8513 Q783.728 66.8513 783.728 67.7296 Q783.728 68.0371 783.113 69.4424 Q782.542 70.8478 781.268 72.9119 Q780.039 74.976 778.414 76.9083 Q776.833 78.8407 774.417 80.246 Q772.002 81.6074 769.411 81.6074 Q765.766 81.6074 763.438 79.2798 Q761.154 76.9522 761.154 73.3071 Q761.154 72.1213 762.077 68.3445 Q762.999 64.5237 768.005 44.6293 L760.056 44.6293 Q758.958 44.6293 758.519 44.5853 Q758.124 44.5414 757.817 44.3218 Q757.553 44.0583 757.553 43.5313 Q757.553 42.6969 757.904 42.3456 Q758.256 41.9503 758.695 41.9064 Q759.178 41.8186 760.276 41.8186 L768.708 41.8186 L772.221 27.5455 Q772.573 26.1402 773.451 25.3497 Q774.373 24.5152 774.9 24.4274 Q775.427 24.2956 775.823 24.2956 Q777.008 24.2956 777.711 24.9544 Q778.414 25.5692 778.414 26.7111 Q778.414 27.3259 774.725 41.8186 L782.63 41.8186 Q783.64 41.8186 784.035 41.8625 Q784.474 41.9064 784.826 42.126 Q785.177 42.3456 785.177 42.8287 Z" fill="#ffffff" fill-rule="nonzero" fill-opacity="1" /><path clip-path="url(#clip040)" d="M823.532 48.5818 Q823.532 51.0411 822.303 52.3587 Q821.073 53.6323 819.404 53.6323 Q818.043 53.6323 817.296 52.8417 Q816.593 52.0512 816.593 50.9972 Q816.593 49.4601 817.823 48.2305 Q819.097 47.0008 820.941 46.9569 Q820.326 45.3319 818.701 44.3657 Q817.076 43.3557 815.627 43.0922 Q814.222 42.8287 812.817 42.8287 Q810.05 42.8287 807.942 43.707 Q805.834 44.5853 804.78 45.9468 Q803.726 47.2643 803.243 48.5379 Q802.76 49.8115 802.76 50.9094 Q802.76 51.8756 802.979 52.6661 Q803.243 53.4127 803.857 53.9836 Q804.472 54.5106 804.911 54.8619 Q805.395 55.2133 806.449 55.5207 Q807.503 55.8281 807.942 55.9599 Q808.381 56.0477 809.611 56.3112 Q812.158 56.8382 813.3 57.1456 Q814.441 57.4091 815.935 58.1557 Q817.472 58.9023 818.614 60.0881 Q821.38 62.8548 821.38 66.6756 Q821.38 68.081 820.897 69.7937 Q820.458 71.5065 819.184 73.6584 Q817.911 75.8104 815.979 77.5231 Q814.046 79.2359 810.708 80.4217 Q807.415 81.6074 803.287 81.6074 Q797.533 81.6074 793.976 79.192 Q790.419 76.7326 790.419 72.8679 Q790.419 70.0572 791.956 68.5201 Q793.493 66.9391 795.469 66.9391 Q796.962 66.9391 797.885 67.7736 Q798.807 68.5641 798.807 70.0572 Q798.807 72.0774 797.182 73.6145 Q795.557 75.1516 793.142 74.8442 Q795.206 79.5873 803.374 79.5873 Q806.449 79.5873 808.82 78.7967 Q811.235 77.9623 812.553 76.8205 Q813.914 75.6347 814.793 74.1854 Q815.671 72.7362 815.935 71.6383 Q816.242 70.5403 816.242 69.7059 Q816.242 68.2566 815.671 67.1587 Q815.1 66.0608 814.31 65.4459 Q813.563 64.7872 812.114 64.2602 Q810.708 63.6893 809.698 63.4697 Q808.688 63.2501 806.888 62.8988 Q806.053 62.7231 805.526 62.6353 Q804.999 62.5035 803.901 62.1522 Q802.847 61.7569 802.101 61.3617 Q801.398 60.9664 800.476 60.2637 Q799.554 59.5611 798.983 58.7266 Q798.412 57.8922 798.016 56.6625 Q797.621 55.4329 797.621 53.9836 Q797.621 52.6661 798.016 51.0851 Q798.456 49.504 799.554 47.6595 Q800.695 45.815 802.32 44.3218 Q803.945 42.8287 806.668 41.8625 Q809.435 40.8524 812.817 40.8524 Q817.735 40.8524 820.634 43.1361 Q823.532 45.3758 823.532 48.5818 Z" fill="#ffffff" fill-rule="nonzero" fill-opacity="1" /><path clip-path="url(#clip040)" d="M866.029 70.189 Q866.381 70.5842 866.381 70.9795 Q866.381 71.3748 865.502 72.5166 Q864.668 73.6584 862.867 75.1955 Q861.067 76.7326 858.739 78.1819 Q856.411 79.6312 852.986 80.5973 Q849.56 81.6074 845.959 81.6074 Q839.503 81.6074 835.639 76.9961 Q831.818 72.3848 831.818 65.3142 Q831.818 60.7907 833.311 56.7943 Q834.804 52.7539 837.22 49.8993 Q839.679 47.0447 842.753 44.9806 Q845.871 42.8726 849.121 41.8625 Q852.371 40.8524 855.401 40.8524 Q859.837 40.8524 862.428 43.0922 Q865.019 45.3319 865.019 48.494 Q865.019 49.2405 864.8 50.1628 Q864.624 51.0851 864.009 52.5343 Q863.438 53.9836 861.945 55.4329 Q860.452 56.8382 858.256 57.7605 Q853.381 59.8246 844.51 59.8246 L839.723 59.8246 Q838.318 65.4899 838.318 69.1789 Q838.318 70.6282 838.581 72.1213 Q838.845 73.5706 839.547 75.4151 Q840.294 77.2596 841.963 78.4454 Q843.675 79.5873 846.135 79.5873 Q846.925 79.5873 847.76 79.5433 Q848.638 79.4994 850.834 79.0163 Q853.074 78.5332 855.05 77.6988 Q857.026 76.8644 859.53 75.0638 Q862.077 73.2193 864.097 70.716 Q864.8 69.7937 865.283 69.7937 Q865.678 69.7937 866.029 70.189 M862.033 48.494 Q862.033 46.0785 860.232 44.4536 Q858.476 42.8287 855.401 42.8287 Q854.435 42.8287 853.249 43.0482 Q852.064 43.2678 850.087 44.1901 Q848.155 45.1123 846.442 46.6494 Q844.729 48.1426 843.017 51.0851 Q841.304 53.9836 840.294 57.8483 L843.983 57.8483 Q845.256 57.8483 846.179 57.8483 Q847.101 57.8044 849.121 57.6287 Q851.185 57.453 852.678 57.1456 Q854.172 56.7943 856.06 56.0916 Q857.948 55.3889 859.134 54.4667 Q860.364 53.5005 861.198 51.9634 Q862.033 50.4263 862.033 48.494 Z" fill="#ffffff" fill-rule="nonzero" fill-opacity="1" /><path clip-path="url(#clip040)" d="M909.31 47.1325 Q909.31 48.2744 909.002 50.5141 Q908.695 52.7539 907.948 56.0038 Q907.202 59.2536 906.104 62.6792 Q905.05 66.1047 903.381 69.5302 Q901.712 72.9119 899.736 75.5908 Q897.76 78.2697 894.993 79.9386 Q892.226 81.6074 889.108 81.6074 Q887.659 81.6074 886.253 81.3879 Q884.848 81.1683 883.091 80.4656 Q881.335 79.7629 880.061 78.6211 Q878.787 77.4353 877.909 75.3273 Q877.031 73.2193 877.031 70.4525 Q877.031 67.5979 878.085 63.7771 Q879.183 59.9124 882.169 52.0073 Q883.706 47.923 883.706 45.6833 Q883.706 44.6732 883.487 44.0583 Q883.267 43.3996 882.828 43.18 Q882.389 42.9165 882.125 42.8726 Q881.906 42.8287 881.466 42.8287 Q879.051 42.8287 876.592 45.3319 Q874.132 47.8352 872.376 53.9836 Q872.024 55.0815 871.805 55.345 Q871.585 55.6085 870.926 55.6085 Q869.828 55.5646 869.828 54.6863 Q869.828 54.4228 870.136 53.4127 Q870.443 52.3587 871.014 50.7776 Q871.585 49.1527 872.595 47.4839 Q873.605 45.7711 874.835 44.2779 Q876.109 42.7847 877.909 41.8186 Q879.71 40.8524 881.73 40.8524 Q885.024 40.8524 887.044 43.0043 Q889.108 45.1123 889.108 48.2305 Q889.108 49.9432 888.01 52.71 Q886.166 57.7165 885.331 60.132 Q884.497 62.5474 883.618 65.973 Q882.784 69.3985 882.784 71.77 Q882.784 75.3712 884.453 77.4792 Q886.122 79.5873 889.459 79.5873 Q892.446 79.5873 895.125 77.4353 Q897.847 75.2395 899.648 72.1213 Q901.449 68.9593 902.81 65.4459 Q904.172 61.8887 904.786 59.2097 Q905.445 56.4869 905.445 55.2133 Q905.445 50.7776 902.415 47.8791 Q901.58 47.0447 901.273 46.5177 Q900.966 45.9907 900.966 45.1563 Q900.966 43.6192 902.327 42.2577 Q903.732 40.8524 905.357 40.8524 Q906.85 40.8524 908.08 42.3456 Q909.31 43.8387 909.31 47.1325 Z" fill="#ffffff" fill-rule="nonzero" fill-opacity="1" /><path clip-path="url(#clip040)" d="M913.023 69.0911 Q913.023 65.7534 914.428 63.5575 Q915.834 61.3617 919.391 57.6726 L927.603 48.9331 Q923.914 39.5788 923.914 30.6636 Q923.914 23.9882 927.691 20.1235 Q931.468 16.2149 936.123 16.2149 Q938.363 16.2149 940.032 17.4446 Q941.701 18.6303 942.447 20.5188 Q943.238 22.4072 943.589 24.2078 Q943.984 26.0084 943.984 27.809 Q943.984 30.5758 941.964 34.1331 Q939.988 37.6904 938.143 40.018 Q936.299 42.3016 933.005 45.9907 Q935.508 52.5782 940.427 59.8685 Q945.39 67.1148 947.937 69.9694 Q953.69 62.8548 960.805 50.3824 Q961.332 48.7575 961.332 48.5818 Q961.332 46.869 959.663 45.7711 Q957.994 44.6293 954.92 44.6293 L954.92 41.8186 Q958.521 42.0821 965.899 42.0821 Q969.676 42.0821 974.639 41.8186 L974.639 44.6293 Q971.652 44.6293 969.676 45.1563 Q967.7 45.6833 966.163 47.1325 Q964.669 48.5818 963.747 49.8115 Q962.869 50.9972 961.244 53.8079 Q953.602 66.9391 949.342 71.77 Q956.106 79.7629 961.771 79.8068 Q965.372 79.8068 968.49 77.2157 Q971.652 74.5807 971.828 69.7059 L974.112 69.7059 Q974.024 75.3712 970.335 78.9724 Q966.646 82.5736 961.419 82.5736 Q953.427 82.5736 945.565 75.7225 Q937.924 82.5736 929.316 82.5736 Q922.553 82.5736 917.766 78.7089 Q913.023 74.8442 913.023 69.0911 M920.489 66.1925 Q920.489 69.0911 921.235 71.9896 Q922.026 74.8442 924.31 77.3475 Q926.593 79.8068 930.019 79.8068 Q937.397 79.8068 943.853 74.0098 Q940.339 70.4964 935.596 63.5136 Q931.468 57.5848 928.394 50.9972 Q924.09 55.1254 922.289 58.1996 Q920.489 61.2299 920.489 66.1925 M929.58 28.5995 Q929.58 35.8019 932.259 43.7948 Q941.701 33.5621 941.701 27.7212 Q941.701 27.282 941.657 26.6232 Q941.613 25.9206 941.349 24.2956 Q941.086 22.6707 940.559 21.4849 Q940.076 20.2553 938.934 19.2452 Q937.836 18.1912 936.299 18.1912 Q933.62 18.1912 931.6 20.7823 Q929.58 23.3734 929.58 28.5995 Z" fill="#ffffff" fill-rule="nonzero" fill-opacity="1" /><path clip-path="url(#clip040)" d="M1072.35 20.1674 Q1072.35 21.441 1071.78 21.7045 Q1071.25 21.968 1069.49 21.968 Q1067.43 21.968 1066.16 22.1437 Q1064.88 22.2755 1064.09 22.495 Q1063.3 22.6707 1062.82 23.2855 Q1062.38 23.9004 1062.2 24.4274 Q1062.03 24.9105 1061.72 26.0962 L1049.77 74.0098 Q1049.34 75.6347 1049.34 76.2056 Q1049.34 76.7766 1049.69 77.1279 Q1050.08 77.4792 1051.05 77.6549 Q1052.01 77.7867 1052.76 77.8306 Q1053.55 77.8306 1055.18 77.8306 Q1057.2 77.8306 1057.5 78.1819 Q1057.68 78.4015 1057.68 78.7967 Q1057.68 79.6312 1057.33 80.0703 Q1056.98 80.4656 1056.67 80.5534 Q1056.41 80.5973 1055.97 80.5973 Q1054.12 80.5973 1050.35 80.4656 Q1046.57 80.3338 1044.72 80.3338 L1033.57 80.5973 Q1032.25 80.5973 1032.25 79.4994 Q1032.25 78.665 1032.6 78.3137 Q1032.95 77.9184 1033.35 77.8745 Q1033.74 77.8306 1034.75 77.8306 Q1038.36 77.8306 1039.89 77.4353 Q1041.47 77.0401 1041.91 76.3374 Q1042.4 75.5908 1042.92 73.5706 L1055.79 22.0559 L1055.7 22.0559 L1019.38 78.9724 L1019.12 79.3677 Q1018.86 79.719 1018.77 79.8508 Q1018.68 79.9386 1018.42 80.2021 Q1018.2 80.4217 1017.93 80.5095 Q1017.71 80.5973 1017.41 80.5973 Q1016.88 80.5973 1016.57 80.246 Q1016.31 79.8947 1016.22 79.6312 Q1016.18 79.3237 1016.05 78.5332 L1008.32 22.7585 L1008.23 22.7585 L995.976 71.77 Q995.624 73.1314 995.624 73.8341 Q995.624 75.6347 996.898 76.7326 Q998.216 77.7867 1001.73 77.8306 Q1003.35 77.8306 1003.35 78.7967 Q1003.35 80.5973 1001.73 80.5973 Q1000.24 80.5973 997.118 80.4656 Q994 80.3338 992.462 80.3338 Q990.969 80.3338 987.939 80.4656 Q984.953 80.5973 983.503 80.5973 Q982.23 80.5973 982.23 79.4994 Q982.23 77.8306 983.855 77.8306 Q986.49 77.7427 988.29 77.2157 Q990.091 76.6887 991.101 75.6786 Q992.155 74.6685 992.638 73.6584 Q993.165 72.6044 993.56 71.0673 L1004.98 25.2618 Q1005.33 23.8126 1005.33 23.593 Q1005.33 22.8464 1004.89 22.5829 Q1004.5 22.2755 1003.35 22.1437 Q1001.16 21.968 999.489 21.968 Q998.391 21.968 997.952 21.9241 Q997.557 21.8802 997.205 21.6606 Q996.898 21.3971 996.898 20.8701 Q996.898 20.0357 997.249 19.6843 Q997.645 19.2891 998.084 19.2452 Q998.523 19.1573 999.577 19.1573 L1011.92 19.1573 Q1013.72 19.1573 1014.11 19.4648 Q1014.51 19.7283 1014.68 21.2214 L1021.71 72.1213 L1054.56 20.8701 Q1055.4 19.5965 1055.83 19.3769 Q1056.27 19.1573 1058.03 19.1573 L1069.93 19.1573 Q1070.9 19.1573 1071.29 19.2013 Q1071.69 19.2452 1072 19.4648 Q1072.35 19.6843 1072.35 20.1674 Z" fill="#ffffff" fill-rule="nonzero" fill-opacity="1" /><path clip-path="url(#clip040)" d="M1113.27 70.189 Q1113.62 70.5842 1113.62 70.9795 Q1113.62 71.3748 1112.74 72.5166 Q1111.91 73.6584 1110.11 75.1955 Q1108.31 76.7326 1105.98 78.1819 Q1103.65 79.6312 1100.23 80.5973 Q1096.8 81.6074 1093.2 81.6074 Q1086.74 81.6074 1082.88 76.9961 Q1079.06 72.3848 1079.06 65.3142 Q1079.06 60.7907 1080.55 56.7943 Q1082.05 52.7539 1084.46 49.8993 Q1086.92 47.0447 1089.99 44.9806 Q1093.11 42.8726 1096.36 41.8625 Q1099.61 40.8524 1102.64 40.8524 Q1107.08 40.8524 1109.67 43.0922 Q1112.26 45.3319 1112.26 48.494 Q1112.26 49.2405 1112.04 50.1628 Q1111.86 51.0851 1111.25 52.5343 Q1110.68 53.9836 1109.19 55.4329 Q1107.69 56.8382 1105.5 57.7605 Q1100.62 59.8246 1091.75 59.8246 L1086.96 59.8246 Q1085.56 65.4899 1085.56 69.1789 Q1085.56 70.6282 1085.82 72.1213 Q1086.09 73.5706 1086.79 75.4151 Q1087.53 77.2596 1089.2 78.4454 Q1090.92 79.5873 1093.38 79.5873 Q1094.17 79.5873 1095 79.5433 Q1095.88 79.4994 1098.07 79.0163 Q1100.31 78.5332 1102.29 77.6988 Q1104.27 76.8644 1106.77 75.0638 Q1109.32 73.2193 1111.34 70.716 Q1112.04 69.7937 1112.52 69.7937 Q1112.92 69.7937 1113.27 70.189 M1109.27 48.494 Q1109.27 46.0785 1107.47 44.4536 Q1105.72 42.8287 1102.64 42.8287 Q1101.68 42.8287 1100.49 43.0482 Q1099.3 43.2678 1097.33 44.1901 Q1095.4 45.1123 1093.68 46.6494 Q1091.97 48.1426 1090.26 51.0851 Q1088.54 53.9836 1087.53 57.8483 L1091.22 57.8483 Q1092.5 57.8483 1093.42 57.8483 Q1094.34 57.8044 1096.36 57.6287 Q1098.43 57.453 1099.92 57.1456 Q1101.41 56.7943 1103.3 56.0916 Q1105.19 55.3889 1106.38 54.4667 Q1107.6 53.5005 1108.44 51.9634 Q1109.27 50.4263 1109.27 48.494 Z" fill="#ffffff" fill-rule="nonzero" fill-opacity="1" /><path clip-path="url(#clip040)" d="M1167.5 67.7296 Q1167.5 68.081 1167.11 69.4424 Q1166.71 70.8038 1165.75 72.9119 Q1164.83 75.0199 1163.55 76.9522 Q1162.28 78.8407 1160.17 80.246 Q1158.11 81.6074 1155.73 81.6074 Q1152.57 81.6074 1150.46 79.4994 Q1148.36 77.3914 1148.36 74.2294 Q1148.36 72.4727 1149.28 70.0572 Q1155.12 54.4667 1155.12 49.1088 Q1155.12 42.8287 1150.25 42.8287 Q1147.83 42.8287 1145.55 43.7509 Q1143.31 44.6293 1141.77 45.8589 Q1140.23 47.0886 1138.83 48.8014 Q1137.47 50.4702 1136.76 51.6121 Q1136.1 52.71 1135.58 53.8079 L1134.44 58.2875 Q1134.17 59.5171 1132.9 64.3041 L1130.92 72.4288 Q1129.52 78.4893 1129.21 79.0602 Q1128.77 80.2899 1127.8 80.9487 Q1126.84 81.6074 1125.87 81.6074 Q1124.77 81.6074 1124.03 80.9487 Q1123.28 80.2899 1123.28 79.1481 Q1123.28 78.9724 1123.41 78.3137 Q1123.54 77.6549 1123.76 76.7326 Q1123.98 75.8104 1124.07 75.2834 L1129.3 54.5106 Q1130.26 50.7337 1130.48 49.548 Q1130.75 48.3183 1130.75 46.9569 Q1130.75 42.8287 1127.94 42.8287 Q1125.65 42.8287 1124.16 45.5515 Q1122.67 48.2744 1121.39 53.5444 Q1121 54.9937 1120.73 55.3011 Q1120.51 55.6085 1119.85 55.6085 Q1118.76 55.5646 1118.76 54.6863 Q1118.76 54.4667 1119.11 53.0174 Q1119.46 51.5682 1120.12 49.504 Q1120.82 47.396 1121.48 45.9907 Q1122.05 44.9367 1122.36 44.4536 Q1122.71 43.9266 1123.54 42.9165 Q1124.42 41.8625 1125.56 41.3794 Q1126.75 40.8524 1128.2 40.8524 Q1131.45 40.8524 1133.82 42.9604 Q1136.19 45.0245 1136.5 48.6696 Q1142.34 40.8524 1150.51 40.8524 Q1155.34 40.8524 1158.11 43.3996 Q1160.87 45.9468 1160.87 50.4702 Q1160.87 51.5242 1160.65 52.8857 Q1160.48 54.2032 1160.04 55.872 Q1159.64 57.5409 1159.29 58.8145 Q1158.94 60.0881 1158.24 62.1522 Q1157.54 64.1724 1157.23 65.0507 Q1156.92 65.929 1156.17 67.9931 Q1155.47 70.0133 1155.38 70.2329 Q1153.76 74.3172 1153.76 76.6448 Q1153.76 78.1819 1154.24 78.8846 Q1154.77 79.5873 1155.91 79.5873 Q1158.98 79.5873 1161.27 76.557 Q1163.6 73.4828 1165.09 68.4762 Q1165.44 67.3783 1165.62 67.1148 Q1165.84 66.8513 1166.45 66.8513 Q1167.5 66.8513 1167.5 67.7296 Z" fill="#ffffff" fill-rule="nonzero" fill-opacity="1" /><path clip-path="url(#clip040)" d="M1217.15 19.1573 L1204.2 71.1552 Q1203.67 73.4828 1203.67 75.459 Q1203.67 79.5873 1206.35 79.5873 Q1207.67 79.5873 1208.72 78.7528 Q1209.77 77.9184 1210.61 76.1617 Q1211.44 74.405 1211.97 72.7801 Q1212.5 71.1113 1213.2 68.4762 Q1213.42 67.4222 1213.6 67.1587 Q1213.82 66.8513 1214.43 66.8513 Q1215.53 66.8513 1215.53 67.7296 Q1214.34 73.3949 1212.8 76.6448 Q1210.35 81.6074 1206.17 81.6074 Q1203.01 81.6074 1200.77 79.6751 Q1198.53 77.7427 1198 74.8442 Q1192.25 81.6074 1186.28 81.6074 Q1181.01 81.6074 1177.67 77.611 Q1174.33 73.5706 1174.33 67.2026 Q1174.33 60.7907 1177.5 54.6423 Q1180.7 48.494 1185.75 44.6732 Q1190.8 40.8524 1195.98 40.8524 Q1201.47 40.8524 1204.29 46.6055 L1209.69 25.2618 L1209.95 23.5051 Q1209.95 22.9781 1209.73 22.7146 Q1209.56 22.4072 1208.5 22.1876 Q1207.49 21.968 1205.47 21.968 Q1204.64 21.968 1204.24 21.9241 Q1203.89 21.8802 1203.58 21.6606 Q1203.27 21.3971 1203.27 20.8701 Q1203.27 19.333 1204.55 19.1573 Q1212.98 18.1912 1215.97 18.1912 Q1216.49 18.1912 1216.8 18.4547 Q1217.11 18.6743 1217.11 18.9378 L1217.15 19.1573 M1203.19 50.7337 Q1203.19 50.3385 1202.88 49.2405 Q1202.57 48.1426 1201.87 46.6055 Q1201.17 45.0684 1199.63 43.9705 Q1198.14 42.8287 1196.12 42.8287 Q1193.39 42.8287 1190.54 45.1563 Q1187.73 47.4839 1185.66 51.4364 Q1184.08 54.5984 1182.37 61.2299 Q1180.7 67.8614 1180.7 71.1552 Q1180.7 73.1754 1181.14 74.976 Q1181.62 76.7326 1182.99 78.1819 Q1184.35 79.5873 1186.45 79.5873 Q1191.59 79.5873 1196.64 73.2193 Q1197.61 72.1213 1197.83 71.6822 Q1198.09 71.1991 1198.44 69.8816 L1202.92 52.2708 Q1203.19 50.9533 1203.19 50.7337 Z" fill="#ffffff" fill-rule="nonzero" fill-opacity="1" /><path clip-path="url(#clip040)" d="M1255.19 70.189 Q1255.54 70.5842 1255.54 70.9795 Q1255.54 71.3748 1254.66 72.5166 Q1253.83 73.6584 1252.03 75.1955 Q1250.23 76.7326 1247.9 78.1819 Q1245.57 79.6312 1242.14 80.5973 Q1238.72 81.6074 1235.12 81.6074 Q1228.66 81.6074 1224.8 76.9961 Q1220.98 72.3848 1220.98 65.3142 Q1220.98 60.7907 1222.47 56.7943 Q1223.96 52.7539 1226.38 49.8993 Q1228.84 47.0447 1231.91 44.9806 Q1235.03 42.8726 1238.28 41.8625 Q1241.53 40.8524 1244.56 40.8524 Q1249 40.8524 1251.59 43.0922 Q1254.18 45.3319 1254.18 48.494 Q1254.18 49.2405 1253.96 50.1628 Q1253.78 51.0851 1253.17 52.5343 Q1252.6 53.9836 1251.1 55.4329 Q1249.61 56.8382 1247.41 57.7605 Q1242.54 59.8246 1233.67 59.8246 L1228.88 59.8246 Q1227.48 65.4899 1227.48 69.1789 Q1227.48 70.6282 1227.74 72.1213 Q1228 73.5706 1228.71 75.4151 Q1229.45 77.2596 1231.12 78.4454 Q1232.83 79.5873 1235.29 79.5873 Q1236.08 79.5873 1236.92 79.5433 Q1237.8 79.4994 1239.99 79.0163 Q1242.23 78.5332 1244.21 77.6988 Q1246.18 76.8644 1248.69 75.0638 Q1251.24 73.2193 1253.26 70.716 Q1253.96 69.7937 1254.44 69.7937 Q1254.84 69.7937 1255.19 70.189 M1251.19 48.494 Q1251.19 46.0785 1249.39 44.4536 Q1247.63 42.8287 1244.56 42.8287 Q1243.59 42.8287 1242.41 43.0482 Q1241.22 43.2678 1239.25 44.1901 Q1237.31 45.1123 1235.6 46.6494 Q1233.89 48.1426 1232.18 51.0851 Q1230.46 53.9836 1229.45 57.8483 L1233.14 57.8483 Q1234.42 57.8483 1235.34 57.8483 Q1236.26 57.8044 1238.28 57.6287 Q1240.34 57.453 1241.84 57.1456 Q1243.33 56.7943 1245.22 56.0916 Q1247.11 55.3889 1248.29 54.4667 Q1249.52 53.5005 1250.36 51.9634 Q1251.19 50.4263 1251.19 48.494 Z" fill="#ffffff" fill-rule="nonzero" fill-opacity="1" /><path clip-path="url(#clip040)" d="M1295.59 48.5818 Q1295.59 51.0411 1294.36 52.3587 Q1293.13 53.6323 1291.46 53.6323 Q1290.1 53.6323 1289.35 52.8417 Q1288.65 52.0512 1288.65 50.9972 Q1288.65 49.4601 1289.88 48.2305 Q1291.15 47.0008 1293 46.9569 Q1292.38 45.3319 1290.76 44.3657 Q1289.13 43.3557 1287.68 43.0922 Q1286.28 42.8287 1284.87 42.8287 Q1282.11 42.8287 1280 43.707 Q1277.89 44.5853 1276.84 45.9468 Q1275.78 47.2643 1275.3 48.5379 Q1274.82 49.8115 1274.82 50.9094 Q1274.82 51.8756 1275.03 52.6661 Q1275.3 53.4127 1275.91 53.9836 Q1276.53 54.5106 1276.97 54.8619 Q1277.45 55.2133 1278.5 55.5207 Q1279.56 55.8281 1280 55.9599 Q1280.44 56.0477 1281.67 56.3112 Q1284.21 56.8382 1285.36 57.1456 Q1286.5 57.4091 1287.99 58.1557 Q1289.53 58.9023 1290.67 60.0881 Q1293.44 62.8548 1293.44 66.6756 Q1293.44 68.081 1292.95 69.7937 Q1292.51 71.5065 1291.24 73.6584 Q1289.97 75.8104 1288.03 77.5231 Q1286.1 79.2359 1282.76 80.4217 Q1279.47 81.6074 1275.34 81.6074 Q1269.59 81.6074 1266.03 79.192 Q1262.47 76.7326 1262.47 72.8679 Q1262.47 70.0572 1264.01 68.5201 Q1265.55 66.9391 1267.52 66.9391 Q1269.02 66.9391 1269.94 67.7736 Q1270.86 68.5641 1270.86 70.0572 Q1270.86 72.0774 1269.24 73.6145 Q1267.61 75.1516 1265.2 74.8442 Q1267.26 79.5873 1275.43 79.5873 Q1278.5 79.5873 1280.88 78.7967 Q1283.29 77.9623 1284.61 76.8205 Q1285.97 75.6347 1286.85 74.1854 Q1287.73 72.7362 1287.99 71.6383 Q1288.3 70.5403 1288.3 69.7059 Q1288.3 68.2566 1287.73 67.1587 Q1287.16 66.0608 1286.37 65.4459 Q1285.62 64.7872 1284.17 64.2602 Q1282.76 63.6893 1281.75 63.4697 Q1280.74 63.2501 1278.94 62.8988 Q1278.11 62.7231 1277.58 62.6353 Q1277.05 62.5035 1275.96 62.1522 Q1274.9 61.7569 1274.16 61.3617 Q1273.45 60.9664 1272.53 60.2637 Q1271.61 59.5611 1271.04 58.7266 Q1270.47 57.8922 1270.07 56.6625 Q1269.68 55.4329 1269.68 53.9836 Q1269.68 52.6661 1270.07 51.0851 Q1270.51 49.504 1271.61 47.6595 Q1272.75 45.815 1274.38 44.3218 Q1276 42.8287 1278.72 41.8625 Q1281.49 40.8524 1284.87 40.8524 Q1289.79 40.8524 1292.69 43.1361 Q1295.59 45.3758 1295.59 48.5818 Z" fill="#ffffff" fill-rule="nonzero" fill-opacity="1" /><path clip-path="url(#clip040)" d="M1305.51 79.1481 Q1304.23 77.6988 1304.23 75.8104 Q1304.23 73.9219 1305.46 72.5166 Q1306.74 71.0673 1309.02 71.0673 Q1311.7 71.0673 1313.24 73.6584 Q1314.77 76.2056 1314.77 80.5095 Q1314.77 85.1647 1312.89 89.4686 Q1311 93.8164 1309.15 95.8805 Q1307.31 97.9446 1306.56 97.9446 Q1305.68 97.9446 1305.68 96.9784 Q1305.68 96.6271 1306.3 95.9683 Q1312.75 89.0294 1312.8 80.5095 Q1312.8 79.1481 1312.62 79.1481 L1312.4 79.3237 Q1310.87 80.5973 1309.02 80.5973 Q1306.78 80.5973 1305.51 79.1481 Z" fill="#ffffff" fill-rule="nonzero" fill-opacity="1" /><path clip-path="url(#clip040)" d="M1343.16 58.1118 Q1343.16 42.9165 1348.82 30.6636 Q1351.24 25.5253 1354.62 21.2214 Q1358 16.9176 1360.24 15.0291 Q1362.48 13.1407 1363.1 13.1407 Q1363.98 13.1407 1364.02 14.019 Q1364.02 14.4582 1362.83 15.5561 Q1348.34 30.3123 1348.38 58.1118 Q1348.38 85.9991 1362.48 100.184 Q1364.02 101.721 1364.02 102.205 Q1364.02 103.083 1363.1 103.083 Q1362.48 103.083 1360.33 101.282 Q1358.18 99.4817 1354.84 95.3535 Q1351.5 91.2253 1349.09 86.1748 Q1343.16 73.9219 1343.16 58.1118 Z" fill="#ffffff" fill-rule="nonzero" fill-opacity="1" /><path clip-path="url(#clip040)" d="M1419.24 67.7296 Q1419.24 68.081 1418.85 69.4424 Q1418.45 70.8038 1417.49 72.9119 Q1416.57 75.0199 1415.29 76.9522 Q1414.02 78.8407 1411.91 80.246 Q1409.85 81.6074 1407.48 81.6074 Q1404.31 81.6074 1402.21 79.4994 Q1400.1 77.3914 1400.1 74.2294 Q1400.1 72.4727 1401.02 70.0572 Q1406.86 54.4667 1406.86 49.1088 Q1406.86 42.8287 1401.99 42.8287 Q1399.57 42.8287 1397.29 43.7509 Q1395.05 44.6293 1393.51 45.8589 Q1391.97 47.0886 1390.57 48.8014 Q1389.21 50.4702 1388.5 51.6121 Q1387.84 52.71 1387.32 53.8079 L1386.18 58.2875 Q1385.91 59.5171 1384.64 64.3041 L1382.66 72.4288 Q1381.26 78.4893 1380.95 79.0602 Q1380.51 80.2899 1379.54 80.9487 Q1378.58 81.6074 1377.61 81.6074 Q1376.51 81.6074 1375.77 80.9487 Q1375.02 80.2899 1375.02 79.1481 Q1375.02 78.9724 1375.15 78.3137 Q1375.28 77.6549 1375.5 76.7326 Q1375.72 75.8104 1375.81 75.2834 L1381.04 54.5106 Q1382 50.7337 1382.22 49.548 Q1382.49 48.3183 1382.49 46.9569 Q1382.49 42.8287 1379.68 42.8287 Q1377.39 42.8287 1375.9 45.5515 Q1374.41 48.2744 1373.13 53.5444 Q1372.74 54.9937 1372.47 55.3011 Q1372.25 55.6085 1371.59 55.6085 Q1370.5 55.5646 1370.5 54.6863 Q1370.5 54.4667 1370.85 53.0174 Q1371.2 51.5682 1371.86 49.504 Q1372.56 47.396 1373.22 45.9907 Q1373.79 44.9367 1374.1 44.4536 Q1374.45 43.9266 1375.28 42.9165 Q1376.16 41.8625 1377.3 41.3794 Q1378.49 40.8524 1379.94 40.8524 Q1383.19 40.8524 1385.56 42.9604 Q1387.93 45.0245 1388.24 48.6696 Q1394.08 40.8524 1402.25 40.8524 Q1407.08 40.8524 1409.85 43.3996 Q1412.61 45.9468 1412.61 50.4702 Q1412.61 51.5242 1412.39 52.8857 Q1412.22 54.2032 1411.78 55.872 Q1411.38 57.5409 1411.03 58.8145 Q1410.68 60.0881 1409.98 62.1522 Q1409.28 64.1724 1408.97 65.0507 Q1408.66 65.929 1407.91 67.9931 Q1407.21 70.0133 1407.12 70.2329 Q1405.5 74.3172 1405.5 76.6448 Q1405.5 78.1819 1405.98 78.8846 Q1406.51 79.5873 1407.65 79.5873 Q1410.72 79.5873 1413.01 76.557 Q1415.34 73.4828 1416.83 68.4762 Q1417.18 67.3783 1417.36 67.1148 Q1417.58 66.8513 1418.19 66.8513 Q1419.24 66.8513 1419.24 67.7296 Z" fill="#ffffff" fill-rule="nonzero" fill-opacity="1" /><path clip-path="url(#clip040)" d="M1448.87 66.9391 Q1448.96 65.8412 1450.67 65.8412 L1505.79 65.8412 Q1508.38 65.8412 1508.42 66.8513 Q1508.42 67.9492 1505.96 67.9053 L1451.29 67.9053 Q1448.87 67.9492 1448.87 66.9391 M1448.87 49.3723 Q1448.87 48.2744 1450.76 48.3183 L1505.7 48.3183 Q1508.38 48.3183 1508.42 49.3723 Q1508.42 50.3824 1506.14 50.3824 L1450.67 50.3824 Q1448.87 50.3824 1448.87 49.3723 Z" fill="#ffffff" fill-rule="nonzero" fill-opacity="1" /><path clip-path="url(#clip040)" d="M1543.12 65.7534 L1543.12 62.9866 L1570.75 20.7823 Q1571.45 19.6843 1572.55 19.7283 Q1573.56 19.7283 1573.78 20.1235 Q1574 20.5188 1574 22.0559 L1574 62.9866 L1583 62.9866 L1583 65.7534 L1574 65.7534 L1574 73.5706 Q1574 76.1617 1575.05 76.9961 Q1576.15 77.8306 1580.8 77.8306 L1582.69 77.8306 L1582.69 80.5973 Q1579 80.3338 1570.48 80.3338 Q1562.01 80.3338 1558.32 80.5973 L1558.32 77.8306 L1560.21 77.8306 Q1564.86 77.8306 1565.96 77.0401 Q1567.06 76.2056 1567.06 73.5706 L1567.06 65.7534 L1543.12 65.7534 M1545.67 62.9866 L1567.58 62.9866 L1567.58 29.4339 L1545.67 62.9866 Z" fill="#ffffff" fill-rule="nonzero" fill-opacity="1" /><path clip-path="url(#clip040)" d="M1589.83 51.8317 Q1589.83 38.6126 1593.16 31.4102 Q1597.82 20.6944 1608.8 20.6944 Q1611.12 20.6944 1613.54 21.3532 Q1616 21.968 1619.07 24.3835 Q1622.19 26.7989 1624.08 30.7515 Q1627.68 38.393 1627.68 51.8317 Q1627.68 64.9629 1624.34 72.1213 Q1619.47 82.5736 1608.71 82.5736 Q1604.67 82.5736 1600.54 80.5095 Q1596.46 78.4454 1593.87 73.4828 Q1589.83 66.0608 1589.83 51.8317 M1597.29 50.7337 Q1597.29 64.3041 1598.26 69.7059 Q1599.36 75.5469 1602.34 78.0941 Q1605.37 80.5973 1608.71 80.5973 Q1612.31 80.5973 1615.3 77.9184 Q1618.33 75.1955 1619.25 69.3546 Q1620.26 63.6014 1620.22 50.7337 Q1620.22 38.2174 1619.34 33.2108 Q1618.15 27.3698 1614.99 25.0422 Q1611.87 22.6707 1608.71 22.6707 Q1607.52 22.6707 1606.25 23.022 Q1605.02 23.3734 1603.22 24.3835 Q1601.42 25.3936 1600.01 27.8968 Q1598.65 30.4001 1597.99 34.177 Q1597.29 39.0518 1597.29 50.7337 Z" fill="#ffffff" fill-rule="nonzero" fill-opacity="1" /><path clip-path="url(#clip040)" d="M1636.53 102.205 Q1636.53 101.765 1637.67 100.667 Q1652.16 85.9113 1652.16 58.1118 Q1652.16 30.2244 1638.24 16.1271 Q1636.53 14.5021 1636.53 14.019 Q1636.53 13.1407 1637.41 13.1407 Q1638.02 13.1407 1640.17 14.9413 Q1642.37 16.7419 1645.66 20.8701 Q1649 24.9983 1651.46 30.0488 Q1657.39 42.3016 1657.39 58.1118 Q1657.39 73.3071 1651.72 85.56 Q1649.31 90.6983 1645.93 95.0021 Q1642.54 99.306 1640.3 101.194 Q1638.07 103.083 1637.41 103.083 Q1636.53 103.083 1636.53 102.205 Z" fill="#ffffff" fill-rule="nonzero" fill-opacity="1" /><circle clip-path="url(#clip043)" cx="315.334" cy="2300.43" r="14.4" fill="#546ea1" fill-rule="evenodd" fill-opacity="1" stroke="#ffffff" stroke-opacity="1" stroke-width="5.2"/>
<circle clip-path="url(#clip043)" cx="387.303" cy="2008.71" r="14.4" fill="#546ea1" fill-rule="evenodd" fill-opacity="1" stroke="#ffffff" stroke-opacity="1" stroke-width="5.2"/>
<circle clip-path="url(#clip043)" cx="509.919" cy="1977.52" r="14.4" fill="#546ea1" fill-rule="evenodd" fill-opacity="1" stroke="#ffffff" stroke-opacity="1" stroke-width="5.2"/>
<circle clip-path="url(#clip043)" cx="611.993" cy="1871.8" r="14.4" fill="#546ea1" fill-rule="evenodd" fill-opacity="1" stroke="#ffffff" stroke-opacity="1" stroke-width="5.2"/>
<circle clip-path="url(#clip043)" cx="738.867" cy="1654" r="14.4" fill="#546ea1" fill-rule="evenodd" fill-opacity="1" stroke="#ffffff" stroke-opacity="1" stroke-width="5.2"/>
<circle clip-path="url(#clip043)" cx="843.872" cy="1423.03" r="14.4" fill="#546ea1" fill-rule="evenodd" fill-opacity="1" stroke="#ffffff" stroke-opacity="1" stroke-width="5.2"/>
<circle clip-path="url(#clip043)" cx="960.612" cy="1237.2" r="14.4" fill="#546ea1" fill-rule="evenodd" fill-opacity="1" stroke="#ffffff" stroke-opacity="1" stroke-width="5.2"/>
<circle clip-path="url(#clip043)" cx="1080.81" cy="1135.89" r="14.4" fill="#546ea1" fill-rule="evenodd" fill-opacity="1" stroke="#ffffff" stroke-opacity="1" stroke-width="5.2"/>
<circle clip-path="url(#clip043)" cx="1181.2" cy="1028.34" r="14.4" fill="#546ea1" fill-rule="evenodd" fill-opacity="1" stroke="#ffffff" stroke-opacity="1" stroke-width="5.2"/>
<circle clip-path="url(#clip043)" cx="1298.75" cy="1075.47" r="14.4" fill="#546ea1" fill-rule="evenodd" fill-opacity="1" stroke="#ffffff" stroke-opacity="1" stroke-width="5.2"/>
<circle clip-path="url(#clip043)" cx="1422.75" cy="898.054" r="14.4" fill="#546ea1" fill-rule="evenodd" fill-opacity="1" stroke="#ffffff" stroke-opacity="1" stroke-width="5.2"/>
<circle clip-path="url(#clip043)" cx="1536.23" cy="830.639" r="14.4" fill="#546ea1" fill-rule="evenodd" fill-opacity="1" stroke="#ffffff" stroke-opacity="1" stroke-width="5.2"/>
<circle clip-path="url(#clip043)" cx="1649.35" cy="833.708" r="14.4" fill="#546ea1" fill-rule="evenodd" fill-opacity="1" stroke="#ffffff" stroke-opacity="1" stroke-width="5.2"/>
<circle clip-path="url(#clip043)" cx="1766.47" cy="691.999" r="14.4" fill="#546ea1" fill-rule="evenodd" fill-opacity="1" stroke="#ffffff" stroke-opacity="1" stroke-width="5.2"/>
<circle clip-path="url(#clip043)" cx="1882.59" cy="552.752" r="14.4" fill="#546ea1" fill-rule="evenodd" fill-opacity="1" stroke="#ffffff" stroke-opacity="1" stroke-width="5.2"/>
<circle clip-path="url(#clip043)" cx="1994.97" cy="521.251" r="14.4" fill="#546ea1" fill-rule="evenodd" fill-opacity="1" stroke="#ffffff" stroke-opacity="1" stroke-width="5.2"/>
<circle clip-path="url(#clip043)" cx="2114.47" cy="540.32" r="14.4" fill="#546ea1" fill-rule="evenodd" fill-opacity="1" stroke="#ffffff" stroke-opacity="1" stroke-width="5.2"/>
<circle clip-path="url(#clip043)" cx="2231.21" cy="446.16" r="14.4" fill="#546ea1" fill-rule="evenodd" fill-opacity="1" stroke="#ffffff" stroke-opacity="1" stroke-width="5.2"/>
<circle clip-path="url(#clip043)" cx="2345.93" cy="328.688" r="14.4" fill="#546ea1" fill-rule="evenodd" fill-opacity="1" stroke="#ffffff" stroke-opacity="1" stroke-width="5.2"/>
<circle clip-path="url(#clip043)" cx="2463.26" cy="379.074" r="14.4" fill="#546ea1" fill-rule="evenodd" fill-opacity="1" stroke="#ffffff" stroke-opacity="1" stroke-width="5.2"/>
<circle clip-path="url(#clip043)" cx="2580.69" cy="373.667" r="14.4" fill="#546ea1" fill-rule="evenodd" fill-opacity="1" stroke="#ffffff" stroke-opacity="1" stroke-width="5.2"/>
<circle clip-path="url(#clip043)" cx="2696.46" cy="343.001" r="14.4" fill="#546ea1" fill-rule="evenodd" fill-opacity="1" stroke="#ffffff" stroke-opacity="1" stroke-width="5.2"/>
<circle clip-path="url(#clip043)" cx="2813.26" cy="320.613" r="14.4" fill="#546ea1" fill-rule="evenodd" fill-opacity="1" stroke="#ffffff" stroke-opacity="1" stroke-width="5.2"/>
<circle clip-path="url(#clip043)" cx="2929.56" cy="284.58" r="14.4" fill="#546ea1" fill-rule="evenodd" fill-opacity="1" stroke="#ffffff" stroke-opacity="1" stroke-width="5.2"/>
<circle clip-path="url(#clip043)" cx="3046.76" cy="272.352" r="14.4" fill="#546ea1" fill-rule="evenodd" fill-opacity="1" stroke="#ffffff" stroke-opacity="1" stroke-width="5.2"/>
<circle clip-path="url(#clip043)" cx="3163.38" cy="225.206" r="14.4" fill="#546ea1" fill-rule="evenodd" fill-opacity="1" stroke="#ffffff" stroke-opacity="1" stroke-width="5.2"/>
<circle clip-path="url(#clip043)" cx="3280.06" cy="197.897" r="14.4" fill="#546ea1" fill-rule="evenodd" fill-opacity="1" stroke="#ffffff" stroke-opacity="1" stroke-width="5.2"/>
</svg>
