<?xml version="1.0" encoding="utf-8"?>
<svg xmlns="http://www.w3.org/2000/svg" xmlns:xlink="http://www.w3.org/1999/xlink" width="900" height="650" viewBox="0 0 3600 2600">
<defs>
  <clipPath id="clip000">
    <rect x="0" y="0" width="3600" height="2600"/>
  </clipPath>
</defs>
<path clip-path="url(#clip000)" d="M0 2600 L3600 2600 L3600 0 L0 0  Z" fill="#7f7f7f" fill-rule="evenodd" fill-opacity="1"/>
<defs>
  <clipPath id="clip001">
    <rect x="720" y="0" width="2521" height="2521"/>
  </clipPath>
</defs>
<defs>
  <clipPath id="clip002">
    <rect x="237" y="133" width="3316" height="2274"/>
  </clipPath>
</defs>
<path clip-path="url(#clip000)" d="M237.597 2406.34 L3552.76 2406.34 L3552.76 133.192 L237.597 133.192  Z" fill="#7f7f7f" fill-rule="evenodd" fill-opacity="1"/>
<polyline clip-path="url(#clip002)" style="stroke:#ffffff; stroke-linecap:round; stroke-linejoin:round; stroke-width:2; stroke-opacity:0.5; fill:none" points="283.307,2406.34 283.307,133.192 "/>
<polyline clip-path="url(#clip002)" style="stroke:#ffffff; stroke-linecap:round; stroke-linejoin:round; stroke-width:2; stroke-opacity:0.5; fill:none" points="1085.23,2406.34 1085.23,133.192 "/>
<polyline clip-path="url(#clip002)" style="stroke:#ffffff; stroke-linecap:round; stroke-linejoin:round; stroke-width:2; stroke-opacity:0.5; fill:none" points="1887.16,2406.34 1887.16,133.192 "/>
<polyline clip-path="url(#clip002)" style="stroke:#ffffff; stroke-linecap:round; stroke-linejoin:round; stroke-width:2; stroke-opacity:0.5; fill:none" points="2689.08,2406.34 2689.08,133.192 "/>
<polyline clip-path="url(#clip002)" style="stroke:#ffffff; stroke-linecap:round; stroke-linejoin:round; stroke-width:2; stroke-opacity:0.5; fill:none" points="3491.01,2406.34 3491.01,133.192 "/>
<polyline clip-path="url(#clip002)" style="stroke:#ffffff; stroke-linecap:round; stroke-linejoin:round; stroke-width:2; stroke-opacity:0.3; fill:none" points="443.692,2406.34 443.692,133.192 "/>
<polyline clip-path="url(#clip002)" style="stroke:#ffffff; stroke-linecap:round; stroke-linejoin:round; stroke-width:2; stroke-opacity:0.3; fill:none" points="604.077,2406.34 604.077,133.192 "/>
<polyline clip-path="url(#clip002)" style="stroke:#ffffff; stroke-linecap:round; stroke-linejoin:round; stroke-width:2; stroke-opacity:0.3; fill:none" points="764.462,2406.34 764.462,133.192 "/>
<polyline clip-path="url(#clip002)" style="stroke:#ffffff; stroke-linecap:round; stroke-linejoin:round; stroke-width:2; stroke-opacity:0.3; fill:none" points="924.847,2406.34 924.847,133.192 "/>
<polyline clip-path="url(#clip002)" style="stroke:#ffffff; stroke-linecap:round; stroke-linejoin:round; stroke-width:2; stroke-opacity:0.3; fill:none" points="1245.62,2406.34 1245.62,133.192 "/>
<polyline clip-path="url(#clip002)" style="stroke:#ffffff; stroke-linecap:round; stroke-linejoin:round; stroke-width:2; stroke-opacity:0.3; fill:none" points="1406,2406.34 1406,133.192 "/>
<polyline clip-path="url(#clip002)" style="stroke:#ffffff; stroke-linecap:round; stroke-linejoin:round; stroke-width:2; stroke-opacity:0.3; fill:none" points="1566.39,2406.34 1566.39,133.192 "/>
<polyline clip-path="url(#clip002)" style="stroke:#ffffff; stroke-linecap:round; stroke-linejoin:round; stroke-width:2; stroke-opacity:0.3; fill:none" points="1726.77,2406.34 1726.77,133.192 "/>
<polyline clip-path="url(#clip002)" style="stroke:#ffffff; stroke-linecap:round; stroke-linejoin:round; stroke-width:2; stroke-opacity:0.3; fill:none" points="2047.54,2406.34 2047.54,133.192 "/>
<polyline clip-path="url(#clip002)" style="stroke:#ffffff; stroke-linecap:round; stroke-linejoin:round; stroke-width:2; stroke-opacity:0.3; fill:none" points="2207.93,2406.34 2207.93,133.192 "/>
<polyline clip-path="url(#clip002)" style="stroke:#ffffff; stroke-linecap:round; stroke-linejoin:round; stroke-width:2; stroke-opacity:0.3; fill:none" points="2368.31,2406.34 2368.31,133.192 "/>
<polyline clip-path="url(#clip002)" style="stroke:#ffffff; stroke-linecap:round; stroke-linejoin:round; stroke-width:2; stroke-opacity:0.3; fill:none" points="2528.7,2406.34 2528.7,133.192 "/>
<polyline clip-path="url(#clip002)" style="stroke:#ffffff; stroke-linecap:round; stroke-linejoin:round; stroke-width:2; stroke-opacity:0.3; fill:none" points="2849.47,2406.34 2849.47,133.192 "/>
<polyline clip-path="url(#clip002)" style="stroke:#ffffff; stroke-linecap:round; stroke-linejoin:round; stroke-width:2; stroke-opacity:0.3; fill:none" points="3009.85,2406.34 3009.85,133.192 "/>
<polyline clip-path="url(#clip002)" style="stroke:#ffffff; stroke-linecap:round; stroke-linejoin:round; stroke-width:2; stroke-opacity:0.3; fill:none" points="3170.24,2406.34 3170.24,133.192 "/>
<polyline clip-path="url(#clip002)" style="stroke:#ffffff; stroke-linecap:round; stroke-linejoin:round; stroke-width:2; stroke-opacity:0.3; fill:none" points="3330.62,2406.34 3330.62,133.192 "/>
<polyline clip-path="url(#clip000)" style="stroke:#ffffff; stroke-linecap:round; stroke-linejoin:round; stroke-width:4; stroke-opacity:1; fill:none" points="237.597,2406.34 3552.76,2406.34 "/>
<polyline clip-path="url(#clip000)" style="stroke:#ffffff; stroke-linecap:round; stroke-linejoin:round; stroke-width:4; stroke-opacity:1; fill:none" points="283.307,2406.34 283.307,2387.44 "/>
<polyline clip-path="url(#clip000)" style="stroke:#ffffff; stroke-linecap:round; stroke-linejoin:round; stroke-width:4; stroke-opacity:1; fill:none" points="1085.23,2406.34 1085.23,2387.44 "/>
<polyline clip-path="url(#clip000)" style="stroke:#ffffff; stroke-linecap:round; stroke-linejoin:round; stroke-width:4; stroke-opacity:1; fill:none" points="1887.16,2406.34 1887.16,2387.44 "/>
<polyline clip-path="url(#clip000)" style="stroke:#ffffff; stroke-linecap:round; stroke-linejoin:round; stroke-width:4; stroke-opacity:1; fill:none" points="2689.08,2406.34 2689.08,2387.44 "/>
<polyline clip-path="url(#clip000)" style="stroke:#ffffff; stroke-linecap:round; stroke-linejoin:round; stroke-width:4; stroke-opacity:1; fill:none" points="3491.01,2406.34 3491.01,2387.44 "/>
<polyline clip-path="url(#clip000)" style="stroke:#ffffff; stroke-linecap:round; stroke-linejoin:round; stroke-width:4; stroke-opacity:1; fill:none" points="443.692,2406.34 443.692,2396.89 "/>
<polyline clip-path="url(#clip000)" style="stroke:#ffffff; stroke-linecap:round; stroke-linejoin:round; stroke-width:4; stroke-opacity:1; fill:none" points="604.077,2406.34 604.077,2396.89 "/>
<polyline clip-path="url(#clip000)" style="stroke:#ffffff; stroke-linecap:round; stroke-linejoin:round; stroke-width:4; stroke-opacity:1; fill:none" points="764.462,2406.34 764.462,2396.89 "/>
<polyline clip-path="url(#clip000)" style="stroke:#ffffff; stroke-linecap:round; stroke-linejoin:round; stroke-width:4; stroke-opacity:1; fill:none" points="924.847,2406.34 924.847,2396.89 "/>
<polyline clip-path="url(#clip000)" style="stroke:#ffffff; stroke-linecap:round; stroke-linejoin:round; stroke-width:4; stroke-opacity:1; fill:none" points="1245.62,2406.34 1245.62,2396.89 "/>
<polyline clip-path="url(#clip000)" style="stroke:#ffffff; stroke-linecap:round; stroke-linejoin:round; stroke-width:4; stroke-opacity:1; fill:none" points="1406,2406.34 1406,2396.89 "/>
<polyline clip-path="url(#clip000)" style="stroke:#ffffff; stroke-linecap:round; stroke-linejoin:round; stroke-width:4; stroke-opacity:1; fill:none" points="1566.39,2406.34 1566.39,2396.89 "/>
<polyline clip-path="url(#clip000)" style="stroke:#ffffff; stroke-linecap:round; stroke-linejoin:round; stroke-width:4; stroke-opacity:1; fill:none" points="1726.77,2406.34 1726.77,2396.89 "/>
<polyline clip-path="url(#clip000)" style="stroke:#ffffff; stroke-linecap:round; stroke-linejoin:round; stroke-width:4; stroke-opacity:1; fill:none" points="2047.54,2406.34 2047.54,2396.89 "/>
<polyline clip-path="url(#clip000)" style="stroke:#ffffff; stroke-linecap:round; stroke-linejoin:round; stroke-width:4; stroke-opacity:1; fill:none" points="2207.93,2406.34 2207.93,2396.89 "/>
<polyline clip-path="url(#clip000)" style="stroke:#ffffff; stroke-linecap:round; stroke-linejoin:round; stroke-width:4; stroke-opacity:1; fill:none" points="2368.31,2406.34 2368.31,2396.89 "/>
<polyline clip-path="url(#clip000)" style="stroke:#ffffff; stroke-linecap:round; stroke-linejoin:round; stroke-width:4; stroke-opacity:1; fill:none" points="2528.7,2406.34 2528.7,2396.89 "/>
<polyline clip-path="url(#clip000)" style="stroke:#ffffff; stroke-linecap:round; stroke-linejoin:round; stroke-width:4; stroke-opacity:1; fill:none" points="2849.47,2406.34 2849.47,2396.89 "/>
<polyline clip-path="url(#clip000)" style="stroke:#ffffff; stroke-linecap:round; stroke-linejoin:round; stroke-width:4; stroke-opacity:1; fill:none" points="3009.85,2406.34 3009.85,2396.89 "/>
<polyline clip-path="url(#clip000)" style="stroke:#ffffff; stroke-linecap:round; stroke-linejoin:round; stroke-width:4; stroke-opacity:1; fill:none" points="3170.24,2406.34 3170.24,2396.89 "/>
<polyline clip-path="url(#clip000)" style="stroke:#ffffff; stroke-linecap:round; stroke-linejoin:round; stroke-width:4; stroke-opacity:1; fill:none" points="3330.62,2406.34 3330.62,2396.89 "/>
<path clip-path="url(#clip000)" d="M283.307 2446.86 Q279.696 2446.86 277.867 2450.42 Q276.061 2453.96 276.061 2461.09 Q276.061 2468.2 277.867 2471.77 Q279.696 2475.31 283.307 2475.31 Q286.941 2475.31 288.747 2471.77 Q290.575 2468.2 290.575 2461.09 Q290.575 2453.96 288.747 2450.42 Q286.941 2446.86 283.307 2446.86 M283.307 2443.15 Q289.117 2443.15 292.173 2447.76 Q295.251 2452.34 295.251 2461.09 Q295.251 2469.82 292.173 2474.43 Q289.117 2479.01 283.307 2479.01 Q277.497 2479.01 274.418 2474.43 Q271.362 2469.82 271.362 2461.09 Q271.362 2452.34 274.418 2447.76 Q277.497 2443.15 283.307 2443.15 Z" fill="#ffffff" fill-rule="nonzero" fill-opacity="1" /><path clip-path="url(#clip000)" d="M1059.93 2443.78 L1078.29 2443.78 L1078.29 2447.72 L1064.21 2447.72 L1064.21 2456.19 Q1065.23 2455.84 1066.25 2455.68 Q1067.27 2455.49 1068.29 2455.49 Q1074.07 2455.49 1077.45 2458.66 Q1080.83 2461.84 1080.83 2467.25 Q1080.83 2472.83 1077.36 2475.93 Q1073.89 2479.01 1067.57 2479.01 Q1065.39 2479.01 1063.13 2478.64 Q1060.88 2478.27 1058.47 2477.53 L1058.47 2472.83 Q1060.56 2473.96 1062.78 2474.52 Q1065 2475.08 1067.48 2475.08 Q1071.48 2475.08 1073.82 2472.97 Q1076.16 2470.86 1076.16 2467.25 Q1076.16 2463.64 1073.82 2461.53 Q1071.48 2459.43 1067.48 2459.43 Q1065.6 2459.43 1063.73 2459.84 Q1061.88 2460.26 1059.93 2461.14 L1059.93 2443.78 Z" fill="#ffffff" fill-rule="nonzero" fill-opacity="1" /><path clip-path="url(#clip000)" d="M1100.05 2446.86 Q1096.44 2446.86 1094.61 2450.42 Q1092.8 2453.96 1092.8 2461.09 Q1092.8 2468.2 1094.61 2471.77 Q1096.44 2475.31 1100.05 2475.31 Q1103.68 2475.31 1105.49 2471.77 Q1107.32 2468.2 1107.32 2461.09 Q1107.32 2453.96 1105.49 2450.42 Q1103.68 2446.86 1100.05 2446.86 M1100.05 2443.15 Q1105.86 2443.15 1108.91 2447.76 Q1111.99 2452.34 1111.99 2461.09 Q1111.99 2469.82 1108.91 2474.43 Q1105.86 2479.01 1100.05 2479.01 Q1094.24 2479.01 1091.16 2474.43 Q1088.1 2469.82 1088.1 2461.09 Q1088.1 2452.34 1091.16 2447.76 Q1094.24 2443.15 1100.05 2443.15 Z" fill="#ffffff" fill-rule="nonzero" fill-opacity="1" /><path clip-path="url(#clip000)" d="M1846.76 2474.4 L1854.4 2474.4 L1854.4 2448.04 L1846.09 2449.71 L1846.09 2445.45 L1854.36 2443.78 L1859.03 2443.78 L1859.03 2474.4 L1866.67 2474.4 L1866.67 2478.34 L1846.76 2478.34 L1846.76 2474.4 Z" fill="#ffffff" fill-rule="nonzero" fill-opacity="1" /><path clip-path="url(#clip000)" d="M1886.12 2446.86 Q1882.5 2446.86 1880.68 2450.42 Q1878.87 2453.96 1878.87 2461.09 Q1878.87 2468.2 1880.68 2471.77 Q1882.5 2475.31 1886.12 2475.31 Q1889.75 2475.31 1891.56 2471.77 Q1893.38 2468.2 1893.38 2461.09 Q1893.38 2453.96 1891.56 2450.42 Q1889.75 2446.86 1886.12 2446.86 M1886.12 2443.15 Q1891.93 2443.15 1894.98 2447.76 Q1898.06 2452.34 1898.06 2461.09 Q1898.06 2469.82 1894.98 2474.43 Q1891.93 2479.01 1886.12 2479.01 Q1880.31 2479.01 1877.23 2474.43 Q1874.17 2469.82 1874.17 2461.09 Q1874.17 2452.34 1877.23 2447.76 Q1880.31 2443.15 1886.12 2443.15 Z" fill="#ffffff" fill-rule="nonzero" fill-opacity="1" /><path clip-path="url(#clip000)" d="M1916.28 2446.86 Q1912.67 2446.86 1910.84 2450.42 Q1909.03 2453.96 1909.03 2461.09 Q1909.03 2468.2 1910.84 2471.77 Q1912.67 2475.31 1916.28 2475.31 Q1919.91 2475.31 1921.72 2471.77 Q1923.55 2468.2 1923.55 2461.09 Q1923.55 2453.96 1921.72 2450.42 Q1919.91 2446.86 1916.28 2446.86 M1916.28 2443.15 Q1922.09 2443.15 1925.14 2447.76 Q1928.22 2452.34 1928.22 2461.09 Q1928.22 2469.82 1925.14 2474.43 Q1922.09 2479.01 1916.28 2479.01 Q1910.47 2479.01 1907.39 2474.43 Q1904.33 2469.82 1904.33 2461.09 Q1904.33 2452.34 1907.39 2447.76 Q1910.47 2443.15 1916.28 2443.15 Z" fill="#ffffff" fill-rule="nonzero" fill-opacity="1" /><path clip-path="url(#clip000)" d="M2648.69 2474.4 L2656.33 2474.4 L2656.33 2448.04 L2648.02 2449.71 L2648.02 2445.45 L2656.28 2443.78 L2660.96 2443.78 L2660.96 2474.4 L2668.6 2474.4 L2668.6 2478.34 L2648.69 2478.34 L2648.69 2474.4 Z" fill="#ffffff" fill-rule="nonzero" fill-opacity="1" /><path clip-path="url(#clip000)" d="M2678.09 2443.78 L2696.44 2443.78 L2696.44 2447.72 L2682.37 2447.72 L2682.37 2456.19 Q2683.39 2455.84 2684.41 2455.68 Q2685.43 2455.49 2686.44 2455.49 Q2692.23 2455.49 2695.61 2458.66 Q2698.99 2461.84 2698.99 2467.25 Q2698.99 2472.83 2695.52 2475.93 Q2692.05 2479.01 2685.73 2479.01 Q2683.55 2479.01 2681.28 2478.64 Q2679.04 2478.27 2676.63 2477.53 L2676.63 2472.83 Q2678.71 2473.96 2680.93 2474.52 Q2683.16 2475.08 2685.63 2475.08 Q2689.64 2475.08 2691.98 2472.97 Q2694.31 2470.86 2694.31 2467.25 Q2694.31 2463.64 2691.98 2461.53 Q2689.64 2459.43 2685.63 2459.43 Q2683.76 2459.43 2681.88 2459.84 Q2680.03 2460.26 2678.09 2461.14 L2678.09 2443.78 Z" fill="#ffffff" fill-rule="nonzero" fill-opacity="1" /><path clip-path="url(#clip000)" d="M2718.2 2446.86 Q2714.59 2446.86 2712.76 2450.42 Q2710.96 2453.96 2710.96 2461.09 Q2710.96 2468.2 2712.76 2471.77 Q2714.59 2475.31 2718.2 2475.31 Q2721.84 2475.31 2723.64 2471.77 Q2725.47 2468.2 2725.47 2461.09 Q2725.47 2453.96 2723.64 2450.42 Q2721.84 2446.86 2718.2 2446.86 M2718.2 2443.15 Q2724.01 2443.15 2727.07 2447.76 Q2730.15 2452.34 2730.15 2461.09 Q2730.15 2469.82 2727.07 2474.43 Q2724.01 2479.01 2718.2 2479.01 Q2712.39 2479.01 2709.31 2474.43 Q2706.26 2469.82 2706.26 2461.09 Q2706.26 2452.34 2709.31 2447.76 Q2712.39 2443.15 2718.2 2443.15 Z" fill="#ffffff" fill-rule="nonzero" fill-opacity="1" /><path clip-path="url(#clip000)" d="M3454.7 2474.4 L3471.02 2474.4 L3471.02 2478.34 L3449.08 2478.34 L3449.08 2474.4 Q3451.74 2471.65 3456.32 2467.02 Q3460.93 2462.37 3462.11 2461.03 Q3464.35 2458.5 3465.23 2456.77 Q3466.14 2455.01 3466.14 2453.32 Q3466.14 2450.56 3464.19 2448.83 Q3462.27 2447.09 3459.17 2447.09 Q3456.97 2447.09 3454.51 2447.85 Q3452.08 2448.62 3449.31 2450.17 L3449.31 2445.45 Q3452.13 2444.31 3454.58 2443.73 Q3457.04 2443.15 3459.07 2443.15 Q3464.45 2443.15 3467.64 2445.84 Q3470.83 2448.53 3470.83 2453.02 Q3470.83 2455.15 3470.02 2457.07 Q3469.24 2458.96 3467.13 2461.56 Q3466.55 2462.23 3463.45 2465.45 Q3460.35 2468.64 3454.7 2474.4 Z" fill="#ffffff" fill-rule="nonzero" fill-opacity="1" /><path clip-path="url(#clip000)" d="M3490.83 2446.86 Q3487.22 2446.86 3485.39 2450.42 Q3483.59 2453.96 3483.59 2461.09 Q3483.59 2468.2 3485.39 2471.77 Q3487.22 2475.31 3490.83 2475.31 Q3494.47 2475.31 3496.27 2471.77 Q3498.1 2468.2 3498.1 2461.09 Q3498.1 2453.96 3496.27 2450.42 Q3494.47 2446.86 3490.83 2446.86 M3490.83 2443.15 Q3496.64 2443.15 3499.7 2447.76 Q3502.78 2452.34 3502.78 2461.09 Q3502.78 2469.82 3499.7 2474.43 Q3496.64 2479.01 3490.83 2479.01 Q3485.02 2479.01 3481.95 2474.43 Q3478.89 2469.82 3478.89 2461.09 Q3478.89 2452.34 3481.95 2447.76 Q3485.02 2443.15 3490.83 2443.15 Z" fill="#ffffff" fill-rule="nonzero" fill-opacity="1" /><path clip-path="url(#clip000)" d="M3521 2446.86 Q3517.38 2446.86 3515.56 2450.42 Q3513.75 2453.96 3513.75 2461.09 Q3513.75 2468.2 3515.56 2471.77 Q3517.38 2475.31 3521 2475.31 Q3524.63 2475.31 3526.44 2471.77 Q3528.26 2468.2 3528.26 2461.09 Q3528.26 2453.96 3526.44 2450.42 Q3524.63 2446.86 3521 2446.86 M3521 2443.15 Q3526.81 2443.15 3529.86 2447.76 Q3532.94 2452.34 3532.94 2461.09 Q3532.94 2469.82 3529.86 2474.43 Q3526.81 2479.01 3521 2479.01 Q3515.19 2479.01 3512.11 2474.43 Q3509.05 2469.82 3509.05 2461.09 Q3509.05 2452.34 3512.11 2447.76 Q3515.19 2443.15 3521 2443.15 Z" fill="#ffffff" fill-rule="nonzero" fill-opacity="1" /><path clip-path="url(#clip000)" d="M1924.48 2518.69 Q1924.48 2520.01 1923.35 2520.01 Q1919.72 2520.14 1918.23 2521.36 Q1916.78 2522.55 1916.24 2524.87 L1907.03 2561.62 Q1906.7 2562.78 1906.51 2562.91 Q1906.32 2563 1905.96 2563 Q1905.51 2563 1905.26 2562.78 Q1905.03 2562.55 1904.71 2561.75 L1888.28 2522.91 Q1888.15 2522.65 1887.99 2522.3 Q1887.83 2521.94 1887.7 2521.72 L1878.98 2556.53 Q1878.72 2557.53 1878.72 2558.04 Q1878.72 2559.3 1879.59 2560.11 Q1880.49 2560.88 1883.07 2560.98 Q1884.39 2560.98 1884.39 2561.68 Q1884.39 2563 1883.19 2563 Q1882.1 2563 1879.81 2562.91 Q1877.53 2562.81 1876.4 2562.81 Q1875.3 2562.81 1873.08 2562.91 Q1870.86 2563 1869.8 2563 Q1868.96 2563 1868.96 2562.26 Q1868.96 2561.68 1869.18 2561.39 Q1869.41 2561.07 1869.6 2561.04 Q1869.8 2560.98 1870.09 2560.98 Q1872.02 2560.91 1873.34 2560.52 Q1874.66 2560.14 1875.4 2559.4 Q1876.17 2558.66 1876.53 2557.92 Q1876.91 2557.14 1877.2 2556.02 L1886.03 2520.59 Q1886.03 2520.01 1881.55 2520.01 Q1880.78 2520.01 1880.46 2519.98 Q1880.17 2519.95 1879.94 2519.78 Q1879.72 2519.62 1879.72 2519.27 Q1879.72 2518.37 1880.1 2518.17 Q1880.49 2517.95 1881.62 2517.95 L1890.47 2517.95 Q1891.6 2517.95 1891.89 2518.14 Q1892.18 2518.3 1892.57 2519.2 L1907.16 2553.63 L1914.53 2524.29 Q1914.72 2523.71 1914.72 2522.91 Q1914.72 2521.62 1913.76 2520.85 Q1912.82 2520.04 1910.25 2520.01 Q1909.06 2520.01 1909.06 2519.27 Q1909.06 2518.66 1909.28 2518.37 Q1909.54 2518.04 1909.73 2518.01 Q1909.96 2517.95 1910.25 2517.95 Q1911.34 2517.95 1913.6 2518.04 Q1915.85 2518.14 1916.98 2518.14 Q1918.07 2518.14 1920.3 2518.04 Q1922.55 2517.95 1923.64 2517.95 Q1924.03 2517.95 1924.22 2518.14 Q1924.45 2518.3 1924.48 2518.5 L1924.48 2518.69 Z" fill="#ffffff" fill-rule="nonzero" fill-opacity="1" /><polyline clip-path="url(#clip002)" style="stroke:#ffffff; stroke-linecap:round; stroke-linejoin:round; stroke-width:2; stroke-opacity:0.5; fill:none" points="237.597,2406.34 3552.76,2406.34 "/>
<polyline clip-path="url(#clip002)" style="stroke:#ffffff; stroke-linecap:round; stroke-linejoin:round; stroke-width:2; stroke-opacity:0.5; fill:none" points="237.597,133.192 3552.76,133.192 "/>
<polyline clip-path="url(#clip002)" style="stroke:#ffffff; stroke-linecap:round; stroke-linejoin:round; stroke-width:2; stroke-opacity:0.3; fill:none" points="237.597,1722.05 3552.76,1722.05 "/>
<polyline clip-path="url(#clip002)" style="stroke:#ffffff; stroke-linecap:round; stroke-linejoin:round; stroke-width:2; stroke-opacity:0.3; fill:none" points="237.597,1321.77 3552.76,1321.77 "/>
<polyline clip-path="url(#clip002)" style="stroke:#ffffff; stroke-linecap:round; stroke-linejoin:round; stroke-width:2; stroke-opacity:0.3; fill:none" points="237.597,1037.77 3552.76,1037.77 "/>
<polyline clip-path="url(#clip002)" style="stroke:#ffffff; stroke-linecap:round; stroke-linejoin:round; stroke-width:2; stroke-opacity:0.3; fill:none" points="237.597,817.478 3552.76,817.478 "/>
<polyline clip-path="url(#clip002)" style="stroke:#ffffff; stroke-linecap:round; stroke-linejoin:round; stroke-width:2; stroke-opacity:0.3; fill:none" points="237.597,637.487 3552.76,637.487 "/>
<polyline clip-path="url(#clip002)" style="stroke:#ffffff; stroke-linecap:round; stroke-linejoin:round; stroke-width:2; stroke-opacity:0.3; fill:none" points="237.597,485.307 3552.76,485.307 "/>
<polyline clip-path="url(#clip002)" style="stroke:#ffffff; stroke-linecap:round; stroke-linejoin:round; stroke-width:2; stroke-opacity:0.3; fill:none" points="237.597,353.483 3552.76,353.483 "/>
<polyline clip-path="url(#clip002)" style="stroke:#ffffff; stroke-linecap:round; stroke-linejoin:round; stroke-width:2; stroke-opacity:0.3; fill:none" points="237.597,237.206 3552.76,237.206 "/>
<polyline clip-path="url(#clip000)" style="stroke:#ffffff; stroke-linecap:round; stroke-linejoin:round; stroke-width:4; stroke-opacity:1; fill:none" points="237.597,2406.34 237.597,133.192 "/>
<polyline clip-path="url(#clip000)" style="stroke:#ffffff; stroke-linecap:round; stroke-linejoin:round; stroke-width:4; stroke-opacity:1; fill:none" points="237.597,2406.34 256.495,2406.34 "/>
<polyline clip-path="url(#clip000)" style="stroke:#ffffff; stroke-linecap:round; stroke-linejoin:round; stroke-width:4; stroke-opacity:1; fill:none" points="237.597,133.192 256.495,133.192 "/>
<polyline clip-path="url(#clip000)" style="stroke:#ffffff; stroke-linecap:round; stroke-linejoin:round; stroke-width:4; stroke-opacity:1; fill:none" points="237.597,1722.05 247.046,1722.05 "/>
<polyline clip-path="url(#clip000)" style="stroke:#ffffff; stroke-linecap:round; stroke-linejoin:round; stroke-width:4; stroke-opacity:1; fill:none" points="237.597,1321.77 247.046,1321.77 "/>
<polyline clip-path="url(#clip000)" style="stroke:#ffffff; stroke-linecap:round; stroke-linejoin:round; stroke-width:4; stroke-opacity:1; fill:none" points="237.597,1037.77 247.046,1037.77 "/>
<polyline clip-path="url(#clip000)" style="stroke:#ffffff; stroke-linecap:round; stroke-linejoin:round; stroke-width:4; stroke-opacity:1; fill:none" points="237.597,817.478 247.046,817.478 "/>
<polyline clip-path="url(#clip000)" style="stroke:#ffffff; stroke-linecap:round; stroke-linejoin:round; stroke-width:4; stroke-opacity:1; fill:none" points="237.597,637.487 247.046,637.487 "/>
<polyline clip-path="url(#clip000)" style="stroke:#ffffff; stroke-linecap:round; stroke-linejoin:round; stroke-width:4; stroke-opacity:1; fill:none" points="237.597,485.307 247.046,485.307 "/>
<polyline clip-path="url(#clip000)" style="stroke:#ffffff; stroke-linecap:round; stroke-linejoin:round; stroke-width:4; stroke-opacity:1; fill:none" points="237.597,353.483 247.046,353.483 "/>
<polyline clip-path="url(#clip000)" style="stroke:#ffffff; stroke-linecap:round; stroke-linejoin:round; stroke-width:4; stroke-opacity:1; fill:none" points="237.597,237.206 247.046,237.206 "/>
<path clip-path="url(#clip000)" d="M112.891 2426.13 L120.53 2426.13 L120.53 2399.77 L112.22 2401.43 L112.22 2397.17 L120.484 2395.51 L125.16 2395.51 L125.16 2426.13 L132.799 2426.13 L132.799 2430.07 L112.891 2430.07 L112.891 2426.13 Z" fill="#ffffff" fill-rule="nonzero" fill-opacity="1" /><path clip-path="url(#clip000)" d="M152.243 2398.59 Q148.632 2398.59 146.803 2402.15 Q144.998 2405.69 144.998 2412.82 Q144.998 2419.93 146.803 2423.49 Q148.632 2427.04 152.243 2427.04 Q155.877 2427.04 157.683 2423.49 Q159.512 2419.93 159.512 2412.82 Q159.512 2405.69 157.683 2402.15 Q155.877 2398.59 152.243 2398.59 M152.243 2394.88 Q158.053 2394.88 161.109 2399.49 Q164.187 2404.07 164.187 2412.82 Q164.187 2421.55 161.109 2426.16 Q158.053 2430.74 152.243 2430.74 Q146.433 2430.74 143.354 2426.16 Q140.299 2421.55 140.299 2412.82 Q140.299 2404.07 143.354 2399.49 Q146.433 2394.88 152.243 2394.88 Z" fill="#ffffff" fill-rule="nonzero" fill-opacity="1" /><path clip-path="url(#clip000)" d="M173.892 2377.08 Q170.958 2377.08 169.472 2379.97 Q168.005 2382.85 168.005 2388.65 Q168.005 2394.42 169.472 2397.32 Q170.958 2400.19 173.892 2400.19 Q176.845 2400.19 178.312 2397.32 Q179.798 2394.42 179.798 2388.65 Q179.798 2382.85 178.312 2379.97 Q176.845 2377.08 173.892 2377.08 M173.892 2374.07 Q178.613 2374.07 181.096 2377.81 Q183.597 2381.54 183.597 2388.65 Q183.597 2395.74 181.096 2399.48 Q178.613 2403.2 173.892 2403.2 Q169.172 2403.2 166.67 2399.48 Q164.187 2395.74 164.187 2388.65 Q164.187 2381.54 166.67 2377.81 Q169.172 2374.07 173.892 2374.07 Z" fill="#ffffff" fill-rule="nonzero" fill-opacity="1" /><path clip-path="url(#clip000)" d="M115.581 152.985 L123.22 152.985 L123.22 126.619 L114.91 128.286 L114.91 124.026 L123.174 122.36 L127.849 122.36 L127.849 152.985 L135.488 152.985 L135.488 156.92 L115.581 156.92 L115.581 152.985 Z" fill="#ffffff" fill-rule="nonzero" fill-opacity="1" /><path clip-path="url(#clip000)" d="M154.933 125.438 Q151.322 125.438 149.493 129.003 Q147.687 132.545 147.687 139.674 Q147.687 146.781 149.493 150.346 Q151.322 153.887 154.933 153.887 Q158.567 153.887 160.372 150.346 Q162.201 146.781 162.201 139.674 Q162.201 132.545 160.372 129.003 Q158.567 125.438 154.933 125.438 M154.933 121.735 Q160.743 121.735 163.798 126.341 Q166.877 130.924 166.877 139.674 Q166.877 148.401 163.798 153.008 Q160.743 157.591 154.933 157.591 Q149.122 157.591 146.044 153.008 Q142.988 148.401 142.988 139.674 Q142.988 130.924 146.044 126.341 Q149.122 121.735 154.933 121.735 Z" fill="#ffffff" fill-rule="nonzero" fill-opacity="1" /><path clip-path="url(#clip000)" d="M167.422 126.312 L173.629 126.312 L173.629 104.89 L166.877 106.244 L166.877 102.783 L173.591 101.429 L177.391 101.429 L177.391 126.312 L183.597 126.312 L183.597 129.509 L167.422 129.509 L167.422 126.312 Z" fill="#ffffff" fill-rule="nonzero" fill-opacity="1" /><path clip-path="url(#clip000)" d="M21.1282 1251.06 Q23.0606 1251.06 26.4422 1251.8 Q29.8238 1252.51 31.4341 1253.09 Q35.7175 1254.7 39.3245 1257.92 Q41.3213 1259.69 42.7706 1261.62 Q44.1876 1263.52 44.8962 1264.94 Q45.5725 1266.35 45.9267 1268.03 Q46.3132 1269.7 46.3454 1270.48 Q46.4098 1271.25 46.4098 1272.34 L56.2326 1274.86 Q58.7769 1275.37 58.9379 1275.63 Q59.0667 1275.69 59.1311 1275.85 Q59.1956 1275.98 59.1956 1276.11 L59.1956 1276.24 Q59.1956 1276.6 59.0345 1276.79 Q58.8735 1276.98 58.6803 1277.01 L58.5192 1277.01 Q58.0684 1277.01 52.2713 1275.5 Q49.3084 1274.73 46.2488 1274.05 Q45.9267 1279.2 43.6401 1282.39 Q41.3535 1285.55 36.9091 1285.55 Q34.1716 1285.55 25.7659 1282.36 Q21.7401 1280.85 20.0654 1280.85 Q19.3247 1280.85 18.8738 1281.01 Q18.3907 1281.17 18.2297 1281.49 Q18.0365 1281.81 18.0043 1282.01 Q17.9721 1282.17 17.9721 1282.49 Q17.9721 1284.39 19.8722 1286.16 Q21.7723 1287.93 26.1523 1289.16 Q26.9575 1289.41 27.1507 1289.57 Q27.344 1289.74 27.344 1290.22 Q27.3118 1291.02 26.6676 1291.02 Q26.41 1291.02 25.4116 1290.73 Q24.381 1290.44 22.8673 1289.77 Q21.3215 1289.06 19.9366 1288.09 Q18.5196 1287.13 17.5212 1285.61 Q16.5228 1284.07 16.5228 1282.3 Q16.5228 1279.88 18.1009 1278.4 Q19.6468 1276.89 21.9334 1276.89 Q22.3843 1276.89 22.8996 1276.98 Q23.4148 1277.08 23.7047 1277.18 Q23.9946 1277.24 24.542 1277.43 Q25.0573 1277.59 25.154 1277.63 Q29.4051 1279.27 32.1748 1280.11 Q34.9123 1280.94 35.7175 1281.07 Q36.4904 1281.17 37.4244 1281.17 Q43.93 1281.17 44.7995 1273.66 L1.22501 1262.71 Q0.323242 1262.52 0.130007 1262.36 Q-0.095434 1262.2 -0.095434 1261.72 Q-0.095434 1260.94 0.613095 1260.94 Q0.838536 1260.94 1.61148 1261.14 L44.9284 1272.02 Q44.9284 1270.99 44.8962 1270.35 Q44.8639 1269.7 44.5741 1268.35 Q44.252 1266.97 43.6723 1265.81 Q43.0926 1264.61 41.9332 1262.94 Q40.7416 1261.27 39.0669 1259.62 Q36.9735 1257.56 33.4631 1255.73 Q29.9526 1253.89 27.0541 1253.89 Q23.8013 1253.89 21.4503 1256.24 Q21.1282 1256.6 20.935 1256.79 Q20.7418 1256.95 20.4197 1257.11 Q20.0976 1257.24 19.679 1257.24 Q18.584 1257.24 17.5534 1256.21 Q16.5228 1255.18 16.5228 1253.95 Q16.5228 1252.86 17.5856 1251.96 Q18.6484 1251.06 21.1282 1251.06 Z" fill="#ffffff" fill-rule="nonzero" fill-opacity="1" /><path clip-path="url(#clip000)" d="M237.597 68.4762 Q237.597 65.7973 239.134 64.5237 Q240.671 63.2501 242.648 63.2501 Q244.712 63.2501 246.161 64.6115 Q247.654 65.929 247.654 68.2566 Q247.654 70.7599 245.897 72.1653 Q244.185 73.5706 241.725 73.2193 Q243.877 76.8205 247.83 78.4454 Q251.826 80.0703 255.515 80.0703 Q259.38 80.0703 262.498 76.7326 Q265.66 73.3949 265.66 65.2264 Q265.66 58.2875 262.937 54.291 Q260.258 50.2946 254.944 50.2946 L250.992 50.2946 Q249.63 50.2946 249.235 50.1628 Q248.84 50.0311 248.84 49.2845 Q248.84 48.4061 250.201 48.2305 Q251.563 48.2305 253.715 47.967 Q258.941 47.7913 261.708 43.2678 Q264.211 39.0518 264.211 33.0351 Q264.211 27.5455 261.576 25.2618 Q258.985 22.9342 255.603 22.9342 Q252.441 22.9342 248.972 24.2517 Q245.502 25.5692 243.614 28.5117 Q249.191 28.5117 249.191 33.0351 Q249.191 35.0114 247.918 36.3289 Q246.688 37.6025 244.624 37.6025 Q242.648 37.6025 241.33 36.3728 Q240.013 35.0992 240.013 32.9473 Q240.013 27.809 244.58 24.2517 Q249.191 20.6944 255.954 20.6944 Q262.63 20.6944 267.549 24.2078 Q272.511 27.7212 272.511 33.123 Q272.511 38.4369 268.998 42.7847 Q265.484 47.1325 259.907 48.9331 Q266.758 50.2946 270.842 54.9498 Q274.927 59.5611 274.927 65.2264 Q274.927 72.2531 269.393 77.4353 Q263.86 82.5736 255.779 82.5736 Q248.313 82.5736 242.955 78.5332 Q237.597 74.4929 237.597 68.4762 Z" fill="#ffffff" fill-rule="nonzero" fill-opacity="1" /><path clip-path="url(#clip000)" d="M283.501 79.1481 Q282.14 77.6988 282.14 75.8104 Q282.14 73.9219 283.501 72.5605 Q284.863 71.1552 286.927 71.1552 Q288.903 71.1552 290.221 72.4727 Q291.582 73.7463 291.582 75.8543 Q291.582 77.9184 290.133 79.2798 Q288.728 80.5973 286.927 80.5973 Q284.863 80.5973 283.501 79.1481 Z" fill="#ffffff" fill-rule="nonzero" fill-opacity="1" /><path clip-path="url(#clip000)" d="M306.891 80.5973 Q306.891 78.9724 307.023 78.4893 Q307.198 78.0062 307.901 77.2596 L325.16 58.024 Q334.603 47.396 334.603 38.1295 Q334.603 32.1129 331.441 27.809 Q328.323 23.5051 322.569 23.5051 Q318.617 23.5051 315.279 25.9206 Q311.941 28.336 310.404 32.6399 Q310.668 32.5521 311.59 32.5521 Q313.83 32.5521 315.06 33.9574 Q316.333 35.3627 316.333 37.2512 Q316.333 39.6666 314.752 40.8524 Q313.215 41.9942 311.678 41.9942 Q311.063 41.9942 310.229 41.8625 Q309.438 41.7307 308.165 40.501 Q306.891 39.2275 306.891 36.9877 Q306.891 30.7075 311.634 25.701 Q316.421 20.6944 323.711 20.6944 Q331.968 20.6944 337.369 25.6132 Q342.815 30.488 342.815 38.1295 Q342.815 40.8085 341.981 43.2678 Q341.19 45.6833 340.092 47.5717 Q339.038 49.4601 336.14 52.4904 Q333.241 55.5207 330.914 57.6726 Q328.586 59.8246 323.36 64.3919 L313.83 73.6584 L330.035 73.6584 Q337.94 73.6584 338.555 72.9558 Q339.434 71.6822 340.531 64.9629 L342.815 64.9629 L340.268 80.5973 L306.891 80.5973 Z" fill="#ffffff" fill-rule="nonzero" fill-opacity="1" /><path clip-path="url(#clip000)" d="M352.795 79.1481 Q351.434 77.6988 351.434 75.8104 Q351.434 73.9219 352.795 72.5605 Q354.157 71.1552 356.221 71.1552 Q358.197 71.1552 359.515 72.4727 Q360.876 73.7463 360.876 75.8543 Q360.876 77.9184 359.427 79.2798 Q358.022 80.5973 356.221 80.5973 Q354.157 80.5973 352.795 79.1481 Z" fill="#ffffff" fill-rule="nonzero" fill-opacity="1" /><path clip-path="url(#clip000)" d="M366.997 29.2583 L366.997 26.4476 Q377.801 26.4476 383.378 20.6944 Q384.916 20.6944 385.179 21.0458 Q385.443 21.3971 385.443 23.022 L385.443 73.4828 Q385.443 76.1617 386.76 76.9961 Q388.078 77.8306 393.831 77.8306 L396.685 77.8306 L396.685 80.5973 Q393.523 80.3338 382.105 80.3338 Q370.686 80.3338 367.568 80.5973 L367.568 77.8306 L370.423 77.8306 Q376.088 77.8306 377.45 77.0401 Q378.811 76.2056 378.811 73.4828 L378.811 26.8868 Q374.112 29.2583 366.997 29.2583 Z" fill="#ffffff" fill-rule="nonzero" fill-opacity="1" /><path clip-path="url(#clip000)" d="M500.526 21.8802 L498.725 37.4269 Q498.593 38.8322 498.374 39.2714 Q498.154 39.6666 497.452 39.6666 Q496.925 39.6666 496.617 39.3592 Q496.354 39.0079 496.354 38.6126 Q496.354 38.393 496.398 37.8221 Q496.441 37.2512 496.441 36.9877 Q496.837 34.2648 496.837 32.2007 Q496.837 28.3799 495.695 26.3158 Q494.553 24.2078 491.611 23.2416 Q488.668 22.2315 483.135 22.2315 L470.486 22.2315 Q467.588 22.2315 466.885 22.7585 Q466.227 23.2855 465.612 25.7449 L460.21 47.396 L468.686 47.396 Q471.848 47.396 473.736 47.0008 Q475.669 46.6055 476.942 45.5076 Q478.26 44.3657 478.962 42.8287 Q479.709 41.2916 480.456 38.5248 Q480.675 37.6025 480.895 37.2512 Q481.158 36.8998 481.729 36.8998 Q482.168 36.8998 482.476 37.2073 Q482.783 37.4708 482.783 37.866 L477.645 58.9023 Q477.381 59.9563 477.118 60.3516 Q476.854 60.7029 476.327 60.7029 Q475.757 60.7029 475.449 60.3955 Q475.142 60.0881 475.142 59.7367 Q475.142 59.3854 475.405 58.7266 Q476.064 55.872 476.064 54.3349 Q476.064 53.4566 475.976 53.0174 Q475.932 52.5782 475.537 51.9634 Q475.186 51.3046 474.395 50.9972 Q473.605 50.6898 472.111 50.4702 Q470.618 50.2067 468.378 50.2067 L459.507 50.2067 L453.359 74.7564 Q452.92 76.3813 452.92 76.8205 Q452.92 77.3036 453.139 77.4792 Q453.403 77.611 454.105 77.6988 Q454.896 77.8306 456.082 77.8306 L469.213 77.8306 Q472.111 77.8306 474.439 77.5671 Q476.767 77.3036 478.699 76.6448 Q480.675 75.986 482.168 75.2395 Q483.662 74.4929 485.067 73.1314 Q486.472 71.7261 487.438 70.4964 Q488.449 69.2228 489.634 67.0709 Q490.82 64.9189 491.655 63.1623 Q492.489 61.3617 493.763 58.4631 Q494.114 57.4091 494.948 57.4091 Q495.431 57.4091 495.695 57.6726 Q495.958 57.8922 496.002 58.1118 L496.002 58.3753 Q495.739 59.2097 495.563 59.6489 L487.307 79.0602 Q486.824 80.1582 486.428 80.3778 Q486.033 80.5973 484.496 80.5973 L437.812 80.5973 Q436.758 80.5973 436.319 80.5534 Q435.924 80.5095 435.616 80.2899 Q435.309 80.0264 435.309 79.4994 Q435.309 78.665 435.66 78.3137 Q436.012 77.9184 436.407 77.8745 Q436.802 77.8306 437.812 77.8306 Q440.008 77.8306 441.326 77.6988 Q442.643 77.5671 443.477 77.3914 Q444.356 77.1718 444.795 76.557 Q445.278 75.9421 445.498 75.4151 Q445.717 74.8442 446.025 73.5706 L457.882 26.0084 Q458.321 24.3835 458.321 23.8565 Q458.321 23.2855 457.926 22.9342 Q457.575 22.5829 456.609 22.4511 Q455.642 22.2755 454.852 22.2755 Q454.105 22.2315 452.48 22.2315 Q451.426 22.2315 450.987 22.1876 Q450.592 22.1437 450.285 21.9241 Q449.977 21.7045 449.977 21.2214 Q449.977 19.9918 450.504 19.7283 Q451.075 19.4208 452.656 19.4208 L498.066 19.4208 Q499.867 19.4208 500.262 19.8161 Q500.701 20.1674 500.526 21.8802 Z" fill="#ffffff" fill-rule="nonzero" fill-opacity="1" /><path clip-path="url(#clip000)" d="M540.903 46.6934 Q540.903 49.021 539.366 50.5141 Q537.872 52.0073 535.94 52.0073 Q534.271 52.0073 533.393 51.0411 Q532.515 50.075 532.515 48.8453 Q532.515 47.0886 533.876 45.6393 Q535.237 44.1901 537.214 43.8827 Q535.764 42.8287 533.437 42.8287 Q529.616 42.8287 526.234 45.7711 Q524.741 47.1325 523.116 49.6358 Q521.491 52.0952 521.184 53.1492 L518.329 64.875 Q518.066 66.1925 516.441 72.5166 Q514.86 78.7967 514.728 79.0602 Q514.289 80.2899 513.323 80.9487 Q512.357 81.6074 511.39 81.6074 Q510.292 81.6074 509.546 80.9487 Q508.799 80.2899 508.799 79.1481 Q508.799 78.9724 508.931 78.3137 Q509.063 77.6549 509.282 76.7326 Q509.502 75.8104 509.59 75.2834 L514.816 54.5106 Q515.782 50.7337 516.002 49.548 Q516.265 48.3183 516.265 46.9569 Q516.265 44.5853 515.519 43.707 Q514.772 42.8287 513.455 42.8287 Q511.171 42.8287 509.678 45.5515 Q508.184 48.2744 506.911 53.5444 Q506.516 54.9937 506.252 55.3011 Q506.033 55.6085 505.374 55.6085 Q504.276 55.5646 504.276 54.6863 Q504.276 54.4667 504.627 53.0613 Q504.979 51.6121 505.637 49.504 Q506.34 47.3521 507.087 45.9907 Q507.526 45.0684 507.921 44.4536 Q508.316 43.8387 509.107 42.8726 Q509.897 41.9064 511.083 41.3794 Q512.269 40.8524 513.718 40.8524 Q516.88 40.8524 519.12 42.7847 Q521.404 44.7171 521.931 47.7474 Q523.028 46.1664 524.39 44.8049 Q525.751 43.3996 528.255 42.126 Q530.758 40.8524 533.437 40.8524 Q536.774 40.8524 538.839 42.5651 Q540.903 44.234 540.903 46.6934 Z" fill="#ffffff" fill-rule="nonzero" fill-opacity="1" /><path clip-path="url(#clip000)" d="M590.8 19.1573 L577.844 71.1552 Q577.317 73.4828 577.317 75.459 Q577.317 79.5873 579.996 79.5873 Q581.313 79.5873 582.367 78.7528 Q583.422 77.9184 584.256 76.1617 Q585.09 74.405 585.617 72.7801 Q586.144 71.1113 586.847 68.4762 Q587.067 67.4222 587.242 67.1587 Q587.462 66.8513 588.077 66.8513 Q589.175 66.8513 589.175 67.7296 Q587.989 73.3949 586.452 76.6448 Q583.992 81.6074 579.82 81.6074 Q576.658 81.6074 574.418 79.6751 Q572.179 77.7427 571.652 74.8442 Q565.899 81.6074 559.926 81.6074 Q554.656 81.6074 551.318 77.611 Q547.98 73.5706 547.98 67.2026 Q547.98 60.7907 551.142 54.6423 Q554.348 48.494 559.399 44.6732 Q564.449 40.8524 569.632 40.8524 Q575.121 40.8524 577.932 46.6055 L583.334 25.2618 L583.597 23.5051 Q583.597 22.9781 583.378 22.7146 Q583.202 22.4072 582.148 22.1876 Q581.138 21.968 579.118 21.968 Q578.283 21.968 577.888 21.9241 Q577.537 21.8802 577.229 21.6606 Q576.922 21.3971 576.922 20.8701 Q576.922 19.333 578.195 19.1573 Q586.627 18.1912 589.614 18.1912 Q590.141 18.1912 590.448 18.4547 Q590.756 18.6743 590.756 18.9378 L590.8 19.1573 M576.834 50.7337 Q576.834 50.3385 576.527 49.2405 Q576.219 48.1426 575.516 46.6055 Q574.814 45.0684 573.277 43.9705 Q571.783 42.8287 569.763 42.8287 Q567.04 42.8287 564.186 45.1563 Q561.375 47.4839 559.311 51.4364 Q557.73 54.5984 556.017 61.2299 Q554.348 67.8614 554.348 71.1552 Q554.348 73.1754 554.788 74.976 Q555.271 76.7326 556.632 78.1819 Q557.994 79.5873 560.102 79.5873 Q565.24 79.5873 570.29 73.2193 Q571.256 72.1213 571.476 71.6822 Q571.74 71.1991 572.091 69.8816 L576.57 52.2708 Q576.834 50.9533 576.834 50.7337 Z" fill="#ffffff" fill-rule="nonzero" fill-opacity="1" /><path clip-path="url(#clip000)" d="M600.192 75.7665 Q594.263 69.8816 594.263 61.3617 Q594.263 52.7978 600.06 46.5616 Q605.901 40.2815 614.246 40.2815 Q622.414 40.2815 628.255 46.5177 Q634.14 52.71 634.14 61.3617 Q634.14 69.8377 628.211 75.7225 Q622.326 81.6074 614.158 81.6074 Q606.165 81.6074 600.192 75.7665 M601.729 60.6151 Q601.729 69.3546 604.013 73.3071 Q607.526 79.3237 614.246 79.3237 Q617.583 79.3237 620.35 77.5231 Q623.161 75.7225 624.698 72.6923 Q626.674 68.7397 626.674 60.6151 Q626.674 51.9634 624.303 48.1426 Q620.789 42.3016 614.158 42.3016 Q611.259 42.3016 608.405 43.8387 Q605.594 45.3319 603.881 48.3183 Q601.729 52.2708 601.729 60.6151 M603.442 34.7479 Q605.857 32.4203 609.371 28.9509 Q613.675 24.647 614.817 23.7686 Q615.958 22.8464 616.925 22.8464 Q618.286 22.8464 619.164 23.9443 Q620.087 24.9983 620.087 26.1841 Q620.087 26.7111 619.911 27.1503 Q619.735 27.5455 619.516 27.8529 Q619.296 28.1603 618.857 28.4678 Q618.462 28.7752 618.242 28.9069 Q618.022 29.0387 617.539 29.3461 Q617.056 29.6096 616.925 29.6974 Q605.155 36.3728 604.803 36.5046 L603.442 34.7479 M618.462 34.7479 Q620.877 32.4203 624.39 28.9509 Q628.694 24.647 629.836 23.7686 Q630.978 22.8464 631.944 22.8464 Q633.306 22.8464 634.184 23.9443 Q635.106 24.9983 635.106 26.1841 Q635.106 26.7111 634.931 27.1503 Q634.755 27.5455 634.535 27.8529 Q634.316 28.1603 633.877 28.4678 Q633.481 28.7752 633.262 28.9069 Q633.042 29.0387 632.559 29.3461 Q632.076 29.6096 631.944 29.6974 Q620.174 36.3728 619.823 36.5046 L618.462 34.7479 Z" fill="#ffffff" fill-rule="nonzero" fill-opacity="1" /><path clip-path="url(#clip000)" d="M671.92 48.5818 Q671.92 51.0411 670.69 52.3587 Q669.46 53.6323 667.792 53.6323 Q666.43 53.6323 665.684 52.8417 Q664.981 52.0512 664.981 50.9972 Q664.981 49.4601 666.211 48.2305 Q667.484 47.0008 669.329 46.9569 Q668.714 45.3319 667.089 44.3657 Q665.464 43.3557 664.015 43.0922 Q662.609 42.8287 661.204 42.8287 Q658.437 42.8287 656.329 43.707 Q654.221 44.5853 653.167 45.9468 Q652.113 47.2643 651.63 48.5379 Q651.147 49.8115 651.147 50.9094 Q651.147 51.8756 651.367 52.6661 Q651.63 53.4127 652.245 53.9836 Q652.86 54.5106 653.299 54.8619 Q653.782 55.2133 654.836 55.5207 Q655.89 55.8281 656.329 55.9599 Q656.768 56.0477 657.998 56.3112 Q660.545 56.8382 661.687 57.1456 Q662.829 57.4091 664.322 58.1557 Q665.859 58.9023 667.001 60.0881 Q669.768 62.8548 669.768 66.6756 Q669.768 68.081 669.285 69.7937 Q668.846 71.5065 667.572 73.6584 Q666.298 75.8104 664.366 77.5231 Q662.434 79.2359 659.096 80.4217 Q655.802 81.6074 651.674 81.6074 Q645.921 81.6074 642.364 79.192 Q638.806 76.7326 638.806 72.8679 Q638.806 70.0572 640.343 68.5201 Q641.881 66.9391 643.857 66.9391 Q645.35 66.9391 646.272 67.7736 Q647.194 68.5641 647.194 70.0572 Q647.194 72.0774 645.57 73.6145 Q643.945 75.1516 641.529 74.8442 Q643.593 79.5873 651.762 79.5873 Q654.836 79.5873 657.208 78.7967 Q659.623 77.9623 660.941 76.8205 Q662.302 75.6347 663.18 74.1854 Q664.059 72.7362 664.322 71.6383 Q664.63 70.5403 664.63 69.7059 Q664.63 68.2566 664.059 67.1587 Q663.488 66.0608 662.697 65.4459 Q661.951 64.7872 660.501 64.2602 Q659.096 63.6893 658.086 63.4697 Q657.076 63.2501 655.275 62.8988 Q654.441 62.7231 653.914 62.6353 Q653.387 62.5035 652.289 62.1522 Q651.235 61.7569 650.488 61.3617 Q649.786 60.9664 648.863 60.2637 Q647.941 59.5611 647.37 58.7266 Q646.799 57.8922 646.404 56.6625 Q646.009 55.4329 646.009 53.9836 Q646.009 52.6661 646.404 51.0851 Q646.843 49.504 647.941 47.6595 Q649.083 45.815 650.708 44.3218 Q652.333 42.8287 655.056 41.8625 Q657.822 40.8524 661.204 40.8524 Q666.123 40.8524 669.021 43.1361 Q671.92 45.3758 671.92 48.5818 Z" fill="#ffffff" fill-rule="nonzero" fill-opacity="1" /><path clip-path="url(#clip000)" d="M680.565 57.6726 L680.565 55.6964 L725.449 55.6964 L725.449 57.6726 L680.565 57.6726 Z" fill="#ffffff" fill-rule="nonzero" fill-opacity="1" /><path clip-path="url(#clip000)" d="M779.522 30.8393 Q779.522 29.39 779.126 28.2043 Q778.775 26.9746 778.204 26.1402 Q777.677 25.2618 776.667 24.6031 Q775.657 23.9004 774.822 23.4612 Q773.988 23.022 772.583 22.7585 Q771.177 22.4511 770.255 22.3194 Q769.333 22.1437 767.752 22.0559 Q766.171 21.968 765.38 21.968 Q764.634 21.968 763.141 21.968 Q758.441 21.968 757.651 22.0559 Q756.465 22.2315 756.026 22.9342 Q755.587 23.593 755.148 25.3936 L749.307 48.8453 L759.364 48.8453 Q764.853 48.8453 768.63 47.3082 Q772.407 45.7711 774.559 43.6192 Q776.93 41.2476 778.204 37.4269 Q779.522 33.6061 779.522 30.8393 M789.315 72.2531 Q789.315 72.7362 788.92 73.8341 Q788.569 74.932 787.69 76.4691 Q786.812 77.9623 785.626 79.3237 Q784.44 80.6852 782.552 81.6074 Q780.663 82.5736 778.511 82.5736 Q777.984 82.5736 777.457 82.5297 Q776.93 82.5297 775.613 82.3101 Q774.339 82.1344 773.285 81.7831 Q772.231 81.4757 770.914 80.7291 Q769.596 80.0264 768.674 79.0602 Q767.796 78.0502 767.181 76.4691 Q766.566 74.8442 766.566 72.8679 Q766.566 71.1113 768.015 65.2264 Q769.289 60.2198 769.289 58.9901 Q769.289 57.6287 768.85 56.3551 Q768.454 55.0815 767.444 53.764 Q766.478 52.4465 764.414 51.656 Q762.35 50.8216 759.451 50.8216 L748.78 50.8216 L742.807 74.6685 Q742.807 74.7125 742.675 75.3273 Q742.543 75.8982 742.543 76.2056 Q742.543 76.7766 742.895 77.1279 Q743.29 77.4792 744.256 77.6549 Q745.222 77.7867 745.969 77.8306 Q746.759 77.8306 748.384 77.8306 Q750.405 77.8306 750.756 78.1819 Q750.932 78.4015 750.932 78.7967 Q750.932 79.4116 750.756 79.8508 Q750.624 80.246 750.273 80.3778 Q749.965 80.5095 749.746 80.5534 Q749.526 80.5973 749.131 80.5973 L737.713 80.3338 L726.382 80.5973 Q725.108 80.5973 725.108 79.5873 Q725.108 78.7089 725.416 78.3576 Q725.723 77.9623 726.118 77.9184 Q726.514 77.8306 727.524 77.8306 Q729.72 77.8306 731.037 77.6988 Q732.355 77.5671 733.189 77.3914 Q734.067 77.1718 734.507 76.557 Q734.99 75.9421 735.209 75.4151 Q735.429 74.8442 735.736 73.5706 L747.77 25.2618 Q748.121 23.8126 748.121 23.593 Q748.121 22.7585 747.594 22.539 Q747.111 22.2755 745.705 22.1437 L742.28 21.968 Q741.226 21.968 740.787 21.9241 Q740.391 21.8802 740.084 21.6606 Q739.777 21.441 739.777 20.9579 Q739.777 19.7283 740.304 19.4648 Q740.831 19.1573 742.368 19.1573 L768.015 19.1573 Q776.755 19.1573 782.288 22.9781 Q787.866 26.7989 787.866 32.6399 Q787.866 35.2749 786.68 37.7343 Q785.494 40.1936 783.518 42.126 Q781.586 44.0583 778.995 45.6833 Q776.403 47.2643 773.637 48.3622 Q770.914 49.4162 768.103 50.0311 Q769.333 50.4702 770.475 51.129 Q771.66 51.7877 773.154 53.0174 Q774.691 54.2471 775.613 56.2234 Q776.535 58.1996 776.535 60.6151 Q776.535 62.3278 776.184 64.875 Q775.306 72.1213 775.306 75.1077 Q775.306 77.9623 776.052 79.2798 Q776.799 80.5973 778.907 80.5973 Q780.971 80.5973 783.255 78.7528 Q785.582 76.8644 787.075 72.4288 Q787.427 71.1552 788.261 71.1552 Q788.305 71.1552 788.349 71.1552 Q788.437 71.1552 788.612 71.243 Q788.788 71.2869 788.92 71.4187 Q789.096 71.5065 789.183 71.7261 Q789.315 71.9457 789.315 72.2531 Z" fill="#ffffff" fill-rule="nonzero" fill-opacity="1" /><path clip-path="url(#clip000)" d="M791.581 60.7907 Q791.581 52.3147 797.026 46.2981 Q802.472 40.2815 810.289 40.2815 Q818.195 40.2815 822.279 45.4198 Q826.407 50.5581 826.407 57.9361 Q826.407 59.2976 826.056 59.5611 Q825.704 59.8246 824.167 59.8246 L799.047 59.8246 Q799.047 69.0032 801.77 73.3071 Q805.546 79.3237 811.914 79.3237 Q812.793 79.3237 813.847 79.1481 Q814.901 78.9724 817.053 78.2258 Q819.205 77.4353 821.093 75.3712 Q822.981 73.3071 824.079 70.0572 Q824.343 68.7836 825.221 68.8276 Q826.407 68.8276 826.407 69.8816 Q826.407 70.6721 825.529 72.4727 Q824.694 74.2294 823.069 76.3374 Q821.444 78.4454 818.282 80.0264 Q815.164 81.6074 811.387 81.6074 Q803.482 81.6074 797.51 75.6347 Q791.581 69.6181 791.581 60.7907 M799.134 57.9361 L820.478 57.9361 Q820.478 56.0477 820.127 53.9397 Q819.819 51.8317 818.853 48.9331 Q817.931 45.9907 815.735 44.1462 Q813.539 42.3016 810.289 42.3016 Q808.84 42.3016 807.259 42.9165 Q805.722 43.5313 803.834 45.0245 Q801.945 46.5177 800.628 49.8993 Q799.31 53.2809 799.134 57.9361 M800.759 34.7479 Q803.175 32.4203 806.688 28.9509 Q810.992 24.647 812.134 23.7686 Q813.276 22.8464 814.242 22.8464 Q815.603 22.8464 816.482 23.9443 Q817.404 24.9983 817.404 26.1841 Q817.404 26.7111 817.228 27.1503 Q817.053 27.5455 816.833 27.8529 Q816.613 28.1603 816.174 28.4678 Q815.779 28.7752 815.559 28.9069 Q815.34 29.0387 814.857 29.3461 Q814.374 29.6096 814.242 29.6974 Q802.472 36.3728 802.121 36.5046 L800.759 34.7479 Z" fill="#ffffff" fill-rule="nonzero" fill-opacity="1" /><path clip-path="url(#clip000)" d="M879.869 67.7296 Q879.869 68.081 879.474 69.4424 Q879.079 70.8038 878.113 72.9119 Q877.19 75.0199 875.917 76.9522 Q874.643 78.8407 872.535 80.246 Q870.471 81.6074 868.1 81.6074 Q864.937 81.6074 862.829 79.4994 Q860.721 77.3914 860.721 74.2294 Q860.721 72.4727 861.644 70.0572 Q867.485 54.4667 867.485 49.1088 Q867.485 42.8287 862.61 42.8287 Q860.194 42.8287 857.911 43.7509 Q855.671 44.6293 854.134 45.8589 Q852.597 47.0886 851.191 48.8014 Q849.83 50.4702 849.127 51.6121 Q848.469 52.71 847.942 53.8079 L846.8 58.2875 Q846.536 59.5171 845.263 64.3041 L843.286 72.4288 Q841.881 78.4893 841.574 79.0602 Q841.134 80.2899 840.168 80.9487 Q839.202 81.6074 838.236 81.6074 Q837.138 81.6074 836.391 80.9487 Q835.645 80.2899 835.645 79.1481 Q835.645 78.9724 835.777 78.3137 Q835.908 77.6549 836.128 76.7326 Q836.347 75.8104 836.435 75.2834 L841.661 54.5106 Q842.628 50.7337 842.847 49.548 Q843.111 48.3183 843.111 46.9569 Q843.111 42.8287 840.3 42.8287 Q838.016 42.8287 836.523 45.5515 Q835.03 48.2744 833.756 53.5444 Q833.361 54.9937 833.098 55.3011 Q832.878 55.6085 832.219 55.6085 Q831.121 55.5646 831.121 54.6863 Q831.121 54.4667 831.473 53.0174 Q831.824 51.5682 832.483 49.504 Q833.185 47.396 833.844 45.9907 Q834.415 44.9367 834.723 44.4536 Q835.074 43.9266 835.908 42.9165 Q836.787 41.8625 837.928 41.3794 Q839.114 40.8524 840.563 40.8524 Q843.813 40.8524 846.185 42.9604 Q848.556 45.0245 848.864 48.6696 Q854.705 40.8524 862.873 40.8524 Q867.704 40.8524 870.471 43.3996 Q873.238 45.9468 873.238 50.4702 Q873.238 51.5242 873.018 52.8857 Q872.843 54.2032 872.403 55.872 Q872.008 57.5409 871.657 58.8145 Q871.305 60.0881 870.603 62.1522 Q869.9 64.1724 869.593 65.0507 Q869.285 65.929 868.539 67.9931 Q867.836 70.0133 867.748 70.2329 Q866.123 74.3172 866.123 76.6448 Q866.123 78.1819 866.606 78.8846 Q867.133 79.5873 868.275 79.5873 Q871.349 79.5873 873.633 76.557 Q875.961 73.4828 877.454 68.4762 Q877.805 67.3783 877.981 67.1148 Q878.2 66.8513 878.815 66.8513 Q879.869 66.8513 879.869 67.7296 Z" fill="#ffffff" fill-rule="nonzero" fill-opacity="1" /><path clip-path="url(#clip000)" d="M924.322 44.2779 Q924.322 44.8928 923.927 46.342 L915.319 80.6852 Q913.431 88.3268 907.282 93.6846 Q901.178 99.0425 894.239 99.0425 Q890.067 99.0425 887.388 96.8027 Q884.709 94.6069 884.709 91.2253 Q884.709 88.2389 886.29 86.7897 Q887.871 85.3843 889.759 85.3843 Q890.374 85.3843 891.033 85.56 Q891.692 85.7356 892.395 86.4822 Q893.097 87.2288 893.097 88.5024 Q893.097 90.5665 891.297 92.1915 Q890.418 92.938 889.584 93.1137 Q888.793 93.2894 887.432 93.2894 Q887.959 94.5191 888.925 95.3535 Q889.891 96.1879 890.989 96.4953 Q892.087 96.8467 892.79 96.9345 Q893.536 97.0663 894.239 97.0663 Q899.86 97.0663 904.164 91.4009 Q905.438 89.6882 906.36 87.9754 Q907.326 86.3066 908.029 84.2425 Q908.732 82.2223 909.039 81.1243 Q909.39 80.0264 910.005 77.5231 Q905.921 81.6074 900.914 81.6074 Q898.806 81.6074 896.918 81.0365 Q895.073 80.4656 893.449 79.2798 Q891.824 78.0502 890.857 75.8982 Q889.935 73.7463 889.935 70.8917 Q889.935 67.8614 891.121 63.7332 Q892.307 59.605 895.161 52.0073 Q896.698 47.7474 896.698 45.6833 Q896.698 44.6732 896.479 44.0583 Q896.259 43.3996 895.82 43.18 Q895.381 42.9165 895.117 42.8726 Q894.898 42.8287 894.459 42.8287 Q891.868 42.8287 889.452 45.4637 Q887.037 48.0987 885.368 53.9836 Q885.016 55.0815 884.797 55.345 Q884.577 55.6085 883.919 55.6085 Q882.821 55.5646 882.821 54.6863 Q882.821 54.3349 883.216 52.9735 Q883.611 51.5682 884.533 49.504 Q885.5 47.396 886.817 45.5076 Q888.135 43.5752 890.199 42.2138 Q892.307 40.8524 894.722 40.8524 Q898.016 40.8524 900.036 43.0043 Q902.1 45.1123 902.1 48.2305 Q902.1 49.504 901.749 50.6459 Q901.441 51.7438 900.3 54.6863 Q895.688 66.5439 895.688 72.3409 Q895.688 73.7463 895.908 74.932 Q896.171 76.0739 896.742 77.2157 Q897.313 78.3137 898.455 78.9724 Q899.641 79.5873 901.266 79.5873 Q903.33 79.5873 905.262 78.6211 Q907.238 77.611 908.468 76.2496 Q909.742 74.8881 910.488 73.7463 Q911.279 72.5605 911.455 71.9457 L915.495 55.7842 L917.295 48.5818 Q918.13 44.6732 918.525 43.707 Q919.052 42.7847 919.974 42.3016 Q920.897 41.8186 921.687 41.8186 Q922.785 41.8186 923.532 42.4773 Q924.322 43.1361 924.322 44.2779 Z" fill="#ffffff" fill-rule="nonzero" fill-opacity="1" /><path clip-path="url(#clip000)" d="M952.299 24.3835 Q952.299 26.3158 950.718 27.7651 Q949.181 29.1704 947.512 29.1704 Q945.975 29.1704 945.008 28.2482 Q944.086 27.282 944.086 25.9206 Q944.086 24.12 945.623 22.6268 Q947.16 21.1336 948.961 21.1336 Q950.454 21.1336 951.376 22.0559 Q952.299 22.9781 952.299 24.3835 M953.089 67.7296 Q953.089 68.081 952.694 69.4863 Q952.299 70.8478 951.333 72.9558 Q950.41 75.0199 949.137 76.9522 Q947.863 78.8846 945.755 80.246 Q943.691 81.6074 941.319 81.6074 Q938.113 81.6074 936.005 79.4994 Q933.941 77.3914 933.941 74.2294 Q933.941 72.5166 936.005 67.027 Q941.978 51.0411 942.198 50.3824 Q943.208 47.8791 943.208 45.6833 Q943.208 44.6732 942.988 44.0583 Q942.769 43.3996 942.33 43.18 Q941.89 42.9165 941.627 42.8726 Q941.407 42.8287 940.968 42.8287 Q938.377 42.8287 935.962 45.4637 Q933.546 48.0987 931.877 53.9836 Q931.526 55.0815 931.306 55.345 Q931.087 55.6085 930.428 55.6085 Q929.33 55.5646 929.33 54.6863 Q929.33 54.4228 929.637 53.4127 Q929.945 52.3587 930.516 50.7776 Q931.087 49.1527 932.097 47.4839 Q933.107 45.7711 934.337 44.2779 Q935.61 42.7847 937.411 41.8186 Q939.211 40.8524 941.232 40.8524 Q944.525 40.8524 946.546 43.0043 Q948.61 45.1123 948.61 48.2305 Q948.61 49.9432 947.424 52.9735 Q945.975 56.926 945.448 58.1996 L941.934 67.6418 Q940.661 71.0673 940.265 72.1213 Q939.914 73.1314 939.607 74.3611 Q939.343 75.5469 939.343 76.6448 Q939.343 78.1819 939.826 78.8846 Q940.353 79.5873 941.495 79.5873 Q944.657 79.5873 946.985 76.4691 Q949.312 73.3071 950.674 68.4762 Q950.718 68.3445 950.762 68.1249 Q951.113 67.027 951.464 66.8952 Q951.64 66.8513 951.991 66.8513 Q953.089 66.8513 953.089 67.7296 Z" fill="#ffffff" fill-rule="nonzero" fill-opacity="1" /><path clip-path="url(#clip000)" d="M967.6 58.1118 Q967.6 42.9165 973.266 30.6636 Q975.681 25.5253 979.063 21.2214 Q982.444 16.9176 984.684 15.0291 Q986.924 13.1407 987.539 13.1407 Q988.417 13.1407 988.461 14.019 Q988.461 14.4582 987.275 15.5561 Q972.783 30.3123 972.826 58.1118 Q972.826 85.9991 986.924 100.184 Q988.461 101.721 988.461 102.205 Q988.461 103.083 987.539 103.083 Q986.924 103.083 984.772 101.282 Q982.62 99.4817 979.282 95.3535 Q975.945 91.2253 973.529 86.1748 Q967.6 73.9219 967.6 58.1118 Z" fill="#ffffff" fill-rule="nonzero" fill-opacity="1" /><path clip-path="url(#clip000)" d="M1043.69 67.7296 Q1043.69 68.081 1043.29 69.4424 Q1042.9 70.8038 1041.93 72.9119 Q1041.01 75.0199 1039.73 76.9522 Q1038.46 78.8407 1036.35 80.246 Q1034.29 81.6074 1031.92 81.6074 Q1028.75 81.6074 1026.65 79.4994 Q1024.54 77.3914 1024.54 74.2294 Q1024.54 72.4727 1025.46 70.0572 Q1031.3 54.4667 1031.3 49.1088 Q1031.3 42.8287 1026.43 42.8287 Q1024.01 42.8287 1021.73 43.7509 Q1019.49 44.6293 1017.95 45.8589 Q1016.41 47.0886 1015.01 48.8014 Q1013.65 50.4702 1012.94 51.6121 Q1012.29 52.71 1011.76 53.8079 L1010.62 58.2875 Q1010.35 59.5171 1009.08 64.3041 L1007.1 72.4288 Q1005.7 78.4893 1005.39 79.0602 Q1004.95 80.2899 1003.99 80.9487 Q1003.02 81.6074 1002.05 81.6074 Q1000.96 81.6074 1000.21 80.9487 Q999.462 80.2899 999.462 79.1481 Q999.462 78.9724 999.594 78.3137 Q999.726 77.6549 999.945 76.7326 Q1000.16 75.8104 1000.25 75.2834 L1005.48 54.5106 Q1006.44 50.7337 1006.66 49.548 Q1006.93 48.3183 1006.93 46.9569 Q1006.93 42.8287 1004.12 42.8287 Q1001.83 42.8287 1000.34 45.5515 Q998.847 48.2744 997.574 53.5444 Q997.178 54.9937 996.915 55.3011 Q996.695 55.6085 996.036 55.6085 Q994.939 55.5646 994.939 54.6863 Q994.939 54.4667 995.29 53.0174 Q995.641 51.5682 996.3 49.504 Q997.003 47.396 997.661 45.9907 Q998.232 44.9367 998.54 44.4536 Q998.891 43.9266 999.726 42.9165 Q1000.6 41.8625 1001.75 41.3794 Q1002.93 40.8524 1004.38 40.8524 Q1007.63 40.8524 1010 42.9604 Q1012.37 45.0245 1012.68 48.6696 Q1018.52 40.8524 1026.69 40.8524 Q1031.52 40.8524 1034.29 43.3996 Q1037.06 45.9468 1037.06 50.4702 Q1037.06 51.5242 1036.84 52.8857 Q1036.66 54.2032 1036.22 55.872 Q1035.83 57.5409 1035.47 58.8145 Q1035.12 60.0881 1034.42 62.1522 Q1033.72 64.1724 1033.41 65.0507 Q1033.1 65.929 1032.36 67.9931 Q1031.65 70.0133 1031.57 70.2329 Q1029.94 74.3172 1029.94 76.6448 Q1029.94 78.1819 1030.42 78.8846 Q1030.95 79.5873 1032.09 79.5873 Q1035.17 79.5873 1037.45 76.557 Q1039.78 73.4828 1041.27 68.4762 Q1041.62 67.3783 1041.8 67.1148 Q1042.02 66.8513 1042.63 66.8513 Q1043.69 66.8513 1043.69 67.7296 Z" fill="#ffffff" fill-rule="nonzero" fill-opacity="1" /><path clip-path="url(#clip000)" d="M1073.31 66.9391 Q1073.4 65.8412 1075.11 65.8412 L1130.23 65.8412 Q1132.82 65.8412 1132.86 66.8513 Q1132.86 67.9492 1130.4 67.9053 L1075.73 67.9053 Q1073.31 67.9492 1073.31 66.9391 M1073.31 49.3723 Q1073.31 48.2744 1075.2 48.3183 L1130.14 48.3183 Q1132.82 48.3183 1132.86 49.3723 Q1132.86 50.3824 1130.58 50.3824 L1075.11 50.3824 Q1073.31 50.3824 1073.31 49.3723 Z" fill="#ffffff" fill-rule="nonzero" fill-opacity="1" /><path clip-path="url(#clip000)" d="M1167.56 80.5973 Q1167.56 78.9724 1167.7 78.4893 Q1167.87 78.0062 1168.57 77.2596 L1185.83 58.024 Q1195.28 47.396 1195.28 38.1295 Q1195.28 32.1129 1192.11 27.809 Q1189 23.5051 1183.24 23.5051 Q1179.29 23.5051 1175.95 25.9206 Q1172.61 28.336 1171.08 32.6399 Q1171.34 32.5521 1172.26 32.5521 Q1174.5 32.5521 1175.73 33.9574 Q1177.01 35.3627 1177.01 37.2512 Q1177.01 39.6666 1175.42 40.8524 Q1173.89 41.9942 1172.35 41.9942 Q1171.74 41.9942 1170.9 41.8625 Q1170.11 41.7307 1168.84 40.501 Q1167.56 39.2275 1167.56 36.9877 Q1167.56 30.7075 1172.31 25.701 Q1177.09 20.6944 1184.38 20.6944 Q1192.64 20.6944 1198.04 25.6132 Q1203.49 30.488 1203.49 38.1295 Q1203.49 40.8085 1202.65 43.2678 Q1201.86 45.6833 1200.76 47.5717 Q1199.71 49.4601 1196.81 52.4904 Q1193.91 55.5207 1191.59 57.6726 Q1189.26 59.8246 1184.03 64.3919 L1174.5 73.6584 L1190.71 73.6584 Q1198.61 73.6584 1199.23 72.9558 Q1200.11 71.6822 1201.2 64.9629 L1203.49 64.9629 L1200.94 80.5973 L1167.56 80.5973 Z" fill="#ffffff" fill-rule="nonzero" fill-opacity="1" /><path clip-path="url(#clip000)" d="M1212.47 51.8317 Q1212.47 38.6126 1215.8 31.4102 Q1220.46 20.6944 1231.44 20.6944 Q1233.77 20.6944 1236.18 21.3532 Q1238.64 21.968 1241.72 24.3835 Q1244.83 26.7989 1246.72 30.7515 Q1250.32 38.393 1250.32 51.8317 Q1250.32 64.9629 1246.99 72.1213 Q1242.11 82.5736 1231.35 82.5736 Q1227.31 82.5736 1223.18 80.5095 Q1219.1 78.4454 1216.51 73.4828 Q1212.47 66.0608 1212.47 51.8317 M1219.93 50.7337 Q1219.93 64.3041 1220.9 69.7059 Q1222 75.5469 1224.98 78.0941 Q1228.01 80.5973 1231.35 80.5973 Q1234.95 80.5973 1237.94 77.9184 Q1240.97 75.1955 1241.89 69.3546 Q1242.9 63.6014 1242.86 50.7337 Q1242.86 38.2174 1241.98 33.2108 Q1240.79 27.3698 1237.63 25.0422 Q1234.51 22.6707 1231.35 22.6707 Q1230.17 22.6707 1228.89 23.022 Q1227.66 23.3734 1225.86 24.3835 Q1224.06 25.3936 1222.66 27.8968 Q1221.29 30.4001 1220.64 34.177 Q1219.93 39.0518 1219.93 50.7337 Z" fill="#ffffff" fill-rule="nonzero" fill-opacity="1" /><path clip-path="url(#clip000)" d="M1257.37 51.8317 Q1257.37 38.6126 1260.71 31.4102 Q1265.36 20.6944 1276.34 20.6944 Q1278.67 20.6944 1281.08 21.3532 Q1283.54 21.968 1286.62 24.3835 Q1289.74 26.7989 1291.62 30.7515 Q1295.23 38.393 1295.23 51.8317 Q1295.23 64.9629 1291.89 72.1213 Q1287.01 82.5736 1276.25 82.5736 Q1272.21 82.5736 1268.09 80.5095 Q1264 78.4454 1261.41 73.4828 Q1257.37 66.0608 1257.37 51.8317 M1264.84 50.7337 Q1264.84 64.3041 1265.8 69.7059 Q1266.9 75.5469 1269.89 78.0941 Q1272.92 80.5973 1276.25 80.5973 Q1279.86 80.5973 1282.84 77.9184 Q1285.87 75.1955 1286.79 69.3546 Q1287.8 63.6014 1287.76 50.7337 Q1287.76 38.2174 1286.88 33.2108 Q1285.7 27.3698 1282.53 25.0422 Q1279.42 22.6707 1276.25 22.6707 Q1275.07 22.6707 1273.79 23.022 Q1272.56 23.3734 1270.76 24.3835 Q1268.96 25.3936 1267.56 27.8968 Q1266.2 30.4001 1265.54 34.177 Q1264.84 39.0518 1264.84 50.7337 Z" fill="#ffffff" fill-rule="nonzero" fill-opacity="1" /><path clip-path="url(#clip000)" d="M1304.07 102.205 Q1304.07 101.765 1305.21 100.667 Q1319.71 85.9113 1319.71 58.1118 Q1319.71 30.2244 1305.79 16.1271 Q1304.07 14.5021 1304.07 14.019 Q1304.07 13.1407 1304.95 13.1407 Q1305.57 13.1407 1307.72 14.9413 Q1309.91 16.7419 1313.21 20.8701 Q1316.55 24.9983 1319 30.0488 Q1324.93 42.3016 1324.93 58.1118 Q1324.93 73.3071 1319.27 85.56 Q1316.85 90.6983 1313.47 95.0021 Q1310.09 99.306 1307.85 101.194 Q1305.61 103.083 1304.95 103.083 Q1304.07 103.083 1304.07 102.205 Z" fill="#ffffff" fill-rule="nonzero" fill-opacity="1" /><polyline clip-path="url(#clip002)" style="stroke:#fefecb; stroke-linecap:round; stroke-linejoin:round; stroke-width:28; stroke-opacity:1; fill:none" points="812.577,2406.34 892.77,2406.03 972.963,2406.34 1053.16,2406.34 1133.35,2405.74 1213.54,2404.81 1293.73,2405.8 1373.93,2406 1454.12,2403.66 1534.31,2401.49 1614.5,2399.62 1694.7,2394.21 1774.89,2397.54 1855.08,2385.12 1935.27,2380.19 2015.47,2366.16 2095.66,2356.08 2175.85,2307.97 2256.04,2303.04 2336.24,2238.8 2416.43,2210.65 2496.62,2115.1 2576.81,2059.83 2657.01,1993.79 2737.2,1954.85 2817.39,1865.03 2897.58,1758.27 2977.78,1679.02 3057.97,1577.53 3138.16,1546.13 3218.35,1458.71 3298.55,1356.48 3378.74,1301.28 3458.93,1245.01 "/>
<polyline clip-path="url(#clip002)" style="stroke:#faeb99; stroke-linecap:round; stroke-linejoin:round; stroke-width:28; stroke-opacity:1; fill:none" points="812.577,2406.25 892.77,2401.88 972.963,2398.21 1053.16,2397.15 1133.35,2383.95 1213.54,2374.03 1293.73,2333.51 1373.93,2277.97 1454.12,2228.21 1534.31,2114.53 1614.5,2004.44 1694.7,1919.44 1774.89,1831.24 1855.08,1694.94 1935.27,1594.26 2015.47,1481.01 2095.66,1390.06 2175.85,1288.93 2256.04,1237.4 2336.24,1139.87 2416.43,1078.7 2496.62,1016.83 2576.81,951.315 2657.01,914.72 2737.2,841.001 2817.39,796.471 2897.58,761.841 2977.78,715.869 3057.97,681.261 3138.16,631.15 3218.35,612.522 3298.55,573.784 3378.74,537.989 3458.93,506.173 "/>
<polyline clip-path="url(#clip002)" style="stroke:#f3cb67; stroke-linecap:round; stroke-linejoin:round; stroke-width:28; stroke-opacity:1; fill:none" points="572,2396.26 652.192,2393.93 732.385,2355.77 812.577,2267 892.77,2115.48 972.963,1988 1053.16,1829.4 1133.35,1680.24 1213.54,1549.9 1293.73,1430.96 1373.93,1343.79 1454.12,1264.53 1534.31,1194.57 1614.5,1129.95 1694.7,1083.84 1774.89,1021.55 1855.08,986.475 1935.27,948.886 2015.47,909.832 2095.66,878.941 2175.85,841.966 2256.04,811.137 2336.24,790.427 2416.43,762.994 2496.62,737.97 2576.81,730.313 2657.01,701.139 2737.2,685.512 2817.39,668.506 2897.58,657.878 2977.78,639.081 3057.97,624.359 3138.16,614.696 3218.35,599.468 3298.55,590.476 3378.74,579.605 3458.93,571.917 "/>
<polyline clip-path="url(#clip002)" style="stroke:#eba754; stroke-linecap:round; stroke-linejoin:round; stroke-width:28; stroke-opacity:1; fill:none" points="491.807,2395.54 572,2325.33 652.192,2143.39 732.385,1964.77 812.577,1814.14 892.77,1659.97 972.963,1551.92 1053.16,1474.81 1133.35,1403.04 1213.54,1351.8 1293.73,1304.32 1373.93,1252.53 1454.12,1222.47 1534.31,1202.07 1614.5,1163.13 1694.7,1142.15 1774.89,1117.35 1855.08,1112.47 1935.27,1094.33 2015.47,1066.95 2095.66,1055.38 2175.85,1044.88 2256.04,1034.07 2336.24,1018.45 2416.43,1010.89 2496.62,1007.12 2576.81,993.286 2657.01,974.391 2737.2,970.506 2817.39,960.628 2897.58,959.996 2977.78,944.145 3057.97,944.576 3138.16,935.214 3218.35,927.332 3298.55,924.348 3378.74,914.614 3458.93,911.48 "/>
<polyline clip-path="url(#clip002)" style="stroke:#e38650; stroke-linecap:round; stroke-linejoin:round; stroke-width:28; stroke-opacity:1; fill:none" points="411.615,2392.53 491.807,2261.92 572,2067.23 652.192,1906.3 732.385,1788.25 812.577,1732.19 892.77,1673.39 972.963,1633.72 1053.16,1598.18 1133.35,1576.24 1213.54,1559.57 1293.73,1535.42 1373.93,1511.21 1454.12,1508.19 1534.31,1499.02 1614.5,1481.07 1694.7,1479.85 1774.89,1479.07 1855.08,1469.97 1935.27,1470.48 2015.47,1465.64 2095.66,1457.58 2175.85,1461.47 2256.04,1454.23 2336.24,1454.46 2416.43,1437.3 2496.62,1443.42 2576.81,1439.47 2657.01,1440.38 2737.2,1434.1 2817.39,1434.77 2897.58,1434.94 2977.78,1436.32 3057.97,1432.18 3138.16,1431.16 3218.35,1434.74 3298.55,1426.77 3378.74,1432.46 3458.93,1427.44 "/>
<polyline clip-path="url(#clip002)" style="stroke:#d1614c; stroke-linecap:round; stroke-linejoin:round; stroke-width:28; stroke-opacity:1; fill:none" points="411.615,2359.48 491.807,2164.45 572,2036.97 652.192,1954.65 732.385,1895.48 812.577,1868.08 892.77,1846.49 972.963,1832.97 1053.16,1809.42 1133.35,1818.34 1213.54,1797.76 1293.73,1793.23 1373.93,1786.94 1454.12,1783.6 1534.31,1782.55 1614.5,1783.02 1694.7,1776.29 1774.89,1772.09 1855.08,1775.63 1935.27,1776.24 2015.47,1765.78 2095.66,1771 2175.85,1777.55 2256.04,1771.04 2336.24,1770.41 2416.43,1765.24 2496.62,1759.55 2576.81,1765.6 2657.01,1760.91 2737.2,1762.82 2817.39,1762.47 2897.58,1759.31 2977.78,1762.75 3057.97,1761.55 3138.16,1755.66 3218.35,1760.68 3298.55,1758.41 3378.74,1761.98 3458.93,1760.1 "/>
<path clip-path="url(#clip000)" d="M348.102 798.644 L959.315 798.644 L959.315 208.964 L348.102 208.964  Z" fill="#7f7f7f" fill-rule="evenodd" fill-opacity="1"/>
<polyline clip-path="url(#clip000)" style="stroke:#ffffff; stroke-linecap:round; stroke-linejoin:round; stroke-width:4; stroke-opacity:1; fill:none" points="348.102,798.644 959.315,798.644 959.315,208.964 348.102,208.964 348.102,798.644 "/>
<polyline clip-path="url(#clip000)" style="stroke:#fefecb; stroke-linecap:round; stroke-linejoin:round; stroke-width:32.5; stroke-opacity:1; fill:none" points="384.937,293.204 605.948,293.204 "/>
<path clip-path="url(#clip000)" d="M683.509 289.427 Q683.509 294.984 680.692 300.35 Q677.914 305.717 673.537 309.029 Q669.16 312.302 664.707 312.302 Q662.042 312.302 660.253 310.855 Q658.503 309.371 657.551 307.278 Q656.828 309.866 655.267 316.07 Q653.707 322.274 653.707 322.883 Q653.707 323.225 653.783 323.378 Q653.859 323.53 654.202 323.72 Q654.544 323.949 655.382 324.025 Q656.219 324.139 657.627 324.139 Q658.35 324.139 658.617 324.139 Q658.921 324.177 659.188 324.367 Q659.492 324.558 659.492 324.976 Q659.492 326.537 658.084 326.537 Q656.828 326.537 654.24 326.423 Q651.651 326.308 650.357 326.308 Q649.254 326.308 647.046 326.423 Q644.838 326.537 643.811 326.537 Q642.783 326.537 642.783 325.623 Q642.783 325.09 642.935 324.748 Q643.05 324.443 643.354 324.291 Q643.659 324.177 643.925 324.139 Q644.153 324.139 644.61 324.139 Q646.361 324.139 647.122 323.834 Q647.883 323.568 648.15 322.997 Q648.454 322.464 648.797 320.942 L657.551 286.23 Q658.084 283.908 658.084 282.271 Q658.084 280.216 657.437 279.455 Q656.79 278.694 655.648 278.694 Q653.669 278.694 652.375 281.053 Q651.081 283.413 649.977 287.981 Q649.634 289.237 649.406 289.503 Q649.216 289.769 648.645 289.769 Q647.693 289.731 647.693 288.97 Q647.693 288.78 647.998 287.562 Q648.302 286.306 648.873 284.479 Q649.482 282.614 650.129 281.434 Q650.51 280.635 650.852 280.102 Q651.195 279.569 651.88 278.732 Q652.603 277.894 653.631 277.437 Q654.658 276.981 655.914 276.981 Q658.35 276.981 660.368 278.427 Q662.385 279.873 662.918 282.804 Q665.087 280.254 667.751 278.617 Q670.416 276.981 673.118 276.981 Q677.609 276.981 680.54 280.482 Q683.509 283.946 683.509 289.427 M677.876 286.001 Q677.876 282.538 676.544 280.635 Q675.25 278.694 672.89 278.694 Q669.959 278.694 666.572 281.662 Q663.222 284.479 662.537 287.105 L658.693 302.368 L658.464 303.624 Q658.464 303.852 658.579 304.537 Q658.731 305.184 659.15 306.25 Q659.606 307.316 660.215 308.267 Q660.862 309.181 662.004 309.866 Q663.184 310.551 664.63 310.551 Q666.952 310.551 669.464 308.496 Q672.014 306.44 673.917 302.558 Q675.097 300.046 676.468 294.641 Q677.876 289.198 677.876 286.001 Z" fill="#ffffff" fill-rule="nonzero" fill-opacity="1" /><path clip-path="url(#clip000)" d="M703.237 299.589 Q703.313 298.638 704.797 298.638 L752.565 298.638 Q754.81 298.638 754.848 299.513 Q754.848 300.465 752.717 300.427 L705.33 300.427 Q703.237 300.465 703.237 299.589 M703.237 284.365 Q703.237 283.413 704.874 283.451 L752.489 283.451 Q754.81 283.451 754.848 284.365 Q754.848 285.24 752.869 285.24 L704.797 285.24 Q703.237 285.24 703.237 284.365 Z" fill="#ffffff" fill-rule="nonzero" fill-opacity="1" /><path clip-path="url(#clip000)" d="M784.914 286.496 Q784.914 275.04 787.807 268.798 Q791.841 259.511 801.357 259.511 Q803.374 259.511 805.467 260.081 Q807.599 260.614 810.263 262.708 Q812.965 264.801 814.602 268.227 Q817.723 274.849 817.723 286.496 Q817.723 297.876 814.83 304.081 Q810.606 313.139 801.281 313.139 Q797.779 313.139 794.201 311.35 Q790.661 309.561 788.416 305.26 Q784.914 298.828 784.914 286.496 M791.385 285.545 Q791.385 297.306 792.222 301.987 Q793.173 307.049 795.762 309.257 Q798.388 311.426 801.281 311.426 Q804.402 311.426 806.99 309.105 Q809.616 306.745 810.415 301.683 Q811.291 296.697 811.253 285.545 Q811.253 274.697 810.491 270.358 Q809.464 265.296 806.723 263.279 Q804.021 261.223 801.281 261.223 Q800.253 261.223 799.149 261.528 Q798.083 261.832 796.523 262.708 Q794.962 263.583 793.744 265.753 Q792.564 267.922 791.994 271.195 Q791.385 275.42 791.385 285.545 Z" fill="#ffffff" fill-rule="nonzero" fill-opacity="1" /><path clip-path="url(#clip000)" d="M824.696 310.17 Q823.516 308.914 823.516 307.278 Q823.516 305.641 824.696 304.461 Q825.875 303.243 827.664 303.243 Q829.377 303.243 830.519 304.385 Q831.699 305.489 831.699 307.316 Q831.699 309.105 830.443 310.285 Q829.225 311.426 827.664 311.426 Q825.875 311.426 824.696 310.17 Z" fill="#ffffff" fill-rule="nonzero" fill-opacity="1" /><path clip-path="url(#clip000)" d="M844.965 286.496 Q844.965 275.04 847.858 268.798 Q851.892 259.511 861.408 259.511 Q863.425 259.511 865.518 260.081 Q867.65 260.614 870.314 262.708 Q873.016 264.801 874.653 268.227 Q877.774 274.849 877.774 286.496 Q877.774 297.876 874.881 304.081 Q870.657 313.139 861.332 313.139 Q857.83 313.139 854.252 311.35 Q850.712 309.561 848.467 305.26 Q844.965 298.828 844.965 286.496 M851.436 285.545 Q851.436 297.306 852.273 301.987 Q853.224 307.049 855.813 309.257 Q858.439 311.426 861.332 311.426 Q864.453 311.426 867.041 309.105 Q869.667 306.745 870.466 301.683 Q871.342 296.697 871.304 285.545 Q871.304 274.697 870.542 270.358 Q869.515 265.296 866.774 263.279 Q864.072 261.223 861.332 261.223 Q860.304 261.223 859.2 261.528 Q858.134 261.832 856.574 262.708 Q855.013 263.583 853.795 265.753 Q852.616 267.922 852.045 271.195 Q851.436 275.42 851.436 285.545 Z" fill="#ffffff" fill-rule="nonzero" fill-opacity="1" /><path clip-path="url(#clip000)" d="M881.249 266.933 L881.249 264.497 Q890.612 264.497 895.446 259.511 Q896.778 259.511 897.007 259.815 Q897.235 260.12 897.235 261.528 L897.235 305.26 Q897.235 307.582 898.377 308.305 Q899.519 309.029 904.505 309.029 L906.979 309.029 L906.979 311.426 Q904.238 311.198 894.342 311.198 Q884.446 311.198 881.744 311.426 L881.744 309.029 L884.218 309.029 Q889.128 309.029 890.308 308.343 Q891.488 307.62 891.488 305.26 L891.488 264.877 Q887.415 266.933 881.249 266.933 Z" fill="#ffffff" fill-rule="nonzero" fill-opacity="1" /><polyline clip-path="url(#clip000)" style="stroke:#faeb99; stroke-linecap:round; stroke-linejoin:round; stroke-width:32.5; stroke-opacity:1; fill:none" points="384.937,377.444 605.948,377.444 "/>
<path clip-path="url(#clip000)" d="M683.509 373.667 Q683.509 379.224 680.692 384.59 Q677.914 389.957 673.537 393.269 Q669.16 396.542 664.707 396.542 Q662.042 396.542 660.253 395.095 Q658.503 393.611 657.551 391.518 Q656.828 394.106 655.267 400.31 Q653.707 406.514 653.707 407.123 Q653.707 407.465 653.783 407.618 Q653.859 407.77 654.202 407.96 Q654.544 408.189 655.382 408.265 Q656.219 408.379 657.627 408.379 Q658.35 408.379 658.617 408.379 Q658.921 408.417 659.188 408.607 Q659.492 408.798 659.492 409.216 Q659.492 410.777 658.084 410.777 Q656.828 410.777 654.24 410.663 Q651.651 410.548 650.357 410.548 Q649.254 410.548 647.046 410.663 Q644.838 410.777 643.811 410.777 Q642.783 410.777 642.783 409.863 Q642.783 409.33 642.935 408.988 Q643.05 408.683 643.354 408.531 Q643.659 408.417 643.925 408.379 Q644.153 408.379 644.61 408.379 Q646.361 408.379 647.122 408.074 Q647.883 407.808 648.15 407.237 Q648.454 406.704 648.797 405.182 L657.551 370.47 Q658.084 368.148 658.084 366.511 Q658.084 364.456 657.437 363.695 Q656.79 362.934 655.648 362.934 Q653.669 362.934 652.375 365.293 Q651.081 367.653 649.977 372.221 Q649.634 373.477 649.406 373.743 Q649.216 374.009 648.645 374.009 Q647.693 373.971 647.693 373.21 Q647.693 373.02 647.998 371.802 Q648.302 370.546 648.873 368.719 Q649.482 366.854 650.129 365.674 Q650.51 364.875 650.852 364.342 Q651.195 363.809 651.88 362.972 Q652.603 362.134 653.631 361.677 Q654.658 361.221 655.914 361.221 Q658.35 361.221 660.368 362.667 Q662.385 364.113 662.918 367.044 Q665.087 364.494 667.751 362.857 Q670.416 361.221 673.118 361.221 Q677.609 361.221 680.54 364.722 Q683.509 368.186 683.509 373.667 M677.876 370.241 Q677.876 366.778 676.544 364.875 Q675.25 362.934 672.89 362.934 Q669.959 362.934 666.572 365.902 Q663.222 368.719 662.537 371.345 L658.693 386.608 L658.464 387.864 Q658.464 388.092 658.579 388.777 Q658.731 389.424 659.15 390.49 Q659.606 391.556 660.215 392.507 Q660.862 393.421 662.004 394.106 Q663.184 394.791 664.63 394.791 Q666.952 394.791 669.464 392.736 Q672.014 390.68 673.917 386.798 Q675.097 384.286 676.468 378.881 Q677.876 373.438 677.876 370.241 Z" fill="#ffffff" fill-rule="nonzero" fill-opacity="1" /><path clip-path="url(#clip000)" d="M703.237 383.829 Q703.313 382.878 704.797 382.878 L752.565 382.878 Q754.81 382.878 754.848 383.753 Q754.848 384.705 752.717 384.667 L705.33 384.667 Q703.237 384.705 703.237 383.829 M703.237 368.605 Q703.237 367.653 704.874 367.691 L752.489 367.691 Q754.81 367.691 754.848 368.605 Q754.848 369.48 752.869 369.48 L704.797 369.48 Q703.237 369.48 703.237 368.605 Z" fill="#ffffff" fill-rule="nonzero" fill-opacity="1" /><path clip-path="url(#clip000)" d="M784.914 370.736 Q784.914 359.28 787.807 353.038 Q791.841 343.751 801.357 343.751 Q803.374 343.751 805.467 344.321 Q807.599 344.854 810.263 346.948 Q812.965 349.041 814.602 352.467 Q817.723 359.089 817.723 370.736 Q817.723 382.116 814.83 388.321 Q810.606 397.379 801.281 397.379 Q797.779 397.379 794.201 395.59 Q790.661 393.801 788.416 389.5 Q784.914 383.068 784.914 370.736 M791.385 369.785 Q791.385 381.546 792.222 386.227 Q793.173 391.289 795.762 393.497 Q798.388 395.666 801.281 395.666 Q804.402 395.666 806.99 393.345 Q809.616 390.985 810.415 385.923 Q811.291 380.937 811.253 369.785 Q811.253 358.937 810.491 354.598 Q809.464 349.536 806.723 347.519 Q804.021 345.463 801.281 345.463 Q800.253 345.463 799.149 345.768 Q798.083 346.072 796.523 346.948 Q794.962 347.823 793.744 349.993 Q792.564 352.162 791.994 355.435 Q791.385 359.66 791.385 369.785 Z" fill="#ffffff" fill-rule="nonzero" fill-opacity="1" /><path clip-path="url(#clip000)" d="M824.696 394.41 Q823.516 393.154 823.516 391.518 Q823.516 389.881 824.696 388.701 Q825.875 387.483 827.664 387.483 Q829.377 387.483 830.519 388.625 Q831.699 389.729 831.699 391.556 Q831.699 393.345 830.443 394.525 Q829.225 395.666 827.664 395.666 Q825.875 395.666 824.696 394.41 Z" fill="#ffffff" fill-rule="nonzero" fill-opacity="1" /><path clip-path="url(#clip000)" d="M844.965 370.736 Q844.965 359.28 847.858 353.038 Q851.892 343.751 861.408 343.751 Q863.425 343.751 865.518 344.321 Q867.65 344.854 870.314 346.948 Q873.016 349.041 874.653 352.467 Q877.774 359.089 877.774 370.736 Q877.774 382.116 874.881 388.321 Q870.657 397.379 861.332 397.379 Q857.83 397.379 854.252 395.59 Q850.712 393.801 848.467 389.5 Q844.965 383.068 844.965 370.736 M851.436 369.785 Q851.436 381.546 852.273 386.227 Q853.224 391.289 855.813 393.497 Q858.439 395.666 861.332 395.666 Q864.453 395.666 867.041 393.345 Q869.667 390.985 870.466 385.923 Q871.342 380.937 871.304 369.785 Q871.304 358.937 870.542 354.598 Q869.515 349.536 866.774 347.519 Q864.072 345.463 861.332 345.463 Q860.304 345.463 859.2 345.768 Q858.134 346.072 856.574 346.948 Q855.013 347.823 853.795 349.993 Q852.616 352.162 852.045 355.435 Q851.436 359.66 851.436 369.785 Z" fill="#ffffff" fill-rule="nonzero" fill-opacity="1" /><path clip-path="url(#clip000)" d="M883.879 395.666 Q883.879 394.258 883.993 393.839 Q884.145 393.421 884.754 392.774 L899.712 376.103 Q907.896 366.892 907.896 358.861 Q907.896 353.647 905.155 349.916 Q902.453 346.186 897.467 346.186 Q894.041 346.186 891.148 348.28 Q888.256 350.373 886.924 354.103 Q887.152 354.027 887.951 354.027 Q889.892 354.027 890.958 355.245 Q892.062 356.463 892.062 358.1 Q892.062 360.193 890.692 361.221 Q889.36 362.21 888.027 362.21 Q887.495 362.21 886.771 362.096 Q886.086 361.982 884.982 360.916 Q883.879 359.812 883.879 357.871 Q883.879 352.429 887.989 348.09 Q892.138 343.751 898.456 343.751 Q905.612 343.751 910.293 348.013 Q915.013 352.238 915.013 358.861 Q915.013 361.183 914.29 363.314 Q913.605 365.408 912.653 367.044 Q911.74 368.681 909.228 371.307 Q906.716 373.933 904.698 375.798 Q902.681 377.663 898.152 381.622 L889.892 389.653 L903.937 389.653 Q910.788 389.653 911.321 389.044 Q912.082 387.94 913.034 382.116 L915.013 382.116 L912.805 395.666 L883.879 395.666 Z" fill="#ffffff" fill-rule="nonzero" fill-opacity="1" /><polyline clip-path="url(#clip000)" style="stroke:#f3cb67; stroke-linecap:round; stroke-linejoin:round; stroke-width:32.5; stroke-opacity:1; fill:none" points="384.937,461.684 605.948,461.684 "/>
<path clip-path="url(#clip000)" d="M683.509 457.907 Q683.509 463.464 680.692 468.83 Q677.914 474.197 673.537 477.509 Q669.16 480.782 664.707 480.782 Q662.042 480.782 660.253 479.335 Q658.503 477.851 657.551 475.758 Q656.828 478.346 655.267 484.55 Q653.707 490.754 653.707 491.363 Q653.707 491.705 653.783 491.858 Q653.859 492.01 654.202 492.2 Q654.544 492.429 655.382 492.505 Q656.219 492.619 657.627 492.619 Q658.35 492.619 658.617 492.619 Q658.921 492.657 659.188 492.847 Q659.492 493.038 659.492 493.456 Q659.492 495.017 658.084 495.017 Q656.828 495.017 654.24 494.903 Q651.651 494.788 650.357 494.788 Q649.254 494.788 647.046 494.903 Q644.838 495.017 643.811 495.017 Q642.783 495.017 642.783 494.103 Q642.783 493.57 642.935 493.228 Q643.05 492.923 643.354 492.771 Q643.659 492.657 643.925 492.619 Q644.153 492.619 644.61 492.619 Q646.361 492.619 647.122 492.314 Q647.883 492.048 648.15 491.477 Q648.454 490.944 648.797 489.422 L657.551 454.71 Q658.084 452.388 658.084 450.751 Q658.084 448.696 657.437 447.935 Q656.79 447.174 655.648 447.174 Q653.669 447.174 652.375 449.533 Q651.081 451.893 649.977 456.461 Q649.634 457.717 649.406 457.983 Q649.216 458.249 648.645 458.249 Q647.693 458.211 647.693 457.45 Q647.693 457.26 647.998 456.042 Q648.302 454.786 648.873 452.959 Q649.482 451.094 650.129 449.914 Q650.51 449.115 650.852 448.582 Q651.195 448.049 651.88 447.212 Q652.603 446.374 653.631 445.917 Q654.658 445.461 655.914 445.461 Q658.35 445.461 660.368 446.907 Q662.385 448.353 662.918 451.284 Q665.087 448.734 667.751 447.097 Q670.416 445.461 673.118 445.461 Q677.609 445.461 680.54 448.962 Q683.509 452.426 683.509 457.907 M677.876 454.481 Q677.876 451.018 676.544 449.115 Q675.25 447.174 672.89 447.174 Q669.959 447.174 666.572 450.142 Q663.222 452.959 662.537 455.585 L658.693 470.848 L658.464 472.104 Q658.464 472.332 658.579 473.017 Q658.731 473.664 659.15 474.73 Q659.606 475.796 660.215 476.747 Q660.862 477.661 662.004 478.346 Q663.184 479.031 664.63 479.031 Q666.952 479.031 669.464 476.976 Q672.014 474.92 673.917 471.038 Q675.097 468.526 676.468 463.121 Q677.876 457.678 677.876 454.481 Z" fill="#ffffff" fill-rule="nonzero" fill-opacity="1" /><path clip-path="url(#clip000)" d="M703.237 468.069 Q703.313 467.118 704.797 467.118 L752.565 467.118 Q754.81 467.118 754.848 467.993 Q754.848 468.945 752.717 468.907 L705.33 468.907 Q703.237 468.945 703.237 468.069 M703.237 452.845 Q703.237 451.893 704.874 451.931 L752.489 451.931 Q754.81 451.931 754.848 452.845 Q754.848 453.72 752.869 453.72 L704.797 453.72 Q703.237 453.72 703.237 452.845 Z" fill="#ffffff" fill-rule="nonzero" fill-opacity="1" /><path clip-path="url(#clip000)" d="M784.914 454.976 Q784.914 443.52 787.807 437.278 Q791.841 427.991 801.357 427.991 Q803.374 427.991 805.467 428.561 Q807.599 429.094 810.263 431.188 Q812.965 433.281 814.602 436.707 Q817.723 443.329 817.723 454.976 Q817.723 466.356 814.83 472.561 Q810.606 481.619 801.281 481.619 Q797.779 481.619 794.201 479.83 Q790.661 478.041 788.416 473.74 Q784.914 467.308 784.914 454.976 M791.385 454.025 Q791.385 465.786 792.222 470.467 Q793.173 475.529 795.762 477.737 Q798.388 479.906 801.281 479.906 Q804.402 479.906 806.99 477.585 Q809.616 475.225 810.415 470.163 Q811.291 465.177 811.253 454.025 Q811.253 443.177 810.491 438.838 Q809.464 433.776 806.723 431.759 Q804.021 429.703 801.281 429.703 Q800.253 429.703 799.149 430.008 Q798.083 430.312 796.523 431.188 Q794.962 432.063 793.744 434.233 Q792.564 436.402 791.994 439.675 Q791.385 443.9 791.385 454.025 Z" fill="#ffffff" fill-rule="nonzero" fill-opacity="1" /><path clip-path="url(#clip000)" d="M824.696 478.65 Q823.516 477.394 823.516 475.758 Q823.516 474.121 824.696 472.941 Q825.875 471.723 827.664 471.723 Q829.377 471.723 830.519 472.865 Q831.699 473.969 831.699 475.796 Q831.699 477.585 830.443 478.765 Q829.225 479.906 827.664 479.906 Q825.875 479.906 824.696 478.65 Z" fill="#ffffff" fill-rule="nonzero" fill-opacity="1" /><path clip-path="url(#clip000)" d="M844.965 454.976 Q844.965 443.52 847.858 437.278 Q851.892 427.991 861.408 427.991 Q863.425 427.991 865.518 428.561 Q867.65 429.094 870.314 431.188 Q873.016 433.281 874.653 436.707 Q877.774 443.329 877.774 454.976 Q877.774 466.356 874.881 472.561 Q870.657 481.619 861.332 481.619 Q857.83 481.619 854.252 479.83 Q850.712 478.041 848.467 473.74 Q844.965 467.308 844.965 454.976 M851.436 454.025 Q851.436 465.786 852.273 470.467 Q853.224 475.529 855.813 477.737 Q858.439 479.906 861.332 479.906 Q864.453 479.906 867.041 477.585 Q869.667 475.225 870.466 470.163 Q871.342 465.177 871.304 454.025 Q871.304 443.177 870.542 438.838 Q869.515 433.776 866.774 431.759 Q864.072 429.703 861.332 429.703 Q860.304 429.703 859.2 430.008 Q858.134 430.312 856.574 431.188 Q855.013 432.063 853.795 434.233 Q852.616 436.402 852.045 439.675 Q851.436 443.9 851.436 454.025 Z" fill="#ffffff" fill-rule="nonzero" fill-opacity="1" /><path clip-path="url(#clip000)" d="M883.879 467.346 Q883.879 465.024 885.135 464.149 Q886.391 463.235 887.723 463.235 Q889.512 463.235 890.539 464.377 Q891.605 465.481 891.605 467.042 Q891.605 468.602 890.539 469.744 Q889.512 470.848 887.723 470.848 Q886.848 470.848 886.391 470.695 Q887.418 474.273 890.539 476.861 Q893.699 479.45 897.847 479.45 Q903.062 479.45 906.183 474.387 Q908.048 471.114 908.048 463.692 Q908.048 457.146 906.639 453.872 Q904.47 448.886 900.017 448.886 Q893.699 448.886 889.969 454.329 Q889.512 455.014 888.979 455.052 Q888.218 455.052 888.027 454.634 Q887.875 454.177 887.875 452.997 L887.875 429.932 Q887.875 428.067 888.636 428.067 Q888.941 428.067 889.588 428.295 Q894.498 430.465 899.941 430.503 Q905.536 430.503 910.56 428.219 Q910.94 427.991 911.169 427.991 Q911.93 427.991 911.968 428.866 Q911.968 429.17 911.321 430.084 Q910.712 430.959 909.38 432.139 Q908.048 433.281 906.335 434.385 Q904.622 435.489 902.11 436.25 Q899.636 436.973 896.896 436.973 Q893.622 436.973 890.273 435.945 L890.273 451.132 Q894.308 447.174 900.169 447.174 Q906.411 447.174 910.712 452.198 Q915.013 457.222 915.013 464.225 Q915.013 471.571 909.913 476.595 Q904.851 481.619 898 481.619 Q891.757 481.619 887.799 477.166 Q883.879 472.713 883.879 467.346 Z" fill="#ffffff" fill-rule="nonzero" fill-opacity="1" /><polyline clip-path="url(#clip000)" style="stroke:#eba754; stroke-linecap:round; stroke-linejoin:round; stroke-width:32.5; stroke-opacity:1; fill:none" points="384.937,545.924 605.948,545.924 "/>
<path clip-path="url(#clip000)" d="M683.509 542.147 Q683.509 547.704 680.692 553.07 Q677.914 558.437 673.537 561.749 Q669.16 565.022 664.707 565.022 Q662.042 565.022 660.253 563.575 Q658.503 562.091 657.551 559.998 Q656.828 562.586 655.267 568.79 Q653.707 574.994 653.707 575.603 Q653.707 575.945 653.783 576.098 Q653.859 576.25 654.202 576.44 Q654.544 576.669 655.382 576.745 Q656.219 576.859 657.627 576.859 Q658.35 576.859 658.617 576.859 Q658.921 576.897 659.188 577.087 Q659.492 577.278 659.492 577.696 Q659.492 579.257 658.084 579.257 Q656.828 579.257 654.24 579.143 Q651.651 579.028 650.357 579.028 Q649.254 579.028 647.046 579.143 Q644.838 579.257 643.811 579.257 Q642.783 579.257 642.783 578.343 Q642.783 577.81 642.935 577.468 Q643.05 577.163 643.354 577.011 Q643.659 576.897 643.925 576.859 Q644.153 576.859 644.61 576.859 Q646.361 576.859 647.122 576.554 Q647.883 576.288 648.15 575.717 Q648.454 575.184 648.797 573.662 L657.551 538.95 Q658.084 536.628 658.084 534.991 Q658.084 532.936 657.437 532.175 Q656.79 531.414 655.648 531.414 Q653.669 531.414 652.375 533.773 Q651.081 536.133 649.977 540.701 Q649.634 541.957 649.406 542.223 Q649.216 542.489 648.645 542.489 Q647.693 542.451 647.693 541.69 Q647.693 541.5 647.998 540.282 Q648.302 539.026 648.873 537.199 Q649.482 535.334 650.129 534.154 Q650.51 533.355 650.852 532.822 Q651.195 532.289 651.88 531.452 Q652.603 530.614 653.631 530.157 Q654.658 529.701 655.914 529.701 Q658.35 529.701 660.368 531.147 Q662.385 532.593 662.918 535.524 Q665.087 532.974 667.751 531.337 Q670.416 529.701 673.118 529.701 Q677.609 529.701 680.54 533.202 Q683.509 536.666 683.509 542.147 M677.876 538.721 Q677.876 535.258 676.544 533.355 Q675.25 531.414 672.89 531.414 Q669.959 531.414 666.572 534.382 Q663.222 537.199 662.537 539.825 L658.693 555.088 L658.464 556.344 Q658.464 556.572 658.579 557.257 Q658.731 557.904 659.15 558.97 Q659.606 560.036 660.215 560.987 Q660.862 561.901 662.004 562.586 Q663.184 563.271 664.63 563.271 Q666.952 563.271 669.464 561.216 Q672.014 559.16 673.917 555.278 Q675.097 552.766 676.468 547.361 Q677.876 541.918 677.876 538.721 Z" fill="#ffffff" fill-rule="nonzero" fill-opacity="1" /><path clip-path="url(#clip000)" d="M703.237 552.309 Q703.313 551.358 704.797 551.358 L752.565 551.358 Q754.81 551.358 754.848 552.233 Q754.848 553.185 752.717 553.147 L705.33 553.147 Q703.237 553.185 703.237 552.309 M703.237 537.085 Q703.237 536.133 704.874 536.171 L752.489 536.171 Q754.81 536.171 754.848 537.085 Q754.848 537.96 752.869 537.96 L704.797 537.96 Q703.237 537.96 703.237 537.085 Z" fill="#ffffff" fill-rule="nonzero" fill-opacity="1" /><path clip-path="url(#clip000)" d="M784.914 539.216 Q784.914 527.76 787.807 521.518 Q791.841 512.231 801.357 512.231 Q803.374 512.231 805.467 512.801 Q807.599 513.334 810.263 515.428 Q812.965 517.521 814.602 520.947 Q817.723 527.569 817.723 539.216 Q817.723 550.596 814.83 556.801 Q810.606 565.859 801.281 565.859 Q797.779 565.859 794.201 564.07 Q790.661 562.281 788.416 557.98 Q784.914 551.548 784.914 539.216 M791.385 538.265 Q791.385 550.026 792.222 554.707 Q793.173 559.769 795.762 561.977 Q798.388 564.146 801.281 564.146 Q804.402 564.146 806.99 561.825 Q809.616 559.465 810.415 554.403 Q811.291 549.417 811.253 538.265 Q811.253 527.417 810.491 523.078 Q809.464 518.016 806.723 515.999 Q804.021 513.943 801.281 513.943 Q800.253 513.943 799.149 514.248 Q798.083 514.552 796.523 515.428 Q794.962 516.303 793.744 518.473 Q792.564 520.642 791.994 523.915 Q791.385 528.14 791.385 538.265 Z" fill="#ffffff" fill-rule="nonzero" fill-opacity="1" /><path clip-path="url(#clip000)" d="M824.696 562.89 Q823.516 561.634 823.516 559.998 Q823.516 558.361 824.696 557.181 Q825.875 555.963 827.664 555.963 Q829.377 555.963 830.519 557.105 Q831.699 558.209 831.699 560.036 Q831.699 561.825 830.443 563.005 Q829.225 564.146 827.664 564.146 Q825.875 564.146 824.696 562.89 Z" fill="#ffffff" fill-rule="nonzero" fill-opacity="1" /><path clip-path="url(#clip000)" d="M837.09 519.653 L837.09 517.217 Q846.453 517.217 851.287 512.231 Q852.619 512.231 852.848 512.535 Q853.076 512.84 853.076 514.248 L853.076 557.98 Q853.076 560.302 854.218 561.025 Q855.36 561.749 860.346 561.749 L862.82 561.749 L862.82 564.146 Q860.079 563.918 850.183 563.918 Q840.287 563.918 837.585 564.146 L837.585 561.749 L840.059 561.749 Q844.969 561.749 846.149 561.063 Q847.329 560.34 847.329 557.98 L847.329 517.597 Q843.256 519.653 837.09 519.653 Z" fill="#ffffff" fill-rule="nonzero" fill-opacity="1" /><polyline clip-path="url(#clip000)" style="stroke:#e38650; stroke-linecap:round; stroke-linejoin:round; stroke-width:32.5; stroke-opacity:1; fill:none" points="384.937,630.164 605.948,630.164 "/>
<path clip-path="url(#clip000)" d="M683.509 626.387 Q683.509 631.944 680.692 637.31 Q677.914 642.677 673.537 645.989 Q669.16 649.262 664.707 649.262 Q662.042 649.262 660.253 647.815 Q658.503 646.331 657.551 644.238 Q656.828 646.826 655.267 653.03 Q653.707 659.234 653.707 659.843 Q653.707 660.185 653.783 660.338 Q653.859 660.49 654.202 660.68 Q654.544 660.909 655.382 660.985 Q656.219 661.099 657.627 661.099 Q658.35 661.099 658.617 661.099 Q658.921 661.137 659.188 661.327 Q659.492 661.518 659.492 661.936 Q659.492 663.497 658.084 663.497 Q656.828 663.497 654.24 663.383 Q651.651 663.268 650.357 663.268 Q649.254 663.268 647.046 663.383 Q644.838 663.497 643.811 663.497 Q642.783 663.497 642.783 662.583 Q642.783 662.05 642.935 661.708 Q643.05 661.403 643.354 661.251 Q643.659 661.137 643.925 661.099 Q644.153 661.099 644.61 661.099 Q646.361 661.099 647.122 660.794 Q647.883 660.528 648.15 659.957 Q648.454 659.424 648.797 657.902 L657.551 623.19 Q658.084 620.868 658.084 619.231 Q658.084 617.176 657.437 616.415 Q656.79 615.654 655.648 615.654 Q653.669 615.654 652.375 618.013 Q651.081 620.373 649.977 624.941 Q649.634 626.197 649.406 626.463 Q649.216 626.729 648.645 626.729 Q647.693 626.691 647.693 625.93 Q647.693 625.74 647.998 624.522 Q648.302 623.266 648.873 621.439 Q649.482 619.574 650.129 618.394 Q650.51 617.595 650.852 617.062 Q651.195 616.529 651.88 615.692 Q652.603 614.854 653.631 614.397 Q654.658 613.941 655.914 613.941 Q658.35 613.941 660.368 615.387 Q662.385 616.833 662.918 619.764 Q665.087 617.214 667.751 615.577 Q670.416 613.941 673.118 613.941 Q677.609 613.941 680.54 617.442 Q683.509 620.906 683.509 626.387 M677.876 622.961 Q677.876 619.498 676.544 617.595 Q675.25 615.654 672.89 615.654 Q669.959 615.654 666.572 618.622 Q663.222 621.439 662.537 624.065 L658.693 639.328 L658.464 640.584 Q658.464 640.812 658.579 641.497 Q658.731 642.144 659.15 643.21 Q659.606 644.276 660.215 645.227 Q660.862 646.141 662.004 646.826 Q663.184 647.511 664.63 647.511 Q666.952 647.511 669.464 645.456 Q672.014 643.4 673.917 639.518 Q675.097 637.006 676.468 631.601 Q677.876 626.158 677.876 622.961 Z" fill="#ffffff" fill-rule="nonzero" fill-opacity="1" /><path clip-path="url(#clip000)" d="M703.237 636.549 Q703.313 635.598 704.797 635.598 L752.565 635.598 Q754.81 635.598 754.848 636.473 Q754.848 637.425 752.717 637.387 L705.33 637.387 Q703.237 637.425 703.237 636.549 M703.237 621.325 Q703.237 620.373 704.874 620.411 L752.489 620.411 Q754.81 620.411 754.848 621.325 Q754.848 622.2 752.869 622.2 L704.797 622.2 Q703.237 622.2 703.237 621.325 Z" fill="#ffffff" fill-rule="nonzero" fill-opacity="1" /><path clip-path="url(#clip000)" d="M784.914 623.456 Q784.914 612 787.807 605.758 Q791.841 596.471 801.357 596.471 Q803.374 596.471 805.467 597.041 Q807.599 597.574 810.263 599.668 Q812.965 601.761 814.602 605.187 Q817.723 611.809 817.723 623.456 Q817.723 634.836 814.83 641.041 Q810.606 650.099 801.281 650.099 Q797.779 650.099 794.201 648.31 Q790.661 646.521 788.416 642.22 Q784.914 635.788 784.914 623.456 M791.385 622.505 Q791.385 634.266 792.222 638.947 Q793.173 644.009 795.762 646.217 Q798.388 648.386 801.281 648.386 Q804.402 648.386 806.99 646.065 Q809.616 643.705 810.415 638.643 Q811.291 633.657 811.253 622.505 Q811.253 611.657 810.491 607.318 Q809.464 602.256 806.723 600.239 Q804.021 598.183 801.281 598.183 Q800.253 598.183 799.149 598.488 Q798.083 598.792 796.523 599.668 Q794.962 600.543 793.744 602.713 Q792.564 604.882 791.994 608.155 Q791.385 612.38 791.385 622.505 Z" fill="#ffffff" fill-rule="nonzero" fill-opacity="1" /><path clip-path="url(#clip000)" d="M824.696 647.13 Q823.516 645.874 823.516 644.238 Q823.516 642.601 824.696 641.421 Q825.875 640.203 827.664 640.203 Q829.377 640.203 830.519 641.345 Q831.699 642.449 831.699 644.276 Q831.699 646.065 830.443 647.245 Q829.225 648.386 827.664 648.386 Q825.875 648.386 824.696 647.13 Z" fill="#ffffff" fill-rule="nonzero" fill-opacity="1" /><path clip-path="url(#clip000)" d="M844.965 648.386 Q844.965 646.978 845.079 646.559 Q845.232 646.141 845.841 645.494 L860.799 628.823 Q868.982 619.612 868.982 611.581 Q868.982 606.367 866.242 602.636 Q863.539 598.906 858.553 598.906 Q855.128 598.906 852.235 601 Q849.342 603.093 848.01 606.823 Q848.238 606.747 849.038 606.747 Q850.979 606.747 852.045 607.965 Q853.148 609.183 853.148 610.82 Q853.148 612.913 851.778 613.941 Q850.446 614.93 849.114 614.93 Q848.581 614.93 847.858 614.816 Q847.173 614.702 846.069 613.636 Q844.965 612.532 844.965 610.591 Q844.965 605.149 849.076 600.81 Q853.224 596.471 859.543 596.471 Q866.698 596.471 871.38 600.733 Q876.099 604.958 876.099 611.581 Q876.099 613.903 875.376 616.034 Q874.691 618.128 873.74 619.764 Q872.826 621.401 870.314 624.027 Q867.802 626.653 865.785 628.518 Q863.768 630.383 859.238 634.342 L850.979 642.373 L865.024 642.373 Q871.875 642.373 872.407 641.764 Q873.169 640.66 874.12 634.836 L876.099 634.836 L873.892 648.386 L844.965 648.386 Z" fill="#ffffff" fill-rule="nonzero" fill-opacity="1" /><polyline clip-path="url(#clip000)" style="stroke:#d1614c; stroke-linecap:round; stroke-linejoin:round; stroke-width:32.5; stroke-opacity:1; fill:none" points="384.937,714.404 605.948,714.404 "/>
<path clip-path="url(#clip000)" d="M683.509 710.627 Q683.509 716.184 680.692 721.55 Q677.914 726.917 673.537 730.229 Q669.16 733.502 664.707 733.502 Q662.042 733.502 660.253 732.055 Q658.503 730.571 657.551 728.478 Q656.828 731.066 655.267 737.27 Q653.707 743.474 653.707 744.083 Q653.707 744.425 653.783 744.578 Q653.859 744.73 654.202 744.92 Q654.544 745.149 655.382 745.225 Q656.219 745.339 657.627 745.339 Q658.35 745.339 658.617 745.339 Q658.921 745.377 659.188 745.567 Q659.492 745.758 659.492 746.176 Q659.492 747.737 658.084 747.737 Q656.828 747.737 654.24 747.623 Q651.651 747.508 650.357 747.508 Q649.254 747.508 647.046 747.623 Q644.838 747.737 643.811 747.737 Q642.783 747.737 642.783 746.823 Q642.783 746.29 642.935 745.948 Q643.05 745.643 643.354 745.491 Q643.659 745.377 643.925 745.339 Q644.153 745.339 644.61 745.339 Q646.361 745.339 647.122 745.034 Q647.883 744.768 648.15 744.197 Q648.454 743.664 648.797 742.142 L657.551 707.43 Q658.084 705.108 658.084 703.471 Q658.084 701.416 657.437 700.655 Q656.79 699.894 655.648 699.894 Q653.669 699.894 652.375 702.253 Q651.081 704.613 649.977 709.181 Q649.634 710.437 649.406 710.703 Q649.216 710.969 648.645 710.969 Q647.693 710.931 647.693 710.17 Q647.693 709.98 647.998 708.762 Q648.302 707.506 648.873 705.679 Q649.482 703.814 650.129 702.634 Q650.51 701.835 650.852 701.302 Q651.195 700.769 651.88 699.932 Q652.603 699.094 653.631 698.637 Q654.658 698.181 655.914 698.181 Q658.35 698.181 660.368 699.627 Q662.385 701.073 662.918 704.004 Q665.087 701.454 667.751 699.817 Q670.416 698.181 673.118 698.181 Q677.609 698.181 680.54 701.682 Q683.509 705.146 683.509 710.627 M677.876 707.201 Q677.876 703.738 676.544 701.835 Q675.25 699.894 672.89 699.894 Q669.959 699.894 666.572 702.862 Q663.222 705.679 662.537 708.305 L658.693 723.568 L658.464 724.824 Q658.464 725.052 658.579 725.737 Q658.731 726.384 659.15 727.45 Q659.606 728.516 660.215 729.467 Q660.862 730.381 662.004 731.066 Q663.184 731.751 664.63 731.751 Q666.952 731.751 669.464 729.696 Q672.014 727.64 673.917 723.758 Q675.097 721.246 676.468 715.841 Q677.876 710.398 677.876 707.201 Z" fill="#ffffff" fill-rule="nonzero" fill-opacity="1" /><path clip-path="url(#clip000)" d="M703.237 720.789 Q703.313 719.838 704.797 719.838 L752.565 719.838 Q754.81 719.838 754.848 720.713 Q754.848 721.665 752.717 721.627 L705.33 721.627 Q703.237 721.665 703.237 720.789 M703.237 705.565 Q703.237 704.613 704.874 704.651 L752.489 704.651 Q754.81 704.651 754.848 705.565 Q754.848 706.44 752.869 706.44 L704.797 706.44 Q703.237 706.44 703.237 705.565 Z" fill="#ffffff" fill-rule="nonzero" fill-opacity="1" /><path clip-path="url(#clip000)" d="M784.914 707.696 Q784.914 696.24 787.807 689.998 Q791.841 680.711 801.357 680.711 Q803.374 680.711 805.467 681.281 Q807.599 681.814 810.263 683.908 Q812.965 686.001 814.602 689.427 Q817.723 696.049 817.723 707.696 Q817.723 719.076 814.83 725.281 Q810.606 734.339 801.281 734.339 Q797.779 734.339 794.201 732.55 Q790.661 730.761 788.416 726.46 Q784.914 720.028 784.914 707.696 M791.385 706.745 Q791.385 718.506 792.222 723.187 Q793.173 728.249 795.762 730.457 Q798.388 732.626 801.281 732.626 Q804.402 732.626 806.99 730.305 Q809.616 727.945 810.415 722.883 Q811.291 717.897 811.253 706.745 Q811.253 695.897 810.491 691.558 Q809.464 686.496 806.723 684.479 Q804.021 682.423 801.281 682.423 Q800.253 682.423 799.149 682.728 Q798.083 683.032 796.523 683.908 Q794.962 684.783 793.744 686.953 Q792.564 689.122 791.994 692.395 Q791.385 696.62 791.385 706.745 Z" fill="#ffffff" fill-rule="nonzero" fill-opacity="1" /><path clip-path="url(#clip000)" d="M824.696 731.37 Q823.516 730.114 823.516 728.478 Q823.516 726.841 824.696 725.661 Q825.875 724.443 827.664 724.443 Q829.377 724.443 830.519 725.585 Q831.699 726.689 831.699 728.516 Q831.699 730.305 830.443 731.485 Q829.225 732.626 827.664 732.626 Q825.875 732.626 824.696 731.37 Z" fill="#ffffff" fill-rule="nonzero" fill-opacity="1" /><path clip-path="url(#clip000)" d="M844.965 722.121 Q844.965 719.8 846.297 718.696 Q847.629 717.592 849.342 717.592 Q851.131 717.592 852.387 718.772 Q853.681 719.914 853.681 721.931 Q853.681 724.101 852.159 725.319 Q850.674 726.537 848.543 726.232 Q850.408 729.353 853.833 730.761 Q857.297 732.17 860.494 732.17 Q863.844 732.17 866.546 729.277 Q869.286 726.384 869.286 719.305 Q869.286 713.291 866.927 709.828 Q864.605 706.364 859.999 706.364 L856.574 706.364 Q855.394 706.364 855.051 706.25 Q854.709 706.136 854.709 705.489 Q854.709 704.727 855.889 704.575 Q857.069 704.575 858.934 704.347 Q863.463 704.194 865.861 700.274 Q868.03 696.62 868.03 691.406 Q868.03 686.648 865.747 684.669 Q863.501 682.652 860.57 682.652 Q857.83 682.652 854.823 683.794 Q851.816 684.935 850.18 687.485 Q855.013 687.485 855.013 691.406 Q855.013 693.119 853.91 694.26 Q852.844 695.364 851.055 695.364 Q849.342 695.364 848.2 694.298 Q847.059 693.195 847.059 691.33 Q847.059 686.876 851.017 683.794 Q855.013 680.711 860.875 680.711 Q866.66 680.711 870.923 683.755 Q875.224 686.8 875.224 691.482 Q875.224 696.087 872.179 699.855 Q869.134 703.624 864.3 705.184 Q870.238 706.364 873.778 710.398 Q877.317 714.395 877.317 719.305 Q877.317 725.395 872.522 729.886 Q867.726 734.339 860.723 734.339 Q854.252 734.339 849.609 730.837 Q844.965 727.336 844.965 722.121 Z" fill="#ffffff" fill-rule="nonzero" fill-opacity="1" /></svg>
