<?xml version="1.0" encoding="utf-8"?>
<svg xmlns="http://www.w3.org/2000/svg" xmlns:xlink="http://www.w3.org/1999/xlink" width="900" height="650" viewBox="0 0 3600 2600">
<defs>
  <clipPath id="clip830">
    <rect x="0" y="0" width="3600" height="2600"/>
  </clipPath>
</defs>
<path clip-path="url(#clip830)" d="M0 2600 L3600 2600 L3600 0 L0 0  Z" fill="#7f7f7f" fill-rule="evenodd" fill-opacity="1"/>
<defs>
  <clipPath id="clip831">
    <rect x="720" y="0" width="2521" height="2521"/>
  </clipPath>
</defs>
<defs>
  <clipPath id="clip832">
    <rect x="191" y="133" width="3362" height="2274"/>
  </clipPath>
</defs>
<path clip-path="url(#clip830)" d="M191.405 2406.34 L3552.76 2406.34 L3552.76 133.192 L191.405 133.192  Z" fill="#7f7f7f" fill-rule="evenodd" fill-opacity="1"/>
<polyline clip-path="url(#clip832)" style="stroke:#ffffff; stroke-linecap:round; stroke-linejoin:round; stroke-width:2; stroke-opacity:0.5; fill:none" points="238.247,2406.34 238.247,133.192 "/>
<polyline clip-path="url(#clip832)" style="stroke:#ffffff; stroke-linecap:round; stroke-linejoin:round; stroke-width:2; stroke-opacity:0.5; fill:none" points="1043.09,2406.34 1043.09,133.192 "/>
<polyline clip-path="url(#clip832)" style="stroke:#ffffff; stroke-linecap:round; stroke-linejoin:round; stroke-width:2; stroke-opacity:0.5; fill:none" points="1847.94,2406.34 1847.94,133.192 "/>
<polyline clip-path="url(#clip832)" style="stroke:#ffffff; stroke-linecap:round; stroke-linejoin:round; stroke-width:2; stroke-opacity:0.5; fill:none" points="2652.78,2406.34 2652.78,133.192 "/>
<polyline clip-path="url(#clip832)" style="stroke:#ffffff; stroke-linecap:round; stroke-linejoin:round; stroke-width:2; stroke-opacity:0.5; fill:none" points="3457.62,2406.34 3457.62,133.192 "/>
<polyline clip-path="url(#clip832)" style="stroke:#ffffff; stroke-linecap:round; stroke-linejoin:round; stroke-width:2; stroke-opacity:0.3; fill:none" points="399.216,2406.34 399.216,133.192 "/>
<polyline clip-path="url(#clip832)" style="stroke:#ffffff; stroke-linecap:round; stroke-linejoin:round; stroke-width:2; stroke-opacity:0.3; fill:none" points="560.185,2406.34 560.185,133.192 "/>
<polyline clip-path="url(#clip832)" style="stroke:#ffffff; stroke-linecap:round; stroke-linejoin:round; stroke-width:2; stroke-opacity:0.3; fill:none" points="721.154,2406.34 721.154,133.192 "/>
<polyline clip-path="url(#clip832)" style="stroke:#ffffff; stroke-linecap:round; stroke-linejoin:round; stroke-width:2; stroke-opacity:0.3; fill:none" points="882.122,2406.34 882.122,133.192 "/>
<polyline clip-path="url(#clip832)" style="stroke:#ffffff; stroke-linecap:round; stroke-linejoin:round; stroke-width:2; stroke-opacity:0.3; fill:none" points="1204.06,2406.34 1204.06,133.192 "/>
<polyline clip-path="url(#clip832)" style="stroke:#ffffff; stroke-linecap:round; stroke-linejoin:round; stroke-width:2; stroke-opacity:0.3; fill:none" points="1365.03,2406.34 1365.03,133.192 "/>
<polyline clip-path="url(#clip832)" style="stroke:#ffffff; stroke-linecap:round; stroke-linejoin:round; stroke-width:2; stroke-opacity:0.3; fill:none" points="1526,2406.34 1526,133.192 "/>
<polyline clip-path="url(#clip832)" style="stroke:#ffffff; stroke-linecap:round; stroke-linejoin:round; stroke-width:2; stroke-opacity:0.3; fill:none" points="1686.97,2406.34 1686.97,133.192 "/>
<polyline clip-path="url(#clip832)" style="stroke:#ffffff; stroke-linecap:round; stroke-linejoin:round; stroke-width:2; stroke-opacity:0.3; fill:none" points="2008.9,2406.34 2008.9,133.192 "/>
<polyline clip-path="url(#clip832)" style="stroke:#ffffff; stroke-linecap:round; stroke-linejoin:round; stroke-width:2; stroke-opacity:0.3; fill:none" points="2169.87,2406.34 2169.87,133.192 "/>
<polyline clip-path="url(#clip832)" style="stroke:#ffffff; stroke-linecap:round; stroke-linejoin:round; stroke-width:2; stroke-opacity:0.3; fill:none" points="2330.84,2406.34 2330.84,133.192 "/>
<polyline clip-path="url(#clip832)" style="stroke:#ffffff; stroke-linecap:round; stroke-linejoin:round; stroke-width:2; stroke-opacity:0.3; fill:none" points="2491.81,2406.34 2491.81,133.192 "/>
<polyline clip-path="url(#clip832)" style="stroke:#ffffff; stroke-linecap:round; stroke-linejoin:round; stroke-width:2; stroke-opacity:0.3; fill:none" points="2813.75,2406.34 2813.75,133.192 "/>
<polyline clip-path="url(#clip832)" style="stroke:#ffffff; stroke-linecap:round; stroke-linejoin:round; stroke-width:2; stroke-opacity:0.3; fill:none" points="2974.72,2406.34 2974.72,133.192 "/>
<polyline clip-path="url(#clip832)" style="stroke:#ffffff; stroke-linecap:round; stroke-linejoin:round; stroke-width:2; stroke-opacity:0.3; fill:none" points="3135.69,2406.34 3135.69,133.192 "/>
<polyline clip-path="url(#clip832)" style="stroke:#ffffff; stroke-linecap:round; stroke-linejoin:round; stroke-width:2; stroke-opacity:0.3; fill:none" points="3296.65,2406.34 3296.65,133.192 "/>
<polyline clip-path="url(#clip830)" style="stroke:#ffffff; stroke-linecap:round; stroke-linejoin:round; stroke-width:4; stroke-opacity:1; fill:none" points="191.405,2406.34 3552.76,2406.34 "/>
<polyline clip-path="url(#clip830)" style="stroke:#ffffff; stroke-linecap:round; stroke-linejoin:round; stroke-width:4; stroke-opacity:1; fill:none" points="238.247,2406.34 238.247,2387.44 "/>
<polyline clip-path="url(#clip830)" style="stroke:#ffffff; stroke-linecap:round; stroke-linejoin:round; stroke-width:4; stroke-opacity:1; fill:none" points="1043.09,2406.34 1043.09,2387.44 "/>
<polyline clip-path="url(#clip830)" style="stroke:#ffffff; stroke-linecap:round; stroke-linejoin:round; stroke-width:4; stroke-opacity:1; fill:none" points="1847.94,2406.34 1847.94,2387.44 "/>
<polyline clip-path="url(#clip830)" style="stroke:#ffffff; stroke-linecap:round; stroke-linejoin:round; stroke-width:4; stroke-opacity:1; fill:none" points="2652.78,2406.34 2652.78,2387.44 "/>
<polyline clip-path="url(#clip830)" style="stroke:#ffffff; stroke-linecap:round; stroke-linejoin:round; stroke-width:4; stroke-opacity:1; fill:none" points="3457.62,2406.34 3457.62,2387.44 "/>
<polyline clip-path="url(#clip830)" style="stroke:#ffffff; stroke-linecap:round; stroke-linejoin:round; stroke-width:4; stroke-opacity:1; fill:none" points="399.216,2406.34 399.216,2396.89 "/>
<polyline clip-path="url(#clip830)" style="stroke:#ffffff; stroke-linecap:round; stroke-linejoin:round; stroke-width:4; stroke-opacity:1; fill:none" points="560.185,2406.34 560.185,2396.89 "/>
<polyline clip-path="url(#clip830)" style="stroke:#ffffff; stroke-linecap:round; stroke-linejoin:round; stroke-width:4; stroke-opacity:1; fill:none" points="721.154,2406.34 721.154,2396.89 "/>
<polyline clip-path="url(#clip830)" style="stroke:#ffffff; stroke-linecap:round; stroke-linejoin:round; stroke-width:4; stroke-opacity:1; fill:none" points="882.122,2406.34 882.122,2396.89 "/>
<polyline clip-path="url(#clip830)" style="stroke:#ffffff; stroke-linecap:round; stroke-linejoin:round; stroke-width:4; stroke-opacity:1; fill:none" points="1204.06,2406.34 1204.06,2396.89 "/>
<polyline clip-path="url(#clip830)" style="stroke:#ffffff; stroke-linecap:round; stroke-linejoin:round; stroke-width:4; stroke-opacity:1; fill:none" points="1365.03,2406.34 1365.03,2396.89 "/>
<polyline clip-path="url(#clip830)" style="stroke:#ffffff; stroke-linecap:round; stroke-linejoin:round; stroke-width:4; stroke-opacity:1; fill:none" points="1526,2406.34 1526,2396.89 "/>
<polyline clip-path="url(#clip830)" style="stroke:#ffffff; stroke-linecap:round; stroke-linejoin:round; stroke-width:4; stroke-opacity:1; fill:none" points="1686.97,2406.34 1686.97,2396.89 "/>
<polyline clip-path="url(#clip830)" style="stroke:#ffffff; stroke-linecap:round; stroke-linejoin:round; stroke-width:4; stroke-opacity:1; fill:none" points="2008.9,2406.34 2008.9,2396.89 "/>
<polyline clip-path="url(#clip830)" style="stroke:#ffffff; stroke-linecap:round; stroke-linejoin:round; stroke-width:4; stroke-opacity:1; fill:none" points="2169.87,2406.34 2169.87,2396.89 "/>
<polyline clip-path="url(#clip830)" style="stroke:#ffffff; stroke-linecap:round; stroke-linejoin:round; stroke-width:4; stroke-opacity:1; fill:none" points="2330.84,2406.34 2330.84,2396.89 "/>
<polyline clip-path="url(#clip830)" style="stroke:#ffffff; stroke-linecap:round; stroke-linejoin:round; stroke-width:4; stroke-opacity:1; fill:none" points="2491.81,2406.34 2491.81,2396.89 "/>
<polyline clip-path="url(#clip830)" style="stroke:#ffffff; stroke-linecap:round; stroke-linejoin:round; stroke-width:4; stroke-opacity:1; fill:none" points="2813.75,2406.34 2813.75,2396.89 "/>
<polyline clip-path="url(#clip830)" style="stroke:#ffffff; stroke-linecap:round; stroke-linejoin:round; stroke-width:4; stroke-opacity:1; fill:none" points="2974.72,2406.34 2974.72,2396.89 "/>
<polyline clip-path="url(#clip830)" style="stroke:#ffffff; stroke-linecap:round; stroke-linejoin:round; stroke-width:4; stroke-opacity:1; fill:none" points="3135.69,2406.34 3135.69,2396.89 "/>
<polyline clip-path="url(#clip830)" style="stroke:#ffffff; stroke-linecap:round; stroke-linejoin:round; stroke-width:4; stroke-opacity:1; fill:none" points="3296.65,2406.34 3296.65,2396.89 "/>
<path clip-path="url(#clip830)" d="M238.247 2446.86 Q234.636 2446.86 232.807 2450.42 Q231.002 2453.96 231.002 2461.09 Q231.002 2468.2 232.807 2471.77 Q234.636 2475.31 238.247 2475.31 Q241.881 2475.31 243.687 2471.77 Q245.516 2468.2 245.516 2461.09 Q245.516 2453.96 243.687 2450.42 Q241.881 2446.86 238.247 2446.86 M238.247 2443.15 Q244.057 2443.15 247.113 2447.76 Q250.192 2452.34 250.192 2461.09 Q250.192 2469.82 247.113 2474.43 Q244.057 2479.01 238.247 2479.01 Q232.437 2479.01 229.358 2474.43 Q226.303 2469.82 226.303 2461.09 Q226.303 2452.34 229.358 2447.76 Q232.437 2443.15 238.247 2443.15 Z" fill="#ffffff" fill-rule="nonzero" fill-opacity="1" /><path clip-path="url(#clip830)" d="M1017.79 2443.78 L1036.15 2443.78 L1036.15 2447.72 L1022.07 2447.72 L1022.07 2456.19 Q1023.09 2455.84 1024.11 2455.68 Q1025.13 2455.49 1026.15 2455.49 Q1031.93 2455.49 1035.31 2458.66 Q1038.69 2461.84 1038.69 2467.25 Q1038.69 2472.83 1035.22 2475.93 Q1031.75 2479.01 1025.43 2479.01 Q1023.25 2479.01 1020.98 2478.64 Q1018.74 2478.27 1016.33 2477.53 L1016.33 2472.83 Q1018.42 2473.96 1020.64 2474.52 Q1022.86 2475.08 1025.34 2475.08 Q1029.34 2475.08 1031.68 2472.97 Q1034.02 2470.86 1034.02 2467.25 Q1034.02 2463.64 1031.68 2461.53 Q1029.34 2459.43 1025.34 2459.43 Q1023.46 2459.43 1021.59 2459.84 Q1019.73 2460.26 1017.79 2461.14 L1017.79 2443.78 Z" fill="#ffffff" fill-rule="nonzero" fill-opacity="1" /><path clip-path="url(#clip830)" d="M1057.91 2446.86 Q1054.29 2446.86 1052.47 2450.42 Q1050.66 2453.96 1050.66 2461.09 Q1050.66 2468.2 1052.47 2471.77 Q1054.29 2475.31 1057.91 2475.31 Q1061.54 2475.31 1063.35 2471.77 Q1065.17 2468.2 1065.17 2461.09 Q1065.17 2453.96 1063.35 2450.42 Q1061.54 2446.86 1057.91 2446.86 M1057.91 2443.15 Q1063.72 2443.15 1066.77 2447.76 Q1069.85 2452.34 1069.85 2461.09 Q1069.85 2469.82 1066.77 2474.43 Q1063.72 2479.01 1057.91 2479.01 Q1052.1 2479.01 1049.02 2474.43 Q1045.96 2469.82 1045.96 2461.09 Q1045.96 2452.34 1049.02 2447.76 Q1052.1 2443.15 1057.91 2443.15 Z" fill="#ffffff" fill-rule="nonzero" fill-opacity="1" /><path clip-path="url(#clip830)" d="M1807.54 2474.4 L1815.18 2474.4 L1815.18 2448.04 L1806.87 2449.71 L1806.87 2445.45 L1815.13 2443.78 L1819.81 2443.78 L1819.81 2474.4 L1827.45 2474.4 L1827.45 2478.34 L1807.54 2478.34 L1807.54 2474.4 Z" fill="#ffffff" fill-rule="nonzero" fill-opacity="1" /><path clip-path="url(#clip830)" d="M1846.89 2446.86 Q1843.28 2446.86 1841.45 2450.42 Q1839.65 2453.96 1839.65 2461.09 Q1839.65 2468.2 1841.45 2471.77 Q1843.28 2475.31 1846.89 2475.31 Q1850.53 2475.31 1852.33 2471.77 Q1854.16 2468.2 1854.16 2461.09 Q1854.16 2453.96 1852.33 2450.42 Q1850.53 2446.86 1846.89 2446.86 M1846.89 2443.15 Q1852.7 2443.15 1855.76 2447.76 Q1858.84 2452.34 1858.84 2461.09 Q1858.84 2469.82 1855.76 2474.43 Q1852.7 2479.01 1846.89 2479.01 Q1841.08 2479.01 1838 2474.43 Q1834.95 2469.82 1834.95 2461.09 Q1834.95 2452.34 1838 2447.76 Q1841.08 2443.15 1846.89 2443.15 Z" fill="#ffffff" fill-rule="nonzero" fill-opacity="1" /><path clip-path="url(#clip830)" d="M1877.06 2446.86 Q1873.44 2446.86 1871.62 2450.42 Q1869.81 2453.96 1869.81 2461.09 Q1869.81 2468.2 1871.62 2471.77 Q1873.44 2475.31 1877.06 2475.31 Q1880.69 2475.31 1882.5 2471.77 Q1884.32 2468.2 1884.32 2461.09 Q1884.32 2453.96 1882.5 2450.42 Q1880.69 2446.86 1877.06 2446.86 M1877.06 2443.15 Q1882.87 2443.15 1885.92 2447.76 Q1889 2452.34 1889 2461.09 Q1889 2469.82 1885.92 2474.43 Q1882.87 2479.01 1877.06 2479.01 Q1871.25 2479.01 1868.17 2474.43 Q1865.11 2469.82 1865.11 2461.09 Q1865.11 2452.34 1868.17 2447.76 Q1871.25 2443.15 1877.06 2443.15 Z" fill="#ffffff" fill-rule="nonzero" fill-opacity="1" /><path clip-path="url(#clip830)" d="M2612.39 2474.4 L2620.02 2474.4 L2620.02 2448.04 L2611.71 2449.71 L2611.71 2445.45 L2619.98 2443.78 L2624.65 2443.78 L2624.65 2474.4 L2632.29 2474.4 L2632.29 2478.34 L2612.39 2478.34 L2612.39 2474.4 Z" fill="#ffffff" fill-rule="nonzero" fill-opacity="1" /><path clip-path="url(#clip830)" d="M2641.78 2443.78 L2660.14 2443.78 L2660.14 2447.72 L2646.07 2447.72 L2646.07 2456.19 Q2647.08 2455.84 2648.1 2455.68 Q2649.12 2455.49 2650.14 2455.49 Q2655.93 2455.49 2659.31 2458.66 Q2662.69 2461.84 2662.69 2467.25 Q2662.69 2472.83 2659.21 2475.93 Q2655.74 2479.01 2649.42 2479.01 Q2647.25 2479.01 2644.98 2478.64 Q2642.73 2478.27 2640.33 2477.53 L2640.33 2472.83 Q2642.41 2473.96 2644.63 2474.52 Q2646.85 2475.08 2649.33 2475.08 Q2653.33 2475.08 2655.67 2472.97 Q2658.01 2470.86 2658.01 2467.25 Q2658.01 2463.64 2655.67 2461.53 Q2653.33 2459.43 2649.33 2459.43 Q2647.46 2459.43 2645.58 2459.84 Q2643.73 2460.26 2641.78 2461.14 L2641.78 2443.78 Z" fill="#ffffff" fill-rule="nonzero" fill-opacity="1" /><path clip-path="url(#clip830)" d="M2681.9 2446.86 Q2678.29 2446.86 2676.46 2450.42 Q2674.65 2453.96 2674.65 2461.09 Q2674.65 2468.2 2676.46 2471.77 Q2678.29 2475.31 2681.9 2475.31 Q2685.53 2475.31 2687.34 2471.77 Q2689.17 2468.2 2689.17 2461.09 Q2689.17 2453.96 2687.34 2450.42 Q2685.53 2446.86 2681.9 2446.86 M2681.9 2443.15 Q2687.71 2443.15 2690.77 2447.76 Q2693.84 2452.34 2693.84 2461.09 Q2693.84 2469.82 2690.77 2474.43 Q2687.71 2479.01 2681.9 2479.01 Q2676.09 2479.01 2673.01 2474.43 Q2669.96 2469.82 2669.96 2461.09 Q2669.96 2452.34 2673.01 2447.76 Q2676.09 2443.15 2681.9 2443.15 Z" fill="#ffffff" fill-rule="nonzero" fill-opacity="1" /><path clip-path="url(#clip830)" d="M3421.32 2474.4 L3437.64 2474.4 L3437.64 2478.34 L3415.69 2478.34 L3415.69 2474.4 Q3418.35 2471.65 3422.94 2467.02 Q3427.54 2462.37 3428.72 2461.03 Q3430.97 2458.5 3431.85 2456.77 Q3432.75 2455.01 3432.75 2453.32 Q3432.75 2450.56 3430.81 2448.83 Q3428.89 2447.09 3425.78 2447.09 Q3423.58 2447.09 3421.13 2447.85 Q3418.7 2448.62 3415.92 2450.17 L3415.92 2445.45 Q3418.75 2444.31 3421.2 2443.73 Q3423.65 2443.15 3425.69 2443.15 Q3431.06 2443.15 3434.26 2445.84 Q3437.45 2448.53 3437.45 2453.02 Q3437.45 2455.15 3436.64 2457.07 Q3435.85 2458.96 3433.75 2461.56 Q3433.17 2462.23 3430.07 2465.45 Q3426.96 2468.64 3421.32 2474.4 Z" fill="#ffffff" fill-rule="nonzero" fill-opacity="1" /><path clip-path="url(#clip830)" d="M3457.45 2446.86 Q3453.84 2446.86 3452.01 2450.42 Q3450.2 2453.96 3450.2 2461.09 Q3450.2 2468.2 3452.01 2471.77 Q3453.84 2475.31 3457.45 2475.31 Q3461.08 2475.31 3462.89 2471.77 Q3464.72 2468.2 3464.72 2461.09 Q3464.72 2453.96 3462.89 2450.42 Q3461.08 2446.86 3457.45 2446.86 M3457.45 2443.15 Q3463.26 2443.15 3466.32 2447.76 Q3469.39 2452.34 3469.39 2461.09 Q3469.39 2469.82 3466.32 2474.43 Q3463.26 2479.01 3457.45 2479.01 Q3451.64 2479.01 3448.56 2474.43 Q3445.51 2469.82 3445.51 2461.09 Q3445.51 2452.34 3448.56 2447.76 Q3451.64 2443.15 3457.45 2443.15 Z" fill="#ffffff" fill-rule="nonzero" fill-opacity="1" /><path clip-path="url(#clip830)" d="M3487.61 2446.86 Q3484 2446.86 3482.17 2450.42 Q3480.37 2453.96 3480.37 2461.09 Q3480.37 2468.2 3482.17 2471.77 Q3484 2475.31 3487.61 2475.31 Q3491.25 2475.31 3493.05 2471.77 Q3494.88 2468.2 3494.88 2461.09 Q3494.88 2453.96 3493.05 2450.42 Q3491.25 2446.86 3487.61 2446.86 M3487.61 2443.15 Q3493.42 2443.15 3496.48 2447.76 Q3499.56 2452.34 3499.56 2461.09 Q3499.56 2469.82 3496.48 2474.43 Q3493.42 2479.01 3487.61 2479.01 Q3481.8 2479.01 3478.72 2474.43 Q3475.67 2469.82 3475.67 2461.09 Q3475.67 2452.34 3478.72 2447.76 Q3481.8 2443.15 3487.61 2443.15 Z" fill="#ffffff" fill-rule="nonzero" fill-opacity="1" /><path clip-path="url(#clip830)" d="M1901.39 2518.69 Q1901.39 2520.01 1900.26 2520.01 Q1896.62 2520.14 1895.14 2521.36 Q1893.69 2522.55 1893.14 2524.87 L1883.93 2561.62 Q1883.61 2562.78 1883.42 2562.91 Q1883.22 2563 1882.87 2563 Q1882.42 2563 1882.16 2562.78 Q1881.93 2562.55 1881.61 2561.75 L1865.19 2522.91 Q1865.06 2522.65 1864.9 2522.3 Q1864.74 2521.94 1864.61 2521.72 L1855.88 2556.53 Q1855.62 2557.53 1855.62 2558.04 Q1855.62 2559.3 1856.49 2560.11 Q1857.39 2560.88 1859.97 2560.98 Q1861.29 2560.98 1861.29 2561.68 Q1861.29 2563 1860.1 2563 Q1859 2563 1856.72 2562.91 Q1854.43 2562.81 1853.3 2562.81 Q1852.21 2562.81 1849.99 2562.91 Q1847.76 2563 1846.7 2563 Q1845.86 2563 1845.86 2562.26 Q1845.86 2561.68 1846.09 2561.39 Q1846.31 2561.07 1846.51 2561.04 Q1846.7 2560.98 1846.99 2560.98 Q1848.92 2560.91 1850.24 2560.52 Q1851.56 2560.14 1852.3 2559.4 Q1853.08 2558.66 1853.43 2557.92 Q1853.82 2557.14 1854.11 2556.02 L1862.93 2520.59 Q1862.93 2520.01 1858.46 2520.01 Q1857.68 2520.01 1857.36 2519.98 Q1857.07 2519.95 1856.85 2519.78 Q1856.62 2519.62 1856.62 2519.27 Q1856.62 2518.37 1857.01 2518.17 Q1857.39 2517.95 1858.52 2517.95 L1867.38 2517.95 Q1868.5 2517.95 1868.79 2518.14 Q1869.08 2518.3 1869.47 2519.2 L1884.06 2553.63 L1891.43 2524.29 Q1891.63 2523.71 1891.63 2522.91 Q1891.63 2521.62 1890.66 2520.85 Q1889.73 2520.04 1887.15 2520.01 Q1885.96 2520.01 1885.96 2519.27 Q1885.96 2518.66 1886.18 2518.37 Q1886.44 2518.04 1886.64 2518.01 Q1886.86 2517.95 1887.15 2517.95 Q1888.25 2517.95 1890.5 2518.04 Q1892.75 2518.14 1893.88 2518.14 Q1894.98 2518.14 1897.2 2518.04 Q1899.45 2517.95 1900.55 2517.95 Q1900.94 2517.95 1901.13 2518.14 Q1901.35 2518.3 1901.39 2518.5 L1901.39 2518.69 Z" fill="#ffffff" fill-rule="nonzero" fill-opacity="1" /><polyline clip-path="url(#clip832)" style="stroke:#ffffff; stroke-linecap:round; stroke-linejoin:round; stroke-width:2; stroke-opacity:0.5; fill:none" points="191.405,2084.89 3552.76,2084.89 "/>
<polyline clip-path="url(#clip832)" style="stroke:#ffffff; stroke-linecap:round; stroke-linejoin:round; stroke-width:2; stroke-opacity:0.5; fill:none" points="191.405,1570.65 3552.76,1570.65 "/>
<polyline clip-path="url(#clip832)" style="stroke:#ffffff; stroke-linecap:round; stroke-linejoin:round; stroke-width:2; stroke-opacity:0.5; fill:none" points="191.405,1056.42 3552.76,1056.42 "/>
<polyline clip-path="url(#clip832)" style="stroke:#ffffff; stroke-linecap:round; stroke-linejoin:round; stroke-width:2; stroke-opacity:0.5; fill:none" points="191.405,542.186 3552.76,542.186 "/>
<polyline clip-path="url(#clip832)" style="stroke:#ffffff; stroke-linecap:round; stroke-linejoin:round; stroke-width:2; stroke-opacity:0.3; fill:none" points="191.405,2393.43 3552.76,2393.43 "/>
<polyline clip-path="url(#clip832)" style="stroke:#ffffff; stroke-linecap:round; stroke-linejoin:round; stroke-width:2; stroke-opacity:0.3; fill:none" points="191.405,2290.58 3552.76,2290.58 "/>
<polyline clip-path="url(#clip832)" style="stroke:#ffffff; stroke-linecap:round; stroke-linejoin:round; stroke-width:2; stroke-opacity:0.3; fill:none" points="191.405,2187.74 3552.76,2187.74 "/>
<polyline clip-path="url(#clip832)" style="stroke:#ffffff; stroke-linecap:round; stroke-linejoin:round; stroke-width:2; stroke-opacity:0.3; fill:none" points="191.405,1982.04 3552.76,1982.04 "/>
<polyline clip-path="url(#clip832)" style="stroke:#ffffff; stroke-linecap:round; stroke-linejoin:round; stroke-width:2; stroke-opacity:0.3; fill:none" points="191.405,1879.19 3552.76,1879.19 "/>
<polyline clip-path="url(#clip832)" style="stroke:#ffffff; stroke-linecap:round; stroke-linejoin:round; stroke-width:2; stroke-opacity:0.3; fill:none" points="191.405,1776.35 3552.76,1776.35 "/>
<polyline clip-path="url(#clip832)" style="stroke:#ffffff; stroke-linecap:round; stroke-linejoin:round; stroke-width:2; stroke-opacity:0.3; fill:none" points="191.405,1673.5 3552.76,1673.5 "/>
<polyline clip-path="url(#clip832)" style="stroke:#ffffff; stroke-linecap:round; stroke-linejoin:round; stroke-width:2; stroke-opacity:0.3; fill:none" points="191.405,1467.81 3552.76,1467.81 "/>
<polyline clip-path="url(#clip832)" style="stroke:#ffffff; stroke-linecap:round; stroke-linejoin:round; stroke-width:2; stroke-opacity:0.3; fill:none" points="191.405,1364.96 3552.76,1364.96 "/>
<polyline clip-path="url(#clip832)" style="stroke:#ffffff; stroke-linecap:round; stroke-linejoin:round; stroke-width:2; stroke-opacity:0.3; fill:none" points="191.405,1262.11 3552.76,1262.11 "/>
<polyline clip-path="url(#clip832)" style="stroke:#ffffff; stroke-linecap:round; stroke-linejoin:round; stroke-width:2; stroke-opacity:0.3; fill:none" points="191.405,1159.27 3552.76,1159.27 "/>
<polyline clip-path="url(#clip832)" style="stroke:#ffffff; stroke-linecap:round; stroke-linejoin:round; stroke-width:2; stroke-opacity:0.3; fill:none" points="191.405,953.573 3552.76,953.573 "/>
<polyline clip-path="url(#clip832)" style="stroke:#ffffff; stroke-linecap:round; stroke-linejoin:round; stroke-width:2; stroke-opacity:0.3; fill:none" points="191.405,850.727 3552.76,850.727 "/>
<polyline clip-path="url(#clip832)" style="stroke:#ffffff; stroke-linecap:round; stroke-linejoin:round; stroke-width:2; stroke-opacity:0.3; fill:none" points="191.405,747.88 3552.76,747.88 "/>
<polyline clip-path="url(#clip832)" style="stroke:#ffffff; stroke-linecap:round; stroke-linejoin:round; stroke-width:2; stroke-opacity:0.3; fill:none" points="191.405,645.033 3552.76,645.033 "/>
<polyline clip-path="url(#clip832)" style="stroke:#ffffff; stroke-linecap:round; stroke-linejoin:round; stroke-width:2; stroke-opacity:0.3; fill:none" points="191.405,439.339 3552.76,439.339 "/>
<polyline clip-path="url(#clip832)" style="stroke:#ffffff; stroke-linecap:round; stroke-linejoin:round; stroke-width:2; stroke-opacity:0.3; fill:none" points="191.405,336.493 3552.76,336.493 "/>
<polyline clip-path="url(#clip832)" style="stroke:#ffffff; stroke-linecap:round; stroke-linejoin:round; stroke-width:2; stroke-opacity:0.3; fill:none" points="191.405,233.646 3552.76,233.646 "/>
<polyline clip-path="url(#clip830)" style="stroke:#ffffff; stroke-linecap:round; stroke-linejoin:round; stroke-width:4; stroke-opacity:1; fill:none" points="191.405,2406.34 191.405,133.192 "/>
<polyline clip-path="url(#clip830)" style="stroke:#ffffff; stroke-linecap:round; stroke-linejoin:round; stroke-width:4; stroke-opacity:1; fill:none" points="191.405,2084.89 210.303,2084.89 "/>
<polyline clip-path="url(#clip830)" style="stroke:#ffffff; stroke-linecap:round; stroke-linejoin:round; stroke-width:4; stroke-opacity:1; fill:none" points="191.405,1570.65 210.303,1570.65 "/>
<polyline clip-path="url(#clip830)" style="stroke:#ffffff; stroke-linecap:round; stroke-linejoin:round; stroke-width:4; stroke-opacity:1; fill:none" points="191.405,1056.42 210.303,1056.42 "/>
<polyline clip-path="url(#clip830)" style="stroke:#ffffff; stroke-linecap:round; stroke-linejoin:round; stroke-width:4; stroke-opacity:1; fill:none" points="191.405,542.186 210.303,542.186 "/>
<polyline clip-path="url(#clip830)" style="stroke:#ffffff; stroke-linecap:round; stroke-linejoin:round; stroke-width:4; stroke-opacity:1; fill:none" points="191.405,2393.43 200.854,2393.43 "/>
<polyline clip-path="url(#clip830)" style="stroke:#ffffff; stroke-linecap:round; stroke-linejoin:round; stroke-width:4; stroke-opacity:1; fill:none" points="191.405,2290.58 200.854,2290.58 "/>
<polyline clip-path="url(#clip830)" style="stroke:#ffffff; stroke-linecap:round; stroke-linejoin:round; stroke-width:4; stroke-opacity:1; fill:none" points="191.405,2187.74 200.854,2187.74 "/>
<polyline clip-path="url(#clip830)" style="stroke:#ffffff; stroke-linecap:round; stroke-linejoin:round; stroke-width:4; stroke-opacity:1; fill:none" points="191.405,1982.04 200.854,1982.04 "/>
<polyline clip-path="url(#clip830)" style="stroke:#ffffff; stroke-linecap:round; stroke-linejoin:round; stroke-width:4; stroke-opacity:1; fill:none" points="191.405,1879.19 200.854,1879.19 "/>
<polyline clip-path="url(#clip830)" style="stroke:#ffffff; stroke-linecap:round; stroke-linejoin:round; stroke-width:4; stroke-opacity:1; fill:none" points="191.405,1776.35 200.854,1776.35 "/>
<polyline clip-path="url(#clip830)" style="stroke:#ffffff; stroke-linecap:round; stroke-linejoin:round; stroke-width:4; stroke-opacity:1; fill:none" points="191.405,1673.5 200.854,1673.5 "/>
<polyline clip-path="url(#clip830)" style="stroke:#ffffff; stroke-linecap:round; stroke-linejoin:round; stroke-width:4; stroke-opacity:1; fill:none" points="191.405,1467.81 200.854,1467.81 "/>
<polyline clip-path="url(#clip830)" style="stroke:#ffffff; stroke-linecap:round; stroke-linejoin:round; stroke-width:4; stroke-opacity:1; fill:none" points="191.405,1364.96 200.854,1364.96 "/>
<polyline clip-path="url(#clip830)" style="stroke:#ffffff; stroke-linecap:round; stroke-linejoin:round; stroke-width:4; stroke-opacity:1; fill:none" points="191.405,1262.11 200.854,1262.11 "/>
<polyline clip-path="url(#clip830)" style="stroke:#ffffff; stroke-linecap:round; stroke-linejoin:round; stroke-width:4; stroke-opacity:1; fill:none" points="191.405,1159.27 200.854,1159.27 "/>
<polyline clip-path="url(#clip830)" style="stroke:#ffffff; stroke-linecap:round; stroke-linejoin:round; stroke-width:4; stroke-opacity:1; fill:none" points="191.405,953.573 200.854,953.573 "/>
<polyline clip-path="url(#clip830)" style="stroke:#ffffff; stroke-linecap:round; stroke-linejoin:round; stroke-width:4; stroke-opacity:1; fill:none" points="191.405,850.727 200.854,850.727 "/>
<polyline clip-path="url(#clip830)" style="stroke:#ffffff; stroke-linecap:round; stroke-linejoin:round; stroke-width:4; stroke-opacity:1; fill:none" points="191.405,747.88 200.854,747.88 "/>
<polyline clip-path="url(#clip830)" style="stroke:#ffffff; stroke-linecap:round; stroke-linejoin:round; stroke-width:4; stroke-opacity:1; fill:none" points="191.405,645.033 200.854,645.033 "/>
<polyline clip-path="url(#clip830)" style="stroke:#ffffff; stroke-linecap:round; stroke-linejoin:round; stroke-width:4; stroke-opacity:1; fill:none" points="191.405,439.339 200.854,439.339 "/>
<polyline clip-path="url(#clip830)" style="stroke:#ffffff; stroke-linecap:round; stroke-linejoin:round; stroke-width:4; stroke-opacity:1; fill:none" points="191.405,336.493 200.854,336.493 "/>
<polyline clip-path="url(#clip830)" style="stroke:#ffffff; stroke-linecap:round; stroke-linejoin:round; stroke-width:4; stroke-opacity:1; fill:none" points="191.405,233.646 200.854,233.646 "/>
<path clip-path="url(#clip830)" d="M121.086 2098.23 L137.405 2098.23 L137.405 2102.17 L115.461 2102.17 L115.461 2098.23 Q118.123 2095.48 122.706 2090.85 Q127.313 2086.2 128.493 2084.85 Q130.739 2082.33 131.618 2080.59 Q132.521 2078.84 132.521 2077.15 Q132.521 2074.39 130.577 2072.65 Q128.655 2070.92 125.553 2070.92 Q123.354 2070.92 120.901 2071.68 Q118.47 2072.45 115.692 2074 L115.692 2069.28 Q118.516 2068.14 120.97 2067.56 Q123.424 2066.98 125.461 2066.98 Q130.831 2066.98 134.026 2069.67 Q137.22 2072.35 137.22 2076.84 Q137.22 2078.97 136.41 2080.9 Q135.623 2082.79 133.516 2085.39 Q132.938 2086.06 129.836 2089.27 Q126.734 2092.47 121.086 2098.23 Z" fill="#ffffff" fill-rule="nonzero" fill-opacity="1" /><path clip-path="url(#clip830)" d="M127.822 1557.45 L116.016 1575.9 L127.822 1575.9 L127.822 1557.45 M126.595 1553.37 L132.475 1553.37 L132.475 1575.9 L137.405 1575.9 L137.405 1579.79 L132.475 1579.79 L132.475 1587.93 L127.822 1587.93 L127.822 1579.79 L112.22 1579.79 L112.22 1575.27 L126.595 1553.37 Z" fill="#ffffff" fill-rule="nonzero" fill-opacity="1" /><path clip-path="url(#clip830)" d="M125.877 1054.56 Q122.729 1054.56 120.878 1056.71 Q119.049 1058.86 119.049 1062.61 Q119.049 1066.34 120.878 1068.52 Q122.729 1070.67 125.877 1070.67 Q129.026 1070.67 130.854 1068.52 Q132.706 1066.34 132.706 1062.61 Q132.706 1058.86 130.854 1056.71 Q129.026 1054.56 125.877 1054.56 M135.16 1039.9 L135.16 1044.16 Q133.401 1043.33 131.595 1042.89 Q129.813 1042.45 128.053 1042.45 Q123.424 1042.45 120.97 1045.58 Q118.54 1048.7 118.192 1055.02 Q119.558 1053.01 121.618 1051.94 Q123.678 1050.85 126.155 1050.85 Q131.364 1050.85 134.373 1054.02 Q137.405 1057.17 137.405 1062.61 Q137.405 1067.94 134.257 1071.15 Q131.109 1074.37 125.877 1074.37 Q119.882 1074.37 116.711 1069.79 Q113.54 1065.18 113.54 1056.46 Q113.54 1048.26 117.428 1043.4 Q121.317 1038.52 127.868 1038.52 Q129.627 1038.52 131.41 1038.86 Q133.215 1039.21 135.16 1039.9 Z" fill="#ffffff" fill-rule="nonzero" fill-opacity="1" /><path clip-path="url(#clip830)" d="M125.553 543.054 Q122.22 543.054 120.299 544.837 Q118.401 546.619 118.401 549.744 Q118.401 552.869 120.299 554.651 Q122.22 556.434 125.553 556.434 Q128.887 556.434 130.808 554.651 Q132.729 552.846 132.729 549.744 Q132.729 546.619 130.808 544.837 Q128.91 543.054 125.553 543.054 M120.878 541.064 Q117.868 540.323 116.178 538.263 Q114.512 536.202 114.512 533.24 Q114.512 529.096 117.452 526.689 Q120.415 524.281 125.553 524.281 Q130.715 524.281 133.655 526.689 Q136.595 529.096 136.595 533.24 Q136.595 536.202 134.905 538.263 Q133.239 540.323 130.252 541.064 Q133.632 541.851 135.507 544.142 Q137.405 546.434 137.405 549.744 Q137.405 554.767 134.327 557.452 Q131.271 560.138 125.553 560.138 Q119.836 560.138 116.757 557.452 Q113.702 554.767 113.702 549.744 Q113.702 546.434 115.6 544.142 Q117.498 541.851 120.878 541.064 M119.165 533.679 Q119.165 536.364 120.831 537.869 Q122.521 539.374 125.553 539.374 Q128.563 539.374 130.252 537.869 Q131.965 536.364 131.965 533.679 Q131.965 530.994 130.252 529.49 Q128.563 527.985 125.553 527.985 Q122.521 527.985 120.831 529.49 Q119.165 530.994 119.165 533.679 Z" fill="#ffffff" fill-rule="nonzero" fill-opacity="1" /><path clip-path="url(#clip830)" d="M21.1282 1251.06 Q23.0606 1251.06 26.4422 1251.8 Q29.8238 1252.51 31.4341 1253.09 Q35.7175 1254.7 39.3245 1257.92 Q41.3213 1259.69 42.7706 1261.62 Q44.1876 1263.52 44.8962 1264.94 Q45.5725 1266.35 45.9267 1268.03 Q46.3132 1269.7 46.3454 1270.48 Q46.4098 1271.25 46.4098 1272.34 L56.2326 1274.86 Q58.7769 1275.37 58.9379 1275.63 Q59.0667 1275.69 59.1311 1275.85 Q59.1956 1275.98 59.1956 1276.11 L59.1956 1276.24 Q59.1956 1276.6 59.0345 1276.79 Q58.8735 1276.98 58.6803 1277.01 L58.5192 1277.01 Q58.0684 1277.01 52.2713 1275.5 Q49.3084 1274.73 46.2488 1274.05 Q45.9267 1279.2 43.6401 1282.39 Q41.3535 1285.55 36.9091 1285.55 Q34.1716 1285.55 25.7659 1282.36 Q21.7401 1280.85 20.0654 1280.85 Q19.3247 1280.85 18.8738 1281.01 Q18.3907 1281.17 18.2297 1281.49 Q18.0365 1281.81 18.0043 1282.01 Q17.9721 1282.17 17.9721 1282.49 Q17.9721 1284.39 19.8722 1286.16 Q21.7723 1287.93 26.1523 1289.16 Q26.9575 1289.41 27.1507 1289.57 Q27.344 1289.74 27.344 1290.22 Q27.3118 1291.02 26.6676 1291.02 Q26.41 1291.02 25.4116 1290.73 Q24.381 1290.44 22.8673 1289.77 Q21.3215 1289.06 19.9366 1288.09 Q18.5196 1287.13 17.5212 1285.61 Q16.5228 1284.07 16.5228 1282.3 Q16.5228 1279.88 18.1009 1278.4 Q19.6468 1276.89 21.9334 1276.89 Q22.3843 1276.89 22.8996 1276.98 Q23.4148 1277.08 23.7047 1277.18 Q23.9946 1277.24 24.542 1277.43 Q25.0573 1277.59 25.154 1277.63 Q29.4051 1279.27 32.1748 1280.11 Q34.9123 1280.94 35.7175 1281.07 Q36.4904 1281.17 37.4244 1281.17 Q43.93 1281.17 44.7995 1273.66 L1.22501 1262.71 Q0.323242 1262.52 0.130007 1262.36 Q-0.095434 1262.2 -0.095434 1261.72 Q-0.095434 1260.94 0.613095 1260.94 Q0.838536 1260.94 1.61148 1261.14 L44.9284 1272.02 Q44.9284 1270.99 44.8962 1270.35 Q44.8639 1269.7 44.5741 1268.35 Q44.252 1266.97 43.6723 1265.81 Q43.0926 1264.61 41.9332 1262.94 Q40.7416 1261.27 39.0669 1259.62 Q36.9735 1257.56 33.4631 1255.73 Q29.9526 1253.89 27.0541 1253.89 Q23.8013 1253.89 21.4503 1256.24 Q21.1282 1256.6 20.935 1256.79 Q20.7418 1256.95 20.4197 1257.11 Q20.0976 1257.24 19.679 1257.24 Q18.584 1257.24 17.5534 1256.21 Q16.5228 1255.18 16.5228 1253.95 Q16.5228 1252.86 17.5856 1251.96 Q18.6484 1251.06 21.1282 1251.06 Z" fill="#ffffff" fill-rule="nonzero" fill-opacity="1" /><path clip-path="url(#clip830)" d="M191.405 68.4762 Q191.405 65.7973 192.942 64.5237 Q194.479 63.2501 196.456 63.2501 Q198.52 63.2501 199.969 64.6115 Q201.462 65.929 201.462 68.2566 Q201.462 70.7599 199.706 72.1653 Q197.993 73.5706 195.533 73.2193 Q197.685 76.8205 201.638 78.4454 Q205.634 80.0703 209.323 80.0703 Q213.188 80.0703 216.306 76.7326 Q219.468 73.3949 219.468 65.2264 Q219.468 58.2875 216.745 54.291 Q214.066 50.2946 208.752 50.2946 L204.8 50.2946 Q203.438 50.2946 203.043 50.1628 Q202.648 50.0311 202.648 49.2845 Q202.648 48.4061 204.009 48.2305 Q205.371 48.2305 207.523 47.967 Q212.749 47.7913 215.516 43.2678 Q218.019 39.0518 218.019 33.0351 Q218.019 27.5455 215.384 25.2618 Q212.793 22.9342 209.411 22.9342 Q206.249 22.9342 202.78 24.2517 Q199.31 25.5692 197.422 28.5117 Q202.999 28.5117 202.999 33.0351 Q202.999 35.0114 201.726 36.3289 Q200.496 37.6025 198.432 37.6025 Q196.456 37.6025 195.138 36.3728 Q193.821 35.0992 193.821 32.9473 Q193.821 27.809 198.388 24.2517 Q202.999 20.6944 209.763 20.6944 Q216.438 20.6944 221.357 24.2078 Q226.319 27.7212 226.319 33.123 Q226.319 38.4369 222.806 42.7847 Q219.293 47.1325 213.715 48.9331 Q220.566 50.2946 224.65 54.9498 Q228.735 59.5611 228.735 65.2264 Q228.735 72.2531 223.201 77.4353 Q217.668 82.5736 209.587 82.5736 Q202.121 82.5736 196.763 78.5332 Q191.405 74.4929 191.405 68.4762 Z" fill="#ffffff" fill-rule="nonzero" fill-opacity="1" /><path clip-path="url(#clip830)" d="M237.31 79.1481 Q235.948 77.6988 235.948 75.8104 Q235.948 73.9219 237.31 72.5605 Q238.671 71.1552 240.735 71.1552 Q242.711 71.1552 244.029 72.4727 Q245.39 73.7463 245.39 75.8543 Q245.39 77.9184 243.941 79.2798 Q242.536 80.5973 240.735 80.5973 Q238.671 80.5973 237.31 79.1481 Z" fill="#ffffff" fill-rule="nonzero" fill-opacity="1" /><path clip-path="url(#clip830)" d="M260.699 68.4762 Q260.699 65.7973 262.236 64.5237 Q263.773 63.2501 265.75 63.2501 Q267.814 63.2501 269.263 64.6115 Q270.756 65.929 270.756 68.2566 Q270.756 70.7599 268.999 72.1653 Q267.287 73.5706 264.827 73.2193 Q266.979 76.8205 270.932 78.4454 Q274.928 80.0703 278.617 80.0703 Q282.482 80.0703 285.6 76.7326 Q288.762 73.3949 288.762 65.2264 Q288.762 58.2875 286.039 54.291 Q283.36 50.2946 278.046 50.2946 L274.094 50.2946 Q272.732 50.2946 272.337 50.1628 Q271.942 50.0311 271.942 49.2845 Q271.942 48.4061 273.303 48.2305 Q274.665 48.2305 276.817 47.967 Q282.043 47.7913 284.81 43.2678 Q287.313 39.0518 287.313 33.0351 Q287.313 27.5455 284.678 25.2618 Q282.087 22.9342 278.705 22.9342 Q275.543 22.9342 272.074 24.2517 Q268.604 25.5692 266.716 28.5117 Q272.293 28.5117 272.293 33.0351 Q272.293 35.0114 271.02 36.3289 Q269.79 37.6025 267.726 37.6025 Q265.75 37.6025 264.432 36.3728 Q263.115 35.0992 263.115 32.9473 Q263.115 27.809 267.682 24.2517 Q272.293 20.6944 279.056 20.6944 Q285.732 20.6944 290.651 24.2078 Q295.613 27.7212 295.613 33.123 Q295.613 38.4369 292.1 42.7847 Q288.586 47.1325 283.009 48.9331 Q289.86 50.2946 293.944 54.9498 Q298.029 59.5611 298.029 65.2264 Q298.029 72.2531 292.495 77.4353 Q286.962 82.5736 278.881 82.5736 Q271.415 82.5736 266.057 78.5332 Q260.699 74.4929 260.699 68.4762 Z" fill="#ffffff" fill-rule="nonzero" fill-opacity="1" /><path clip-path="url(#clip830)" d="M383.424 30.8393 Q383.424 29.39 383.029 28.2043 Q382.677 26.9746 382.106 26.1402 Q381.579 25.2618 380.569 24.6031 Q379.559 23.9004 378.725 23.4612 Q377.89 23.022 376.485 22.7585 Q375.08 22.4511 374.157 22.3194 Q373.235 22.1437 371.654 22.0559 Q370.073 21.968 369.283 21.968 Q368.536 21.968 367.043 21.968 Q362.344 21.968 361.553 22.0559 Q360.367 22.2315 359.928 22.9342 Q359.489 23.593 359.05 25.3936 L353.209 48.8453 L363.266 48.8453 Q368.756 48.8453 372.532 47.3082 Q376.309 45.7711 378.461 43.6192 Q380.833 41.2476 382.106 37.4269 Q383.424 33.6061 383.424 30.8393 M393.217 72.2531 Q393.217 72.7362 392.822 73.8341 Q392.471 74.932 391.592 76.4691 Q390.714 77.9623 389.528 79.3237 Q388.343 80.6852 386.454 81.6074 Q384.566 82.5736 382.414 82.5736 Q381.887 82.5736 381.36 82.5297 Q380.833 82.5297 379.515 82.3101 Q378.242 82.1344 377.188 81.7831 Q376.134 81.4757 374.816 80.7291 Q373.499 80.0264 372.576 79.0602 Q371.698 78.0502 371.083 76.4691 Q370.468 74.8442 370.468 72.8679 Q370.468 71.1113 371.918 65.2264 Q373.191 60.2198 373.191 58.9901 Q373.191 57.6287 372.752 56.3551 Q372.357 55.0815 371.347 53.764 Q370.381 52.4465 368.316 51.656 Q366.252 50.8216 363.354 50.8216 L352.682 50.8216 L346.709 74.6685 Q346.709 74.7125 346.577 75.3273 Q346.446 75.8982 346.446 76.2056 Q346.446 76.7766 346.797 77.1279 Q347.192 77.4792 348.158 77.6549 Q349.125 77.7867 349.871 77.8306 Q350.662 77.8306 352.287 77.8306 Q354.307 77.8306 354.658 78.1819 Q354.834 78.4015 354.834 78.7967 Q354.834 79.4116 354.658 79.8508 Q354.526 80.246 354.175 80.3778 Q353.868 80.5095 353.648 80.5534 Q353.429 80.5973 353.033 80.5973 L341.615 80.3338 L330.284 80.5973 Q329.011 80.5973 329.011 79.5873 Q329.011 78.7089 329.318 78.3576 Q329.625 77.9623 330.021 77.9184 Q330.416 77.8306 331.426 77.8306 Q333.622 77.8306 334.939 77.6988 Q336.257 77.5671 337.091 77.3914 Q337.97 77.1718 338.409 76.557 Q338.892 75.9421 339.112 75.4151 Q339.331 74.8442 339.639 73.5706 L351.672 25.2618 Q352.023 23.8126 352.023 23.593 Q352.023 22.7585 351.496 22.539 Q351.013 22.2755 349.608 22.1437 L346.182 21.968 Q345.128 21.968 344.689 21.9241 Q344.294 21.8802 343.986 21.6606 Q343.679 21.441 343.679 20.9579 Q343.679 19.7283 344.206 19.4648 Q344.733 19.1573 346.27 19.1573 L371.918 19.1573 Q380.657 19.1573 386.191 22.9781 Q391.768 26.7989 391.768 32.6399 Q391.768 35.2749 390.582 37.7343 Q389.397 40.1936 387.42 42.126 Q385.488 44.0583 382.897 45.6833 Q380.306 47.2643 377.539 48.3622 Q374.816 49.4162 372.005 50.0311 Q373.235 50.4702 374.377 51.129 Q375.563 51.7877 377.056 53.0174 Q378.593 54.2471 379.515 56.2234 Q380.438 58.1996 380.438 60.6151 Q380.438 62.3278 380.086 64.875 Q379.208 72.1213 379.208 75.1077 Q379.208 77.9623 379.954 79.2798 Q380.701 80.5973 382.809 80.5973 Q384.873 80.5973 387.157 78.7528 Q389.484 76.8644 390.978 72.4288 Q391.329 71.1552 392.163 71.1552 Q392.207 71.1552 392.251 71.1552 Q392.339 71.1552 392.515 71.243 Q392.69 71.2869 392.822 71.4187 Q392.998 71.5065 393.086 71.7261 Q393.217 71.9457 393.217 72.2531 Z" fill="#ffffff" fill-rule="nonzero" fill-opacity="1" /><path clip-path="url(#clip830)" d="M431.134 70.189 Q431.486 70.5842 431.486 70.9795 Q431.486 71.3748 430.607 72.5166 Q429.773 73.6584 427.972 75.1955 Q426.172 76.7326 423.844 78.1819 Q421.517 79.6312 418.091 80.5973 Q414.666 81.6074 411.064 81.6074 Q404.609 81.6074 400.744 76.9961 Q396.923 72.3848 396.923 65.3142 Q396.923 60.7907 398.416 56.7943 Q399.909 52.7539 402.325 49.8993 Q404.784 47.0447 407.858 44.9806 Q410.977 42.8726 414.226 41.8625 Q417.476 40.8524 420.507 40.8524 Q424.942 40.8524 427.533 43.0922 Q430.124 45.3319 430.124 48.494 Q430.124 49.2405 429.905 50.1628 Q429.729 51.0851 429.114 52.5343 Q428.543 53.9836 427.05 55.4329 Q425.557 56.8382 423.361 57.7605 Q418.486 59.8246 409.615 59.8246 L404.828 59.8246 Q403.423 65.4899 403.423 69.1789 Q403.423 70.6282 403.686 72.1213 Q403.95 73.5706 404.652 75.4151 Q405.399 77.2596 407.068 78.4454 Q408.781 79.5873 411.24 79.5873 Q412.031 79.5873 412.865 79.5433 Q413.743 79.4994 415.939 79.0163 Q418.179 78.5332 420.155 77.6988 Q422.131 76.8644 424.635 75.0638 Q427.182 73.2193 429.202 70.716 Q429.905 69.7937 430.388 69.7937 Q430.783 69.7937 431.134 70.189 M427.138 48.494 Q427.138 46.0785 425.337 44.4536 Q423.581 42.8287 420.507 42.8287 Q419.54 42.8287 418.355 43.0482 Q417.169 43.2678 415.193 44.1901 Q413.26 45.1123 411.547 46.6494 Q409.835 48.1426 408.122 51.0851 Q406.409 53.9836 405.399 57.8483 L409.088 57.8483 Q410.362 57.8483 411.284 57.8483 Q412.206 57.8044 414.226 57.6287 Q416.29 57.453 417.784 57.1456 Q419.277 56.7943 421.165 56.0916 Q423.054 55.3889 424.239 54.4667 Q425.469 53.5005 426.304 51.9634 Q427.138 50.4263 427.138 48.494 Z" fill="#ffffff" fill-rule="nonzero" fill-opacity="1" /><path clip-path="url(#clip830)" d="M476.463 45.0684 Q476.463 45.1123 476.2 46.6934 L466.187 86.614 Q465.66 88.722 464.166 90.83 Q462.717 92.982 460.39 94.8265 Q458.106 96.7149 454.592 97.8568 Q451.123 99.0425 447.127 99.0425 Q440.759 99.0425 437.948 97.6811 Q435.181 96.3636 435.181 93.5529 Q435.181 91.0935 436.718 89.6882 Q438.255 88.3268 440.012 88.3268 Q441.681 88.3268 442.559 89.2929 Q443.438 90.2591 443.438 91.4888 Q443.438 92.8502 442.515 94.2116 Q441.593 95.617 439.748 96.144 Q442.691 97.0663 446.951 97.0663 Q455.954 97.0663 459.819 87.5362 Q459.906 87.4045 459.906 87.3606 L462.893 75.459 L462.761 75.3712 Q462.014 76.2496 460.829 77.2596 Q459.687 78.2258 457.227 79.4116 Q454.768 80.5973 452.353 80.5973 Q447.302 80.5973 443.833 76.7326 Q440.407 72.824 440.407 66.3682 Q440.407 61.6691 442.296 56.97 Q444.228 52.2269 447.214 48.7575 Q450.245 45.2441 454.109 43.0482 Q458.018 40.8524 461.795 40.8524 Q464.43 40.8524 466.67 42.4334 Q468.909 43.9705 470.139 46.5177 Q470.359 44.4097 471.544 43.5313 Q472.774 42.653 473.828 42.653 Q475.014 42.653 475.717 43.3117 Q476.463 43.9266 476.463 45.0684 M469.085 50.5581 Q469.085 50.2946 468.909 49.5919 Q468.734 48.8453 468.207 47.6595 Q467.724 46.4738 466.977 45.4198 Q466.23 44.3657 464.869 43.6192 Q463.552 42.8287 461.883 42.8287 Q459.16 42.8287 456.437 45.1123 Q453.714 47.3521 451.826 50.8216 Q450.069 54.1593 448.4 60.6151 Q446.775 67.0709 446.775 70.3647 Q446.775 73.6145 448.181 76.1178 Q449.586 78.6211 452.616 78.6211 Q456.13 78.6211 459.906 75.3712 Q463.815 71.9896 464.474 69.0911 L468.822 51.9195 Q469.085 50.8655 469.085 50.5581 Z" fill="#ffffff" fill-rule="nonzero" fill-opacity="1" /><path clip-path="url(#clip830)" d="M527.841 67.7296 Q526.699 73.3949 525.162 76.6448 Q522.659 81.6074 518.486 81.6074 Q515.588 81.6074 513.392 79.9825 Q511.24 78.3137 510.494 75.5469 Q509.659 76.6448 508.913 77.3914 Q508.21 78.138 506.848 79.2798 Q505.487 80.3778 503.642 80.9926 Q501.842 81.6074 499.778 81.6074 Q498.197 81.6074 496.748 81.3 Q495.298 81.0365 493.761 80.2899 Q492.268 79.4994 491.17 78.3137 Q490.116 77.1279 489.413 75.1955 Q488.711 73.2632 488.711 70.8038 Q488.711 67.7296 489.896 63.5575 Q491.126 59.3854 493.937 51.9195 Q495.474 47.967 495.474 45.7711 Q495.474 44.761 495.254 44.1022 Q495.035 43.4435 494.596 43.2239 Q494.2 42.9604 493.937 42.9165 Q493.673 42.8287 493.234 42.8287 Q490.511 42.8287 488.14 45.5954 Q485.768 48.3622 484.143 53.9836 Q483.792 55.0815 483.572 55.345 Q483.353 55.6085 482.694 55.6085 Q481.596 55.5646 481.596 54.6863 Q481.596 54.3349 481.991 52.9735 Q482.387 51.5682 483.309 49.504 Q484.275 47.396 485.593 45.5076 Q486.91 43.5752 488.974 42.2138 Q491.082 40.8524 493.498 40.8524 Q496.791 40.8524 498.812 43.0043 Q500.876 45.1123 500.876 48.2305 Q500.876 50.1628 499.339 53.8958 Q494.464 66.8513 494.464 72.2531 Q494.464 79.5873 500.041 79.5873 Q501.886 79.5873 503.599 78.8407 Q505.355 78.0941 506.497 77.0401 Q507.639 75.986 508.517 74.8442 Q509.44 73.7024 509.835 72.9558 Q510.274 72.2092 510.318 72.0335 L517.037 44.9806 Q517.301 43.9266 517.784 43.2239 Q518.311 42.4773 518.926 42.2138 Q519.54 41.9503 519.892 41.9064 Q520.243 41.8186 520.551 41.8186 Q521.648 41.8186 522.395 42.4773 Q523.186 43.1361 523.186 44.2779 Q523.186 44.4975 522.922 45.5515 Q522.703 46.5616 522.351 48.0548 Q522 49.504 521.824 50.2946 Q520.419 55.8281 520.287 56.399 L517.784 66.1047 Q517.652 66.6756 517.213 68.5201 Q516.818 70.3647 516.598 71.3308 Q516.378 72.2531 516.159 73.5267 Q515.983 74.7564 515.983 75.459 Q515.983 77.6549 516.642 78.6211 Q517.301 79.5873 518.75 79.5873 Q520.111 79.5873 521.165 78.665 Q522.263 77.6988 523.098 75.8543 Q523.932 73.9659 524.415 72.4288 Q524.898 70.8917 525.513 68.4762 Q525.733 67.4222 525.908 67.1587 Q526.128 66.8513 526.743 66.8513 Q527.841 66.8513 527.841 67.7296 Z" fill="#ffffff" fill-rule="nonzero" fill-opacity="1" /><path clip-path="url(#clip830)" d="M552.489 19.1573 L539.534 71.1552 Q539.007 73.2193 539.007 75.459 Q539.007 79.5873 541.729 79.5873 Q543.003 79.5873 544.057 78.7528 Q545.111 77.8745 545.902 76.1617 Q546.736 74.405 547.263 72.7362 Q547.834 71.0673 548.537 68.4762 Q548.756 67.4661 548.976 67.1587 Q549.195 66.8513 549.81 66.8513 Q550.908 66.8513 550.908 67.7296 Q549.81 73.1314 548.185 76.557 Q545.814 81.6074 541.422 81.6074 Q538.128 81.6074 535.669 79.3237 Q533.253 76.9961 533.253 73.3071 Q533.253 71.9018 533.693 70.2329 L545.023 25.2618 L545.331 23.5051 Q545.331 23.022 545.155 22.7585 Q544.979 22.495 543.925 22.2315 Q542.915 21.968 540.895 21.968 Q540.061 21.968 539.665 21.9241 Q539.314 21.8802 538.963 21.6606 Q538.655 21.441 538.655 20.9579 Q538.655 20.1674 538.963 19.7283 Q539.314 19.2891 539.577 19.2013 Q539.841 19.1134 540.368 19.0695 Q541.115 19.0256 543.618 18.806 Q546.121 18.5425 548.273 18.3668 Q550.425 18.1912 551.347 18.1912 Q551.874 18.1912 552.138 18.4547 Q552.445 18.6743 552.489 18.9378 L552.489 19.1573 Z" fill="#ffffff" fill-rule="nonzero" fill-opacity="1" /><path clip-path="url(#clip830)" d="M603.502 67.7296 Q602.316 73.3949 600.779 76.6448 Q598.32 81.6074 594.148 81.6074 Q590.986 81.6074 588.746 79.6751 Q586.506 77.7427 585.979 74.8442 Q580.226 81.6074 574.253 81.6074 Q568.983 81.6074 565.646 77.611 Q562.308 73.5706 562.308 67.2026 Q562.308 60.7907 565.47 54.6423 Q568.676 48.494 573.726 44.6732 Q578.777 40.8524 583.959 40.8524 Q589.449 40.8524 592.259 46.6055 Q592.479 45.0245 593.489 43.8387 Q594.499 42.653 596.036 42.653 Q597.222 42.653 597.925 43.3117 Q598.627 43.9266 598.627 45.0684 Q598.627 45.6393 598.012 48.1426 L594.763 60.7029 L592.786 68.8276 Q592.04 71.8139 591.82 72.9119 Q591.644 74.0098 591.644 75.459 Q591.644 79.5873 594.323 79.5873 Q595.641 79.5873 596.695 78.7528 Q597.749 77.9184 598.583 76.1617 Q599.418 74.405 599.945 72.7801 Q600.472 71.1113 601.174 68.4762 Q601.394 67.4222 601.57 67.1587 Q601.789 66.8513 602.404 66.8513 Q603.502 66.8513 603.502 67.7296 M591.161 50.7337 Q591.161 50.3385 590.854 49.2405 Q590.546 48.1426 589.844 46.6055 Q589.141 45.0684 587.604 43.9705 Q586.111 42.8287 584.091 42.8287 Q581.368 42.8287 578.513 45.1563 Q575.703 47.4839 573.638 51.4364 Q572.057 54.5984 570.345 61.2299 Q568.676 67.8614 568.676 71.1552 Q568.676 73.1754 569.115 74.976 Q569.598 76.7326 570.959 78.1819 Q572.321 79.5873 574.429 79.5873 Q579.567 79.5873 584.618 73.2193 Q585.584 72.1213 585.803 71.6822 Q586.067 71.1991 586.418 69.8816 L590.898 52.2708 Q591.161 50.9533 591.161 50.7337 Z" fill="#ffffff" fill-rule="nonzero" fill-opacity="1" /><path clip-path="url(#clip830)" d="M643.884 46.6934 Q643.884 49.021 642.347 50.5141 Q640.854 52.0073 638.921 52.0073 Q637.253 52.0073 636.374 51.0411 Q635.496 50.075 635.496 48.8453 Q635.496 47.0886 636.857 45.6393 Q638.219 44.1901 640.195 43.8827 Q638.746 42.8287 636.418 42.8287 Q632.597 42.8287 629.216 45.7711 Q627.723 47.1325 626.098 49.6358 Q624.473 52.0952 624.165 53.1492 L621.311 64.875 Q621.047 66.1925 619.422 72.5166 Q617.841 78.7967 617.709 79.0602 Q617.27 80.2899 616.304 80.9487 Q615.338 81.6074 614.372 81.6074 Q613.274 81.6074 612.527 80.9487 Q611.781 80.2899 611.781 79.1481 Q611.781 78.9724 611.912 78.3137 Q612.044 77.6549 612.264 76.7326 Q612.483 75.8104 612.571 75.2834 L617.797 54.5106 Q618.763 50.7337 618.983 49.548 Q619.247 48.3183 619.247 46.9569 Q619.247 44.5853 618.5 43.707 Q617.753 42.8287 616.436 42.8287 Q614.152 42.8287 612.659 45.5515 Q611.166 48.2744 609.892 53.5444 Q609.497 54.9937 609.233 55.3011 Q609.014 55.6085 608.355 55.6085 Q607.257 55.5646 607.257 54.6863 Q607.257 54.4667 607.609 53.0613 Q607.96 51.6121 608.619 49.504 Q609.321 47.3521 610.068 45.9907 Q610.507 45.0684 610.902 44.4536 Q611.298 43.8387 612.088 42.8726 Q612.879 41.9064 614.064 41.3794 Q615.25 40.8524 616.699 40.8524 Q619.861 40.8524 622.101 42.7847 Q624.385 44.7171 624.912 47.7474 Q626.01 46.1664 627.371 44.8049 Q628.733 43.3996 631.236 42.126 Q633.739 40.8524 636.418 40.8524 Q639.756 40.8524 641.82 42.5651 Q643.884 44.234 643.884 46.6934 Z" fill="#ffffff" fill-rule="nonzero" fill-opacity="1" /><path clip-path="url(#clip830)" d="M655.327 58.1118 Q655.327 42.9165 660.992 30.6636 Q663.408 25.5253 666.789 21.2214 Q670.171 16.9176 672.411 15.0291 Q674.65 13.1407 675.265 13.1407 Q676.143 13.1407 676.187 14.019 Q676.187 14.4582 675.002 15.5561 Q660.509 30.3123 660.553 58.1118 Q660.553 85.9991 674.65 100.184 Q676.187 101.721 676.187 102.205 Q676.187 103.083 675.265 103.083 Q674.65 103.083 672.498 101.282 Q670.346 99.4817 667.009 95.3535 Q663.671 91.2253 661.256 86.1748 Q655.327 73.9219 655.327 58.1118 Z" fill="#ffffff" fill-rule="nonzero" fill-opacity="1" /><path clip-path="url(#clip830)" d="M731.413 67.7296 Q731.413 68.081 731.018 69.4424 Q730.622 70.8038 729.656 72.9119 Q728.734 75.0199 727.46 76.9522 Q726.187 78.8407 724.079 80.246 Q722.015 81.6074 719.643 81.6074 Q716.481 81.6074 714.373 79.4994 Q712.265 77.3914 712.265 74.2294 Q712.265 72.4727 713.187 70.0572 Q719.028 54.4667 719.028 49.1088 Q719.028 42.8287 714.154 42.8287 Q711.738 42.8287 709.454 43.7509 Q707.215 44.6293 705.678 45.8589 Q704.14 47.0886 702.735 48.8014 Q701.374 50.4702 700.671 51.6121 Q700.012 52.71 699.485 53.8079 L698.343 58.2875 Q698.08 59.5171 696.806 64.3041 L694.83 72.4288 Q693.425 78.4893 693.117 79.0602 Q692.678 80.2899 691.712 80.9487 Q690.746 81.6074 689.78 81.6074 Q688.682 81.6074 687.935 80.9487 Q687.188 80.2899 687.188 79.1481 Q687.188 78.9724 687.32 78.3137 Q687.452 77.6549 687.672 76.7326 Q687.891 75.8104 687.979 75.2834 L693.205 54.5106 Q694.171 50.7337 694.391 49.548 Q694.654 48.3183 694.654 46.9569 Q694.654 42.8287 691.844 42.8287 Q689.56 42.8287 688.067 45.5515 Q686.574 48.2744 685.3 53.5444 Q684.905 54.9937 684.641 55.3011 Q684.422 55.6085 683.763 55.6085 Q682.665 55.5646 682.665 54.6863 Q682.665 54.4667 683.016 53.0174 Q683.368 51.5682 684.026 49.504 Q684.729 47.396 685.388 45.9907 Q685.959 44.9367 686.266 44.4536 Q686.618 43.9266 687.452 42.9165 Q688.33 41.8625 689.472 41.3794 Q690.658 40.8524 692.107 40.8524 Q695.357 40.8524 697.729 42.9604 Q700.1 45.0245 700.407 48.6696 Q706.248 40.8524 714.417 40.8524 Q719.248 40.8524 722.015 43.3996 Q724.781 45.9468 724.781 50.4702 Q724.781 51.5242 724.562 52.8857 Q724.386 54.2032 723.947 55.872 Q723.552 57.5409 723.2 58.8145 Q722.849 60.0881 722.146 62.1522 Q721.444 64.1724 721.136 65.0507 Q720.829 65.929 720.082 67.9931 Q719.38 70.0133 719.292 70.2329 Q717.667 74.3172 717.667 76.6448 Q717.667 78.1819 718.15 78.8846 Q718.677 79.5873 719.819 79.5873 Q722.893 79.5873 725.177 76.557 Q727.504 73.4828 728.997 68.4762 Q729.349 67.3783 729.524 67.1148 Q729.744 66.8513 730.359 66.8513 Q731.413 66.8513 731.413 67.7296 Z" fill="#ffffff" fill-rule="nonzero" fill-opacity="1" /><path clip-path="url(#clip830)" d="M761.039 66.9391 Q761.127 65.8412 762.84 65.8412 L817.956 65.8412 Q820.547 65.8412 820.591 66.8513 Q820.591 67.9492 818.131 67.9053 L763.454 67.9053 Q761.039 67.9492 761.039 66.9391 M761.039 49.3723 Q761.039 48.2744 762.927 48.3183 L817.868 48.3183 Q820.547 48.3183 820.591 49.3723 Q820.591 50.3824 818.307 50.3824 L762.84 50.3824 Q761.039 50.3824 761.039 49.3723 Z" fill="#ffffff" fill-rule="nonzero" fill-opacity="1" /><path clip-path="url(#clip830)" d="M855.29 80.5973 Q855.29 78.9724 855.422 78.4893 Q855.598 78.0062 856.3 77.2596 L873.56 58.024 Q883.002 47.396 883.002 38.1295 Q883.002 32.1129 879.84 27.809 Q876.722 23.5051 870.968 23.5051 Q867.016 23.5051 863.678 25.9206 Q860.341 28.336 858.803 32.6399 Q859.067 32.5521 859.989 32.5521 Q862.229 32.5521 863.459 33.9574 Q864.732 35.3627 864.732 37.2512 Q864.732 39.6666 863.151 40.8524 Q861.614 41.9942 860.077 41.9942 Q859.462 41.9942 858.628 41.8625 Q857.837 41.7307 856.564 40.501 Q855.29 39.2275 855.29 36.9877 Q855.29 30.7075 860.033 25.701 Q864.82 20.6944 872.11 20.6944 Q880.367 20.6944 885.769 25.6132 Q891.214 30.488 891.214 38.1295 Q891.214 40.8085 890.38 43.2678 Q889.589 45.6833 888.491 47.5717 Q887.437 49.4601 884.539 52.4904 Q881.64 55.5207 879.313 57.6726 Q876.985 59.8246 871.759 64.3919 L862.229 73.6584 L878.434 73.6584 Q886.339 73.6584 886.954 72.9558 Q887.833 71.6822 888.931 64.9629 L891.214 64.9629 L888.667 80.5973 L855.29 80.5973 Z" fill="#ffffff" fill-rule="nonzero" fill-opacity="1" /><path clip-path="url(#clip830)" d="M900.193 51.8317 Q900.193 38.6126 903.531 31.4102 Q908.186 20.6944 919.165 20.6944 Q921.493 20.6944 923.908 21.3532 Q926.368 21.968 929.442 24.3835 Q932.56 26.7989 934.448 30.7515 Q938.05 38.393 938.05 51.8317 Q938.05 64.9629 934.712 72.1213 Q929.837 82.5736 919.077 82.5736 Q915.037 82.5736 910.909 80.5095 Q906.825 78.4454 904.233 73.4828 Q900.193 66.0608 900.193 51.8317 M907.659 50.7337 Q907.659 64.3041 908.625 69.7059 Q909.723 75.5469 912.709 78.0941 Q915.74 80.5973 919.077 80.5973 Q922.679 80.5973 925.665 77.9184 Q928.695 75.1955 929.618 69.3546 Q930.628 63.6014 930.584 50.7337 Q930.584 38.2174 929.705 33.2108 Q928.52 27.3698 925.358 25.0422 Q922.239 22.6707 919.077 22.6707 Q917.892 22.6707 916.618 23.022 Q915.388 23.3734 913.588 24.3835 Q911.787 25.3936 910.382 27.8968 Q909.02 30.4001 908.362 34.177 Q907.659 39.0518 907.659 50.7337 Z" fill="#ffffff" fill-rule="nonzero" fill-opacity="1" /><path clip-path="url(#clip830)" d="M946.896 102.205 Q946.896 101.765 948.038 100.667 Q962.531 85.9113 962.531 58.1118 Q962.531 30.2244 948.609 16.1271 Q946.896 14.5021 946.896 14.019 Q946.896 13.1407 947.774 13.1407 Q948.389 13.1407 950.541 14.9413 Q952.737 16.7419 956.031 20.8701 Q959.368 24.9983 961.828 30.0488 Q967.757 42.3016 967.757 58.1118 Q967.757 73.3071 962.091 85.56 Q959.676 90.6983 956.294 95.0021 Q952.913 99.306 950.673 101.194 Q948.433 103.083 947.774 103.083 Q946.896 103.083 946.896 102.205 Z" fill="#ffffff" fill-rule="nonzero" fill-opacity="1" /><polyline clip-path="url(#clip832)" style="stroke:#64014a; stroke-linecap:round; stroke-linejoin:round; stroke-width:28; stroke-opacity:1; fill:none" points="286.538,2342.01 318.732,2295.72 350.925,2282.62 383.119,2264.68 415.313,2236.36 447.507,2257.54 479.7,2207.33 511.894,2191.96 544.088,2190.1 576.282,2195.1 608.475,2177.41 640.669,2176.51 672.863,2154.23 705.057,2158.06 737.25,2145.83 769.444,2138.52 801.638,2143.44 833.832,2141.59 866.025,2142.54 898.219,2140.09 930.413,2133.4 962.607,2129.22 994.801,2128.29 1026.99,2139.17 1059.19,2136.48 1091.38,2124.58 1123.58,2121.81 1155.77,2125.37 1187.96,2124.07 1220.16,2120.32 1252.35,2116.2 1284.54,2113.27 1316.74,2125.72 1348.93,2118.43 1381.13,2122.56 1413.32,2111.84 1445.51,2120.3 1477.71,2115.87 1509.9,2112.45 1542.09,2116.96 1574.29,2113.1 1606.48,2111.2 1638.68,2111.77 1670.87,2110.51 1703.06,2108.74 1735.26,2107.24 1767.45,2106.61 1799.64,2108.11 1831.84,2109.62 1864.03,2108.45 1896.23,2111.73 1928.42,2105.34 1960.61,2109.64 1992.81,2107.76 2025,2106.68 2057.19,2103.66 2089.39,2101.59 2121.58,2104.45 2153.78,2105.16 2185.97,2103.59 2218.16,2103.73 2250.36,2102.79 2282.55,2103.16 2314.74,2105.23 2346.94,2100.43 2379.13,2102.86 2411.33,2098.75 2443.52,2101.6 2475.71,2101.1 2507.91,2100.17 2540.1,2100.37 2572.29,2101.91 2604.49,2101.28 2636.68,2101.43 2668.88,2098.93 2701.07,2099.58 2733.26,2099.07 2765.46,2100.29 2797.65,2097.79 2829.84,2099.39 2862.04,2101.25 2894.23,2099.15 2926.43,2099.95 2958.62,2097.89 2990.81,2097.88 3023.01,2098.22 3055.2,2097.28 3087.4,2097.07 3119.59,2096.85 3151.78,2096.85 3183.98,2099.21 3216.17,2097.81 3248.36,2097.46 3280.56,2095.69 3312.75,2098.15 3344.95,2095.71 3377.14,2097.17 3409.33,2097.56 3441.53,2097.67 "/>
<polyline clip-path="url(#clip832)" style="stroke:#9d3b84; stroke-linecap:round; stroke-linejoin:round; stroke-width:28; stroke-opacity:1; fill:none" points="302.635,2342.01 334.828,2329.76 367.022,2273.52 399.216,2251.34 431.41,2219.3 463.603,2179.92 495.797,2166.52 527.991,2130.12 560.185,2091.3 592.379,2072.57 624.572,2059.89 656.766,2017.15 688.96,1993.87 721.154,1958.17 753.347,1960.71 785.541,1925.77 817.735,1902.33 849.929,1881.22 882.122,1843.03 914.316,1834.46 946.51,1795.71 978.704,1776.19 1010.9,1767.18 1043.09,1729.77 1075.28,1722.43 1107.48,1677.58 1139.67,1655.92 1171.87,1641.92 1204.06,1618.31 1236.25,1597.13 1268.45,1561.79 1300.64,1563.76 1332.84,1535.53 1365.03,1523.56 1397.22,1508.93 1429.42,1485.68 1461.61,1453.38 1493.8,1446.44 1526,1416.58 1558.19,1374.7 1590.39,1370.57 1622.58,1347.4 1654.77,1346.37 1686.97,1314.01 1719.16,1291.7 1751.35,1261.94 1783.55,1237.85 1815.74,1223.23 1847.94,1215.3 1880.13,1193.34 1912.32,1170.72 1944.52,1141.37 1976.71,1138.79 2008.9,1098.74 2041.1,1087.67 2073.29,1066.73 2105.49,1055.13 2137.68,1035.87 2169.87,1016.47 2202.07,984.089 2234.26,960.724 2266.45,961.122 2298.65,924.534 2330.84,912.162 2363.04,903.109 2395.23,890.634 2427.42,861.776 2459.62,840.63 2491.81,819.635 2524,813.802 2556.2,797.788 2588.39,784.101 2620.59,736.536 2652.78,729.539 2684.97,724.215 2717.17,729.539 2749.36,686.247 2781.55,654.322 2813.75,649.535 2845.94,602.262 2878.14,592.645 2910.33,582.345 2942.52,551.709 2974.72,539.656 3006.91,552.995 3039.1,508.593 3071.3,496.069 3103.49,482.431 3135.69,457.532 3167.88,436.748 3200.07,419.469 3232.27,420.955 3264.46,393.165 3296.65,369.804 3328.85,357.65 3361.04,328.509 3393.24,330.951 3425.43,309.787 3457.62,307.887 "/>
<polyline clip-path="url(#clip832)" style="stroke:#c86fb1; stroke-linecap:round; stroke-linejoin:round; stroke-width:28; stroke-opacity:1; fill:none" points="318.732,2342.01 350.925,2333.74 383.119,2289.87 415.313,2263.53 447.507,2222.74 479.7,2190.31 511.894,2155.28 544.088,2137.15 576.282,2104.84 608.475,2084.81 640.669,2057.05 672.863,2024.92 705.057,1987.26 737.25,1965.69 769.444,1951.61 801.638,1927.02 833.832,1903.65 866.025,1866.9 898.219,1840.67 930.413,1807.81 962.607,1796.25 994.801,1754.43 1026.99,1747.83 1059.19,1720.42 1091.38,1705.94 1123.58,1670.96 1155.77,1658.87 1187.96,1624.54 1220.16,1604.51 1252.35,1584.27 1284.54,1563.76 1316.74,1555.1 1348.93,1509.47 1381.13,1489.79 1413.32,1493.43 1445.51,1449.55 1477.71,1419.29 1509.9,1421.95 1542.09,1388.73 1574.29,1359.3 1606.48,1346.25 1638.68,1310.35 1670.87,1273.19 1703.06,1262.58 1735.26,1256.97 1767.45,1241.11 1799.64,1201.56 1831.84,1193.03 1864.03,1157.82 1896.23,1144.12 1928.42,1120.02 1960.61,1092.1 1992.81,1081.21 2025,1061.47 2057.19,1056.67 2089.39,1034.56 2121.58,992.328 2153.78,989.961 2185.97,968.1 2218.16,955.367 2250.36,920.465 2282.55,902.435 2314.74,877.163 2346.94,839.254 2379.13,843.664 2411.33,804.116 2443.52,805.826 2475.71,784.284 2507.91,767.79 2540.1,741.209 2572.29,728.662 2604.49,706.736 2636.68,679.724 2668.88,673.504 2701.07,635.324 2733.26,624.253 2765.46,609.101 2797.65,594.927 2829.84,577.467 2862.04,537.49 2894.23,517.827 2926.43,496.748 2958.62,502.406 2990.81,476.99 3023.01,455.42 3055.2,416.319 3087.4,415.702 3119.59,383.975 3151.78,380.203 3183.98,340.579 3216.17,335.565 3248.36,307.131 3280.56,318.351 3312.75,292.895 3344.95,275.946 3377.14,230.137 3409.33,217.818 3441.53,197.526 "/>
<path clip-path="url(#clip830)" d="M303.45 545.924 L821.713 545.924 L821.713 208.964 L303.45 208.964  Z" fill="#7f7f7f" fill-rule="evenodd" fill-opacity="1"/>
<polyline clip-path="url(#clip830)" style="stroke:#ffffff; stroke-linecap:round; stroke-linejoin:round; stroke-width:4; stroke-opacity:1; fill:none" points="303.45,545.924 821.713,545.924 821.713,208.964 303.45,208.964 303.45,545.924 "/>
<polyline clip-path="url(#clip830)" style="stroke:#64014a; stroke-linecap:round; stroke-linejoin:round; stroke-width:32.5; stroke-opacity:1; fill:none" points="340.799,293.204 564.889,293.204 "/>
<path clip-path="url(#clip830)" d="M637.52 290.023 Q637.52 292.193 636.188 293.487 Q634.894 294.781 633.257 294.781 Q631.811 294.781 631.049 293.944 Q630.288 293.106 630.288 292.041 Q630.288 291.584 630.479 291.013 Q630.669 290.404 631.088 289.681 Q631.544 288.958 632.496 288.425 Q633.447 287.892 634.741 287.816 Q634.475 287.549 634.399 287.511 Q633.828 287.055 632.762 286.902 Q632.61 286.826 632.077 286.826 Q629.451 286.826 626.787 288.767 Q624.16 290.671 620.925 294.286 Q616.853 298.511 614.226 300.072 Q625.759 301.594 625.759 308.255 Q625.759 309.359 625.454 310.691 Q624.845 313.203 624.845 315.03 Q624.845 318.684 627.319 318.684 Q629.717 318.684 631.24 316.248 Q632.8 313.812 634.094 309.054 Q634.285 308.179 634.475 307.912 Q634.665 307.646 635.198 307.646 Q636.15 307.646 636.15 308.407 Q635.274 312.86 633.333 316.286 Q630.859 320.435 627.167 320.435 Q624.084 320.435 622.029 318.303 Q620.012 316.134 620.012 312.708 Q620.012 311.871 620.316 309.968 Q620.545 309.206 620.545 308.331 Q620.545 306.542 619.555 305.21 Q618.565 303.84 616.967 303.155 Q615.368 302.47 614.036 302.165 Q612.742 301.823 611.486 301.708 Q607.68 317.808 607.147 318.798 Q606.804 319.483 606.043 319.94 Q605.282 320.435 604.483 320.435 Q603.721 320.435 602.96 319.902 Q602.237 319.407 602.237 318.227 Q602.237 317.618 602.541 316.514 L613.846 271.602 L614.074 270.079 Q614.074 269.623 613.884 269.394 Q613.732 269.128 612.818 268.937 Q611.943 268.747 610.192 268.747 Q609.469 268.747 609.126 268.709 Q608.822 268.671 608.555 268.481 Q608.289 268.252 608.289 267.796 Q608.289 267.149 608.555 266.806 Q608.86 266.425 609.088 266.349 Q609.316 266.273 609.773 266.235 Q610.42 266.197 612.59 266.007 Q614.759 265.778 616.624 265.626 Q618.489 265.474 619.288 265.474 Q619.745 265.474 619.974 265.702 Q620.24 265.893 620.278 266.121 L620.316 266.311 L612.209 299.196 Q615.558 297.864 620.849 291.965 Q626.977 285.114 632.229 285.114 Q634.703 285.114 636.112 286.636 Q637.52 288.12 637.52 290.023 Z" fill="#ffffff" fill-rule="nonzero" fill-opacity="1" /><path clip-path="url(#clip830)" d="M664.086 307.722 Q664.162 306.771 665.646 306.771 L713.413 306.771 Q715.659 306.771 715.697 307.646 Q715.697 308.597 713.565 308.559 L666.179 308.559 Q664.086 308.597 664.086 307.722 M664.086 292.497 Q664.086 291.546 665.722 291.584 L713.337 291.584 Q715.659 291.584 715.697 292.497 Q715.697 293.373 713.718 293.373 L665.646 293.373 Q664.086 293.373 664.086 292.497 Z" fill="#ffffff" fill-rule="nonzero" fill-opacity="1" /><path clip-path="url(#clip830)" d="M745.763 319.559 Q745.763 318.151 745.877 317.732 Q746.029 317.314 746.638 316.667 L761.596 299.996 Q769.779 290.785 769.779 282.754 Q769.779 277.539 767.039 273.809 Q764.337 270.079 759.351 270.079 Q755.925 270.079 753.032 272.173 Q750.14 274.266 748.808 277.996 Q749.036 277.92 749.835 277.92 Q751.776 277.92 752.842 279.138 Q753.946 280.356 753.946 281.993 Q753.946 284.086 752.576 285.114 Q751.244 286.103 749.911 286.103 Q749.379 286.103 748.655 285.989 Q747.97 285.875 746.866 284.809 Q745.763 283.705 745.763 281.764 Q745.763 276.321 749.873 271.982 Q754.022 267.643 760.34 267.643 Q767.496 267.643 772.177 271.906 Q776.897 276.131 776.897 282.754 Q776.897 285.075 776.174 287.207 Q775.489 289.3 774.537 290.937 Q773.624 292.574 771.112 295.2 Q768.6 297.826 766.582 299.691 Q764.565 301.556 760.036 305.515 L751.776 313.545 L765.821 313.545 Q772.672 313.545 773.205 312.936 Q773.966 311.833 774.918 306.009 L776.897 306.009 L774.689 319.559 L745.763 319.559 Z" fill="#ffffff" fill-rule="nonzero" fill-opacity="1" /><polyline clip-path="url(#clip830)" style="stroke:#9d3b84; stroke-linecap:round; stroke-linejoin:round; stroke-width:32.5; stroke-opacity:1; fill:none" points="340.799,377.444 564.889,377.444 "/>
<path clip-path="url(#clip830)" d="M637.52 373.853 Q637.52 376.023 636.188 377.317 Q634.894 378.611 633.257 378.611 Q631.811 378.611 631.049 377.774 Q630.288 376.936 630.288 375.871 Q630.288 375.414 630.479 374.843 Q630.669 374.234 631.088 373.511 Q631.544 372.788 632.496 372.255 Q633.447 371.722 634.741 371.646 Q634.475 371.379 634.399 371.341 Q633.828 370.885 632.762 370.732 Q632.61 370.656 632.077 370.656 Q629.451 370.656 626.787 372.597 Q624.16 374.5 620.925 378.116 Q616.853 382.341 614.226 383.902 Q625.759 385.424 625.759 392.085 Q625.759 393.189 625.454 394.521 Q624.845 397.033 624.845 398.86 Q624.845 402.514 627.319 402.514 Q629.717 402.514 631.24 400.078 Q632.8 397.642 634.094 392.884 Q634.285 392.009 634.475 391.742 Q634.665 391.476 635.198 391.476 Q636.15 391.476 636.15 392.237 Q635.274 396.69 633.333 400.116 Q630.859 404.264 627.167 404.264 Q624.084 404.264 622.029 402.133 Q620.012 399.963 620.012 396.538 Q620.012 395.701 620.316 393.798 Q620.545 393.036 620.545 392.161 Q620.545 390.372 619.555 389.04 Q618.565 387.67 616.967 386.985 Q615.368 386.299 614.036 385.995 Q612.742 385.652 611.486 385.538 Q607.68 401.638 607.147 402.628 Q606.804 403.313 606.043 403.77 Q605.282 404.264 604.483 404.264 Q603.721 404.264 602.96 403.732 Q602.237 403.237 602.237 402.057 Q602.237 401.448 602.541 400.344 L613.846 355.432 L614.074 353.909 Q614.074 353.452 613.884 353.224 Q613.732 352.958 612.818 352.767 Q611.943 352.577 610.192 352.577 Q609.469 352.577 609.126 352.539 Q608.822 352.501 608.555 352.311 Q608.289 352.082 608.289 351.625 Q608.289 350.978 608.555 350.636 Q608.86 350.255 609.088 350.179 Q609.316 350.103 609.773 350.065 Q610.42 350.027 612.59 349.837 Q614.759 349.608 616.624 349.456 Q618.489 349.304 619.288 349.304 Q619.745 349.304 619.974 349.532 Q620.24 349.722 620.278 349.951 L620.316 350.141 L612.209 383.026 Q615.558 381.694 620.849 375.794 Q626.977 368.943 632.229 368.943 Q634.703 368.943 636.112 370.466 Q637.52 371.95 637.52 373.853 Z" fill="#ffffff" fill-rule="nonzero" fill-opacity="1" /><path clip-path="url(#clip830)" d="M664.086 391.552 Q664.162 390.6 665.646 390.6 L713.413 390.6 Q715.659 390.6 715.697 391.476 Q715.697 392.427 713.565 392.389 L666.179 392.389 Q664.086 392.427 664.086 391.552 M664.086 376.327 Q664.086 375.376 665.722 375.414 L713.337 375.414 Q715.659 375.414 715.697 376.327 Q715.697 377.203 713.718 377.203 L665.646 377.203 Q664.086 377.203 664.086 376.327 Z" fill="#ffffff" fill-rule="nonzero" fill-opacity="1" /><path clip-path="url(#clip830)" d="M745.763 392.884 Q745.763 390.562 747.095 389.459 Q748.427 388.355 750.14 388.355 Q751.929 388.355 753.185 389.535 Q754.479 390.676 754.479 392.694 Q754.479 394.863 752.956 396.081 Q751.472 397.299 749.34 396.995 Q751.205 400.116 754.631 401.524 Q758.095 402.932 761.292 402.932 Q764.641 402.932 767.344 400.04 Q770.084 397.147 770.084 390.068 Q770.084 384.054 767.724 380.59 Q765.402 377.127 760.797 377.127 L757.371 377.127 Q756.192 377.127 755.849 377.012 Q755.506 376.898 755.506 376.251 Q755.506 375.49 756.686 375.338 Q757.866 375.338 759.731 375.109 Q764.261 374.957 766.658 371.037 Q768.828 367.383 768.828 362.168 Q768.828 357.411 766.544 355.432 Q764.299 353.414 761.368 353.414 Q758.627 353.414 755.621 354.556 Q752.614 355.698 750.977 358.248 Q755.811 358.248 755.811 362.168 Q755.811 363.881 754.707 365.023 Q753.641 366.127 751.852 366.127 Q750.14 366.127 748.998 365.061 Q747.856 363.957 747.856 362.092 Q747.856 357.639 751.814 354.556 Q755.811 351.473 761.672 351.473 Q767.458 351.473 771.721 354.518 Q776.022 357.563 776.022 362.245 Q776.022 366.85 772.977 370.618 Q769.932 374.386 765.098 375.947 Q771.035 377.127 774.575 381.161 Q778.115 385.158 778.115 390.068 Q778.115 396.157 773.319 400.649 Q768.523 405.102 761.52 405.102 Q755.05 405.102 750.406 401.6 Q745.763 398.098 745.763 392.884 Z" fill="#ffffff" fill-rule="nonzero" fill-opacity="1" /><polyline clip-path="url(#clip830)" style="stroke:#c86fb1; stroke-linecap:round; stroke-linejoin:round; stroke-width:32.5; stroke-opacity:1; fill:none" points="340.799,461.684 564.889,461.684 "/>
<path clip-path="url(#clip830)" d="M637.52 458.503 Q637.52 460.673 636.188 461.967 Q634.894 463.261 633.257 463.261 Q631.811 463.261 631.049 462.424 Q630.288 461.586 630.288 460.521 Q630.288 460.064 630.479 459.493 Q630.669 458.884 631.088 458.161 Q631.544 457.438 632.496 456.905 Q633.447 456.372 634.741 456.296 Q634.475 456.029 634.399 455.991 Q633.828 455.535 632.762 455.382 Q632.61 455.306 632.077 455.306 Q629.451 455.306 626.787 457.247 Q624.16 459.151 620.925 462.766 Q616.853 466.991 614.226 468.552 Q625.759 470.074 625.759 476.735 Q625.759 477.839 625.454 479.171 Q624.845 481.683 624.845 483.51 Q624.845 487.164 627.319 487.164 Q629.717 487.164 631.24 484.728 Q632.8 482.292 634.094 477.534 Q634.285 476.659 634.475 476.392 Q634.665 476.126 635.198 476.126 Q636.15 476.126 636.15 476.887 Q635.274 481.34 633.333 484.766 Q630.859 488.915 627.167 488.915 Q624.084 488.915 622.029 486.783 Q620.012 484.614 620.012 481.188 Q620.012 480.351 620.316 478.448 Q620.545 477.686 620.545 476.811 Q620.545 475.022 619.555 473.69 Q618.565 472.32 616.967 471.635 Q615.368 470.95 614.036 470.645 Q612.742 470.303 611.486 470.188 Q607.68 486.288 607.147 487.278 Q606.804 487.963 606.043 488.42 Q605.282 488.915 604.483 488.915 Q603.721 488.915 602.96 488.382 Q602.237 487.887 602.237 486.707 Q602.237 486.098 602.541 484.994 L613.846 440.082 L614.074 438.559 Q614.074 438.103 613.884 437.874 Q613.732 437.608 612.818 437.417 Q611.943 437.227 610.192 437.227 Q609.469 437.227 609.126 437.189 Q608.822 437.151 608.555 436.961 Q608.289 436.732 608.289 436.276 Q608.289 435.629 608.555 435.286 Q608.86 434.905 609.088 434.829 Q609.316 434.753 609.773 434.715 Q610.42 434.677 612.59 434.487 Q614.759 434.258 616.624 434.106 Q618.489 433.954 619.288 433.954 Q619.745 433.954 619.974 434.182 Q620.24 434.373 620.278 434.601 L620.316 434.791 L612.209 467.676 Q615.558 466.344 620.849 460.445 Q626.977 453.594 632.229 453.594 Q634.703 453.594 636.112 455.116 Q637.52 456.6 637.52 458.503 Z" fill="#ffffff" fill-rule="nonzero" fill-opacity="1" /><path clip-path="url(#clip830)" d="M664.086 476.202 Q664.162 475.251 665.646 475.251 L713.413 475.251 Q715.659 475.251 715.697 476.126 Q715.697 477.077 713.565 477.039 L666.179 477.039 Q664.086 477.077 664.086 476.202 M664.086 460.977 Q664.086 460.026 665.722 460.064 L713.337 460.064 Q715.659 460.064 715.697 460.977 Q715.697 461.853 713.718 461.853 L665.646 461.853 Q664.086 461.853 664.086 460.977 Z" fill="#ffffff" fill-rule="nonzero" fill-opacity="1" /><path clip-path="url(#clip830)" d="M745.763 475.174 L745.763 472.777 L769.703 436.199 Q770.312 435.248 771.264 435.286 Q772.139 435.286 772.33 435.629 Q772.52 435.971 772.52 437.303 L772.52 472.777 L780.322 472.777 L780.322 475.174 L772.52 475.174 L772.52 481.949 Q772.52 484.195 773.433 484.918 Q774.385 485.641 778.419 485.641 L780.056 485.641 L780.056 488.039 Q776.859 487.811 769.475 487.811 Q762.129 487.811 758.932 488.039 L758.932 485.641 L760.569 485.641 Q764.603 485.641 765.555 484.956 Q766.506 484.233 766.506 481.949 L766.506 475.174 L745.763 475.174 M747.97 472.777 L766.963 472.777 L766.963 443.698 L747.97 472.777 Z" fill="#ffffff" fill-rule="nonzero" fill-opacity="1" /></svg>
